<svg width="162" height="80" viewBox="0 0 162 80" fill="none" xmlns="http://www.w3.org/2000/svg">
<g clip-path="url(#clip0_514_3036)">
<rect width="162" height="80" rx="10" fill="#2E2D2B"/>
<rect x="75" y="21" width="97" height="62" transform="rotate(15 75 21)" fill="#F08F3B"/>
<path d="M104.034 65.0681L102.986 68.9801L84.8091 64.1097L85.3782 61.0155L100.363 47.1644L104.331 48.2276L98.1085 54.2598L90.5704 61.4606L104.034 65.0681ZM105.405 48.5155L98.6517 73.7185L93.6614 72.3814L100.415 47.1784L105.405 48.5155Z" fill="#D75F4A"/>
<path d="M125.52 65.0368L124.351 69.3989C123.844 71.2914 123.204 72.8702 122.432 74.1351C121.663 75.3884 120.78 76.3515 119.782 77.0242C118.799 77.6885 117.733 78.0891 116.582 78.226C115.431 78.3628 114.22 78.261 112.949 77.9205C111.933 77.6482 111.019 77.2674 110.209 76.7783C109.403 76.2776 108.721 75.6559 108.165 74.9132C107.62 74.1736 107.207 73.3145 106.924 72.3359C106.656 71.3488 106.547 70.2312 106.597 68.9829C106.646 67.7347 106.875 66.3489 107.283 64.8257L108.452 60.4636C108.959 58.5711 109.596 57.0039 110.362 55.7621C111.143 54.5118 112.025 53.5545 113.007 52.8902C114.002 52.229 115.073 51.8357 116.221 51.7104C117.372 51.5736 118.582 51.6754 119.853 52.0159C120.87 52.2882 121.776 52.6732 122.571 53.1708C123.381 53.6599 124.065 54.27 124.625 55.0012C125.184 55.7324 125.598 56.5915 125.865 57.5786C126.136 58.5541 126.247 59.6659 126.197 60.9142C126.151 62.1509 125.925 63.5251 125.52 65.0368ZM119.167 68.7149L120.693 63.02C120.937 62.1083 121.099 61.2981 121.177 60.5894C121.267 59.8838 121.277 59.2681 121.208 58.7424C121.141 58.2051 121.004 57.7477 120.796 57.3703C120.587 56.9929 120.317 56.6854 119.984 56.4479C119.652 56.2104 119.26 56.0313 118.809 55.9105C118.243 55.7589 117.712 55.7339 117.214 55.8355C116.728 55.9402 116.27 56.1947 115.839 56.5989C115.412 56.9916 115.011 57.5643 114.636 58.3173C114.276 59.0617 113.944 59.9994 113.641 61.1303L112.115 66.8252C111.871 67.7369 111.702 68.5513 111.609 69.2684C111.527 69.9887 111.518 70.6232 111.582 71.1721C111.66 71.7124 111.796 72.1756 111.989 72.5614C112.198 72.9388 112.468 73.2463 112.801 73.4838C113.145 73.7245 113.542 73.9051 113.993 74.0258C114.547 74.1744 115.067 74.1963 115.554 74.0916C116.054 73.9784 116.52 73.7197 116.95 73.3155C117.395 72.9029 117.799 72.3186 118.163 71.5626C118.526 70.8066 118.861 69.8573 119.167 68.7149Z" fill="#D75F4A"/>
<path d="M145.498 76.1783L144.45 80.0903L126.273 75.22L126.842 72.1257L141.827 58.2747L145.795 59.3379L139.572 65.37L132.034 72.5708L145.498 76.1783ZM146.869 59.6258L140.116 84.8288L135.125 83.4916L141.879 58.2886L146.869 59.6258Z" fill="#D75F4A"/>
<rect x="18" y="31" width="70" height="45" transform="rotate(45 18 31)" fill="#D95B4F"/>
<rect x="116" y="-39" width="70" height="45" transform="rotate(30 116 -39)" fill="#2D87DB"/>
<rect x="9" width="71" height="41" fill="#32808D"/>
<path d="M37.3806 21.9679V24.385H26.1499L26 22.5134L32.4986 12.2139H34.9503L32.2952 16.6524L29.062 21.9679H37.3806ZM35.6141 12.2139V27.7861H32.5307V12.2139H35.6141Z" fill="#4AC6D7"/>
<path d="M49.7621 18.631V21.3262C49.7621 22.4955 49.6372 23.5045 49.3874 24.3529C49.1375 25.1943 48.7771 25.8859 48.306 26.4278C47.8421 26.9626 47.2889 27.3583 46.6466 27.615C46.0042 27.8717 45.2905 28 44.5054 28C43.8773 28 43.292 27.9216 42.7495 27.7647C42.2071 27.6007 41.7182 27.3476 41.2828 27.0053C40.8546 26.6631 40.4834 26.2317 40.1694 25.7112C39.8625 25.1836 39.6269 24.5561 39.4628 23.8289C39.2986 23.1016 39.2165 22.2674 39.2165 21.3262V18.631C39.2165 17.4617 39.3414 16.4599 39.5912 15.6257C39.8482 14.7843 40.2086 14.0963 40.6726 13.5615C41.1436 13.0267 41.7003 12.6346 42.3427 12.385C42.9851 12.1283 43.6988 12 44.4839 12C45.112 12 45.6937 12.082 46.229 12.246C46.7715 12.4029 47.2604 12.6488 47.6958 12.984C48.1312 13.3191 48.5023 13.7504 48.8092 14.2781C49.1161 14.7986 49.3517 15.4225 49.5158 16.1497C49.68 16.8699 49.7621 17.697 49.7621 18.631ZM46.668 21.7326V18.2139C46.668 17.6506 46.6359 17.1586 46.5716 16.738C46.5145 16.3173 46.4253 15.9608 46.304 15.6684C46.1826 15.369 46.0328 15.1266 45.8543 14.9412C45.6759 14.7558 45.4725 14.6203 45.2441 14.5348C45.0157 14.4492 44.7623 14.4064 44.4839 14.4064C44.1342 14.4064 43.8237 14.4742 43.5525 14.6096C43.2884 14.7451 43.0636 14.9626 42.878 15.262C42.6924 15.5544 42.5497 15.9465 42.4498 16.4385C42.357 16.9234 42.3106 17.5152 42.3106 18.2139V21.7326C42.3106 22.2959 42.3391 22.7914 42.3962 23.2193C42.4605 23.6471 42.5533 24.0143 42.6746 24.3209C42.8031 24.6203 42.953 24.8663 43.1243 25.0588C43.3027 25.2442 43.5061 25.3797 43.7345 25.4652C43.97 25.5508 44.227 25.5936 44.5054 25.5936C44.8479 25.5936 45.1513 25.5258 45.4154 25.3904C45.6866 25.2478 45.915 25.0267 46.1006 24.7273C46.2933 24.4207 46.436 24.0214 46.5288 23.5294C46.6216 23.0374 46.668 22.4385 46.668 21.7326Z" fill="#4AC6D7"/>
<path d="M63 21.9679V24.385H51.7693L51.6194 22.5134L58.118 12.2139H60.5697L57.9146 16.6524L54.6813 21.9679H63ZM61.2335 12.2139V27.7861H58.1501V12.2139H61.2335Z" fill="#4AC6D7"/>
</g>
<defs>
<clipPath id="clip0_514_3036">
<rect width="162" height="80" rx="10" fill="white"/>
</clipPath>
</defs>
</svg>
