<svg width="127" height="28" viewBox="0 0 127 28" fill="none" xmlns="http://www.w3.org/2000/svg">
<path d="M15.8861 0.5L31.2723 27.5H0.5L15.8861 0.5Z" fill="#262626"/>
<path d="M63.9624 13.94C63.9624 21.3627 57.705 27.38 49.9862 27.38C42.2673 27.38 36.01 21.3627 36.01 13.94C36.01 6.51729 42.2673 0.5 49.9862 0.5C57.705 0.5 63.9624 6.51729 63.9624 13.94Z" fill="#262626"/>
<path d="M95.2312 13.94C95.2312 21.3627 89.292 27.38 81.9656 27.38C74.6393 27.38 68.7001 21.3627 68.7001 13.94C68.7001 6.51729 74.6393 0.5 81.9656 0.5C89.292 0.5 95.2312 6.51729 95.2312 13.94Z" fill="#262626"/>
<path d="M68.7001 0.5H83.6238V27.38H68.7001V0.5Z" fill="#262626"/>
<path d="M99.9689 0.5L113.116 10.7L126.5 0.5V27.38H99.9689V0.5Z" fill="#262626"/>
</svg>
