<svg width="185" height="131" viewBox="0 0 185 131" fill="none" xmlns="http://www.w3.org/2000/svg">
<path d="M12.8054 92.4696C13.7085 93.1768 14.4078 94.0386 14.9031 95.0553C15.3983 96.072 15.6461 97.1989 15.6461 98.4367V100.293C15.6461 102.827 14.9322 104.853 13.5047 106.37C12.077 107.888 10.1976 108.646 7.86672 108.646H2.31634C1.64613 108.646 1.09266 108.426 0.65565 107.984C0.21837 107.542 0 106.982 0 106.304V85.2652C0 82.7901 0.692045 80.8012 2.07586 79.2984C3.45995 77.7956 5.27351 77.0442 7.51706 77.0442C9.78972 77.0442 11.6254 77.7956 13.0238 79.2984C14.4224 80.8012 15.1217 82.7901 15.1217 85.2652V87.0333C15.1508 88.1531 14.9613 89.1842 14.5534 90.1273C14.1455 91.0701 13.5629 91.8509 12.8054 92.4696ZM5.46303 90.3923H7.56073C8.23094 90.3923 8.74802 90.1494 9.11224 89.663C9.47646 89.1768 9.6587 88.5064 9.6587 87.6519V84.7791C9.6587 83.9835 9.4619 83.3499 9.06856 82.8785C8.67523 82.4071 8.14359 82.1712 7.47338 82.1712C6.83229 82.1712 6.33705 82.4071 5.98739 82.8785C5.63773 83.3499 5.46303 83.9835 5.46303 84.7791V90.3923ZM10.0957 98.2597C10.0957 97.3169 9.88435 96.5876 9.4619 96.072C9.03945 95.5562 8.46414 95.2985 7.7357 95.2985H5.46303V103.608H7.7357C8.49325 103.608 9.07584 103.357 9.48374 102.857C9.89163 102.356 10.0957 101.648 10.0957 100.735V98.2597ZM25.6545 108.956C23.2653 108.956 21.3278 108.182 19.8418 106.635C18.3558 105.088 17.6128 103.048 17.6128 100.514V85.4863C17.6128 82.9521 18.3558 80.9116 19.8418 79.3646C21.3278 77.8177 23.2653 77.0442 25.6545 77.0442C28.0436 77.0442 29.9739 77.8103 31.4453 79.3426C32.9165 80.8748 33.6522 82.8785 33.6522 85.3535V100.646C33.6522 103.122 32.9165 105.125 31.4453 106.657C29.9739 108.19 28.0436 108.956 25.6545 108.956ZM25.6545 103.785C26.412 103.785 27.0164 103.542 27.468 103.055C27.9198 102.569 28.1455 101.899 28.1455 101.044V84.9558C28.1455 84.1013 27.9198 83.4238 27.468 82.9227C27.0164 82.4218 26.412 82.1712 25.6545 82.1712C24.8969 82.1712 24.2849 82.4292 23.8188 82.9447C23.3527 83.4606 23.1195 84.1749 23.1195 85.0885V100.912C23.1195 101.796 23.3454 102.496 23.797 103.011C24.2485 103.527 24.8678 103.785 25.6545 103.785ZM37.9789 108.47C37.4545 108.47 37.1922 108.204 37.1922 107.674V85.3535C37.1922 82.8785 37.9061 80.8675 39.3336 79.3205C40.7614 77.7735 42.6552 77 45.0153 77C47.3753 77 49.2764 77.7735 50.7188 79.3205C52.1608 80.8675 52.882 82.8785 52.882 85.3535V107.674C52.882 108.204 52.6197 108.47 52.0953 108.47H48.1619C47.6376 108.47 47.3753 108.204 47.3753 107.674V84.9558C47.3753 84.1013 47.1639 83.4238 46.7415 82.9227C46.319 82.4218 45.7437 82.1712 45.0153 82.1712C44.2868 82.1712 43.7115 82.4218 43.2891 82.9227C42.8663 83.4238 42.6552 84.1013 42.6552 84.9558V107.674C42.6552 108.204 42.4075 108.47 41.9123 108.47H37.9789ZM57.5147 108.47C56.9903 108.47 56.728 108.204 56.728 107.674V85.398C56.728 82.8932 57.4492 80.8748 58.8912 79.3426C60.3335 77.8103 62.2201 77.0442 64.551 77.0442C66.911 77.0442 68.8122 77.8103 70.2545 79.3426C71.6966 80.8748 72.4178 82.8932 72.4178 85.398V107.674C72.4178 108.204 72.1554 108.47 71.6311 108.47H67.6977C67.1734 108.47 66.911 108.204 66.911 107.674V98.967H62.191V107.674C62.191 108.204 61.9433 108.47 61.448 108.47H57.5147ZM66.911 93.8841V85.0002C66.911 84.1455 66.6997 83.4679 66.2772 82.9668C65.8548 82.466 65.2795 82.2154 64.551 82.2154C63.8226 82.2154 63.2473 82.466 62.8248 82.9668C62.4021 83.4679 62.191 84.1455 62.191 85.0002V93.8841H66.911ZM83.8682 109C81.5082 109 79.5997 108.234 78.1431 106.702C76.6862 105.17 75.9578 103.151 75.9578 100.646V85.3094C75.9578 82.8343 76.6717 80.8306 78.0994 79.2984C79.5269 77.7661 81.4062 77 83.7372 77C85.9807 77 87.8309 77.7882 89.2875 79.3646C90.7444 80.9411 91.502 83.026 91.5602 85.6188C91.5602 86.1491 91.3124 86.4144 90.8172 86.4144H86.8838C86.3886 86.4144 86.1117 86.1639 86.0535 85.663C86.0244 84.4844 85.7985 83.6078 85.376 83.0333C84.9536 82.4586 84.4074 82.1712 83.7372 82.1712C83.0087 82.1712 82.448 82.4144 82.0546 82.9006C81.6613 83.3867 81.4645 84.0571 81.4645 84.9116V101.044C81.4645 101.899 81.6977 102.576 82.1638 103.077C82.6299 103.578 83.2419 103.829 83.9995 103.829C84.7279 103.829 85.3178 103.586 85.7693 103.099C86.2209 102.613 86.4468 101.973 86.4468 101.177V96.1824H84.6988C84.1742 96.1824 83.9121 95.9172 83.9121 95.3869V92.2046C83.9121 91.674 84.1742 91.409 84.6988 91.409H89.5935C90.322 91.409 90.8827 91.6077 91.276 92.0055C91.6694 92.4033 91.8662 92.9854 91.8662 93.7515V100.779C91.8662 103.225 91.1305 105.206 89.659 106.724C88.1876 108.241 86.2576 109 83.8682 109ZM95.7559 108.47C95.2315 108.47 94.9692 108.204 94.9692 107.674V85.398C94.9692 82.8932 95.6904 80.8748 97.1324 79.3426C98.5747 77.8103 100.461 77.0442 102.792 77.0442C105.152 77.0442 107.053 77.8103 108.496 79.3426C109.938 80.8748 110.659 82.8932 110.659 85.398V107.674C110.659 108.204 110.397 108.47 109.872 108.47H105.939C105.415 108.47 105.152 108.204 105.152 107.674V98.967H100.432V107.674C100.432 108.204 100.184 108.47 99.6892 108.47H95.7559ZM105.152 93.8841V85.0002C105.152 84.1455 104.941 83.4679 104.518 82.9668C104.096 82.466 103.521 82.2154 102.792 82.2154C102.064 82.2154 101.488 82.466 101.066 82.9668C100.643 83.4679 100.432 84.1455 100.432 85.0002V93.8841H105.152ZM115.292 108.47C114.767 108.47 114.505 108.204 114.505 107.674V85.398C114.505 82.8932 115.226 80.8675 116.668 79.3205C118.111 77.7735 119.983 77 122.284 77C124.673 77 126.596 77.7735 128.053 79.3205C129.51 80.8675 130.238 82.8932 130.238 85.398V89.2431C130.238 90.7754 129.955 92.1383 129.386 93.3317C128.818 94.525 128.024 95.4752 127.004 96.1824L131.244 107.674L131.287 107.851C131.287 108.057 131.215 108.212 131.069 108.315C130.923 108.418 130.734 108.47 130.501 108.47H126.261C126.058 108.47 125.904 108.411 125.803 108.293C125.701 108.175 125.591 107.984 125.475 107.718L122.066 97.5966H120.012V107.674C120.012 108.204 119.764 108.47 119.269 108.47H115.292ZM122.022 92.514C122.925 92.514 123.603 92.2487 124.054 91.7184C124.506 91.1879 124.732 90.4217 124.732 89.42V85.0002C124.732 84.1455 124.521 83.4679 124.098 82.9668C123.675 82.466 123.086 82.2154 122.328 82.2154C121.629 82.2154 121.068 82.466 120.645 82.9668C120.223 83.4679 120.012 84.1455 120.012 85.0002V92.514H122.022ZM136.706 108.646C135.949 108.646 135.374 108.448 134.98 108.05C134.587 107.652 134.39 107.085 134.39 106.348V79.652C134.39 78.9153 134.587 78.3482 134.98 77.9504C135.374 77.5526 135.949 77.3536 136.706 77.3536H142.082C144.442 77.3536 146.343 78.1198 147.786 79.652C149.228 81.1843 149.949 83.1879 149.949 85.663V100.337C149.949 102.812 149.228 104.816 147.786 106.348C146.343 107.881 144.442 108.646 142.082 108.646H136.706ZM141.776 103.564C142.65 103.564 143.313 103.298 143.765 102.768C144.217 102.238 144.442 101.486 144.442 100.514V85.4863C144.442 83.4532 143.554 82.4365 141.776 82.4365H139.853V103.564H141.776ZM161.05 108.646C158.69 108.646 156.789 107.881 155.347 106.348C153.904 104.816 153.183 102.812 153.183 100.337V85.6188C153.183 83.1732 153.904 81.1843 155.347 79.652C156.789 78.1198 158.69 77.3536 161.05 77.3536H165.639C166.163 77.3536 166.426 77.6042 166.426 78.105V81.641C166.426 82.1712 166.163 82.4365 165.639 82.4365H161.706C160.773 82.4365 160.038 82.7386 159.498 83.3425C158.959 83.9467 158.69 84.7644 158.69 85.7958V90.3923H164.546C165.071 90.3923 165.333 90.6576 165.333 91.1879V94.5471C165.333 95.0774 165.071 95.3427 164.546 95.3427H158.69V100.204C158.69 101.236 158.959 102.054 159.498 102.657C160.038 103.262 160.773 103.564 161.706 103.564H165.639C166.163 103.564 166.426 103.814 166.426 104.315V107.895C166.426 108.396 166.163 108.646 165.639 108.646H161.05ZM170.097 108.47C169.573 108.47 169.31 108.204 169.31 107.674V85.3535C169.31 82.8785 170.024 80.8675 171.452 79.3205C172.879 77.7735 174.773 77 177.133 77C179.493 77 181.394 77.7735 182.837 79.3205C184.279 80.8675 185 82.8785 185 85.3535V107.674C185 108.204 184.738 108.47 184.213 108.47H180.28C179.756 108.47 179.493 108.204 179.493 107.674V84.9558C179.493 84.1013 179.282 83.4238 178.859 82.9227C178.437 82.4218 177.862 82.1712 177.133 82.1712C176.405 82.1712 175.83 82.4218 175.407 82.9227C174.984 83.4238 174.773 84.1013 174.773 84.9558V107.674C174.773 108.204 174.525 108.47 174.03 108.47H170.097Z" fill="#333333"/>
<path d="M25.3236 119.375V118H19V128.094H20.5592V119.375H25.3236ZM32.2968 128.094V123.288C32.2968 121.658 31.2717 120.821 29.2362 120.821C28.5431 120.821 28.0235 120.906 27.6047 121.105C27.2437 121.261 27.0563 121.431 26.652 121.856L27.6192 122.749C27.8357 122.48 27.9947 122.338 28.2112 122.239C28.471 122.111 28.7741 122.055 29.1929 122.055C30.3478 122.055 30.8387 122.452 30.8387 123.387V123.912H28.8753C27.3161 123.912 26.3632 124.691 26.3632 125.996C26.3632 127.385 27.2728 128.165 28.9041 128.165C29.7704 128.165 30.2467 128.037 30.8532 127.442V128.094H32.2968ZM30.8387 125.499C30.8387 126.548 30.3766 126.974 29.2362 126.974C28.24 126.974 27.7924 126.648 27.7924 125.953C27.7924 125.273 28.24 124.932 29.1063 124.932H30.8387V125.499ZM40.5405 124.521C40.5405 123.671 40.4972 123.189 40.3818 122.678C40.0929 121.431 39.1978 120.821 37.8985 120.821C37.0179 120.821 36.5991 121.062 36.0074 121.658V120.906H34.5636V131H36.0362V127.357C36.5849 127.952 37.0757 128.179 37.913 128.179C38.6637 128.179 39.299 127.952 39.732 127.527C40.3095 126.96 40.5405 126.081 40.5405 124.521ZM39.0825 124.493C39.0825 126.208 38.6491 126.889 37.5666 126.889C36.4837 126.889 36.0362 126.208 36.0362 124.55C36.0362 123.727 36.1228 123.189 36.3105 122.806C36.5415 122.338 36.9458 122.111 37.552 122.111C38.6491 122.111 39.0825 122.777 39.0825 124.493ZM49.8235 128.094V120.906H48.3797L46.1998 125.187L44.0053 120.906H42.5472V128.094H44.0198V123.486L45.7377 126.775H46.6618L48.3509 123.486V128.094H49.8235ZM57.9228 124.465C57.9228 123.089 57.6775 122.295 57.071 121.672C56.5226 121.119 55.7574 120.821 54.8765 120.821C53.996 120.821 53.2453 121.119 52.6966 121.672C52.0758 122.31 51.8305 123.089 51.8305 124.493C51.8305 125.911 52.0758 126.69 52.6966 127.328C53.2453 127.881 53.996 128.179 54.8765 128.179C55.7574 128.179 56.5226 127.881 57.071 127.328C57.6918 126.69 57.9228 125.911 57.9228 124.465ZM56.4648 124.521C56.4648 125.358 56.3636 125.996 56.0172 126.407C55.7574 126.705 55.3674 126.889 54.8765 126.889C54.4147 126.889 54.0393 126.733 53.7794 126.435C53.4473 126.066 53.3031 125.499 53.3031 124.55C53.3031 123.699 53.3897 123.033 53.7507 122.593C54.0105 122.295 54.3857 122.111 54.8765 122.111C55.3674 122.111 55.7429 122.295 56.0027 122.579C56.3782 122.99 56.4648 123.628 56.4648 124.521ZM65.7914 128.094V120.906H64.3188V123.77H61.4024V120.906H59.9298V128.094H61.4024V125.032H64.3188V128.094H65.7914ZM74.2083 128.094V120.906H72.7357L69.6028 125.783V120.906H68.1303V128.094H69.6028L72.7357 123.146V128.094H74.2083ZM81.9467 128.094V120.906H78.4961C77.0959 120.906 76.1142 121.828 76.1142 123.132C76.1142 124.167 76.7204 124.932 77.6588 125.187L76.0131 128.094H77.7455L79.1314 125.457C79.1314 125.457 80.4453 125.457 80.4741 125.457V128.094H81.9467ZM80.4886 124.266H78.7417C78.0053 124.266 77.5722 123.855 77.5722 123.189C77.5722 122.522 78.0053 122.111 78.7417 122.111H80.4886V124.266ZM92.7743 122.168V120.906H86.7396V122.168H89.064V128.094H90.5366V122.168H92.7743ZM99.921 124.932V124.28C99.921 122.168 98.7225 120.821 96.8314 120.821C94.9113 120.821 93.7273 122.21 93.7273 124.465C93.7273 126.903 94.8534 128.179 97.0479 128.179C98.2174 128.179 98.9247 127.853 99.7478 127.059L98.8236 126.194C98.304 126.69 97.8419 126.945 97.1057 126.945C95.734 126.945 95.2144 126.137 95.1856 124.932H99.921ZM98.4772 123.912H95.1856C95.2144 122.919 95.6474 122.026 96.8314 122.026C98.0296 122.026 98.4051 122.934 98.4772 123.912ZM107.76 128.094V120.906H102.722L102.606 124.904C102.563 126.534 101.855 126.832 101.264 126.832H100.961V128.094H101.755C103.111 128.094 104.007 127.243 104.064 125.216L104.151 122.168H106.288V128.094H107.76ZM115.499 128.094V123.288C115.499 121.658 114.474 120.821 112.438 120.821C111.745 120.821 111.225 120.906 110.806 121.105C110.446 121.261 110.258 121.431 109.854 121.856L110.821 122.749C111.038 122.48 111.196 122.338 111.413 122.239C111.673 122.111 111.976 122.055 112.395 122.055C113.55 122.055 114.041 122.452 114.041 123.387V123.912H112.077C110.518 123.912 109.565 124.691 109.565 125.996C109.565 127.385 110.475 128.165 112.106 128.165C112.972 128.165 113.449 128.037 114.055 127.442V128.094H115.499ZM114.041 125.499C114.041 126.548 113.578 126.974 112.438 126.974C111.442 126.974 110.994 126.648 110.994 125.953C110.994 125.273 111.442 124.932 112.308 124.932H114.041V125.499ZM127.308 128.094V120.906H125.836L122.703 125.783V120.906H121.23V128.094H122.703L125.836 123.146V128.094H127.308ZM139.869 130.079V126.832H138.858V120.906H133.906V121.913C133.906 124.507 133.574 125.584 133.054 126.832H132.217V130.079H133.617V128.094H138.454V130.079H139.869ZM137.385 126.832H134.57C134.96 125.882 135.249 124.947 135.292 123.345C135.292 123.217 135.306 122.324 135.306 122.168H137.385V126.832ZM146.928 120.906H145.355L143.651 125.981L141.904 120.906H140.331L142.9 127.754L142.496 128.888C142.28 129.497 142.049 129.639 141.442 129.639H141.067V130.943H141.659C142.713 130.943 143.334 130.504 143.694 129.525L146.928 120.906ZM157.569 128.094V120.906H156.096V126.832H153.627V120.906H152.155V126.832H149.671V120.906H148.199V128.094H157.569ZM166 128.094V120.906H164.527L161.395 125.783V120.906H159.922V128.094H161.395L164.527 123.146V128.094H166Z" fill="#595959"/>
<path d="M92.5 57.9015C95.6237 57.9015 98.5806 55.1011 100.835 50.5749C103.309 45.6084 104.839 38.6905 104.839 31C104.839 23.3095 103.309 16.3918 100.835 11.4251C98.5806 6.89885 95.624 4.09849 92.5 4.09849C89.376 4.09849 86.4194 6.89885 84.1649 11.4251C81.6912 16.3918 80.1611 23.3095 80.1611 31C80.1611 38.6905 81.6915 45.6084 84.1649 50.5749C86.4194 55.1011 89.3763 57.9015 92.5 57.9015ZM104.557 52.3676C101.593 58.3186 97.3392 62 92.5 62C87.6605 62 83.4067 58.3186 80.4428 52.3676C77.698 46.8566 76 39.2982 76 31C76 22.7018 77.6978 15.1434 80.4428 9.63235C83.4067 3.68145 87.6603 0 92.5 0C97.3397 0 101.593 3.68145 104.557 9.63235C107.302 15.1434 109 22.7018 109 31C109 39.2982 107.302 46.8566 104.557 52.3676Z" fill="#E6BE80"/>
<path d="M64.0442 8.50608C68.1088 5.93549 73.6893 6.76175 79.424 10.1757C84.7322 13.3357 90.2902 18.7769 94.8383 25.7491C99.3856 32.72 102.1 39.9594 102.811 46.0269C103.579 52.5821 102.021 57.923 97.9558 60.4938C93.8912 63.0644 88.3112 62.2384 82.5763 58.8247C77.2683 55.665 71.7106 50.224 67.1622 43.2521L67.125 43.1948C62.5994 36.2395 59.8982 29.0237 59.1895 22.973C58.4213 16.4178 59.9792 11.0769 64.0442 8.50608ZM77.2852 13.6703C72.9102 11.066 68.896 10.2823 66.2804 11.9364C63.665 13.5905 62.7198 17.5104 63.3057 22.5105C63.9483 27.9983 66.4462 34.6118 70.6456 41.0493L70.6667 41.0816C74.8612 47.502 79.9218 52.4767 84.7151 55.3302C89.0898 57.9342 93.104 58.7176 95.7196 57.0635C98.335 55.4094 99.2802 51.4895 98.6943 46.4894C98.0515 41.0019 95.5535 34.3881 91.3544 27.9509C87.1562 21.5148 82.0864 16.5283 77.2852 13.6703Z" fill="#5FA494"/>
<path d="M118.72 11.9362C116.104 10.2821 112.09 11.0658 107.715 13.6698C102.914 16.5279 97.844 21.5144 93.6454 27.9508C89.4463 34.3883 86.9481 41.0021 86.3052 46.4894C85.7193 51.4896 86.6648 55.4095 89.2802 57.0636C91.8958 58.718 95.9104 57.9343 100.285 55.3302C105.086 52.4722 110.156 47.4854 114.355 41.0493C118.554 34.6115 121.052 27.9976 121.695 22.5104C122.281 17.5102 121.335 13.5903 118.72 11.9362ZM105.576 10.1758C111.311 6.76181 116.892 5.93554 120.956 8.50588C125.021 11.0767 126.579 16.4174 125.811 22.9729C125.099 29.0407 122.386 36.2801 117.839 43.251C113.29 50.223 107.732 55.6645 102.424 58.8242C96.6889 62.2382 91.1086 63.0645 87.044 60.4939C82.9789 57.923 81.4213 52.5822 82.1895 46.0269C82.9006 39.9591 85.6144 32.7197 90.1615 25.749C94.7096 18.7768 100.268 13.3355 105.576 10.1758Z" fill="#F08365"/>
</svg>
