<svg width="222" height="158" viewBox="0 0 222 158" fill="none" xmlns="http://www.w3.org/2000/svg">
<path d="M15.3665 111.37C16.4502 112.21 17.2894 113.233 17.8837 114.441C18.478 115.648 18.7753 116.986 18.7753 118.456V120.66C18.7753 123.67 17.9186 126.075 16.2057 127.877C14.4923 129.679 12.2371 130.58 9.44006 130.58H2.77961C1.97536 130.58 1.31119 130.318 0.78678 129.793C0.262044 129.268 0 128.603 0 127.799V102.815C0 99.8758 0.830454 97.5139 2.49104 95.7293C4.15195 93.9447 6.32821 93.0524 9.02047 93.0524C11.7477 93.0524 13.9505 93.9447 15.6285 95.7293C17.3069 97.5139 18.1461 99.8758 18.1461 102.815V104.915C18.181 106.244 17.9536 107.469 17.4641 108.589C16.9746 109.708 16.2755 110.635 15.3665 111.37ZM6.55563 108.903H9.07288C9.87713 108.903 10.4976 108.615 10.9347 108.037C11.3717 107.46 11.5904 106.664 11.5904 105.649V102.238C11.5904 101.293 11.3543 100.54 10.8823 99.9807C10.4103 99.4209 9.77231 99.1409 8.96806 99.1409C8.19875 99.1409 7.60446 99.4209 7.18486 99.9807C6.76527 100.54 6.55563 101.293 6.55563 102.238V108.903ZM12.1149 118.246C12.1149 117.126 11.8612 116.26 11.3543 115.648C10.8473 115.035 10.157 114.73 9.28284 114.73H6.55563V124.597H9.28284C10.1919 124.597 10.891 124.299 11.3805 123.705C11.87 123.11 12.1149 122.27 12.1149 121.185V118.246ZM30.7853 130.948C27.9184 130.948 25.5933 130.029 23.8101 128.192C22.0269 126.355 21.1353 123.932 21.1353 120.923V103.078C21.1353 100.068 22.0269 97.6451 23.8101 95.808C25.5933 93.971 27.9184 93.0524 30.7853 93.0524C33.6523 93.0524 35.9686 93.9622 37.7344 95.7818C39.4998 97.6013 40.3826 99.9807 40.3826 102.92V121.08C40.3826 124.019 39.4998 126.399 37.7344 128.218C35.9686 130.038 33.6523 130.948 30.7853 130.948ZM30.7853 124.807C31.6944 124.807 32.4197 124.518 32.9616 123.941C33.5038 123.363 33.7746 122.567 33.7746 121.553V102.447C33.7746 101.433 33.5038 100.628 32.9616 100.033C32.4197 99.4384 31.6944 99.1409 30.7853 99.1409C29.8763 99.1409 29.1419 99.4471 28.5826 100.059C28.0232 100.672 27.7434 101.52 27.7434 102.605V121.395C27.7434 122.445 28.0145 123.276 28.5564 123.888C29.0982 124.5 29.8413 124.807 30.7853 124.807ZM45.5747 130.37C44.9454 130.37 44.6307 130.055 44.6307 129.426V102.92C44.6307 99.9807 45.4873 97.5926 47.2003 95.7556C48.9136 93.9185 51.1863 93 54.0183 93C56.8503 93 59.1317 93.9185 60.8625 95.7556C62.593 97.5926 63.4584 99.9807 63.4584 102.92V129.426C63.4584 130.055 63.1436 130.37 62.5144 130.37H57.7943C57.1651 130.37 56.8503 130.055 56.8503 129.426V102.447C56.8503 101.433 56.5967 100.628 56.0898 100.033C55.5828 99.4384 54.8924 99.1409 54.0183 99.1409C53.1442 99.1409 52.4538 99.4384 51.9469 100.033C51.4396 100.628 51.1863 101.433 51.1863 102.447V129.426C51.1863 130.055 50.889 130.37 50.2947 130.37H45.5747ZM69.0176 130.37C68.3884 130.37 68.0736 130.055 68.0736 129.426V102.973C68.0736 99.9982 68.939 97.6013 70.6694 95.7818C72.4002 93.9622 74.6642 93.0524 77.4612 93.0524C80.2933 93.0524 82.5747 93.9622 84.3055 95.7818C86.0359 97.6013 86.9013 99.9982 86.9013 102.973V129.426C86.9013 130.055 86.5865 130.37 85.9573 130.37H81.2373C80.608 130.37 80.2933 130.055 80.2933 129.426V119.086H74.6292V129.426C74.6292 130.055 74.3319 130.37 73.7376 130.37H69.0176ZM80.2933 113.05V102.5C80.2933 101.485 80.0396 100.681 79.5327 100.086C79.0257 99.4908 78.3354 99.1933 77.4612 99.1933C76.5871 99.1933 75.8968 99.4908 75.3898 100.086C74.8825 100.681 74.6292 101.485 74.6292 102.5V113.05H80.2933ZM100.642 131C97.8098 131 95.5197 130.09 93.7717 128.271C92.0235 126.451 91.1493 124.055 91.1493 121.08V102.867C91.1493 99.9283 92.006 97.5489 93.7193 95.7293C95.4323 93.9098 97.6875 93 100.485 93C103.177 93 105.397 93.936 107.145 95.808C108.893 97.68 109.802 100.156 109.872 103.235C109.872 103.865 109.575 104.18 108.981 104.18H104.261C103.666 104.18 103.334 103.882 103.264 103.287C103.229 101.888 102.958 100.847 102.451 100.165C101.944 99.4821 101.289 99.1409 100.485 99.1409C99.6105 99.1409 98.9375 99.4297 98.4655 100.007C97.9935 100.584 97.7574 101.38 97.7574 102.395V121.553C97.7574 122.567 98.0372 123.372 98.5966 123.967C99.1559 124.562 99.8903 124.859 100.799 124.859C101.673 124.859 102.381 124.571 102.923 123.993C103.465 123.416 103.736 122.655 103.736 121.71V115.779H101.639C101.009 115.779 100.695 115.464 100.695 114.834V111.055C100.695 110.425 101.009 110.111 101.639 110.111H107.512C108.386 110.111 109.059 110.347 109.531 110.819C110.003 111.291 110.239 111.983 110.239 112.892V121.238C110.239 124.142 109.357 126.495 107.591 128.297C105.825 130.099 103.509 131 100.642 131ZM114.907 130.37C114.278 130.37 113.963 130.055 113.963 129.426V102.973C113.963 99.9982 114.828 97.6013 116.559 95.7818C118.29 93.9622 120.554 93.0524 123.351 93.0524C126.183 93.0524 128.464 93.9622 130.195 95.7818C131.925 97.6013 132.791 99.9982 132.791 102.973V129.426C132.791 130.055 132.476 130.37 131.847 130.37H127.127C126.497 130.37 126.183 130.055 126.183 129.426V119.086H120.519V129.426C120.519 130.055 120.221 130.37 119.627 130.37H114.907ZM126.183 113.05V102.5C126.183 101.485 125.929 100.681 125.422 100.086C124.915 99.4908 124.225 99.1933 123.351 99.1933C122.477 99.1933 121.786 99.4908 121.279 100.086C120.772 100.681 120.519 101.485 120.519 102.5V113.05H126.183ZM138.35 130.37C137.721 130.37 137.406 130.055 137.406 129.426V102.973C137.406 99.9982 138.271 97.5926 140.002 95.7556C141.733 93.9185 143.979 93 146.741 93C149.608 93 151.916 93.9185 153.664 95.7556C155.412 97.5926 156.286 99.9982 156.286 102.973V107.539C156.286 109.358 155.945 110.977 155.263 112.394C154.582 113.811 153.629 114.939 152.405 115.779L157.492 129.426L157.545 129.635C157.545 129.88 157.458 130.064 157.283 130.187C157.108 130.309 156.881 130.37 156.601 130.37H151.514C151.269 130.37 151.085 130.3 150.963 130.16C150.841 130.02 150.709 129.793 150.57 129.478L146.479 117.459H144.014V129.426C144.014 130.055 143.717 130.37 143.122 130.37H138.35ZM146.426 111.423C147.511 111.423 148.323 111.108 148.865 110.478C149.407 109.848 149.678 108.938 149.678 107.749V102.5C149.678 101.485 149.425 100.681 148.918 100.086C148.411 99.4908 147.703 99.1933 146.794 99.1933C145.954 99.1933 145.282 99.4908 144.775 100.086C144.268 100.681 144.014 101.485 144.014 102.5V111.423H146.426ZM164.048 130.58C163.139 130.58 162.448 130.344 161.976 129.872C161.504 129.399 161.268 128.726 161.268 127.851V96.1493C161.268 95.2745 161.504 94.601 161.976 94.1286C162.448 93.6563 163.139 93.4199 164.048 93.4199H170.499C173.331 93.4199 175.612 94.3297 177.343 96.1493C179.074 97.9688 179.939 100.348 179.939 103.287V120.713C179.939 123.652 179.074 126.031 177.343 127.851C175.612 129.671 173.331 130.58 170.499 130.58H164.048ZM170.131 124.544C171.181 124.544 171.976 124.229 172.518 123.6C173.06 122.97 173.331 122.077 173.331 120.923V103.078C173.331 100.663 172.264 99.4559 170.131 99.4559H167.824V124.544H170.131ZM193.26 130.58C190.428 130.58 188.146 129.671 186.416 127.851C184.685 126.031 183.82 123.652 183.82 120.713V103.235C183.82 100.331 184.685 97.9688 186.416 96.1493C188.146 94.3297 190.428 93.4199 193.26 93.4199H198.767C199.396 93.4199 199.711 93.7175 199.711 94.3122V98.5111C199.711 99.1409 199.396 99.4559 198.767 99.4559H194.047C192.928 99.4559 192.045 99.8146 191.398 100.532C190.751 101.249 190.428 102.22 190.428 103.445V108.903H197.456C198.085 108.903 198.4 109.218 198.4 109.848V113.837C198.4 114.467 198.085 114.782 197.456 114.782H190.428V120.555C190.428 121.78 190.751 122.751 191.398 123.468C192.045 124.186 192.928 124.544 194.047 124.544H198.767C199.396 124.544 199.711 124.842 199.711 125.436V129.688C199.711 130.283 199.396 130.58 198.767 130.58H193.26ZM204.116 130.37C203.487 130.37 203.172 130.055 203.172 129.426V102.92C203.172 99.9807 204.029 97.5926 205.742 95.7556C207.455 93.9185 209.728 93 212.56 93C215.392 93 217.673 93.9185 219.404 95.7556C221.135 97.5926 222 99.9807 222 102.92V129.426C222 130.055 221.685 130.37 221.056 130.37H216.336C215.707 130.37 215.392 130.055 215.392 129.426V102.447C215.392 101.433 215.138 100.628 214.631 100.033C214.124 99.4384 213.434 99.1409 212.56 99.1409C211.686 99.1409 210.995 99.4384 210.488 100.033C209.981 100.628 209.728 101.433 209.728 102.447V129.426C209.728 130.055 209.431 130.37 208.836 130.37H204.116Z" fill="#333333"/>
<path d="M30.6141 143.693V142H23V154.423H24.8774V143.693H30.6141ZM39.0104 154.423V148.508C39.0104 146.502 37.7762 145.472 35.3252 145.472C34.4907 145.472 33.865 145.577 33.3607 145.821C32.9261 146.013 32.7004 146.223 32.2137 146.746L33.3782 147.845C33.6389 147.514 33.8303 147.339 34.091 147.217C34.4039 147.06 34.7689 146.99 35.2731 146.99C36.6637 146.99 37.2548 147.479 37.2548 148.63V149.276H34.8906C33.0133 149.276 31.8658 150.236 31.8658 151.841C31.8658 153.551 32.9611 154.51 34.9253 154.51C35.9684 154.51 36.542 154.353 37.2723 153.62V154.423H39.0104ZM37.2548 151.23C37.2548 152.521 36.6984 153.045 35.3252 153.045C34.1257 153.045 33.5868 152.643 33.5868 151.788C33.5868 150.951 34.1257 150.532 35.1688 150.532H37.2548V151.23ZM48.9365 150.026C48.9365 148.979 48.8844 148.386 48.7454 147.758C48.3976 146.223 47.3198 145.472 45.7553 145.472C44.695 145.472 44.1908 145.769 43.4783 146.502V145.577H41.7398V158H43.5129V153.516C44.1736 154.249 44.7646 154.528 45.7728 154.528C46.6767 154.528 47.4416 154.249 47.963 153.725C48.6583 153.027 48.9365 151.945 48.9365 150.026ZM47.1809 149.991C47.1809 152.102 46.6592 152.94 45.3557 152.94C44.0518 152.94 43.5129 152.102 43.5129 150.061C43.5129 149.049 43.6172 148.386 43.8433 147.915C44.1215 147.339 44.6082 147.06 45.3382 147.06C46.6592 147.06 47.1809 147.88 47.1809 149.991ZM60.114 154.423V145.577H58.3756L55.7507 150.846L53.1084 145.577H51.3528V154.423H53.1259V148.752L55.1944 152.8H56.3071L58.3409 148.752V154.423H60.114ZM69.8663 149.956C69.8663 148.264 69.5709 147.287 68.8406 146.519C68.1803 145.839 67.2589 145.472 66.1983 145.472C65.138 145.472 64.2341 145.839 63.5734 146.519C62.826 147.304 62.5306 148.264 62.5306 149.991C62.5306 151.736 62.826 152.696 63.5734 153.481C64.2341 154.161 65.138 154.528 66.1983 154.528C67.2589 154.528 68.1803 154.161 68.8406 153.481C69.5881 152.696 69.8663 151.736 69.8663 149.956ZM68.1106 150.026C68.1106 151.055 67.9889 151.841 67.5717 152.347C67.2589 152.713 66.7893 152.94 66.1983 152.94C65.6422 152.94 65.1901 152.748 64.8773 152.382C64.4773 151.928 64.3037 151.23 64.3037 150.061C64.3037 149.014 64.408 148.194 64.8426 147.653C65.1555 147.287 65.6073 147.06 66.1983 147.06C66.7893 147.06 67.2414 147.287 67.5543 147.636C68.0064 148.142 68.1106 148.927 68.1106 150.026ZM79.3406 154.423V145.577H77.5675V149.102H74.056V145.577H72.2829V154.423H74.056V150.654H77.5675V154.423H79.3406ZM89.4753 154.423V145.577H87.7022L83.93 151.579V145.577H82.1569V154.423H83.93L87.7022 148.334V154.423H89.4753ZM98.7929 154.423V145.577H94.6382C92.9522 145.577 91.7701 146.711 91.7701 148.316C91.7701 149.59 92.5001 150.532 93.63 150.846L91.6484 154.423H93.7343L95.4031 151.178C95.4031 151.178 96.9852 151.178 97.0198 151.178V154.423H98.7929ZM97.0373 149.712H94.9339C94.0472 149.712 93.5258 149.206 93.5258 148.386C93.5258 147.566 94.0472 147.06 94.9339 147.06H97.0373V149.712ZM111.83 147.13V145.577H104.564V147.13H107.363V154.423H109.136V147.13H111.83ZM120.435 150.532V149.73C120.435 147.13 118.992 145.472 116.715 145.472C114.403 145.472 112.978 147.182 112.978 149.956C112.978 152.957 114.334 154.528 116.976 154.528C118.384 154.528 119.236 154.126 120.227 153.149L119.114 152.085C118.488 152.696 117.932 153.01 117.046 153.01C115.394 153.01 114.768 152.015 114.734 150.532H120.435ZM118.697 149.276H114.734C114.768 148.055 115.29 146.955 116.715 146.955C118.158 146.955 118.61 148.072 118.697 149.276ZM129.875 154.423V145.577H123.808L123.669 150.497C123.617 152.504 122.765 152.87 122.052 152.87H121.687V154.423H122.643C124.277 154.423 125.355 153.376 125.424 150.881L125.529 147.13H128.101V154.423H129.875ZM139.192 154.423V148.508C139.192 146.502 137.958 145.472 135.507 145.472C134.672 145.472 134.047 145.577 133.542 145.821C133.108 146.013 132.882 146.223 132.395 146.746L133.56 147.845C133.821 147.514 134.012 147.339 134.273 147.217C134.586 147.06 134.951 146.99 135.455 146.99C136.845 146.99 137.437 147.479 137.437 148.63V149.276H135.072C133.195 149.276 132.048 150.236 132.048 151.841C132.048 153.551 133.143 154.51 135.107 154.51C136.15 154.51 136.724 154.353 137.454 153.62V154.423H139.192ZM137.437 151.23C137.437 152.521 136.88 153.045 135.507 153.045C134.307 153.045 133.769 152.643 133.769 151.788C133.769 150.951 134.307 150.532 135.351 150.532H137.437V151.23ZM153.412 154.423V145.577H151.639L147.867 151.579V145.577H146.093V154.423H147.867L151.639 148.334V154.423H153.412ZM168.536 156.866V152.87H167.319V145.577H161.356V146.816C161.356 150.009 160.956 151.335 160.33 152.87H159.322V156.866H161.009V154.423H166.832V156.866H168.536ZM165.545 152.87H162.156C162.625 151.701 162.973 150.55 163.025 148.578C163.025 148.421 163.042 147.322 163.042 147.13H165.545V152.87ZM177.036 145.577H175.141L173.09 151.823L170.987 145.577H169.092L172.186 154.004L171.699 155.4C171.439 156.15 171.16 156.325 170.43 156.325H169.978V157.93H170.691C171.96 157.93 172.708 157.389 173.142 156.185L177.036 145.577ZM189.848 154.423V145.577H188.075V152.87H185.102V145.577H183.329V152.87H180.339V145.577H178.566V154.423H189.848ZM200 154.423V145.577H198.227L194.455 151.579V145.577H192.682V154.423H194.455L198.227 148.334V154.423H200Z" fill="#595959"/>
<path d="M110.5 70.0421C114.192 70.0421 117.686 66.6546 120.351 61.1793C123.274 55.1715 125.082 46.803 125.082 37.5C125.082 28.197 123.274 19.8288 120.351 13.8207C117.686 8.34539 114.192 4.95786 110.5 4.95786C106.808 4.95786 103.314 8.34539 100.649 13.8207C97.726 19.8288 95.9177 28.197 95.9177 37.5C95.9177 46.803 97.7263 55.1715 100.649 61.1793C103.314 66.6546 106.808 70.0421 110.5 70.0421ZM124.749 63.348C121.247 70.5466 116.219 75 110.5 75C104.781 75 99.7534 70.5466 96.2505 63.348C93.0068 56.6814 91 47.5382 91 37.5C91 27.4618 93.0065 18.3186 96.2505 11.652C99.7534 4.45336 104.78 0 110.5 0C116.22 0 121.247 4.45336 124.749 11.652C127.994 18.3186 130 27.4618 130 37.5C130 47.5382 127.993 56.6814 124.749 63.348Z" fill="#E6BE80"/>
<path d="M76.9614 9.83467C81.7649 6.70323 88.3601 7.70977 95.1375 11.8686C101.411 15.718 107.979 22.3464 113.354 30.8399C118.728 39.3317 121.936 48.1505 122.776 55.5419C123.684 63.5273 121.843 70.0334 117.039 73.1652C112.235 76.2966 105.641 75.2904 98.8628 71.1319C92.5899 67.2828 86.0216 60.6547 80.6463 52.1616L80.6022 52.0919C75.2539 43.619 72.0615 34.8288 71.2239 27.458C70.316 19.4726 72.1572 12.9664 76.9614 9.83467ZM92.6098 16.1256C87.4394 12.9531 82.6953 11.9984 79.6041 14.0134C76.5132 16.0284 75.3962 20.8035 76.0885 26.8946C76.848 33.5797 79.8 41.6362 84.7629 49.4782L84.788 49.5176C89.7451 57.3388 95.7257 63.3988 101.391 66.8749C106.561 70.0471 111.305 71.0015 114.396 68.9865C117.487 66.9714 118.604 62.1963 117.912 56.1053C117.152 49.4205 114.2 41.3636 109.237 33.522C104.275 25.6817 98.2839 19.6072 92.6098 16.1256Z" fill="#5FA494"/>
<path d="M142.396 14.0132C139.305 11.9982 134.561 12.9528 129.39 16.1251C123.716 19.6067 117.725 25.6812 112.763 33.5219C107.8 41.3639 104.848 49.4208 104.088 56.1053C103.396 62.1964 104.513 66.9715 107.604 68.9866C110.695 71.0019 115.44 70.0472 120.609 66.875C126.284 63.3934 132.275 57.3186 137.237 49.4782C142.201 41.6358 145.152 33.5789 145.912 26.8944C146.604 20.8033 145.487 16.0282 142.396 14.0132ZM126.863 11.8687C133.64 7.70984 140.235 6.7033 145.039 9.83443C149.843 12.9662 151.684 19.4721 150.776 27.4579C149.936 34.8496 146.729 43.6685 141.355 52.1603C135.98 60.6535 129.41 67.2822 123.137 71.1314C116.36 75.2902 109.765 76.2968 104.961 73.1653C100.157 70.0335 98.3161 63.5274 99.2239 55.5419C100.064 48.1501 103.272 39.3313 108.645 30.8397C114.02 22.3463 120.589 15.7178 126.863 11.8687Z" fill="#F08365"/>
</svg>
