<svg width="283" height="216" viewBox="0 0 283 216" fill="none" xmlns="http://www.w3.org/2000/svg">
<g opacity="0.4">
<path d="M237.2 1.67483C237.291 1.38274 237.602 1.22083 237.893 1.31331C238.184 1.40579 238.346 1.71771 238.255 2.00979C226.149 40.672 198.616 79.3113 161.521 111.438C125.582 142.565 80.6605 167.587 32.094 180.6C31.7981 180.679 31.4934 180.503 31.4138 180.205C31.3341 179.908 31.5096 179.603 31.8055 179.523C80.21 166.553 124.98 141.616 160.797 110.595C197.742 78.5985 225.156 40.138 237.2 1.67483Z" fill="#5FA494"/>
<path fill-rule="evenodd" clip-rule="evenodd" d="M82.6977 150.492C82.3059 156.453 73.1879 160.748 62.3321 160.084C51.4763 159.421 42.9936 154.05 43.3855 148.088C43.7773 142.126 52.8953 137.832 63.7511 138.495C74.6068 139.159 83.0895 144.53 82.6977 150.492Z" fill="#E6BE80"/>
<path fill-rule="evenodd" clip-rule="evenodd" d="M254.314 88.8988C261.994 85.5814 263.338 71.4953 257.316 57.4367C251.294 43.3781 240.186 34.6706 232.507 37.9879C224.827 41.3053 223.484 55.3914 229.506 69.45C235.528 83.5086 246.635 92.2162 254.314 88.8988Z" fill="#F08365"/>
<path fill-rule="evenodd" clip-rule="evenodd" d="M203.291 43.8307C206.64 56.9383 190.052 72.4988 166.24 78.5858C142.428 84.673 120.409 78.9816 117.06 65.8739C113.71 52.7663 130.298 37.2059 154.111 31.1187C177.923 25.0316 199.941 30.723 203.291 43.8307Z" fill="#5FA494"/>
<path fill-rule="evenodd" clip-rule="evenodd" d="M189.503 174.536C176.141 171.776 169.521 150.119 174.716 126.165C179.912 102.21 194.956 85.0279 208.318 87.7877C221.68 90.5475 228.301 112.204 223.105 136.159C217.91 160.113 202.865 177.295 189.503 174.536Z" fill="#5FA494"/>
<path fill-rule="evenodd" clip-rule="evenodd" d="M147.307 106.341C146.155 98.0064 132.962 92.9535 117.839 95.0549C102.717 97.1563 91.3914 105.616 92.5433 113.951C93.6953 122.285 106.889 127.338 122.011 125.236C137.134 123.135 148.459 114.675 147.307 106.341Z" fill="#F08365"/>
<path fill-rule="evenodd" clip-rule="evenodd" d="M123.25 150.417C128.592 153.236 128.895 163.426 123.927 173.177C118.959 182.929 110.6 188.549 105.258 185.731C99.9153 182.912 99.612 172.722 104.58 162.971C109.549 153.219 117.907 147.599 123.25 150.417Z" fill="#E6BE80"/>
</g>
</svg>
