<svg width="764" height="131" viewBox="0 0 764 131" fill="none" xmlns="http://www.w3.org/2000/svg">
<path opacity="0.3" d="M52.8828 63.3285C56.6125 66.2238 59.5005 69.7519 61.5457 73.914C63.591 78.0761 64.6141 82.6891 64.6141 87.7564V95.355C64.6141 105.73 61.666 114.022 55.7708 120.235C49.8745 126.447 42.1134 129.552 32.4874 129.552H9.56586C6.79809 129.552 4.51239 128.648 2.70766 126.839C0.90181 125.03 0 122.737 0 119.964V33.8357C0 23.7034 2.85796 15.5612 8.57276 9.40902C14.2887 3.25687 21.7782 0.1808 31.0434 0.1808C40.4289 0.1808 48.0097 3.25687 53.7846 9.40902C59.5606 15.5612 62.4487 23.7034 62.4487 33.8357V41.0739C62.5689 45.6579 61.7862 49.8791 60.1017 53.7398C58.4172 57.5994 56.0113 60.796 52.8828 63.3285V63.3285ZM22.5608 54.8247H31.2238C33.9916 54.8247 36.1269 53.8302 37.6311 51.839C39.1352 49.849 39.8878 47.1044 39.8878 43.6064V31.8456C39.8878 28.5887 39.0751 25.9948 37.4507 24.065C35.8263 22.1352 33.6308 21.1698 30.8631 21.1698C28.2155 21.1698 26.1703 22.1352 24.7263 24.065C23.2823 25.9948 22.5608 28.5887 22.5608 31.8456V54.8247ZM41.6926 87.032C41.6926 83.1724 40.8197 80.1867 39.0751 78.0761C37.3305 75.9644 34.9546 74.9096 31.9463 74.9096H22.5608V108.926H31.9463C35.0748 108.926 37.4808 107.9 39.1653 105.85C40.8498 103.8 41.6926 100.904 41.6926 97.1643V87.032V87.032ZM105.946 130.819C96.0795 130.819 88.0779 127.653 81.9411 121.32C75.8044 114.987 72.736 106.634 72.736 96.2602V34.7409C72.736 24.3664 75.8044 16.0132 81.9411 9.68026C88.0779 3.3473 96.0795 0.1808 105.946 0.1808C115.812 0.1808 123.784 3.31715 129.861 9.58985C135.936 15.8625 138.974 24.065 138.974 34.1973V96.8026C138.974 106.935 135.936 115.139 129.861 121.41C123.784 127.683 115.812 130.819 105.946 130.819V130.819ZM105.946 109.649C109.074 109.649 111.571 108.655 113.435 106.664C115.301 104.674 116.233 101.929 116.233 98.4311V32.5689C116.233 29.0709 115.301 26.2973 113.435 24.2459C111.571 22.1955 109.074 21.1698 105.946 21.1698C102.817 21.1698 100.29 22.2256 98.3652 24.3363C96.4402 26.448 95.4772 29.3723 95.4772 33.1125V97.8887C95.4772 101.507 96.4102 104.372 98.275 106.483C100.14 108.594 102.697 109.649 105.946 109.649V109.649ZM156.843 128.829C154.677 128.829 153.594 127.743 153.594 125.572V34.1973C153.594 24.065 156.542 15.8324 162.437 9.49944C168.333 3.16647 176.155 0 185.901 0C195.647 0 203.498 3.16647 209.455 9.49944C215.41 15.8324 218.388 24.065 218.388 34.1973V125.572C218.388 127.743 217.305 128.829 215.14 128.829H198.896C196.73 128.829 195.647 127.743 195.647 125.572V32.5689C195.647 29.0709 194.774 26.2973 193.03 24.2459C191.285 22.1955 188.909 21.1698 185.901 21.1698C182.893 21.1698 180.517 22.1955 178.772 24.2459C177.026 26.2973 176.155 29.0709 176.155 32.5689V125.572C176.155 127.743 175.131 128.829 173.086 128.829H156.843V128.829ZM237.52 128.829C235.355 128.829 234.271 127.743 234.271 125.572V34.3793C234.271 24.1253 237.249 15.8625 243.205 9.58985C249.161 3.31715 256.952 0.1808 266.578 0.1808C276.325 0.1808 284.176 3.31715 290.132 9.58985C296.088 15.8625 299.066 24.1253 299.066 34.3793V125.572C299.066 127.743 297.982 128.829 295.817 128.829H279.573C277.408 128.829 276.325 127.743 276.325 125.572V89.9272H256.832V125.572C256.832 127.743 255.809 128.829 253.764 128.829H237.52ZM276.325 69.1191V32.7508C276.325 29.2517 275.452 26.4781 273.707 24.4267C271.962 22.3763 269.587 21.3506 266.578 21.3506C263.57 21.3506 261.194 22.3763 259.45 24.4267C257.704 26.4781 256.832 29.2517 256.832 32.7508V69.1191H276.325V69.1191ZM346.353 131C336.607 131 328.725 127.864 322.71 121.592C316.693 115.319 313.685 107.057 313.685 96.8026V34.0165C313.685 23.8842 316.633 15.6817 322.53 9.40902C328.425 3.13633 336.186 0 345.812 0C355.077 0 362.718 3.22675 368.733 9.68026C374.75 16.1338 377.878 24.6689 378.119 35.2833C378.119 37.4542 377.096 38.5402 375.05 38.5402H358.807C356.762 38.5402 355.618 37.5145 355.378 35.4642C355.257 30.6391 354.324 27.0507 352.58 24.699C350.835 22.3462 348.58 21.1698 345.812 21.1698C342.804 21.1698 340.488 22.1654 338.863 24.1555C337.239 26.1455 336.426 28.8901 336.426 32.3881V98.4311C336.426 101.929 337.389 104.704 339.314 106.754C341.239 108.806 343.767 109.83 346.895 109.83C349.903 109.83 352.339 108.836 354.204 106.845C356.069 104.854 357.002 102.232 357.002 98.9747V78.5281H349.783C347.617 78.5281 346.534 77.4421 346.534 75.2712V62.2437C346.534 60.0717 347.617 58.9868 349.783 58.9868H369.997C373.005 58.9868 375.321 59.8004 376.945 61.4289C378.57 63.0573 379.383 65.4403 379.383 68.5766V97.3462C379.383 107.358 376.344 115.47 370.268 121.682C364.191 127.894 356.22 131 346.353 131V131ZM395.446 128.829C393.28 128.829 392.197 127.743 392.197 125.572V34.3793C392.197 24.1253 395.175 15.8625 401.131 9.58985C407.087 3.31715 414.878 0.1808 424.504 0.1808C434.25 0.1808 442.102 3.31715 448.058 9.58985C454.013 15.8625 456.992 24.1253 456.992 34.3793V125.572C456.992 127.743 455.908 128.829 453.743 128.829H437.499C435.334 128.829 434.25 127.743 434.25 125.572V89.9272H414.758V125.572C414.758 127.743 413.735 128.829 411.69 128.829H395.446V128.829ZM434.25 69.1191V32.7508C434.25 29.2517 433.378 26.4781 431.633 24.4267C429.888 22.3763 427.512 21.3506 424.504 21.3506C421.496 21.3506 419.12 22.3763 417.375 24.4267C415.63 26.4781 414.758 29.2517 414.758 32.7508V69.1191H434.25V69.1191ZM476.123 128.829C473.958 128.829 472.875 127.743 472.875 125.572V34.3793C472.875 24.1253 475.853 15.8324 481.808 9.49944C487.764 3.16647 495.496 0 505.001 0C514.868 0 522.809 3.16647 528.826 9.49944C534.841 15.8324 537.849 24.1253 537.849 34.3793V50.1202C537.849 56.3929 536.677 61.9724 534.33 66.8578C531.984 71.7431 528.706 75.6328 524.494 78.5281L542.001 125.572L542.181 126.295C542.181 127.14 541.881 127.773 541.279 128.196C540.677 128.618 539.896 128.829 538.933 128.829H521.425C520.584 128.829 519.951 128.588 519.53 128.106C519.11 127.623 518.658 126.839 518.177 125.753L504.098 84.3175H495.616V125.572C495.616 127.743 494.593 128.829 492.547 128.829H476.123V128.829ZM503.918 63.5105C507.649 63.5105 510.446 62.4245 512.31 60.2536C514.176 58.0816 515.108 54.9452 515.108 50.8445V32.7508C515.108 29.2517 514.236 26.4781 512.492 24.4267C510.746 22.3763 508.31 21.3506 505.182 21.3506C502.294 21.3506 499.978 22.3763 498.233 24.4267C496.489 26.4781 495.616 29.2517 495.616 32.7508V63.5105H503.918ZM564.561 129.552C561.432 129.552 559.056 128.739 557.432 127.11C555.808 125.482 554.995 123.159 554.995 120.144V10.8567C554.995 7.84087 555.808 5.51929 557.432 3.89084C559.056 2.2624 561.432 1.44763 564.561 1.44763H586.761C596.507 1.44763 604.358 4.58398 610.315 10.8567C616.271 17.1294 619.248 25.3319 619.248 35.4642V95.5358C619.248 105.669 616.271 113.872 610.315 120.144C604.358 126.417 596.507 129.552 586.761 129.552H564.561V129.552ZM585.497 108.745C589.108 108.745 591.844 107.659 593.71 105.488C595.575 103.316 596.507 100.24 596.507 96.2602V34.7409C596.507 26.4179 592.838 22.2558 585.497 22.2558H577.556V108.745H585.497V108.745ZM665.093 129.552C655.346 129.552 647.495 126.417 641.54 120.144C635.583 113.872 632.605 105.669 632.605 95.5358V35.2833C632.605 25.2716 635.583 17.1294 641.54 10.8567C647.495 4.58398 655.346 1.44763 665.093 1.44763H684.044C686.209 1.44763 687.293 2.47337 687.293 4.52371V18.9989C687.293 21.1698 686.209 22.2558 684.044 22.2558H667.8C663.95 22.2558 660.912 23.4925 658.685 25.9647C656.46 28.4381 655.346 31.7854 655.346 36.0077V54.8247H679.532C681.698 54.8247 682.78 55.9107 682.78 58.0816V71.8335C682.78 74.0044 681.698 75.0904 679.532 75.0904H655.346V94.9934C655.346 99.2157 656.46 102.563 658.685 105.035C660.912 107.509 663.95 108.745 667.8 108.745H684.044C686.209 108.745 687.293 109.77 687.293 111.82V126.477C687.293 128.528 686.209 129.552 684.044 129.552H665.093ZM702.454 128.829C700.289 128.829 699.206 127.743 699.206 125.572V34.1973C699.206 24.065 702.154 15.8324 708.049 9.49944C713.945 3.16647 721.766 0 731.513 0C741.259 0 749.11 3.16647 755.066 9.49944C761.022 15.8324 764 24.065 764 34.1973V125.572C764 127.743 762.917 128.829 760.751 128.829H744.508C742.342 128.829 741.259 127.743 741.259 125.572V32.5689C741.259 29.0709 740.386 26.2973 738.641 24.2459C736.897 22.1955 734.521 21.1698 731.513 21.1698C728.504 21.1698 726.128 22.1955 724.384 24.2459C722.638 26.2973 721.766 29.0709 721.766 32.5689V125.572C721.766 127.743 720.743 128.829 718.698 128.829H702.454Z" fill="#B7D3CC"/>
</svg>
