<svg width="395" height="130" viewBox="0 0 395 130" fill="none" xmlns="http://www.w3.org/2000/svg">
<path d="M3.17731 126.05C1.0591 126.05 0 124.986 0 122.859V33.5069C0 23.4608 2.88312 15.3647 8.64935 9.21883C14.5333 3.07294 22.1824 0 31.5966 0C41.1286 0 48.7777 3.07294 54.5439 9.21883C60.4278 15.3647 63.3698 23.4608 63.3698 33.5069V122.859C63.3698 124.986 62.3107 126.05 60.1924 126.05H44.3059C42.1877 126.05 41.1286 124.986 41.1286 122.859V87.9335H22.0647V122.859C22.0647 124.986 21.0644 126.05 19.0639 126.05H3.17731ZM41.1286 67.5457V31.9114C41.1286 28.4838 40.246 25.7655 38.4808 23.7562C36.8333 21.747 34.5386 20.7424 31.5966 20.7424C28.6547 20.7424 26.3011 21.747 24.5359 23.7562C22.8884 25.7655 22.0647 28.4838 22.0647 31.9114V67.5457H41.1286Z" fill="white"/>
<path d="M102.757 128C93.696 128 86.3999 125.282 80.869 119.845C75.3382 114.408 72.5727 107.258 72.5727 98.3933C72.5727 90.5928 75.2205 84.2105 80.516 79.2465C85.9292 74.1644 92.8722 71.6233 101.345 71.6233H110.171V64C110.171 61.2816 109.465 59.1542 108.053 57.6177C106.641 55.9631 104.699 55.1357 102.228 55.1357C99.7564 55.1357 97.8736 55.8449 96.5791 57.2632C95.2846 58.6814 94.5786 60.5725 94.4609 62.9363C94.3432 64.4728 93.2841 65.241 91.2836 65.241H76.8091C74.8086 65.241 73.8083 64.1773 73.8083 62.0499C74.5144 54.0129 77.4564 47.5716 82.6342 42.7258C87.8121 37.7618 94.402 35.2798 102.404 35.2798C110.995 35.2798 117.879 38.0572 123.057 43.6122C128.352 49.1671 131 56.3767 131 65.241V99.2798C131 108.026 128.47 114.999 123.41 120.199C118.467 125.4 111.583 128 102.757 128ZM102.404 108.144C104.875 108.144 106.758 107.376 108.053 105.839C109.465 104.303 110.171 102.175 110.171 99.4571V89.8837H102.581C99.7564 89.8837 97.5205 90.6519 95.873 92.1884C94.3432 93.7248 93.5783 95.7932 93.5783 98.3933C93.5783 101.466 94.3432 103.889 95.873 105.662C97.4028 107.317 99.5799 108.144 102.404 108.144Z" fill="white"/>
<path d="M171.68 26.5892C171.227 26.5892 171 26.3651 171 25.917V7.09544C171 4.97925 171.605 3.27386 172.814 1.97925C174.048 0.659751 175.661 0 177.651 0C179.717 0 181.379 0.659751 182.639 1.97925C183.899 3.27386 184.528 4.97925 184.528 7.09544V10.6432C184.528 12.7095 183.911 14.3776 182.677 15.6473C181.442 16.917 179.805 17.5519 177.764 17.5519H175.724V25.917C175.724 26.3651 175.509 26.5892 175.081 26.5892H171.68ZM177.462 13.2573C178.999 13.2573 179.767 12.4357 179.767 10.7925V6.75934C179.767 6.03734 179.578 5.46473 179.2 5.04149C178.847 4.61826 178.356 4.40664 177.726 4.40664C177.122 4.40664 176.631 4.61826 176.253 5.04149C175.9 5.46473 175.724 6.03734 175.724 6.75934V13.2573H177.462Z" fill="#F5F5F5"/>
<path d="M195.671 1.08299C195.671 0.65975 195.885 0.448131 196.314 0.448131H199.715C200.143 0.448131 200.357 0.65975 200.357 1.08299V25.917C200.357 26.3651 200.143 26.5892 199.715 26.5892H196.314C195.885 26.5892 195.671 26.3651 195.671 25.917V15.5353H191.855V25.917C191.855 26.3651 191.628 26.5892 191.174 26.5892H187.811C187.358 26.5892 187.131 26.3651 187.131 25.917V1.08299C187.131 0.65975 187.358 0.448131 187.811 0.448131H191.174C191.628 0.448131 191.855 0.65975 191.855 1.08299V11.2407H195.671V1.08299Z" fill="#F5F5F5"/>
<path d="M210.418 26.7386C208.377 26.7386 206.727 26.0913 205.468 24.7967C204.233 23.5021 203.616 21.8091 203.616 19.7178V7.28216C203.616 5.21577 204.233 3.53527 205.468 2.24066C206.727 0.946057 208.377 0.298754 210.418 0.298754H214.386C214.839 0.298754 215.066 0.510372 215.066 0.933609V3.92116C215.066 4.36929 214.839 4.59336 214.386 4.59336H210.985C210.179 4.59336 209.536 4.85477 209.058 5.37759C208.604 5.87552 208.377 6.56017 208.377 7.43154V11.3154H213.441C213.895 11.3154 214.121 11.5394 214.121 11.9876V14.8257C214.121 15.2739 213.895 15.4979 213.441 15.4979H208.377V19.6058C208.377 20.4772 208.604 21.1743 209.058 21.6971C209.536 22.195 210.179 22.444 210.985 22.444H214.386C214.839 22.444 215.066 22.6556 215.066 23.0788V26.1037C215.066 26.527 214.839 26.7386 214.386 26.7386H210.418Z" fill="#F5F5F5"/>
<path d="M218.252 26.5892C217.798 26.5892 217.572 26.3651 217.572 25.917V7.05809C217.572 4.9668 218.189 3.27386 219.423 1.97925C220.658 0.659751 222.295 0 224.336 0C226.376 0 228.014 0.659751 229.248 1.97925C230.508 3.27386 231.138 4.9668 231.138 7.05809V25.917C231.138 26.3651 230.911 26.5892 230.457 26.5892H227.056C226.603 26.5892 226.376 26.3651 226.376 25.917V6.72199C226.376 6 226.187 5.42738 225.809 5.00415C225.457 4.58091 224.966 4.36929 224.336 4.36929C223.706 4.36929 223.202 4.58091 222.824 5.00415C222.471 5.42738 222.295 6 222.295 6.72199V25.917C222.295 26.3651 222.081 26.5892 221.653 26.5892H218.252Z" fill="#F5F5F5"/>
<path d="M241.162 27C239.096 27 237.421 26.3527 236.136 25.0581C234.851 23.7386 234.209 22.0083 234.209 19.8672V7.17012C234.209 5.02905 234.851 3.3112 236.136 2.0166C237.421 0.697095 239.096 0.0373439 241.162 0.0373439C243.227 0.0373439 244.89 0.684647 246.15 1.97925C247.435 3.27386 248.077 4.9668 248.077 7.05809V19.9793C248.077 22.0705 247.435 23.7635 246.15 25.0581C244.89 26.3527 243.227 27 241.162 27ZM241.162 22.6307C241.817 22.6307 242.333 22.4315 242.711 22.0332C243.114 21.61 243.316 21.0373 243.316 20.3154V6.72199C243.316 6 243.114 5.42738 242.711 5.00415C242.333 4.58091 241.817 4.36929 241.162 4.36929C240.507 4.36929 239.978 4.59336 239.575 5.04149C239.171 5.46473 238.97 6.06224 238.97 6.83402V20.2033C238.97 20.9502 239.159 21.5477 239.537 21.9959C239.94 22.4191 240.481 22.6307 241.162 22.6307Z" fill="#F5F5F5"/>
<path d="M265.966 0C267.957 0 269.544 0.659751 270.728 1.97925C271.912 3.27386 272.504 4.9917 272.504 7.13278V25.917C272.504 26.3651 272.277 26.5892 271.824 26.5892H268.46C268.032 26.5892 267.818 26.3651 267.818 25.917V6.79668C267.818 6.02489 267.654 5.43983 267.327 5.04149C267.024 4.61826 266.571 4.40664 265.966 4.40664C265.387 4.40664 264.933 4.61826 264.606 5.04149C264.304 5.43983 264.153 6.02489 264.153 6.79668V25.917C264.153 26.3651 263.926 26.5892 263.472 26.5892H260.147C259.719 26.5892 259.505 26.3651 259.505 25.917V6.79668C259.505 6.04979 259.341 5.46473 259.013 5.04149C258.686 4.61826 258.232 4.40664 257.653 4.40664C257.073 4.40664 256.62 4.61826 256.292 5.04149C255.99 5.43983 255.839 6.02489 255.839 6.79668V25.917C255.839 26.3651 255.612 26.5892 255.159 26.5892H251.833C251.38 26.5892 251.153 26.3651 251.153 25.917V7.13278C251.153 4.9917 251.745 3.27386 252.929 1.97925C254.113 0.659751 255.688 0 257.653 0C259.24 0 260.626 0.547718 261.81 1.64315C263.044 0.547718 264.43 0 265.966 0Z" fill="#F5F5F5"/>
<path d="M282.379 26.7386C280.338 26.7386 278.688 26.0913 277.428 24.7967C276.194 23.5021 275.577 21.8091 275.577 19.7178V7.28216C275.577 5.21577 276.194 3.53527 277.428 2.24066C278.688 0.946057 280.338 0.298754 282.379 0.298754H286.347C286.8 0.298754 287.027 0.510372 287.027 0.933609V3.92116C287.027 4.36929 286.8 4.59336 286.347 4.59336H282.946C282.139 4.59336 281.497 4.85477 281.018 5.37759C280.565 5.87552 280.338 6.56017 280.338 7.43154V11.3154H285.402C285.855 11.3154 286.082 11.5394 286.082 11.9876V14.8257C286.082 15.2739 285.855 15.4979 285.402 15.4979H280.338V19.6058C280.338 20.4772 280.565 21.1743 281.018 21.6971C281.497 22.195 282.139 22.444 282.946 22.444H286.347C286.8 22.444 287.027 22.6556 287.027 23.0788V26.1037C287.027 26.527 286.8 26.7386 286.347 26.7386H282.379Z" fill="#F5F5F5"/>
<path d="M290.213 26.5892C289.759 26.5892 289.532 26.3651 289.532 25.917V7.05809C289.532 4.9668 290.15 3.27386 291.384 1.97925C292.618 0.659751 294.256 0 296.296 0C298.337 0 299.975 0.659751 301.209 1.97925C302.469 3.27386 303.098 4.9668 303.098 7.05809V25.917C303.098 26.3651 302.872 26.5892 302.418 26.5892H299.017C298.564 26.5892 298.337 26.3651 298.337 25.917V6.72199C298.337 6 298.148 5.42738 297.77 5.00415C297.418 4.58091 296.926 4.36929 296.296 4.36929C295.667 4.36929 295.163 4.58091 294.785 5.00415C294.432 5.42738 294.256 6 294.256 6.72199V25.917C294.256 26.3651 294.042 26.5892 293.613 26.5892H290.213Z" fill="#F5F5F5"/>
<path d="M307.114 26.5892C306.661 26.5892 306.434 26.3651 306.434 25.917V7.09544C306.434 4.97925 307.051 3.27386 308.286 1.97925C309.545 0.684647 311.183 0.0373439 313.198 0.0373439C315.239 0.0373439 316.876 0.684647 318.111 1.97925C319.37 3.27386 320 4.97925 320 7.09544V25.917C320 26.3651 319.773 26.5892 319.32 26.5892H315.919C315.465 26.5892 315.239 26.3651 315.239 25.917V18.5602H311.157V25.917C311.157 26.3651 310.943 26.5892 310.515 26.5892H307.114ZM315.239 14.2656V6.75934C315.239 6.03734 315.05 5.46473 314.672 5.04149C314.319 4.61826 313.828 4.40664 313.198 4.40664C312.568 4.40664 312.064 4.61826 311.686 5.04149C311.334 5.46473 311.157 6.03734 311.157 6.75934V14.2656H315.239Z" fill="#F5F5F5"/>
<path d="M171.313 71.0229C171.104 71.0229 171 70.9215 171 70.7187V62.2018C171 61.2442 171.284 60.4725 171.852 59.8867C172.432 59.3009 173.185 59.008 174.112 59.008C175.051 59.008 175.805 59.3009 176.373 59.8867C176.952 60.4725 177.242 61.2442 177.242 62.2018V70.7187C177.242 70.9215 177.138 71.0229 176.929 71.0229H175.364C175.155 71.0229 175.051 70.9215 175.051 70.7187V67.3897H173.173V70.7187C173.173 70.9215 173.075 71.0229 172.878 71.0229H171.313ZM175.051 65.4463V62.0497C175.051 61.723 174.964 61.4639 174.79 61.2724C174.628 61.0808 174.402 60.9851 174.112 60.9851C173.822 60.9851 173.591 61.0808 173.417 61.2724C173.254 61.4639 173.173 61.723 173.173 62.0497V65.4463H175.051Z" fill="#F5F5F5"/>
<path d="M183.298 71.0905C183.008 71.0905 182.782 71.0116 182.62 70.8539C182.457 70.6962 182.376 70.4765 182.376 70.1948V62.3708C182.376 61.7399 182.515 61.1766 182.793 60.6809C183.072 60.1852 183.466 59.8022 183.976 59.5318C184.486 59.2614 185.071 59.1262 185.732 59.1262H187.749C187.841 59.1262 187.917 59.1544 187.975 59.2107C188.033 59.2671 188.062 59.3347 188.062 59.4135V60.7654C188.062 60.8443 188.033 60.9175 187.975 60.9851C187.917 61.0414 187.841 61.0696 187.749 61.0696H185.732C185.372 61.0696 185.083 61.1879 184.862 61.4245C184.654 61.661 184.549 61.9765 184.549 62.3708V63.841H185.54C186.526 63.841 187.273 64.1508 187.783 64.7704C188.305 65.39 188.566 66.1786 188.566 67.1362V67.8121C188.566 68.8711 188.311 69.6822 187.801 70.2455C187.302 70.8088 186.549 71.0905 185.54 71.0905H183.298ZM185.384 69.1471C185.697 69.1471 185.94 69.0288 186.114 68.7922C186.288 68.5557 186.375 68.229 186.375 67.8121V67.1362C186.375 66.7194 186.288 66.3926 186.114 66.1561C185.94 65.9082 185.697 65.7843 185.384 65.7843H184.549V69.1471H185.384Z" fill="#F5F5F5"/>
<path d="M198.32 64.9056C198.679 65.1759 198.958 65.5083 199.155 65.9026C199.352 66.2856 199.45 66.7137 199.45 67.1869V67.8966C199.45 68.8655 199.166 69.6428 198.598 70.2286C198.03 70.8032 197.283 71.0905 196.355 71.0905H194.147C193.881 71.0905 193.66 71.006 193.487 70.837C193.313 70.668 193.226 70.4539 193.226 70.1948V62.1511C193.226 61.2048 193.498 60.4443 194.043 59.8698C194.599 59.2952 195.324 59.008 196.216 59.008C197.12 59.008 197.851 59.2952 198.407 59.8698C198.963 60.4443 199.242 61.2048 199.242 62.1511V62.827C199.253 63.2551 199.178 63.6494 199.016 64.0099C198.853 64.3704 198.622 64.669 198.32 64.9056ZM195.399 64.1113H196.234C196.5 64.1113 196.703 64.0212 196.842 63.841C196.993 63.6494 197.068 63.3903 197.068 63.0636V61.9652C197.068 61.661 196.987 61.4188 196.825 61.2386C196.674 61.0583 196.466 60.9682 196.199 60.9682C195.944 60.9682 195.747 61.0583 195.608 61.2386C195.469 61.4188 195.399 61.661 195.399 61.9652V64.1113ZM197.242 67.1193C197.242 66.7588 197.155 66.4828 196.981 66.2913C196.819 66.0885 196.593 65.9871 196.303 65.9871H195.399V69.164H196.303C196.605 69.164 196.836 69.0683 196.999 68.8767C197.161 68.6852 197.242 68.4148 197.242 68.0656V67.1193Z" fill="#F5F5F5"/>
<path d="M204.558 71.0229C204.35 71.0229 204.245 70.9215 204.245 70.7187V62.5567C204.245 61.4864 204.547 60.6471 205.149 60.0388C205.752 59.4304 206.581 59.1262 207.636 59.1262H209.374C209.456 59.1262 209.525 59.16 209.583 59.2276C209.641 59.284 209.67 59.3516 209.67 59.4304V60.7823C209.67 60.8612 209.641 60.9344 209.583 61.002C209.525 61.0583 209.456 61.0865 209.374 61.0865H207.688C206.853 61.0865 206.436 61.5258 206.436 62.4046V70.7187C206.436 70.9215 206.338 71.0229 206.14 71.0229H204.558Z" fill="#F5F5F5"/>
<path d="M213.934 73C213.737 73 213.638 72.8986 213.638 72.6958V69.9414C213.638 69.7048 213.696 69.502 213.812 69.333C213.94 69.164 214.119 69.0063 214.351 68.8598C214.56 68.7359 214.722 68.5669 214.838 68.3529C214.966 68.1276 215.058 67.8009 215.116 67.3728C215.174 66.9334 215.203 66.3363 215.203 65.5815V62.2525C215.203 61.3174 215.493 60.5626 216.073 59.9881C216.652 59.4023 217.411 59.1093 218.35 59.1093H220.263C220.587 59.1093 220.831 59.1938 220.993 59.3628C221.167 59.5318 221.254 59.774 221.254 60.0895V68.9274L221.289 69.0795C221.613 69.0795 221.862 69.1865 222.036 69.4006C222.222 69.6034 222.314 69.885 222.314 70.2455V72.6958C222.314 72.8986 222.216 73 222.019 73H220.506C220.413 73 220.338 72.9718 220.28 72.9155C220.222 72.8592 220.193 72.7859 220.193 72.6958V71.0229H215.742V72.6958C215.742 72.8986 215.644 73 215.447 73H213.934ZM219.098 69.0795V61.0696H218.402C218.089 61.0696 217.84 61.1766 217.655 61.3907C217.481 61.6047 217.394 61.8863 217.394 62.2356V66.0378C217.394 66.9165 217.33 67.5868 217.203 68.0487C217.087 68.5106 216.872 68.8542 216.559 69.0795H219.098Z" fill="#F5F5F5"/>
<path d="M229.853 71.0905C228.914 71.0905 228.155 70.7975 227.575 70.2117C227.007 69.6259 226.723 68.8598 226.723 67.9135V62.2863C226.723 61.3512 227.007 60.5908 227.575 60.005C228.155 59.4192 228.914 59.1262 229.853 59.1262H231.678C231.887 59.1262 231.991 59.222 231.991 59.4135V60.7654C231.991 60.9682 231.887 61.0696 231.678 61.0696H230.113C229.743 61.0696 229.447 61.1879 229.227 61.4245C229.018 61.6498 228.914 61.9596 228.914 62.3539V64.1113H231.244C231.452 64.1113 231.557 64.2127 231.557 64.4155V65.6998C231.557 65.9026 231.452 66.004 231.244 66.004H228.914V67.8628C228.914 68.2571 229.018 68.5726 229.227 68.8091C229.447 69.0345 229.743 69.1471 230.113 69.1471H231.678C231.887 69.1471 231.991 69.2429 231.991 69.4344V70.8032C231.991 70.9947 231.887 71.0905 231.678 71.0905H229.853Z" fill="#F5F5F5"/>
<path d="M239.752 71.0905C238.813 71.0905 238.053 70.7975 237.474 70.2117C236.906 69.6259 236.622 68.8598 236.622 67.9135V62.2863C236.622 61.3512 236.906 60.5908 237.474 60.005C238.053 59.4192 238.813 59.1262 239.752 59.1262H241.577C241.786 59.1262 241.89 59.222 241.89 59.4135V60.7654C241.89 60.9682 241.786 61.0696 241.577 61.0696H240.012C239.641 61.0696 239.346 61.1879 239.126 61.4245C238.917 61.6498 238.813 61.9596 238.813 62.3539V64.1113H241.142C241.351 64.1113 241.455 64.2127 241.455 64.4155V65.6998C241.455 65.9026 241.351 66.004 241.142 66.004H238.813V67.8628C238.813 68.2571 238.917 68.5726 239.126 68.8091C239.346 69.0345 239.641 69.1471 240.012 69.1471H241.577C241.786 69.1471 241.89 69.2429 241.89 69.4344V70.8032C241.89 70.9947 241.786 71.0905 241.577 71.0905H239.752ZM238.326 57.994C238.048 57.994 237.827 57.9152 237.665 57.7575C237.503 57.5885 237.422 57.3744 237.422 57.1153C237.422 56.8562 237.503 56.6478 237.665 56.4901C237.827 56.3211 238.048 56.2366 238.326 56.2366C238.592 56.2366 238.807 56.3211 238.969 56.4901C239.131 56.6478 239.213 56.8562 239.213 57.1153C239.213 57.3744 239.131 57.5885 238.969 57.7575C238.807 57.9152 238.592 57.994 238.326 57.994ZM240.725 57.994C240.459 57.994 240.238 57.9152 240.064 57.7575C239.902 57.5885 239.821 57.3744 239.821 57.1153C239.821 56.8562 239.902 56.6478 240.064 56.4901C240.238 56.3211 240.459 56.2366 240.725 56.2366C240.992 56.2366 241.212 56.3211 241.386 56.4901C241.56 56.6478 241.647 56.8562 241.647 57.1153C241.647 57.3744 241.56 57.5885 241.386 57.7575C241.212 57.9152 240.992 57.994 240.725 57.994Z" fill="#F5F5F5"/>
<path d="M246.938 71.0229C246.729 71.0229 246.625 70.9215 246.625 70.7187V67.3052C246.625 66.7644 246.724 66.2744 246.921 65.835C247.129 65.3844 247.413 65.0351 247.773 64.7873L246.538 59.5149C246.527 59.4924 246.521 59.4642 246.521 59.4304C246.521 59.3628 246.544 59.3065 246.59 59.2614C246.648 59.2164 246.724 59.1938 246.816 59.1938H248.346C248.532 59.1938 248.642 59.2783 248.677 59.4473L249.668 64.162H250.555V59.4811C250.555 59.2896 250.653 59.1938 250.85 59.1938H252.38C252.589 59.1938 252.693 59.2896 252.693 59.4811V64.162H253.562L254.553 59.4473C254.588 59.2783 254.704 59.1938 254.901 59.1938H256.431C256.536 59.1938 256.611 59.2276 256.657 59.2952C256.704 59.3516 256.715 59.4248 256.692 59.5149L255.475 64.7873C255.834 65.0464 256.112 65.3956 256.31 65.835C256.507 66.2744 256.605 66.7644 256.605 67.3052V70.7187C256.605 70.9215 256.501 71.0229 256.292 71.0229H254.727C254.53 71.0229 254.432 70.9215 254.432 70.7187V67.2545C254.432 66.8827 254.339 66.6011 254.154 66.4095C253.98 66.2068 253.719 66.1054 253.371 66.1054H252.693V70.7187C252.693 70.9215 252.589 71.0229 252.38 71.0229H250.85C250.653 71.0229 250.555 70.9215 250.555 70.7187V66.1054H249.859C249.164 66.1054 248.816 66.4884 248.816 67.2545V70.7187C248.816 70.9215 248.712 71.0229 248.503 71.0229H246.938Z" fill="#F5F5F5"/>
<path d="M264.467 71.1243C263.551 71.1243 262.81 70.8595 262.242 70.33C261.685 69.8005 261.378 69.0852 261.32 68.1839V68.1501C261.32 67.9698 261.419 67.8797 261.616 67.8797H263.215C263.401 67.8797 263.499 67.9811 263.511 68.1839C263.546 68.4993 263.65 68.7416 263.824 68.9105C263.998 69.0795 264.23 69.164 264.519 69.164C264.855 69.164 265.116 69.0626 265.302 68.8598C265.499 68.6571 265.597 68.3867 265.597 68.0487V67.1531C265.597 66.7926 265.499 66.5053 265.302 66.2913C265.116 66.0772 264.85 65.9702 264.502 65.9702H263.372C263.175 65.9702 263.076 65.8688 263.076 65.666V64.3817C263.076 64.1789 263.175 64.0775 263.372 64.0775H264.38C264.67 64.0775 264.896 63.9818 265.058 63.7903C265.221 63.5875 265.302 63.3284 265.302 63.0129V61.9314C265.302 61.6272 265.226 61.385 265.076 61.2048C264.925 61.0245 264.722 60.9344 264.467 60.9344C263.969 60.9344 263.696 61.3005 263.65 62.0328C263.638 62.2356 263.528 62.337 263.32 62.337H261.755C261.558 62.337 261.459 62.2356 261.459 62.0328C261.517 61.109 261.819 60.3711 262.363 59.8191C262.908 59.2671 263.609 58.9911 264.467 58.9911C265.36 58.9911 266.078 59.284 266.623 59.8698C267.18 60.4556 267.458 61.2217 267.458 62.168V62.8101C267.458 63.2495 267.377 63.6551 267.214 64.0268C267.064 64.3873 266.849 64.6803 266.571 64.9056C266.965 65.1309 267.266 65.4463 267.475 65.8519C267.684 66.2575 267.788 66.7025 267.788 67.1869V67.9135C267.788 68.8824 267.487 69.6597 266.884 70.2455C266.293 70.8313 265.487 71.1243 264.467 71.1243Z" fill="#F5F5F5"/>
<path d="M276.586 59.4811C276.586 59.2896 276.69 59.1938 276.899 59.1938H278.446C278.655 59.1938 278.759 59.2896 278.759 59.4811V70.2117C278.759 70.4934 278.678 70.7131 278.516 70.8708C278.365 71.0172 278.139 71.0905 277.838 71.0905H275.769C274.725 71.0905 273.931 70.7863 273.387 70.1779C272.853 69.5583 272.587 68.7528 272.587 67.7614V59.4811C272.587 59.2896 272.691 59.1938 272.9 59.1938H274.482C274.679 59.1938 274.778 59.2896 274.778 59.4811V67.829C274.778 68.2233 274.87 68.5444 275.056 68.7922C275.253 69.0288 275.508 69.1471 275.821 69.1471H276.586V59.4811Z" fill="#F5F5F5"/>
<path d="M287.979 59.4811C287.979 59.2896 288.083 59.1938 288.292 59.1938H289.839C290.048 59.1938 290.152 59.2896 290.152 59.4811V70.2117C290.152 70.4934 290.071 70.7131 289.909 70.8708C289.758 71.0172 289.532 71.0905 289.231 71.0905H287.162C286.118 71.0905 285.324 70.7863 284.78 70.1779C284.246 69.5583 283.98 68.7528 283.98 67.7614V59.4811C283.98 59.2896 284.084 59.1938 284.293 59.1938H285.875C286.072 59.1938 286.171 59.2896 286.171 59.4811V67.829C286.171 68.2233 286.263 68.5444 286.449 68.7922C286.646 69.0288 286.901 69.1471 287.214 69.1471H287.979V59.4811ZM287.057 58.0616C286.478 58.0616 285.997 57.9039 285.614 57.5885C285.243 57.273 285.023 56.8506 284.953 56.3211V56.2873C284.953 56.0958 285.058 56 285.266 56H286.049C286.142 56 286.211 56.0225 286.257 56.0676C286.304 56.1127 286.344 56.1803 286.379 56.2704C286.472 56.552 286.698 56.6928 287.057 56.6928C287.417 56.6928 287.643 56.552 287.735 56.2704C287.77 56.1803 287.811 56.1127 287.857 56.0676C287.903 56.0225 287.967 56 288.048 56H288.848C288.941 56 289.016 56.0282 289.074 56.0845C289.132 56.1408 289.161 56.2197 289.161 56.3211C289.092 56.8506 288.866 57.273 288.483 57.5885C288.112 57.9039 287.637 58.0616 287.057 58.0616Z" fill="#F5F5F5"/>
<path d="M295.773 71.0229C295.564 71.0229 295.46 70.9215 295.46 70.7187V59.4811C295.46 59.2896 295.564 59.1938 295.773 59.1938H297.32C297.529 59.1938 297.633 59.2896 297.633 59.4811V64.162H298.555L299.546 59.4473C299.581 59.2783 299.696 59.1938 299.893 59.1938H301.441C301.557 59.1938 301.638 59.2276 301.684 59.2952C301.731 59.3516 301.742 59.4248 301.719 59.5149L300.432 64.7873C300.827 65.0239 301.122 65.3675 301.319 65.8181C301.528 66.2687 301.632 66.7813 301.632 67.3559V70.7187C301.632 70.9215 301.528 71.0229 301.319 71.0229H299.737C299.54 71.0229 299.441 70.9215 299.441 70.7187V67.2883C299.441 66.4997 299.082 66.1054 298.363 66.1054H297.633V70.7187C297.633 70.9215 297.529 71.0229 297.32 71.0229H295.773Z" fill="#F5F5F5"/>
<path d="M306.436 71.0905C306.251 71.0905 306.158 70.9947 306.158 70.8032V69.4344C306.158 69.2767 306.256 69.1696 306.453 69.1133C307.16 69.0345 307.514 68.505 307.514 67.5249V62.2525C307.514 61.3062 307.804 60.5514 308.383 59.9881C308.963 59.4135 309.722 59.1262 310.661 59.1262H312.574C312.898 59.1262 313.147 59.2107 313.321 59.3797C313.495 59.5374 313.582 59.774 313.582 60.0895V70.7356C313.582 70.9384 313.478 71.0398 313.269 71.0398H311.722C311.629 71.0398 311.554 71.0116 311.496 70.9553C311.438 70.8989 311.409 70.8257 311.409 70.7356V61.0696H310.731C310.406 61.0696 310.151 61.171 309.966 61.3738C309.792 61.5765 309.705 61.8638 309.705 62.2356V67.7614C309.705 68.7303 309.415 69.5133 308.835 70.1103C308.267 70.7074 307.479 71.0341 306.471 71.0905H306.436Z" fill="#F5F5F5"/>
<path d="M319.204 71.0229C318.996 71.0229 318.891 70.9215 318.891 70.7187V60.0726C318.891 59.7684 318.967 59.5374 319.117 59.3797C319.279 59.2107 319.511 59.1262 319.813 59.1262H321.134C321.378 59.1262 321.563 59.1938 321.69 59.329C321.83 59.4529 321.94 59.6501 322.021 59.9205L323.081 63.2833C323.348 64.1958 323.533 64.9056 323.638 65.4125H323.673C323.812 64.7591 324.003 64.0494 324.246 63.2833L325.29 59.9205C325.371 59.6501 325.481 59.4529 325.62 59.329C325.759 59.1938 325.944 59.1262 326.176 59.1262H327.515C327.805 59.1262 328.025 59.2107 328.176 59.3797C328.338 59.5374 328.419 59.7684 328.419 60.0726V70.7187C328.419 70.9215 328.321 71.0229 328.124 71.0229H326.594C326.396 71.0229 326.298 70.9215 326.298 70.7187V65.2266C326.298 64.8323 326.304 64.3761 326.315 63.8579C326.327 63.3396 326.339 62.9453 326.35 62.675C326.373 62.337 326.385 62.0779 326.385 61.8976H326.333C326.159 62.8101 325.973 63.5931 325.776 64.2465L324.907 67.1869C324.756 67.7051 324.426 67.9642 323.916 67.9642H323.394C322.884 67.9642 322.554 67.7051 322.403 67.1869L321.534 64.2465C321.302 63.3791 321.117 62.5961 320.978 61.8976H320.925C320.983 63.103 321.012 64.2127 321.012 65.2266V70.7187C321.012 70.9215 320.914 71.0229 320.717 71.0229H319.204Z" fill="#F5F5F5"/>
<path d="M337.66 59.4811C337.66 59.2896 337.759 59.1938 337.956 59.1938H339.521C339.718 59.1938 339.816 59.2896 339.816 59.4811V70.7187C339.816 70.9215 339.718 71.0229 339.521 71.0229H337.956C337.759 71.0229 337.66 70.9215 337.66 70.7187V66.0209H335.904V70.7187C335.904 70.9215 335.8 71.0229 335.591 71.0229H334.044C333.835 71.0229 333.731 70.9215 333.731 70.7187V59.4811C333.731 59.2896 333.835 59.1938 334.044 59.1938H335.591C335.8 59.1938 335.904 59.2896 335.904 59.4811V64.0775H337.66V59.4811Z" fill="#F5F5F5"/>
<path d="M348.115 71.2087C347.164 71.2087 346.393 70.9158 345.802 70.33C345.211 69.7329 344.915 68.95 344.915 67.9811V62.2356C344.915 61.2667 345.211 60.4894 345.802 59.9036C346.393 59.3065 347.164 59.008 348.115 59.008C349.065 59.008 349.83 59.3009 350.41 59.8867C351.001 60.4725 351.296 61.2386 351.296 62.1849V68.0318C351.296 68.9781 351.001 69.7442 350.41 70.33C349.83 70.9158 349.065 71.2087 348.115 71.2087ZM348.115 69.2316C348.416 69.2316 348.654 69.1415 348.827 68.9612C349.013 68.7697 349.106 68.5106 349.106 68.1839V62.0328C349.106 61.7061 349.013 61.447 348.827 61.2555C348.654 61.0639 348.416 60.9682 348.115 60.9682C347.813 60.9682 347.57 61.0696 347.384 61.2724C347.199 61.4639 347.106 61.7343 347.106 62.0835V68.1332C347.106 68.4712 347.193 68.7416 347.367 68.9443C347.552 69.1359 347.802 69.2316 348.115 69.2316Z" fill="#F5F5F5"/>
<path d="M356.711 71.0229C356.503 71.0229 356.398 70.9215 356.398 70.7187V60.1571C356.398 59.8416 356.485 59.605 356.659 59.4473C356.833 59.2783 357.082 59.1938 357.407 59.1938H361.597C361.922 59.1938 362.165 59.2783 362.327 59.4473C362.501 59.605 362.588 59.8416 362.588 60.1571V70.7187C362.588 70.9215 362.489 71.0229 362.292 71.0229H360.675C360.478 71.0229 360.38 70.9215 360.38 70.7187V61.1372H358.624V70.7187C358.624 70.9215 358.52 71.0229 358.311 71.0229H356.711Z" fill="#F5F5F5"/>
<path d="M368.119 71.0229C367.911 71.0229 367.806 70.9215 367.806 70.7187V62.2018C367.806 61.2442 368.085 60.4725 368.641 59.8867C369.209 59.2896 369.951 58.9911 370.866 58.9911C371.817 58.9911 372.582 59.2896 373.161 59.8867C373.741 60.4725 374.031 61.2442 374.031 62.2018V63.8072C374.031 64.7422 373.747 65.497 373.179 66.0716C372.611 66.6461 371.857 66.9334 370.919 66.9334H369.98V70.7187C369.98 70.9215 369.881 71.0229 369.684 71.0229H368.119ZM370.779 64.9901C371.487 64.9901 371.84 64.6183 371.84 63.8748V62.0497C371.84 61.723 371.753 61.4639 371.579 61.2724C371.417 61.0808 371.191 60.9851 370.901 60.9851C370.623 60.9851 370.397 61.0808 370.223 61.2724C370.061 61.4639 369.98 61.723 369.98 62.0497V64.9901H370.779Z" fill="#F5F5F5"/>
<path d="M381.749 71.2256C380.81 71.2256 380.051 70.9327 379.471 70.3469C378.903 69.7611 378.619 68.995 378.619 68.0487V62.168C378.619 61.2104 378.903 60.4443 379.471 59.8698C380.051 59.284 380.81 58.9911 381.749 58.9911C382.641 58.9911 383.36 59.2952 383.905 59.9036C384.45 60.5007 384.739 61.3174 384.774 62.3539C384.774 62.5567 384.676 62.6581 384.479 62.6581H382.896C382.804 62.6581 382.728 62.6355 382.67 62.5905C382.624 62.5341 382.601 62.4609 382.601 62.3708C382.589 61.9089 382.502 61.5653 382.34 61.34C382.178 61.1034 381.963 60.9851 381.697 60.9851C381.419 60.9851 381.198 61.0752 381.036 61.2555C380.885 61.4357 380.81 61.6892 380.81 62.0159V68.2008C380.81 68.5275 380.885 68.781 381.036 68.9612C381.198 69.1415 381.419 69.2316 381.697 69.2316C381.986 69.2316 382.218 69.1021 382.392 68.8429C382.566 68.5726 382.659 68.1895 382.67 67.6938C382.694 67.5023 382.792 67.4066 382.966 67.4066H384.548C384.768 67.4066 384.867 67.5136 384.844 67.7276C384.809 68.8204 384.513 69.6766 383.957 70.2962C383.412 70.9158 382.676 71.2256 381.749 71.2256Z" fill="#F5F5F5"/>
<path d="M394.687 59.1938C394.896 59.1938 395 59.2896 395 59.4811V60.8499C395 61.0414 394.896 61.1372 394.687 61.1372H393.035V70.7187C393.035 70.9215 392.937 71.0229 392.74 71.0229H391.175C390.978 71.0229 390.879 70.9215 390.879 70.7187V61.1372H389.21C389.013 61.1372 388.915 61.0414 388.915 60.8499V59.4811C388.915 59.2896 389.013 59.1938 389.21 59.1938H394.687Z" fill="#F5F5F5"/>
<path d="M173.965 105.655C173.075 105.655 172.358 105.386 171.815 104.848C171.272 104.311 171 103.604 171 102.728C171 101.956 171.26 101.325 171.78 100.835C172.312 100.332 172.994 100.081 173.826 100.081H174.693V99.3273C174.693 99.0586 174.623 98.8483 174.485 98.6964C174.346 98.5328 174.155 98.451 173.913 98.451C173.67 98.451 173.485 98.5211 173.358 98.6613C173.231 98.8015 173.161 98.9885 173.15 99.2222C173.138 99.3741 173.034 99.45 172.838 99.45H171.416C171.22 99.45 171.121 99.3449 171.121 99.1345C171.191 98.34 171.48 97.7031 171.988 97.2241C172.497 96.7333 173.144 96.4879 173.93 96.4879C174.774 96.4879 175.45 96.7625 175.958 97.3117C176.478 97.8609 176.738 98.5737 176.738 99.45V102.815C176.738 103.68 176.49 104.369 175.993 104.883C175.508 105.398 174.831 105.655 173.965 105.655ZM173.93 103.692C174.173 103.692 174.358 103.616 174.485 103.464C174.623 103.312 174.693 103.102 174.693 102.833V101.886H173.947C173.67 101.886 173.45 101.962 173.288 102.114C173.138 102.266 173.063 102.471 173.063 102.728C173.063 103.031 173.138 103.271 173.288 103.446C173.439 103.61 173.653 103.692 173.93 103.692Z" fill="#F5F5F5"/>
<path d="M177.499 103.779C177.522 103.592 177.626 103.499 177.811 103.499H179.025C179.117 103.499 179.187 103.534 179.233 103.604C179.291 103.662 179.314 103.738 179.302 103.832L178.661 107.144C178.626 107.331 178.516 107.425 178.331 107.425H177.638C177.43 107.425 177.326 107.32 177.326 107.109L177.499 103.779Z" fill="#F5F5F5"/>
<path d="M186.648 105.672C185.793 105.672 185.1 105.427 184.568 104.936C184.048 104.445 183.788 103.803 183.788 103.008V96.891C183.788 96.0147 184.025 95.2902 184.499 94.7177C184.972 94.1334 185.643 93.7245 186.51 93.4908C186.672 93.444 187.209 93.3155 188.122 93.1052L188.555 93H188.625C188.798 93 188.885 93.0935 188.885 93.2804V94.595C188.885 94.7819 188.798 94.8929 188.625 94.928L188.157 95.0156C187.556 95.1325 187.151 95.226 186.943 95.2961C186.55 95.4246 186.267 95.6057 186.094 95.8394C185.92 96.0731 185.828 96.412 185.816 96.856V97.2766C186.024 97.1364 186.238 97.0371 186.458 96.9787C186.677 96.9086 186.932 96.8735 187.221 96.8735C187.914 96.8735 188.469 97.1306 188.885 97.6447C189.312 98.1589 189.526 98.8483 189.526 99.7129V103.008C189.526 103.803 189.26 104.445 188.729 104.936C188.209 105.427 187.515 105.672 186.648 105.672ZM186.648 103.709C186.903 103.709 187.105 103.622 187.255 103.446C187.405 103.271 187.481 103.037 187.481 102.745V99.8006C187.481 99.4968 187.405 99.2572 187.255 99.082C187.105 98.9067 186.903 98.819 186.648 98.819C186.394 98.819 186.192 98.9067 186.042 99.082C185.891 99.2572 185.816 99.4968 185.816 99.8006V102.745C185.816 103.037 185.891 103.271 186.042 103.446C186.192 103.622 186.394 103.709 186.648 103.709Z" fill="#F5F5F5"/>
<path d="M190.299 103.779C190.322 103.592 190.426 103.499 190.611 103.499H191.824C191.917 103.499 191.986 103.534 192.032 103.604C192.09 103.662 192.113 103.738 192.102 103.832L191.46 107.144C191.426 107.331 191.316 107.425 191.131 107.425H190.437C190.229 107.425 190.125 107.32 190.125 107.109L190.299 103.779Z" fill="#F5F5F5"/>
<path d="M201.182 100.765C201.529 100.928 201.806 101.214 202.014 101.623C202.234 102.021 202.344 102.471 202.344 102.973C202.344 103.733 202.118 104.352 201.667 104.831C201.217 105.298 200.627 105.532 199.899 105.532H197.541C197.218 105.532 196.975 105.45 196.813 105.287C196.651 105.111 196.57 104.866 196.57 104.55V99.415C196.57 98.5386 196.819 97.8317 197.316 97.2942C197.813 96.7567 198.472 96.4879 199.292 96.4879C200.113 96.4879 200.772 96.7275 201.269 97.2065C201.766 97.6739 202.014 98.2874 202.014 99.0469C202.014 99.4091 201.939 99.748 201.789 100.063C201.638 100.367 201.436 100.601 201.182 100.765ZM198.599 100.081H199.275C199.529 100.081 199.726 100.005 199.864 99.8531C200.003 99.6896 200.072 99.4559 200.072 99.1521C200.072 98.5912 199.818 98.3108 199.31 98.3108C199.09 98.3108 198.917 98.3867 198.789 98.5386C198.662 98.6788 198.599 98.8775 198.599 99.1345V100.081ZM199.448 103.604C199.714 103.604 199.922 103.528 200.072 103.376C200.234 103.224 200.315 103.008 200.315 102.728C200.315 102.435 200.234 102.213 200.072 102.062C199.922 101.898 199.714 101.816 199.448 101.816H198.599V103.604H199.448Z" fill="#F5F5F5"/>
<path d="M203.149 103.779C203.172 103.592 203.276 103.499 203.461 103.499H204.675C204.767 103.499 204.836 103.534 204.883 103.604C204.94 103.662 204.964 103.738 204.952 103.832L204.311 107.144C204.276 107.331 204.166 107.425 203.981 107.425H203.288C203.08 107.425 202.976 107.32 202.976 107.109L203.149 103.779Z" fill="#F5F5F5"/>
<path d="M209.715 105.462C209.519 105.462 209.421 105.357 209.421 105.146V100.011C209.421 98.9125 209.681 98.0829 210.201 97.522C210.721 96.9495 211.484 96.6632 212.489 96.6632H213.287C213.495 96.6632 213.599 96.7625 213.599 96.9612V98.3108C213.599 98.5094 213.495 98.6087 213.287 98.6087H212.559C211.819 98.6087 211.449 98.9943 211.449 99.7655V105.146C211.449 105.357 211.351 105.462 211.154 105.462H209.715Z" fill="#F5F5F5"/>
<path d="M213.324 103.779C213.347 103.592 213.451 103.499 213.636 103.499H214.85C214.942 103.499 215.012 103.534 215.058 103.604C215.116 103.662 215.139 103.738 215.127 103.832L214.486 107.144C214.451 107.331 214.341 107.425 214.156 107.425H213.463C213.255 107.425 213.151 107.32 213.151 107.109L213.324 103.779Z" fill="#F5F5F5"/>
<path d="M219.405 107.46C219.197 107.46 219.093 107.361 219.093 107.162V104.445C219.093 104.223 219.133 104.048 219.214 103.919C219.307 103.791 219.434 103.668 219.596 103.551C219.839 103.399 220.018 103.224 220.133 103.026C220.249 102.827 220.307 102.558 220.307 102.219V99.3624C220.307 98.8716 220.416 98.4218 220.636 98.0128C220.867 97.5921 221.185 97.2591 221.59 97.0137C221.994 96.7684 222.445 96.6457 222.942 96.6457H224.71C225.034 96.6457 225.288 96.7333 225.473 96.9086C225.658 97.0722 225.75 97.3059 225.75 97.6097V103.569L225.802 103.622C226.068 103.622 226.27 103.703 226.409 103.867C226.559 104.03 226.635 104.264 226.635 104.568V107.162C226.635 107.361 226.536 107.46 226.34 107.46H225.04C224.832 107.46 224.728 107.361 224.728 107.162V105.462H221.017V107.162C221.017 107.361 220.919 107.46 220.723 107.46H219.405ZM223.739 103.622V98.486H223.185C222.919 98.486 222.705 98.5853 222.543 98.784C222.393 98.9826 222.318 99.2572 222.318 99.6078V101.816C222.318 102.202 222.266 102.541 222.162 102.833C222.069 103.113 221.919 103.376 221.711 103.622H223.739Z" fill="#F5F5F5"/>
<path d="M227.292 103.779C227.315 103.592 227.419 103.499 227.604 103.499H228.818C228.91 103.499 228.979 103.534 229.026 103.604C229.083 103.662 229.106 103.738 229.095 103.832L228.453 107.144C228.419 107.331 228.309 107.425 228.124 107.425H227.431C227.223 107.425 227.119 107.32 227.119 107.109L227.292 103.779Z" fill="#F5F5F5"/>
<path d="M236.302 105.655C235.459 105.655 234.777 105.386 234.257 104.848C233.736 104.299 233.476 103.581 233.476 102.693V99.3799C233.5 98.5152 233.777 97.82 234.309 97.2942C234.84 96.7684 235.545 96.5054 236.424 96.5054C237.244 96.5054 237.915 96.7742 238.435 97.3117C238.966 97.8375 239.232 98.5211 239.232 99.3624C239.232 100.169 238.966 100.823 238.435 101.325C237.915 101.828 237.233 102.079 236.389 102.079H235.539V102.815C235.539 103.096 235.609 103.318 235.748 103.481C235.886 103.633 236.077 103.709 236.32 103.709C236.539 103.709 236.713 103.645 236.84 103.516C236.978 103.388 237.065 103.207 237.1 102.973C237.134 102.774 237.238 102.675 237.412 102.675H238.868C239.065 102.675 239.163 102.78 239.163 102.991C239.105 103.785 238.816 104.428 238.296 104.919C237.776 105.409 237.111 105.655 236.302 105.655ZM236.389 100.256C236.643 100.256 236.84 100.186 236.978 100.046C237.117 99.894 237.186 99.6837 237.186 99.415C237.186 99.0995 237.111 98.8599 236.961 98.6964C236.822 98.5328 236.62 98.451 236.354 98.451C236.088 98.451 235.886 98.5328 235.748 98.6964C235.609 98.8483 235.539 99.0644 235.539 99.3449V100.256H236.389Z" fill="#F5F5F5"/>
<path d="M240.041 103.779C240.064 103.592 240.168 103.499 240.353 103.499H241.566C241.659 103.499 241.728 103.534 241.774 103.604C241.832 103.662 241.855 103.738 241.844 103.832L241.202 107.144C241.167 107.331 241.058 107.425 240.873 107.425H240.179C239.971 107.425 239.867 107.32 239.867 107.109L240.041 103.779Z" fill="#F5F5F5"/>
<path d="M249.051 105.655C248.207 105.655 247.525 105.386 247.005 104.848C246.485 104.299 246.225 103.581 246.225 102.693V99.3799C246.248 98.5152 246.526 97.82 247.057 97.2942C247.589 96.7684 248.294 96.5054 249.172 96.5054C249.993 96.5054 250.663 96.7742 251.183 97.3117C251.715 97.8375 251.981 98.5211 251.981 99.3624C251.981 100.169 251.715 100.823 251.183 101.325C250.663 101.828 249.981 102.079 249.138 102.079H248.288V102.815C248.288 103.096 248.357 103.318 248.496 103.481C248.635 103.633 248.826 103.709 249.068 103.709C249.288 103.709 249.461 103.645 249.588 103.516C249.727 103.388 249.814 103.207 249.848 102.973C249.883 102.774 249.987 102.675 250.161 102.675H251.617C251.813 102.675 251.912 102.78 251.912 102.991C251.854 103.785 251.565 104.428 251.045 104.919C250.525 105.409 249.86 105.655 249.051 105.655ZM249.138 100.256C249.392 100.256 249.588 100.186 249.727 100.046C249.866 99.894 249.935 99.6837 249.935 99.415C249.935 99.0995 249.86 98.8599 249.71 98.6964C249.571 98.5328 249.369 98.451 249.103 98.451C248.837 98.451 248.635 98.5328 248.496 98.6964C248.357 98.8483 248.288 99.0644 248.288 99.3449V100.256H249.138ZM247.785 95.5064C247.508 95.5064 247.288 95.4246 247.127 95.261C246.965 95.0857 246.884 94.8637 246.884 94.595C246.884 94.3262 246.965 94.1101 247.127 93.9465C247.288 93.7712 247.508 93.6836 247.785 93.6836C248.051 93.6836 248.265 93.7712 248.427 93.9465C248.589 94.1101 248.67 94.3262 248.67 94.595C248.67 94.8637 248.589 95.0857 248.427 95.261C248.265 95.4246 248.051 95.5064 247.785 95.5064ZM250.178 95.5064C249.912 95.5064 249.692 95.4246 249.519 95.261C249.357 95.0857 249.276 94.8637 249.276 94.595C249.276 94.3262 249.357 94.1101 249.519 93.9465C249.692 93.7712 249.912 93.6836 250.178 93.6836C250.444 93.6836 250.663 93.7712 250.837 93.9465C251.01 94.1101 251.097 94.3262 251.097 94.595C251.097 94.8637 251.01 95.0857 250.837 95.261C250.663 95.4246 250.444 95.5064 250.178 95.5064Z" fill="#F5F5F5"/>
<path d="M252.789 103.779C252.812 103.592 252.916 103.499 253.101 103.499H254.315C254.407 103.499 254.477 103.534 254.523 103.604C254.581 103.662 254.604 103.738 254.592 103.832L253.951 107.144C253.916 107.331 253.806 107.425 253.621 107.425H252.928C252.72 107.425 252.616 107.32 252.616 107.109L252.789 103.779Z" fill="#F5F5F5"/>
<path d="M259.252 105.462C259.055 105.462 258.957 105.357 258.957 105.146V102.938C258.957 102.377 259.061 101.892 259.269 101.483C259.488 101.074 259.789 100.747 260.17 100.502L258.801 97.0488C258.778 97.0021 258.766 96.9612 258.766 96.9261C258.766 96.856 258.789 96.8034 258.835 96.7684C258.893 96.7216 258.968 96.6982 259.061 96.6982H260.534C260.708 96.6982 260.829 96.78 260.899 96.9436L262.025 100.011H262.441V96.9962C262.441 96.7859 262.54 96.6807 262.736 96.6807H264.123C264.331 96.6807 264.435 96.7859 264.435 96.9962V100.011H264.834L265.978 96.9436C266.024 96.78 266.14 96.6982 266.325 96.6982H267.816C267.92 96.6982 267.995 96.7333 268.041 96.8034C268.099 96.8618 268.105 96.9436 268.059 97.0488L266.706 100.502C267.088 100.747 267.382 101.074 267.591 101.483C267.81 101.892 267.92 102.377 267.92 102.938V105.146C267.92 105.357 267.816 105.462 267.608 105.462H266.204C265.996 105.462 265.892 105.357 265.892 105.146V102.815C265.892 102.547 265.816 102.336 265.666 102.184C265.527 102.032 265.331 101.956 265.077 101.956H264.435V105.146C264.435 105.357 264.331 105.462 264.123 105.462H262.736C262.54 105.462 262.441 105.357 262.441 105.146V101.956H261.8C261.546 101.956 261.343 102.038 261.193 102.202C261.043 102.354 260.968 102.558 260.968 102.815V105.146C260.968 105.357 260.87 105.462 260.673 105.462H259.252Z" fill="#F5F5F5"/>
<path d="M268.839 103.779C268.862 103.592 268.966 103.499 269.151 103.499H270.365C270.457 103.499 270.527 103.534 270.573 103.604C270.631 103.662 270.654 103.738 270.642 103.832L270.001 107.144C269.966 107.331 269.856 107.425 269.671 107.425H268.978C268.77 107.425 268.666 107.32 268.666 107.109L268.839 103.779Z" fill="#F5F5F5"/>
<path d="M277.573 105.672C276.752 105.672 276.076 105.433 275.544 104.954C275.024 104.463 274.73 103.82 274.66 103.026V102.991C274.66 102.897 274.683 102.827 274.729 102.78C274.787 102.722 274.862 102.693 274.955 102.693H276.411C276.573 102.693 276.683 102.792 276.741 102.991C276.787 103.213 276.885 103.388 277.035 103.516C277.186 103.645 277.376 103.709 277.607 103.709C277.862 103.709 278.058 103.627 278.197 103.464C278.347 103.288 278.422 103.049 278.422 102.745C278.422 102.453 278.336 102.225 278.162 102.062C278 101.898 277.769 101.816 277.469 101.816H276.931C276.723 101.816 276.619 101.717 276.619 101.518V100.379C276.619 100.18 276.723 100.081 276.931 100.081H277.417C277.683 100.081 277.891 99.9992 278.041 99.8356C278.191 99.6603 278.266 99.4325 278.266 99.1521C278.266 98.9067 278.197 98.7139 278.058 98.5737C277.931 98.4334 277.752 98.3633 277.521 98.3633C277.116 98.3633 276.891 98.597 276.845 99.0644C276.81 99.2748 276.706 99.3799 276.533 99.3799H275.094C274.897 99.3799 274.805 99.2748 274.816 99.0644C274.874 98.2815 275.146 97.6564 275.631 97.189C276.128 96.7216 276.758 96.4879 277.521 96.4879C278.33 96.4879 278.977 96.7275 279.462 97.2065C279.959 97.6739 280.208 98.2874 280.208 99.0469C280.208 99.4091 280.121 99.748 279.948 100.063C279.786 100.367 279.566 100.601 279.289 100.765C279.647 100.905 279.931 101.156 280.139 101.518C280.358 101.869 280.468 102.278 280.468 102.745C280.468 103.622 280.202 104.328 279.671 104.866C279.139 105.403 278.44 105.672 277.573 105.672Z" fill="#F5F5F5"/>
<path d="M281.266 103.779C281.289 103.592 281.393 103.499 281.578 103.499H282.792C282.884 103.499 282.954 103.534 283 103.604C283.058 103.662 283.081 103.738 283.069 103.832L282.428 107.144C282.393 107.331 282.283 107.425 282.098 107.425H281.405C281.197 107.425 281.093 107.32 281.093 107.109L281.266 103.779Z" fill="#F5F5F5"/>
<path d="M290.398 105.479C289.543 105.479 288.85 105.211 288.318 104.673C287.798 104.124 287.538 103.411 287.538 102.535V96.9962C287.538 96.7859 287.636 96.6807 287.833 96.6807H289.272C289.468 96.6807 289.566 96.7859 289.566 96.9962V102.658C289.566 102.915 289.641 103.125 289.792 103.288C289.942 103.44 290.144 103.516 290.398 103.516H291.092V96.9962C291.092 96.7859 291.196 96.6807 291.404 96.6807H292.843C293.039 96.6807 293.138 96.7859 293.138 96.9962V104.48C293.138 104.808 293.051 105.059 292.878 105.234C292.716 105.398 292.479 105.479 292.167 105.479H290.398Z" fill="#F5F5F5"/>
<path d="M294.269 103.779C294.292 103.592 294.396 103.499 294.581 103.499H295.795C295.887 103.499 295.956 103.534 296.003 103.604C296.06 103.662 296.084 103.738 296.072 103.832L295.43 107.144C295.396 107.331 295.286 107.425 295.101 107.425H294.408C294.2 107.425 294.096 107.32 294.096 107.109L294.269 103.779Z" fill="#F5F5F5"/>
<path d="M303.401 105.479C302.546 105.479 301.852 105.211 301.321 104.673C300.801 104.124 300.541 103.411 300.541 102.535V96.9962C300.541 96.7859 300.639 96.6807 300.835 96.6807H302.274C302.471 96.6807 302.569 96.7859 302.569 96.9962V102.658C302.569 102.915 302.644 103.125 302.794 103.288C302.945 103.44 303.147 103.516 303.401 103.516H304.095V96.9962C304.095 96.7859 304.199 96.6807 304.407 96.6807H305.846C306.042 96.6807 306.14 96.7859 306.14 96.9962V104.48C306.14 104.808 306.054 105.059 305.88 105.234C305.718 105.398 305.482 105.479 305.169 105.479H303.401ZM303.332 95.6466C302.754 95.6466 302.274 95.483 301.893 95.1559C301.523 94.8287 301.303 94.3905 301.234 93.8413V93.8063C301.234 93.6193 301.332 93.5258 301.529 93.5258H302.326C302.419 93.5258 302.488 93.5492 302.534 93.5959C302.58 93.631 302.621 93.7011 302.656 93.8063C302.748 94.0984 302.973 94.2444 303.332 94.2444C303.667 94.2444 303.892 94.0984 304.008 93.8063C304.043 93.7011 304.083 93.631 304.129 93.5959C304.175 93.5492 304.239 93.5258 304.32 93.5258H305.117C305.21 93.5258 305.285 93.555 305.343 93.6135C305.401 93.6719 305.424 93.7478 305.412 93.8413C305.343 94.4022 305.123 94.8462 304.753 95.1734C304.384 95.4889 303.91 95.6466 303.332 95.6466Z" fill="#F5F5F5"/>
<path d="M307.272 103.779C307.295 103.592 307.399 103.499 307.584 103.499H308.797C308.89 103.499 308.959 103.534 309.005 103.604C309.063 103.662 309.086 103.738 309.075 103.832L308.433 107.144C308.398 107.331 308.289 107.425 308.104 107.425H307.41C307.202 107.425 307.098 107.32 307.098 107.109L307.272 103.779Z" fill="#F5F5F5"/>
<path d="M318.051 100.502C318.432 100.747 318.727 101.08 318.935 101.501C319.143 101.91 319.247 102.389 319.247 102.938V105.146C319.247 105.357 319.149 105.462 318.952 105.462H317.496C317.299 105.462 317.201 105.357 317.201 105.146V102.815C317.201 102.547 317.126 102.336 316.976 102.184C316.837 102.032 316.641 101.956 316.386 101.956H315.676V105.146C315.676 105.357 315.572 105.462 315.364 105.462H313.942C313.734 105.462 313.63 105.357 313.63 105.146V96.9962C313.63 96.7859 313.734 96.6807 313.942 96.6807H315.364C315.572 96.6807 315.676 96.7859 315.676 96.9962V100.011H316.178L317.357 96.9436C317.403 96.78 317.519 96.6982 317.704 96.6982H319.178C319.293 96.6982 319.374 96.7333 319.42 96.8034C319.478 96.8618 319.484 96.9436 319.438 97.0488L318.051 100.502Z" fill="#F5F5F5"/>
<path d="M320.223 103.779C320.247 103.592 320.351 103.499 320.535 103.499H321.749C321.841 103.499 321.911 103.534 321.957 103.604C322.015 103.662 322.038 103.738 322.026 103.832L321.385 107.144C321.35 107.331 321.24 107.425 321.056 107.425H320.362C320.154 107.425 320.05 107.32 320.05 107.109L320.223 103.779Z" fill="#F5F5F5"/>
<path d="M326.304 105.532C326.212 105.532 326.137 105.503 326.079 105.444C326.021 105.386 325.992 105.31 325.992 105.216V103.884C325.992 103.791 326.021 103.715 326.079 103.657C326.137 103.598 326.212 103.569 326.304 103.569C326.512 103.557 326.674 103.475 326.79 103.324C326.917 103.16 326.98 102.944 326.98 102.675V99.5552C326.98 98.6788 327.24 97.9719 327.761 97.4344C328.281 96.8969 328.968 96.6281 329.824 96.6281H331.471C331.783 96.6281 332.02 96.7158 332.181 96.891C332.355 97.0546 332.442 97.2942 332.442 97.6097V105.146C332.442 105.24 332.413 105.316 332.355 105.374C332.309 105.433 332.239 105.462 332.147 105.462H330.725C330.633 105.462 330.558 105.433 330.5 105.374C330.454 105.316 330.43 105.24 330.43 105.146V98.5737H329.824C329.569 98.5737 329.367 98.6555 329.217 98.819C329.067 98.9709 328.991 99.1754 328.991 99.4325V102.587C328.991 103.475 328.749 104.188 328.263 104.726C327.789 105.252 327.136 105.52 326.304 105.532Z" fill="#F5F5F5"/>
<path d="M333.565 103.779C333.588 103.592 333.692 103.499 333.877 103.499H335.09C335.183 103.499 335.252 103.534 335.298 103.604C335.356 103.662 335.379 103.738 335.368 103.832L334.726 107.144C334.692 107.331 334.582 107.425 334.397 107.425H333.703C333.495 107.425 333.391 107.32 333.391 107.109L333.565 103.779Z" fill="#F5F5F5"/>
<path d="M340.235 105.462C340.027 105.462 339.923 105.357 339.923 105.146V97.6097C339.923 97.3059 340.004 97.078 340.166 96.9261C340.327 96.7625 340.553 96.6807 340.842 96.6807H341.553C341.818 96.6807 342.038 96.7391 342.211 96.856C342.385 96.9728 342.523 97.154 342.627 97.3993L343.373 99.2397C343.546 99.6487 343.743 100.227 343.962 100.975H343.997C344.194 100.297 344.39 99.7129 344.587 99.2222L345.349 97.3993C345.534 96.9203 345.887 96.6807 346.407 96.6807H347.135C347.424 96.6807 347.644 96.7625 347.794 96.9261C347.956 97.078 348.037 97.3059 348.037 97.6097V105.146C348.037 105.357 347.938 105.462 347.742 105.462H346.372C346.153 105.462 346.049 105.357 346.06 105.146V102.324C346.06 101.343 346.077 100.496 346.112 99.783H346.077C345.916 100.367 345.742 100.922 345.557 101.448L345.124 102.535C344.974 103.002 344.627 103.236 344.084 103.236H343.876C343.332 103.236 342.986 103.002 342.835 102.535L342.402 101.448C342.217 100.922 342.044 100.367 341.882 99.783H341.847C341.882 100.496 341.899 101.343 341.899 102.324V105.181C341.899 105.368 341.801 105.462 341.605 105.462H340.235Z" fill="#F5F5F5"/>
<path d="M349.158 103.779C349.181 103.592 349.285 103.499 349.47 103.499H350.683C350.776 103.499 350.845 103.534 350.891 103.604C350.949 103.662 350.972 103.738 350.961 103.832L350.319 107.144C350.284 107.331 350.175 107.425 349.99 107.425H349.296C349.088 107.425 348.984 107.32 348.984 107.109L349.158 103.779Z" fill="#F5F5F5"/>
<path d="M359.035 96.9962C359.035 96.7976 359.139 96.6982 359.347 96.6982H360.769C360.965 96.6982 361.064 96.7976 361.064 96.9962V105.146C361.064 105.357 360.965 105.462 360.769 105.462H359.347C359.139 105.462 359.035 105.357 359.035 105.146V101.974H357.544V105.146C357.544 105.357 357.446 105.462 357.25 105.462H355.828C355.62 105.462 355.516 105.357 355.516 105.146V96.9962C355.516 96.7976 355.62 96.6982 355.828 96.6982H357.25C357.446 96.6982 357.544 96.7976 357.544 96.9962V100.046H359.035V96.9962Z" fill="#F5F5F5"/>
<path d="M362.194 103.779C362.217 103.592 362.321 103.499 362.506 103.499H363.72C363.812 103.499 363.882 103.534 363.928 103.604C363.986 103.662 364.009 103.738 363.997 103.832L363.356 107.144C363.321 107.331 363.211 107.425 363.026 107.425H362.333C362.125 107.425 362.021 107.32 362.021 107.109L362.194 103.779Z" fill="#F5F5F5"/>
<path d="M174.017 126.705C173.15 126.705 172.451 126.43 171.919 125.881C171.387 125.332 171.121 124.613 171.121 123.725V120.483C171.121 119.606 171.387 118.894 171.919 118.344C172.451 117.795 173.15 117.521 174.017 117.521C174.883 117.521 175.583 117.795 176.114 118.344C176.646 118.894 176.912 119.606 176.912 120.483V123.725C176.912 124.613 176.646 125.332 176.114 125.881C175.583 126.43 174.883 126.705 174.017 126.705ZM174.017 124.742C174.271 124.742 174.473 124.66 174.623 124.496C174.774 124.333 174.849 124.117 174.849 123.848V120.378C174.849 120.097 174.774 119.875 174.623 119.712C174.473 119.548 174.271 119.466 174.017 119.466C173.762 119.466 173.56 119.548 173.41 119.712C173.26 119.875 173.184 120.097 173.184 120.378V123.848C173.184 124.117 173.26 124.333 173.41 124.496C173.56 124.66 173.762 124.742 174.017 124.742Z" fill="#F5F5F5"/>
<path d="M177.686 124.812C177.709 124.625 177.813 124.532 177.998 124.532H179.211C179.304 124.532 179.373 124.567 179.419 124.637C179.477 124.695 179.5 124.771 179.489 124.865L178.847 128.177C178.812 128.364 178.703 128.458 178.518 128.458H177.824C177.616 128.458 177.512 128.352 177.512 128.142L177.686 124.812Z" fill="#F5F5F5"/>
<path d="M188.638 117.731C188.962 117.731 189.204 117.819 189.366 117.994C189.54 118.157 189.626 118.397 189.626 118.712V126.179C189.626 126.389 189.522 126.495 189.314 126.495H187.875C187.679 126.495 187.581 126.389 187.581 126.179V119.659H186.09V126.179C186.09 126.389 185.986 126.495 185.777 126.495H184.356C184.148 126.495 184.044 126.389 184.044 126.179V118.712C184.044 118.397 184.125 118.157 184.287 117.994C184.46 117.819 184.703 117.731 185.015 117.731H188.638Z" fill="#F5F5F5"/>
<path d="M190.756 124.812C190.779 124.625 190.883 124.532 191.068 124.532H192.282C192.374 124.532 192.443 124.567 192.49 124.637C192.547 124.695 192.57 124.771 192.559 124.865L191.917 128.177C191.883 128.364 191.773 128.458 191.588 128.458H190.895C190.687 128.458 190.582 128.352 190.582 128.142L190.756 124.812Z" fill="#F5F5F5"/>
<path d="M199.905 117.521C200.772 117.521 201.471 117.795 202.003 118.344C202.535 118.894 202.801 119.606 202.801 120.483V123.725C202.801 124.298 202.685 124.812 202.454 125.268C202.223 125.723 201.911 126.08 201.518 126.337C201.136 126.582 200.714 126.705 200.252 126.705C199.824 126.705 199.431 126.588 199.073 126.354V129.702C199.073 129.901 198.975 130 198.778 130H197.322C197.126 130 197.027 129.901 197.027 129.702V120.483C197.027 119.606 197.293 118.894 197.825 118.344C198.357 117.795 199.05 117.521 199.905 117.521ZM200.738 120.378C200.738 120.109 200.662 119.893 200.512 119.729C200.362 119.565 200.16 119.484 199.905 119.484C199.651 119.484 199.449 119.565 199.299 119.729C199.148 119.893 199.073 120.109 199.073 120.378V123.848C199.073 124.117 199.148 124.333 199.299 124.496C199.449 124.66 199.651 124.742 199.905 124.742C200.16 124.742 200.362 124.66 200.512 124.496C200.662 124.333 200.738 124.117 200.738 123.848V120.378Z" fill="#F5F5F5"/>
<path d="M203.572 124.812C203.595 124.625 203.699 124.532 203.884 124.532H205.098C205.19 124.532 205.26 124.567 205.306 124.637C205.364 124.695 205.387 124.771 205.375 124.865L204.734 128.177C204.699 128.364 204.589 128.458 204.404 128.458H203.711C203.503 128.458 203.399 128.352 203.399 128.142L203.572 124.812Z" fill="#F5F5F5"/>
<path d="M212.635 126.705C211.779 126.705 211.086 126.43 210.554 125.881C210.023 125.332 209.757 124.613 209.757 123.725V120.483C209.757 119.606 210.017 118.894 210.537 118.344C211.069 117.795 211.756 117.521 212.6 117.521C213.409 117.521 214.068 117.772 214.576 118.274C215.097 118.777 215.385 119.454 215.443 120.307V120.342C215.443 120.529 215.345 120.623 215.149 120.623H213.675C213.502 120.623 213.403 120.518 213.38 120.307C213.311 119.758 213.051 119.484 212.6 119.484C212.357 119.484 212.167 119.565 212.028 119.729C211.889 119.893 211.82 120.109 211.82 120.378V123.848C211.82 124.117 211.889 124.333 212.028 124.496C212.167 124.66 212.363 124.742 212.617 124.742C213.091 124.742 213.363 124.438 213.432 123.83C213.455 123.62 213.554 123.515 213.727 123.515H215.201C215.42 123.515 215.518 123.632 215.495 123.865C215.437 124.73 215.149 125.42 214.628 125.934C214.108 126.448 213.444 126.705 212.635 126.705Z" fill="#F5F5F5"/>
<path d="M216.253 124.812C216.276 124.625 216.38 124.532 216.565 124.532H217.779C217.871 124.532 217.941 124.567 217.987 124.637C218.045 124.695 218.068 124.771 218.056 124.865L217.415 128.177C217.38 128.364 217.27 128.458 217.085 128.458H216.392C216.184 128.458 216.08 128.352 216.08 128.142L216.253 124.812Z" fill="#F5F5F5"/>
<path d="M224.137 126.495C223.929 126.495 223.825 126.389 223.825 126.179V119.659H222.334C222.126 119.659 222.022 119.56 222.022 119.361V118.029C222.022 117.83 222.126 117.731 222.334 117.731H227.379C227.576 117.731 227.674 117.83 227.674 118.029V119.361C227.674 119.56 227.576 119.659 227.379 119.659H225.871V126.179C225.871 126.389 225.773 126.495 225.576 126.495H224.137Z" fill="#F5F5F5"/>
</svg>
