<svg width="270" height="150" viewBox="0 0 270 150" fill="none" xmlns="http://www.w3.org/2000/svg">
<path d="M94.3659 117.099H46.3345L37.9465 144H0.5L53.8238 0H86.7767L140.5 144H102.854L94.3659 117.099ZM54.7225 90.2967H85.9779L70.3003 40.3517L54.7225 90.2967Z" fill="white"/>
<path d="M188.051 19.7808H183.224V27.7301H180.5V8.07969H187.303C189.617 8.07969 191.396 8.58355 192.638 9.59126C193.889 10.599 194.515 12.0656 194.515 13.991C194.515 15.2147 194.167 16.2808 193.47 17.1896C192.783 18.0983 191.824 18.7776 190.591 19.2275L195.418 27.5681V27.7301H192.511L188.051 19.7808ZM183.224 17.662H187.387C188.733 17.662 189.801 17.329 190.591 16.6632C191.391 15.9974 191.791 15.1067 191.791 13.991C191.791 12.7763 191.41 11.8451 190.648 11.1973C189.895 10.5495 188.803 10.2211 187.373 10.2121H183.224V17.662Z" fill="#CCCCCC"/>
<path d="M197.225 20.2937C197.225 18.8631 197.516 17.5765 198.1 16.4338C198.692 15.2911 199.511 14.4094 200.555 13.7886C201.609 13.1677 202.809 12.8573 204.154 12.8573C206.234 12.8573 207.913 13.5456 209.193 14.9222C210.482 16.2988 211.126 18.1298 211.126 20.4152V20.5906C211.126 22.0122 210.839 23.2898 210.265 24.4235C209.701 25.5482 208.887 26.4255 207.824 27.0553C206.77 27.6851 205.556 28 204.183 28C202.113 28 200.433 27.3117 199.144 25.9351C197.864 24.5585 197.225 22.7365 197.225 20.4692V20.2937ZM199.85 20.5906C199.85 22.2102 200.24 23.5103 201.021 24.491C201.811 25.4717 202.865 25.9621 204.183 25.9621C205.509 25.9621 206.563 25.4672 207.344 24.4775C208.125 23.4788 208.515 22.0842 208.515 20.2937C208.515 18.6922 208.115 17.3965 207.316 16.4068C206.525 15.4081 205.472 14.9087 204.154 14.9087C202.865 14.9087 201.826 15.3991 201.035 16.3798C200.245 17.3605 199.85 18.7641 199.85 20.5906Z" fill="#CCCCCC"/>
<path d="M227.329 20.5906C227.329 22.822 226.792 24.617 225.72 25.9756C224.647 27.3252 223.208 28 221.401 28C219.472 28 217.981 27.3477 216.927 26.0431L216.8 27.7301H214.401V7H217.012V14.7333C218.066 13.4826 219.519 12.8573 221.373 12.8573C223.226 12.8573 224.68 13.5276 225.734 14.8683C226.797 16.2089 227.329 18.0443 227.329 20.3747V20.5906ZM224.718 20.3072C224.718 18.6067 224.374 17.2931 223.687 16.3663C223.001 15.4396 222.013 14.9762 220.724 14.9762C219.002 14.9762 217.764 15.741 217.012 17.2706V23.5868C217.812 25.1163 219.058 25.8811 220.752 25.8811C222.003 25.8811 222.977 25.4177 223.673 24.491C224.37 23.5643 224.718 22.1697 224.718 20.3072Z" fill="#CCCCCC"/>
<path d="M229.94 20.2937C229.94 18.8631 230.231 17.5765 230.815 16.4338C231.408 15.2911 232.226 14.4094 233.271 13.7886C234.324 13.1677 235.524 12.8573 236.869 12.8573C238.949 12.8573 240.628 13.5456 241.908 14.9222C243.197 16.2988 243.842 18.1298 243.842 20.4152V20.5906C243.842 22.0122 243.555 23.2898 242.981 24.4235C242.416 25.5482 241.602 26.4255 240.539 27.0553C239.485 27.6851 238.271 28 236.898 28C234.828 28 233.148 27.3117 231.859 25.9351C230.58 24.5585 229.94 22.7365 229.94 20.4692V20.2937ZM232.565 20.5906C232.565 22.2102 232.955 23.5103 233.736 24.491C234.527 25.4717 235.58 25.9621 236.898 25.9621C238.224 25.9621 239.278 25.4672 240.059 24.4775C240.84 23.4788 241.231 22.0842 241.231 20.2937C241.231 18.6922 240.831 17.3965 240.031 16.4068C239.241 15.4081 238.187 14.9087 236.869 14.9087C235.58 14.9087 234.541 15.3991 233.75 16.3798C232.96 17.3605 232.565 18.7641 232.565 20.5906Z" fill="#CCCCCC"/>
<path d="M250.658 9.59126V13.1272H253.509V15.0572H250.658V24.1131C250.658 24.6979 250.785 25.1388 251.039 25.4357C251.294 25.7236 251.726 25.8676 252.338 25.8676C252.639 25.8676 253.053 25.8136 253.58 25.7057V27.7301C252.893 27.91 252.225 28 251.576 28C250.409 28 249.529 27.6626 248.937 26.9878C248.344 26.313 248.047 25.3548 248.047 24.1131V15.0572H245.267V13.1272H248.047V9.59126H250.658Z" fill="#CCCCCC"/>
<path d="M255.598 20.2937C255.598 18.8631 255.89 17.5765 256.473 16.4338C257.066 15.2911 257.885 14.4094 258.929 13.7886C259.983 13.1677 261.182 12.8573 262.528 12.8573C264.607 12.8573 266.287 13.5456 267.566 14.9222C268.855 16.2988 269.5 18.1298 269.5 20.4152V20.5906C269.5 22.0122 269.213 23.2898 268.639 24.4235C268.075 25.5482 267.261 26.4255 266.197 27.0553C265.144 27.6851 263.93 28 262.556 28C260.486 28 258.807 27.3117 257.518 25.9351C256.238 24.5585 255.598 22.7365 255.598 20.4692V20.2937ZM258.223 20.5906C258.223 22.2102 258.614 23.5103 259.395 24.491C260.185 25.4717 261.239 25.9621 262.556 25.9621C263.883 25.9621 264.937 25.4672 265.718 24.4775C266.499 23.4788 266.889 22.0842 266.889 20.2937C266.889 18.6922 266.489 17.3965 265.689 16.4068C264.899 15.4081 263.845 14.9087 262.528 14.9087C261.239 14.9087 260.199 15.3991 259.409 16.3798C258.618 17.3605 258.223 18.7641 258.223 20.5906Z" fill="#CCCCCC"/>
<path d="M184.879 62.8053C184.658 62.765 184.421 62.7448 184.17 62.7448C183.516 62.7448 182.961 62.9263 182.506 63.2893C182.056 63.6465 181.735 64.1679 181.542 64.8536V71.275H180.5V61.9237H181.525L181.542 63.4103C182.097 62.304 182.988 61.7509 184.214 61.7509C184.506 61.7509 184.736 61.7883 184.906 61.8632L184.879 62.8053Z" fill="#CCCCCC"/>
<path d="M190.038 71.4479C189.233 71.4479 188.503 71.252 187.849 70.8602C187.201 70.4684 186.695 69.9239 186.333 69.2267C185.971 68.5238 185.79 67.7373 185.79 66.8673V66.4957C185.79 65.5968 185.966 64.7873 186.316 64.0671C186.672 63.3469 187.166 62.7822 187.796 62.3732C188.427 61.9583 189.11 61.7509 189.846 61.7509C190.996 61.7509 191.907 62.1398 192.578 62.9176C193.256 63.6897 193.595 64.747 193.595 66.0895V66.6685H186.833V66.8673C186.833 67.9275 187.139 68.8119 187.752 69.5206C188.371 70.2235 189.148 70.575 190.082 70.575C190.643 70.575 191.136 70.4742 191.562 70.2725C191.995 70.0708 192.386 69.7482 192.736 69.3045L193.393 69.7972C192.622 70.8976 191.504 71.4479 190.038 71.4479ZM189.846 62.6324C189.057 62.6324 188.392 62.9176 187.849 63.4881C187.311 64.0585 186.984 64.8248 186.868 65.787H192.552V65.6746C192.523 64.7758 192.263 64.0441 191.773 63.4794C191.282 62.9148 190.64 62.6324 189.846 62.6324Z" fill="#CCCCCC"/>
<path d="M195.215 66.513C195.215 65.0495 195.542 63.8914 196.196 63.0386C196.856 62.1801 197.749 61.7509 198.876 61.7509C200.167 61.7509 201.148 62.2579 201.819 63.272L201.872 61.9237H202.853V71.0849C202.853 72.2891 202.511 73.2427 201.828 73.9456C201.145 74.6485 200.219 75 199.051 75C198.391 75 197.761 74.8531 197.159 74.5592C196.564 74.2711 196.094 73.8851 195.749 73.4011L196.336 72.7789C197.078 73.6777 197.959 74.1271 198.981 74.1271C199.857 74.1271 200.54 73.8707 201.031 73.3579C201.521 72.8509 201.775 72.1451 201.793 71.2405V70.0651C201.121 70.987 200.143 71.4479 198.859 71.4479C197.761 71.4479 196.879 71.0158 196.213 70.1515C195.548 69.2872 195.215 68.1205 195.215 66.6512V66.513ZM196.275 66.6945C196.275 67.8871 196.517 68.8292 197.002 69.5206C197.486 70.2062 198.17 70.5491 199.051 70.5491C200.342 70.5491 201.256 69.9786 201.793 68.8378V64.4906C201.548 63.8914 201.194 63.4362 200.733 63.1251C200.272 62.8082 199.717 62.6497 199.069 62.6497C198.187 62.6497 197.501 62.9925 197.01 63.6782C196.52 64.3581 196.275 65.3635 196.275 66.6945Z" fill="#CCCCCC"/>
<path d="M211.682 70.091C211.051 70.9956 210.044 71.4479 208.66 71.4479C207.65 71.4479 206.882 71.1598 206.356 70.5836C205.831 70.0017 205.562 69.1432 205.55 68.0081V61.9237H206.593V67.8785C206.593 69.6589 207.323 70.5491 208.782 70.5491C210.301 70.5491 211.261 69.9297 211.664 68.6909V61.9237H212.715V71.275H211.699L211.682 70.091Z" fill="#CCCCCC"/>
<path d="M216.622 71.275H215.571V58H216.622V71.275Z" fill="#CCCCCC"/>
<path d="M225.459 71.275C225.354 70.9812 225.287 70.5462 225.258 69.97C224.89 70.4425 224.42 70.8083 223.848 71.0676C223.281 71.3211 222.68 71.4479 222.043 71.4479C221.132 71.4479 220.394 71.1973 219.827 70.696C219.267 70.1947 218.987 69.5609 218.987 68.7946C218.987 67.8843 219.369 67.164 220.134 66.634C220.905 66.1039 221.976 65.8388 223.348 65.8388H225.249V64.7758C225.249 64.1074 225.039 63.5831 224.618 63.2028C224.204 62.8168 223.597 62.6238 222.797 62.6238C222.067 62.6238 221.462 62.8082 220.984 63.1769C220.505 63.5457 220.265 63.9893 220.265 64.5079L219.214 64.4992C219.214 63.756 219.565 63.1135 220.265 62.5719C220.966 62.0246 221.827 61.7509 222.849 61.7509C223.906 61.7509 224.738 62.013 225.345 62.5374C225.959 63.0559 226.274 63.7819 226.291 64.7153V69.1403C226.291 70.0449 226.388 70.7219 226.58 71.1713V71.275H225.459ZM222.166 70.5318C222.867 70.5318 223.492 70.3647 224.04 70.0305C224.595 69.6963 224.998 69.2498 225.249 68.6909V66.634H223.375C222.33 66.6455 221.512 66.8356 220.922 67.2044C220.332 67.5674 220.038 68.0686 220.038 68.7082C220.038 69.2325 220.233 69.6675 220.624 70.0132C221.022 70.3589 221.535 70.5318 222.166 70.5318Z" fill="#CCCCCC"/>
<path d="M233.474 62.8053C233.252 62.765 233.015 62.7448 232.764 62.7448C232.11 62.7448 231.556 62.9263 231.1 63.2893C230.65 63.6465 230.329 64.1679 230.137 64.8536V71.275H229.094V61.9237H230.119L230.137 63.4103C230.691 62.304 231.582 61.7509 232.808 61.7509C233.1 61.7509 233.331 61.7883 233.5 61.8632L233.474 62.8053Z" fill="#CCCCCC"/>
<path d="M181.518 99.0848L181.554 100.668C181.908 100.081 182.35 99.6397 182.882 99.3458C183.413 99.0518 184.003 98.9049 184.652 98.9049C186.163 98.9049 187.122 99.5347 187.53 100.794C187.872 100.189 188.329 99.7237 188.902 99.3997C189.474 99.0698 190.106 98.9049 190.796 98.9049C192.85 98.9049 193.898 100.045 193.939 102.324V108.82H192.877V102.405C192.871 101.535 192.685 100.89 192.319 100.47C191.959 100.051 191.369 99.8406 190.548 99.8406C189.787 99.8526 189.144 100.105 188.618 100.596C188.093 101.082 187.801 101.676 187.742 102.378V108.82H186.68V102.324C186.674 101.49 186.479 100.869 186.095 100.461C185.718 100.048 185.133 99.8406 184.342 99.8406C183.675 99.8406 183.103 100.036 182.625 100.425C182.147 100.809 181.793 101.382 181.562 102.144V108.82H180.5V99.0848H181.518Z" fill="#CCCCCC"/>
<path d="M200.34 109C199.526 109 198.788 108.796 198.127 108.388C197.472 107.98 196.961 107.413 196.595 106.688C196.229 105.956 196.046 105.137 196.046 104.231V103.844C196.046 102.909 196.223 102.066 196.578 101.316C196.938 100.566 197.436 99.9786 198.074 99.5527C198.711 99.1208 199.402 98.9049 200.145 98.9049C201.308 98.9049 202.229 99.3098 202.908 100.12C203.592 100.923 203.935 102.024 203.935 103.422V104.024H197.1V104.231C197.1 105.335 197.41 106.256 198.03 106.994C198.655 107.725 199.44 108.091 200.384 108.091C200.951 108.091 201.45 107.986 201.881 107.776C202.317 107.566 202.713 107.231 203.067 106.769L203.731 107.281C202.952 108.427 201.822 109 200.34 109ZM200.145 99.8226C199.349 99.8226 198.676 100.12 198.127 100.713C197.584 101.307 197.253 102.105 197.135 103.107H202.881V102.99C202.852 102.054 202.589 101.292 202.093 100.704C201.597 100.117 200.948 99.8226 200.145 99.8226Z" fill="#CCCCCC"/>
<path d="M205.573 103.862C205.573 102.351 205.903 101.148 206.564 100.254C207.231 99.3548 208.134 98.9049 209.273 98.9049C210.566 98.9049 211.551 99.4237 212.23 100.461V95H213.284V108.82H212.292L212.248 107.524C211.569 108.508 210.572 109 209.255 109C208.152 109 207.261 108.55 206.582 107.65C205.909 106.745 205.573 105.524 205.573 103.988V103.862ZM206.644 104.051C206.644 105.293 206.889 106.274 207.379 106.994C207.868 107.707 208.559 108.064 209.45 108.064C210.755 108.064 211.681 107.479 212.23 106.31V101.739C211.681 100.473 210.761 99.8406 209.468 99.8406C208.577 99.8406 207.883 100.198 207.387 100.911C206.892 101.619 206.644 102.666 206.644 104.051Z" fill="#CCCCCC"/>
<path d="M217.259 108.82H216.196V99.0848H217.259V108.82ZM216.011 96.2686C216.011 96.0647 216.075 95.8937 216.205 95.7558C216.335 95.6118 216.512 95.5398 216.737 95.5398C216.961 95.5398 217.138 95.6118 217.268 95.7558C217.403 95.8937 217.471 96.0647 217.471 96.2686C217.471 96.4726 217.403 96.6435 217.268 96.7815C217.138 96.9195 216.961 96.9884 216.737 96.9884C216.512 96.9884 216.335 96.9195 216.205 96.7815C216.075 96.6435 216.011 96.4726 216.011 96.2686Z" fill="#CCCCCC"/>
<path d="M226.307 107.587C225.669 108.529 224.651 109 223.253 109C222.231 109 221.455 108.7 220.924 108.1C220.393 107.494 220.121 106.601 220.11 105.419V99.0848H221.163V105.284C221.163 107.138 221.901 108.064 223.376 108.064C224.911 108.064 225.882 107.419 226.289 106.13V99.0848H227.352V108.82H226.325L226.307 107.587Z" fill="#CCCCCC"/>
<path d="M231.079 99.0848L231.114 100.668C231.468 100.081 231.911 99.6397 232.442 99.3458C232.973 99.0518 233.564 98.9049 234.213 98.9049C235.724 98.9049 236.683 99.5347 237.09 100.794C237.433 100.189 237.89 99.7237 238.462 99.3997C239.035 99.0698 239.667 98.9049 240.357 98.9049C242.411 98.9049 243.459 100.045 243.5 102.324V108.82H242.438V102.405C242.432 101.535 242.246 100.89 241.88 100.47C241.52 100.051 240.93 99.8406 240.109 99.8406C239.348 99.8526 238.704 100.105 238.179 100.596C237.654 101.082 237.362 101.676 237.303 102.378V108.82H236.24V102.324C236.234 101.49 236.04 100.869 235.656 100.461C235.278 100.048 234.694 99.8406 233.903 99.8406C233.236 99.8406 232.664 100.036 232.186 100.425C231.707 100.809 231.353 101.382 231.123 102.144V108.82H230.061V99.0848H231.079Z" fill="#CCCCCC"/>
<path d="M188.076 138.051C188.076 139.569 187.752 140.775 187.103 141.668C186.454 142.556 185.583 143 184.488 143C183.179 143 182.188 142.496 181.517 141.488L181.473 142.82H180.5V129H181.534V134.497C182.194 133.436 183.173 132.905 184.471 132.905C185.583 132.905 186.46 133.346 187.103 134.228C187.752 135.103 188.076 136.324 188.076 137.889V138.051ZM187.034 137.862C187.034 136.579 186.793 135.589 186.312 134.893C185.832 134.192 185.154 133.841 184.279 133.841C183.613 133.841 183.049 134.012 182.585 134.353C182.122 134.689 181.771 135.184 181.534 135.838V140.229C182.055 141.452 182.976 142.064 184.297 142.064C185.154 142.064 185.823 141.713 186.304 141.012C186.79 140.31 187.034 139.26 187.034 137.862Z" fill="#CCCCCC"/>
<path d="M189.805 137.808C189.805 136.873 189.979 136.03 190.327 135.28C190.68 134.53 191.175 133.949 191.812 133.535C192.455 133.115 193.182 132.905 193.993 132.905C195.244 132.905 196.258 133.361 197.034 134.272C197.81 135.178 198.198 136.381 198.198 137.88V138.105C198.198 139.047 198.021 139.896 197.668 140.652C197.321 141.401 196.828 141.98 196.191 142.388C195.554 142.796 194.827 143 194.01 143C192.765 143 191.751 142.547 190.969 141.641C190.193 140.73 189.805 139.524 189.805 138.024V137.808ZM190.848 138.105C190.848 139.269 191.137 140.226 191.717 140.976C192.302 141.719 193.066 142.091 194.01 142.091C194.949 142.091 195.707 141.719 196.287 140.976C196.872 140.226 197.164 139.239 197.164 138.015V137.808C197.164 137.065 197.031 136.384 196.765 135.766C196.498 135.148 196.125 134.671 195.644 134.335C195.163 133.994 194.613 133.823 193.993 133.823C193.066 133.823 192.31 134.201 191.725 134.956C191.14 135.706 190.848 136.69 190.848 137.907V138.105Z" fill="#CCCCCC"/>
<path d="M201.517 142.82H200.474V129H201.517V142.82Z" fill="#CCCCCC"/>
<path d="M203.932 137.862C203.932 136.351 204.257 135.148 204.906 134.254C205.56 133.355 206.446 132.905 207.564 132.905C208.833 132.905 209.8 133.424 210.466 134.461V129H211.5V142.82H210.527L210.483 141.524C209.817 142.508 208.838 143 207.547 143C206.464 143 205.589 142.55 204.923 141.65C204.263 140.745 203.932 139.524 203.932 137.988V137.862ZM204.984 138.051C204.984 139.293 205.224 140.274 205.705 140.994C206.186 141.707 206.863 142.064 207.738 142.064C209.018 142.064 209.927 141.479 210.466 140.31V135.739C209.927 134.473 209.024 133.841 207.755 133.841C206.881 133.841 206.2 134.198 205.714 134.911C205.227 135.619 204.984 136.666 204.984 138.051Z" fill="#CCCCCC"/>
</svg>
