<svg width="259" height="64" viewBox="0 0 259 64" fill="none" xmlns="http://www.w3.org/2000/svg">
<path d="M6.42513 0.0587364L14.4226 0C18.1819 0 20.5857 0.548213 21.634 1.64464C22.7003 2.72149 23.2335 5.24719 23.2335 9.22173V10.5433C23.2335 11.953 23.1521 13.441 22.9895 15.0073C22.8449 16.5541 22.3298 17.7484 21.4442 18.5903C20.5767 19.4322 19.2663 19.8532 17.5132 19.8532C16.971 19.9119 16.2752 19.9511 15.4257 19.9706C14.5943 19.9902 13.7991 20 13.04 20H8.51262C7.41013 20 6.3438 19.9413 5.31361 19.8238C4.30149 19.7063 3.443 19.4909 2.73813 19.1777C2.05134 18.8644 1.48203 18.326 1.03019 17.5624C0.596425 16.7792 0.316286 15.7709 0.189772 14.5374C0.0632572 13.304 0 11.8453 0 10.1615C0 8.57562 0.0180735 7.44004 0.0542204 6.75477C0.0903675 6.04993 0.234955 5.0514 0.487984 3.75918C0.759087 2.46696 1.4007 1.52717 2.41281 0.939795C3.42493 0.352422 4.76237 0.0587364 6.42513 0.0587364ZM6.886 17.8267L11.549 17.9148H13.7991C15.0823 17.9148 16.3746 17.8463 17.6759 17.7093C18.9772 17.5722 19.8357 17.1121 20.2514 16.3289C20.6851 15.5262 20.902 14.3319 20.902 12.746L20.9562 8.72247C20.9562 7.48899 20.911 6.42193 20.8207 5.52129C20.7303 4.60108 20.5315 3.90602 20.2242 3.43612C19.917 2.94665 19.5103 2.63338 19.0043 2.49633C18.5163 2.3397 18.0102 2.2418 17.4861 2.20264C16.98 2.14391 16.4378 2.11454 15.8595 2.11454L11.6032 2.08517L7.4011 2.17327C5.34072 2.17327 3.98521 2.46696 3.33456 3.05433C2.68391 3.62212 2.35859 4.98287 2.35859 7.13656L2.27726 10.0734V11.5125C2.27726 13.9794 2.52125 15.6535 3.00924 16.5345C3.49722 17.396 4.78948 17.8267 6.886 17.8267Z" fill="white"/>
<path d="M44.2149 19.7944H27.7319V0.205579H29.9278V17.8267H44.2149V19.7944Z" fill="white"/>
<path d="M67.2506 0.205579L56.8131 11.4537V19.7944H54.6172V11.4537L44.2069 0.205579H47.3245L55.7016 9.39794L64.1329 0.205579H67.2506Z" fill="white"/>
<path d="M82.7189 19.7944L71.441 2.20264V19.7944H69.2451V0.205579H72.8236L83.6135 17.0044L94.4576 0.205579H97.9819V19.7944H95.786V2.20264L84.481 19.7944H82.7189Z" fill="white"/>
<path d="M123.386 5.78561C123.386 6.90161 123.314 7.89036 123.169 8.75184C123.025 9.61331 122.735 10.279 122.302 10.7489C121.886 11.2188 121.362 11.5712 120.729 11.8062C120.097 12.0215 119.148 12.1292 117.883 12.1292H105.222V19.7944H103.026V0.205579H118.018C119.988 0.205579 121.371 0.60695 122.166 1.40969C122.979 2.19285 123.386 3.65149 123.386 5.78561ZM121.109 5.90308C121.109 4.53255 120.874 3.57318 120.404 3.02496C119.934 2.47675 119.067 2.20264 117.801 2.20264H105.222V10.1615H116.554C118.362 10.1615 119.573 9.91679 120.187 9.42731C120.802 8.93784 121.109 7.76309 121.109 5.90308Z" fill="white"/>
<path d="M129.367 19.7944H127.171V0.205579H129.367V19.7944Z" fill="white"/>
<path d="M133.911 19.7944H131.336L142.017 0.205579H144.945L155.708 19.7944H153.186L150.828 15.3891H136.215L133.911 19.7944ZM137.246 13.4214H149.798L143.481 1.93833L137.246 13.4214Z" fill="white"/>
<path d="M184.834 5.78561C184.834 6.90161 184.762 7.89036 184.617 8.75184C184.473 9.61331 184.184 10.279 183.75 10.7489C183.334 11.2188 182.81 11.5712 182.177 11.8062C181.545 12.0215 180.596 12.1292 179.331 12.1292H166.67V19.7944H164.474V0.205579H179.466C181.436 0.205579 182.819 0.60695 183.614 1.40969C184.428 2.19285 184.834 3.65149 184.834 5.78561ZM182.557 5.90308C182.557 4.53255 182.322 3.57318 181.852 3.02496C181.382 2.47675 180.515 2.20264 179.25 2.20264H166.67V10.1615H178.002C179.81 10.1615 181.021 9.91679 181.635 9.42731C182.25 8.93784 182.557 7.76309 182.557 5.90308Z" fill="white"/>
<path d="M188.132 19.7944H185.556L196.237 0.205579H199.165L209.928 19.7944H207.407L205.048 15.3891H190.436L188.132 19.7944ZM191.466 13.4214H204.018L197.701 1.93833L191.466 13.4214Z" fill="white"/>
<path d="M232.765 6.02056C232.765 7.78267 232.521 8.99657 232.033 9.66226C231.563 10.3084 230.524 10.7587 228.915 11.0132C230.126 11.1894 231.012 11.5125 231.572 11.9824C232.151 12.4327 232.44 13.2648 232.44 14.4787V19.7944H230.271V15.4479C230.271 13.999 229.982 13.0396 229.403 12.5698C228.843 12.0999 227.858 11.8649 226.448 11.8649H214.113V19.7944H211.917V0.205579H226.638C228.825 0.205579 230.388 0.60695 231.328 1.40969C232.286 2.19285 232.765 3.72981 232.765 6.02056ZM230.488 5.87371C230.488 4.34655 230.154 3.35781 229.485 2.90749C228.816 2.43759 227.714 2.20264 226.177 2.20264H214.113V9.89721H226.232C227.822 9.89721 228.925 9.63289 229.539 9.10426C230.172 8.55605 230.488 7.4792 230.488 5.87371Z" fill="white"/>
<path d="M254.364 0.205579H258.105L244.821 9.66226L259 19.7944H255.042L242.49 10.6314H239.291V19.7944H237.095V0.205579H239.291V8.66373H242.49L254.364 0.205579Z" fill="white"/>
<path d="M58.0563 53.5718C58.0563 54.6393 57.9063 55.3646 57.6065 55.7478C57.3066 56.131 56.6756 56.4115 55.7135 56.5894C56.7756 56.5894 57.5002 56.8358 57.8876 57.3284C58.2874 57.8074 58.4873 58.6491 58.4873 59.8534C58.4873 61.3451 58.1687 62.3851 57.5315 62.9736C56.8943 63.5484 55.851 63.8358 54.4016 63.8358H44V50.1437H54.5703C55.7073 50.1437 56.5694 50.4106 57.1567 50.9443C57.7564 51.478 58.0563 52.3539 58.0563 53.5718ZM56.482 53.7155C56.482 52.8534 56.307 52.2786 55.9572 51.9912C55.6073 51.6901 55.0201 51.5396 54.1955 51.5396H45.5181V56.0147H53.9706C54.8577 56.0147 55.4949 55.8573 55.8822 55.5425C56.282 55.2278 56.482 54.6188 56.482 53.7155ZM56.913 60.0997C56.913 59.4976 56.8693 59.0117 56.7818 58.6422C56.6944 58.259 56.5069 57.9785 56.2196 57.8006C55.9322 57.6227 55.6261 57.5132 55.3012 57.4721C54.9889 57.4174 54.6453 57.39 54.2704 57.39H45.5181V62.4604H54.1018C55.0638 62.4604 55.7698 62.303 56.2196 61.9883C56.6819 61.6598 56.913 61.0303 56.913 60.0997Z" fill="#F9F9F9"/>
<path d="M70.7389 63.8358L62.9424 51.5396V63.8358H61.4243V50.1437H63.8982L71.3574 61.8856L78.8541 50.1437H81.2905V63.8358H79.7724V51.5396L71.9572 63.8358H70.7389Z" fill="#F9F9F9"/>
<path d="M108.711 50.1437L102.751 63.8358H100.652L95.7604 51.7449L90.8126 63.8358H88.751L82.7912 50.1437H84.4966L89.7631 62.3167L94.7109 50.1437H96.7912L101.72 62.3167L107.024 50.1437H108.711Z" fill="#F9F9F9"/>
<path d="M126.298 51.9296C126.036 51.7928 125.561 51.6833 124.874 51.6012C124.187 51.5054 123.3 51.4575 122.213 51.4575H121.688C120.863 51.4575 120.008 51.4985 119.12 51.5806C118.246 51.6628 117.609 51.7996 117.209 51.9912C116.809 52.1828 116.553 52.4428 116.44 52.7713C116.328 53.0997 116.272 53.4966 116.272 53.9619C116.272 54.7967 116.478 55.3646 116.89 55.6657C117.315 55.9668 117.927 56.1173 118.727 56.1173L120.095 56.1584L123.037 56.1378C123.55 56.1378 124.006 56.1447 124.406 56.1584C124.805 56.172 125.405 56.2268 126.205 56.3226C127.017 56.4184 127.667 56.7331 128.154 57.2669C128.654 57.7869 128.904 58.6833 128.904 59.956C128.904 60.7908 128.785 61.4888 128.547 62.0499C128.31 62.5973 127.904 63.0147 127.329 63.3021C126.767 63.5758 126.08 63.7537 125.268 63.8358C124.468 63.9179 123.593 63.9589 122.644 63.9589H121.651C120.713 63.9589 120.008 63.9453 119.533 63.9179C119.07 63.9042 118.352 63.8289 117.377 63.6921C116.415 63.5552 115.728 63.1994 115.316 62.6246C114.904 62.0362 114.697 61.0166 114.697 59.566H116.215V59.8534C116.215 60.5513 116.272 61.0714 116.384 61.4135C116.509 61.7419 116.815 61.9883 117.302 62.1525C117.802 62.303 118.464 62.4057 119.289 62.4604C120.114 62.5015 120.926 62.522 121.726 62.522C123.025 62.522 124.118 62.4604 125.005 62.3372C125.905 62.2141 126.517 61.9814 126.842 61.6393C127.167 61.2972 127.329 60.7361 127.329 59.956C127.329 58.9707 127.117 58.348 126.692 58.088C126.28 57.8143 125.574 57.6774 124.574 57.6774L121.707 57.6364L118.352 57.5337C117.178 57.5337 116.272 57.2874 115.634 56.7947C114.997 56.3021 114.679 55.4673 114.679 54.2903C114.679 53.3597 114.816 52.5865 115.091 51.9707C115.366 51.3412 115.828 50.8964 116.478 50.6364C117.14 50.3627 117.915 50.1916 118.802 50.1232C119.689 50.0411 120.682 50 121.782 50C122.694 50 123.35 50.0137 123.75 50.0411C124.162 50.0547 124.824 50.1163 125.736 50.2258C126.661 50.3216 127.367 50.6637 127.854 51.2522C128.341 51.8407 128.585 52.737 128.585 53.9413H127.067C127.067 53.3255 126.998 52.8671 126.861 52.566C126.736 52.2649 126.548 52.0528 126.298 51.9296Z" fill="#F9F9F9"/>
<path d="M143.865 56.0557V57.4311H133.388V62.4604H144.389V63.8358H131.87V50.1437H144.258V51.5396H133.388V56.0557H143.865Z" fill="#F9F9F9"/>
<path d="M161.803 54.2082C161.803 55.4399 161.634 56.2884 161.297 56.7537C160.972 57.2053 160.253 57.52 159.141 57.6979C159.978 57.8211 160.591 58.0469 160.978 58.3754C161.378 58.6901 161.578 59.2718 161.578 60.1202V63.8358H160.078V60.7977C160.078 59.7849 159.879 59.1144 159.479 58.7859C159.091 58.4575 158.41 58.2933 157.436 58.2933H148.908V63.8358H147.39V50.1437H157.567C159.079 50.1437 160.16 50.4242 160.809 50.9853C161.472 51.5327 161.803 52.607 161.803 54.2082ZM160.228 54.1056C160.228 53.0381 159.997 52.347 159.535 52.0323C159.073 51.7038 158.31 51.5396 157.248 51.5396H148.908V56.9179H157.286C158.385 56.9179 159.148 56.7331 159.572 56.3636C160.01 55.9804 160.228 55.2278 160.228 54.1056Z" fill="#F9F9F9"/>
<path d="M178.534 50.1437L171.599 63.8358H169.519L162.678 50.1437H164.44L170.568 62.3578L176.791 50.1437H178.534Z" fill="#F9F9F9"/>
<path d="M181.413 63.8358H179.895V50.1437H181.413V63.8358Z" fill="#F9F9F9"/>
<path d="M195.312 63.9179L192.089 63.9795L190.702 64L187.928 63.8563C185.704 63.61 184.592 62.303 184.592 59.9355L184.517 57.3284C184.517 56.2884 184.523 55.5152 184.536 55.0088C184.561 54.5024 184.655 53.7977 184.817 52.8944C184.979 51.9912 185.373 51.3069 185.998 50.8416C186.622 50.3763 187.491 50.1437 188.603 50.1437C189.103 50.089 189.571 50.0547 190.008 50.0411C190.458 50.0274 190.983 50.0205 191.583 50.0205H192.033L193.832 50C194.556 50 195.144 50.0205 195.593 50.0616C196.043 50.089 196.63 50.1848 197.355 50.349C198.092 50.5132 198.605 50.9511 198.892 51.6628C199.179 52.3744 199.323 53.3255 199.323 54.5161H197.824V54.393C197.824 53.7771 197.786 53.2708 197.711 52.8739C197.649 52.477 197.486 52.1896 197.224 52.0117C196.974 51.8338 196.506 51.697 195.818 51.6012C195.131 51.5054 194.182 51.4575 192.97 51.4575C192.52 51.4575 191.839 51.478 190.927 51.5191C190.015 51.5601 189.327 51.5806 188.865 51.5806C187.791 51.6764 187.103 51.8886 186.804 52.217C186.504 52.5318 186.316 53.086 186.241 53.8798C186.166 54.6735 186.123 55.3988 186.11 56.0557C186.098 56.6989 186.091 57.3148 186.091 57.9032C186.091 59.6413 186.248 60.8387 186.56 61.4956C186.885 62.1525 187.734 62.4809 189.109 62.4809L192.033 62.522L194.825 62.4809C195.975 62.4809 196.774 62.3304 197.224 62.0293C197.674 61.7283 197.899 61.0029 197.899 59.8534V59.2991H199.473C199.473 61.0919 199.223 62.3099 198.723 62.9531C198.224 63.5963 197.087 63.9179 195.312 63.9179Z" fill="#F9F9F9"/>
<path d="M214.475 56.0557V57.4311H203.999V62.4604H215V63.8358H202.481V50.1437H214.869V51.5396H203.999V56.0557H214.475Z" fill="#F9F9F9"/>
</svg>
