<svg width="655" height="112" viewBox="0 0 655 112" fill="none" xmlns="http://www.w3.org/2000/svg">
<path d="M16.2489 0.143904L36.4743 0C45.9813 0 52.0604 1.34312 54.7114 4.02937C57.4081 6.66765 58.7565 12.8556 58.7565 22.5932V25.8311C58.7565 29.2849 58.5508 32.9305 58.1394 36.768C57.7738 40.5575 56.4711 43.4836 54.2315 45.5463C52.0375 47.6089 48.7238 48.6402 44.2902 48.6402C42.919 48.7841 41.1592 48.8801 39.011 48.928C36.9085 48.976 34.8974 49 32.9777 49H21.528C18.7399 49 16.0432 48.8561 13.4379 48.5683C10.8783 48.2805 8.7072 47.7528 6.92463 46.9853C5.18776 46.2178 3.74798 44.8987 2.6053 43.0279C1.50833 41.1092 0.799874 38.6388 0.479924 35.6167C0.159975 32.5947 0 29.021 0 24.8957C0 21.0103 0.045707 18.2281 0.137121 16.5492C0.228535 14.8223 0.594192 12.3759 1.23409 9.20999C1.9197 6.04405 3.5423 3.74156 6.1019 2.3025C8.66149 0.863435 12.0438 0.143904 16.2489 0.143904ZM17.4144 43.6755L29.2068 43.8913H34.8974C38.1426 43.8913 41.4106 43.7234 44.7015 43.3877C47.9925 43.0519 50.1635 41.9246 51.2148 40.0059C52.3118 38.0392 52.8603 35.1131 52.8603 31.2276L52.9974 21.37C52.9974 18.348 52.8831 15.7337 52.6546 13.5272C52.426 11.2726 51.9233 9.56975 51.1462 8.4185C50.3692 7.21929 49.3408 6.45179 48.061 6.116C46.8269 5.73226 45.5471 5.49241 44.2216 5.39647C42.9418 5.25257 41.5706 5.18061 40.108 5.18061L29.344 5.10866L18.7171 5.32452C13.5064 5.32452 10.0784 6.04405 8.43296 7.48311C6.7875 8.8742 5.96478 12.208 5.96478 17.4846L5.75909 24.6799V28.2056C5.75909 34.2496 6.37614 38.351 7.61023 40.5095C8.84432 42.6202 12.1124 43.6755 17.4144 43.6755Z" fill="white"/>
<path d="M111.818 48.4963H70.1327V0.503669H75.6861V43.6755H111.818V48.4963Z" fill="white"/>
<path d="M170.074 0.503669L143.678 28.0617V48.4963H138.125V28.0617L111.797 0.503669H119.682L140.867 23.025L162.189 0.503669H170.074Z" fill="white"/>
<path d="M209.192 48.4963L180.671 5.39647V48.4963H175.118V0.503669H184.168L211.455 41.6608L238.879 0.503669H247.792V48.4963H242.239V5.39647L213.649 48.4963H209.192Z" fill="white"/>
<path d="M312.038 14.1747C312.038 16.909 311.855 19.3314 311.49 21.442C311.124 23.5526 310.393 25.1836 309.296 26.3348C308.245 27.4861 306.919 28.3495 305.319 28.9251C303.72 29.4528 301.32 29.7166 298.12 29.7166H266.103V48.4963H260.549V0.503669H298.463C303.445 0.503669 306.942 1.48703 308.953 3.45374C311.01 5.37249 312.038 8.94616 312.038 14.1747ZM306.279 14.4626C306.279 11.1047 305.685 8.75428 304.497 7.41116C303.308 6.06804 301.114 5.39647 297.915 5.39647H266.103V24.8957H294.761C299.332 24.8957 302.394 24.2961 303.948 23.0969C305.502 21.8977 306.279 19.0196 306.279 14.4626Z" fill="white"/>
<path d="M327.164 48.4963H321.611V0.503669H327.164V48.4963Z" fill="white"/>
<path d="M338.655 48.4963H332.142L359.155 0.503669H366.559L393.778 48.4963H387.402L381.437 37.7034H344.483L338.655 48.4963ZM347.088 32.8825H378.832L362.857 4.7489L347.088 32.8825Z" fill="white"/>
<path d="M467.438 14.1747C467.438 16.909 467.255 19.3314 466.889 21.442C466.524 23.5526 465.792 25.1836 464.695 26.3348C463.644 27.4861 462.319 28.3495 460.719 28.9251C459.119 29.4528 456.72 29.7166 453.52 29.7166H421.502V48.4963H415.949V0.503669H453.863C458.845 0.503669 462.342 1.48703 464.353 3.45374C466.409 5.37249 467.438 8.94616 467.438 14.1747ZM461.679 14.4626C461.679 11.1047 461.085 8.75428 459.896 7.41116C458.708 6.06804 456.514 5.39647 453.314 5.39647H421.502V24.8957H450.161C454.731 24.8957 457.794 24.2961 459.348 23.0969C460.902 21.8977 461.679 19.0196 461.679 14.4626Z" fill="white"/>
<path d="M475.777 48.4963H469.263L496.276 0.503669H503.681L530.899 48.4963H524.523L518.558 37.7034H481.604L475.777 48.4963ZM484.21 32.8825H515.953L499.979 4.7489L484.21 32.8825Z" fill="white"/>
<path d="M588.653 14.7504C588.653 19.0675 588.036 22.0416 586.802 23.6725C585.614 25.2555 582.985 26.3588 578.918 26.9824C581.98 27.4141 584.22 28.2056 585.636 29.3568C587.099 30.4601 587.83 32.4988 587.83 35.4728V48.4963H582.346V37.8473C582.346 34.2976 581.614 31.9471 580.152 30.7959C578.735 29.6446 576.244 29.069 572.678 29.069H541.483V48.4963H535.93V0.503669H573.158C578.689 0.503669 582.643 1.48703 585.019 3.45374C587.442 5.37249 588.653 9.13803 588.653 14.7504ZM582.894 14.3906C582.894 10.649 582.048 8.22663 580.357 7.12335C578.666 5.9721 575.878 5.39647 571.993 5.39647H541.483V24.2482H572.13C576.152 24.2482 578.94 23.6006 580.494 22.3054C582.094 20.9623 582.894 18.324 582.894 14.3906Z" fill="white"/>
<path d="M643.276 0.503669H652.738L619.143 23.6725L655 48.4963H644.99L613.247 26.047H605.156V48.4963H599.603V0.503669H605.156V21.2261H613.247L643.276 0.503669Z" fill="white"/>
<path d="M146.175 87.4194C146.175 89.9355 145.794 91.6452 145.033 92.5484C144.272 93.4516 142.671 94.1129 140.229 94.5323C142.925 94.5323 144.764 95.1129 145.747 96.2742C146.762 97.4032 147.269 99.3871 147.269 102.226C147.269 105.742 146.46 108.194 144.843 109.581C143.226 110.935 140.578 111.613 136.899 111.613H110.5V79.3387H137.328C140.213 79.3387 142.401 79.9677 143.892 81.2258C145.414 82.4839 146.175 84.5484 146.175 87.4194ZM142.179 87.7581C142.179 85.7258 141.735 84.371 140.847 83.6935C139.96 82.9839 138.469 82.629 136.376 82.629H114.353V93.1774H135.805C138.057 93.1774 139.674 92.8065 140.657 92.0645C141.672 91.3226 142.179 89.8871 142.179 87.7581ZM143.273 102.806C143.273 101.387 143.162 100.242 142.94 99.371C142.718 98.4677 142.243 97.8065 141.513 97.3871C140.784 96.9677 140.007 96.7097 139.183 96.6129C138.39 96.4839 137.518 96.4194 136.566 96.4194H114.353V108.371H136.138C138.58 108.371 140.372 108 141.513 107.258C142.687 106.484 143.273 105 143.273 102.806Z" fill="#CCCCCC"/>
<path d="M178.364 111.613L158.576 82.629V111.613H154.723V79.3387H161.002L179.933 107.016L198.96 79.3387H205.144V111.613H201.291V82.629L181.456 111.613H178.364Z" fill="#CCCCCC"/>
<path d="M274.737 79.3387L259.611 111.613H254.283L241.868 83.1129L229.311 111.613H224.079L208.952 79.3387H213.281L226.647 108.032L239.205 79.3387H244.485L256.995 108.032L270.456 79.3387H274.737Z" fill="#CCCCCC"/>
<path d="M319.374 83.5484C318.709 83.2258 317.504 82.9677 315.759 82.7742C314.015 82.5484 311.764 82.4355 309.005 82.4355H307.673C305.58 82.4355 303.408 82.5323 301.156 82.7258C298.937 82.9194 297.319 83.2419 296.305 83.6935C295.29 84.1452 294.64 84.7581 294.354 85.5323C294.069 86.3065 293.926 87.2419 293.926 88.3387C293.926 90.3065 294.45 91.6452 295.496 92.3548C296.574 93.0645 298.128 93.4194 300.158 93.4194L303.63 93.5161L311.098 93.4677C312.398 93.4677 313.556 93.4839 314.57 93.5161C315.585 93.5484 317.107 93.6774 319.137 93.9032C321.198 94.129 322.847 94.871 324.084 96.129C325.352 97.3548 325.986 99.4677 325.986 102.468C325.986 104.435 325.685 106.081 325.082 107.403C324.48 108.694 323.449 109.677 321.991 110.355C320.564 111 318.82 111.419 316.758 111.613C314.729 111.806 312.509 111.903 310.099 111.903H307.578C305.2 111.903 303.408 111.871 302.203 111.806C301.03 111.774 299.206 111.597 296.733 111.274C294.291 110.952 292.547 110.113 291.5 108.758C290.454 107.371 289.931 104.968 289.931 101.548H293.784V102.226C293.784 103.871 293.926 105.097 294.212 105.903C294.529 106.677 295.306 107.258 296.543 107.645C297.811 108 299.492 108.242 301.585 108.371C303.678 108.468 305.739 108.516 307.768 108.516C311.066 108.516 313.841 108.371 316.092 108.081C318.376 107.79 319.929 107.242 320.754 106.435C321.578 105.629 321.991 104.306 321.991 102.468C321.991 100.145 321.452 98.6774 320.373 98.0645C319.327 97.4194 317.535 97.0968 314.998 97.0968L307.721 97L299.206 96.7581C296.225 96.7581 293.926 96.1774 292.309 95.0161C290.692 93.8548 289.883 91.8871 289.883 89.1129C289.883 86.9194 290.232 85.0968 290.93 83.6452C291.627 82.1613 292.801 81.1129 294.45 80.5C296.13 79.8548 298.096 79.4516 300.348 79.2903C302.599 79.0968 305.12 79 307.911 79C310.226 79 311.891 79.0323 312.905 79.0968C313.952 79.129 315.633 79.2742 317.947 79.5323C320.294 79.7581 322.086 80.5645 323.323 81.9516C324.559 83.3387 325.178 85.4516 325.178 88.2903H321.325C321.325 86.8387 321.15 85.7581 320.801 85.0484C320.484 84.3387 320.009 83.8387 319.374 83.5484Z" fill="#CCCCCC"/>
<path d="M363.957 93.2742V96.5161H337.368V108.371H365.289V111.613H333.515V79.3387H364.956V82.629H337.368V93.2742H363.957Z" fill="#CCCCCC"/>
<path d="M409.485 88.9194C409.485 91.8226 409.056 93.8226 408.2 94.9194C407.376 95.9839 405.552 96.7258 402.73 97.1452C404.855 97.4355 406.409 97.9677 407.392 98.7419C408.406 99.4839 408.914 100.855 408.914 102.855V111.613H405.108V104.452C405.108 102.065 404.601 100.484 403.586 99.7097C402.603 98.9355 400.875 98.5484 398.402 98.5484H376.759V111.613H372.906V79.3387H398.734C402.572 79.3387 405.315 80 406.964 81.3226C408.644 82.6129 409.485 85.1452 409.485 88.9194ZM405.489 88.6774C405.489 86.1613 404.902 84.5323 403.729 83.7903C402.556 83.0161 400.621 82.629 397.926 82.629H376.759V95.3065H398.021C400.812 95.3065 402.746 94.871 403.824 94C404.934 93.0968 405.489 91.3226 405.489 88.6774Z" fill="#CCCCCC"/>
<path d="M451.948 79.3387L434.348 111.613H429.068L411.706 79.3387H416.178L431.732 108.129L447.524 79.3387H451.948Z" fill="#CCCCCC"/>
<path d="M459.257 111.613H455.404V79.3387H459.257V111.613Z" fill="#CCCCCC"/>
<path d="M494.532 111.806L486.351 111.952L482.831 112L475.791 111.661C470.147 111.081 467.324 108 467.324 102.419L467.134 96.2742C467.134 93.8226 467.15 92 467.182 90.8065C467.245 89.6129 467.483 87.9516 467.895 85.8226C468.307 83.6935 469.306 82.0806 470.892 80.9839C472.477 79.8871 474.681 79.3387 477.504 79.3387C478.772 79.2097 479.961 79.129 481.071 79.0968C482.213 79.0645 483.545 79.0484 485.067 79.0484H486.208L490.775 79C492.614 79 494.104 79.0484 495.246 79.1452C496.388 79.2097 497.878 79.4355 499.717 79.8226C501.588 80.2097 502.888 81.2419 503.618 82.9194C504.347 84.5968 504.712 86.8387 504.712 89.6452H500.906V89.3548C500.906 87.9032 500.811 86.7097 500.621 85.7742C500.462 84.8387 500.05 84.1613 499.384 83.7419C498.75 83.3226 497.561 83 495.817 82.7742C494.073 82.5484 491.663 82.4355 488.587 82.4355C487.445 82.4355 485.717 82.4839 483.402 82.5806C481.087 82.6774 479.343 82.7258 478.17 82.7258C475.442 82.9516 473.698 83.4516 472.937 84.2258C472.176 84.9677 471.7 86.2742 471.51 88.1452C471.32 90.0161 471.209 91.7258 471.177 93.2742C471.146 94.7903 471.13 96.2419 471.13 97.629C471.13 101.726 471.526 104.548 472.319 106.097C473.143 107.645 475.3 108.419 478.788 108.419L486.208 108.516L493.296 108.419C496.213 108.419 498.243 108.065 499.384 107.355C500.526 106.645 501.097 104.935 501.097 102.226V100.919H505.092C505.092 105.145 504.458 108.016 503.19 109.532C501.921 111.048 499.035 111.806 494.532 111.806Z" fill="#CCCCCC"/>
<path d="M543.168 93.2742V96.5161H516.578V108.371H544.5V111.613H512.726V79.3387H544.167V82.629H516.578V93.2742H543.168Z" fill="#CCCCCC"/>
</svg>
