<svg width="395" height="69" viewBox="0 0 395 69" fill="none" xmlns="http://www.w3.org/2000/svg">
<path d="M10.2741 0.0851678L22.4402 0C28.159 0 31.8157 0.794909 33.4104 2.38473C35.0325 3.94616 35.8436 7.60842 35.8436 13.3715V15.2878C35.8436 17.3319 35.7199 19.4895 35.4724 21.7606C35.2525 24.0034 34.4689 25.7352 33.1217 26.9559C31.802 28.1767 29.8086 28.7871 27.1417 28.7871C26.3169 28.8722 25.2584 28.929 23.9662 28.9574C22.7014 28.9858 21.4917 29 20.337 29H13.4497C11.7726 29 10.1504 28.9148 8.58325 28.7445C7.04358 28.5742 5.73761 28.2619 4.66535 27.8076C3.62057 27.3534 2.75451 26.5727 2.06716 25.4655C1.4073 24.3299 0.981146 22.8678 0.788687 21.0793C0.596229 19.2907 0.5 17.1757 0.5 14.7342C0.5 12.4347 0.527494 10.7881 0.582482 9.79442C0.63747 8.77239 0.857423 7.32452 1.24234 5.45081C1.65475 3.57709 2.63079 2.21439 4.17045 1.3627C5.71012 0.511013 7.74468 0.0851678 10.2741 0.0851678ZM10.9752 25.8488L18.0687 25.9765H21.4917C23.4438 25.9765 25.4096 25.8771 27.3892 25.6784C29.3687 25.4797 30.6747 24.8125 31.3071 23.6769C31.9669 22.513 32.2969 20.7812 32.2969 18.4816L32.3793 12.6476C32.3793 10.859 32.3106 9.3118 32.1731 8.00587C32.0357 6.67156 31.7332 5.66373 31.2658 4.98238C30.7984 4.27264 30.1798 3.8184 29.41 3.61968C28.6676 3.39256 27.8978 3.25061 27.1005 3.19383C26.3307 3.10866 25.5058 3.06608 24.626 3.06608L18.1512 3.02349L11.7588 3.15125C8.62449 3.15125 6.56244 3.57709 5.57265 4.42878C4.58287 5.25208 4.08797 7.22516 4.08797 10.348L3.96425 14.6065V16.6931C3.96425 20.2702 4.33542 22.6975 5.07776 23.975C5.8201 25.2242 7.78592 25.8488 10.9752 25.8488Z" fill="#262626"/>
<path d="M67.7613 28.7019H42.6867V0.29809H46.0272V25.8488H67.7613V28.7019Z" fill="#262626"/>
<path d="M102.804 0.29809L86.9261 16.6079V28.7019H83.5856V16.6079L67.749 0.29809H72.4917L85.2352 13.627L98.0612 0.29809H102.804Z" fill="#262626"/>
<path d="M126.335 28.7019L109.179 3.19383V28.7019H105.838V0.29809H111.282L127.696 24.6564L144.192 0.29809H149.554V28.7019H146.213V3.19383L129.016 28.7019H126.335Z" fill="#262626"/>
<path d="M188.199 8.38913C188.199 10.0073 188.089 11.441 187.869 12.6902C187.649 13.9393 187.21 14.9046 186.55 15.5859C185.917 16.2673 185.12 16.7783 184.158 17.1189C183.195 17.4312 181.752 17.5874 179.827 17.5874H160.568V28.7019H157.227V0.29809H180.034C183.03 0.29809 185.134 0.880077 186.343 2.04405C187.581 3.17964 188.199 5.29466 188.199 8.38913ZM184.735 8.55947C184.735 6.5722 184.378 5.18111 183.663 4.3862C182.948 3.59129 181.628 3.19383 179.704 3.19383H160.568V14.7342H177.807C180.556 14.7342 182.398 14.3793 183.333 13.6696C184.268 12.9599 184.735 11.2565 184.735 8.55947Z" fill="#262626"/>
<path d="M197.298 28.7019H193.958V0.29809H197.298V28.7019Z" fill="#262626"/>
<path d="M204.21 28.7019H200.292L216.541 0.29809H220.995L237.368 28.7019H233.533L229.945 22.3142H207.716L204.21 28.7019ZM209.283 19.4611H228.377L218.768 2.81057L209.283 19.4611Z" fill="#262626"/>
<path d="M281.676 8.38913C281.676 10.0073 281.566 11.441 281.346 12.6902C281.126 13.9393 280.687 14.9046 280.027 15.5859C279.394 16.2673 278.597 16.7783 277.635 17.1189C276.672 17.4312 275.229 17.5874 273.304 17.5874H254.045V28.7019H250.704V0.29809H273.511C276.508 0.29809 278.611 0.880077 279.821 2.04405C281.058 3.17964 281.676 5.29466 281.676 8.38913ZM278.212 8.55947C278.212 6.5722 277.855 5.18111 277.14 4.3862C276.425 3.59129 275.105 3.19383 273.181 3.19383H254.045V14.7342H271.284C274.033 14.7342 275.875 14.3793 276.81 13.6696C277.745 12.9599 278.212 11.2565 278.212 8.55947Z" fill="#262626"/>
<path d="M286.692 28.7019H282.774L299.023 0.29809H303.477L319.85 28.7019H316.015L312.427 22.3142H290.198L286.692 28.7019ZM291.765 19.4611H310.86L301.25 2.81057L291.765 19.4611Z" fill="#262626"/>
<path d="M354.591 8.72981C354.591 11.2849 354.219 13.045 353.477 14.0103C352.762 14.9471 351.181 15.6001 348.734 15.9692C350.576 16.2247 351.924 16.6931 352.776 17.3745C353.656 18.0274 354.096 19.234 354.096 20.9941V28.7019H350.796V22.3994C350.796 20.2986 350.357 18.9075 349.477 18.2261C348.624 17.5448 347.126 17.2041 344.981 17.2041H326.217V28.7019H322.876V0.29809H345.27C348.597 0.29809 350.975 0.880077 352.405 2.04405C353.862 3.17964 354.591 5.40822 354.591 8.72981ZM351.126 8.51689C351.126 6.3025 350.618 4.86882 349.6 4.21586C348.583 3.53451 346.906 3.19383 344.569 3.19383H326.217V14.351H344.651C347.071 14.351 348.748 13.9677 349.683 13.2012C350.645 12.4063 351.126 10.8448 351.126 8.51689Z" fill="#262626"/>
<path d="M387.448 0.29809H393.139L372.931 14.0103L394.5 28.7019H388.479L369.384 15.4156H364.518V28.7019H361.177V0.29809H364.518V12.5624H369.384L387.448 0.29809Z" fill="#262626"/>
<path d="M21.8721 54.1026C21.8721 55.6276 21.6441 56.6637 21.1882 57.2111C20.7322 57.7586 19.7729 58.1593 18.3101 58.4135C19.9248 58.4135 21.0267 58.7654 21.6156 59.4692C22.2235 60.1535 22.5275 61.3558 22.5275 63.0762C22.5275 65.2072 22.0431 66.6931 21.0742 67.5337C20.1053 68.3548 18.519 68.7654 16.3153 68.7654H0.5V49.2053H16.5718C18.3006 49.2053 19.6114 49.5865 20.5043 50.349C21.4161 51.1114 21.8721 52.3627 21.8721 54.1026ZM19.4784 54.3079C19.4784 53.0762 19.2124 52.2551 18.6805 51.8446C18.1486 51.4145 17.2557 51.1994 16.0019 51.1994H2.80818V57.5924H15.6599C17.0087 57.5924 17.9776 57.3675 18.5665 56.9179C19.1744 56.4682 19.4784 55.5982 19.4784 54.3079ZM20.1338 63.4282C20.1338 62.5679 20.0673 61.8739 19.9343 61.346C19.8014 60.7986 19.5164 60.3979 19.0795 60.1437C18.6425 59.8895 18.1771 59.7331 17.6832 59.6745C17.2082 59.5963 16.6858 59.5572 16.1159 59.5572H2.80818V66.8006H15.8594C17.3222 66.8006 18.3956 66.5758 19.0795 66.1261C19.7824 65.6569 20.1338 64.7576 20.1338 63.4282Z" fill="#262626"/>
<path d="M41.1557 68.7654L29.3013 51.1994V68.7654H26.9931V49.2053H30.7546L42.0961 65.9795L53.4945 49.2053H57.199V68.7654H54.8908V51.1994L43.0079 68.7654H41.1557Z" fill="#262626"/>
<path d="M98.8908 49.2053L89.829 68.7654H86.6375L79.2 51.4927L71.677 68.7654H68.5425L59.4807 49.2053H62.0738L70.0813 66.5953L77.6042 49.2053H80.7673L88.2618 66.5953L96.3262 49.2053H98.8908Z" fill="#262626"/>
<path d="M125.632 51.7566C125.233 51.5611 124.511 51.4047 123.466 51.2874C122.422 51.1505 121.073 51.0821 119.42 51.0821H118.622C117.368 51.0821 116.067 51.1408 114.718 51.2581C113.388 51.3754 112.419 51.5709 111.812 51.8446C111.204 52.1183 110.814 52.4897 110.643 52.9589C110.472 53.4282 110.387 53.9951 110.387 54.6598C110.387 55.8524 110.7 56.6637 111.327 57.0938C111.973 57.5239 112.904 57.739 114.12 57.739L116.2 57.7977L120.674 57.7683C121.453 57.7683 122.146 57.7781 122.754 57.7977C123.362 57.8172 124.274 57.8954 125.49 58.0323C126.725 58.1691 127.712 58.6188 128.453 59.3812C129.213 60.1241 129.593 61.4047 129.593 63.2229C129.593 64.4154 129.413 65.4125 129.052 66.2141C128.691 66.9961 128.073 67.5924 127.199 68.0029C126.345 68.3939 125.3 68.6481 124.065 68.7654C122.849 68.8827 121.519 68.9413 120.075 68.9413H118.565C117.14 68.9413 116.067 68.9218 115.345 68.8827C114.642 68.8631 113.55 68.7556 112.068 68.5601C110.605 68.3646 109.56 67.8563 108.933 67.0352C108.307 66.1945 107.993 64.738 107.993 62.6657H110.301V63.0762C110.301 64.0733 110.387 64.8162 110.558 65.305C110.748 65.7742 111.213 66.1261 111.954 66.3607C112.714 66.5758 113.721 66.7224 114.975 66.8006C116.228 66.8592 117.463 66.8886 118.679 66.8886C120.655 66.8886 122.317 66.8006 123.666 66.6246C125.034 66.4487 125.965 66.1163 126.459 65.6276C126.952 65.1388 127.199 64.3372 127.199 63.2229C127.199 61.8153 126.877 60.9257 126.231 60.5543C125.604 60.1632 124.53 59.9677 123.011 59.9677L118.651 59.9091L113.55 59.7625C111.764 59.7625 110.387 59.4106 109.418 58.7067C108.449 58.0029 107.965 56.8104 107.965 55.129C107.965 53.7996 108.174 52.695 108.592 51.8152C109.009 50.9159 109.712 50.2805 110.7 49.9091C111.707 49.5181 112.885 49.2737 114.234 49.176C115.583 49.0587 117.093 49 118.765 49C120.151 49 121.149 49.0196 121.757 49.0587C122.384 49.0782 123.39 49.1662 124.777 49.3226C126.183 49.4594 127.256 49.9482 127.997 50.7889C128.738 51.6295 129.109 52.9101 129.109 54.6305H126.801C126.801 53.7507 126.696 53.0958 126.487 52.6657C126.297 52.2356 126.012 51.9326 125.632 51.7566Z" fill="#262626"/>
<path d="M152.341 57.651V59.6158H136.411V66.8006H153.139V68.7654H134.103V49.2053H152.939V51.1994H136.411V57.651H152.341Z" fill="#262626"/>
<path d="M179.615 55.0117C179.615 56.7713 179.359 57.9834 178.846 58.6481C178.352 59.2933 177.259 59.7429 175.569 59.9971C176.842 60.173 177.772 60.4956 178.361 60.9648C178.969 61.4145 179.273 62.2454 179.273 63.4575V68.7654H176.994V64.4252C176.994 62.9785 176.69 62.0205 176.082 61.5513C175.493 61.0821 174.457 60.8475 172.976 60.8475H160.01V68.7654H157.702V49.2053H173.175C175.474 49.2053 177.117 49.6061 178.105 50.4076C179.112 51.1896 179.615 52.7243 179.615 55.0117ZM177.221 54.8651C177.221 53.3402 176.87 52.3529 176.167 51.9032C175.464 51.434 174.305 51.1994 172.691 51.1994H160.01V58.8827H172.748C174.419 58.8827 175.578 58.6188 176.224 58.0909C176.889 57.5435 177.221 56.4682 177.221 54.8651Z" fill="#262626"/>
<path d="M205.054 49.2053L194.51 68.7654H191.347L180.946 49.2053H183.625L192.943 66.654L202.404 49.2053H205.054Z" fill="#262626"/>
<path d="M209.433 68.7654H207.125V49.2053H209.433V68.7654Z" fill="#262626"/>
<path d="M230.566 68.8827L225.664 68.9707L223.555 69L219.338 68.7947C215.957 68.4428 214.266 66.5758 214.266 63.1935L214.152 59.4692C214.152 57.9834 214.161 56.8788 214.18 56.1554C214.218 55.4321 214.361 54.4252 214.608 53.1349C214.855 51.8446 215.453 50.8671 216.403 50.2023C217.353 49.5376 218.673 49.2053 220.364 49.2053C221.124 49.1271 221.836 49.0782 222.501 49.0587C223.185 49.0391 223.983 49.0293 224.895 49.0293H225.579L228.314 49C229.416 49 230.309 49.0293 230.993 49.088C231.677 49.1271 232.57 49.2639 233.672 49.4985C234.792 49.7331 235.571 50.3587 236.008 51.3754C236.445 52.392 236.664 53.7507 236.664 55.4516H234.384V55.2757C234.384 54.3959 234.327 53.6725 234.213 53.1056C234.118 52.5386 233.871 52.1281 233.472 51.8739C233.092 51.6197 232.38 51.4242 231.335 51.2874C230.29 51.1505 228.846 51.0821 227.003 51.0821C226.32 51.0821 225.284 51.1114 223.897 51.1701C222.511 51.2287 221.466 51.2581 220.763 51.2581C219.129 51.3949 218.084 51.6979 217.628 52.1672C217.172 52.6168 216.887 53.4086 216.773 54.5425C216.659 55.6764 216.593 56.7126 216.574 57.651C216.555 58.5699 216.545 59.4497 216.545 60.2903C216.545 62.7732 216.783 64.4839 217.258 65.4223C217.752 66.3607 219.044 66.8299 221.133 66.8299L225.579 66.8886L229.825 66.8299C231.572 66.8299 232.788 66.6149 233.472 66.1848C234.156 65.7546 234.498 64.7185 234.498 63.0762V62.2845H236.892C236.892 64.8456 236.512 66.5855 235.752 67.5044C234.992 68.4233 233.263 68.8827 230.566 68.8827Z" fill="#262626"/>
<path d="M259.702 57.651V59.6158H243.773V66.8006H260.5V68.7654H241.465V49.2053H260.301V51.1994H243.773V57.651H259.702Z" fill="#262626"/>
</svg>
