<svg width="326" height="358" viewBox="0 0 326 358" fill="none" xmlns="http://www.w3.org/2000/svg">
<path d="M109.41 137.171H53.4246L43.6475 168.683H0L62.1541 0H100.564L163.184 168.683H119.303L109.41 137.171ZM63.2016 105.774H99.6328L81.359 47.2683L63.2016 105.774Z" fill="#003399"/>
<path d="M244.775 168.683C243.379 166.134 242.137 162.388 241.051 157.445C233.834 166.482 223.747 171 210.789 171C198.916 171 188.829 167.447 180.526 160.341C172.223 153.159 168.072 144.161 168.072 133.348C168.072 119.754 173.116 109.482 183.203 102.53C193.291 95.5793 207.956 92.1037 227.2 92.1037H239.305V85.5C239.305 73.9919 234.3 68.2378 224.29 68.2378C214.979 68.2378 210.323 72.7947 210.323 81.9085H171.098C171.098 69.7825 176.258 59.935 186.579 52.3659C196.977 44.7967 210.207 41.0122 226.269 41.0122C242.331 41.0122 255.018 44.9126 264.33 52.7134C273.641 60.5142 278.413 71.2114 278.646 84.8049V140.299C278.801 151.807 280.586 160.612 284 166.713V168.683H244.775ZM220.216 143.195C225.105 143.195 229.14 142.152 232.321 140.067C235.58 137.982 237.908 135.626 239.305 133V112.957H227.898C214.242 112.957 207.413 119.059 207.413 131.262C207.413 134.815 208.616 137.711 211.021 139.951C213.427 142.114 216.492 143.195 220.216 143.195Z" fill="#003399"/>
<path d="M15.156 238.432C11.244 238.432 8.052 237.208 5.58 234.76C3.132 232.312 1.908 229.192 1.908 225.4C1.908 221.776 3.168 218.704 5.688 216.184C8.208 213.64 11.352 212.368 15.12 212.368C17.304 212.368 19.152 212.656 20.664 213.232C22.176 213.784 23.628 214.648 25.02 215.824L21.528 220.036C20.472 219.148 19.452 218.5 18.468 218.092C17.484 217.684 16.308 217.48 14.94 217.48C12.924 217.48 11.208 218.26 9.792 219.82C8.4 221.356 7.704 223.216 7.704 225.4C7.704 227.704 8.412 229.612 9.828 231.124C11.268 232.636 13.104 233.392 15.336 233.392C17.4 233.392 19.14 232.888 20.556 231.88V228.28H14.976V223.492H25.92V234.436C22.776 237.1 19.188 238.432 15.156 238.432ZM53.0705 234.652C50.5265 237.172 47.3345 238.432 43.4945 238.432C39.6545 238.432 36.4625 237.172 33.9185 234.652C31.3985 232.132 30.1385 229.048 30.1385 225.4C30.1385 221.776 31.4105 218.704 33.9545 216.184C36.5225 213.64 39.7265 212.368 43.5665 212.368C47.4065 212.368 50.5865 213.628 53.1065 216.148C55.6505 218.668 56.9225 221.752 56.9225 225.4C56.9225 229.024 55.6385 232.108 53.0705 234.652ZM38.0945 231.016C39.5345 232.552 41.3585 233.32 43.5665 233.32C45.7745 233.32 47.5865 232.564 49.0025 231.052C50.4185 229.516 51.1265 227.632 51.1265 225.4C51.1265 223.192 50.4065 221.32 48.9665 219.784C47.5265 218.248 45.7025 217.48 43.4945 217.48C41.2865 217.48 39.4745 218.248 38.0585 219.784C36.6425 221.296 35.9345 223.168 35.9345 225.4C35.9345 227.608 36.6545 229.48 38.0945 231.016ZM66.6186 238V217.912H58.9506V212.8H79.8306V217.912H72.1626V238H66.6186ZM84.0943 238V212.8H89.6383V222.772H99.8623V212.8H105.406V238H99.8623V227.884H89.6383V238H84.0943ZM109.286 238L120.086 212.62H125.198L135.998 238H130.202L127.898 232.348H117.242L114.938 238H109.286ZM119.222 227.452H125.918L122.57 219.28L119.222 227.452ZM139.887 238V212.8H145.863L152.487 223.456L159.111 212.8H165.087V238H159.579V221.548L152.487 232.312H152.343L145.323 221.656V238H139.887ZM181.934 238V212.8H192.23C195.206 212.8 197.558 213.604 199.286 215.212C201.014 216.82 201.878 218.944 201.878 221.584C201.878 224.392 200.918 226.576 198.998 228.136C197.078 229.672 194.642 230.44 191.69 230.44H187.478V238H181.934ZM187.478 225.508H191.87C193.238 225.508 194.306 225.148 195.074 224.428C195.866 223.708 196.262 222.772 196.262 221.62C196.262 220.396 195.866 219.46 195.074 218.812C194.282 218.14 193.178 217.804 191.762 217.804H187.478V225.508ZM205.981 238V212.8H217.501C220.693 212.8 223.141 213.652 224.845 215.356C226.285 216.796 227.005 218.74 227.005 221.188C227.005 225.052 225.205 227.656 221.605 229L227.761 238H221.281L215.809 229.936H211.525V238H205.981ZM211.525 225.04H217.141C218.485 225.04 219.529 224.716 220.273 224.068C221.017 223.396 221.389 222.508 221.389 221.404C221.389 220.228 221.005 219.34 220.237 218.74C219.469 218.116 218.401 217.804 217.033 217.804H211.525V225.04ZM253.813 234.652C251.269 237.172 248.077 238.432 244.237 238.432C240.397 238.432 237.205 237.172 234.661 234.652C232.141 232.132 230.881 229.048 230.881 225.4C230.881 221.776 232.153 218.704 234.697 216.184C237.265 213.64 240.469 212.368 244.309 212.368C248.149 212.368 251.329 213.628 253.849 216.148C256.393 218.668 257.665 221.752 257.665 225.4C257.665 229.024 256.381 232.108 253.813 234.652ZM238.837 231.016C240.277 232.552 242.101 233.32 244.309 233.32C246.517 233.32 248.329 232.564 249.745 231.052C251.161 229.516 251.869 227.632 251.869 225.4C251.869 223.192 251.149 221.32 249.709 219.784C248.269 218.248 246.445 217.48 244.237 217.48C242.029 217.48 240.217 218.248 238.801 219.784C237.385 221.296 236.677 223.168 236.677 225.4C236.677 227.608 237.397 229.48 238.837 231.016Z" fill="#262626"/>
<path d="M5.82715 279.968L1.39746 292H0.272461L5.10645 279.203H5.88867L5.82715 279.968ZM9.85254 292L5.41406 279.968L5.35254 279.203H6.13477L10.9775 292H9.85254ZM9.06152 287.482V288.414H2.26758V287.482H9.06152ZM24.9258 279.203V280.135H18.29V292H17.209V279.203H24.9258ZM17.9121 284.749H21.4541C22.3799 284.749 23.1562 284.901 23.7832 285.206C24.416 285.505 24.8936 285.927 25.2158 286.472C25.5381 287.011 25.6992 287.641 25.6992 288.361C25.6992 288.895 25.6084 289.384 25.4268 289.829C25.2451 290.274 24.9756 290.661 24.6182 290.989C24.2607 291.312 23.8184 291.561 23.291 291.736C22.7637 291.912 22.1514 292 21.4541 292H17.209V279.203H18.29V291.077H21.4541C22.2041 291.077 22.8105 290.951 23.2734 290.699C23.7363 290.441 24.0762 290.104 24.293 289.688C24.5098 289.272 24.6182 288.824 24.6182 288.344C24.6182 287.869 24.5098 287.43 24.293 287.025C24.0762 286.621 23.7363 286.296 23.2734 286.05C22.8105 285.798 22.2041 285.672 21.4541 285.672H17.9121V284.749ZM37.3711 285.848H33.7676L33.75 284.934H36.8525C37.4854 284.934 38.0244 284.843 38.4697 284.661C38.915 284.479 39.252 284.21 39.4805 283.853C39.7148 283.489 39.832 283.044 39.832 282.517C39.832 281.978 39.7178 281.532 39.4893 281.181C39.2607 280.823 38.918 280.56 38.4609 280.39C38.0039 280.22 37.4297 280.135 36.7383 280.135H34.0488V292H32.9678V279.203H36.7383C37.3887 279.203 37.9717 279.268 38.4873 279.396C39.0029 279.525 39.4424 279.728 39.8057 280.003C40.1689 280.278 40.4443 280.627 40.6318 281.049C40.8252 281.465 40.9219 281.963 40.9219 282.543C40.9219 283.07 40.8047 283.548 40.5703 283.976C40.3359 284.397 40.0049 284.743 39.5771 285.013C39.1553 285.276 38.6484 285.44 38.0566 285.505L37.3711 285.848ZM37.292 292H33.4248L33.9785 291.077H37.292C37.9248 291.077 38.4639 290.972 38.9092 290.761C39.3604 290.544 39.7061 290.236 39.9463 289.838C40.1865 289.439 40.3066 288.965 40.3066 288.414C40.3066 287.928 40.2012 287.491 39.9902 287.104C39.7793 286.718 39.457 286.413 39.0234 286.19C38.5898 285.962 38.0391 285.848 37.3711 285.848H35.1299L35.1475 284.934H38.3203L38.5137 285.259C39.0879 285.317 39.5889 285.496 40.0166 285.795C40.4502 286.088 40.7842 286.46 41.0186 286.911C41.2588 287.362 41.3789 287.857 41.3789 288.396C41.3789 289.17 41.2061 289.826 40.8604 290.365C40.5205 290.898 40.043 291.306 39.4277 291.587C38.8184 291.862 38.1064 292 37.292 292ZM56.1182 279.203V280.135H49.4824V292H48.4102V279.203H56.1182ZM72.624 291.077V292H62.5693V291.077H72.624ZM62.8066 291.077V295.103H61.7344V291.077H62.8066ZM73.5557 291.077L73.5469 295.103H72.4658V291.077H73.5557ZM71.3232 279.203V280.135H65.5049V279.203H71.3232ZM72.1846 279.203V292H71.1123V279.203H72.1846ZM65.1182 279.203H66.1992L65.9707 283.817C65.9297 284.644 65.8477 285.408 65.7246 286.111C65.6074 286.814 65.4609 287.459 65.2852 288.045C65.1094 288.631 64.916 289.155 64.7051 289.618C64.4941 290.075 64.2744 290.471 64.0459 290.805C63.8174 291.133 63.5859 291.399 63.3516 291.604C63.123 291.804 62.9033 291.936 62.6924 292H62.0244V291.077H62.5869C62.7275 290.931 62.9121 290.69 63.1406 290.356C63.3691 290.017 63.6035 289.562 63.8438 288.994C64.0898 288.42 64.3066 287.708 64.4941 286.858C64.6875 286.003 64.8193 284.989 64.8896 283.817L65.1182 279.203ZM88.1016 291.077V292H80.9033V291.077H88.1016ZM81.2285 279.203V292H80.1475V279.203H81.2285ZM87.2051 284.942V285.865H80.9033V284.942H87.2051ZM88.0576 279.203V280.135H80.9033V279.203H88.0576ZM102.744 291.077V292H95.5459V291.077H102.744ZM95.8711 279.203V292H94.79V279.203H95.8711ZM101.848 284.942V285.865H95.5459V284.942H101.848ZM102.7 279.203V280.135H95.5459V279.203H102.7ZM95.9766 276.918C95.9766 276.719 96.041 276.552 96.1699 276.417C96.2988 276.276 96.4746 276.206 96.6973 276.206C96.9199 276.206 97.0957 276.276 97.2246 276.417C97.3535 276.552 97.418 276.719 97.418 276.918C97.418 277.111 97.3535 277.275 97.2246 277.41C97.0957 277.545 96.9199 277.612 96.6973 277.612C96.4746 277.612 96.2988 277.545 96.1699 277.41C96.041 277.275 95.9766 277.111 95.9766 276.918ZM99.8262 276.927C99.8262 276.728 99.8877 276.558 100.011 276.417C100.14 276.276 100.318 276.206 100.547 276.206C100.77 276.206 100.945 276.276 101.074 276.417C101.203 276.558 101.268 276.728 101.268 276.927C101.268 277.12 101.203 277.284 101.074 277.419C100.945 277.554 100.77 277.621 100.547 277.621C100.318 277.621 100.14 277.554 100.011 277.419C99.8877 277.284 99.8262 277.12 99.8262 276.927ZM113.133 285.909L108.334 279.203H109.635L113.66 284.978H115.743L115.638 285.909H113.133ZM113.783 285.83L109.38 292H108.009L113.106 284.898L113.783 285.83ZM116.288 279.203V292H115.216V279.203H116.288ZM123.135 279.203L118.327 285.909H115.866L115.761 284.978H117.8L121.834 279.203H123.135ZM122.089 292L117.677 285.83L118.362 284.898L123.46 292H122.089ZM133.383 285.769H131.801V285.004H133.339C134.124 285.004 134.76 284.901 135.246 284.696C135.732 284.491 136.087 284.204 136.31 283.835C136.532 283.466 136.644 283.032 136.644 282.534C136.644 282.048 136.526 281.611 136.292 281.225C136.058 280.832 135.694 280.521 135.202 280.293C134.71 280.064 134.077 279.95 133.304 279.95C132.712 279.95 132.173 280.059 131.687 280.275C131.206 280.486 130.819 280.788 130.526 281.181C130.239 281.573 130.096 282.033 130.096 282.561H129.015C129.015 282.016 129.129 281.526 129.357 281.093C129.586 280.653 129.896 280.281 130.289 279.977C130.688 279.666 131.145 279.432 131.66 279.273C132.182 279.109 132.729 279.027 133.304 279.027C133.978 279.027 134.584 279.104 135.123 279.256C135.668 279.402 136.134 279.625 136.521 279.924C136.913 280.223 137.212 280.592 137.417 281.031C137.622 281.471 137.725 281.983 137.725 282.569C137.725 283.009 137.625 283.422 137.426 283.809C137.232 284.195 136.948 284.535 136.573 284.828C136.204 285.121 135.75 285.353 135.211 285.522C134.678 285.687 134.068 285.769 133.383 285.769ZM131.801 285.197H133.383C134.133 285.197 134.789 285.271 135.352 285.417C135.92 285.563 136.395 285.777 136.775 286.059C137.156 286.34 137.443 286.688 137.637 287.104C137.83 287.515 137.927 287.986 137.927 288.52C137.927 289.105 137.812 289.624 137.584 290.075C137.355 290.526 137.033 290.91 136.617 291.227C136.207 291.543 135.721 291.783 135.158 291.947C134.596 292.105 133.978 292.185 133.304 292.185C132.765 292.185 132.229 292.111 131.695 291.965C131.168 291.812 130.688 291.587 130.254 291.288C129.826 290.983 129.48 290.597 129.217 290.128C128.959 289.653 128.83 289.094 128.83 288.449H129.92C129.92 288.982 130.061 289.46 130.342 289.882C130.629 290.304 131.024 290.641 131.528 290.893C132.038 291.139 132.63 291.262 133.304 291.262C134.06 291.262 134.698 291.15 135.22 290.928C135.747 290.699 136.148 290.383 136.424 289.979C136.705 289.568 136.846 289.094 136.846 288.555C136.846 288.098 136.77 287.705 136.617 287.377C136.465 287.043 136.239 286.771 135.94 286.56C135.647 286.349 135.284 286.193 134.851 286.094C134.417 285.994 133.913 285.944 133.339 285.944H131.801V285.197ZM145.898 290.119L153.185 279.203H154.266V292H153.185V281.066L145.898 292H144.817V279.203H145.898V290.119ZM163.09 290.119L170.376 279.203H171.457V292H170.376V281.066L163.09 292H162.009V279.203H163.09V290.119ZM168.442 276.065H169.339C169.339 276.505 169.236 276.895 169.031 277.234C168.832 277.574 168.542 277.841 168.161 278.034C167.78 278.228 167.329 278.324 166.808 278.324C166.022 278.324 165.401 278.113 164.944 277.691C164.493 277.27 164.268 276.728 164.268 276.065H165.155C165.155 276.47 165.278 276.821 165.524 277.12C165.776 277.413 166.204 277.56 166.808 277.56C167.394 277.56 167.812 277.41 168.064 277.111C168.316 276.812 168.442 276.464 168.442 276.065ZM180.281 279.203V292H179.2V279.203H180.281ZM188.297 279.203L182.619 285.997H179.851L179.754 285.065H181.986L186.943 279.203H188.297ZM187.339 292L181.934 285.874L182.558 284.925L188.684 292H187.339ZM203.572 279.203V280.135H197.306V279.203H203.572ZM204.434 279.203V292H203.353V279.203H204.434ZM196.919 279.203H197.991L197.666 285.118C197.607 286.097 197.531 286.961 197.438 287.711C197.35 288.461 197.227 289.108 197.068 289.653C196.91 290.192 196.702 290.635 196.444 290.98C196.192 291.326 195.879 291.584 195.504 291.754C195.135 291.918 194.687 292 194.159 292H193.79V291.077L194.115 291.06C194.461 291.048 194.76 290.98 195.012 290.857C195.27 290.734 195.486 290.538 195.662 290.269C195.844 289.993 195.993 289.624 196.11 289.161C196.233 288.698 196.333 288.124 196.409 287.438C196.491 286.753 196.559 285.936 196.611 284.986L196.919 279.203ZM212.44 279.203H213.53L218.259 290.471L222.996 279.203H224.077L218.672 292H217.846L212.44 279.203ZM212.106 279.203H213.064L213.179 286.41V292H212.106V279.203ZM223.471 279.203H224.429V292H223.348V286.41L223.471 279.203ZM240.68 284.942V285.865H232.901V284.942H240.68ZM233.156 279.203V292H232.075V279.203H233.156ZM241.55 279.203V292H240.469V279.203H241.55ZM258.662 284.916V286.287C258.662 287.184 258.545 287.995 258.311 288.722C258.082 289.442 257.748 290.061 257.309 290.576C256.875 291.092 256.354 291.487 255.744 291.763C255.135 292.038 254.449 292.176 253.688 292.176C252.943 292.176 252.264 292.038 251.648 291.763C251.039 291.487 250.515 291.092 250.075 290.576C249.636 290.061 249.296 289.442 249.056 288.722C248.815 287.995 248.695 287.184 248.695 286.287V284.916C248.695 284.02 248.812 283.211 249.047 282.49C249.287 281.764 249.627 281.143 250.066 280.627C250.506 280.111 251.03 279.716 251.64 279.44C252.249 279.165 252.926 279.027 253.67 279.027C254.432 279.027 255.117 279.165 255.727 279.44C256.336 279.716 256.86 280.111 257.3 280.627C257.739 281.143 258.076 281.764 258.311 282.49C258.545 283.211 258.662 284.02 258.662 284.916ZM257.59 286.287V284.898C257.59 284.143 257.502 283.463 257.326 282.859C257.156 282.256 256.901 281.74 256.562 281.312C256.228 280.885 255.817 280.557 255.331 280.328C254.845 280.1 254.291 279.985 253.67 279.985C253.066 279.985 252.524 280.1 252.044 280.328C251.563 280.557 251.153 280.885 250.813 281.312C250.479 281.74 250.222 282.256 250.04 282.859C249.864 283.463 249.776 284.143 249.776 284.898V286.287C249.776 287.049 249.864 287.734 250.04 288.344C250.222 288.947 250.482 289.466 250.822 289.899C251.162 290.327 251.572 290.655 252.053 290.884C252.539 291.112 253.084 291.227 253.688 291.227C254.314 291.227 254.868 291.112 255.349 290.884C255.829 290.655 256.236 290.327 256.57 289.899C256.904 289.466 257.156 288.947 257.326 288.344C257.502 287.734 257.59 287.049 257.59 286.287ZM275.229 279.203V292H274.157V280.135H266.906V292H265.825V279.203H275.229ZM287.279 286.788H283.632V285.865H287.279C288.041 285.865 288.659 285.742 289.134 285.496C289.614 285.244 289.963 284.904 290.18 284.477C290.402 284.049 290.514 283.568 290.514 283.035C290.514 282.514 290.402 282.033 290.18 281.594C289.963 281.154 289.614 280.803 289.134 280.539C288.659 280.27 288.041 280.135 287.279 280.135H284.01V292H282.929V279.203H287.279C288.217 279.203 289.005 279.364 289.644 279.687C290.288 280.009 290.774 280.457 291.103 281.031C291.431 281.605 291.595 282.268 291.595 283.018C291.595 283.803 291.431 284.479 291.103 285.048C290.774 285.61 290.291 286.041 289.652 286.34C289.014 286.639 288.223 286.788 287.279 286.788ZM306.387 288.01H307.468C307.38 288.871 307.143 289.615 306.756 290.242C306.369 290.863 305.842 291.341 305.174 291.675C304.506 292.009 303.7 292.176 302.757 292.176C302.03 292.176 301.371 292.038 300.779 291.763C300.193 291.487 299.689 291.098 299.268 290.594C298.846 290.084 298.521 289.475 298.292 288.766C298.063 288.057 297.949 287.269 297.949 286.401V284.802C297.949 283.935 298.063 283.149 298.292 282.446C298.521 281.737 298.849 281.128 299.276 280.618C299.704 280.108 300.217 279.716 300.814 279.44C301.412 279.165 302.086 279.027 302.836 279.027C303.744 279.027 304.529 279.194 305.191 279.528C305.854 279.856 306.375 280.331 306.756 280.952C307.143 281.573 307.38 282.323 307.468 283.202H306.387C306.305 282.511 306.123 281.925 305.842 281.444C305.561 280.964 305.171 280.598 304.673 280.346C304.181 280.088 303.568 279.959 302.836 279.959C302.238 279.959 301.705 280.073 301.236 280.302C300.768 280.53 300.369 280.858 300.041 281.286C299.713 281.708 299.461 282.215 299.285 282.807C299.115 283.398 299.03 284.058 299.03 284.784V286.401C299.03 287.104 299.112 287.752 299.276 288.344C299.44 288.936 299.681 289.448 299.997 289.882C300.319 290.315 300.712 290.652 301.175 290.893C301.638 291.133 302.165 291.253 302.757 291.253C303.513 291.253 304.143 291.133 304.646 290.893C305.156 290.646 305.552 290.283 305.833 289.803C306.114 289.322 306.299 288.725 306.387 288.01ZM318.437 279.203V292H317.364V279.203H318.437ZM322.822 279.203V280.135H312.987V279.203H322.822Z" fill="#262626"/>
<path d="M7.37402 333C7.26855 332.701 7.20117 332.259 7.17188 331.673C6.80273 332.153 6.33105 332.525 5.75684 332.789C5.18848 333.047 4.58496 333.176 3.94629 333.176C3.03223 333.176 2.29102 332.921 1.72266 332.411C1.16016 331.901 0.878906 331.257 0.878906 330.478C0.878906 329.552 1.2627 328.819 2.03027 328.28C2.80371 327.741 3.87891 327.472 5.25586 327.472H7.16309V326.391C7.16309 325.711 6.95215 325.178 6.53027 324.791C6.11426 324.398 5.50488 324.202 4.70215 324.202C3.96973 324.202 3.36328 324.39 2.88281 324.765C2.40234 325.14 2.16211 325.591 2.16211 326.118L1.10742 326.109C1.10742 325.354 1.45898 324.7 2.16211 324.149C2.86523 323.593 3.72949 323.314 4.75488 323.314C5.81543 323.314 6.65039 323.581 7.25977 324.114C7.875 324.642 8.19141 325.38 8.20898 326.329V330.829C8.20898 331.749 8.30566 332.438 8.49902 332.895V333H7.37402ZM4.06934 332.244C4.77246 332.244 5.39941 332.074 5.9502 331.734C6.50684 331.395 6.91113 330.94 7.16309 330.372V328.28H5.28223C4.2334 328.292 3.41309 328.485 2.82129 328.86C2.22949 329.229 1.93359 329.739 1.93359 330.39C1.93359 330.923 2.12988 331.365 2.52246 331.717C2.9209 332.068 3.43652 332.244 4.06934 332.244ZM10.8018 335.391L10.1777 334.934C10.7109 334.219 10.9863 333.478 11.0039 332.71V331.348H12.0322V332.446C12.0322 333.665 11.6221 334.646 10.8018 335.391ZM22.6758 324.123C23.8828 324.123 24.8613 324.519 25.6113 325.31C26.3613 326.095 26.7363 327.138 26.7363 328.438V328.667C26.7363 329.528 26.5635 330.305 26.2178 330.996C25.8779 331.682 25.3857 332.218 24.7412 332.604C24.1025 332.985 23.3672 333.176 22.5352 333.176C21.2812 333.176 20.2646 332.76 19.4854 331.928C18.7119 331.09 18.3252 329.974 18.3252 328.579V327.735C18.3252 325.767 18.7002 324.193 19.4502 323.016C20.2002 321.838 21.2666 321.135 22.6494 320.906C23.5225 320.766 24.1348 320.575 24.4863 320.335C24.8438 320.095 25.0225 319.767 25.0225 319.351H25.9277C25.9277 319.843 25.8252 320.25 25.6201 320.572C25.415 320.895 25.1074 321.155 24.6973 321.354C24.2871 321.548 23.6602 321.712 22.8164 321.847C21.8496 321.999 21.0703 322.412 20.4785 323.086C19.8926 323.754 19.5117 324.65 19.3359 325.775C19.7109 325.283 20.1797 324.885 20.7422 324.58C21.3105 324.275 21.9551 324.123 22.6758 324.123ZM19.3799 328.447V328.667C19.3799 329.739 19.6699 330.612 20.25 331.286C20.8301 331.954 21.5918 332.288 22.5352 332.288C23.4844 332.288 24.2461 331.951 24.8203 331.277C25.3945 330.598 25.6816 329.707 25.6816 328.605V328.377C25.6816 327.387 25.3887 326.578 24.8027 325.951C24.2227 325.324 23.4609 325.011 22.5176 325.011C21.5742 325.011 20.8154 325.33 20.2412 325.969C19.667 326.602 19.3799 327.428 19.3799 328.447ZM28.5381 335.391L27.9141 334.934C28.4473 334.219 28.7227 333.478 28.7402 332.71V331.348H29.7686V332.446C29.7686 333.665 29.3584 334.646 28.5381 335.391ZM36.6943 333V323.49H40.1836C41.3906 323.49 42.3164 323.707 42.9609 324.141C43.6055 324.568 43.9277 325.198 43.9277 326.03C43.9277 326.505 43.7842 326.93 43.4971 327.305C43.21 327.674 42.791 327.943 42.2402 328.113C42.8613 328.23 43.3594 328.497 43.7344 328.913C44.1152 329.329 44.3057 329.812 44.3057 330.363C44.3057 331.201 43.9951 331.852 43.374 332.314C42.7588 332.771 41.8857 333 40.7549 333H36.6943ZM37.7402 328.623V332.121H40.79C41.5811 332.121 42.1904 331.969 42.6182 331.664C43.0459 331.359 43.2598 330.92 43.2598 330.346C43.2598 329.818 43.0459 329.399 42.6182 329.089C42.1904 328.778 41.5811 328.623 40.79 328.623H37.7402ZM37.7402 327.744H40.4033C42.0557 327.721 42.8818 327.158 42.8818 326.057C42.8818 325.477 42.6533 325.055 42.1963 324.791C41.7451 324.521 41.0742 324.387 40.1836 324.387H37.7402V327.744ZM46.4326 335.391L45.8086 334.934C46.3418 334.219 46.6172 333.478 46.6348 332.71V331.348H47.6631V332.446C47.6631 333.665 47.2529 334.646 46.4326 335.391ZM60.3984 324.396H55.5908V333H54.5361V323.49H60.3984V324.396ZM61.8486 335.391L61.2246 334.934C61.7578 334.219 62.0332 333.478 62.0508 332.71V331.348H63.0791V332.446C63.0791 333.665 62.6689 334.646 61.8486 335.391ZM69.6709 332.112L70.1367 331.506C70.875 330.504 71.2998 329.039 71.4111 327.111L71.5781 323.49H77.1943V332.112H78.1787V335.795H77.1328V333H69.9873V335.795H68.9766L68.9854 332.112H69.6709ZM70.8838 332.112H76.1396V324.475H72.5801L72.4658 326.944C72.3604 329.212 71.833 330.935 70.8838 332.112ZM79.9893 335.391L79.3652 334.934C79.8984 334.219 80.1738 333.478 80.1914 332.71V331.348H81.2197V332.446C81.2197 333.665 80.8096 334.646 79.9893 335.391ZM91.7139 333.176C90.9053 333.176 90.1729 332.977 89.5166 332.578C88.8662 332.18 88.3594 331.626 87.9961 330.917C87.6328 330.202 87.4512 329.402 87.4512 328.518V328.14C87.4512 327.226 87.627 326.402 87.9785 325.67C88.3359 324.938 88.8311 324.363 89.4639 323.947C90.0967 323.525 90.7822 323.314 91.5205 323.314C92.6748 323.314 93.5889 323.71 94.2627 324.501C94.9424 325.286 95.2822 326.361 95.2822 327.727V328.315H88.4971V328.518C88.4971 329.596 88.8047 330.495 89.4199 331.216C90.041 331.931 90.8203 332.288 91.7578 332.288C92.3203 332.288 92.8154 332.186 93.2432 331.98C93.6768 331.775 94.0693 331.447 94.4209 330.996L95.0801 331.497C94.3066 332.616 93.1846 333.176 91.7139 333.176ZM91.5205 324.211C90.7295 324.211 90.0615 324.501 89.5166 325.081C88.9775 325.661 88.6494 326.44 88.5322 327.419H94.2363V327.305C94.207 326.391 93.9463 325.646 93.4541 325.072C92.9619 324.498 92.3174 324.211 91.5205 324.211ZM97.1104 335.391L96.4863 334.934C97.0195 334.219 97.2949 333.478 97.3125 332.71V331.348H98.3408V332.446C98.3408 333.665 97.9307 334.646 97.1104 335.391ZM108.835 333.176C108.026 333.176 107.294 332.977 106.638 332.578C105.987 332.18 105.48 331.626 105.117 330.917C104.754 330.202 104.572 329.402 104.572 328.518V328.14C104.572 327.226 104.748 326.402 105.1 325.67C105.457 324.938 105.952 324.363 106.585 323.947C107.218 323.525 107.903 323.314 108.642 323.314C109.796 323.314 110.71 323.71 111.384 324.501C112.063 325.286 112.403 326.361 112.403 327.727V328.315H105.618V328.518C105.618 329.596 105.926 330.495 106.541 331.216C107.162 331.931 107.941 332.288 108.879 332.288C109.441 332.288 109.937 332.186 110.364 331.98C110.798 331.775 111.19 331.447 111.542 330.996L112.201 331.497C111.428 332.616 110.306 333.176 108.835 333.176ZM108.642 324.211C107.851 324.211 107.183 324.501 106.638 325.081C106.099 325.661 105.771 326.44 105.653 327.419H111.357V327.305C111.328 326.391 111.067 325.646 110.575 325.072C110.083 324.498 109.438 324.211 108.642 324.211ZM106.128 320.73C106.128 320.531 106.192 320.364 106.321 320.229C106.45 320.089 106.626 320.019 106.849 320.019C107.071 320.019 107.247 320.089 107.376 320.229C107.511 320.364 107.578 320.531 107.578 320.73C107.578 320.924 107.511 321.088 107.376 321.223C107.247 321.357 107.071 321.425 106.849 321.425C106.626 321.425 106.45 321.357 106.321 321.223C106.192 321.088 106.128 320.924 106.128 320.73ZM109.978 320.739C109.978 320.54 110.042 320.373 110.171 320.238C110.3 320.098 110.476 320.027 110.698 320.027C110.921 320.027 111.097 320.098 111.226 320.238C111.36 320.373 111.428 320.54 111.428 320.739C111.428 320.933 111.36 321.097 111.226 321.231C111.097 321.366 110.921 321.434 110.698 321.434C110.476 321.434 110.3 321.366 110.171 321.231C110.042 321.097 109.978 320.933 109.978 320.739ZM114.231 335.391L113.607 334.934C114.141 334.219 114.416 333.478 114.434 332.71V331.348H115.462V332.446C115.462 333.665 115.052 334.646 114.231 335.391ZM129.542 328.605H128.276V333H127.222V328.605H125.965L122.449 333H121.113L125.051 328.122L121.553 323.49H122.827L125.947 327.665H127.222V323.49H128.276V327.665H129.56L132.68 323.49H133.972L130.456 328.122L134.402 333H133.058L129.542 328.605ZM135.87 335.391L135.246 334.934C135.779 334.219 136.055 333.478 136.072 332.71V331.348H137.101V332.446C137.101 333.665 136.69 334.646 135.87 335.391ZM149.484 326.004C149.484 325.43 149.271 324.987 148.843 324.677C148.415 324.366 147.826 324.211 147.076 324.211C146.396 324.211 145.813 324.387 145.327 324.738C144.847 325.084 144.606 325.523 144.606 326.057H143.561C143.561 325.266 143.897 324.612 144.571 324.097C145.251 323.581 146.086 323.323 147.076 323.323C148.166 323.323 149.016 323.558 149.625 324.026C150.234 324.495 150.539 325.16 150.539 326.021C150.539 326.479 150.398 326.892 150.117 327.261C149.836 327.63 149.426 327.917 148.887 328.122C150.105 328.456 150.715 329.212 150.715 330.39C150.715 331.245 150.384 331.922 149.722 332.42C149.06 332.918 148.181 333.167 147.085 333.167C146.024 333.167 145.146 332.9 144.448 332.367C143.751 331.834 143.402 331.137 143.402 330.275H144.457C144.457 330.85 144.709 331.33 145.213 331.717C145.723 332.098 146.347 332.288 147.085 332.288C147.888 332.288 148.515 332.121 148.966 331.787C149.423 331.447 149.651 330.987 149.651 330.407C149.651 329.769 149.443 329.309 149.027 329.027C148.611 328.746 147.976 328.605 147.12 328.605H145.67V327.691H147.296C148.755 327.656 149.484 327.094 149.484 326.004ZM152.815 335.391L152.191 334.934C152.725 334.219 153 333.478 153.018 332.71V331.348H154.046V332.446C154.046 333.665 153.636 334.646 152.815 335.391ZM167.106 323.49H168.161V333H167.106V325.187L161.974 333H160.928V323.49H161.974V331.312L167.106 323.49ZM170.763 335.391L170.139 334.934C170.672 334.219 170.947 333.478 170.965 332.71V331.348H171.993V332.446C171.993 333.665 171.583 334.646 170.763 335.391ZM185.054 323.49H186.108V333H185.054V325.187L179.921 333H178.875V323.49H179.921V331.312L185.054 323.49ZM185.001 320.062C185.001 320.736 184.77 321.281 184.307 321.697C183.85 322.113 183.234 322.321 182.461 322.321C181.699 322.321 181.084 322.116 180.615 321.706C180.152 321.29 179.921 320.742 179.921 320.062H180.817C180.817 320.549 180.961 320.921 181.248 321.179C181.541 321.437 181.945 321.565 182.461 321.565C182.977 321.565 183.378 321.431 183.665 321.161C183.958 320.892 184.104 320.525 184.104 320.062H185.001ZM188.71 335.391L188.086 334.934C188.619 334.219 188.895 333.478 188.912 332.71V331.348H189.94V332.446C189.94 333.665 189.53 334.646 188.71 335.391ZM199.336 328.641H197.877V333H196.813V323.49H197.877V327.709H199.318L202.808 323.49H204.135L200.232 328.104L204.565 333H203.177L199.336 328.641ZM205.866 335.391L205.242 334.934C205.775 334.219 206.051 333.478 206.068 332.71V331.348H207.097V332.446C207.097 333.665 206.687 334.646 205.866 335.391ZM221.221 323.49V333H220.166V324.396H216.272L216.105 327.955C216.035 329.273 215.903 330.281 215.71 330.979C215.517 331.67 215.229 332.18 214.849 332.508C214.468 332.836 213.961 333 213.328 333H212.924V332.068L213.249 332.051C213.853 332.039 214.286 331.746 214.55 331.172C214.813 330.598 214.986 329.572 215.068 328.096L215.262 323.49H221.221ZM223.831 335.391L223.207 334.934C223.74 334.219 224.016 333.478 224.033 332.71V331.348H225.062V332.446C225.062 333.665 224.651 334.646 223.831 335.391ZM237.138 331.576L240.917 323.49H242.218V333H241.163V325.195L237.507 333H236.76L233.033 325.02V333H231.987V323.49H233.367L237.138 331.576ZM244.819 335.391L244.195 334.934C244.729 334.219 245.004 333.478 245.021 332.71V331.348H246.05V332.446C246.05 333.665 245.64 334.646 244.819 335.391ZM260.165 333H259.11V328.641H253.986V333H252.932V323.49H253.986V327.753H259.11V323.49H260.165V333ZM262.767 335.391L262.143 334.934C262.676 334.219 262.951 333.478 262.969 332.71V331.348H263.997V332.446C263.997 333.665 263.587 334.646 262.767 335.391ZM270.229 328.104C270.229 327.19 270.404 326.367 270.756 325.635C271.113 324.902 271.614 324.334 272.259 323.93C272.909 323.52 273.645 323.314 274.465 323.314C275.73 323.314 276.756 323.76 277.541 324.65C278.326 325.535 278.719 326.71 278.719 328.175V328.395C278.719 329.314 278.54 330.144 278.183 330.882C277.831 331.614 277.333 332.18 276.688 332.578C276.044 332.977 275.309 333.176 274.482 333.176C273.223 333.176 272.197 332.733 271.406 331.849C270.621 330.958 270.229 329.78 270.229 328.315V328.104ZM271.283 328.395C271.283 329.531 271.576 330.466 272.162 331.198C272.754 331.925 273.527 332.288 274.482 332.288C275.432 332.288 276.199 331.925 276.785 331.198C277.377 330.466 277.673 329.502 277.673 328.307V328.104C277.673 327.378 277.538 326.713 277.269 326.109C276.999 325.506 276.621 325.04 276.135 324.712C275.648 324.378 275.092 324.211 274.465 324.211C273.527 324.211 272.763 324.58 272.171 325.318C271.579 326.051 271.283 327.012 271.283 328.201V328.395ZM280.679 335.391L280.055 334.934C280.588 334.219 280.863 333.478 280.881 332.71V331.348H281.909V332.446C281.909 333.665 281.499 334.646 280.679 335.391ZM8.6748 354H7.62012V345.396H2.49609V354H1.44141V344.49H8.6748V354ZM11.2764 356.391L10.6523 355.934C11.1855 355.219 11.4609 354.478 11.4785 353.71V352.348H12.5068V353.446C12.5068 354.665 12.0967 355.646 11.2764 356.391ZM26.9648 349.342C26.9648 350.824 26.6367 352.002 25.9805 352.875C25.3242 353.742 24.4453 354.176 23.3438 354.176C22.043 354.176 21.0469 353.719 20.3555 352.805V357.656H19.3096V344.49H20.2852L20.3379 345.835C21.0234 344.821 22.0166 344.314 23.3174 344.314C24.4541 344.314 25.3447 344.745 25.9893 345.606C26.6396 346.468 26.9648 347.663 26.9648 349.192V349.342ZM25.9102 349.157C25.9102 347.944 25.6611 346.986 25.1631 346.283C24.665 345.58 23.9707 345.229 23.0801 345.229C22.4355 345.229 21.8818 345.384 21.4189 345.694C20.9561 346.005 20.6016 346.456 20.3555 347.048V351.609C20.6074 352.154 20.9678 352.57 21.4365 352.857C21.9053 353.145 22.459 353.288 23.0977 353.288C23.9824 353.288 24.6709 352.937 25.1631 352.233C25.6611 351.524 25.9102 350.499 25.9102 349.157ZM29.083 356.391L28.459 355.934C28.9922 355.219 29.2676 354.478 29.2852 353.71V352.348H30.3135V353.446C30.3135 354.665 29.9033 355.646 29.083 356.391ZM40.6406 353.288C41.373 353.288 41.9854 353.083 42.4775 352.673C42.9756 352.257 43.2451 351.721 43.2861 351.064H44.2969C44.2676 351.645 44.0859 352.175 43.752 352.655C43.418 353.13 42.9727 353.502 42.416 353.771C41.8652 354.041 41.2734 354.176 40.6406 354.176C39.3926 354.176 38.4023 353.742 37.6699 352.875C36.9434 352.008 36.5801 350.842 36.5801 349.377V349.061C36.5801 348.123 36.7441 347.294 37.0723 346.573C37.4004 345.853 37.8691 345.296 38.4785 344.903C39.0938 344.511 39.8115 344.314 40.6318 344.314C41.6748 344.314 42.5332 344.625 43.207 345.246C43.8867 345.867 44.25 346.685 44.2969 347.698H43.2861C43.2393 346.954 42.9697 346.354 42.4775 345.896C41.9912 345.439 41.376 345.211 40.6318 345.211C39.6826 345.211 38.9443 345.554 38.417 346.239C37.8955 346.925 37.6348 347.886 37.6348 349.122V349.43C37.6348 350.643 37.8955 351.589 38.417 352.269C38.9443 352.948 39.6855 353.288 40.6406 353.288ZM46.1865 356.391L45.5625 355.934C46.0957 355.219 46.3711 354.478 46.3887 353.71V352.348H47.417V353.446C47.417 354.665 47.0068 355.646 46.1865 356.391ZM61.0576 345.387H57.5947V354H56.54V345.387H53.209V344.49H61.0576V345.387Z" fill="#262626"/>
</svg>
