<svg width="173" height="119" viewBox="0 0 173 119" fill="none" xmlns="http://www.w3.org/2000/svg">
<mask id="mask0_190_2225" style="mask-type:alpha" maskUnits="userSpaceOnUse" x="65" y="0" width="43" height="84">
<path d="M65.5 0.5L71.9153 3.09495L83.4657 0.5L95.0143 3.09495L101.43 0.5V8.28119H65.5V0.5ZM103.995 48.4846V83.5L65.5 44.5922V13.4693H101.43V26.4385H78.3324V39.229L91.1648 52.1982V36.9059L86.0315 35.5154V31.6248H101.43L107.5 48.4846H103.995Z" fill="white"/>
</mask>
<g mask="url(#mask0_190_2225)">
<rect width="74" height="98" transform="translate(46.5 -10.5)" fill="#262626"/>
</g>
<g clip-path="url(#clip0_190_2225)">
<path d="M48.7463 118.276V114.535H46.4952C45.2462 114.535 45.119 114.407 45.119 113.133V101.585H48.7483V97.9285H45.119V92.3295L37.2765 97.9285V101.585H40.0692V114.661C40.0692 117.762 40.7381 118.274 43.8238 118.274H48.7463V118.276ZM57.6239 118.278V102.322C57.6239 102.023 57.7896 101.811 58.0402 101.811H61.0026C61.5866 101.811 61.6695 101.899 61.6695 102.534V118.278H66.6325V102.322C66.6325 102.023 66.8002 101.811 67.0912 101.811H70.0131C70.6376 101.811 70.7224 101.899 70.7224 102.534V118.278H75.645V100.597C75.645 98.8123 72.9331 97.7066 71.0154 97.7066C69.4291 97.7066 67.6771 98.1308 66.5515 99.4485C65.424 98.0876 63.9226 97.7066 62.2535 97.7066C60.6268 97.7066 59.2487 98.0031 57.6239 99.3641V97.9305H52.7013V118.276H57.6239V118.278ZM86.2398 114.535C84.9928 114.535 84.9061 114.535 84.9061 113.26V109.48C84.9061 108.205 84.9484 108.164 86.1993 108.164H88.994V114.537H86.2398V114.535ZM93.9571 118.276V101.544C93.9571 98.4411 93.242 97.9305 90.2025 97.9305H85.4052L80.2822 101.587H87.9089C88.994 101.587 88.994 101.595 88.994 102.691V104.507H83.4894C80.529 104.507 79.9854 105.148 79.9854 108.121V114.663C79.9854 117.764 80.6947 118.276 83.74 118.276H93.9571ZM103.401 118.278V102.322C103.401 102.023 103.567 101.811 103.818 101.811H106.78C107.364 101.811 107.447 101.897 107.447 102.534V118.278H112.41V100.556C112.41 98.771 109.825 97.7086 107.906 97.7086C106.279 97.7086 105.026 98.0051 103.399 99.3661V97.9324H98.4768V118.278H103.401ZM123.648 92.9639C123.648 92.2412 123.857 92.0723 124.523 92.0723H126.098C126.767 92.0723 126.975 92.251 126.975 92.9639V100.177L131.564 96.9034V91.0943C131.564 88.9262 130.597 88.502 128.644 88.502H121.355C119.402 88.502 118.477 88.934 118.477 91.0943C118.477 93.2977 118.479 95.5031 118.479 97.7066C118.479 99.4073 119.231 100.894 120.856 100.937C119.231 100.98 117.498 102.298 117.506 103.997L117.55 114.199C117.564 117.259 118.551 118.28 121.513 118.28C124.356 118.28 127.187 118.276 130.03 118.276C132.204 118.276 133.283 117.665 133.723 116.141L135.695 118.5L139.692 115.648L133.946 108.779V105.171L132.058 106.518L123.664 96.4811L123.648 92.9639ZM123.926 114.242C122.928 114.242 122.721 114.115 122.718 112.968L122.621 102.87L129.307 110.868L129.352 112.964C129.377 114.111 129.143 114.238 128.143 114.238C126.734 114.238 125.329 114.242 123.926 114.242ZM154.003 118.276V114.366H147.745C147.122 114.366 146.827 114.152 146.827 113.474V102.479C146.827 101.756 147.035 101.587 147.702 101.587H149.662C150.331 101.587 150.539 101.76 150.539 102.479V107.471L155.127 104.197V100.525C155.127 98.3566 154.167 97.9305 152.207 97.9305H144.823C142.865 97.9305 141.945 98.3566 141.945 100.525V115.725C141.945 117.85 142.863 118.276 144.823 118.276H154.003ZM25.3999 102.836C25.3999 104.075 25.3999 105.315 25.3999 106.556C25.4095 107.685 25.5618 107.805 26.7356 107.805H28.1966C29.3684 107.805 29.5226 107.685 29.5303 106.556C29.5303 105.317 29.5303 104.077 29.5303 102.836C29.5207 101.707 29.3684 101.587 28.1966 101.587H26.7356C25.5618 101.587 25.4076 101.705 25.3999 102.836ZM25.3999 111.46V113.26C25.3999 114.494 25.5252 114.621 26.7356 114.621H33.7359V118.278H24.1914C21.152 118.278 20.4793 117.764 20.4793 114.665C20.4793 110.291 20.4793 105.919 20.4793 101.546C20.4793 98.4607 21.1327 97.9324 24.1914 97.9324H30.7407C33.7995 97.9324 34.4528 98.4607 34.4528 101.546V107.848C34.4528 110.933 33.7995 111.462 30.7407 111.462H25.3999V111.46ZM167.576 102.836C167.568 101.707 167.414 101.587 166.24 101.587C165.754 101.587 165.267 101.587 164.781 101.587C163.607 101.587 163.455 101.707 163.445 102.836V113.372C163.455 114.502 163.607 114.621 164.781 114.621C165.267 114.621 165.754 114.621 166.24 114.621C167.414 114.621 167.566 114.502 167.576 113.372V102.836ZM158.523 101.544C158.523 98.4588 159.176 97.9305 162.237 97.9305C164.42 97.9305 166.602 97.9305 168.786 97.9305C171.847 97.9305 172.5 98.4588 172.5 101.544V114.663C172.5 117.748 171.847 118.276 168.786 118.276C166.602 118.276 164.42 118.276 162.237 118.276C159.176 118.276 158.523 117.748 158.523 114.663V101.544ZM15.9538 118.276V96.9034L9.01905 101.856V105.537H10.8655V114.236H7.50798C5.88705 114.236 5.6307 114.193 5.6307 112.919V94.0656C5.6307 92.791 5.92367 92.4945 7.59086 92.4945H15.2734V88.5H5.42255C2.34065 88.5 0.5 89.3543 0.5 92.4945V114.321C0.5 117.463 2.62784 118.274 5.71358 118.274C9.0576 118.276 12.6117 118.276 15.9538 118.276Z" fill="#262626"/>
</g>
<defs>
<clipPath id="clip0_190_2225">
<rect width="172" height="30" fill="white" transform="translate(0.5 88.5)"/>
</clipPath>
</defs>
</svg>
