<svg width="56" height="46" viewBox="0 0 56 46" fill="none" xmlns="http://www.w3.org/2000/svg">
<g clip-path="url(#clip0_685_3264)">
<path d="M27.5 23L41.0036 46L54.5 23H27.5Z" fill="#8C8C8C"/>
<path d="M27.5 23L14.0036 46L0.5 23H27.5Z" fill="#D9D9D9"/>
<path d="M27.5 23L41.0036 0L54.5 23H27.5Z" fill="#D9D9D9"/>
<path d="M41.5 0L27.9964 23L14.5 0H41.5Z" fill="#BFBFBF"/>
<path d="M14.5 46L27.9964 23L41.5 46H14.5Z" fill="#BFBFBF"/>
<path d="M27.5 23L14.0036 0L0.5 23H27.5Z" fill="#F0F0F0"/>
<path opacity="0.36" d="M19.2316 38L10.5 23.0073L19.2316 8H36.7389L45.5 23.0073L36.7389 38H19.2316Z" fill="#F0F0F0"/>
<path d="M32.5146 14H22.5L17.5 22.4964L22.5 31H32.5146L37.5 22.4964L32.5146 14Z" fill="#D9D9D9"/>
<path d="M13.0911 22.3046V25.7735C12.9464 25.9379 12.723 26.1162 12.4208 26.3086C12.1186 26.497 11.7291 26.6593 11.2524 26.7956C10.7757 26.9319 10.199 27 9.52221 27C8.92207 27 8.37514 26.9078 7.88141 26.7234C7.38767 26.5351 6.96204 26.2605 6.60451 25.8998C6.25124 25.5391 5.97883 25.0982 5.7873 24.5772C5.59577 24.0521 5.5 23.4529 5.5 22.7796V22.2325C5.5 21.5591 5.59151 20.9599 5.77453 20.4349C5.96181 19.9098 6.22783 19.4669 6.57259 19.1062C6.91735 18.7455 7.32808 18.4709 7.80479 18.2826C8.2815 18.0942 8.81141 18 9.39452 18C10.2032 18 10.8672 18.1242 11.3865 18.3727C11.9057 18.6172 12.3016 18.9579 12.574 19.3948C12.8506 19.8277 13.0209 20.3246 13.0847 20.8858H11.2269C11.18 20.5892 11.0907 20.3307 10.9587 20.1102C10.8268 19.8898 10.6374 19.7174 10.3905 19.5932C10.1479 19.4689 9.83292 19.4068 9.4456 19.4068C9.12638 19.4068 8.8412 19.4689 8.59008 19.5932C8.34321 19.7134 8.13466 19.8918 7.9644 20.1283C7.79415 20.3647 7.66433 20.6573 7.57495 21.006C7.48557 21.3547 7.44088 21.7595 7.44088 22.2204V22.7796C7.44088 23.2365 7.4877 23.6413 7.58134 23.994C7.67497 24.3427 7.8133 24.6373 7.99633 24.8778C8.1836 25.1142 8.41344 25.2926 8.68585 25.4128C8.95825 25.5331 9.27535 25.5932 9.63713 25.5932C9.93933 25.5932 10.1905 25.5691 10.3905 25.521C10.5948 25.4729 10.7587 25.4148 10.8821 25.3467C11.0098 25.2745 11.1077 25.2064 11.1758 25.1423V23.5912H9.42645V22.3046H13.0911Z" fill="#1F1F1F"/>
<path d="M14.2439 18.1263H17.7107C18.4215 18.1263 19.0323 18.2265 19.543 18.4269C20.058 18.6273 20.4539 18.9238 20.7305 19.3166C21.0072 19.7094 21.1455 20.1924 21.1455 20.7655C21.1455 21.2345 21.0604 21.6373 20.8901 21.9739C20.7241 22.3066 20.4879 22.5852 20.1815 22.8096C19.8793 23.0301 19.5239 23.2064 19.1153 23.3387L18.5087 23.6393H15.4953L15.4825 22.2325H17.7234C18.0597 22.2325 18.3385 22.1764 18.5598 22.0641C18.7811 21.9519 18.9471 21.7956 19.0578 21.5952C19.1727 21.3948 19.2302 21.1623 19.2302 20.8978C19.2302 20.6172 19.1748 20.3747 19.0642 20.1703C18.9535 19.9659 18.7854 19.8096 18.5598 19.7014C18.3342 19.5932 18.0512 19.5391 17.7107 19.5391H16.1592V26.8798H14.2439V18.1263ZM19.4409 26.8798L17.3212 22.978L19.3451 22.9659L21.4903 26.7956V26.8798H19.4409Z" fill="#1F1F1F"/>
<path d="M24.2647 18.1263V26.8798H22.3558V18.1263H24.2647Z" fill="#1F1F1F"/>
<path d="M29.3056 23.0381H26.9178L26.9051 21.7996H28.9098C29.2631 21.7996 29.5525 21.7575 29.7781 21.6733C30.0037 21.5852 30.1718 21.4589 30.2824 21.2946C30.3974 21.1263 30.4548 20.9218 30.4548 20.6814C30.4548 20.4088 30.3995 20.1884 30.2888 20.02C30.1824 19.8517 30.0143 19.7295 29.7845 19.6533C29.5589 19.5772 29.2673 19.5391 28.9098 19.5391H27.5818V26.8798H25.6665V18.1263H28.9098C29.4503 18.1263 29.9334 18.1743 30.3591 18.2705C30.7889 18.3667 31.1529 18.513 31.4508 18.7094C31.7487 18.9058 31.9765 19.1543 32.1339 19.4549C32.2914 19.7515 32.3702 20.1042 32.3702 20.513C32.3702 20.8737 32.2829 21.2064 32.1084 21.511C31.9381 21.8156 31.6679 22.0641 31.2976 22.2565C30.9315 22.4489 30.4527 22.5551 29.8611 22.5752L29.3056 23.0381ZM29.2226 26.8798H26.3943L27.1413 25.4729H29.2226C29.5589 25.4729 29.8334 25.4228 30.0462 25.3226C30.259 25.2184 30.4165 25.0782 30.5187 24.9018C30.6208 24.7255 30.6719 24.523 30.6719 24.2946C30.6719 24.0381 30.6251 23.8156 30.5314 23.6273C30.4421 23.4389 30.2973 23.2946 30.0973 23.1944C29.8972 23.0902 29.6334 23.0381 29.3056 23.0381H27.4605L27.4733 21.7996H29.7717L30.2122 22.2866C30.7783 22.2786 31.2337 22.3727 31.5785 22.5691C31.9275 22.7615 32.1808 23.012 32.3382 23.3206C32.5 23.6293 32.5809 23.9599 32.5809 24.3126C32.5809 24.8737 32.451 25.3467 32.1914 25.7315C31.9318 26.1122 31.5508 26.3988 31.0486 26.5912C30.5506 26.7836 29.9419 26.8798 29.2226 26.8798Z" fill="#1F1F1F"/>
<path d="M35.6617 18.1263V26.8798H33.7528V18.1263H35.6617Z" fill="#1F1F1F"/>
<path d="M43.2309 25.5271V26.8798H36.872V25.7255L39.8791 22.6894C40.1813 22.3727 40.4196 22.0942 40.5941 21.8537C40.7686 21.6092 40.8942 21.3908 40.9708 21.1984C41.0517 21.002 41.0921 20.8156 41.0921 20.6393C41.0921 20.3747 41.0453 20.1483 40.9517 19.9599C40.858 19.7675 40.7197 19.6192 40.5367 19.515C40.3579 19.4108 40.1366 19.3587 39.8727 19.3587C39.5918 19.3587 39.3491 19.4228 39.1448 19.5511C38.9448 19.6794 38.7916 19.8577 38.6852 20.0862C38.583 20.3146 38.5319 20.5731 38.5319 20.8617H36.6868C36.6868 20.3407 36.8188 19.8637 37.0827 19.4309C37.3466 18.994 37.719 18.6473 38.1999 18.3908C38.6809 18.1303 39.2513 18 39.911 18C40.5622 18 41.1113 18.1002 41.5582 18.3006C42.0093 18.497 42.3498 18.7816 42.5797 19.1543C42.8138 19.523 42.9308 19.9639 42.9308 20.477C42.9308 20.7655 42.8819 21.0481 42.784 21.3246C42.6861 21.5972 42.5456 21.8697 42.3626 22.1423C42.1839 22.4108 41.9668 22.6834 41.7114 22.9599C41.456 23.2365 41.173 23.523 40.8623 23.8196L39.247 25.5271H43.2309Z" fill="#1F1F1F"/>
<path d="M50.5 23.6092V24.9679H43.8027L43.7133 23.9158L47.5887 18.1263H49.0507L47.4674 20.6212L45.5393 23.6092H50.5ZM49.4466 18.1263V26.8798H47.6078V18.1263H49.4466Z" fill="#1F1F1F"/>
</g>
<defs>
<clipPath id="clip0_685_3264">
<rect width="55" height="46" fill="white" transform="translate(0.5)"/>
</clipPath>
</defs>
</svg>
