<svg width="350" height="215" viewBox="0 0 350 215" fill="none" xmlns="http://www.w3.org/2000/svg">
<path d="M104.358 36.2703L46.5596 212.087H0L78.9616 0H108.59L104.358 36.2703ZM152.377 212.087L94.4329 36.2703L89.7623 0H119.683L199.083 212.087H152.377ZM149.75 133.137V167.368H37.5104V133.137H149.75Z" fill="black"/>
<path d="M301.397 176.545V106.335C301.397 101.285 300.57 96.9636 298.916 93.3706C297.262 89.6804 294.683 86.8157 291.18 84.7764C287.775 82.7371 283.347 81.7175 277.898 81.7175C273.228 81.7175 269.19 82.5429 265.784 84.1938C262.378 85.7475 259.751 88.0296 257.902 91.04C256.054 93.9533 255.129 97.4006 255.129 101.382H213.094C213.094 94.6816 214.651 88.3209 217.765 82.3001C220.879 76.2794 225.403 70.9869 231.339 66.4228C237.274 61.7615 244.329 58.1199 252.502 55.498C260.773 52.876 270.017 51.565 280.234 51.565C292.494 51.565 303.392 53.6043 312.927 57.6829C322.463 61.7615 329.956 67.8794 335.405 76.0366C340.951 84.1938 343.724 94.3902 343.724 106.626V174.068C343.724 182.711 344.259 189.8 345.329 195.335C346.4 200.773 347.957 205.532 350 209.61V212.087H307.527C305.484 207.814 303.927 202.473 302.857 196.064C301.884 189.557 301.397 183.051 301.397 176.545ZM306.943 116.094L307.235 139.837H283.736C278.19 139.837 273.374 140.469 269.287 141.731C265.2 142.993 261.843 144.79 259.216 147.121C256.589 149.354 254.643 151.976 253.378 154.986C252.21 157.997 251.626 161.299 251.626 164.892C251.626 168.485 252.453 171.738 254.108 174.651C255.762 177.467 258.146 179.701 261.259 181.352C264.373 182.905 268.022 183.682 272.206 183.682C278.531 183.682 284.028 182.42 288.699 179.895C293.369 177.37 296.97 174.263 299.5 170.572C302.127 166.882 303.489 163.386 303.586 160.085L314.679 177.856C313.122 181.837 310.981 185.964 308.257 190.237C305.63 194.51 302.273 198.54 298.186 202.327C294.099 206.017 289.185 209.076 283.445 211.504C277.704 213.835 270.892 215 263.011 215C252.989 215 243.891 213.009 235.717 209.028C227.641 204.949 221.219 199.365 216.451 192.276C211.781 185.09 209.445 176.933 209.445 167.805C209.445 159.551 211.002 152.219 214.116 145.81C217.23 139.4 221.803 134.011 227.836 129.641C233.966 125.174 241.604 121.824 250.751 119.59C259.897 117.259 270.503 116.094 282.569 116.094H306.943Z" fill="black"/>
</svg>
