<svg width="951" height="518" viewBox="0 0 951 518" fill="none" xmlns="http://www.w3.org/2000/svg">
<path opacity="0.05" d="M180.643 107.194V93.7258H172.214C167.538 93.7258 167.062 93.2663 167.062 88.6779V47.1068H180.651V33.9427H167.062V13.7863L137.698 33.9427V47.1068H148.155V94.1783C148.155 105.342 150.659 107.187 162.212 107.187H180.643V107.194ZM213.882 107.201V49.7581C213.882 48.6834 214.503 47.9199 215.441 47.9199H226.533C228.72 47.9199 229.03 48.238 229.03 50.5216V107.201H247.612V49.7581C247.612 48.6834 248.24 47.9199 249.33 47.9199H260.27C262.608 47.9199 262.926 48.238 262.926 50.5216V107.201H281.357V43.5507C281.357 37.1241 271.203 33.1438 264.023 33.1438C258.083 33.1438 251.524 34.6709 247.309 39.4148C243.088 34.5153 237.466 33.1438 231.216 33.1438C225.126 33.1438 219.966 34.2113 213.882 39.1108V33.9497H195.452V107.194H213.882V107.201ZM321.026 93.7258C316.357 93.7258 316.032 93.7259 316.032 89.1375V75.5279C316.032 70.9395 316.191 70.791 320.874 70.791H331.338V93.7329H321.026V93.7258ZM349.921 107.194V46.9584C349.921 35.7879 347.243 33.9497 335.863 33.9497H317.901L298.72 47.1139H327.275C331.338 47.1139 331.338 47.1422 331.338 51.0872V57.6269H310.728C299.643 57.6269 297.608 59.9317 297.608 70.6355V94.1854C297.608 105.349 300.264 107.194 311.666 107.194H349.921ZM385.281 107.201V49.7581C385.281 48.6834 385.902 47.9199 386.84 47.9199H397.932C400.119 47.9199 400.429 48.231 400.429 50.5216V107.201H419.011V43.4022C419.011 36.9757 409.334 33.1508 402.146 33.1508C396.056 33.1508 391.365 34.2184 385.274 39.1178V33.9568H366.843V107.201H385.281ZM461.091 16.0699C461.091 13.4682 461.87 12.8602 464.367 12.8602H470.263C472.767 12.8602 473.546 13.5036 473.546 16.0699V42.0377L490.729 30.2522V9.33937C490.729 1.53419 487.106 0.00707682 479.796 0.00707682H452.503C445.193 0.00707682 441.729 1.56247 441.729 9.33937C441.729 17.2718 441.736 25.2113 441.736 33.1438C441.736 39.2663 444.551 44.6182 450.634 44.7738C444.551 44.9293 438.063 49.6732 438.092 55.7887L438.258 92.5169C438.308 103.532 442.003 107.208 453.095 107.208C463.739 107.208 474.34 107.194 484.985 107.194C493.125 107.194 497.166 104.995 498.811 99.509L506.194 108L521.161 97.7345L499.648 73.0039V60.0165L492.576 64.8665L461.148 28.7321L461.091 16.0699ZM462.13 92.6724C458.392 92.6724 457.62 92.2129 457.605 88.0841L457.244 51.7306L482.278 80.5263L482.444 88.0699C482.538 92.1987 481.665 92.6583 477.92 92.6583C472.644 92.6583 467.383 92.6724 462.13 92.6724ZM574.743 107.194V93.1178H551.311C548.98 93.1178 547.876 92.3472 547.876 89.9081V50.3236C547.876 47.7219 548.656 47.1139 551.153 47.1139H558.492C560.996 47.1139 561.775 47.736 561.775 50.3236V68.2954L578.951 56.5098V43.2891C578.951 35.4839 575.357 33.9497 568.018 33.9497H540.371C533.039 33.9497 529.597 35.4839 529.597 43.2891V98.0102C529.597 105.66 533.032 107.194 540.371 107.194H574.743ZM93.2299 51.6104C93.2299 56.0715 93.2299 60.5326 93.2299 65.0008C93.266 69.066 93.8361 69.4973 98.2309 69.4973H103.701C108.089 69.4973 108.666 69.066 108.695 65.0008C108.695 60.5397 108.695 56.0786 108.695 51.6104C108.659 47.5452 108.089 47.1139 103.701 47.1139H98.2309C93.8361 47.1139 93.2588 47.5381 93.2299 51.6104ZM93.2299 82.6544V89.1375C93.2299 93.5774 93.699 94.0369 98.2309 94.0369H124.441V107.201H88.7052C77.3247 107.201 74.8062 105.349 74.8062 94.1925C74.8062 78.4478 74.8062 62.7101 74.8062 46.9654C74.8062 35.8586 77.2526 33.9568 88.7052 33.9568H113.227C124.679 33.9568 127.126 35.8586 127.126 46.9654V69.6528C127.126 80.7596 124.679 82.6615 113.227 82.6615H93.2299V82.6544ZM625.562 51.6104C625.533 47.5452 624.956 47.1139 620.561 47.1139C618.742 47.1139 616.917 47.1139 615.098 47.1139C610.703 47.1139 610.133 47.5452 610.097 51.6104V89.5405C610.133 93.6057 610.703 94.0369 615.098 94.0369C616.917 94.0369 618.742 94.0369 620.561 94.0369C624.956 94.0369 625.526 93.6057 625.562 89.5405V51.6104ZM591.666 46.9584C591.666 35.8516 594.112 33.9497 605.572 33.9497C613.748 33.9497 621.918 33.9497 630.094 33.9497C641.554 33.9497 644 35.8516 644 46.9584V94.1854C644 105.292 641.554 107.194 630.094 107.194C621.918 107.194 613.748 107.194 605.572 107.194C594.112 107.194 591.666 105.292 591.666 94.1854V46.9584ZM57.8619 107.194V30.2522L31.8969 48.0825V61.3315H38.8103V92.6512H26.2392C20.1701 92.6512 19.2103 92.4957 19.2103 87.9073V20.0362C19.2103 15.4478 20.3072 14.3802 26.5495 14.3802H55.3144V0H18.4309C6.89175 0 0 3.07543 0 14.3802V92.9552C0 104.267 7.96701 107.187 19.5206 107.187C32.0412 107.194 45.3485 107.194 57.8619 107.194Z" fill="white"/>
<path opacity="0.05" d="M676.871 318.194V304.726H671.885C669.118 304.726 668.836 304.266 668.836 299.678V258.107H676.876V244.943H668.836V224.786L651.464 244.943V258.107H657.65V305.178C657.65 316.342 659.132 318.187 665.967 318.187H676.871V318.194ZM696.536 318.201V260.758C696.536 259.683 696.903 258.92 697.458 258.92H704.02C705.314 258.92 705.497 259.238 705.497 261.522V318.201H716.491V260.758C716.491 259.683 716.863 258.92 717.507 258.92H723.98C725.363 258.92 725.551 259.238 725.551 261.522V318.201H736.455V254.551C736.455 248.124 730.448 244.144 726.2 244.144C722.686 244.144 718.805 245.671 716.312 250.415C713.814 245.515 710.488 244.144 706.791 244.144C703.188 244.144 700.135 245.211 696.536 250.111V244.95H685.632V318.194H696.536V318.201ZM759.924 304.726C757.161 304.726 756.969 304.726 756.969 300.137V286.528C756.969 281.94 757.063 281.791 759.834 281.791H766.025V304.733H759.924V304.726ZM777.018 318.194V257.958C777.018 246.788 775.434 244.95 768.701 244.95H758.075L746.727 258.114H763.621C766.025 258.114 766.025 258.142 766.025 262.087V268.627H753.831C747.273 268.627 746.069 270.932 746.069 281.636V305.185C746.069 316.349 747.641 318.194 754.386 318.194H777.018ZM797.938 318.201V260.758C797.938 259.683 798.305 258.92 798.86 258.92H805.422C806.716 258.92 806.9 259.231 806.9 261.522V318.201H817.893V254.402C817.893 247.976 812.168 244.151 807.916 244.151C804.312 244.151 801.537 245.218 797.934 250.118V244.957H787.03V318.201H797.938ZM842.788 227.07C842.788 224.468 843.249 223.86 844.726 223.86H848.215C849.696 223.86 850.157 224.504 850.157 227.07V253.038L860.323 241.252V220.339C860.323 212.534 858.179 211.007 853.854 211.007H837.708C833.383 211.007 831.333 212.562 831.333 220.339C831.333 228.272 831.338 236.211 831.338 244.144C831.338 250.266 833.003 255.618 836.602 255.774C833.003 255.929 829.165 260.673 829.182 266.789L829.28 303.517C829.31 314.532 831.496 318.208 838.058 318.208C844.355 318.208 850.627 318.194 856.924 318.194C861.74 318.194 864.131 315.995 865.104 310.509L869.472 319L878.327 308.734L865.599 284.004V271.017L861.415 275.866L842.822 239.732L842.788 227.07ZM843.403 303.672C841.191 303.672 840.735 303.213 840.726 299.084L840.513 262.731L855.323 291.526L855.421 299.07C855.477 303.199 854.96 303.658 852.744 303.658C849.623 303.658 846.511 303.672 843.403 303.672ZM910.027 318.194V304.118H896.164C894.785 304.118 894.132 303.347 894.132 300.908V261.324C894.132 258.722 894.593 258.114 896.07 258.114H900.412C901.894 258.114 902.355 258.736 902.355 261.324V279.295L912.516 267.51V254.289C912.516 246.484 910.39 244.95 906.048 244.95H889.692C885.354 244.95 883.317 246.484 883.317 254.289V309.01C883.317 316.66 885.35 318.194 889.692 318.194H910.027ZM625.156 262.61C625.156 267.071 625.156 271.533 625.156 276.001C625.178 280.066 625.515 280.497 628.115 280.497H631.351C633.947 280.497 634.288 280.066 634.305 276.001C634.305 271.54 634.305 267.079 634.305 262.61C634.284 258.545 633.947 258.114 631.351 258.114H628.115C625.515 258.114 625.173 258.538 625.156 262.61ZM625.156 293.654V300.137C625.156 304.577 625.434 305.037 628.115 305.037H643.621V318.201H622.479C615.746 318.201 614.256 316.349 614.256 305.192C614.256 289.448 614.256 273.71 614.256 257.965C614.256 246.859 615.704 244.957 622.479 244.957H636.987C643.762 244.957 645.21 246.859 645.21 257.965V280.653C645.21 291.76 643.762 293.661 636.987 293.661H625.156V293.654ZM940.092 262.61C940.075 258.545 939.733 258.114 937.133 258.114C936.057 258.114 934.977 258.114 933.901 258.114C931.301 258.114 930.964 258.545 930.942 262.61V300.54C930.964 304.606 931.301 305.037 933.901 305.037C934.977 305.037 936.057 305.037 937.133 305.037C939.733 305.037 940.07 304.606 940.092 300.54V262.61ZM920.038 257.958C920.038 246.852 921.486 244.95 928.266 244.95C933.103 244.95 937.936 244.95 942.773 244.95C949.553 244.95 951 246.852 951 257.958V305.185C951 316.292 949.553 318.194 942.773 318.194C937.936 318.194 933.103 318.194 928.266 318.194C921.486 318.194 920.038 316.292 920.038 305.185V257.958ZM604.232 318.194V241.252L588.871 259.082V272.331H592.961V303.651H585.523C581.933 303.651 581.365 303.496 581.365 298.907V231.036C581.365 226.448 582.014 225.38 585.707 225.38H602.725V211H580.904C574.077 211 570 214.075 570 225.38V303.955C570 315.267 574.713 318.187 581.549 318.187C588.956 318.194 596.829 318.194 604.232 318.194Z" fill="white"/>
<path opacity="0.05" d="M310.643 517.298V505.576H302.214C297.538 505.576 297.062 505.176 297.062 501.183V465H310.651V453.543H297.062V435.999L267.698 453.543V465H278.155V505.97C278.155 515.686 280.659 517.292 292.212 517.292H310.643V517.298ZM343.882 517.305V467.308C343.882 466.373 344.503 465.708 345.441 465.708H356.533C358.72 465.708 359.03 465.985 359.03 467.973V517.305H377.612V467.308C377.612 466.373 378.24 465.708 379.33 465.708H390.27C392.608 465.708 392.926 465.985 392.926 467.973V517.305H411.357V461.905C411.357 456.312 401.203 452.847 394.023 452.847C388.083 452.847 381.524 454.176 377.309 458.305C373.088 454.041 367.466 452.847 361.216 452.847C355.126 452.847 349.966 453.777 343.882 458.041V453.549H325.452V517.298H343.882V517.305ZM451.026 505.576C446.357 505.576 446.032 505.576 446.032 501.583V489.737C446.032 485.744 446.191 485.614 450.874 485.614H461.338V505.582H451.026V505.576ZM479.921 517.298V464.871C479.921 455.149 477.243 453.549 465.863 453.549H447.901L428.72 465.007H457.275C461.338 465.007 461.338 465.031 461.338 468.465V474.157H440.728C429.643 474.157 427.608 476.163 427.608 485.479V505.976C427.608 515.692 430.264 517.298 441.666 517.298H479.921ZM515.281 517.305V467.308C515.281 466.373 515.902 465.708 516.84 465.708H527.932C530.119 465.708 530.429 465.979 530.429 467.973V517.305H549.011V461.776C549.011 456.183 539.334 452.854 532.146 452.854C526.056 452.854 521.365 453.783 515.274 458.047V453.555H496.843V517.305H515.281ZM591.091 437.987C591.091 435.722 591.87 435.193 594.367 435.193H600.263C602.767 435.193 603.546 435.753 603.546 437.987V460.588L620.729 450.331V432.129C620.729 425.335 617.106 424.006 609.796 424.006H582.503C575.193 424.006 571.729 425.36 571.729 432.129C571.729 439.033 571.736 445.943 571.736 452.847C571.736 458.176 574.551 462.834 580.634 462.97C574.551 463.105 568.063 467.234 568.092 472.557L568.258 504.524C568.308 514.111 572.003 517.311 583.095 517.311C593.739 517.311 604.34 517.298 614.985 517.298C623.125 517.298 627.166 515.385 628.811 510.61L636.194 518L651.161 509.065L629.648 487.54V476.237L622.576 480.458L591.148 449.008L591.091 437.987ZM592.13 504.659C588.392 504.659 587.62 504.259 587.605 500.666L587.244 469.025L612.278 494.088L612.444 500.653C612.538 504.247 611.665 504.647 607.92 504.647C602.644 504.647 597.383 504.659 592.13 504.659ZM704.743 517.298V505.047H681.311C678.98 505.047 677.876 504.376 677.876 502.253V467.8C677.876 465.536 678.656 465.007 681.153 465.007H688.492C690.996 465.007 691.775 465.548 691.775 467.8V483.442L708.951 473.184V461.678C708.951 454.884 705.357 453.549 698.018 453.549H670.371C663.039 453.549 659.597 454.884 659.597 461.678V509.305C659.597 515.963 663.032 517.298 670.371 517.298H704.743ZM223.23 468.92C223.23 472.803 223.23 476.686 223.23 480.575C223.266 484.113 223.836 484.488 228.231 484.488H233.701C238.089 484.488 238.666 484.113 238.695 480.575C238.695 476.692 238.695 472.809 238.695 468.92C238.659 465.382 238.089 465.007 233.701 465.007H228.231C223.836 465.007 223.259 465.376 223.23 468.92ZM223.23 495.94V501.583C223.23 505.447 223.699 505.847 228.231 505.847H254.441V517.305H218.705C207.325 517.305 204.806 515.692 204.806 505.982C204.806 492.279 204.806 478.581 204.806 464.877C204.806 455.21 207.253 453.555 218.705 453.555H243.227C254.679 453.555 257.126 455.21 257.126 464.877V484.624C257.126 494.291 254.679 495.946 243.227 495.946H223.23V495.94ZM755.562 468.92C755.533 465.382 754.956 465.007 750.561 465.007C748.742 465.007 746.917 465.007 745.098 465.007C740.703 465.007 740.133 465.382 740.097 468.92V501.933C740.133 505.472 740.703 505.847 745.098 505.847C746.917 505.847 748.742 505.847 750.561 505.847C754.956 505.847 755.526 505.472 755.562 501.933V468.92ZM721.666 464.871C721.666 455.204 724.112 453.549 735.572 453.549C743.748 453.549 751.918 453.549 760.094 453.549C771.554 453.549 774 455.204 774 464.871V505.976C774 515.643 771.554 517.298 760.094 517.298C751.918 517.298 743.748 517.298 735.572 517.298C724.112 517.298 721.666 515.643 721.666 505.976V464.871ZM187.862 517.298V450.331L161.897 465.85V477.381H168.81V504.641H156.239C150.17 504.641 149.21 504.506 149.21 500.512V441.439C149.21 437.445 150.307 436.516 156.549 436.516H185.314V424H148.431C136.892 424 130 426.677 130 436.516V504.905C130 514.751 137.967 517.292 149.521 517.292C162.041 517.299 175.348 517.298 187.862 517.298Z" fill="white"/>
</svg>
