<svg width="407" height="71" viewBox="0 0 407 71" fill="none" xmlns="http://www.w3.org/2000/svg">
<path d="M0 0L5.65156 2.21977L15.8269 0L26.0007 2.21977L31.6523 0V6.6562H0V0ZM33.9126 41.0471V71L0 37.7174V11.0942H31.6523V22.1884H11.3047V33.1296L22.6094 44.2238V31.1424L18.0872 29.9529V26.6248H31.6523L37 41.0471H33.9126Z" fill="#FF7B31"/>
<path d="M147.981 65.5448V57.9377H143.269C140.655 57.9377 140.389 57.6782 140.389 55.0866V31.6066H147.985V24.1713H140.389V12.7867L123.974 24.1713V31.6066H129.819V58.1933C129.819 64.4986 131.219 65.5408 137.678 65.5408H147.981V65.5448ZM166.562 65.5488V33.1041C166.562 32.4971 166.909 32.0659 167.433 32.0659H173.633C174.856 32.0659 175.029 32.2456 175.029 33.5354V65.5488H185.417V33.1041C185.417 32.4971 185.768 32.0659 186.377 32.0659H192.493C193.8 32.0659 193.977 32.2456 193.977 33.5354V65.5488H204.28V29.5981C204.28 25.9683 198.604 23.7201 194.59 23.7201C191.27 23.7201 187.603 24.5826 185.247 27.262C182.887 24.4948 179.745 23.7201 176.251 23.7201C172.847 23.7201 169.962 24.3231 166.562 27.0903V24.1753H156.259V65.5448H166.562V65.5488ZM226.455 57.9377C223.845 57.9377 223.664 57.9377 223.664 55.3462V47.6593C223.664 45.0677 223.753 44.9838 226.371 44.9838H232.22V57.9417H226.455V57.9377ZM242.608 65.5448V31.5228C242.608 25.2136 241.111 24.1753 234.749 24.1753H224.709L213.986 31.6106H229.949C232.22 31.6106 232.22 31.6266 232.22 33.8548V37.5485H220.699C214.502 37.5485 213.365 38.8503 213.365 44.896V58.1973C213.365 64.5026 214.849 65.5448 221.223 65.5448H242.608ZM262.375 65.5488V33.1041C262.375 32.4971 262.722 32.0659 263.246 32.0659H269.446C270.669 32.0659 270.842 32.2416 270.842 33.5354V65.5488H281.23V29.5142C281.23 25.8844 275.82 23.7241 271.802 23.7241C268.398 23.7241 265.775 24.3271 262.371 27.0943V24.1793H252.068V65.5488H262.375ZM304.753 14.0765C304.753 12.607 305.188 12.2636 306.584 12.2636H309.88C311.28 12.2636 311.715 12.627 311.715 14.0765V28.7435L321.32 22.0869V10.275C321.32 5.86653 319.295 5.004 315.209 5.004H299.952C295.866 5.004 293.929 5.8825 293.929 10.275C293.929 14.7554 293.933 19.2397 293.933 23.7201C293.933 27.1782 295.507 30.201 298.907 30.2889C295.507 30.3767 291.88 33.0562 291.896 36.5103L291.989 57.2549C292.017 63.4763 294.082 65.5528 300.283 65.5528C306.233 65.5528 312.159 65.5448 318.109 65.5448C322.66 65.5448 324.919 64.3029 325.839 61.2042L329.965 66L338.332 60.2019L326.307 46.2337V38.8982L322.353 41.6375L304.785 21.2283L304.753 14.0765ZM305.333 57.3428C303.244 57.3428 302.812 57.0832 302.804 54.7512L302.602 34.2182L316.597 50.4825L316.689 54.7432C316.742 57.0752 316.254 57.3348 314.16 57.3348C311.211 57.3348 308.27 57.3428 305.333 57.3428ZM368.285 65.5448V57.5943H355.186C353.883 57.5943 353.266 57.1591 353.266 55.7814V33.4235C353.266 31.954 353.702 31.6106 355.098 31.6106H359.2C360.6 31.6106 361.036 31.962 361.036 33.4235V43.5742L370.637 36.9176V29.4503C370.637 25.0418 368.628 24.1753 364.525 24.1753H349.071C344.972 24.1753 343.048 25.0418 343.048 29.4503V60.3576C343.048 64.6783 344.968 65.5448 349.071 65.5448H368.285ZM99.1161 34.1503C99.1161 36.67 99.1161 39.1897 99.1161 41.7134C99.1363 44.0095 99.4549 44.2531 101.912 44.2531H104.97C107.422 44.2531 107.745 44.0095 107.761 41.7134C107.761 39.1937 107.761 36.674 107.761 34.1503C107.741 31.8542 107.422 31.6106 104.97 31.6106H101.912C99.4549 31.6106 99.1322 31.8502 99.1161 34.1503ZM99.1161 51.6844V55.3462C99.1161 57.8539 99.3783 58.1134 101.912 58.1134H116.563V65.5488H96.5867C90.225 65.5488 88.8171 64.5026 88.8171 58.2013C88.8171 49.3085 88.8171 40.4196 88.8171 31.5268C88.8171 25.2535 90.1847 24.1793 96.5867 24.1793H110.294C116.697 24.1793 118.064 25.2535 118.064 31.5268V44.3409C118.064 50.6142 116.697 51.6884 110.294 51.6884H99.1161V51.6844ZM396.693 34.1503C396.677 31.8542 396.354 31.6106 393.897 31.6106C392.881 31.6106 391.86 31.6106 390.844 31.6106C388.387 31.6106 388.068 31.8542 388.048 34.1503V55.5738C388.068 57.8699 388.387 58.1134 390.844 58.1134C391.86 58.1134 392.881 58.1134 393.897 58.1134C396.354 58.1134 396.673 57.8699 396.693 55.5738V34.1503ZM377.745 31.5228C377.745 25.2495 379.113 24.1753 385.519 24.1753C390.089 24.1753 394.656 24.1753 399.226 24.1753C405.632 24.1753 407 25.2495 407 31.5228V58.1973C407 64.4706 405.632 65.5448 399.226 65.5448C394.656 65.5448 390.089 65.5448 385.519 65.5448C379.113 65.5448 377.745 64.4706 377.745 58.1973V31.5228ZM79.3451 65.5448V22.0869L64.8306 32.1577V39.6409H68.6952V57.3308H61.6679C58.2752 57.3308 57.7387 57.2429 57.7387 54.6514V16.3167C57.7387 13.7251 58.3519 13.1222 61.8413 13.1222H77.9211V5H57.303C50.8525 5 47 6.73705 47 13.1222V57.5025C47 63.8916 51.4536 65.5408 57.9121 65.5408C64.9113 65.5448 72.3501 65.5448 79.3451 65.5448Z" fill="#FF7B31"/>
</svg>
