<svg width="202" height="144" viewBox="0 0 202 144" fill="none" xmlns="http://www.w3.org/2000/svg">
<g clip-path="url(#clip0_372_2728)">
<path fill-rule="evenodd" clip-rule="evenodd" d="M83.0955 3.15771L75 0V9.46868H120.34V0L112.244 3.15771L97.671 0L83.0955 3.15771ZM123.577 101V58.3909H128L120.34 37.8747H100.909V42.6091L107.386 44.3012V62.9099L91.1932 47.128V31.5638H120.34V15.7819H75V53.6544L123.577 101ZM56.6614 139.506V143.744H50.8803C47.2563 143.744 46.4709 143.163 46.4709 139.649V124.83H43.191V120.686L52.4014 114.34V120.686H56.6637V124.83H52.4014V137.917C52.4014 139.362 52.5508 139.506 54.0176 139.506H56.6614ZM67.0874 125.665V143.746H61.3062V120.688H67.0874V122.313C68.9955 120.77 70.614 120.434 72.5244 120.434C74.4847 120.434 76.248 120.866 77.5722 122.408C78.8941 120.915 80.9517 120.434 82.8146 120.434C85.0668 120.434 88.2516 121.687 88.2516 123.71V143.748H82.4705V125.905C82.4705 125.186 82.3709 125.086 81.6375 125.086H78.206C77.8642 125.086 77.6672 125.326 77.6672 125.665V143.748H71.8386V125.905C71.8386 125.186 71.7412 125.086 71.0554 125.086H67.5763C67.282 125.086 67.0874 125.326 67.0874 125.665ZM99.128 138.062C99.128 139.506 99.2299 139.506 100.694 139.506V139.509H103.929V132.286H100.647C99.1778 132.286 99.128 132.333 99.128 133.777V138.062ZM109.758 124.783V143.746H97.7586C94.1822 143.746 93.3492 143.165 93.3492 139.651V132.237C93.3492 128.867 93.9875 128.142 97.4643 128.142H103.929V126.083C103.929 124.841 103.929 124.832 102.655 124.832H93.6978L99.7143 120.688H105.348C108.918 120.688 109.758 121.267 109.758 124.783ZM120.849 125.665V143.748H115.066V120.69H120.847V122.315C122.757 120.772 124.229 120.436 126.139 120.436C128.394 120.436 131.429 121.64 131.429 123.664V143.748H125.6V125.905C125.6 125.184 125.503 125.086 124.817 125.086H121.338C121.044 125.086 120.849 125.326 120.849 125.665ZM145.656 114.049C144.872 114.049 144.628 114.24 144.628 115.059L144.646 119.045L154.504 130.421L156.722 128.894V132.983L163.47 140.768L158.775 144L156.459 141.327C155.943 143.054 154.676 143.746 152.122 143.746C150.453 143.746 148.787 143.747 147.121 143.748C145.455 143.75 143.789 143.751 142.12 143.751C138.641 143.751 137.482 142.593 137.466 139.126L137.414 127.563C137.405 125.638 139.44 124.144 141.348 124.095C139.44 124.046 138.557 122.362 138.557 120.434C138.557 119.186 138.556 117.936 138.556 116.687C138.555 115.438 138.555 114.189 138.555 112.94C138.555 110.492 139.641 110.002 141.934 110.002H150.495C152.788 110.002 153.924 110.483 153.924 112.94V119.524L148.535 123.234V115.059C148.535 114.251 148.29 114.049 147.505 114.049H145.656ZM143.535 137.73C143.539 139.03 143.781 139.175 144.954 139.175C145.777 139.175 146.601 139.174 147.425 139.172C148.251 139.171 149.078 139.17 149.906 139.17C151.081 139.17 151.355 139.026 151.326 137.726L151.274 135.351L143.421 126.286L143.535 137.73ZM180.277 139.315V143.746H169.495C167.193 143.746 166.116 143.263 166.116 140.855V123.628C166.116 121.171 167.196 120.688 169.495 120.688H178.167C180.469 120.688 181.596 121.171 181.596 123.628V127.79L176.209 131.5V125.843C176.209 125.028 175.965 124.832 175.179 124.832H172.877C172.094 124.832 171.849 125.024 171.849 125.843V138.304C171.849 139.072 172.196 139.315 172.927 139.315H180.277ZM29.2429 130.463V126.248C29.252 124.966 29.4331 124.832 30.8116 124.832H32.5273C33.9036 124.832 34.0824 124.968 34.0937 126.248V130.463C34.0847 131.743 33.9036 131.879 32.5273 131.879H30.8116C29.4331 131.879 29.2542 131.743 29.2429 130.463ZM29.2429 138.062V136.023H35.5152C39.1075 136.023 39.8749 135.424 39.8749 131.928V124.785C39.8749 121.289 39.1075 120.69 35.5152 120.69H27.8237C24.2314 120.69 23.4641 121.289 23.4641 124.785V139.653C23.4641 143.165 24.254 143.748 27.8237 143.748H39.0328V139.604H30.8116C29.39 139.604 29.2429 139.46 29.2429 138.062ZM194.648 124.832C196.026 124.832 196.208 124.968 196.217 126.248V138.189C196.205 139.468 196.026 139.604 194.648 139.604H192.934C191.556 139.604 191.377 139.468 191.366 138.189V126.248C191.377 124.968 191.556 124.832 192.934 124.832H194.648ZM189.947 120.688C186.352 120.688 185.585 121.287 185.585 124.783V139.651C185.585 143.148 186.352 143.746 189.947 143.746H197.638C201.233 143.746 202 143.148 202 139.651V124.783C202 121.287 201.233 120.688 197.638 120.688H189.947ZM18.1492 119.524V143.746H18.0697C14.1678 143.746 10.0237 143.746 6.12293 143.744C2.49897 143.744 0 142.825 0 139.264V114.527C0 110.968 2.1617 110 5.78113 110H17.3502V114.527H8.32763C6.36966 114.527 6.02559 114.863 6.02559 116.308V137.675C6.02559 139.119 6.32665 139.168 8.2303 139.168H12.1734V129.308H10.0049V125.137L18.1492 119.524Z" fill="#FF7B31"/>
</g>
<defs>
<clipPath id="clip0_372_2728">
<rect width="202" height="144" fill="white"/>
</clipPath>
</defs>
</svg>
