<svg width="909" height="237" viewBox="0 0 909 237" fill="none" xmlns="http://www.w3.org/2000/svg">
<path d="M100.104 0C48.6711 0 5.52297 30.7215 5.52297 73.5245C5.52297 124.612 64.5497 136.693 104.591 144.287C126.338 148.43 145.668 153.262 145.668 164.653C145.668 177.425 128.409 182.603 107.353 182.603C85.9512 182.603 67.6563 173.973 60.7526 160.166H0V174.664C16.9141 214.36 57.3008 236.452 105.972 236.452C161.547 236.452 204.35 208.837 204.35 163.273C204.35 113.911 145.323 101.83 104.591 93.5452C84.5704 89.403 64.2045 83.88 64.2045 72.1437C64.2045 60.7526 79.0475 53.8489 99.4134 53.8489C117.708 53.8489 136.693 62.4785 142.562 75.9408H203.314V61.443C187.09 25.8889 149.465 0 100.104 0Z" fill="white"/>
<path d="M334.617 160.166C380.872 160.166 415.045 130.135 415.045 83.5349C415.045 36.9348 380.872 7.24888 334.617 7.24888H213.112V231.619H271.793V160.166H334.617ZM334.617 61.7882C347.734 61.7882 356.363 69.7274 356.363 83.5349C356.363 97.6875 347.734 105.627 334.617 105.627H271.793V61.7882H334.617Z" fill="white"/>
<path d="M417.874 231.619H476.555V7.24888H417.874V231.619Z" fill="white"/>
<path d="M708.417 20.0207V7.24888H647.665L556.881 99.7586V7.24888H498.2V231.619H556.881V170.867L585.877 142.216L654.569 231.619H719.809V218.848L629.37 104.936V98.723L708.417 20.0207Z" fill="white"/>
<path d="M804.444 0C753.011 0 709.863 30.7215 709.863 73.5245C709.863 124.612 768.89 136.693 808.931 144.287C830.678 148.43 850.008 153.262 850.008 164.653C850.008 177.425 832.749 182.603 811.693 182.603C790.291 182.603 771.996 173.973 765.093 160.166H704.34V174.664C721.254 214.36 761.641 236.452 810.312 236.452C865.887 236.452 908.69 208.837 908.69 163.273C908.69 113.911 849.663 101.83 808.931 93.5452C788.91 89.403 768.544 83.88 768.544 72.1437C768.544 60.7526 783.387 53.8489 803.753 53.8489C822.048 53.8489 841.033 62.4785 846.901 75.9408H907.654V61.443C891.43 25.8889 853.805 0 804.444 0Z" fill="white"/>
</svg>
