<svg width="135" height="66" viewBox="0 0 135 66" fill="none" xmlns="http://www.w3.org/2000/svg">
<g clip-path="url(#clip0_259_2131)">
<path d="M126.667 0H8.33333C3.73096 0 0 3.69365 0 8.25V57.75C0 62.3063 3.73096 66 8.33333 66H126.667C131.269 66 135 62.3063 135 57.75V8.25C135 3.69365 131.269 0 126.667 0Z" fill="#2E2D2B"/>
<path d="M66.6667 0H7.5V33.825H66.6667V0Z" fill="#32808D"/>
<path d="M48.8847 18.7948C48.8907 18.6276 48.8591 18.4612 48.7921 18.3077C48.7252 18.1542 48.6246 18.0175 48.4977 17.9075C48.0888 17.6107 47.6257 17.3958 47.1343 17.2746C46.2235 17.0368 45.3641 16.636 44.5982 16.0916C44.3163 15.8735 44.091 15.5918 43.9409 15.2698C43.7907 14.9477 43.7201 14.5947 43.7349 14.2402C43.7286 13.8642 43.8141 13.4924 43.9842 13.1565C44.1542 12.8207 44.4037 12.5308 44.7112 12.3118C45.4307 11.7926 46.3054 11.53 47.1938 11.5665C48.1239 11.5215 49.0397 11.8067 49.7777 12.371C50.0931 12.6214 50.3437 12.9433 50.5083 13.3096C50.673 13.676 50.7471 14.0762 50.7242 14.4768V14.5182H48.8489C48.8618 14.3143 48.8297 14.1102 48.7546 13.9201C48.6795 13.73 48.5633 13.5585 48.4143 13.418C48.0677 13.1429 47.6306 13.0059 47.1879 13.0334C46.7888 13.008 46.3943 13.1302 46.0806 13.3766C45.9535 13.4841 45.8522 13.6185 45.7842 13.7701C45.7162 13.9215 45.6832 14.0862 45.6876 14.252C45.6867 14.4094 45.7247 14.5645 45.7985 14.7038C45.8722 14.8431 45.9793 14.9621 46.1103 15.0506C46.5642 15.3395 47.0574 15.5626 47.5748 15.713C48.4591 15.9289 49.2857 16.3325 49.9979 16.8961C50.2727 17.129 50.4905 17.421 50.6349 17.75C50.7793 18.079 50.8465 18.4362 50.8314 18.7948C50.8435 19.1727 50.7612 19.5476 50.5918 19.8862C50.4225 20.2247 50.1714 20.5163 49.861 20.735C49.1076 21.2409 48.2092 21.4899 47.301 21.4448C46.3512 21.4706 45.4168 21.2018 44.6279 20.6758C44.2602 20.4203 43.9665 20.0732 43.7763 19.6693C43.5862 19.2655 43.5062 18.8191 43.5444 18.3748V18.3334H45.4197C45.4002 18.5671 45.4357 18.8022 45.5235 19.0199C45.6113 19.2375 45.7491 19.4319 45.9257 19.5874C46.3202 19.8731 46.8017 20.0151 47.2891 19.9897C47.711 20.0205 48.1309 19.9079 48.4798 19.6702C48.6129 19.5672 48.7192 19.4339 48.7896 19.2816C48.86 19.1292 48.8927 18.9623 48.8847 18.7948Z" fill="#4AC6D7"/>
<path d="M38.9597 17.2923H38.2512V21.2969H36.3163V11.7084H38.2512V15.6243H38.793L41.4363 11.7084H43.8177L40.4777 16.1684L44.0498 21.2969H41.6387L38.9597 17.2923Z" fill="#4AC6D7"/>
<path d="M35.513 21.2969H33.5782V11.7084H35.513V21.2969Z" fill="#4AC6D7"/>
<path d="M27.8448 17.8188V21.2969H25.91V11.7085H29.6012C30.5501 11.6549 31.4847 11.9566 32.2207 12.5544C32.5342 12.8314 32.7822 13.174 32.9469 13.5575C33.1116 13.9409 33.1888 14.3559 33.1732 14.7725C33.1897 15.1884 33.1127 15.6026 32.9479 15.9854C32.7832 16.368 32.5347 16.7094 32.2207 16.9848C31.4822 17.5766 30.5483 17.874 29.6012 17.8188H27.8151H27.8448ZM27.8448 16.34H29.6309C29.8547 16.3562 30.0795 16.3256 30.2907 16.2502C30.502 16.1748 30.695 16.0563 30.8573 15.9023C30.9973 15.7523 31.1062 15.5764 31.1777 15.3845C31.2492 15.1927 31.282 14.9888 31.2741 14.7843C31.2881 14.3647 31.1388 13.9559 30.8573 13.6427C30.6969 13.4854 30.5045 13.3638 30.293 13.2864C30.0815 13.2088 29.8557 13.1771 29.6309 13.1932H27.8448V16.34Z" fill="#4AC6D7"/>
<path d="M23.6652 18.7947C23.6712 18.6275 23.6396 18.4611 23.5727 18.3077C23.5057 18.1541 23.4052 18.0174 23.2782 17.9074C22.8693 17.6107 22.4063 17.3957 21.9149 17.2746C21.0041 17.0368 20.1446 16.6359 19.3787 16.0915C19.0969 15.8734 18.8716 15.5917 18.7214 15.2697C18.5713 14.9477 18.5007 14.5947 18.5155 14.2401C18.5092 13.8642 18.5947 13.4924 18.7647 13.1565C18.9347 12.8207 19.1842 12.5308 19.4918 12.3117C20.2146 11.7845 21.0964 11.5175 21.9922 11.5546C22.9223 11.5097 23.8382 11.7948 24.5761 12.3591C24.8915 12.6095 25.1421 12.9314 25.3067 13.2978C25.4714 13.6641 25.5455 14.0643 25.5227 14.4649V14.5062H23.6473C23.6603 14.3024 23.6281 14.0983 23.553 13.9082C23.4779 13.7181 23.3617 13.5467 23.2127 13.4061C22.8662 13.131 22.429 12.994 21.9863 13.0216C21.5872 12.9961 21.1928 13.1183 20.879 13.3647C20.7519 13.4723 20.6507 13.6066 20.5827 13.7581C20.5147 13.9097 20.4817 14.0743 20.4861 14.2401C20.4851 14.3975 20.5232 14.5526 20.5969 14.6918C20.6706 14.8312 20.7777 14.9502 20.9087 15.0387C21.3627 15.3276 21.8558 15.5507 22.3733 15.7012C23.2575 15.917 24.0841 16.3206 24.7963 16.8841C25.0711 17.1171 25.2889 17.4091 25.4333 17.7381C25.5777 18.0671 25.6449 18.4243 25.6298 18.7829C25.6419 19.1608 25.5596 19.5358 25.3902 19.8743C25.2209 20.2128 24.9698 20.5045 24.6594 20.7231C23.906 21.229 23.0076 21.478 22.0994 21.4329C21.1497 21.4587 20.2153 21.19 19.4263 20.6639C19.0586 20.4084 18.7649 20.0613 18.5747 19.6574C18.3846 19.2536 18.3046 18.8072 18.3428 18.3629V18.3215H20.2062C20.1867 18.5552 20.2222 18.7903 20.3101 19.008C20.3979 19.2256 20.5356 19.42 20.7122 19.5755C21.1067 19.8612 21.5882 20.0032 22.0757 19.9778C22.4975 20.0086 22.9174 19.896 23.2663 19.6583C23.3967 19.5559 23.5007 19.4242 23.5701 19.2741C23.6393 19.124 23.672 18.9597 23.6652 18.7947Z" fill="#4AC6D7"/>
<path d="M147.207 -3.33705L96.667 -32.175L77.893 -0.0376063L128.433 28.8004L147.207 -3.33705Z" fill="#2D87DB"/>
<path d="M140.834 38.1551L62.4799 17.325L49.167 66.6198L127.521 87.4499L140.834 38.1551Z" fill="#F08F3B"/>
<path d="M116.079 62.0535C116.15 61.8229 116.168 61.5794 116.133 61.3409C116.098 61.1024 116.01 60.8748 115.875 60.6748C115.419 60.1105 114.856 59.6403 114.22 59.29C113.045 58.6227 112.002 57.7471 111.143 56.7061C110.834 56.2983 110.627 55.8227 110.54 55.3188C110.452 54.8148 110.487 54.2972 110.64 53.8087C110.773 53.2828 111.032 52.7965 111.395 52.3915C111.757 51.9864 112.212 51.6748 112.722 51.4833C113.916 51.0258 115.23 50.9829 116.45 51.3617C117.758 51.6424 118.922 52.3777 119.735 53.436C120.079 53.9013 120.305 54.4421 120.396 55.0132C120.487 55.5842 120.44 56.1689 120.257 56.7184L120.241 56.7761L117.637 56.0838C117.732 55.8047 117.764 55.5085 117.731 55.216C117.699 54.9235 117.602 54.6419 117.448 54.3909C117.07 53.88 116.515 53.5277 115.89 53.4027C115.345 53.22 114.751 53.2446 114.223 53.4718C114.005 53.5747 113.815 53.7246 113.663 53.9105C113.512 54.0963 113.404 54.3135 113.348 54.546C113.287 54.7649 113.282 54.9951 113.332 55.2162C113.382 55.4374 113.485 55.6429 113.635 55.8143C114.156 56.3844 114.757 56.8772 115.419 57.2777C116.565 57.9047 117.561 58.772 118.339 59.8199C118.632 60.2458 118.825 60.7329 118.902 61.2444C118.979 61.7559 118.937 62.2783 118.781 62.7722C118.656 63.3029 118.401 63.7948 118.039 64.2039C117.676 64.6129 117.218 64.9263 116.705 65.1162C115.468 65.5427 114.126 65.558 112.883 65.1599C111.554 64.8453 110.358 64.126 109.46 63.1021C109.045 62.6104 108.768 62.0186 108.656 61.3858C108.544 60.7531 108.6 60.1019 108.821 59.4972L108.836 59.4395L111.44 60.1318C111.325 60.4501 111.286 60.7906 111.326 61.1263C111.366 61.4619 111.485 61.7833 111.671 62.0653C112.112 62.6087 112.727 62.9843 113.414 63.1288C113.988 63.3275 114.613 63.3256 115.187 63.1234C115.41 63.029 115.608 62.8826 115.763 62.6964C115.919 62.5102 116.026 62.2897 116.079 62.0535Z" fill="#D75F4A"/>
<path d="M102.862 56.297L101.878 56.0355L100.372 61.6131L97.6846 60.8988L101.292 47.544L103.979 48.2582L102.505 53.7122L103.258 53.9122L108.401 49.434L111.708 50.3131L105.393 55.292L108.424 63.7537L105.075 62.8636L102.862 56.297Z" fill="#D75F4A"/>
<path d="M96.5696 60.6022L93.8829 59.888L97.4896 46.5331L100.176 47.2474L96.5696 60.6022Z" fill="#D75F4A"/>
<path d="M87.2296 52.9272L85.9212 57.7716L83.2349 57.0573L86.8412 43.7025L91.9671 45.065C93.3046 45.3407 94.4896 46.1061 95.2862 47.2102C95.6179 47.7119 95.8329 48.2805 95.9171 48.8754C96.0021 49.4704 95.9529 50.0768 95.7746 50.6513C95.6412 51.2366 95.3787 51.7853 95.0054 52.2574C94.6329 52.7295 94.1596 53.1133 93.6196 53.381C92.3721 53.9327 90.9629 54.0022 89.6687 53.5756L87.1887 52.9162L87.2296 52.9272ZM87.7862 50.8676L90.2662 51.5269C90.5712 51.6321 90.8946 51.6724 91.2162 51.6454C91.5379 51.6183 91.8504 51.5246 92.1337 51.37C92.3846 51.2128 92.6021 51.0079 92.7737 50.7671C92.9454 50.5264 93.0671 50.2544 93.1329 49.9667C93.3104 49.3875 93.2571 48.7629 92.9837 48.2228C92.8204 47.9445 92.5987 47.7042 92.3346 47.5182C92.0696 47.332 91.7679 47.2045 91.4496 47.1439L88.9696 46.4846L87.7862 50.8676Z" fill="#D75F4A"/>
<path d="M81.059 52.7436C81.1302 52.513 81.149 52.2695 81.1137 52.031C81.0785 51.7925 80.9902 51.5649 80.8554 51.3649C80.3993 50.8006 79.8371 50.3304 79.2003 49.9802C78.0251 49.3128 76.9824 48.4371 76.1236 47.3962C75.8144 46.9884 75.6075 46.5128 75.5201 46.0088C75.4328 45.5049 75.4675 44.9872 75.6214 44.4988C75.754 43.9729 76.0126 43.4866 76.3751 43.0816C76.7376 42.6766 77.1931 42.365 77.7025 42.1734C78.9044 41.7059 80.2294 41.6595 81.4594 42.0419C82.7678 42.3226 83.9321 43.0578 84.7446 44.1162C85.0887 44.5815 85.3154 45.1223 85.4062 45.6933C85.4971 46.2644 85.4496 46.8491 85.2671 47.3986L85.2512 47.4562L82.6473 46.764C82.742 46.4849 82.7741 46.1887 82.7413 45.8962C82.7085 45.6037 82.6117 45.3221 82.4576 45.0712C82.0799 44.5602 81.5244 44.2079 80.8993 44.0829C80.3547 43.9002 79.7611 43.9248 79.2326 44.152C79.0157 44.2549 78.8246 44.4048 78.6732 44.5907C78.5218 44.7766 78.4141 44.9937 78.3577 45.2263C78.2972 45.445 78.2917 45.6752 78.3416 45.8965C78.3916 46.1176 78.4956 46.323 78.6443 46.4945C79.1659 47.0646 79.7668 47.5574 80.4287 47.9579C81.5753 48.585 82.5713 49.4523 83.3487 50.5001C83.6421 50.926 83.8346 51.4131 83.9121 51.9246C83.9887 52.4361 83.9471 52.9586 83.7912 53.4524C83.6662 53.9831 83.4112 54.475 83.0483 54.884C82.6859 55.293 82.2275 55.6066 81.7142 55.7965C80.4777 56.2229 79.1366 56.2382 77.8925 55.8401C76.5638 55.5255 75.3676 54.8062 74.4699 53.7822C74.0553 53.2906 73.7781 52.6988 73.666 52.066C73.5538 51.4334 73.6106 50.7821 73.8308 50.1774L73.8464 50.1198L76.4339 50.8077C76.3188 51.126 76.2798 51.4665 76.3199 51.8021C76.36 52.1376 76.4781 52.4592 76.6649 52.7411C77.1052 53.2845 77.7203 53.66 78.4067 53.8046C78.981 54.0033 79.6064 54.0015 80.1803 53.7993C80.3998 53.7046 80.5938 53.5596 80.7466 53.3761C80.8993 53.1927 81.0063 52.9759 81.059 52.7436Z" fill="#D75F4A"/>
<path d="M56.2831 66.3755L15 25.575L-11.5392 51.8038L29.744 92.6044L56.2831 66.3755Z" fill="#D95B4F"/>
</g>
<defs>
<clipPath id="clip0_259_2131">
<rect width="135" height="66" rx="5" fill="white"/>
</clipPath>
</defs>
</svg>
