<svg width="570" height="296" viewBox="0 0 570 296" fill="none" xmlns="http://www.w3.org/2000/svg">
<g filter="url(#filter0_d_685_4712)">
<path d="M75.4746 50.1087L76.3688 46.7738L88.2582 44L87.364 47.3349L79.1641 49.2058L79.1122 49.3991L85.2774 55.1162L84.3832 58.4511L75.4746 50.1087Z" fill="#72E7FC"/>
<path d="M93.4227 61.3377C92.0362 60.9664 90.8832 60.4332 89.9636 59.7381C89.0602 59.0472 88.4478 58.2703 88.1263 57.4072L90.6325 56.0838C90.9736 56.745 91.4256 57.315 91.9884 57.7937C92.5716 58.2607 93.2825 58.6064 94.1208 58.8309C94.8302 59.0208 95.4145 59.0651 95.8737 58.9635C96.3373 58.8459 96.6295 58.5616 96.7505 58.1105C96.8455 57.756 96.7733 57.4777 96.5338 57.2754C96.2986 57.057 95.9499 56.8428 95.4879 56.6328L93.5649 55.7812C93.0222 55.5495 92.5306 55.2884 92.0901 54.9978C91.654 54.6911 91.2974 54.3452 91.0205 53.9603C90.7435 53.5753 90.5564 53.1453 90.4592 52.6703C90.3619 52.1954 90.3932 51.6598 90.553 51.0637C90.9029 49.7588 91.6771 48.8696 92.8754 48.3961C94.0737 47.9227 95.5757 47.9277 97.3814 48.4112C98.6067 48.7393 99.6013 49.1869 100.365 49.754C101.149 50.3093 101.717 50.9621 102.069 51.7125L99.7351 53.2632C99.4723 52.7612 99.0874 52.2955 98.5804 51.8662C98.0734 51.4369 97.4088 51.1122 96.5866 50.8921C95.2 50.5208 94.3945 50.7541 94.1698 51.5918C94.0705 51.9623 94.1384 52.2568 94.3736 52.4752C94.6131 52.6775 94.9639 52.8836 95.426 53.0937L97.3248 53.9388C97.8675 54.1704 98.3569 54.4396 98.7931 54.7463C99.2335 55.0369 99.5922 55.3747 99.8692 55.7597C100.162 56.149 100.357 56.5811 100.455 57.0561C100.552 57.5311 100.521 58.0666 100.361 58.6627C100.011 59.9677 99.2266 60.8628 98.0078 61.348C96.8052 61.8375 95.2768 61.8341 93.4227 61.3377Z" fill="#72E7FC"/>
<path d="M105.662 50.9391L109.241 51.8974L108.632 54.169L108.801 54.2143C109.306 53.5552 109.914 53.0618 110.624 52.7338C111.334 52.4059 112.189 52.3758 113.188 52.6434C113.881 52.8291 114.476 53.1263 114.971 53.5352C115.482 53.9483 115.868 54.4747 116.128 55.1143C116.405 55.7581 116.546 56.5211 116.551 57.4032C116.573 58.2896 116.433 59.2966 116.13 60.4244C115.828 61.5521 115.445 62.4944 114.983 63.2513C114.537 64.0125 114.033 64.6028 113.472 65.0222C112.926 65.4459 112.328 65.709 111.679 65.8114C111.046 65.918 110.382 65.8786 109.689 65.6929C108.689 65.4253 107.962 64.9802 107.507 64.3576C107.056 63.7188 106.779 62.9799 106.676 62.1407L106.506 62.0953L104.601 69.2001L101.022 68.2417L105.662 50.9391ZM108.886 62.4995C109.692 62.7153 110.378 62.6398 110.943 62.2731C111.512 61.8902 111.913 61.2638 112.147 60.3938L112.665 58.4606C112.898 57.5906 112.862 56.8557 112.556 56.2558C112.255 55.6398 111.701 55.2239 110.895 55.0081C110.266 54.8397 109.677 54.846 109.128 55.0269C108.594 55.2122 108.239 55.635 108.062 56.2956L107.077 59.9688C106.9 60.6293 106.996 61.173 107.365 61.6C107.75 62.0313 108.258 62.3311 108.886 62.4995Z" fill="#72E7FC"/>
<path d="M127.17 70.0626C126.428 69.864 125.881 69.519 125.529 69.0276C125.181 68.5201 125.062 67.9011 125.172 67.1706L125.051 67.1383C124.605 67.8995 123.987 68.3988 123.197 68.6364C122.424 68.8783 121.554 68.8697 120.586 68.6107C119.377 68.287 118.488 67.7036 117.919 66.8606C117.371 66.0058 117.254 64.9904 117.57 63.8143C117.92 62.5094 118.654 61.6701 119.774 61.2965C120.894 60.9228 122.373 60.9821 124.211 61.4742L126.218 62.0116L126.386 61.3833C126.585 60.6423 126.557 60.039 126.302 59.5734C126.067 59.0961 125.538 58.7474 124.716 58.5273C123.958 58.3244 123.307 58.3053 122.761 58.4701C122.216 58.6349 121.711 58.9056 121.247 59.2822L119.755 57.0177C120.364 56.4211 121.173 56.016 122.181 55.8023C123.209 55.5768 124.424 55.6519 125.827 56.0274C127.536 56.485 128.76 57.2359 129.5 58.28C130.26 59.3123 130.428 60.6178 130.005 62.1967L128.54 67.6581L129.918 68.0272L129.225 70.613L127.17 70.0626ZM122.569 66.6293C123.198 66.7976 123.771 66.787 124.288 66.5975C124.806 66.4079 125.142 66.0232 125.298 65.4432L125.7 63.9449L123.789 63.4334C122.322 63.0405 121.457 63.3355 121.193 64.3182L121.063 64.8016C120.947 65.2365 121.028 65.6121 121.306 65.9283C121.584 66.2445 122.005 66.4782 122.569 66.6293Z" fill="#72E7FC"/>
<path d="M131.465 71.2126L134.808 58.7431L138.388 59.7014L137.779 61.973L137.924 62.0119C138.164 61.6963 138.43 61.4135 138.721 61.1635C139.013 60.9135 139.334 60.7146 139.685 60.5668C140.056 60.4071 140.452 60.3147 140.874 60.2894C141.316 60.2523 141.787 60.3007 142.286 60.4345C142.883 60.5942 143.403 60.8457 143.847 61.189C144.295 61.5161 144.642 61.9286 144.889 62.4263C145.135 62.924 145.278 63.4888 145.316 64.1206C145.37 64.7567 145.295 65.4533 145.092 66.2105L142.928 74.2819L139.349 73.3235L141.383 65.7355C141.815 64.1244 141.33 63.1311 139.927 62.7556C139.653 62.6822 139.368 62.6491 139.073 62.6562C138.798 62.6516 138.533 62.7018 138.281 62.8068C138.032 62.8957 137.813 63.0356 137.624 63.2266C137.45 63.4219 137.323 63.6727 137.241 63.9788L135.044 72.1709L131.465 71.2126Z" fill="#72E7FC"/>
<path d="M166.58 80.9254C165.596 80.6621 164.748 80.2797 164.036 79.7782C163.344 79.2649 162.8 78.6529 162.403 77.9423C162.022 77.2359 161.795 76.4412 161.72 75.5579C161.646 74.6747 161.745 73.7256 162.017 72.7106C162.289 71.6957 162.679 70.8243 163.185 70.0965C163.691 69.3686 164.286 68.794 164.969 68.3726C165.668 67.9555 166.444 67.7056 167.295 67.6228C168.168 67.5282 169.087 67.6104 170.055 67.8694C171.425 68.2364 172.446 68.8119 173.117 69.5959C173.808 70.3681 174.249 71.2716 174.438 72.3065L171.279 73.0666C171.183 72.5229 170.993 72.0402 170.708 71.6187C170.44 71.2016 169.967 70.9023 169.29 70.721C168.468 70.5008 167.766 70.572 167.185 70.9344C166.624 71.2851 166.234 71.8712 166.014 72.6929L165.469 74.7228C165.249 75.5444 165.292 76.2552 165.597 76.855C165.924 77.4431 166.514 77.8516 167.368 78.0803C168.062 78.266 168.645 78.2495 169.118 78.0309C169.608 77.8166 170.059 77.4884 170.471 77.0462L172.765 79.318C172.067 80.1155 171.207 80.6796 170.186 81.0103C169.184 81.3293 167.982 81.301 166.58 80.9254Z" fill="#72E7FC"/>
<path d="M175.785 80.1007L179.606 81.1238L182.911 68.7993L179.09 67.7762L179.835 64.9971L187.235 66.9786L183.185 82.0821L187.006 83.1052L186.261 85.8843L175.04 82.8798L175.785 80.1007Z" fill="#72E7FC"/>
<path d="M199.673 89.4755C198.932 89.2769 198.385 88.9319 198.033 88.4405C197.685 87.933 197.566 87.314 197.675 86.5836L197.555 86.5512C197.109 87.3124 196.491 87.8118 195.701 88.0493C194.928 88.2912 194.058 88.2827 193.09 88.0237C191.881 87.6999 190.992 87.1165 190.423 86.2735C189.875 85.4187 189.758 84.4033 190.074 83.2272C190.424 81.9223 191.158 81.083 192.278 80.7094C193.398 80.3358 194.877 80.395 196.715 80.8871L198.722 81.4246L198.89 80.7963C199.089 80.0552 199.061 79.4519 198.805 78.9864C198.571 78.5091 198.042 78.1603 197.22 77.9402C196.462 77.7373 195.81 77.7183 195.265 77.8831C194.72 78.0479 194.215 78.3185 193.751 78.6951L192.259 76.4307C192.868 75.834 193.677 75.4289 194.684 75.2152C195.713 74.9898 196.928 75.0648 198.331 75.4404C200.04 75.8979 201.264 76.6488 202.003 77.6929C202.763 78.7252 202.932 80.0308 202.508 81.6096L201.044 87.0711L202.422 87.4401L201.729 90.0259L199.673 89.4755ZM195.073 86.0422C195.702 86.2105 196.275 86.1999 196.792 86.0104C197.31 85.8208 197.646 85.4361 197.802 84.8561L198.203 83.3578L196.293 82.8463C194.826 82.4535 193.96 82.7484 193.697 83.7312L193.567 84.2145C193.451 84.6495 193.531 85.0251 193.81 85.3413C194.088 85.6575 194.509 85.8911 195.073 86.0422Z" fill="#72E7FC"/>
<path d="M209.429 92.3983C208.042 92.0271 206.889 91.4939 205.97 90.7988C205.067 90.1079 204.454 89.331 204.133 88.4679L206.639 87.1445C206.98 87.8057 207.432 88.3756 207.995 88.8544C208.578 89.3214 209.289 89.6671 210.127 89.8916C210.837 90.0815 211.421 90.1257 211.88 90.0242C212.344 89.9066 212.636 89.6222 212.757 89.1711C212.852 88.8167 212.78 88.5384 212.54 88.3361C212.305 88.1177 211.956 87.9035 211.494 87.6934L209.571 86.8418C209.028 86.6102 208.537 86.3491 208.096 86.0585C207.66 85.7517 207.304 85.4059 207.027 85.0209C206.75 84.636 206.563 84.206 206.465 83.731C206.368 83.256 206.399 82.7205 206.559 82.1244C206.909 80.8195 207.683 79.9303 208.882 79.4568C210.08 78.9834 211.582 78.9884 213.388 79.4719C214.613 79.8 215.608 80.2475 216.371 80.8147C217.156 81.37 217.724 82.0228 218.075 82.7731L215.741 84.3239C215.479 83.8218 215.094 83.3562 214.587 82.9269C214.08 82.4976 213.415 82.1729 212.593 81.9527C211.206 81.5815 210.401 81.8147 210.176 82.6525C210.077 83.023 210.145 83.3175 210.38 83.5359C210.619 83.7381 210.97 83.9443 211.432 84.1544L213.331 84.9995C213.874 85.2311 214.363 85.5003 214.799 85.807C215.24 86.0976 215.599 86.4354 215.875 86.8204C216.169 87.2096 216.364 87.6418 216.461 88.1168C216.558 88.5918 216.527 89.1273 216.367 89.7234C216.017 91.0283 215.233 91.9234 214.014 92.4087C212.811 92.8982 211.283 92.8948 209.429 92.3983Z" fill="#72E7FC"/>
<path d="M223.93 96.2809C222.543 95.9097 221.39 95.3765 220.471 94.6813C219.567 93.9905 218.955 93.2135 218.633 92.3504L221.14 91.0271C221.481 91.6883 221.933 92.2582 222.495 92.737C223.079 93.204 223.79 93.5497 224.628 93.7742C225.337 93.9641 225.922 94.0083 226.381 93.9068C226.844 93.7892 227.137 93.5048 227.258 93.0537C227.353 92.6993 227.28 92.4209 227.041 92.2187C226.806 92.0003 226.457 91.7861 225.995 91.576L224.072 90.7244C223.529 90.4928 223.038 90.2317 222.597 89.9411C222.161 89.6343 221.804 89.2885 221.528 88.9035C221.251 88.5186 221.064 88.0886 220.966 87.6136C220.869 87.1386 220.9 86.6031 221.06 86.007C221.41 84.702 222.184 83.8128 223.382 83.3394C224.581 82.866 226.083 82.871 227.888 83.3545C229.114 83.6825 230.108 84.1301 230.872 84.6972C231.656 85.2526 232.224 85.9054 232.576 86.6557L230.242 88.2065C229.979 87.7044 229.594 87.2388 229.087 86.8095C228.58 86.3802 227.916 86.0555 227.094 85.8353C225.707 85.4641 224.902 85.6973 224.677 86.5351C224.578 86.9056 224.645 87.2001 224.881 87.4185C225.12 87.6207 225.471 87.8269 225.933 88.0369L227.832 88.8821C228.375 89.1137 228.864 89.3829 229.3 89.6896C229.741 89.9802 230.099 90.318 230.376 90.703C230.669 91.0922 230.864 91.5244 230.962 91.9994C231.059 92.4743 231.028 93.0099 230.868 93.606C230.518 94.9109 229.734 95.806 228.515 96.2913C227.312 96.7808 225.784 96.7774 223.93 96.2809Z" fill="#72E7FC"/>
<path d="M235.237 89.6475L236.002 86.7959L247.513 89.8781L246.748 92.7296L235.237 89.6475ZM233.747 95.2056L234.511 92.354L246.023 95.4362L245.258 98.2878L233.747 95.2056Z" fill="#72E7FC"/>
<path d="M251.532 92.6378L253.645 84.7597L256.837 85.6145L254.724 93.4925L251.532 92.6378ZM256.974 94.0947L259.086 86.2167L262.278 87.0714L260.166 94.9494L256.974 94.0947Z" fill="#72E7FC"/>
<path d="M268.622 107.937C267.333 107.591 266.464 106.996 266.017 106.151C265.569 105.306 265.486 104.36 265.767 103.313L267.4 97.223L264.014 96.3165L264.759 93.5374L266.96 94.1267C267.492 94.2691 267.899 94.2659 268.181 94.1169C268.463 93.9679 268.679 93.6114 268.83 93.0476L269.615 90.1235L272.904 91.0041L271.724 95.4023L276.585 96.7038L275.84 99.4829L270.979 98.1813L269.126 105.093L273.987 106.394L273.241 109.173L268.622 107.937Z" fill="#72E7FC"/>
<path d="M282.417 111.941C280.321 111.38 278.888 110.374 278.119 108.925C277.35 107.476 277.233 105.753 277.769 103.755C278.041 102.74 278.422 101.866 278.912 101.134C279.423 100.39 280.011 99.8055 280.679 99.3798C281.366 98.9422 282.12 98.6778 282.939 98.5864C283.779 98.4831 284.666 98.5567 285.601 98.8071C286.537 99.0575 287.334 99.435 287.993 99.9397C288.657 100.428 289.174 101.015 289.543 101.701C289.912 102.387 290.128 103.162 290.19 104.024C290.273 104.875 290.185 105.784 289.925 106.751L289.64 107.814L281.103 105.528L281.045 105.746C280.829 106.551 280.904 107.271 281.27 107.904C281.64 108.521 282.309 108.959 283.276 109.218C284.018 109.417 284.691 109.45 285.297 109.319C285.907 109.171 286.468 108.916 286.98 108.552L288.351 111.173C287.707 111.639 286.892 111.974 285.905 112.175C284.917 112.377 283.755 112.299 282.417 111.941ZM284.939 101.375C284.165 101.168 283.479 101.243 282.882 101.602C282.305 101.948 281.909 102.524 281.693 103.329L281.641 103.523L286.671 104.869L286.723 104.676C286.944 103.855 286.891 103.15 286.565 102.562C286.255 101.978 285.713 101.582 284.939 101.375Z" fill="#72E7FC"/>
<path d="M289.958 113.649L296.323 108.567L293.616 101.264L297.703 102.358L298.495 104.72L299.077 106.611L299.27 106.663L300.744 105.322L302.636 103.679L306.385 104.683L300.438 109.462L303.355 117.236L299.244 116.136L298.301 113.371L297.66 111.412L297.466 111.36L295.955 112.743L293.73 114.659L289.958 113.649Z" fill="#72E7FC"/>
<path d="M312.125 119.584C310.835 119.239 309.966 118.644 309.519 117.799C309.072 116.954 308.988 116.008 309.269 114.961L310.902 108.871L307.516 107.964L308.262 105.185L310.462 105.774C310.994 105.917 311.401 105.914 311.683 105.765C311.965 105.616 312.182 105.259 312.333 104.695L313.117 101.771L316.406 102.652L315.227 107.05L320.087 108.352L319.342 111.131L314.481 109.829L312.628 116.741L317.489 118.042L316.744 120.821L312.125 119.584Z" fill="#72E7FC"/>
<path d="M323.305 116.517L324.225 113.086L331.964 115.158L331.044 118.589L323.305 116.517Z" fill="#72E7FC"/>
<path d="M334.476 125.569L337.819 113.099L341.399 114.058L340.79 116.329L340.935 116.368C341.175 116.052 341.441 115.77 341.732 115.52C342.024 115.27 342.345 115.071 342.696 114.923C343.067 114.763 343.463 114.671 343.885 114.646C344.327 114.609 344.798 114.657 345.297 114.791C345.894 114.95 346.414 115.202 346.858 115.545C347.306 115.872 347.653 116.285 347.9 116.782C348.146 117.28 348.289 117.845 348.327 118.477C348.381 119.113 348.306 119.81 348.103 120.567L345.939 128.638L342.36 127.68L344.394 120.092C344.826 118.481 344.341 117.487 342.938 117.112C342.664 117.038 342.379 117.005 342.084 117.012C341.808 117.008 341.544 117.058 341.292 117.163C341.043 117.252 340.824 117.392 340.635 117.583C340.461 117.778 340.334 118.029 340.252 118.335L338.055 126.527L334.476 125.569Z" fill="#72E7FC"/>
<path d="M354.582 131.263C353.615 131.004 352.783 130.626 352.087 130.129C351.395 129.615 350.851 129.003 350.454 128.293C350.073 127.587 349.845 126.792 349.771 125.909C349.697 125.025 349.796 124.076 350.068 123.061C350.34 122.046 350.729 121.175 351.236 120.447C351.742 119.719 352.336 119.145 353.02 118.723C353.719 118.306 354.495 118.056 355.346 117.973C356.202 117.874 357.114 117.955 358.081 118.214C359.049 118.473 359.878 118.859 360.57 119.372C361.266 119.869 361.804 120.471 362.185 121.177C362.582 121.888 362.818 122.685 362.892 123.568C362.966 124.451 362.867 125.4 362.595 126.415C362.323 127.43 361.934 128.302 361.428 129.03C360.921 129.757 360.319 130.33 359.619 130.747C358.936 131.168 358.166 131.429 357.31 131.527C356.459 131.61 355.549 131.522 354.582 131.263ZM355.295 128.605C356.101 128.821 356.797 128.739 357.382 128.361C357.967 127.982 358.383 127.334 358.629 126.415L359.161 124.434C359.407 123.516 359.371 122.746 359.054 122.126C358.736 121.506 358.174 121.088 357.368 120.872C356.562 120.656 355.866 120.737 355.281 121.116C354.696 121.494 354.28 122.143 354.034 123.061L353.502 125.043C353.256 125.961 353.292 126.73 353.609 127.351C353.927 127.971 354.489 128.389 355.295 128.605Z" fill="#72E7FC"/>
<path d="M364.44 130.613L367.318 131.384L369.171 124.472L366.293 123.702L367.039 120.923L373.496 122.652L372.55 126.18L372.719 126.225C372.953 125.804 373.223 125.41 373.528 125.043C373.855 124.664 374.214 124.355 374.607 124.115C375.02 123.863 375.478 123.7 375.981 123.628C376.485 123.556 377.043 123.601 377.655 123.765L378.84 124.083L377.959 127.369L375.299 126.657C374.412 126.419 373.672 126.506 373.078 126.917C372.488 127.312 372.092 127.888 371.889 128.645L370.897 132.342L375.008 133.443L374.263 136.222L363.695 133.392L364.44 130.613Z" fill="#72E7FC"/>
<path d="M377.132 136.99L380.475 124.52L383.353 125.291L382.861 127.128L383.03 127.173C383.379 126.645 383.787 126.219 384.254 125.895C384.737 125.575 385.309 125.504 385.97 125.681C387.179 126.005 387.731 126.912 387.625 128.403L387.77 128.442C387.945 128.178 388.139 127.936 388.353 127.718C388.567 127.499 388.805 127.321 389.067 127.183C389.328 127.046 389.619 126.96 389.939 126.925C390.26 126.89 390.614 126.924 391 127.028C392.742 127.494 393.269 129.008 392.582 131.569L390.191 140.487L387.313 139.716L389.607 131.161C389.762 130.581 389.766 130.151 389.617 129.869C389.488 129.575 389.262 129.385 388.94 129.299C388.634 129.217 388.339 129.251 388.058 129.4C387.796 129.537 387.609 129.815 387.497 130.234L385.112 139.127L382.21 138.35L384.504 129.795C384.66 129.215 384.671 128.786 384.538 128.509C384.425 128.22 384.208 128.032 383.885 127.946C383.563 127.86 383.261 127.891 382.979 128.04C382.701 128.173 382.507 128.449 382.394 128.867L380.01 137.76L377.132 136.99Z" fill="#72E7FC"/>
<path d="M402.684 143.832C401.943 143.633 401.396 143.288 401.044 142.797C400.696 142.289 400.577 141.67 400.686 140.94L400.566 140.907C400.119 141.669 399.502 142.168 398.712 142.406C397.939 142.647 397.069 142.639 396.101 142.38C394.892 142.056 394.003 141.473 393.434 140.63C392.886 139.775 392.769 138.76 393.085 137.583C393.435 136.278 394.169 135.439 395.289 135.066C396.409 134.692 397.888 134.751 399.726 135.243L401.733 135.781L401.901 135.152C402.1 134.411 402.072 133.808 401.816 133.343C401.582 132.865 401.053 132.517 400.231 132.296C399.473 132.093 398.821 132.074 398.276 132.239C397.731 132.404 397.226 132.675 396.762 133.051L395.27 130.787C395.879 130.19 396.688 129.785 397.695 129.571C398.724 129.346 399.939 129.421 401.342 129.797C403.051 130.254 404.275 131.005 405.014 132.049C405.774 133.081 405.943 134.387 405.519 135.966L404.055 141.427L405.433 141.796L404.74 144.382L402.684 143.832ZM398.084 140.398C398.713 140.567 399.286 140.556 399.803 140.367C400.321 140.177 400.657 139.792 400.813 139.212L401.214 137.714L399.304 137.202C397.837 136.81 396.971 137.105 396.708 138.087L396.578 138.571C396.462 139.006 396.542 139.381 396.821 139.697C397.099 140.014 397.52 140.247 398.084 140.398Z" fill="#72E7FC"/>
<path d="M407.797 142.222L411.618 143.245L414.923 130.921L411.102 129.898L411.847 127.119L419.248 129.1L415.198 144.204L419.019 145.227L418.273 148.006L407.052 145.001L407.797 142.222Z" fill="#72E7FC"/>
<path d="M425.542 139.229L427.654 131.351L430.846 132.205L428.734 140.084L425.542 139.229ZM430.983 140.686L433.095 132.808L436.288 133.662L434.175 141.54L430.983 140.686Z" fill="#72E7FC"/>
<path d="M437.398 149.397L445.598 147.526L445.65 147.332L439.485 141.615L440.379 138.28L449.287 146.623L448.393 149.958L436.504 152.731L437.398 149.397Z" fill="#72E7FC"/>
<path d="M461.349 151.484L462.806 146.823L462.588 146.765L457.118 154.599L456.3 145.082L456.083 145.023L455.012 149.787L452.997 157.303L449.853 156.461L454.376 139.593L458.657 140.74L459.214 146.975L459.407 147.027L463.01 141.905L467 142.974L462.477 159.841L459.333 158.999L461.349 151.484Z" fill="#72E7FC"/>
<path d="M467.48 147.816L470.479 148.619L469.526 152.171L470.929 152.547C471.542 152.711 472.088 152.961 472.568 153.296C473.048 153.632 473.43 154.045 473.713 154.536C474.017 155.014 474.208 155.557 474.287 156.166C474.366 156.774 474.308 157.44 474.114 158.165C473.919 158.89 473.634 159.504 473.257 160.008C472.884 160.495 472.445 160.878 471.938 161.157C471.435 161.42 470.884 161.574 470.284 161.621C469.7 161.672 469.086 161.611 468.441 161.438L464.136 160.285L467.48 147.816ZM469.071 158.991C469.539 159.116 469.938 159.076 470.27 158.871C470.601 158.667 470.847 158.266 471.007 157.67L471.169 157.066C471.328 156.47 471.316 156 471.132 155.657C470.947 155.314 470.621 155.08 470.154 154.955L468.872 154.612L467.79 158.648L469.071 158.991ZM477.516 150.503L480.515 151.306L477.171 163.776L474.173 162.973L477.516 150.503Z" fill="#72E7FC"/>
<path d="M65.1813 84.6286L66.6323 85.0171L67.5221 84.1157C68.1066 83.5469 68.818 83.3748 69.6564 83.5993L69.6952 83.4543C68.6732 83.077 67.9051 82.526 67.391 81.8013C66.8768 81.0765 66.7602 80.1906 67.041 79.1434C67.2094 78.5151 67.4654 77.9793 67.8089 77.536C68.1568 77.0766 68.5636 76.7193 69.0295 76.4641C69.4953 76.209 70.0121 76.0538 70.5799 75.9986C71.1638 75.9478 71.7621 76.0043 72.3747 76.1684L79.3396 78.0332L75.9959 90.5028L72.4168 89.5444L73.6156 85.0738L72.0678 84.6594L69.8556 86.9161C69.2829 87.5053 68.7363 87.8683 68.2157 88.0052C67.6952 88.1421 67.0721 88.1134 66.3466 87.9192L64.4361 87.4076L65.1813 84.6286ZM75.08 79.6123L72.4198 78.9C71.9845 78.7835 71.6092 78.8298 71.2939 79.0389C70.9948 79.2523 70.802 79.5202 70.7156 79.8424L70.5666 80.3982C70.4802 80.7204 70.5153 81.0406 70.6719 81.3588C70.8489 81.6652 71.1551 81.8767 71.5904 81.9933L74.2506 82.7055L75.08 79.6123Z" fill="#72E7FC"/>
<path d="M83.127 79.0473L90.2612 80.9575C91.422 81.2683 92.231 81.7957 92.6881 82.5397C93.1453 83.2837 93.2442 84.1391 92.985 85.1057C92.795 85.8146 92.4277 86.3465 91.8832 86.7014C91.3549 87.0607 90.5994 87.2038 89.6168 87.1306L89.5844 87.2515C90.5624 87.5997 91.2548 88.0786 91.6615 88.6882C92.0844 89.3022 92.1857 90.02 91.9654 90.8417C91.663 91.9694 91.0685 92.7685 90.182 93.2391C89.2955 93.7097 88.2235 93.7767 86.9659 93.44L79.7833 91.5168L83.127 79.0473ZM87.0175 90.7342C87.7269 90.9241 88.1723 90.6808 88.3538 90.0041L88.5093 89.4242C88.6043 89.0697 88.5767 88.7861 88.4264 88.5732C88.2805 88.3442 88.0463 88.1865 87.7238 88.1001L84.6525 87.2778L83.9462 89.9119L87.0175 90.7342ZM87.8588 85.857C88.1812 85.9433 88.4549 85.9216 88.6798 85.7919C88.9089 85.6461 89.0689 85.404 89.1596 85.0657L89.2957 84.5582C89.3864 84.2199 89.3669 83.9384 89.237 83.7137C89.1115 83.4728 88.8876 83.3093 88.5651 83.2229L85.9291 82.5171L85.2228 85.1512L87.8588 85.857Z" fill="#72E7FC"/>
<path d="M93.6267 92.2448L95.3195 92.6981C95.7909 92.358 96.2313 91.8112 96.6407 91.0575C97.0502 90.3037 97.4558 89.1777 97.8576 87.6795L99.0305 83.3055L108.559 85.8567L105.215 98.3262L101.636 97.3679L104.234 87.6774L101.502 86.9457L101.048 88.6373C100.776 89.6523 100.498 90.5276 100.214 91.2632C99.9307 91.9988 99.6429 92.621 99.3509 93.1299C99.0589 93.6388 98.7665 94.0527 98.4737 94.3714C98.1809 94.6902 97.8914 94.9321 97.6052 95.0972C97.0123 95.4392 96.424 95.6357 95.8401 95.6865C95.2767 95.7256 94.608 95.6415 93.8341 95.4343L92.8426 95.1688L93.6267 92.2448Z" fill="#72E7FC"/>
<path d="M108.684 96.2763L110.135 96.6648L111.024 95.7634C111.609 95.1947 112.32 95.0226 113.159 95.247L113.198 95.102C112.176 94.7248 111.407 94.1738 110.893 93.449C110.379 92.7243 110.263 91.8383 110.543 90.7911C110.712 90.1628 110.968 89.627 111.311 89.1837C111.659 88.7243 112.066 88.367 112.532 88.1119C112.998 87.8567 113.515 87.7016 114.082 87.6464C114.666 87.5955 115.264 87.6521 115.877 87.8161L122.842 89.681L119.498 102.151L115.919 101.192L117.118 96.7215L115.57 96.3071L113.358 98.5639C112.785 99.153 112.239 99.5161 111.718 99.6529C111.198 99.7898 110.575 99.7612 109.849 99.5669L107.938 99.0554L108.684 96.2763ZM118.582 91.2601L115.922 90.5478C115.487 90.4312 115.112 90.4775 114.796 90.6866C114.497 90.9001 114.304 91.1679 114.218 91.4901L114.069 92.0459C113.983 92.3682 114.018 92.6884 114.174 93.0066C114.351 93.313 114.657 93.5245 115.093 93.641L117.753 94.3533L118.582 91.2601Z" fill="#72E7FC"/>
<path d="M128.867 104.97C126.771 104.409 125.338 103.403 124.569 101.954C123.8 100.505 123.683 98.7816 124.219 96.7839C124.491 95.7689 124.872 94.8954 125.362 94.1633C125.873 93.4193 126.462 92.8345 127.129 92.4088C127.816 91.9712 128.57 91.7068 129.389 91.6153C130.229 91.5121 131.117 91.5857 132.052 91.8361C132.987 92.0865 133.784 92.464 134.444 92.9687C135.108 93.4572 135.624 94.0444 135.993 94.7303C136.362 95.4162 136.578 96.1906 136.64 97.0534C136.723 97.9044 136.635 98.8132 136.376 99.7798L136.091 100.843L127.554 98.5574L127.495 98.7749C127.279 99.5804 127.354 100.3 127.72 100.933C128.09 101.55 128.759 101.988 129.727 102.247C130.468 102.446 131.142 102.479 131.747 102.348C132.357 102.2 132.918 101.945 133.43 101.581L134.801 104.202C134.158 104.668 133.342 105.003 132.355 105.204C131.368 105.406 130.205 105.328 128.867 104.97ZM131.389 94.4041C130.615 94.1969 129.93 94.2724 129.332 94.6305C128.756 94.9769 128.359 95.5528 128.143 96.3583L128.092 96.5516L133.122 97.8985L133.174 97.7051C133.394 96.8835 133.341 96.1787 133.015 95.5906C132.705 95.0068 132.163 94.6113 131.389 94.4041Z" fill="#72E7FC"/>
<path d="M140.405 94.3834L144.032 95.3547L145.117 101.266L145.31 101.317L149.208 96.7404L152.497 97.621L149.153 110.091L146.251 109.313L147.851 103.345L148.562 101.178L148.368 101.126L143.567 106.756L142.226 99.4813L142.032 99.4295L141.564 101.661L139.963 107.63L137.061 106.853L140.405 94.3834Z" fill="#72E7FC"/>
<path d="M158.038 112.78C157.054 112.517 156.206 112.135 155.494 111.633C154.802 111.12 154.258 110.508 153.861 109.797C153.48 109.091 153.253 108.296 153.178 107.413C153.104 106.53 153.203 105.58 153.475 104.565C153.748 103.551 154.137 102.679 154.643 101.951C155.149 101.223 155.744 100.649 156.427 100.227C157.127 99.8104 157.902 99.5604 158.754 99.4776C159.626 99.3831 160.545 99.4653 161.513 99.7243C162.883 100.091 163.904 100.667 164.575 101.451C165.266 102.223 165.707 103.126 165.896 104.161L162.737 104.921C162.641 104.378 162.451 103.895 162.166 103.474C161.898 103.056 161.425 102.757 160.748 102.576C159.926 102.356 159.224 102.427 158.643 102.789C158.083 103.14 157.692 103.726 157.472 104.548L156.928 106.578C156.707 107.399 156.75 108.11 157.056 108.71C157.382 109.298 157.972 109.706 158.827 109.935C159.52 110.121 160.103 110.104 160.577 109.886C161.066 109.671 161.517 109.343 161.929 108.901L164.223 111.173C163.525 111.97 162.666 112.534 161.644 112.865C160.642 113.184 159.44 113.156 158.038 112.78Z" fill="#72E7FC"/>
<path d="M166.687 111.807L168.138 112.195L169.028 111.294C169.612 110.725 170.323 110.553 171.162 110.777L171.201 110.632C170.179 110.255 169.411 109.704 168.896 108.979C168.382 108.255 168.266 107.369 168.546 106.321C168.715 105.693 168.971 105.157 169.314 104.714C169.662 104.255 170.069 103.897 170.535 103.642C171.001 103.387 171.518 103.232 172.085 103.177C172.669 103.126 173.268 103.182 173.88 103.346L180.845 105.211L177.501 117.681L173.922 116.723L175.121 112.252L173.573 111.837L171.361 114.094C170.788 114.683 170.242 115.046 169.721 115.183C169.201 115.32 168.578 115.292 167.852 115.097L165.942 114.586L166.687 111.807ZM176.586 106.79L173.925 106.078C173.49 105.962 173.115 106.008 172.799 106.217C172.5 106.43 172.308 106.698 172.221 107.02L172.072 107.576C171.986 107.898 172.021 108.219 172.177 108.537C172.354 108.843 172.661 109.055 173.096 109.171L175.756 109.884L176.586 106.79Z" fill="#72E7FC"/>
<path d="M198.843 110.03L210.064 113.035L206.721 125.504L203.141 124.546L205.74 114.856L201.677 113.768L199.079 123.458L195.499 122.5L198.843 110.03Z" fill="#72E7FC"/>
<path d="M220.133 129.096C219.392 128.897 218.845 128.552 218.493 128.061C218.145 127.553 218.026 126.934 218.135 126.204L218.014 126.171C217.568 126.932 216.95 127.432 216.161 127.669C215.388 127.911 214.517 127.903 213.55 127.644C212.341 127.32 211.452 126.737 210.883 125.894C210.335 125.039 210.218 124.023 210.533 122.847C210.883 121.542 211.618 120.703 212.738 120.329C213.858 119.956 215.336 120.015 217.174 120.507L219.182 121.045L219.35 120.416C219.549 119.675 219.521 119.072 219.265 118.606C219.03 118.129 218.502 117.78 217.679 117.56C216.922 117.357 216.27 117.338 215.725 117.503C215.18 117.668 214.675 117.939 214.211 118.315L212.719 116.051C213.328 115.454 214.137 115.049 215.144 114.835C216.172 114.61 217.388 114.685 218.79 115.06C220.499 115.518 221.724 116.269 222.463 117.313C223.223 118.345 223.392 119.651 222.968 121.23L221.504 126.691L222.882 127.06L222.189 129.646L220.133 129.096ZM215.533 125.662C216.162 125.831 216.735 125.82 217.252 125.63C217.769 125.441 218.106 125.056 218.261 124.476L218.663 122.978L216.753 122.466C215.286 122.073 214.42 122.368 214.157 123.351L214.027 123.834C213.91 124.269 213.991 124.645 214.269 124.961C214.547 125.277 214.969 125.511 215.533 125.662Z" fill="#72E7FC"/>
<path d="M227.627 117.737L231.206 118.696L230.597 120.967L230.766 121.012C231.271 120.353 231.879 119.86 232.589 119.532C233.299 119.204 234.154 119.174 235.153 119.442C235.847 119.627 236.441 119.924 236.936 120.333C237.447 120.746 237.833 121.273 238.094 121.912C238.37 122.556 238.511 123.319 238.517 124.201C238.538 125.088 238.398 126.095 238.095 127.222C237.793 128.35 237.411 129.293 236.949 130.049C236.503 130.811 235.999 131.401 235.437 131.82C234.891 132.244 234.294 132.507 233.644 132.609C233.011 132.716 232.347 132.677 231.654 132.491C230.655 132.223 229.927 131.778 229.472 131.156C229.021 130.517 228.744 129.778 228.641 128.939L228.472 128.893L226.567 135.998L222.987 135.04L227.627 117.737ZM230.852 129.298C231.658 129.513 232.343 129.438 232.908 129.071C233.477 128.688 233.879 128.062 234.112 127.192L234.63 125.259C234.864 124.389 234.827 123.654 234.522 123.054C234.22 122.438 233.667 122.022 232.86 121.806C232.232 121.638 231.642 121.644 231.093 121.825C230.559 122.01 230.204 122.433 230.027 123.094L229.042 126.767C228.865 127.427 228.961 127.971 229.33 128.398C229.716 128.829 230.223 129.129 230.852 129.298Z" fill="#72E7FC"/>
<path d="M245.445 125.487L241.334 124.386L242.079 121.607L253.833 124.754L253.088 127.533L248.976 126.432L246.378 136.123L242.847 135.177L245.445 125.487Z" fill="#72E7FC"/>
<path d="M256.846 125.561L260.425 126.519L259.149 131.28L263.212 132.367L264.488 127.607L268.067 128.565L264.724 141.035L261.145 140.076L262.467 135.147L258.404 134.059L257.082 138.988L253.503 138.03L256.846 125.561Z" fill="#72E7FC"/>
<path d="M273.875 143.796C271.779 143.234 270.346 142.229 269.577 140.78C268.808 139.331 268.691 137.607 269.227 135.61C269.499 134.595 269.88 133.721 270.37 132.989C270.881 132.245 271.47 131.66 272.137 131.235C272.824 130.797 273.578 130.533 274.397 130.441C275.237 130.338 276.124 130.412 277.06 130.662C277.995 130.912 278.792 131.29 279.452 131.795C280.115 132.283 280.632 132.87 281.001 133.556C281.37 134.242 281.586 135.016 281.648 135.879C281.731 136.73 281.643 137.639 281.384 138.606L281.098 139.669L272.562 137.383L272.503 137.601C272.287 138.406 272.362 139.126 272.728 139.759C273.098 140.376 273.767 140.814 274.734 141.073C275.476 141.272 276.15 141.305 276.755 141.174C277.365 141.026 277.926 140.771 278.438 140.407L279.809 143.028C279.166 143.494 278.35 143.828 277.363 144.03C276.376 144.232 275.213 144.154 273.875 143.796ZM276.397 133.23C275.623 133.023 274.937 133.098 274.34 133.456C273.764 133.803 273.367 134.379 273.151 135.184L273.099 135.377L278.13 136.724L278.181 136.531C278.402 135.709 278.349 135.005 278.023 134.416C277.713 133.833 277.171 133.437 276.397 133.23Z" fill="#72E7FC"/>
<path d="M285.63 133.268L289.209 134.226L288.6 136.497L288.77 136.543C289.275 135.884 289.882 135.39 290.592 135.062C291.302 134.734 292.157 134.704 293.156 134.972C293.85 135.158 294.444 135.455 294.939 135.864C295.45 136.277 295.836 136.803 296.097 137.443C296.373 138.087 296.514 138.85 296.52 139.732C296.541 140.618 296.401 141.625 296.099 142.753C295.796 143.881 295.414 144.823 294.952 145.58C294.506 146.341 294.002 146.931 293.44 147.351C292.894 147.774 292.297 148.037 291.647 148.14C291.014 148.246 290.351 148.207 289.657 148.021C288.658 147.754 287.93 147.309 287.475 146.686C287.024 146.047 286.747 145.308 286.644 144.469L286.475 144.424L284.57 151.529L280.99 150.57L285.63 133.268ZM288.855 144.828C289.661 145.044 290.346 144.968 290.911 144.602C291.481 144.219 291.882 143.592 292.115 142.722L292.633 140.789C292.867 139.919 292.831 139.184 292.525 138.584C292.223 137.968 291.67 137.552 290.864 137.337C290.235 137.168 289.646 137.174 289.096 137.355C288.562 137.541 288.207 137.963 288.03 138.624L287.045 142.297C286.868 142.958 286.964 143.501 287.333 143.928C287.719 144.36 288.226 144.66 288.855 144.828Z" fill="#72E7FC"/>
<path d="M302.538 151.47C301.57 151.211 300.739 150.833 300.043 150.336C299.351 149.823 298.806 149.211 298.409 148.5C298.029 147.794 297.801 146.999 297.727 146.116C297.653 145.232 297.752 144.283 298.024 143.268C298.296 142.253 298.685 141.382 299.191 140.654C299.698 139.926 300.292 139.352 300.975 138.93C301.675 138.513 302.45 138.263 303.302 138.18C304.158 138.082 305.07 138.162 306.037 138.421C307.004 138.68 307.834 139.066 308.526 139.579C309.222 140.076 309.76 140.678 310.141 141.384C310.538 142.095 310.774 142.892 310.848 143.775C310.922 144.658 310.823 145.608 310.551 146.622C310.279 147.637 309.89 148.509 309.383 149.237C308.877 149.964 308.274 150.537 307.575 150.954C306.892 151.375 306.122 151.636 305.266 151.734C304.415 151.817 303.505 151.729 302.538 151.47ZM303.251 148.812C304.057 149.028 304.752 148.946 305.338 148.568C305.923 148.189 306.339 147.541 306.585 146.623L307.117 144.641C307.363 143.723 307.327 142.953 307.01 142.333C306.692 141.713 306.13 141.295 305.324 141.079C304.518 140.863 303.822 140.944 303.237 141.323C302.652 141.702 302.236 142.35 301.99 143.268L301.458 145.25C301.212 146.168 301.248 146.937 301.565 147.558C301.883 148.178 302.444 148.596 303.251 148.812Z" fill="#72E7FC"/>
<path d="M314.414 140.974L318.042 141.946L319.126 147.857L319.32 147.908L323.217 143.331L326.506 144.212L323.162 156.682L320.26 155.905L321.861 149.936L322.571 147.769L322.378 147.717L317.576 153.347L316.235 146.072L316.042 146.021L315.573 148.252L313.972 154.221L311.07 153.444L314.414 140.974Z" fill="#72E7FC"/>
<path d="M342.448 155.733L343.342 152.398L355.231 149.624L354.337 152.959L346.137 154.83L346.085 155.023L352.25 160.74L351.356 164.075L342.448 155.733Z" fill="#72E7FC"/>
<path d="M360.396 166.962C359.009 166.59 357.856 166.057 356.937 165.362C356.033 164.671 355.421 163.894 355.099 163.031L357.606 161.708C357.947 162.369 358.399 162.939 358.961 163.418C359.545 163.885 360.256 164.23 361.094 164.455C361.803 164.645 362.388 164.689 362.847 164.588C363.31 164.47 363.603 164.186 363.724 163.734C363.819 163.38 363.746 163.102 363.507 162.899C363.272 162.681 362.923 162.467 362.461 162.257L360.538 161.405C359.995 161.173 359.504 160.912 359.063 160.622C358.627 160.315 358.271 159.969 357.994 159.584C357.717 159.199 357.53 158.769 357.432 158.294C357.335 157.819 357.366 157.284 357.526 156.688C357.876 155.383 358.65 154.494 359.848 154.02C361.047 153.547 362.549 153.552 364.355 154.035C365.58 154.363 366.574 154.811 367.338 155.378C368.122 155.933 368.69 156.586 369.042 157.336L366.708 158.887C366.445 158.385 366.06 157.919 365.553 157.49C365.047 157.061 364.382 156.736 363.56 156.516C362.173 156.145 361.368 156.378 361.143 157.216C361.044 157.586 361.111 157.881 361.347 158.099C361.586 158.301 361.937 158.508 362.399 158.718L364.298 159.563C364.841 159.794 365.33 160.064 365.766 160.37C366.207 160.661 366.565 160.999 366.842 161.384C367.135 161.773 367.33 162.205 367.428 162.68C367.525 163.155 367.494 163.691 367.334 164.287C366.984 165.592 366.2 166.487 364.981 166.972C363.778 167.462 362.25 167.458 360.396 166.962Z" fill="#72E7FC"/>
<path d="M372.635 156.563L376.214 157.521L375.605 159.793L375.774 159.838C376.279 159.179 376.887 158.686 377.597 158.358C378.307 158.03 379.162 158 380.161 158.267C380.854 158.453 381.449 158.75 381.944 159.159C382.455 159.572 382.841 160.099 383.102 160.738C383.378 161.382 383.519 162.145 383.525 163.027C383.546 163.914 383.406 164.921 383.103 166.048C382.801 167.176 382.419 168.118 381.956 168.875C381.51 169.636 381.006 170.227 380.445 170.646C379.899 171.07 379.302 171.333 378.652 171.435C378.019 171.542 377.355 171.503 376.662 171.317C375.662 171.049 374.935 170.604 374.48 169.982C374.029 169.343 373.752 168.604 373.649 167.765L373.479 167.719L371.574 174.824L367.995 173.866L372.635 156.563ZM375.859 168.123C376.666 168.339 377.351 168.264 377.916 167.897C378.485 167.514 378.886 166.888 379.12 166.018L379.638 164.085C379.871 163.215 379.835 162.48 379.529 161.88C379.228 161.264 378.674 160.848 377.868 160.632C377.239 160.464 376.65 160.47 376.101 160.651C375.567 160.836 375.212 161.259 375.035 161.92L374.05 165.593C373.873 166.253 373.969 166.797 374.338 167.224C374.724 167.655 375.231 167.955 375.859 168.123Z" fill="#72E7FC"/>
<path d="M394.143 175.687C393.401 175.488 392.854 175.143 392.502 174.652C392.154 174.144 392.035 173.525 392.145 172.795L392.024 172.762C391.578 173.523 390.96 174.023 390.17 174.26C389.397 174.502 388.527 174.494 387.559 174.235C386.35 173.911 385.461 173.328 384.892 172.485C384.344 171.63 384.227 170.614 384.543 169.438C384.893 168.133 385.628 167.294 386.747 166.92C387.867 166.547 389.346 166.606 391.184 167.098L393.191 167.636L393.359 167.007C393.558 166.266 393.53 165.663 393.275 165.197C393.04 164.72 392.511 164.371 391.689 164.151C390.931 163.948 390.28 163.929 389.734 164.094C389.189 164.259 388.684 164.53 388.221 164.906L386.728 162.642C387.337 162.045 388.146 161.64 389.154 161.426C390.182 161.201 391.397 161.276 392.8 161.651C394.509 162.109 395.733 162.86 396.473 163.904C397.233 164.936 397.401 166.242 396.978 167.821L395.513 173.282L396.892 173.651L396.198 176.237L394.143 175.687ZM389.542 172.253C390.171 172.422 390.744 172.411 391.262 172.221C391.779 172.032 392.115 171.647 392.271 171.067L392.673 169.569L390.762 169.057C389.295 168.665 388.43 168.959 388.166 169.942L388.037 170.426C387.92 170.861 388.001 171.236 388.279 171.552C388.557 171.868 388.978 172.102 389.542 172.253Z" fill="#72E7FC"/>
<path d="M398.438 176.837L401.782 164.367L405.361 165.325L404.752 167.597L404.897 167.636C405.137 167.32 405.403 167.037 405.694 166.787C405.986 166.538 406.307 166.339 406.658 166.191C407.029 166.031 407.425 165.939 407.847 165.913C408.289 165.876 408.76 165.925 409.26 166.058C409.856 166.218 410.376 166.47 410.82 166.813C411.268 167.14 411.615 167.553 411.862 168.05C412.108 168.548 412.251 169.113 412.289 169.745C412.343 170.381 412.268 171.077 412.065 171.834L409.901 179.906L406.322 178.948L408.356 171.359C408.788 169.748 408.303 168.755 406.9 168.38C406.626 168.306 406.342 168.273 406.046 168.28C405.771 168.276 405.507 168.326 405.254 168.431C405.005 168.52 404.786 168.66 404.597 168.851C404.424 169.046 404.296 169.297 404.214 169.603L402.017 177.795L398.438 176.837Z" fill="#72E7FC"/>
<path d="M62.4912 121.34C61.5078 121.076 60.6599 120.694 59.9477 120.192C59.2559 119.679 58.7115 119.067 58.3145 118.356C57.9337 117.65 57.7062 116.855 57.632 115.972C57.5578 115.089 57.6567 114.14 57.9289 113.125C58.2011 112.11 58.5902 111.238 59.0964 110.511C59.6026 109.783 60.1974 109.208 60.8806 108.787C61.58 108.37 62.3555 108.12 63.2071 108.037C64.0792 107.942 64.9989 108.025 65.9663 108.284C67.3367 108.651 68.3574 109.226 69.0284 110.01C69.7199 110.782 70.1602 111.686 70.3493 112.721L67.1906 113.481C67.0945 112.937 66.9042 112.454 66.6198 112.033C66.3515 111.616 65.8788 111.316 65.2016 111.135C64.3794 110.915 63.6777 110.986 63.0967 111.349C62.5361 111.699 62.1457 112.285 61.9253 113.107L61.381 115.137C61.1607 115.959 61.2034 116.669 61.5091 117.269C61.8353 117.857 62.4256 118.266 63.2801 118.495C63.9733 118.68 64.5566 118.664 65.03 118.445C65.5194 118.231 65.9703 117.903 66.3827 117.46L68.6765 119.732C67.9788 120.53 67.1191 121.094 66.0973 121.424C65.0959 121.743 63.8939 121.715 62.4912 121.34Z" fill="#72E7FC"/>
<path d="M71.6965 120.515L75.5175 121.538L78.8223 109.213L75.0013 108.19L75.7465 105.411L83.1467 107.393L79.0967 122.496L82.9178 123.519L82.1726 126.298L70.9513 123.294L71.6965 120.515Z" fill="#72E7FC"/>
<path d="M95.5851 129.89C94.8434 129.691 94.2966 129.346 93.9445 128.855C93.5968 128.347 93.4776 127.728 93.5871 126.998L93.4662 126.965C93.0201 127.727 92.4024 128.226 91.6129 128.464C90.8396 128.705 89.9692 128.697 89.0019 128.438C87.7927 128.114 86.9037 127.531 86.3349 126.688C85.7865 125.833 85.67 124.817 85.9853 123.641C86.3352 122.336 87.07 121.497 88.1898 121.124C89.3095 120.75 90.7883 120.809 92.6263 121.301L94.6335 121.839L94.802 121.21C95.0007 120.469 94.9724 119.866 94.7171 119.401C94.4822 118.923 93.9536 118.575 93.1314 118.354C92.3736 118.151 91.7221 118.132 91.1768 118.297C90.6314 118.462 90.1269 118.733 89.663 119.109L88.1707 116.845C88.7799 116.248 89.5884 115.843 90.5961 115.629C91.6243 115.404 92.8397 115.479 94.2423 115.855C95.9513 116.312 97.1756 117.063 97.9151 118.107C98.6751 119.139 98.8434 120.445 98.4201 122.024L96.9556 127.485L98.334 127.854L97.6407 130.44L95.5851 129.89ZM90.9847 126.456C91.6135 126.625 92.1866 126.614 92.704 126.425C93.2214 126.235 93.5578 125.85 93.7133 125.27L94.1151 123.772L92.2046 123.26C90.7374 122.868 89.8721 123.163 89.6086 124.145L89.479 124.629C89.3624 125.064 89.4431 125.439 89.7212 125.755C89.9993 126.072 90.4204 126.305 90.9847 126.456Z" fill="#72E7FC"/>
<path d="M105.341 132.813C103.954 132.441 102.801 131.908 101.882 131.213C100.978 130.522 100.366 129.745 100.044 128.882L102.55 127.559C102.892 128.22 103.343 128.79 103.906 129.269C104.49 129.736 105.2 130.081 106.039 130.306C106.748 130.496 107.332 130.54 107.792 130.438C108.255 130.321 108.547 130.036 108.668 129.585C108.763 129.231 108.691 128.953 108.452 128.75C108.216 128.532 107.868 128.318 107.406 128.108L105.483 127.256C104.94 127.024 104.448 126.763 104.008 126.473C103.572 126.166 103.215 125.82 102.938 125.435C102.661 125.05 102.474 124.62 102.377 124.145C102.28 123.67 102.311 123.135 102.471 122.539C102.821 121.234 103.595 120.344 104.793 119.871C105.992 119.398 107.494 119.403 109.299 119.886C110.525 120.214 111.519 120.662 112.283 121.229C113.067 121.784 113.635 122.437 113.987 123.187L111.653 124.738C111.39 124.236 111.005 123.77 110.498 123.341C109.991 122.912 109.327 122.587 108.504 122.367C107.118 121.996 106.312 122.229 106.088 123.067C105.988 123.437 106.056 123.732 106.291 123.95C106.531 124.152 106.882 124.358 107.344 124.569L109.243 125.414C109.785 125.645 110.275 125.914 110.711 126.221C111.151 126.512 111.51 126.85 111.787 127.235C112.08 127.624 112.275 128.056 112.373 128.531C112.47 129.006 112.439 129.541 112.279 130.138C111.929 131.443 111.144 132.338 109.926 132.823C108.723 133.312 107.195 133.309 105.341 132.813Z" fill="#72E7FC"/>
<path d="M119.841 136.695C118.455 136.324 117.302 135.791 116.382 135.096C115.479 134.405 114.866 133.628 114.545 132.765L117.051 131.441C117.392 132.102 117.844 132.672 118.407 133.151C118.99 133.618 119.701 133.964 120.54 134.188C121.249 134.378 121.833 134.422 122.292 134.321C122.756 134.203 123.048 133.919 123.169 133.468C123.264 133.113 123.192 132.835 122.952 132.633C122.717 132.414 122.369 132.2 121.907 131.99L119.984 131.139C119.441 130.907 118.949 130.646 118.509 130.355C118.073 130.049 117.716 129.703 117.439 129.318C117.162 128.933 116.975 128.503 116.878 128.028C116.781 127.553 116.812 127.017 116.972 126.421C117.322 125.116 118.096 124.227 119.294 123.754C120.492 123.28 121.994 123.285 123.8 123.769C125.025 124.097 126.02 124.544 126.784 125.111C127.568 125.667 128.136 126.32 128.488 127.07L126.154 128.621C125.891 128.119 125.506 127.653 124.999 127.224C124.492 126.794 123.828 126.47 123.005 126.249C121.619 125.878 120.813 126.112 120.589 126.949C120.489 127.32 120.557 127.614 120.792 127.833C121.032 128.035 121.383 128.241 121.845 128.451L123.743 129.296C124.286 129.528 124.776 129.797 125.212 130.104C125.652 130.394 126.011 130.732 126.288 131.117C126.581 131.506 126.776 131.939 126.873 132.414C126.971 132.889 126.939 133.424 126.78 134.02C126.43 135.325 125.645 136.22 124.426 136.705C123.224 137.195 121.696 137.192 119.841 136.695Z" fill="#72E7FC"/>
<path d="M131.149 130.062L131.913 127.21L143.425 130.292L142.66 133.144L131.149 130.062ZM129.658 135.62L130.423 132.768L141.934 135.85L141.17 138.702L129.658 135.62Z" fill="#72E7FC"/>
<path d="M147.444 133.052L149.556 125.174L152.749 126.029L150.636 133.907L147.444 133.052ZM152.885 134.509L154.998 126.631L158.19 127.486L156.077 135.364L152.885 134.509Z" fill="#72E7FC"/>
<path d="M164.534 148.351C163.244 148.005 162.376 147.41 161.928 146.565C161.481 145.72 161.398 144.774 161.678 143.727L163.311 137.637L159.926 136.731L160.671 133.952L162.872 134.541C163.404 134.683 163.811 134.68 164.093 134.531C164.374 134.382 164.591 134.026 164.742 133.462L165.526 130.538L168.815 131.418L167.636 135.816L172.497 137.118L171.752 139.897L166.891 138.596L165.037 145.507L169.898 146.808L169.153 149.587L164.534 148.351Z" fill="#72E7FC"/>
<path d="M178.328 152.355C176.232 151.794 174.8 150.789 174.031 149.339C173.261 147.89 173.145 146.167 173.68 144.169C173.953 143.154 174.334 142.281 174.824 141.548C175.334 140.805 175.923 140.22 176.59 139.794C177.278 139.356 178.031 139.092 178.851 139.001C179.69 138.897 180.578 138.971 181.513 139.221C182.448 139.472 183.245 139.849 183.905 140.354C184.569 140.842 185.085 141.43 185.454 142.116C185.823 142.801 186.039 143.576 186.102 144.439C186.184 145.29 186.096 146.198 185.837 147.165L185.552 148.228L177.015 145.943L176.957 146.16C176.741 146.966 176.816 147.685 177.182 148.318C177.552 148.935 178.221 149.373 179.188 149.632C179.93 149.831 180.603 149.865 181.209 149.733C181.818 149.586 182.379 149.33 182.892 148.966L184.263 151.587C183.619 152.053 182.804 152.388 181.816 152.59C180.829 152.791 179.666 152.713 178.328 152.355ZM180.85 141.789C180.076 141.582 179.391 141.658 178.794 142.016C178.217 142.362 177.821 142.938 177.605 143.743L177.553 143.937L182.583 145.284L182.635 145.09C182.855 144.269 182.802 143.564 182.476 142.976C182.166 142.392 181.624 141.997 180.85 141.789Z" fill="#72E7FC"/>
<path d="M185.869 154.063L192.235 148.982L189.527 141.678L193.614 142.772L194.407 145.134L194.988 147.025L195.182 147.077L196.656 145.736L198.548 144.093L202.296 145.097L196.349 149.876L199.267 157.651L195.156 156.55L194.212 153.785L193.571 151.826L193.378 151.774L191.867 153.157L189.642 155.073L185.869 154.063Z" fill="#72E7FC"/>
<path d="M208.036 159.998C206.747 159.653 205.878 159.058 205.431 158.213C204.983 157.368 204.9 156.422 205.181 155.375L206.814 149.285L203.428 148.378L204.173 145.599L206.374 146.189C206.906 146.331 207.313 146.328 207.595 146.179C207.877 146.03 208.093 145.673 208.244 145.109L209.029 142.185L212.318 143.066L211.138 147.464L215.999 148.766L215.254 151.545L210.393 150.243L208.54 157.155L213.401 158.456L212.655 161.235L208.036 159.998Z" fill="#72E7FC"/>
<path d="M219.217 156.931L220.137 153.5L227.876 155.572L226.955 159.003L219.217 156.931Z" fill="#72E7FC"/>
<path d="M235.993 167.795C235.025 167.536 234.194 167.158 233.498 166.66C232.806 166.147 232.261 165.535 231.864 164.824C231.484 164.118 231.256 163.323 231.182 162.44C231.108 161.557 231.207 160.608 231.479 159.593C231.751 158.578 232.14 157.706 232.646 156.979C233.153 156.251 233.747 155.676 234.431 155.255C235.13 154.838 235.905 154.588 236.757 154.505C237.613 154.406 238.525 154.486 239.492 154.745C240.459 155.004 241.289 155.39 241.981 155.904C242.677 156.401 243.215 157.003 243.596 157.709C243.993 158.42 244.229 159.216 244.303 160.1C244.377 160.983 244.278 161.932 244.006 162.947C243.734 163.962 243.345 164.833 242.838 165.561C242.332 166.289 241.729 166.861 241.03 167.279C240.347 167.7 239.577 167.96 238.721 168.059C237.87 168.142 236.96 168.054 235.993 167.795ZM236.706 165.136C237.512 165.352 238.207 165.271 238.793 164.892C239.378 164.514 239.794 163.865 240.04 162.947L240.572 160.965C240.818 160.047 240.782 159.278 240.465 158.658C240.147 158.037 239.585 157.619 238.779 157.403C237.973 157.188 237.277 157.269 236.692 157.647C236.107 158.026 235.691 158.674 235.445 159.593L234.913 161.574C234.667 162.493 234.703 163.262 235.02 163.882C235.338 164.503 235.899 164.921 236.706 165.136Z" fill="#72E7FC"/>
<path d="M245.851 167.145L248.729 167.915L250.582 161.004L247.704 160.233L248.45 157.454L254.907 159.183L253.96 162.711L254.13 162.757C254.364 162.336 254.633 161.942 254.939 161.575C255.265 161.196 255.625 160.886 256.018 160.646C256.431 160.394 256.889 160.232 257.392 160.16C257.896 160.087 258.454 160.133 259.066 160.297L260.251 160.614L259.37 163.901L256.71 163.188C255.823 162.951 255.083 163.038 254.489 163.449C253.899 163.843 253.503 164.419 253.3 165.176L252.308 168.874L256.419 169.974L255.674 172.754L245.106 169.924L245.851 167.145Z" fill="#72E7FC"/>
<path d="M269.594 176.481C268.853 176.282 268.306 175.937 267.954 175.446C267.606 174.938 267.487 174.319 267.597 173.589L267.476 173.556C267.03 174.318 266.412 174.817 265.622 175.055C264.849 175.296 263.979 175.288 263.011 175.029C261.802 174.705 260.913 174.122 260.344 173.279C259.796 172.424 259.679 171.409 259.995 170.232C260.345 168.927 261.079 168.088 262.199 167.715C263.319 167.341 264.798 167.4 266.636 167.892L268.643 168.43L268.811 167.801C269.01 167.06 268.982 166.457 268.726 165.992C268.492 165.514 267.963 165.166 267.141 164.945C266.383 164.742 265.731 164.723 265.186 164.888C264.641 165.053 264.136 165.324 263.672 165.7L262.18 163.436C262.789 162.839 263.598 162.434 264.606 162.22C265.634 161.995 266.849 162.07 268.252 162.446C269.961 162.903 271.185 163.654 271.925 164.698C272.685 165.73 272.853 167.036 272.429 168.615L270.965 174.076L272.343 174.445L271.65 177.031L269.594 176.481ZM264.994 173.047C265.623 173.216 266.196 173.205 266.713 173.016C267.231 172.826 267.567 172.441 267.723 171.861L268.125 170.363L266.214 169.851C264.747 169.459 263.882 169.754 263.618 170.736L263.488 171.22C263.372 171.655 263.452 172.03 263.731 172.346C264.009 172.663 264.43 172.896 264.994 173.047Z" fill="#72E7FC"/>
<path d="M273.89 177.631L277.233 165.161L280.813 166.12L280.203 168.391L280.349 168.43C280.589 168.114 280.855 167.832 281.146 167.582C281.438 167.332 281.759 167.133 282.11 166.985C282.481 166.825 282.877 166.733 283.299 166.708C283.741 166.67 284.212 166.719 284.711 166.853C285.308 167.012 285.828 167.264 286.272 167.607C286.72 167.934 287.067 168.347 287.314 168.844C287.56 169.342 287.703 169.907 287.741 170.539C287.795 171.175 287.72 171.871 287.517 172.629L285.353 180.7L281.774 179.742L283.808 172.154C284.24 170.543 283.755 169.549 282.352 169.174C282.078 169.1 281.793 169.067 281.498 169.074C281.222 169.07 280.958 169.12 280.706 169.225C280.457 169.314 280.238 169.454 280.049 169.645C279.875 169.84 279.748 170.091 279.666 170.397L277.469 178.589L273.89 177.631Z" fill="#72E7FC"/>
<path d="M300.581 186.124C300.226 187.445 299.409 188.271 298.128 188.601C296.847 188.932 295.014 188.778 292.627 188.139C291.434 187.819 290.47 187.483 289.735 187.131C288.996 186.795 288.427 186.436 288.029 186.053C287.646 185.674 287.406 185.282 287.308 184.875C287.225 184.473 287.24 184.063 287.353 183.644C287.543 182.935 287.897 182.452 288.416 182.193C288.93 181.951 289.592 181.835 290.401 181.844L290.44 181.7C289.951 181.396 289.585 181.056 289.34 180.68C289.116 180.292 289.077 179.824 289.224 179.276C289.388 178.664 289.71 178.267 290.191 178.084C290.688 177.907 291.297 177.828 292.017 177.848L292.056 177.703C291.409 177.15 290.963 176.495 290.717 175.739C290.486 174.986 290.494 174.151 290.741 173.233C290.935 172.508 291.235 171.906 291.639 171.427C292.049 170.932 292.537 170.562 293.104 170.317C293.687 170.076 294.335 169.947 295.047 169.931C295.76 169.915 296.528 170.016 297.35 170.237C298.14 170.448 298.85 170.733 299.479 171.092L299.661 170.415C299.791 169.932 300.068 169.574 300.493 169.343C300.918 169.111 301.428 169.075 302.025 169.235L304.226 169.824L303.526 172.434L300.527 171.631L300.469 171.849C301.051 172.384 301.443 173.016 301.645 173.744C301.868 174.46 301.861 175.26 301.623 176.147C301.429 176.871 301.129 177.473 300.724 177.952C300.32 178.431 299.823 178.799 299.236 179.056C298.653 179.297 297.997 179.423 297.268 179.435C296.555 179.452 295.788 179.35 294.965 179.13C294.595 179.03 294.244 178.919 293.914 178.796C293.589 178.657 293.283 178.507 292.999 178.344C292.795 178.393 292.61 178.473 292.442 178.584C292.29 178.698 292.184 178.868 292.124 179.094C292.072 179.287 292.079 179.453 292.146 179.592C292.212 179.731 292.317 179.854 292.461 179.961C292.626 180.057 292.819 180.143 293.04 180.22C293.261 180.297 293.493 180.367 293.735 180.432L296.589 181.196C297.475 181.433 298.209 181.725 298.791 182.07C299.372 182.416 299.821 182.804 300.137 183.234C300.454 183.664 300.643 184.12 300.704 184.603C300.764 185.085 300.723 185.592 300.581 186.124ZM297.124 185.483C297.21 185.161 297.15 184.869 296.944 184.606C296.734 184.36 296.266 184.14 295.54 183.946L291.26 182.8C290.864 182.987 290.612 183.282 290.504 183.685C290.4 184.072 290.477 184.429 290.735 184.757C291.004 185.105 291.534 185.385 292.324 185.597L294.428 186.16C295.25 186.38 295.877 186.427 296.308 186.301C296.74 186.175 297.011 185.902 297.124 185.483ZM295.575 176.858C296.3 177.052 296.872 177.015 297.289 176.747C297.723 176.484 298.013 176.078 298.16 175.53L298.315 174.95C298.462 174.402 298.414 173.906 298.17 173.461C297.943 173.02 297.466 172.702 296.741 172.508C296.032 172.318 295.468 172.357 295.051 172.625C294.633 172.894 294.351 173.301 294.204 173.849L294.049 174.429C293.902 174.977 293.942 175.471 294.169 175.912C294.397 176.353 294.865 176.668 295.575 176.858Z" fill="#72E7FC"/>
<path d="M308.835 187.298C306.739 186.737 305.307 185.732 304.538 184.283C303.769 182.833 303.652 181.11 304.187 179.112C304.46 178.097 304.841 177.224 305.331 176.492C305.841 175.748 306.43 175.163 307.097 174.737C307.785 174.3 308.538 174.035 309.358 173.944C310.198 173.841 311.085 173.914 312.02 174.165C312.955 174.415 313.753 174.792 314.412 175.297C315.076 175.786 315.592 176.373 315.961 177.059C316.331 177.745 316.546 178.519 316.609 179.382C316.691 180.233 316.603 181.142 316.344 182.108L316.059 183.172L307.522 180.886L307.464 181.103C307.248 181.909 307.323 182.628 307.689 183.261C308.059 183.879 308.728 184.317 309.695 184.576C310.437 184.774 311.11 184.808 311.716 184.676C312.325 184.529 312.886 184.273 313.399 183.91L314.77 186.53C314.126 186.997 313.311 187.331 312.323 187.533C311.336 187.735 310.173 187.657 308.835 187.298ZM311.357 176.733C310.584 176.525 309.898 176.601 309.301 176.959C308.724 177.305 308.328 177.881 308.112 178.687L308.06 178.88L313.09 180.227L313.142 180.034C313.362 179.212 313.309 178.507 312.983 177.919C312.673 177.335 312.131 176.94 311.357 176.733Z" fill="#72E7FC"/>
<path d="M321.453 179.643L323.566 171.765L326.758 172.62L324.646 180.498L321.453 179.643ZM326.895 181.1L329.007 173.222L332.199 174.077L330.087 181.955L326.895 181.1Z" fill="#72E7FC"/>
<path d="M333.31 189.811L341.51 187.94L341.561 187.747L335.396 182.029L336.29 178.694L345.199 187.037L344.305 190.372L332.415 193.146L333.31 189.811Z" fill="#72E7FC"/>
<path d="M347.095 197.231L347.879 194.307L352.426 195.525L355.458 184.215L355.241 184.157L350.601 187.732L348.766 185.298L354.23 181.063L359.792 182.552L356.053 196.496L359.632 197.454L358.848 200.378L347.095 197.231Z" fill="#72E7FC"/>
<path d="M366.887 202.842C364.63 202.237 363.156 201.031 362.466 199.223C361.796 197.403 361.833 195.108 362.576 192.337C363.319 189.566 364.433 187.568 365.92 186.343C367.426 185.106 369.308 184.789 371.565 185.394C372.436 185.627 373.169 185.953 373.766 186.371C374.382 186.778 374.876 187.256 375.248 187.804C375.619 188.353 375.878 188.966 376.024 189.644C376.187 190.326 376.258 191.062 376.236 191.851L372.63 191.766C372.641 191.337 372.628 190.936 372.59 190.563C372.551 190.191 372.46 189.855 372.315 189.557C372.186 189.264 371.986 189.012 371.714 188.801C371.463 188.578 371.128 188.411 370.709 188.298C369.725 188.035 368.92 188.234 368.294 188.895C367.688 189.544 367.203 190.546 366.84 191.899L366.05 194.847C365.687 196.2 365.603 197.318 365.799 198.199C366.015 199.068 366.615 199.635 367.598 199.898C368.437 200.123 369.11 200.027 369.619 199.61C370.145 199.198 370.604 198.613 370.997 197.855L374.163 199.584C373.787 200.277 373.357 200.879 372.875 201.389C372.409 201.903 371.876 202.312 371.275 202.618C370.679 202.907 370.013 203.074 369.275 203.118C368.553 203.167 367.757 203.075 366.887 202.842Z" fill="#72E7FC"/>
<path d="M378.725 199.64L379.645 196.208L387.384 198.28L386.464 201.712L378.725 199.64Z" fill="#72E7FC"/>
<path d="M394.395 191.817L404.866 194.621L404.069 197.593L397.25 195.767L396.284 199.368L399.621 200.262C400.411 200.473 401.086 200.792 401.646 201.218C402.21 201.628 402.649 202.117 402.963 202.685C403.298 203.24 403.502 203.865 403.576 204.558C403.649 205.251 403.584 205.976 403.381 206.733C403.178 207.491 402.871 208.151 402.461 208.715C402.051 209.278 401.557 209.733 400.981 210.079C400.42 210.43 399.791 210.65 399.093 210.739C398.395 210.829 397.651 210.768 396.861 210.556L389.872 208.685L394.395 191.817ZM396.948 207.523C398.287 207.882 399.116 207.465 399.435 206.273L399.707 205.258C400.027 204.065 399.518 203.29 398.18 202.932L395.519 202.22L394.288 206.811L396.948 207.523Z" fill="#72E7FC"/>
<path d="M407.813 200.124L411.296 201.056L410.22 205.068L408.945 208.663L409.09 208.702L415.673 202.228L419.034 203.128L415.691 215.598L412.208 214.665L413.284 210.654L414.559 207.058L414.414 207.02L407.831 213.493L404.469 212.593L407.813 200.124Z" fill="#72E7FC"/>
<path d="M425.414 207.815L421.303 206.714L422.048 203.935L433.801 207.082L433.056 209.861L428.945 208.76L426.346 218.451L422.815 217.506L425.414 207.815Z" fill="#72E7FC"/>
<path d="M436.597 207.831L440.176 208.789L439.567 211.061L439.736 211.106C440.241 210.447 440.849 209.953 441.559 209.626C442.269 209.298 443.124 209.268 444.123 209.535C444.817 209.721 445.411 210.018 445.906 210.427C446.417 210.84 446.803 211.366 447.064 212.006C447.34 212.65 447.481 213.413 447.487 214.295C447.508 215.181 447.368 216.188 447.065 217.316C446.763 218.444 446.381 219.386 445.919 220.143C445.472 220.904 444.969 221.495 444.407 221.914C443.861 222.338 443.264 222.601 442.614 222.703C441.981 222.81 441.317 222.77 440.624 222.585C439.625 222.317 438.897 221.872 438.442 221.249C437.991 220.611 437.714 219.872 437.611 219.032L437.442 218.987L435.536 226.092L431.957 225.133L436.597 207.831ZM439.822 219.391C440.628 219.607 441.313 219.532 441.878 219.165C442.447 218.782 442.849 218.156 443.082 217.286L443.6 215.352C443.834 214.482 443.797 213.747 443.492 213.148C443.19 212.532 442.636 212.116 441.83 211.9C441.202 211.731 440.612 211.738 440.063 211.919C439.529 212.104 439.174 212.527 438.997 213.187L438.012 216.86C437.835 217.521 437.931 218.065 438.3 218.492C438.686 218.923 439.193 219.223 439.822 219.391Z" fill="#72E7FC"/>
<path d="M451.315 211.772L454.798 212.704L453.722 216.716L452.447 220.311L452.592 220.35L459.175 213.876L462.537 214.776L459.193 227.246L455.711 226.313L456.786 222.302L458.061 218.706L457.916 218.667L451.333 225.141L447.972 224.241L451.315 211.772Z" fill="#72E7FC"/>
<path d="M465.889 215.674L469.468 216.632L468.185 221.417L470.023 221.909L473.821 217.798L477.618 218.814L474.046 222.468C473.634 222.91 473.234 223.209 472.847 223.364C472.48 223.508 472.084 223.566 471.659 223.539L471.621 223.684C472.062 223.905 472.394 224.184 472.615 224.52C472.856 224.843 473.05 225.344 473.197 226.022L473.641 228.136L474.971 228.492L474.226 231.271L472.557 230.824C471.88 230.643 471.336 230.35 470.926 229.947C470.532 229.548 470.254 228.973 470.093 228.222L469.291 224.64L467.453 224.148L466.124 229.102L462.545 228.143L465.889 215.674Z" fill="#72E7FC"/>
<path d="M483.014 233.935C482.031 233.671 481.183 233.289 480.47 232.787C479.779 232.274 479.234 231.662 478.837 230.951C478.456 230.245 478.229 229.45 478.155 228.567C478.081 227.684 478.179 226.735 478.452 225.72C478.724 224.705 479.113 223.833 479.619 223.106C480.125 222.378 480.72 221.803 481.403 221.382C482.103 220.965 482.878 220.715 483.73 220.632C484.602 220.537 485.522 220.62 486.489 220.879C487.859 221.246 488.88 221.821 489.551 222.605C490.243 223.377 490.683 224.281 490.872 225.316L487.713 226.076C487.617 225.532 487.427 225.049 487.143 224.628C486.874 224.211 486.402 223.911 485.724 223.73C484.902 223.51 484.2 223.581 483.619 223.944C483.059 224.294 482.668 224.88 482.448 225.702L481.904 227.732C481.683 228.554 481.726 229.264 482.032 229.864C482.358 230.452 482.948 230.861 483.803 231.089C484.496 231.275 485.079 231.259 485.553 231.04C486.042 230.826 486.493 230.498 486.905 230.055L489.199 232.327C488.502 233.125 487.642 233.689 486.62 234.019C485.619 234.338 484.417 234.31 483.014 233.935Z" fill="#72E7FC"/>
<path d="M493.414 230.296L494.309 226.961L506.198 224.187L505.304 227.522L497.104 229.393L497.052 229.586L503.217 235.304L502.323 238.638L493.414 230.296Z" fill="#72E7FC"/>
<path d="M505.202 243.139L518.784 223.516L522 224.378L508.418 244L505.202 243.139Z" fill="#72E7FC"/>
<path d="M53.2965 153.02C51.9099 152.648 50.7569 152.115 49.8374 151.42C48.934 150.729 48.3215 149.952 48 149.089L50.5062 147.766C50.8473 148.427 51.2993 148.997 51.8621 149.476C52.4454 149.943 53.1562 150.288 53.9946 150.513C54.7039 150.703 55.2883 150.747 55.7475 150.645C56.211 150.528 56.5033 150.243 56.6242 149.792C56.7193 149.438 56.647 149.16 56.4075 148.957C56.1723 148.739 55.8237 148.525 55.3616 148.315L53.4386 147.463C52.8959 147.231 52.4043 146.97 51.9638 146.68C51.5277 146.373 51.1711 146.027 50.8942 145.642C50.6173 145.257 50.4302 144.827 50.3329 144.352C50.2356 143.877 50.2669 143.342 50.4267 142.746C50.7767 141.441 51.5508 140.552 52.7491 140.078C53.9474 139.605 55.4494 139.61 57.2551 140.093C58.4805 140.421 59.475 140.869 60.2388 141.436C61.023 141.991 61.591 142.644 61.9427 143.394L59.6088 144.945C59.346 144.443 58.9611 143.977 58.4541 143.548C57.9472 143.119 57.2826 142.794 56.4603 142.574C55.0738 142.203 54.2682 142.436 54.0435 143.274C53.9442 143.644 54.0121 143.939 54.2473 144.157C54.4868 144.359 54.8376 144.566 55.2997 144.776L57.1985 145.621C57.7412 145.852 58.2306 146.122 58.6668 146.428C59.1073 146.719 59.466 147.057 59.7429 147.442C60.036 147.831 60.2311 148.263 60.3284 148.738C60.4257 149.213 60.3944 149.749 60.2345 150.345C59.8846 151.65 59.1003 152.545 57.8815 153.03C56.6789 153.519 55.1505 153.516 53.2965 153.02Z" fill="#72E7FC"/>
<path d="M65.5355 142.621L69.1147 143.579L68.5056 145.851L68.6749 145.896C69.1799 145.237 69.7874 144.744 70.4974 144.416C71.2075 144.088 72.0623 144.058 73.0619 144.325C73.7551 144.511 74.3493 144.808 74.8445 145.217C75.3558 145.63 75.7417 146.157 76.0022 146.796C76.2788 147.44 76.4198 148.203 76.4252 149.085C76.4467 149.972 76.3063 150.979 76.0039 152.106C75.7015 153.234 75.3192 154.176 74.8571 154.933C74.411 155.694 73.9071 156.285 73.3454 156.704C72.7998 157.128 72.2022 157.391 71.5527 157.493C70.9193 157.6 70.2559 157.561 69.5626 157.375C68.5631 157.107 67.8357 156.662 67.3806 156.04C66.9298 155.401 66.6527 154.662 66.5494 153.823L66.3801 153.777L64.475 160.882L60.8958 159.924L65.5355 142.621ZM68.7601 154.181C69.5662 154.397 70.2517 154.322 70.8166 153.955C71.3859 153.572 71.7871 152.946 72.0204 152.076L72.5388 150.143C72.7721 149.273 72.7359 148.538 72.4302 147.938C72.1288 147.322 71.575 146.906 70.7689 146.69C70.1401 146.522 69.5509 146.528 69.0013 146.709C68.4678 146.894 68.1125 147.317 67.9353 147.978L66.9504 151.651C66.7733 152.311 66.8694 152.855 67.2387 153.282C67.6242 153.713 68.1313 154.013 68.7601 154.181Z" fill="#72E7FC"/>
<path d="M87.0432 161.745C86.3016 161.546 85.7548 161.201 85.4027 160.71C85.0549 160.202 84.9358 159.583 85.0453 158.853L84.9243 158.82C84.4783 159.581 83.8606 160.081 83.0711 160.318C82.2978 160.56 81.4274 160.552 80.4601 160.293C79.2509 159.969 78.3619 159.386 77.793 158.543C77.2446 157.688 77.1281 156.672 77.4435 155.496C77.7934 154.191 78.5282 153.352 79.6479 152.978C80.7676 152.605 82.2465 152.664 84.0844 153.156L86.0917 153.694L86.2602 153.065C86.4589 152.324 86.4306 151.721 86.1752 151.255C85.9403 150.778 85.4118 150.429 84.5895 150.209C83.8318 150.006 83.1802 149.987 82.6349 150.152C82.0896 150.317 81.585 150.588 81.1212 150.964L79.6289 148.7C80.2381 148.103 81.0466 147.698 82.0543 147.484C83.0824 147.259 84.2978 147.334 85.7005 147.709C87.4095 148.167 88.6337 148.918 89.3733 149.962C90.1333 150.994 90.3016 152.3 89.8782 153.879L88.4137 159.34L89.7922 159.709L89.0989 162.295L87.0432 161.745ZM82.4429 158.311C83.0717 158.48 83.6448 158.469 84.1622 158.279C84.6795 158.09 85.016 157.705 85.1715 157.125L85.5733 155.627L83.6628 155.115C82.1956 154.722 81.3303 155.017 81.0668 156L80.9372 156.483C80.8205 156.918 80.9012 157.294 81.1793 157.61C81.4574 157.926 81.8786 158.16 82.4429 158.311Z" fill="#72E7FC"/>
<path d="M91.3385 162.895L94.6822 150.425L98.2614 151.383L97.6522 153.655L97.7973 153.694C98.0375 153.378 98.3034 153.095 98.5951 152.845C98.8867 152.595 99.2079 152.397 99.5586 152.249C99.9297 152.089 100.326 151.997 100.748 151.971C101.189 151.934 101.66 151.983 102.16 152.116C102.757 152.276 103.277 152.528 103.72 152.871C104.168 153.198 104.516 153.611 104.762 154.108C105.009 154.606 105.151 155.171 105.189 155.803C105.243 156.439 105.169 157.135 104.966 157.892L102.802 165.964L99.2224 165.005L101.257 157.417C101.689 155.806 101.204 154.813 99.8011 154.438C99.527 154.364 99.2422 154.331 98.9465 154.338C98.6712 154.334 98.4072 154.384 98.1544 154.489C97.906 154.578 97.687 154.718 97.4975 154.909C97.3242 155.104 97.1965 155.355 97.1144 155.661L94.9177 163.853L91.3385 162.895Z" fill="#72E7FC"/>
<path d="M107.256 163.427L115.456 161.556L115.508 161.363L109.343 155.645L110.237 152.311L119.145 160.653L118.251 163.988L106.362 166.762L107.256 163.427Z" fill="#72E7FC"/>
<path d="M125.945 172.471C125.043 172.23 124.442 171.861 124.142 171.367C123.863 170.861 123.797 170.333 123.944 169.786L124.171 168.94C124.318 168.392 124.636 167.977 125.127 167.694C125.638 167.399 126.345 167.372 127.248 167.614C128.151 167.856 128.742 168.23 129.021 168.736C129.32 169.231 129.396 169.752 129.249 170.3L129.023 171.146C128.876 171.693 128.547 172.115 128.036 172.409C127.545 172.692 126.848 172.713 125.945 172.471Z" fill="#72E7FC"/>
<path d="M136.854 168.969L137.748 165.634L149.637 162.86L148.743 166.195L140.543 168.066L140.491 168.259L146.657 173.976L145.762 177.311L136.854 168.969Z" fill="#72E7FC"/>
<path d="M148.641 181.812L162.223 162.189L165.439 163.05L151.857 182.673L148.641 181.812Z" fill="#72E7FC"/>
<path d="M169.303 184.08C167.916 183.709 166.763 183.176 165.844 182.481C164.94 181.79 164.328 181.013 164.006 180.15L166.512 178.826C166.854 179.488 167.306 180.058 167.868 180.536C168.452 181.003 169.162 181.349 170.001 181.574C170.71 181.763 171.295 181.808 171.754 181.706C172.217 181.589 172.51 181.304 172.631 180.853C172.726 180.499 172.653 180.22 172.414 180.018C172.179 179.8 171.83 179.585 171.368 179.375L169.445 178.524C168.902 178.292 168.411 178.031 167.97 177.74C167.534 177.434 167.177 177.088 166.9 176.703C166.624 176.318 166.436 175.888 166.339 175.413C166.242 174.938 166.273 174.402 166.433 173.806C166.783 172.501 167.557 171.612 168.755 171.139C169.954 170.665 171.456 170.67 173.261 171.154C174.487 171.482 175.481 171.929 176.245 172.497C177.029 173.052 177.597 173.705 177.949 174.455L175.615 176.006C175.352 175.504 174.967 175.038 174.46 174.609C173.953 174.18 173.289 173.855 172.467 173.635C171.08 173.263 170.274 173.497 170.05 174.334C169.95 174.705 170.018 174.999 170.254 175.218C170.493 175.42 170.844 175.626 171.306 175.836L173.205 176.681C173.747 176.913 174.237 177.182 174.673 177.489C175.114 177.78 175.472 178.117 175.749 178.502C176.042 178.892 176.237 179.324 176.335 179.799C176.432 180.274 176.401 180.809 176.241 181.405C175.891 182.71 175.107 183.605 173.888 184.091C172.685 184.58 171.157 184.577 169.303 184.08Z" fill="#72E7FC"/>
<path d="M181.542 173.682L185.121 174.64L184.512 176.912L184.681 176.957C185.186 176.298 185.794 175.804 186.504 175.476C187.214 175.149 188.069 175.118 189.068 175.386C189.761 175.572 190.356 175.869 190.851 176.278C191.362 176.691 191.748 177.217 192.008 177.857C192.285 178.501 192.426 179.264 192.431 180.146C192.453 181.032 192.313 182.039 192.01 183.167C191.708 184.295 191.325 185.237 190.863 185.994C190.417 186.755 189.913 187.345 189.352 187.765C188.806 188.189 188.208 188.452 187.559 188.554C186.926 188.661 186.262 188.621 185.569 188.436C184.569 188.168 183.842 187.723 183.387 187.1C182.936 186.461 182.659 185.723 182.556 184.883L182.386 184.838L180.481 191.943L176.902 190.984L181.542 173.682ZM184.766 185.242C185.572 185.458 186.258 185.382 186.823 185.016C187.392 184.633 187.793 184.006 188.027 183.136L188.545 181.203C188.778 180.333 188.742 179.598 188.436 178.998C188.135 178.382 187.581 177.967 186.775 177.751C186.146 177.582 185.557 177.589 185.008 177.77C184.474 177.955 184.119 178.378 183.942 179.038L182.957 182.711C182.78 183.372 182.876 183.916 183.245 184.343C183.63 184.774 184.138 185.074 184.766 185.242Z" fill="#72E7FC"/>
<path d="M203.05 192.805C202.308 192.607 201.761 192.262 201.409 191.77C201.061 191.263 200.942 190.644 201.052 189.913L200.931 189.881C200.485 190.642 199.867 191.141 199.077 191.379C198.304 191.621 197.434 191.612 196.466 191.353C195.257 191.03 194.368 190.446 193.799 189.603C193.251 188.748 193.134 187.733 193.45 186.557C193.8 185.252 194.535 184.413 195.654 184.039C196.774 183.665 198.253 183.725 200.091 184.217L202.098 184.754L202.266 184.126C202.465 183.385 202.437 182.782 202.182 182.316C201.947 181.839 201.418 181.49 200.596 181.27C199.838 181.067 199.187 181.048 198.641 181.213C198.096 181.378 197.591 181.648 197.127 182.025L195.635 179.76C196.244 179.164 197.053 178.759 198.061 178.545C199.089 178.319 200.304 178.395 201.707 178.77C203.416 179.228 204.64 179.978 205.38 181.023C206.14 182.055 206.308 183.36 205.885 184.939L204.42 190.401L205.799 190.77L205.105 193.356L203.05 192.805ZM198.449 189.372C199.078 189.54 199.651 189.53 200.168 189.34C200.686 189.151 201.022 188.766 201.178 188.186L201.58 186.688L199.669 186.176C198.202 185.783 197.337 186.078 197.073 187.061L196.943 187.544C196.827 187.979 196.908 188.355 197.186 188.671C197.464 188.987 197.885 189.221 198.449 189.372Z" fill="#72E7FC"/>
<path d="M207.345 193.955L210.688 181.486L214.268 182.444L213.659 184.716L213.804 184.754C214.044 184.439 214.31 184.156 214.601 183.906C214.893 183.656 215.214 183.457 215.565 183.309C215.936 183.15 216.332 183.057 216.754 183.032C217.196 182.995 217.667 183.043 218.166 183.177C218.763 183.337 219.283 183.588 219.727 183.932C220.175 184.259 220.522 184.671 220.769 185.169C221.015 185.667 221.158 186.231 221.196 186.863C221.25 187.499 221.175 188.196 220.972 188.953L218.808 197.024L215.229 196.066L217.263 188.478C217.695 186.867 217.21 185.874 215.807 185.498C215.533 185.425 215.248 185.392 214.953 185.399C214.678 185.394 214.414 185.444 214.161 185.549C213.912 185.638 213.693 185.778 213.504 185.969C213.33 186.165 213.203 186.415 213.121 186.721L210.924 194.914L207.345 193.955Z" fill="#72E7FC"/>
<path d="M223.262 194.487L231.462 192.617L231.514 192.423L225.349 186.706L226.243 183.371L235.152 191.714L234.258 195.049L222.368 197.822L223.262 194.487Z" fill="#72E7FC"/>
</g>
<defs>
<filter id="filter0_d_685_4712" x="0" y="0" width="570" height="296" filterUnits="userSpaceOnUse" color-interpolation-filters="sRGB">
<feFlood flood-opacity="0" result="BackgroundImageFix"/>
<feColorMatrix in="SourceAlpha" type="matrix" values="0 0 0 0 0 0 0 0 0 0 0 0 0 0 0 0 0 0 127 0" result="hardAlpha"/>
<feOffset dy="4"/>
<feGaussianBlur stdDeviation="24"/>
<feComposite in2="hardAlpha" operator="out"/>
<feColorMatrix type="matrix" values="0 0 0 0 0.372549 0 0 0 0 0.776471 0 0 0 0 0.941176 0 0 0 0.58 0"/>
<feBlend mode="normal" in2="BackgroundImageFix" result="effect1_dropShadow_685_4712"/>
<feBlend mode="normal" in="SourceGraphic" in2="effect1_dropShadow_685_4712" result="shape"/>
</filter>
</defs>
</svg>
