<svg width="56" height="55" viewBox="0 0 56 55" fill="none" xmlns="http://www.w3.org/2000/svg">
<g clip-path="url(#clip0_209_10771)">
<circle cx="28" cy="27.5" r="27" fill="white" stroke="#F0F0F0"/>
<path d="M11.338 33.384C11.5381 33.5387 11.6931 33.7272 11.8028 33.9496C11.9126 34.172 11.9675 34.4185 11.9675 34.6893V35.0953C11.9675 35.6497 11.8093 36.0928 11.4929 36.4248C11.1765 36.7567 10.76 36.9226 10.2434 36.9226H9.01335C8.86482 36.9226 8.74216 36.8743 8.64531 36.7777C8.5484 36.681 8.5 36.5585 8.5 36.4103V31.808C8.5 31.2666 8.65337 30.8315 8.96006 30.5028C9.2668 30.174 9.66872 30.0097 10.1659 30.0097C10.6696 30.0097 11.0764 30.174 11.3863 30.5028C11.6963 30.8315 11.8513 31.2666 11.8513 31.808V32.1948C11.8578 32.4397 11.8158 32.6653 11.7254 32.8716C11.635 33.0778 11.5058 33.2486 11.338 33.384ZM9.71073 32.9296H10.1756C10.3242 32.9296 10.4387 32.8764 10.5195 32.77C10.6002 32.6637 10.6406 32.517 10.6406 32.3301V31.7017C10.6406 31.5276 10.597 31.389 10.5098 31.2859C10.4226 31.1828 10.3048 31.1312 10.1563 31.1312C10.0142 31.1312 9.90443 31.1828 9.82693 31.2859C9.74944 31.389 9.71073 31.5276 9.71073 31.7017V32.9296ZM10.7374 34.6506C10.7374 34.4443 10.6906 34.2848 10.597 34.172C10.5033 34.0592 10.3758 34.0028 10.2144 34.0028H9.71073V35.8205H10.2144C10.3823 35.8205 10.5114 35.7657 10.6018 35.6561C10.6922 35.5465 10.7374 35.3918 10.7374 35.192V34.6506ZM14.1856 36.9903C13.6561 36.9903 13.2267 36.8211 12.8974 36.4827C12.568 36.1443 12.4034 35.698 12.4034 35.1437V31.8564C12.4034 31.302 12.568 30.8557 12.8974 30.5173C13.2267 30.1789 13.6561 30.0097 14.1856 30.0097C14.7151 30.0097 15.1429 30.1773 15.469 30.5124C15.795 30.8476 15.9581 31.2859 15.9581 31.8273V35.1727C15.9581 35.7141 15.795 36.1524 15.469 36.4876C15.1429 36.8227 14.7151 36.9903 14.1856 36.9903ZM14.1856 35.8591C14.3535 35.8591 14.4874 35.806 14.5875 35.6996C14.6876 35.5932 14.7376 35.4466 14.7376 35.2597V31.7403C14.7376 31.5534 14.6876 31.4052 14.5875 31.2956C14.4874 31.186 14.3535 31.1312 14.1856 31.1312C14.0177 31.1312 13.8821 31.1876 13.7788 31.3004C13.6755 31.4133 13.6238 31.5695 13.6238 31.7694V35.2307C13.6238 35.424 13.6738 35.5771 13.7739 35.6899C13.874 35.8027 14.0112 35.8591 14.1856 35.8591ZM16.9169 36.884C16.8007 36.884 16.7426 36.826 16.7426 36.71V31.8273C16.7426 31.2859 16.9008 30.846 17.2172 30.5076C17.5336 30.1692 17.9533 30 18.4764 30C18.9994 30 19.4207 30.1692 19.7404 30.5076C20.06 30.846 20.2198 31.2859 20.2198 31.8273V36.71C20.2198 36.826 20.1617 36.884 20.0454 36.884H19.1737C19.0575 36.884 18.9994 36.826 18.9994 36.71V31.7403C18.9994 31.5534 18.9525 31.4052 18.8589 31.2956C18.7653 31.186 18.6378 31.1312 18.4764 31.1312C18.3149 31.1312 18.1874 31.186 18.0938 31.2956C18.0001 31.4052 17.9533 31.5534 17.9533 31.7403V36.71C17.9533 36.826 17.8984 36.884 17.7887 36.884H16.9169ZM21.2465 36.884C21.1303 36.884 21.0722 36.826 21.0722 36.71V31.8371C21.0722 31.2891 21.232 30.8476 21.5516 30.5124C21.8712 30.1773 22.2893 30.0097 22.8059 30.0097C23.3289 30.0097 23.7503 30.1773 24.0699 30.5124C24.3895 30.8476 24.5493 31.2891 24.5493 31.8371V36.71C24.5493 36.826 24.4912 36.884 24.375 36.884H23.5033C23.3871 36.884 23.3289 36.826 23.3289 36.71V34.8053H22.2829V36.71C22.2829 36.826 22.228 36.884 22.1182 36.884H21.2465ZM23.3289 33.6934V31.75C23.3289 31.5631 23.2821 31.4149 23.1885 31.3052C23.0948 31.1957 22.9673 31.1409 22.8059 31.1409C22.6445 31.1409 22.517 31.1957 22.4233 31.3052C22.3297 31.4149 22.2829 31.5631 22.2829 31.75V33.6934H23.3289ZM27.087 37C26.564 37 26.141 36.8324 25.8182 36.4973C25.4953 36.1621 25.3339 35.7206 25.3339 35.1727V31.8177C25.3339 31.2763 25.4921 30.838 25.8085 30.5028C26.1249 30.1676 26.5414 30 27.058 30C27.5552 30 27.9652 30.1724 28.288 30.5173C28.6109 30.8621 28.7788 31.3182 28.7917 31.8854C28.7917 32.0014 28.7368 32.0594 28.6271 32.0594H27.7553C27.6456 32.0594 27.5842 32.0046 27.5713 31.895C27.5649 31.6372 27.5148 31.4455 27.4212 31.3198C27.3275 31.1941 27.2065 31.1312 27.058 31.1312C26.8965 31.1312 26.7723 31.1844 26.6851 31.2907C26.5979 31.3971 26.5543 31.5437 26.5543 31.7307V35.2597C26.5543 35.4466 26.606 35.5949 26.7093 35.7044C26.8126 35.814 26.9482 35.8688 27.1161 35.8688C27.2775 35.8688 27.4083 35.8157 27.5083 35.7093C27.6084 35.6029 27.6585 35.4628 27.6585 35.2887V34.1962H27.2711C27.1548 34.1962 27.0967 34.1381 27.0967 34.0221V33.326C27.0967 33.2099 27.1548 33.152 27.2711 33.152H28.3559C28.5173 33.152 28.6416 33.1954 28.7287 33.2825C28.8159 33.3695 28.8595 33.4968 28.8595 33.6644V35.2017C28.8595 35.7367 28.6965 36.1702 28.3704 36.5021C28.0443 36.834 27.6165 37 27.087 37ZM29.7216 36.884C29.6054 36.884 29.5472 36.826 29.5472 36.71V31.8371C29.5472 31.2891 29.7071 30.8476 30.0266 30.5124C30.3463 30.1773 30.7644 30.0097 31.281 30.0097C31.804 30.0097 32.2254 30.1773 32.545 30.5124C32.8646 30.8476 33.0244 31.2891 33.0244 31.8371V36.71C33.0244 36.826 32.9663 36.884 32.8501 36.884H31.9784C31.8622 36.884 31.804 36.826 31.804 36.71V34.8053H30.758V36.71C30.758 36.826 30.703 36.884 30.5933 36.884H29.7216ZM31.804 33.6934V31.75C31.804 31.5631 31.7572 31.4149 31.6635 31.3052C31.5699 31.1957 31.4424 31.1409 31.281 31.1409C31.1195 31.1409 30.992 31.1957 30.8984 31.3052C30.8047 31.4149 30.758 31.5631 30.758 31.75V33.6934H31.804ZM34.0511 36.884C33.9349 36.884 33.8768 36.826 33.8768 36.71V31.8371C33.8768 31.2891 34.0366 30.846 34.3562 30.5076C34.6758 30.1692 35.0907 30 35.6009 30C36.1303 30 36.5565 30.1692 36.8794 30.5076C37.2022 30.846 37.3636 31.2891 37.3636 31.8371V32.6782C37.3636 33.0134 37.3007 33.3115 37.1748 33.5726C37.0489 33.8336 36.8729 34.0414 36.6469 34.1962L37.5864 36.71L37.5961 36.7486C37.5961 36.7938 37.58 36.8276 37.5477 36.8502C37.5154 36.8727 37.4735 36.884 37.4218 36.884H36.4823C36.4371 36.884 36.4031 36.8711 36.3806 36.8454C36.358 36.8195 36.3337 36.7777 36.3079 36.7196L35.5524 34.5055H35.0972V36.71C35.0972 36.826 35.0423 36.884 34.9325 36.884H34.0511ZM35.5427 33.3937C35.7429 33.3937 35.893 33.3357 35.9931 33.2197C36.0932 33.1036 36.1432 32.936 36.1432 32.7169V31.75C36.1432 31.5631 36.0965 31.4149 36.0028 31.3052C35.9092 31.1957 35.7784 31.1409 35.6105 31.1409C35.4555 31.1409 35.3313 31.1957 35.2376 31.3052C35.144 31.4149 35.0972 31.5631 35.0972 31.75V33.3937H35.5427ZM38.7971 36.9226C38.6292 36.9226 38.5017 36.8792 38.4145 36.7922C38.3274 36.7051 38.2838 36.581 38.2838 36.4199V30.5801C38.2838 30.419 38.3274 30.2949 38.4145 30.2079C38.5017 30.1209 38.6292 30.0774 38.7971 30.0774H39.9885C40.5115 30.0774 40.9328 30.2449 41.2525 30.5801C41.5722 30.9153 41.7319 31.3536 41.7319 31.895V35.105C41.7319 35.6464 41.5722 36.0847 41.2525 36.4199C40.9328 36.7551 40.5115 36.9226 39.9885 36.9226H38.7971ZM39.9207 35.8108C40.1144 35.8108 40.2613 35.7528 40.3614 35.6368C40.4615 35.5207 40.5115 35.3564 40.5115 35.1437V31.8564C40.5115 31.4116 40.3146 31.1892 39.9207 31.1892H39.4945V35.8108H39.9207ZM44.1921 36.9226C43.6691 36.9226 43.2478 36.7551 42.9282 36.4199C42.6085 36.0847 42.4487 35.6464 42.4487 35.105V31.8854C42.4487 31.3504 42.6085 30.9153 42.9282 30.5801C43.2478 30.2449 43.6691 30.0774 44.1921 30.0774H45.2092C45.3254 30.0774 45.3835 30.1322 45.3835 30.2417V31.0152C45.3835 31.1312 45.3254 31.1892 45.2092 31.1892H44.3374C44.1308 31.1892 43.9678 31.2553 43.8483 31.3874C43.7289 31.5196 43.6691 31.6985 43.6691 31.9241V32.9296H44.967C45.0833 32.9296 45.1414 32.9876 45.1414 33.1036V33.8384C45.1414 33.9544 45.0833 34.0125 44.967 34.0125H43.6691V35.076C43.6691 35.3016 43.7289 35.4805 43.8483 35.6126C43.9678 35.7447 44.1308 35.8108 44.3374 35.8108H45.2092C45.3254 35.8108 45.3835 35.8656 45.3835 35.9751V36.7583C45.3835 36.8679 45.3254 36.9226 45.2092 36.9226H44.1921ZM46.1972 36.884C46.0809 36.884 46.0228 36.826 46.0228 36.71V31.8273C46.0228 31.2859 46.181 30.846 46.4974 30.5076C46.8138 30.1692 47.2335 30 47.7566 30C48.2796 30 48.7009 30.1692 49.0206 30.5076C49.3402 30.846 49.5 31.2859 49.5 31.8273V36.71C49.5 36.826 49.4419 36.884 49.3257 36.884H48.4539C48.3377 36.884 48.2796 36.826 48.2796 36.71V31.7403C48.2796 31.5534 48.2328 31.4052 48.1391 31.2956C48.0455 31.186 47.918 31.1312 47.7566 31.1312C47.5951 31.1312 47.4676 31.186 47.374 31.2956C47.2803 31.4052 47.2335 31.5534 47.2335 31.7403V36.71C47.2335 36.826 47.1786 36.884 47.0689 36.884H46.1972Z" fill="#333333"/>
<path d="M13.9196 39.3174V39H12.5V41.3293H12.85V39.3174H13.9196ZM15.485 41.3293V40.2202C15.485 39.8441 15.2549 39.651 14.7979 39.651C14.6423 39.651 14.5257 39.6707 14.4317 39.7164C14.3506 39.7525 14.3086 39.7917 14.2178 39.8898L14.4349 40.096C14.4835 40.0338 14.5192 40.0011 14.5678 39.9782C14.6261 39.9487 14.6942 39.9357 14.7882 39.9357C15.0475 39.9357 15.1577 40.0273 15.1577 40.2432V40.3642H14.7169C14.3669 40.3642 14.153 40.5442 14.153 40.8451C14.153 41.1657 14.3572 41.3457 14.7234 41.3457C14.9178 41.3457 15.0248 41.3162 15.1609 41.1788V41.3293H15.485ZM15.1577 40.7306C15.1577 40.9727 15.0539 41.0709 14.7979 41.0709C14.5743 41.0709 14.4738 40.9956 14.4738 40.8353C14.4738 40.6783 14.5743 40.5998 14.7688 40.5998H15.1577V40.7306ZM17.3356 40.5049C17.3356 40.3086 17.3259 40.1974 17.3 40.0796C17.2352 39.7917 17.0342 39.651 16.7425 39.651C16.5448 39.651 16.4508 39.7066 16.318 39.8441V39.6707H15.9939V42H16.3244V41.1592C16.4476 41.2966 16.5578 41.349 16.7458 41.349C16.9143 41.349 17.0569 41.2966 17.1541 41.1985C17.2838 41.0676 17.3356 40.8648 17.3356 40.5049ZM17.0083 40.4984C17.0083 40.8942 16.911 41.0512 16.668 41.0512C16.4249 41.0512 16.3244 40.8942 16.3244 40.5115C16.3244 40.3217 16.3439 40.1974 16.386 40.109C16.4379 40.0011 16.5286 39.9487 16.6647 39.9487C16.911 39.9487 17.0083 40.1025 17.0083 40.4984ZM19.4196 41.3293V39.6707H19.0954L18.6061 40.6586L18.1134 39.6707H17.7861V41.3293H18.1167V40.2661L18.5023 41.0251H18.7098L19.089 40.2661V41.3293H19.4196ZM21.2378 40.4918C21.2378 40.1745 21.1827 39.9913 21.0466 39.8473C20.9234 39.7197 20.7517 39.651 20.5539 39.651C20.3562 39.651 20.1877 39.7197 20.0645 39.8473C19.9252 39.9946 19.8701 40.1745 19.8701 40.4984C19.8701 40.8255 19.9252 41.0054 20.0645 41.1526C20.1877 41.2803 20.3562 41.349 20.5539 41.349C20.7517 41.349 20.9234 41.2803 21.0466 41.1526C21.1859 41.0054 21.2378 40.8255 21.2378 40.4918ZM20.9105 40.5049C20.9105 40.6979 20.8878 40.8452 20.81 40.94C20.7517 41.0087 20.6641 41.0512 20.5539 41.0512C20.4502 41.0512 20.366 41.0153 20.3076 40.9466C20.2331 40.8615 20.2007 40.7306 20.2007 40.5115C20.2007 40.3151 20.2201 40.1614 20.3012 40.06C20.3595 39.9913 20.4437 39.9487 20.5539 39.9487C20.6641 39.9487 20.7484 39.9913 20.8067 40.0567C20.891 40.1516 20.9105 40.2988 20.9105 40.5049ZM23.0042 41.3293V39.6707H22.6736V40.3315H22.0189V39.6707H21.6883V41.3293H22.0189V40.6227H22.6736V41.3293H23.0042ZM24.8937 41.3293V39.6707H24.5631L23.8598 40.7961V39.6707H23.5292V41.3293H23.8598L24.5631 40.1876V41.3293H24.8937ZM26.6309 41.3293V39.6707H25.8563C25.5419 39.6707 25.3216 39.8833 25.3216 40.1843C25.3216 40.4231 25.4576 40.5998 25.6683 40.6586L25.2989 41.3293H25.6878L25.9989 40.7208C25.9989 40.7208 26.2938 40.7208 26.3003 40.7208V41.3293H26.6309ZM26.3036 40.446H25.9114C25.7461 40.446 25.6489 40.3512 25.6489 40.1974C25.6489 40.0436 25.7461 39.9487 25.9114 39.9487H26.3036V40.446ZM29.0616 39.9618V39.6707H27.7069V39.9618H28.2287V41.3293H28.5592V39.9618H29.0616ZM30.6659 40.5998V40.4493C30.6659 39.9618 30.3969 39.651 29.9724 39.651C29.5413 39.651 29.2755 39.9716 29.2755 40.4918C29.2755 41.0545 29.5283 41.349 30.021 41.349C30.2835 41.349 30.4423 41.2737 30.6271 41.0905L30.4196 40.8909C30.3029 41.0054 30.1992 41.0643 30.0339 41.0643C29.726 41.0643 29.6094 40.8779 29.6029 40.5998H30.6659ZM30.3418 40.3642H29.6029C29.6094 40.1352 29.7066 39.9291 29.9724 39.9291C30.2413 39.9291 30.3256 40.1385 30.3418 40.3642ZM32.4258 41.3293V39.6707H31.2947L31.2688 40.5932C31.259 40.9695 31.1002 41.0382 30.9674 41.0382H30.8993V41.3293H31.0775C31.3822 41.3293 31.5831 41.133 31.5961 40.6652L31.6155 39.9618H32.0952V41.3293H32.4258ZM34.1629 41.3293V40.2202C34.1629 39.8441 33.9328 39.651 33.4759 39.651C33.3203 39.651 33.2036 39.6707 33.1096 39.7164C33.0286 39.7525 32.9865 39.7917 32.8958 39.8898L33.1129 40.096C33.1615 40.0338 33.1972 40.0011 33.2458 39.9782C33.3041 39.9487 33.3721 39.9357 33.4662 39.9357C33.7254 39.9357 33.8356 40.0273 33.8356 40.2432V40.3642H33.3949C33.0448 40.3642 32.8309 40.5442 32.8309 40.8451C32.8309 41.1657 33.0351 41.3457 33.4013 41.3457C33.5958 41.3457 33.7027 41.3162 33.8389 41.1788V41.3293H34.1629ZM33.8356 40.7306C33.8356 40.9727 33.7319 41.0709 33.4759 41.0709C33.2522 41.0709 33.1518 40.9956 33.1518 40.8353C33.1518 40.6783 33.2522 40.5998 33.4467 40.5998H33.8356V40.7306ZM36.8141 41.3293V39.6707H36.4835L35.7802 40.7961V39.6707H35.4496V41.3293H35.7802L36.4835 40.1876V41.3293H36.8141ZM39.6338 41.7874V41.0382H39.4069V39.6707H38.2952V39.9029C38.2952 40.5016 38.2207 40.7503 38.104 41.0382H37.916V41.7874H38.2304V41.3293H39.3161V41.7874H39.6338ZM39.0763 41.0382H38.4443C38.5318 40.8189 38.5966 40.6031 38.6063 40.2334C38.6063 40.2039 38.6096 39.9978 38.6096 39.9618H39.0763V41.0382ZM41.2186 39.6707H40.8653L40.4829 40.8419L40.0908 39.6707H39.7375L40.3144 41.2508L40.2236 41.5125C40.175 41.6532 40.1231 41.6859 39.987 41.6859H39.9027V41.9869H40.0356C40.2722 41.9869 40.4116 41.8855 40.4926 41.6597L41.2186 39.6707ZM43.6072 41.3293V39.6707H43.2766V41.0382H42.7224V39.6707H42.3918V41.0382H41.8344V39.6707H41.5038V41.3293H43.6072ZM45.5 41.3293V39.6707H45.1694L44.4661 40.7961V39.6707H44.1355V41.3293H44.4661L45.1694 40.1876V41.3293H45.5Z" fill="#595959"/>
<path d="M29 26.0745C29.6626 26.0745 30.2898 25.4422 30.768 24.4201C31.2927 23.2987 31.6173 21.7366 31.6173 20C31.6173 18.2634 31.2928 16.7014 30.768 15.5799C30.2898 14.5578 29.6627 13.9255 29 13.9255C28.3373 13.9255 27.7102 14.5578 27.232 15.5799C26.7072 16.7014 26.3827 18.2634 26.3827 20C26.3827 21.7366 26.7073 23.2987 27.232 24.4201C27.7102 25.4422 28.3374 26.0745 29 26.0745ZM31.5576 24.825C30.9289 26.1687 30.0265 27 29 27C27.9734 27 27.0711 26.1687 26.4424 24.825C25.8602 23.5805 25.5 21.8738 25.5 20C25.5 18.1262 25.8601 16.4195 26.4424 15.175C27.0711 13.8313 27.9734 13 29 13C30.0266 13 30.9289 13.8313 31.5576 15.175C32.1399 16.4195 32.5 18.1262 32.5 20C32.5 21.8738 32.1398 23.5805 31.5576 24.825Z" fill="#E6BE80"/>
<path d="M22.6464 15.3286C23.5702 14.7677 24.8385 14.948 26.1418 15.6929C27.3482 16.3823 28.6114 17.5695 29.6451 19.0907C30.6786 20.6116 31.2954 22.1911 31.4569 23.515C31.6315 24.9452 31.2775 26.1105 30.3536 26.6714C29.4298 27.2322 28.1616 27.052 26.8582 26.3072C25.6519 25.6178 24.3888 24.4307 23.355 22.9095L23.3466 22.897C22.318 21.3795 21.7041 19.8052 21.5431 18.485C21.3685 17.0548 21.7225 15.8895 22.6464 15.3286ZM25.6557 16.4553C24.6614 15.8871 23.7491 15.7161 23.1546 16.077C22.5602 16.4379 22.3454 17.2932 22.4786 18.3841C22.6246 19.5814 23.1923 21.0244 24.1467 22.4289L24.1515 22.436C25.1048 23.8368 26.2549 24.9222 27.3443 25.5448C28.3386 26.1129 29.2509 26.2838 29.8454 25.9229C30.4398 25.562 30.6546 24.7068 30.5214 23.6159C30.3753 22.4186 29.8076 20.9756 28.8533 19.5711C27.8991 18.1669 26.7469 17.0789 25.6557 16.4553Z" fill="#5FA494"/>
<path d="M34.8454 16.077C34.2509 15.7161 33.3386 15.8871 32.3443 16.4552C31.2531 17.0788 30.1009 18.1668 29.1467 19.5711C28.1923 20.9756 27.6246 22.4186 27.4784 23.6159C27.3453 24.7068 27.5602 25.5621 28.1546 25.923C28.7491 26.2839 29.6614 26.1129 30.6556 25.5448C31.7469 24.9212 32.8991 23.8332 33.8533 22.4289C34.8078 21.0243 35.3755 19.5813 35.5216 18.3841C35.6547 17.2931 35.4398 16.4379 34.8454 16.077ZM31.8582 15.6929C33.1616 14.948 34.4299 14.7678 35.3537 15.3286C36.2775 15.8895 36.6315 17.0547 36.457 18.485C36.2953 19.8089 35.6786 21.3884 34.6451 22.9093C33.6115 24.4305 32.3482 25.6177 31.1417 26.3071C29.8384 27.052 28.5701 27.2323 27.6464 26.6714C26.7225 26.1105 26.3685 24.9452 26.5431 23.515C26.7047 22.1911 27.3215 20.6116 28.3549 19.0907C29.3886 17.5695 30.6518 16.3823 31.8582 15.6929Z" fill="#F08365"/>
</g>
<defs>
<clipPath id="clip0_209_10771">
<rect width="55" height="55" fill="white" transform="translate(0.5)"/>
</clipPath>
</defs>
</svg>
