<svg width="140" height="47" viewBox="0 0 140 47" fill="none" xmlns="http://www.w3.org/2000/svg">
<path d="M22.8027 47C33.9894 47 43.2645 41.0363 43.2645 31.7357C43.2645 23.713 36.9631 18.1042 27.9004 16.7553L41.4236 6.38973V0H2.27005V10.5076H23.3691L10.3415 20.0211L15.7225 26.0559C17.2801 25.7009 19.5458 25.3459 21.3866 25.3459C27.4756 25.3459 31.0157 27.3338 31.0157 30.5287C31.0157 33.7946 27.4048 35.7825 22.8027 35.7825C17.5633 35.7825 13.9524 33.3686 12.9612 29.1088H0.5V32.0906C3.47369 40.9653 12.3948 47 22.8027 47Z" fill="white"/>
<path d="M90.9237 26.1269H83.5603V0H72.9399L46.7432 26.8369V35.9245H71.5239V46.148H83.5603V35.9245H89.5076L90.9237 26.1269ZM59.2751 26.1269L71.5239 14.5544V26.1269H59.2751Z" fill="white"/>
<path d="M117.976 47C130.367 47 139.5 40.3973 139.5 30.0317C139.5 19.7372 130.862 13.1344 117.764 13.1344C115.427 13.1344 112.454 13.5604 109.834 14.1994L110.188 10.5076H136.243V0H100.913L98.364 24.565H108.984C111.108 23.642 113.728 23.074 116.631 23.074C123.074 23.074 127.251 25.4169 127.251 29.3928C127.251 33.4396 123.924 35.7825 117.976 35.7825C112.737 35.7825 109.126 33.3686 108.135 29.1088H95.6735V32.0906C98.5056 40.8943 107.568 47 117.976 47Z" fill="white"/>
</svg>
