<svg width="92" height="48" viewBox="0 0 92 48" fill="none" xmlns="http://www.w3.org/2000/svg">
<path d="M1.90977 47.1542H41.0308V36.7225H24.2546C33.0657 31.0837 39.9735 23.6828 39.9735 15.7181C39.9735 6.27313 32.0083 0 21.3646 0C11.7077 0 2.68514 6.55507 0.5 14.8018V17.7621H12.906C13.7518 13.815 16.5009 11.1366 20.7302 11.1366C24.9595 11.1366 27.779 13.533 27.779 17.1278C27.779 25.7269 10.1569 35.5242 1.90977 38.4141V47.1542Z" fill="white"/>
<path d="M70.0715 48C82.407 48 91.5 41.4449 91.5 31.1542C91.5 20.9339 82.9004 14.3789 69.8601 14.3789C67.5339 14.3789 64.5734 14.8018 61.9654 15.4361L62.3178 11.7709H88.2575V1.33921H53.0838L50.5462 25.7269H61.1195C63.2341 24.8106 65.8422 24.2467 68.7322 24.2467C75.1467 24.2467 79.3055 26.5727 79.3055 30.5198C79.3055 34.5374 75.9925 36.8634 70.0715 36.8634C64.8554 36.8634 61.2605 34.467 60.2736 30.2379H47.8677V33.1982C50.6872 41.9383 59.7097 48 70.0715 48Z" fill="white"/>
</svg>
