<svg width="142" height="52" viewBox="0 0 142 52" fill="none" xmlns="http://www.w3.org/2000/svg">
<path d="M47.8946 29.5507H39.9955V1.45081H28.6026L0.5 30.3142V40.0881H27.0835V51.0837H39.9955V40.0881H46.3755L47.8946 29.5507ZM13.9437 29.5507L27.0835 17.1043V29.5507H13.9437Z" fill="white"/>
<path d="M77.7506 52C91.8019 52 102.283 41.8443 102.283 25.9618C102.283 10.0793 91.8019 0 77.7506 0C63.6234 0 53.2178 10.0793 53.2178 25.9618C53.2178 41.8443 63.6234 52 77.7506 52ZM77.7506 12.0646C84.6623 12.0646 89.1435 17.257 89.1435 25.9618C89.1435 34.743 84.6623 39.9354 77.7506 39.9354C70.8389 39.9354 66.3577 34.743 66.3577 25.9618C66.3577 17.257 70.8389 12.0646 77.7506 12.0646Z" fill="white"/>
<path d="M109.524 33.8267H120.233V44.6696H130.715V33.8267H141.5V23.2893H130.715V12.5228H120.233V23.2893H109.524V33.8267Z" fill="white"/>
</svg>
