<svg width="133" height="113" viewBox="0 0 133 113" fill="none" xmlns="http://www.w3.org/2000/svg">
<g opacity="0.45">
<path d="M65.1426 56.5L97.7227 113L130.285 56.5H65.1426Z" fill="#D9D9D9"/>
<path d="M65.1429 56.5L32.5801 113L0 56.5H65.1429Z" fill="#F0F0F0"/>
<path d="M65.1426 56.5L97.7227 0L130.285 56.5H65.1426Z" fill="#F0F0F0"/>
<path d="M97.7141 0L65.134 56.5L32.5713 0H97.7141Z" fill="#D9D9D9"/>
<path d="M32.5713 113L65.134 56.5L97.7141 113H32.5713Z" fill="#D9D9D9"/>
<path d="M65.1429 56.5L32.5801 0L0 56.5H65.1429Z" fill="white"/>
<path opacity="0.36" d="M45.4201 91.4762L24.4287 55.1724L45.4201 18.8333H87.5093L108.572 55.1724L87.5093 91.4762H45.4201Z" fill="#F0F0F0"/>
<path d="M77.3924 34.9762H52.9282L40.7139 56.491L52.9282 78.0238H77.3924L89.571 56.491L77.3924 34.9762Z" fill="white"/>
</g>
</svg>
