<svg width="400" height="219" viewBox="0 0 400 219" fill="none" xmlns="http://www.w3.org/2000/svg">
<g clip-path="url(#clip0_672_2944)">
<rect width="400" height="219" rx="10" fill="#2E2D2B"/>
<path d="M60.5748 93.3767L129.773 162.575L35.2466 187.903L60.5748 93.3767Z" fill="#F2B94B"/>
<path d="M72.4521 150.688L66.4278 139.442L63.8378 129.776L71.8215 127.636L74.4115 137.302L74.8176 150.054L72.4521 150.688ZM76.8883 162.513C75.1141 162.989 73.7679 162.958 72.8494 162.422C71.931 161.885 71.3357 161.109 71.0635 160.093L70.6552 158.57C70.3915 157.586 70.5233 156.632 71.0504 155.708C71.6105 154.775 72.7611 154.076 74.5024 153.609C76.2437 153.143 77.5736 153.177 78.492 153.714C79.4433 154.242 80.0508 154.997 80.3145 155.981L80.7227 157.505C80.9949 158.521 80.8674 159.491 80.3403 160.415C79.8131 161.338 78.6624 162.038 76.8883 162.513Z" fill="#2E2D2B"/>
<rect x="190" y="-96" width="172" height="112" transform="rotate(15 190 -96)" fill="#2D87DB"/>
<rect width="221" height="73" transform="translate(32 2) rotate(9.09099)" fill="#F08F3B"/>
<path d="M70.4277 49.0548L71.0382 45.2393L83.9445 40.7826L83.334 44.598L74.4279 47.6249L74.3925 47.8461L81.9095 53.5008L81.2989 57.3163L70.4277 49.0548ZM92.3177 52.359L91.8566 45.1394L92.7547 39.5268L97.2337 40.2435L96.3356 45.8561L93.6448 52.5713L92.3177 52.359ZM91.8531 59.5155C90.8578 59.3562 90.1913 59.0321 89.8536 58.5433C89.5159 58.0545 89.3943 57.5152 89.4886 56.9253L89.6302 56.0406C89.7216 55.4692 90.004 55.004 90.4774 54.6449C90.9692 54.2888 91.7035 54.1889 92.6804 54.3452C93.6573 54.5015 94.3146 54.8241 94.6523 55.3129C95.0084 55.8047 95.1407 56.3363 95.0493 56.9077L94.9077 57.7925C94.8133 58.3823 94.5295 58.8567 94.0561 59.2158C93.5828 59.5748 92.8484 59.6747 91.8531 59.5155ZM108.818 62.2301C106.422 61.8467 104.713 60.8926 103.69 59.3679C102.668 57.8432 102.339 55.938 102.705 53.6524C102.891 52.4912 103.214 51.4748 103.675 50.6034C104.157 49.7164 104.745 48.9976 105.438 48.4468C106.152 47.8806 106.96 47.4994 107.861 47.3033C108.783 47.0917 109.779 47.0715 110.848 47.2425C111.917 47.4136 112.847 47.7421 113.639 48.228C114.434 48.6954 115.076 49.2897 115.566 50.0107C116.055 50.7318 116.385 51.569 116.553 52.5223C116.744 53.4602 116.75 54.482 116.573 55.588L116.379 56.8045L106.619 55.2428L106.579 55.4916C106.431 56.4132 106.598 57.2055 107.078 57.8683C107.561 58.5127 108.355 58.9234 109.461 59.1003C110.309 59.236 111.062 59.1958 111.72 58.9798C112.382 58.7454 112.976 58.3963 113.504 57.9325L115.331 60.6918C114.669 61.2854 113.801 61.7513 112.726 62.0897C111.651 62.4281 110.348 62.4749 108.818 62.2301ZM110.407 50.1777C109.522 50.0361 108.768 50.199 108.145 50.6665C107.543 51.1184 107.169 51.8052 107.021 52.7268L106.986 52.948L112.737 53.8682L112.772 53.647C112.923 52.707 112.783 51.9284 112.352 51.3113C111.94 50.6971 111.291 50.3192 110.407 50.1777ZM119.323 60.3097L122.613 60.8362L123.878 52.9288L120.588 52.4023L121.097 49.2228L128.479 50.404L127.833 54.4406L128.027 54.4716C128.238 53.9762 128.493 53.5065 128.791 53.0627C129.11 52.6033 129.474 52.2174 129.883 51.9048C130.314 51.5767 130.805 51.3433 131.357 51.2047C131.908 51.0661 132.534 51.0529 133.234 51.1649L134.589 51.3817L133.988 55.1419L130.946 54.6552C129.932 54.493 129.119 54.6747 128.505 55.2004C127.895 55.7077 127.52 56.3945 127.382 57.2608L126.705 61.491L131.405 62.243L130.896 65.4226L118.814 63.4893L119.323 60.3097ZM135.901 62.9624L139.191 63.4889L140.456 55.5815L137.166 55.055L137.675 51.8755L145.057 53.0567L144.411 57.0934L144.605 57.1243C144.816 56.6289 145.071 56.1592 145.369 55.7154C145.688 55.256 146.052 54.8701 146.462 54.5575C146.892 54.2294 147.383 53.996 147.935 53.8574C148.486 53.7188 149.112 53.7056 149.813 53.8176L151.167 54.0344L150.566 57.7946L147.524 57.3079C146.511 57.1457 145.697 57.3275 145.084 57.8531C144.473 58.3604 144.099 59.0472 143.96 59.9135L143.283 64.1437L147.983 64.8958L147.474 68.0753L135.392 66.142L135.901 62.9624ZM158.166 70.1263C157.06 69.9494 156.091 69.6242 155.259 69.1509C154.431 68.6591 153.755 68.0405 153.231 67.2951C152.726 66.5526 152.381 65.694 152.197 64.7193C152.013 63.7447 152.014 62.6767 152.199 61.5155C152.385 60.3542 152.718 59.3394 153.197 58.4708C153.676 57.6023 154.272 56.8942 154.983 56.3464C155.713 55.8015 156.547 55.434 157.485 55.2438C158.425 55.0351 159.449 55.0193 160.555 55.1963C161.661 55.3732 162.628 55.7076 163.457 56.1994C164.288 56.6727 164.957 57.2806 165.462 58.0231C165.985 58.7685 166.339 59.6285 166.523 60.6032C166.708 61.5779 166.707 62.6459 166.521 63.8071C166.335 64.9684 166.003 65.9832 165.524 66.8518C165.044 67.7203 164.44 68.427 163.71 68.9718C162.998 69.5196 162.172 69.8978 161.231 70.1065C160.294 70.2967 159.272 70.3033 158.166 70.1263ZM158.652 67.085C159.574 67.2325 160.339 67.0618 160.946 66.573C161.554 66.0842 161.941 65.3145 162.11 64.2638L162.472 61.9967C162.64 60.946 162.512 60.0937 162.088 59.4397C161.663 58.7858 160.99 58.385 160.068 58.2376C159.147 58.0901 158.382 58.2608 157.774 58.7496C157.167 59.2384 156.779 60.0081 156.611 61.0588L156.248 63.3259C156.08 64.3766 156.208 65.2289 156.633 65.8828C157.058 66.5368 157.731 66.9376 158.652 67.085ZM169.057 68.2679L172.347 68.7943L173.613 60.8869L170.323 60.3605L170.831 57.1809L178.213 58.3621L177.568 62.3988L177.761 62.4298C177.973 61.9343 178.227 61.4647 178.525 61.0208C178.845 60.5615 179.209 60.1755 179.618 59.8629C180.049 59.5348 180.54 59.3015 181.091 59.1629C181.643 59.0243 182.269 59.011 182.969 59.1231L184.324 59.3399L183.722 63.1L180.681 62.6134C179.667 62.4512 178.853 62.6329 178.24 63.1586C177.629 63.6658 177.255 64.3526 177.116 65.2189L176.439 69.4491L181.14 70.2012L180.631 73.3808L168.549 71.4474L169.057 68.2679ZM186.068 70.1675L194.974 67.1406L195.009 66.9194L187.492 61.2647L188.103 57.4492L198.974 65.7107L198.364 69.5262L185.457 73.9829L186.068 70.1675Z" fill="#D95B4F"/>
<rect width="192" height="149" transform="translate(175 56)" fill="#32808D"/>
<path d="M241 66H339V114.293H329.472L322.667 121L315.861 114.293H304.972H241V66Z" fill="#4AC6D7"/>
<rect x="159" y="132" width="91" height="8" fill="#32808D"/>
<rect x="159" y="147" width="91" height="5" fill="#32808D"/>
<rect x="159" y="157" width="91" height="5" fill="#32808D"/>
<path d="M257 125H152V176.805H162.208L169.5 184L176.792 176.805H188.458H257V125Z" fill="#4AC6D7"/>
</g>
<defs>
<clipPath id="clip0_672_2944">
<rect width="400" height="219" rx="10" fill="white"/>
</clipPath>
</defs>
</svg>
