<svg width="200" height="93" viewBox="0 0 200 93" fill="none" xmlns="http://www.w3.org/2000/svg">
<path fill-rule="evenodd" clip-rule="evenodd" d="M76.5 0.5V42.5L62.3902 30.5H40.5V0.5H76.5ZM70.5 6.50005H46.5V24.5H64.5699L70.5 29.5699V6.50005Z" fill="#262626"/>
<path fill-rule="evenodd" clip-rule="evenodd" d="M118.5 0.5V30.5H82.5V0.5H118.5ZM112.5 6.50006H88.5V24.5H112.5V6.50006Z" fill="#262626"/>
<path fill-rule="evenodd" clip-rule="evenodd" d="M135.515 0.5L141.5 7.15998L147.485 0.5H159.5V30.5H123.5V0.5H135.515ZM132.852 6.50006H129.5V24.5H153.5V6.50006H150.148L141.5 16.123L132.852 6.50006Z" fill="#262626"/>
<path fill-rule="evenodd" clip-rule="evenodd" d="M68.0863 92.2307L68.0625 81.9671L63.2006 90.4182H61.5013L56.6391 82.163V92.2307H53.0513V75.1816H56.2707L62.3979 85.7393L68.4316 75.1816H71.6502L71.6736 92.2307H68.0863ZM141.123 60.0676C141.123 55.8559 144.066 53.2833 148.097 53.2828C150.735 53.2833 152.907 54.3844 154.093 56.3261L151.459 58.1028C150.607 56.9139 149.659 56.4215 148.097 56.4181C145.788 56.423 144.853 58.055 144.852 60.0668C144.852 62.192 145.88 63.7118 148.097 63.7166C149.702 63.7134 150.598 63.2806 151.452 62.0262L154.091 63.808C152.92 65.7287 150.775 66.8515 148.097 66.8521C143.979 66.8515 141.123 64.1971 141.123 60.0676ZM31.6341 60.0676C31.6341 56.1722 29.0088 53.2832 24.9426 53.2832C20.8764 53.2832 18.2512 56.1722 18.2512 60.0676C18.2512 63.9634 20.8764 66.8523 24.9426 66.8523C27.1255 66.8523 29.2485 66.2409 30.6278 64.4264L28.6692 62.4319C27.337 63.6923 26.7087 63.9222 24.9426 63.9609C23.0626 63.9191 22.1533 62.8658 21.9095 61.2189H24.9426H25.8386H27.9757H31.554C31.6069 60.8469 31.6341 60.4626 31.6341 60.0676ZM61.825 53.4773H65.4836V53.9306C66.4355 53.507 67.5287 53.2832 68.7171 53.2832C72.7484 53.2835 75.6916 55.8562 75.6916 60.0681C75.6911 64.1974 72.8353 66.8521 68.7171 66.8523C67.5191 66.8523 66.4284 66.6274 65.4836 66.207V71.4078H61.825V53.4773ZM65.4836 59.6948V60.4435C65.5999 62.3699 66.6332 63.7124 68.7171 63.7173C71.0261 63.7124 71.9617 62.08 71.962 60.0681C71.962 57.9432 70.9345 56.4236 68.7171 56.4184C66.5526 56.4233 65.595 57.8577 65.4836 59.6948ZM60.134 56.614H55.8382V66.6572H52.1798V56.614H47.8842V53.4787H60.134V56.614ZM33.748 53.4787H37.4065V58.6228H42.5108V53.4787H46.1931V66.6572H42.5108V61.7339H37.4065V66.6572H33.748V53.4787ZM17.4056 63.4238V69.4298H13.8885V66.6572H0.5V49.6083H4.29971V63.4238H11.2457V49.6083H15.0451V63.4238H17.4056ZM24.9426 56.1746C26.8224 56.2164 27.7321 57.2697 27.9757 58.9166H24.9426H21.9095C22.1533 57.2697 23.0626 56.2164 24.9426 56.1746ZM105.509 60.0676C105.509 55.8559 108.451 53.2833 112.483 53.2828C112.697 53.2828 112.907 53.2892 113.115 53.3044V50.6482H116.49V53.3044C116.697 53.2897 116.908 53.2828 117.122 53.2828C121.153 53.2833 124.096 55.8559 124.096 60.0676C124.096 64.1971 121.24 66.8515 117.122 66.8521C116.908 66.8521 116.697 66.844 116.49 66.8306V71.4091H113.115V66.8306C112.907 66.8453 112.697 66.8521 112.483 66.8521C108.365 66.8515 105.509 64.1971 105.509 60.0676ZM116.49 56.4645V63.6702C116.688 63.7 116.899 63.7162 117.122 63.7166C119.339 63.7118 120.367 62.192 120.367 60.0668C120.366 58.055 119.43 56.4236 117.122 56.4181C116.899 56.4184 116.689 56.4344 116.49 56.4645ZM113.115 63.6702V56.4645C112.916 56.4342 112.706 56.4184 112.483 56.4181C110.174 56.423 109.239 58.055 109.238 60.0668C109.238 62.192 110.266 63.7118 112.483 63.7166C112.706 63.7162 112.916 63.7 113.115 63.6702ZM189.79 48.5H196.411V51.6113H189.79V48.5ZM186.701 53.4787H190.359V61.3176L196.125 53.4787H199.5V66.6572H195.842V58.8191L190.1 66.6572H186.701V53.4787ZM170.638 60.0676C170.638 55.8559 173.581 53.2833 177.613 53.2828C181.644 53.2833 184.587 55.8559 184.587 60.0676C184.587 64.1971 181.731 66.8515 177.613 66.8521C173.495 66.8515 170.639 64.1971 170.638 60.0676ZM180.858 60.0676C180.858 57.9427 179.83 56.4231 177.613 56.4181C175.304 56.423 174.368 58.055 174.368 60.0668C174.368 62.192 175.396 63.7118 177.613 63.7166C179.922 63.7118 180.857 62.0795 180.858 60.0676ZM156.08 53.4787H159.738V58.6228H164.842V53.4787H168.524V66.6572H164.842V61.7339H159.738V66.6572H156.08V53.4787ZM126.21 53.4787H129.868V61.3176L135.634 53.4787H139.009V66.6572H135.351V58.8191L129.609 66.6572H126.21V53.4787ZM94.7777 66.8515C93.0623 66.8515 91.5166 66.4679 90.1399 65.7003C88.7631 64.9326 87.6854 63.8752 86.9058 62.5279C86.1272 61.1811 85.7375 59.6658 85.7375 57.9844C85.7375 56.3019 86.1272 54.7878 86.9058 53.4404C87.6854 52.0932 88.7631 51.0355 90.1399 50.2681C91.5166 49.5007 93.0623 49.1168 94.7777 49.1168C96.4928 49.1168 98.0349 49.5007 99.4039 50.2681C100.773 51.0355 101.851 52.0932 102.637 53.4404C103.424 54.7878 103.818 56.3019 103.818 57.9844C103.818 59.6658 103.424 61.1811 102.637 62.5279C101.851 63.8752 100.773 64.9326 99.4039 65.7003C98.0349 66.4679 96.4928 66.8515 94.7777 66.8515ZM94.7777 63.471C95.7531 63.471 96.6342 63.2385 97.4216 62.773C98.2079 62.3077 98.8255 61.6585 99.2738 60.8256C99.7225 59.9927 99.9469 59.0454 99.9469 57.9844C99.9469 56.9228 99.7225 55.9757 99.2738 55.1428C98.8255 54.3095 98.2079 53.6607 97.4216 53.1954C96.6342 52.73 95.7531 52.4971 94.7777 52.4971C93.8019 52.4971 92.9208 52.73 92.134 53.1954C91.3474 53.6607 90.73 54.3095 90.2813 55.1428C89.8332 55.9757 89.6088 56.9228 89.6088 57.9844C89.6088 59.0454 89.8332 59.9927 90.2813 60.8256C90.73 61.6585 91.3474 62.3077 92.134 62.773C92.9208 63.2385 93.8019 63.471 94.7777 63.471ZM134.15 79.0523H137.808V86.8909L143.573 79.0523H146.949V92.2307H143.29V84.3924L137.549 92.2307H134.15V79.0523ZM117.18 85.6412C117.18 81.7455 114.555 78.8566 110.489 78.8566C106.423 78.8566 103.797 81.7455 103.797 85.6412C103.797 89.5368 106.423 92.4259 110.489 92.4259C112.672 92.4259 114.795 91.814 116.174 89.9998L114.216 88.0054C112.883 89.266 112.255 89.4955 110.489 89.5342C108.609 89.4925 107.699 88.4394 107.456 86.7925H110.489H111.385H113.522H117.1C117.153 86.4202 117.18 86.0359 117.18 85.6412ZM110.489 81.7481C112.369 81.7898 113.278 82.843 113.522 84.4899H110.489H107.456C107.699 82.843 108.609 81.7898 110.489 81.7481ZM87.1552 85.6407C87.1552 81.745 84.53 78.8562 80.464 78.8562C76.3976 78.8562 73.7724 81.745 73.7724 85.6407C73.7724 89.5364 76.3976 92.4254 80.464 92.4254C82.6467 92.4254 84.7699 91.8138 86.1489 89.9993L84.1905 88.0049C82.858 89.2655 82.2298 89.4952 80.464 89.5341C78.5841 89.4921 77.6745 88.4389 77.4309 86.7919H80.464H81.3601H83.497H87.0755C87.128 86.4199 87.1552 86.0355 87.1552 85.6407ZM80.464 81.7476C82.3438 81.7896 83.2533 82.8427 83.497 84.4896H80.464H77.4309C77.6745 82.8427 78.5841 81.7896 80.464 81.7476ZM131.065 79.0523V92.2307H127.383V82.188H123.789L123.671 84.5147C123.608 86.2456 123.451 87.6828 123.199 88.8259C122.947 89.9691 122.538 90.8676 121.971 91.5206C121.406 92.1735 120.618 92.5 119.611 92.5C119.157 92.5 118.628 92.4295 118.026 92.2881L118.298 89.5409C118.855 89.5775 119.348 89.4081 119.67 88.9213C119.945 88.5051 120.131 87.5478 120.225 86.9028C120.319 86.258 120.39 85.4046 120.437 84.3432L120.626 79.0523H131.065ZM88.8466 83.8046C88.8466 81.159 89.4007 79.0481 90.5104 77.4723C91.6194 75.8966 93.3227 74.8632 95.62 74.3736L100.397 73.3858L101.246 76.6139L96.6149 77.6665C94.6937 78.0573 92.0546 79.2329 91.6274 81.5632C92.653 80.2238 94.3603 79.4324 96.1272 79.4393C104.326 79.4712 104.082 92.423 95.5554 92.4251C92.6079 92.4251 90.6575 90.9282 89.7066 88.9484C89.0548 87.5912 88.8466 85.3228 88.8466 83.8046ZM95.5554 82.5204C91.4339 82.5204 91.4284 89.2601 95.5546 89.2715C99.6758 89.2715 99.6827 82.5314 95.5554 82.5204Z" fill="#262626"/>
</svg>
