<svg width="393" height="38" viewBox="0 0 393 38" fill="none" xmlns="http://www.w3.org/2000/svg">
<g clip-path="url(#clip0_1302_3566)">
<path fill-rule="evenodd" clip-rule="evenodd" d="M1 0.0451431H119.615V37.7837H1V0.0451431Z" fill="#383838"/>
<path fill-rule="evenodd" clip-rule="evenodd" d="M16.6499 19.0356L22.041 13.6439L16.6499 8.25231C17.9926 8.25231 19.3352 8.25231 20.6775 8.25231L26.0691 13.6439L20.677 19.0356C19.3347 19.0356 17.992 19.0356 16.6499 19.0356ZM9.54883 19.0356L14.941 13.6439L9.54935 8.25231C10.8926 8.25231 12.2342 8.25231 13.5775 8.25231L18.9686 13.6439L13.5769 19.0356C12.2342 19.0356 10.8921 19.0356 9.54883 19.0356Z" fill="white"/>
<path fill-rule="evenodd" clip-rule="evenodd" d="M59.6086 29.6281C60.6456 29.6281 61.4565 29.1099 61.4565 28.063C61.4565 27.1479 60.6362 26.8182 59.9102 26.5916C59.8816 26.5823 59.8446 26.5729 59.8154 26.5635C59.2685 26.3843 58.7878 26.2333 58.7878 25.8942C58.7878 25.5828 59.0425 25.375 59.4857 25.375C59.9009 25.375 60.4102 25.5547 60.8909 25.8468L61.3436 25.0359C60.8154 24.687 60.1362 24.4698 59.5138 24.4698C58.5242 24.4698 57.7414 25.0453 57.7414 25.988C57.7414 26.9593 58.5618 27.2609 59.2972 27.4781C59.3253 27.4875 59.354 27.4968 59.3821 27.5062C59.9289 27.6666 60.4102 27.7984 60.4102 28.1661C60.4102 28.5156 60.1269 28.7229 59.6368 28.7229C59.1274 28.7229 58.5425 28.5156 58.005 28.1099L57.4961 28.8833C58.1185 29.3734 58.9009 29.6281 59.6086 29.6281ZM64.8982 29.6474C65.8133 29.6474 66.4638 29.2791 66.9357 28.7135L66.266 28.1192C65.8696 28.5062 65.4737 28.7135 64.917 28.7135C64.1816 28.7135 63.607 28.2609 63.4842 27.45H67.143C67.1518 27.3932 67.1618 27.2047 67.1618 27.1291C67.1618 25.6958 66.3602 24.451 64.7758 24.451C63.3518 24.451 62.343 25.6203 62.343 27.0442C62.343 28.6 63.4556 29.6474 64.8982 29.6474ZM63.4748 26.6953C63.5785 25.9224 64.0685 25.3849 64.7665 25.3849C65.5206 25.3849 65.9545 25.9599 66.0305 26.6953H63.4748ZM70.6128 29.6474C71.5842 29.6474 72.1597 29.2604 72.6498 28.7135L71.9613 28.0343C71.6034 28.402 71.207 28.6567 70.6696 28.6567C69.793 28.6567 69.1794 27.9401 69.1794 27.0541C69.1794 26.1671 69.7832 25.4505 70.6128 25.4505C71.1884 25.4505 71.5561 25.7057 71.905 26.0734L72.6122 25.3093C72.1504 24.8005 71.5654 24.451 70.6222 24.451C69.1326 24.451 68.0389 25.6395 68.0389 27.0541C68.0389 28.4869 69.1326 29.6474 70.6128 29.6474ZM75.4128 29.6375C76.1857 29.6375 76.6482 29.2323 76.9685 28.7604V29.5338H78.1097V24.5551H76.9685V27.3651C76.9685 28.1385 76.5065 28.6 75.8466 28.6C75.1676 28.6 74.781 28.1573 74.781 27.3838V24.5551H73.6398V27.7234C73.6398 28.8833 74.2909 29.6375 75.4128 29.6375ZM79.543 29.5338H80.6842V27.6385C80.6842 26.3187 81.3821 25.6677 82.381 25.6677H82.4472V24.4603C81.5706 24.4229 80.9952 24.9322 80.6842 25.677V24.5551H79.543V29.5338ZM85.5498 29.6474C86.4649 29.6474 87.1149 29.2791 87.5868 28.7135L86.917 28.1192C86.5212 28.5062 86.1248 28.7135 85.5685 28.7135C84.8332 28.7135 84.2576 28.2609 84.1352 27.45H87.7941C87.8034 27.3932 87.8128 27.2047 87.8128 27.1291C87.8128 25.6958 87.0118 24.451 85.4274 24.451C84.0034 24.451 82.9941 25.6203 82.9941 27.0442C82.9941 28.6 84.107 29.6474 85.5498 29.6474ZM84.1258 26.6953C84.23 25.9224 84.7201 25.3849 85.4176 25.3849C86.1722 25.3849 86.6061 25.9599 86.6816 26.6953H84.1258ZM91.019 29.6375C91.83 29.6375 92.3488 29.2229 92.7165 28.7041V29.5338H93.8576V22.6499H92.7165V25.3281C92.3581 24.8661 91.8394 24.451 91.019 24.451C89.831 24.451 88.7092 25.3849 88.7092 27.0349C88.7092 28.7041 89.8498 29.6375 91.019 29.6375ZM91.2925 28.6474C90.5196 28.6474 89.8592 28.0156 89.8592 27.0541C89.8592 26.0448 90.5097 25.4411 91.2925 25.4411C92.0565 25.4411 92.7352 26.0734 92.7352 27.0349C92.7352 28.0062 92.0565 28.6474 91.2925 28.6474ZM100.939 29.6375C102.127 29.6375 103.259 28.7041 103.259 27.0541C103.259 25.3849 102.118 24.451 100.939 24.451C100.138 24.451 99.619 24.8661 99.2513 25.3849V22.6499H98.1108V29.5338H99.2513V28.7604C99.6004 29.2229 100.119 29.6375 100.939 29.6375ZM100.675 28.6474C99.9018 28.6474 99.2232 28.0156 99.2232 27.0541C99.2232 26.0828 99.9018 25.4411 100.675 25.4411C101.449 25.4411 102.099 26.0734 102.099 27.0349C102.099 28.0343 101.458 28.6474 100.675 28.6474ZM105.211 31.0708C106.012 31.0708 106.456 30.6937 106.852 29.6755L108.832 24.5551H107.644L106.352 28.2515L104.937 24.5551H103.721L105.796 29.5338C105.607 29.9677 105.409 30.1088 105.088 30.1088C104.852 30.1088 104.626 30.0333 104.419 29.9203L104.032 30.7692C104.381 30.9578 104.73 31.0708 105.211 31.0708Z" fill="white"/>
<path fill-rule="evenodd" clip-rule="evenodd" d="M42.1438 17.417C42.5786 17.417 43.0053 17.2982 43.3766 17.0716C44.1058 16.6279 44.5042 15.856 44.5042 15.0087C44.5042 14.1311 44.0756 13.3315 43.3073 12.8935C42.9527 12.6915 42.5521 12.5852 42.1438 12.5852C41.7297 12.5852 41.324 12.6946 40.9668 12.9035C40.2116 13.3456 39.799 14.142 39.799 15.0087C39.799 15.8492 40.1855 16.6196 40.9063 17.0664C41.2783 17.2972 41.7068 17.417 42.1438 17.417ZM31.5209 14.0831V10.206H33.6037C34.1396 10.206 34.5949 10.4014 34.9735 10.78L34.9756 10.782C35.3636 11.1508 35.5496 11.6035 35.5496 12.1368C35.5496 12.6743 35.3537 13.129 34.9745 13.5082C34.5959 13.8872 34.1412 14.0826 33.6037 14.0826L33.2344 14.0831H31.5209ZM31.5209 16.0202H33.6037C34.1266 16.0202 34.6344 15.9202 35.1141 15.7112C35.5751 15.5112 35.9912 15.2352 36.3464 14.8795C36.7021 14.5243 36.9777 14.1082 37.1782 13.6478C37.387 13.1675 37.4865 12.6596 37.4865 12.1368C37.4865 11.6164 37.3876 11.1107 37.1777 10.6336C36.9766 10.1759 36.7001 9.76338 36.3464 9.40965C35.9907 9.05391 35.5745 8.77792 35.1141 8.57738C34.6344 8.36912 34.1261 8.26911 33.6037 8.26911L29.584 8.26965L29.5844 19.0107L31.5214 19.0102L31.5209 16.0202ZM44.6272 18.0904C43.9516 18.8082 42.9933 19.191 42.0011 19.191C39.6625 19.191 37.962 17.3076 37.9616 15.0092C37.9616 12.7128 39.6605 10.8112 42.0011 10.8112C42.9959 10.8112 43.9521 11.205 44.6272 11.9254V10.9014H46.4475L46.448 19.0956H44.6272V18.0904ZM54.2177 17.9612C53.6371 18.668 52.7297 19.0003 51.81 19.0003C49.4193 19.0003 48.2297 17.353 48.2297 15.0722V10.9055H50.0668L50.0673 14.9768C50.0673 16.3383 50.6182 17.2268 52.0474 17.2268C53.5896 17.2268 54.234 16.1148 54.234 14.6759L54.2334 10.9055H56.0548L56.0553 17.9544C56.0553 20.4107 54.5344 22.105 52.0318 22.105C50.7354 22.105 49.4969 21.6888 48.4974 20.856L48.3949 20.7702L49.4589 19.6311L49.5469 19.6842C50.3319 20.1587 51.1048 20.4107 52.0318 20.4107C53.4001 20.4107 54.2177 19.6779 54.2177 18.2878V17.9612Z" fill="white"/>
<path fill-rule="evenodd" clip-rule="evenodd" d="M85.4475 13.1177L85.4454 13.1166L85.5043 13.0051C85.5111 12.9931 85.5174 12.9807 85.5235 12.9687C85.5246 12.9671 85.5251 12.9655 85.5262 12.9641L85.584 12.8578L85.5855 12.8583L85.6043 12.8265L85.6174 12.8051L85.6396 12.7671L85.6434 12.7619C85.66 12.7343 85.6772 12.7078 85.6944 12.6813L85.7027 12.6682C85.7111 12.6551 85.7199 12.6417 85.7287 12.6281L85.7376 12.615L85.7647 12.5755L85.7715 12.5661C85.8022 12.5218 85.834 12.4781 85.8668 12.4349L85.8688 12.4317C85.8803 12.4171 85.8912 12.4026 85.9022 12.3879L85.9038 12.3865C86.6783 11.3827 87.8642 10.7942 89.1355 10.7942H89.3016V10.7947C91.5954 10.8411 93.2538 12.7057 93.2538 14.9761C93.2538 17.2718 91.5554 19.1739 89.2147 19.1739C88.312 19.1739 87.4262 18.7895 86.8382 18.1098V21.9775H85.0178L85.0174 14.7969H85.0215C85.0434 14.287 85.1554 13.7854 85.3568 13.3155L85.3631 13.3005L85.3787 13.2635L85.3912 13.2359L85.41 13.1953L85.4272 13.1598L85.4475 13.1177ZM57.8896 8.25314H59.8267L59.8272 18.9942H57.8902L57.8896 8.25314ZM62.4735 13.639L66.947 19.025H64.3939L60.0803 13.6395L64.3934 8.25314L66.9464 8.25261L62.4735 13.639ZM68.5939 15.5155C68.6574 16.7999 69.6907 17.4641 70.9355 17.4641C71.8048 17.4641 72.6735 17.2302 73.421 16.7849L73.509 16.7322L74.5256 17.8281L74.4158 17.913C73.4054 18.6865 72.2188 19.1583 70.9355 19.1583C68.4787 19.1583 66.7063 17.4431 66.7059 14.977C66.7059 12.5671 68.4016 10.7791 70.8402 10.7791C72.4882 10.7791 73.8126 11.5693 74.4704 13.0885C74.7527 13.7411 74.8314 14.7489 74.6174 15.4265L74.5896 15.515L68.5939 15.5155ZM77.6262 15.515C77.6896 16.7999 78.723 17.4635 79.9678 17.4635C80.8371 17.4635 81.7059 17.2297 82.4532 16.7843L82.5412 16.7317L83.5584 17.8275L83.4475 17.9125C82.4376 18.6859 81.2511 19.1583 79.9678 19.1583C77.5111 19.1583 75.7387 17.4431 75.7382 14.9765C75.7382 12.5666 77.4344 10.7786 79.8726 10.7786C81.521 10.7786 82.845 11.5687 83.5027 13.0885C83.785 13.7406 83.8636 14.7483 83.6502 15.4265L83.622 15.5146L77.6262 15.515ZM96.223 15.5141C96.286 16.7989 97.3199 17.4625 98.5647 17.4625C99.434 17.4625 100.303 17.2291 101.05 16.7833L101.138 16.7313L102.155 17.827L102.044 17.9114C101.034 18.6854 99.848 19.1573 98.5647 19.1573C96.1074 19.1573 94.335 17.4422 94.335 14.9761C94.335 12.5661 96.0308 10.7781 98.4688 10.7781C100.117 10.7781 101.442 11.5682 102.1 13.0874C102.381 13.7395 102.461 14.7479 102.246 15.4255L102.219 15.5141H96.223ZM86.8256 14.9761C86.8256 18.3109 91.4168 18.0302 91.4163 14.9761C91.4163 11.9218 86.8256 11.6417 86.8256 14.9761ZM68.7007 14.0598H72.9116C72.8803 13.9193 72.8292 13.7786 72.7694 13.6521C72.409 12.8874 71.6939 12.4739 70.8563 12.4739C69.9335 12.4739 69.0678 12.9707 68.7563 13.8666C68.7344 13.9302 68.7158 13.9947 68.7007 14.0598ZM77.733 14.0594H81.9444C81.9126 13.9193 81.8616 13.7786 81.8016 13.6515C81.4412 12.887 80.7262 12.4734 79.8887 12.4734C78.9658 12.4734 78.1002 12.9703 77.7892 13.8666C77.7668 13.9302 77.7486 13.9947 77.733 14.0594ZM96.3298 14.0589H100.541C100.509 13.9182 100.458 13.7775 100.398 13.651C100.038 12.8865 99.323 12.4723 98.485 12.4723C97.562 12.4723 96.697 12.9693 96.3855 13.865C96.3636 13.9286 96.345 13.9937 96.3298 14.0589ZM105.542 11.9703C106.276 11.1578 107.296 10.8015 108.406 10.8015H108.832V12.625H108.045C106.29 12.625 105.559 13.8218 105.559 15.4562V19.0619H103.673V10.8906H105.542V11.9703Z" fill="#B3B3B3"/>
<path fill-rule="evenodd" clip-rule="evenodd" d="M163.465 30.1074L167.289 7.75225H173.394L169.57 30.1074H163.465Z" fill="#6A6A6A"/>
<path fill-rule="evenodd" clip-rule="evenodd" d="M191.68 8.30721C190.477 7.87547 188.565 7.38161 186.221 7.38161C180.179 7.38161 175.953 10.404 175.924 14.7515C175.892 17.9583 178.945 19.7468 181.257 20.8264C183.632 21.9364 184.433 22.6149 184.403 23.6015C184.403 25.1124 182.521 25.791 180.764 25.791C178.328 25.791 177.033 25.4515 175.029 24.6192L174.227 24.2493L173.395 29.2442C174.813 29.8921 177.433 30.416 180.179 30.4468C186.592 30.4468 190.724 27.4556 190.785 22.7999C190.816 20.2712 189.183 18.3285 185.667 16.7255C183.54 15.7077 182.245 15.0296 182.245 13.9812C182.245 13.0249 183.355 12.0384 185.729 12.0384C187.733 12.0072 189.183 12.4389 190.292 12.9015L190.848 13.1483L191.68 8.30721Z" fill="#6A6A6A"/>
<path fill-rule="evenodd" clip-rule="evenodd" d="M207.313 7.78241H202.596C201.146 7.78241 200.036 8.18348 199.389 9.63241L190.354 30.1382H196.737C196.737 30.1382 197.785 27.3632 198.032 26.7772C198.741 26.7772 204.94 26.7772 205.833 26.7772C206.019 27.5481 206.573 30.1382 206.573 30.1382H212.216L207.313 7.78241ZM199.79 22.1824C200.282 20.9184 202.225 15.9537 202.225 15.9537C202.164 16.0157 202.718 14.6591 203.028 13.8267L203.428 15.7381C203.428 15.7381 204.6 21.0725 204.846 22.1824H199.79Z" fill="#6A6A6A"/>
<path fill-rule="evenodd" clip-rule="evenodd" d="M158.377 7.78238L152.395 23.0152L151.778 19.9318C150.669 16.3548 147.183 12.5006 143.33 10.558L148.787 30.1074H155.233L164.822 7.78238H158.377Z" fill="#6A6A6A"/>
<path fill-rule="evenodd" clip-rule="evenodd" d="M146.876 7.75253H137.04L136.979 8.2452C144.595 10.0957 149.683 14.5665 151.779 19.9321L149.62 9.664C149.251 8.2452 148.203 7.814 146.876 7.75253Z" fill="#B6B6B6"/>
<path fill-rule="evenodd" clip-rule="evenodd" d="M269.23 33.7046H252.718V4.03587H269.23V33.7046Z" fill="#6A6A6A"/>
<path fill-rule="evenodd" clip-rule="evenodd" d="M253.768 18.8696C253.768 12.8497 256.585 7.48984 260.975 4.03411C257.764 1.50758 253.716 -0.000289917 249.313 -0.000289917C238.893 -0.000289917 230.445 8.44771 230.445 18.8696C230.445 29.2909 238.893 37.7383 249.313 37.7383C253.716 37.7383 257.764 36.231 260.975 33.7044C256.585 30.2492 253.768 24.8877 253.768 18.8696Z" fill="#505050"/>
<path fill-rule="evenodd" clip-rule="evenodd" d="M291.504 18.8696C291.504 29.2909 283.056 37.7383 272.636 37.7383C268.233 37.7383 264.184 36.231 260.975 33.7044C265.364 30.2492 268.181 24.8877 268.181 18.8696C268.181 12.8497 265.364 7.48984 260.975 4.03411C264.184 1.50758 268.233 -0.000289917 272.636 -0.000289917C283.056 -0.000289917 291.504 8.44771 291.504 18.8696Z" fill="#989898"/>
<path d="M284.389 19.8145C284.389 18.8692 284.986 18.1134 285.953 18.1134C286.877 18.1134 287.485 18.8384 287.485 19.8145C287.485 20.7905 286.877 21.5154 285.953 21.5154C284.986 21.5154 284.389 20.7593 284.389 19.8145ZM288.452 19.8145V15.29H287.442V17.9145C287.097 17.464 286.53 17.1801 285.816 17.1801C284.41 17.1801 283.34 18.2812 283.34 19.8145C283.34 21.3478 284.41 22.4482 285.816 22.4482C286.53 22.4482 287.097 22.1649 287.442 21.714V22.3233H288.452V19.8145ZM274.26 19.8145C274.26 18.8692 274.86 18.1134 275.824 18.1134C276.748 18.1134 277.357 18.8384 277.357 19.8145C277.357 20.7905 276.748 21.5154 275.824 21.5154C274.86 21.5154 274.26 20.7593 274.26 19.8145ZM278.322 19.8145V17.3066H277.316V17.9145C276.969 17.464 276.401 17.1801 275.688 17.1801C274.282 17.1801 273.21 18.2812 273.21 19.8145C273.21 21.3478 274.282 22.4482 275.688 22.4482C276.401 22.4482 276.969 22.1649 277.316 21.714V22.3233H278.322V19.8145ZM282.185 17.1801C281.554 17.1801 281.104 17.4749 280.821 17.9145V17.3066H279.824V22.3233H280.832V19.4988C280.832 18.6706 281.23 18.1348 281.942 18.1348C282.164 18.1348 282.394 18.166 282.626 18.2613L282.962 17.3165C282.721 17.2222 282.405 17.1801 282.185 17.1801ZM243.457 19.8145C243.457 18.8692 244.054 18.1134 245.021 18.1134C245.944 18.1134 246.552 18.8384 246.552 19.8145C246.552 20.7905 245.944 21.5154 245.021 21.5154C244.054 21.5154 243.457 20.7593 243.457 19.8145ZM247.518 19.8145V17.3066H246.512V17.9145C246.164 17.464 245.597 17.1801 244.884 17.1801C243.478 17.1801 242.406 18.2812 242.406 19.8145C242.406 21.3478 243.478 22.4482 244.884 22.4482C245.597 22.4482 246.164 22.1649 246.512 21.714V22.3233H247.518V19.8145ZM261.098 18.1134C261.844 18.1134 262.349 18.5968 262.422 19.3837H259.713C259.809 18.6493 260.29 18.1134 261.098 18.1134ZM261.121 17.1801C259.65 17.1801 258.644 18.2394 258.644 19.8036C258.644 21.3988 259.693 22.4482 261.194 22.4482C261.949 22.4482 262.642 22.2602 263.25 21.7457L262.716 21.0014C262.297 21.3353 261.761 21.5244 261.257 21.5244C260.554 21.5244 259.84 21.126 259.713 20.2238H263.461C263.47 20.0869 263.482 19.9514 263.482 19.8036C263.47 18.2394 262.528 17.1801 261.121 17.1801ZM268.173 19.8145C268.173 21.3353 269.192 22.4482 270.808 22.4482C271.564 22.4482 272.066 22.2806 272.613 21.8509L272.089 21.0629C271.678 21.3566 271.249 21.5154 270.777 21.5154C269.905 21.5045 269.224 20.8228 269.224 19.8145C269.224 18.8072 269.905 18.1244 270.777 18.1134C271.249 18.1134 271.678 18.2722 272.089 18.566L272.613 17.778C272.066 17.3482 271.564 17.1801 270.808 17.1801C269.192 17.1801 268.173 18.293 268.173 19.8145ZM252.954 17.7056C252.43 17.3577 251.706 17.1801 250.909 17.1801C249.638 17.1801 248.861 17.778 248.861 18.7754C248.861 19.5941 249.428 20.0869 250.552 20.2452L251.066 20.3181C251.664 20.4025 251.989 20.6118 251.989 20.8952C251.989 21.2842 251.549 21.5353 250.804 21.5353C250.016 21.5353 249.502 21.2941 249.136 21.0102L248.62 21.7982C249.366 22.3436 250.257 22.4482 250.793 22.4482C252.241 22.4482 253.038 21.7774 253.038 20.8228C253.038 19.941 252.43 19.4894 251.328 19.3312L250.813 19.2577C250.342 19.1941 249.922 19.0482 249.922 18.7124C249.922 18.3457 250.321 18.0936 250.92 18.0936C251.56 18.0936 252.178 18.3348 252.484 18.5228L252.954 17.7056ZM267.03 17.1801C266.4 17.1801 265.948 17.4749 265.664 17.9145V17.3066H264.669V22.3233H265.676V19.4988C265.676 18.6706 266.074 18.1348 266.788 18.1348C267.008 18.1348 267.24 18.166 267.47 18.2613L267.806 17.3165C267.564 17.2222 267.25 17.1801 267.03 17.1801ZM257.721 17.3066H255.894V15.7842H254.876V17.3066H253.814V18.2197H254.876V20.59C254.876 21.7566 255.285 22.4482 256.576 22.4482C257.048 22.4482 257.593 22.302 257.94 22.0602L257.625 21.1692C257.3 21.3566 256.942 21.4525 256.66 21.4525C256.114 21.4525 255.894 21.1149 255.894 20.6118V18.2197H257.721V17.3066ZM241.368 22.3233V19.1634C241.368 17.978 240.653 17.1894 239.436 17.1801C238.797 17.1697 238.136 17.3702 237.673 18.0717C237.328 17.516 236.781 17.1801 236.016 17.1801C235.48 17.1801 234.913 17.3269 234.504 17.9145V17.3066H233.497V22.3233H234.514V19.4462C234.514 18.5764 235.04 18.1134 235.785 18.1134C236.508 18.1134 236.917 18.5858 236.917 19.4358V22.3233H237.937V19.4462C237.937 18.5764 238.481 18.1134 239.206 18.1134C239.952 18.1134 240.35 18.5858 240.35 19.4358V22.3233H241.368Z" fill="white"/>
<path fill-rule="evenodd" clip-rule="evenodd" d="M310.698 7.5317H317.894C320.178 7.5317 321.221 9.18384 321.794 11.0745L324.833 21.1052H325.434L328.473 11.0745C329.042 9.19797 330.073 7.55677 332.324 7.53224V7.5317H332.373H334.858H339.456V30.2969H332.324V16.7874H331.826L327.618 30.2969H322.649L318.442 16.7874H317.83V30.2969H310.698V7.5317ZM375.649 23.0688H383.366C386.71 23.0688 389.578 20.9265 390.668 17.9474H375.649H368.516V23.0688V30.2969H375.649V23.0688ZM342.453 7.5317H349.585V21.0406H350.514C351.966 17.7224 353.394 14.4068 354.825 11.0745C355.798 8.80624 356.76 7.81664 359.172 7.5317H361.657H365.292V30.2969H358.16V16.7874H357.456C356.004 20.1062 354.576 23.4218 353.145 26.7542C352.212 28.9281 351.181 30.0828 348.797 30.2969H346.313H342.453V7.5317Z" fill="#6A6A6A"/>
<path fill-rule="evenodd" clip-rule="evenodd" d="M390.964 16.9204C391.074 16.3975 391.134 15.8557 391.134 15.3005C391.134 11.0276 387.638 7.53174 383.366 7.53174H367.505L367.749 8.55521C368.849 13.1557 373.513 16.9204 378.114 16.9204H390.964Z" fill="#B6B6B6"/>
</g>
<defs>
<clipPath id="clip0_1302_3566">
<rect width="392.134" height="37.7839" fill="white"/>
</clipPath>
</defs>
</svg>
