<svg width="614" height="504" viewBox="0 0 614 504" fill="none" xmlns="http://www.w3.org/2000/svg">
<g opacity="0.15">
<path d="M0 0.301558C69.3673 7.32204 139.428 -5.31483 208.697 4.01238C242.488 9.62877 277.172 22.0651 300.955 48.1411C339.702 88.3585 341.287 157.761 306.207 200.887C283.514 232.379 246.353 246.921 210.48 256.449C272.713 347.815 338.612 442.291 433.942 501.062C391.034 501.363 341.981 514.201 305.91 483.11C226.336 420.728 175.698 329.562 125.951 242.809C161.031 233.682 199.084 225.057 225.345 197.878C256.263 166.988 259.533 110.423 229.606 78.0283C196.21 47.0379 147.257 52.0525 105.637 56.4654C106.033 184.84 104.546 313.214 106.231 441.489C105.042 465.659 121.096 484.213 135.762 501.062C90.5739 500.36 44.9897 497.051 0 503.67V498.254C24.1795 485.016 35.1791 458.438 33.5936 431.56C33.8909 311.209 33.99 190.757 33.5936 70.4061C34.4855 44.2297 24.5759 16.4487 0 4.31326V0.301558Z" fill="#DABE83"/>
<path d="M274.497 0C338.017 1.90556 408.078 -6.51902 463.275 32.3945C518.273 70.0042 526.894 157.459 481.806 206.302C458.122 233.782 424.132 248.224 389.844 256.248C452.473 347.213 517.679 443.093 614 500.36C584.568 500.661 555.038 506.477 525.705 502.767C492.211 494.242 466.644 469.068 443.257 444.898C387.268 385.023 345.548 313.515 305.216 242.407C340.495 234.384 378.25 225.357 404.312 198.178C436.221 167.789 439.095 110.723 409.168 78.0276C389.646 57.6682 360.116 55.3615 334.053 51.8513C316.414 32.0936 296.991 14.041 274.497 0Z" fill="#DABE83"/>
</g>
</svg>
