<svg width="378" height="52" viewBox="0 0 378 52" fill="none" xmlns="http://www.w3.org/2000/svg">
<path fill-rule="evenodd" clip-rule="evenodd" d="M371.694 43.6384L369.095 39.8294C368.925 39.575 368.728 39.3404 368.507 39.13C368.331 38.9689 368.133 38.8347 367.919 38.7316L369.183 38.6852C369.789 38.6653 370.139 38.6852 370.233 38.7471C370.453 38.9562 370.646 39.1936 370.806 39.4532L372.825 42.4189L374.551 40.0861C374.634 39.964 374.707 39.8352 374.769 39.701C374.824 39.5964 374.854 39.4807 374.859 39.3624C374.858 39.2212 374.802 39.0861 374.704 38.9862C374.584 38.8684 374.439 38.7811 374.279 38.7316H377.123L373.477 43.4126L376.539 47.9122C376.734 48.2144 376.964 48.4922 377.223 48.7399C377.454 48.9545 377.716 49.1321 378 49.2667H375.528C375.416 49.1639 375.312 49.0529 375.216 48.9347C375.081 48.7571 374.957 48.5716 374.844 48.3791L372.405 44.6454L370.126 47.6864C370.006 47.8407 369.902 48.0068 369.815 48.1822C369.762 48.2849 369.731 48.3982 369.725 48.5142C369.724 48.6813 369.782 48.8435 369.887 48.9723C370.001 49.1116 370.153 49.214 370.325 49.2667H367.184C367.372 49.0763 367.547 48.886 367.711 48.6934C367.875 48.5009 368.061 48.2729 368.269 48.0029L371.694 43.6384ZM360.829 38.7316H363.714C363.489 38.8846 363.308 39.0944 363.187 39.3403C363.073 39.6206 363.019 39.9225 363.03 40.2256V47.7506C363.008 48.0614 363.059 48.373 363.179 48.6602C363.303 48.9027 363.488 49.1079 363.714 49.2556H360.829C361.049 49.1061 361.227 48.9008 361.343 48.6602C361.459 48.3713 361.517 48.0622 361.514 47.7506V40.2256C361.515 39.9221 361.457 39.6213 361.343 39.3403C361.225 39.0973 361.048 38.8881 360.829 38.7316ZM354.3 43.8774V47.9874C354.56 48.0378 354.823 48.0726 355.088 48.0914C355.357 48.1136 355.608 48.1224 355.847 48.1224C356.7 48.1342 357.33 47.9284 357.736 47.5049C358.156 47.0488 358.38 46.4433 358.36 45.8206C358.373 45.5375 358.32 45.2551 358.206 44.9961C358.093 44.7371 357.92 44.5086 357.704 44.3289C357.266 43.9674 356.555 43.7874 355.569 43.7889C355.389 43.7889 355.188 43.7889 354.965 43.8177L354.3 43.8774ZM352.098 38.7316H354.985C354.759 38.8846 354.577 39.0943 354.455 39.3403C354.343 39.6211 354.29 39.9227 354.3 40.2256V42.7531C354.646 42.7243 354.998 42.6956 355.357 42.6712C355.715 42.6469 356.013 42.6336 356.249 42.6336C357.459 42.6336 358.399 42.9117 359.066 43.468C359.734 44.0242 360.069 44.8092 360.07 45.8229C360.091 46.2963 360.004 46.7682 359.818 47.2027C359.631 47.6373 359.348 48.0229 358.992 48.3304C358.273 48.9457 357.179 49.2541 355.711 49.2556H352.095C352.315 49.1061 352.492 48.9008 352.609 48.6602C352.727 48.3719 352.785 48.0624 352.78 47.7506V40.2256C352.783 39.9219 352.725 39.6207 352.609 39.3403C352.491 39.0975 352.315 38.8884 352.098 38.7316ZM339.426 42.8859H345.153V40.23C345.168 39.9173 345.112 39.6053 344.989 39.3182C344.862 39.0827 344.684 38.8798 344.468 38.725H347.353C347.131 38.8752 346.95 39.0791 346.826 39.3182C346.708 39.6066 346.654 39.918 346.669 40.23V47.755C346.653 48.0714 346.707 48.3873 346.826 48.6801C346.948 48.9172 347.13 49.1174 347.353 49.26H344.468C344.686 49.1127 344.865 48.9136 344.989 48.6801C345.113 48.3886 345.169 48.072 345.153 47.755V44.0899H339.426V47.7617C339.411 48.0778 339.464 48.3935 339.582 48.6868C339.704 48.924 339.887 49.1241 340.111 49.2667H337.224C337.441 49.1194 337.62 48.9203 337.744 48.6868C337.868 48.3952 337.924 48.0787 337.908 47.7617V40.2367C337.924 39.924 337.867 39.612 337.744 39.3248C337.618 39.0893 337.44 38.8864 337.224 38.7316H340.111C339.889 38.8818 339.707 39.0857 339.582 39.3248C339.465 39.6138 339.412 39.9249 339.426 40.2367V42.8859ZM324.552 42.8859H330.279V40.23C330.294 39.9173 330.238 39.6053 330.115 39.3182C329.988 39.0827 329.81 38.8798 329.594 38.725H332.479C332.257 38.8752 332.076 39.0791 331.952 39.3182C331.834 39.6066 331.78 39.918 331.795 40.23V47.755C331.779 48.0714 331.833 48.3873 331.952 48.6801C332.074 48.9172 332.256 49.1174 332.479 49.26H329.594C329.812 49.1127 329.991 48.9136 330.115 48.6801C330.239 48.3886 330.295 48.072 330.279 47.755V44.0899H324.552V47.7617C324.537 48.0778 324.59 48.3935 324.708 48.6868C324.83 48.924 325.013 49.1241 325.237 49.2667H322.35C322.568 49.1194 322.746 48.9203 322.87 48.6868C322.994 48.3952 323.051 48.0787 323.034 47.7617V40.2367C323.05 39.924 322.993 39.612 322.87 39.3248C322.744 39.0893 322.566 38.8864 322.35 38.7316H325.237C325.015 38.8818 324.833 39.0857 324.708 39.3248C324.591 39.6138 324.538 39.9249 324.552 40.2367V42.8859ZM313.1 40.1016L311.483 44.2537H314.729L313.1 40.1016ZM311.697 38.7316H314.145L317.721 47.7152C317.85 48.0748 318.036 48.4105 318.273 48.7089C318.474 48.9403 318.717 49.1298 318.99 49.2667H315.805C316.019 49.1891 316.195 49.0303 316.295 48.824C316.372 48.5859 316.356 48.3272 316.251 48.1003L315.127 45.2718H311.089L310.155 47.6355C310.001 47.9412 309.952 48.29 310.015 48.627C310.102 48.8946 310.277 49.1237 310.512 49.2755H307.714C307.998 49.097 308.244 48.8639 308.438 48.5894C308.691 48.2067 308.899 47.7951 309.057 47.3633L312.041 39.7475C312.128 39.5541 312.141 39.335 312.078 39.1322C312.044 39.0431 311.993 38.9618 311.928 38.893C311.862 38.8242 311.784 38.7693 311.697 38.7316ZM300.426 49.2667H297.303C297.52 49.1194 297.699 48.9203 297.823 48.6868C297.947 48.3952 298.003 48.0787 297.987 47.7617V40.2367C297.988 39.9331 297.93 39.6324 297.817 39.3514C297.698 39.1084 297.521 38.8992 297.303 38.7427H300.993C302.27 38.7516 303.207 39.0024 303.803 39.4952C304.098 39.7402 304.332 40.0514 304.487 40.4042C304.642 40.7569 304.714 41.1414 304.696 41.527C304.704 41.933 304.626 42.3361 304.467 42.7089C304.308 43.0816 304.071 43.4153 303.773 43.6871C303.159 44.2625 302.346 44.5458 301.334 44.537C301.13 44.5358 300.926 44.5202 300.724 44.4905C300.501 44.4605 300.281 44.4101 300.067 44.34C300.817 44.3429 301.547 44.1007 302.15 43.6495C302.42 43.4331 302.636 43.1555 302.781 42.8391C302.926 42.5227 302.995 42.1764 302.983 41.828C302.993 41.5553 302.945 41.2835 302.841 41.0317C302.737 40.7798 302.58 40.5539 302.382 40.3694C301.991 40.0183 301.448 39.8427 300.754 39.8427C300.535 39.8427 300.334 39.8715 300.122 39.8958C299.91 39.9202 299.702 39.9534 299.505 39.9932V47.5182C299.482 47.9001 299.557 48.2815 299.724 48.6248C299.879 48.9132 300.127 49.1395 300.426 49.2667ZM287.204 43.9837V48.0162C287.462 48.0671 287.722 48.1025 287.985 48.1224C288.247 48.1423 288.503 48.1534 288.75 48.1534C289.524 48.1534 290.135 47.9623 290.581 47.5802C291.027 47.198 291.255 46.6314 291.263 45.8804C291.271 45.6027 291.213 45.3273 291.096 45.0762C290.978 44.8251 290.804 44.6055 290.587 44.4352C290.15 44.0825 289.443 43.9069 288.468 43.9084C288.328 43.9084 288.157 43.9084 287.954 43.9305L287.204 43.9837ZM285.003 38.7316H291.346C291.436 38.7316 291.526 38.7316 291.616 38.7316C291.705 38.7277 291.795 38.7151 291.882 38.694V40.4646C291.716 40.2849 291.51 40.1483 291.281 40.0662C290.97 39.9692 290.646 39.9258 290.321 39.9379H287.197V42.9014L288.372 42.8261C288.709 42.8062 288.967 42.7974 289.146 42.7974C290.356 42.7974 291.295 43.0703 291.963 43.6163C292.631 44.1622 292.969 44.9243 292.976 45.9025C292.996 46.3681 292.909 46.8321 292.722 47.2579C292.535 47.6838 292.253 48.06 291.898 48.357C291.18 48.959 290.087 49.26 288.617 49.26H285.003C285.223 49.1104 285.399 48.9051 285.515 48.6646C285.633 48.3763 285.691 48.0668 285.686 47.755V40.23C285.688 39.9263 285.63 39.6252 285.515 39.3447C285.398 39.1002 285.222 38.8894 285.003 38.7316ZM273.238 40.6417L273.456 38.7471C273.932 38.7307 274.406 38.6849 274.876 38.6099C275.361 38.537 275.851 38.5023 276.341 38.5059C277.582 38.5059 278.505 38.7317 279.108 39.1832C279.4 39.3939 279.636 39.6746 279.795 40.0003C279.953 40.3259 280.029 40.6862 280.016 41.0489C280.036 41.6054 279.841 42.1479 279.471 42.5606C279.081 42.9741 278.567 43.2469 278.008 43.3374V43.3817C278.347 43.3728 278.683 43.4351 278.997 43.5646C279.311 43.6942 279.594 43.8881 279.83 44.1342C280.293 44.6341 280.542 45.2994 280.521 45.9844C280.543 46.4839 280.442 46.9809 280.228 47.4314C280.014 47.8819 279.693 48.2721 279.294 48.5673C278.476 49.1825 277.333 49.4909 275.865 49.4924C275.339 49.4978 274.814 49.4526 274.296 49.3574C273.821 49.2581 273.363 49.0904 272.936 48.8594L272.533 46.8122C272.96 47.287 273.482 47.6643 274.064 47.9188C274.615 48.142 275.204 48.254 275.797 48.2486C276.729 48.2486 277.463 48.0634 277.999 47.6931C278.257 47.5214 278.467 47.2863 278.61 47.0098C278.753 46.7334 278.825 46.4248 278.817 46.1128C278.829 45.8276 278.772 45.5437 278.652 45.2855C278.531 45.0273 278.351 44.8024 278.126 44.6299C277.584 44.2485 276.933 44.0601 276.274 44.0943C275.992 44.0911 275.711 44.1141 275.434 44.1629C275.215 44.2027 275.003 44.2711 274.801 44.3665V42.804C275.04 42.8527 275.239 42.8859 275.375 42.9014C275.545 42.9178 275.715 42.9252 275.886 42.9235C276.72 42.9338 277.331 42.7863 277.717 42.4809C277.905 42.3383 278.058 42.1532 278.163 41.9403C278.268 41.7274 278.322 41.4926 278.321 41.2547C278.331 41.0399 278.29 40.8257 278.2 40.6307C278.111 40.4356 277.976 40.2654 277.807 40.1348C277.385 39.8446 276.881 39.7037 276.372 39.7342C275.839 39.7353 275.308 39.8098 274.795 39.9556C274.247 40.1111 273.723 40.3419 273.238 40.6417ZM260.505 47.3057L265.801 39.3182C265.878 39.196 265.965 39.0805 266.061 38.9729C266.141 38.8854 266.228 38.8047 266.321 38.7316H268.432C268.211 38.8825 268.03 39.0863 267.905 39.3248C267.787 39.6134 267.734 39.9248 267.749 40.2367V47.7617C267.733 48.0778 267.786 48.3938 267.905 48.6868C268.027 48.9234 268.209 49.1233 268.432 49.2667H265.547C265.765 49.1194 265.943 48.9203 266.067 48.6868C266.192 48.3952 266.248 48.0787 266.231 47.7617V40.6926L260.936 48.6801C260.852 48.8067 260.76 48.9273 260.66 49.0409C260.584 49.1208 260.502 49.1948 260.415 49.2622H258.305C258.522 49.1143 258.7 48.9154 258.825 48.6824C258.947 48.3903 259.003 48.074 258.987 47.7572V40.2322C259.002 39.9198 258.946 39.6081 258.825 39.3204C258.698 39.0854 258.52 38.8826 258.305 38.7272H261.19C260.967 38.8774 260.785 39.0812 260.66 39.3204C260.544 39.6093 260.491 39.9205 260.505 40.2322V47.3057ZM244.417 47.7617V39.8759C244.26 39.8449 244.1 39.8228 243.942 39.8073C243.785 39.7918 243.61 39.7851 243.422 39.7851C242.738 39.7851 242.215 39.9534 241.851 40.2898C241.667 40.471 241.523 40.6902 241.429 40.9327C241.335 41.1752 241.294 41.4352 241.309 41.6952C241.303 41.9905 241.372 42.2824 241.508 42.5434C241.645 42.8045 241.845 43.0259 242.09 43.1869C242.646 43.5669 243.32 43.7319 243.986 43.6517C242.995 45.468 242.058 46.8697 241.176 47.8568C240.293 48.8439 239.551 49.3441 238.949 49.3574C238.82 49.3574 238.64 49.3574 238.413 49.333L237.319 49.2667C237.974 48.9716 238.718 48.3873 239.55 47.5138C240.497 46.4868 241.358 45.3815 242.123 44.2094C241.415 44.1171 240.756 43.7921 240.248 43.2843C240.035 43.0684 239.866 42.811 239.754 42.5277C239.641 42.2443 239.586 41.9408 239.592 41.6354C239.592 40.6837 239.907 39.9511 240.537 39.4377C241.167 38.9242 242.106 38.6689 243.354 38.6719H243.49C243.538 38.6719 243.927 38.6852 244.649 38.694C244.868 38.694 245.086 38.7117 245.305 38.7162C245.524 38.7206 245.961 38.7162 246.618 38.7162C246.392 38.8691 246.209 39.0789 246.088 39.3248C245.976 39.6056 245.923 39.9072 245.933 40.2101V47.7351C245.91 48.046 245.961 48.3579 246.082 48.6447C246.205 48.8875 246.39 49.0929 246.618 49.2401H243.73C243.95 49.0906 244.127 48.8853 244.244 48.6447C244.359 48.3648 244.418 48.0647 244.417 47.7617ZM233.699 40.2367V47.7617C233.678 48.0725 233.729 48.384 233.848 48.6713C233.972 48.9137 234.157 49.119 234.384 49.2667H231.512C231.732 49.1177 231.908 48.9122 232.024 48.6713C232.141 48.3829 232.2 48.0735 232.196 47.7617V39.9268H229.211V41.5823C229.211 44.5215 228.958 46.5731 228.452 47.7373C227.946 48.9015 227.197 49.4836 226.205 49.4836C226.081 49.4835 225.956 49.4709 225.834 49.4459C225.713 49.4207 225.594 49.3882 225.477 49.3485L225.285 47.6178C225.41 47.7528 225.558 47.8644 225.722 47.9476C225.87 48.0186 226.033 48.0549 226.197 48.0538C226.771 48.0538 227.203 47.482 227.492 46.3385C227.78 45.195 227.926 43.6649 227.929 41.7483C227.929 40.6417 227.831 39.898 227.662 39.5129C227.588 39.3307 227.477 39.1663 227.336 39.0302C227.195 38.8942 227.027 38.7894 226.844 38.7228H234.414C234.185 38.8714 233.996 39.0752 233.863 39.3159C233.741 39.6063 233.691 39.9223 233.717 40.2367H233.699ZM219.245 39.9268H216.15C216.168 41.4391 216.031 42.9492 215.741 44.4329C215.486 45.6994 215.051 46.922 214.451 48.0627H219.241L219.245 39.9268ZM213.876 38.7228H221.45C221.225 38.8758 221.043 39.0856 220.923 39.3314C220.809 39.6118 220.755 39.9136 220.766 40.2167V48.0427H222.179V51.6547L221.286 52C221.335 51.3297 221.239 50.6567 221.004 50.028C220.785 49.5079 220.431 49.2467 219.937 49.2467H213.991C213.486 49.2467 213.128 49.5079 212.909 50.028C212.674 50.6566 212.583 51.3307 212.642 52L211.749 51.6547V48.0627H212.968C213.604 47.0359 214.081 45.9162 214.381 44.7428C214.698 43.4764 214.854 42.1739 214.842 40.8674C214.857 40.3932 214.771 39.9213 214.589 39.4841C214.433 39.165 214.184 38.9022 213.876 38.7316V38.7228ZM194.846 38.7228H200.616V40.4535C200.445 40.2571 200.224 40.1111 199.977 40.0308C199.677 39.9441 199.366 39.9038 199.054 39.9113L197.046 39.9556V42.9656H199.188H199.457C199.547 42.9606 199.636 42.9481 199.724 42.9279V44.5746C199.591 44.4381 199.428 44.335 199.249 44.2736C199.036 44.2086 198.815 44.178 198.593 44.1828H197.046V47.9608C197.363 48.0007 197.689 48.0295 198.022 48.0449C198.354 48.0604 198.678 48.0671 198.98 48.0671C199.583 48.0874 200.187 48.0241 200.774 47.879C201.262 47.7444 201.712 47.494 202.086 47.1486L201.329 49.2711H194.852C195.074 49.1191 195.254 48.9118 195.373 48.6691C195.493 48.384 195.549 48.0756 195.537 47.7661V40.2411C195.538 39.9373 195.479 39.6365 195.364 39.3558C195.25 39.1062 195.074 38.891 194.852 38.7316L194.846 38.7228ZM184.524 39.7298C183.322 39.7416 182.35 40.123 181.608 40.8741C181.238 41.2513 180.948 41.7011 180.756 42.1959C180.564 42.6907 180.475 43.2201 180.493 43.7513C180.482 45.0659 180.847 46.1445 181.586 46.987C181.943 47.3988 182.385 47.7256 182.881 47.9441C183.377 48.1626 183.915 48.2673 184.456 48.2508C185.646 48.2508 186.616 47.8745 187.365 47.122C187.736 46.7452 188.027 46.2956 188.22 45.8008C188.413 45.306 188.504 44.7765 188.487 44.2448C188.487 42.939 188.115 41.8626 187.372 41.0157C187.02 40.6041 186.583 40.2762 186.092 40.0554C185.601 39.8346 185.068 39.7265 184.53 39.7387L184.524 39.7298ZM184.493 38.497C186.129 38.497 187.491 39.0039 188.577 40.0175C189.663 41.0312 190.206 42.3554 190.204 43.9903C190.215 44.7066 190.085 45.4181 189.823 46.0833C189.56 46.7485 189.169 47.3544 188.673 47.8657C187.652 48.9428 186.257 49.4821 184.487 49.4836C182.839 49.4836 181.475 48.9789 180.396 47.9697C179.317 46.9605 178.777 45.6325 178.775 43.9859C178.754 42.5441 179.3 41.1527 180.291 40.1171C181.314 39.0444 182.716 38.5074 184.5 38.5059L184.493 38.497ZM166.22 42.8859H171.947V40.23C171.962 39.9173 171.906 39.6053 171.783 39.3182C171.656 39.0827 171.478 38.8798 171.262 38.725H174.147C173.925 38.8752 173.744 39.0791 173.62 39.3182C173.501 39.6066 173.448 39.918 173.462 40.23V47.755C173.447 48.0714 173.501 48.3873 173.62 48.6801C173.742 48.9172 173.924 49.1174 174.147 49.26H171.262C171.48 49.1127 171.659 48.9136 171.783 48.6801C171.907 48.3886 171.963 48.072 171.947 47.755V44.0899H166.22V47.7617C166.205 48.0778 166.258 48.3935 166.375 48.6868C166.498 48.924 166.681 49.1241 166.905 49.2667H164.017C164.235 49.1194 164.414 48.9203 164.538 48.6868C164.662 48.3952 164.718 48.0787 164.702 47.7617V40.2367C164.717 39.924 164.661 39.612 164.538 39.3248C164.412 39.0893 164.234 38.8864 164.017 38.7316H166.905C166.682 38.8818 166.5 39.0857 166.375 39.3248C166.259 39.6138 166.206 39.9249 166.22 40.2367V42.8859ZM151.346 42.8859H157.073V40.23C157.088 39.9173 157.032 39.6053 156.909 39.3182C156.782 39.0827 156.604 38.8798 156.388 38.725H159.273C159.051 38.8752 158.87 39.0791 158.746 39.3182C158.628 39.6066 158.574 39.918 158.589 40.23V47.755C158.573 48.0714 158.627 48.3873 158.746 48.6801C158.868 48.9172 159.05 49.1174 159.273 49.26H156.388C156.606 49.1127 156.785 48.9136 156.909 48.6801C157.033 48.3886 157.089 48.072 157.073 47.755V44.0899H151.346V47.7617C151.331 48.0778 151.384 48.3935 151.502 48.6868C151.624 48.924 151.807 49.1241 152.031 49.2667H149.144C149.361 49.1194 149.54 48.9203 149.664 48.6868C149.788 48.3952 149.844 48.0787 149.828 47.7617V40.2367C149.843 39.924 149.787 39.612 149.664 39.3248C149.538 39.0893 149.36 38.8864 149.144 38.7316H152.031C151.809 38.8818 151.627 39.0857 151.502 39.3248C151.385 39.6138 151.332 39.9249 151.346 40.2367V42.8859ZM139.893 40.1016L138.277 44.2537H141.523L139.893 40.1016ZM138.491 38.7316H140.939L144.515 47.7152C144.643 48.0752 144.829 48.4111 145.066 48.7089C145.267 48.9403 145.511 49.1298 145.784 49.2667H142.599C142.813 49.1891 142.989 49.0303 143.089 48.824C143.166 48.5859 143.15 48.3272 143.045 48.1003L141.921 45.2718H137.894L136.96 47.6355C136.806 47.9412 136.757 48.29 136.82 48.627C136.907 48.8946 137.082 49.1237 137.317 49.2755H134.508C134.792 49.097 135.038 48.8639 135.232 48.5894C135.485 48.2067 135.693 47.7951 135.851 47.3633L138.835 39.7475C138.921 39.5541 138.935 39.335 138.872 39.1322C138.838 39.0431 138.787 38.9618 138.722 38.893C138.656 38.8242 138.578 38.7693 138.491 38.7316ZM127.22 49.2667H124.096C124.314 49.1194 124.493 48.9203 124.617 48.6868C124.741 48.3952 124.797 48.0787 124.781 47.7617V40.2367C124.782 39.9331 124.724 39.6324 124.61 39.3514C124.492 39.1084 124.315 38.8992 124.096 38.7427H127.786C129.064 38.7516 130.001 39.0024 130.597 39.4952C130.892 39.7402 131.126 40.0514 131.281 40.4042C131.436 40.7569 131.507 41.1414 131.49 41.527C131.498 41.933 131.42 42.3361 131.261 42.7089C131.102 43.0816 130.865 43.4153 130.567 43.6871C129.951 44.2625 129.138 44.5458 128.128 44.537C127.923 44.5358 127.719 44.5202 127.517 44.4905C127.295 44.4605 127.075 44.4101 126.861 44.34C127.611 44.3429 128.341 44.1007 128.944 43.6495C129.214 43.4331 129.43 43.1555 129.575 42.8391C129.719 42.5227 129.789 42.1764 129.777 41.828C129.785 41.5573 129.735 41.288 129.631 41.0386C129.527 40.7892 129.371 40.5655 129.173 40.3827C128.782 40.0316 128.24 39.856 127.546 39.856C127.338 39.856 127.126 39.8847 126.914 39.9091C126.701 39.9334 126.494 39.9666 126.297 40.0065V47.5315C126.273 47.9133 126.349 48.2948 126.516 48.6381C126.674 48.9218 126.922 49.1433 127.22 49.2667ZM113.997 43.9837V48.0162C114.255 48.0671 114.516 48.1025 114.778 48.1224C115.041 48.1423 115.297 48.1534 115.544 48.1534C116.318 48.1534 116.928 47.9623 117.375 47.5802C117.821 47.198 118.048 46.6314 118.057 45.8804C118.064 45.6027 118.007 45.3273 117.89 45.0762C117.772 44.8251 117.598 44.6055 117.381 44.4352C116.944 44.0825 116.237 43.9069 115.262 43.9084C115.122 43.9084 114.951 43.9084 114.748 43.9305L113.997 43.9837ZM111.797 38.7316H118.14C118.23 38.7316 118.32 38.7316 118.409 38.7316C118.499 38.7277 118.589 38.7151 118.676 38.694V40.4646C118.51 40.2849 118.304 40.1483 118.075 40.0662C117.765 39.9654 117.44 39.9183 117.114 39.9268H113.997V42.8903L115.172 42.8151C115.509 42.7951 115.767 42.7863 115.946 42.7863C117.155 42.7863 118.094 43.0593 118.764 43.6052C119.433 44.1511 119.768 44.9169 119.768 45.9025C119.787 46.3681 119.7 46.8321 119.513 47.2579C119.326 47.6838 119.044 48.06 118.689 48.357C117.972 48.959 116.878 49.26 115.408 49.26H111.797C112.016 49.1104 112.193 48.9051 112.309 48.6646C112.426 48.3763 112.484 48.0668 112.479 47.755V40.23C112.482 39.9263 112.424 39.6252 112.309 39.3447C112.192 39.1002 112.016 38.8894 111.797 38.7316ZM100.031 40.6417L100.25 38.7471C100.726 38.7307 101.2 38.6849 101.67 38.6099C102.155 38.537 102.645 38.5023 103.135 38.5059C104.375 38.5059 105.297 38.7317 105.902 39.1832C106.194 39.3939 106.43 39.6746 106.588 40.0003C106.747 40.3259 106.823 40.6862 106.81 41.0489C106.83 41.6054 106.635 42.1479 106.265 42.5606C105.874 42.9741 105.36 43.2469 104.802 43.3374V43.3817C105.141 43.3728 105.477 43.4351 105.791 43.5646C106.104 43.6942 106.388 43.8881 106.624 44.1342C107.087 44.6341 107.336 45.2994 107.315 45.9844C107.335 46.482 107.234 46.977 107.021 47.4258C106.808 47.8747 106.489 48.2636 106.092 48.5584C105.274 49.1737 104.131 49.4821 102.663 49.4836C102.137 49.489 101.612 49.4438 101.094 49.3485C100.62 49.2493 100.161 49.0816 99.7338 48.8506L99.3313 46.8033C99.7581 47.2782 100.28 47.6554 100.862 47.9099C101.413 48.1331 102.002 48.2452 102.595 48.2397C103.527 48.2397 104.261 48.0545 104.798 47.6842C105.051 47.5135 105.258 47.2813 105.4 47.0087C105.542 46.7361 105.614 46.4319 105.609 46.1239C105.62 45.8386 105.564 45.5548 105.443 45.2966C105.323 45.0384 105.143 44.8135 104.918 44.641C104.376 44.2596 103.724 44.0712 103.065 44.1054C102.784 44.1022 102.503 44.1251 102.225 44.174C102.007 44.2137 101.794 44.2822 101.593 44.3776V42.804C101.831 42.8527 102.031 42.8859 102.166 42.9014C102.336 42.9178 102.507 42.9252 102.678 42.9235C103.512 42.9338 104.122 42.7863 104.509 42.4809C104.695 42.3374 104.846 42.1518 104.95 41.939C105.053 41.7261 105.106 41.4918 105.104 41.2547C105.114 41.0399 105.073 40.8257 104.983 40.6307C104.894 40.4356 104.759 40.2654 104.59 40.1348C104.168 39.8446 103.664 39.7037 103.155 39.7342C102.622 39.7353 102.091 39.8098 101.578 39.9556C101.034 40.112 100.514 40.3428 100.031 40.6417ZM87.2988 47.3057L92.5944 39.3182C92.6715 39.196 92.7586 39.0805 92.8546 38.9729C92.9347 38.8854 93.0218 38.8047 93.1149 38.7316H95.2257C95.0045 38.8825 94.8234 39.0863 94.6986 39.3248C94.5809 39.6134 94.5279 39.9248 94.5433 40.2367V47.7617C94.527 48.0778 94.5801 48.3938 94.6986 48.6868C94.8211 48.9234 95.0029 49.1233 95.2257 49.2667H92.3406C92.5584 49.1194 92.7372 48.9203 92.8612 48.6868C92.9853 48.3952 93.0414 48.0787 93.0252 47.7617V40.6926L87.7297 48.6801C87.6462 48.8067 87.5541 48.9273 87.4541 49.0409C87.378 49.1208 87.2961 49.1948 87.2091 49.2622H85.0983C85.3156 49.1143 85.4942 48.9154 85.6189 48.6824C85.7411 48.3903 85.7964 48.074 85.7808 47.7572V40.2322C85.7955 39.9198 85.7401 39.6081 85.6189 39.3204C85.492 39.0854 85.314 38.8826 85.0983 38.7272H87.9834C87.761 38.8774 87.5791 39.0812 87.4541 39.3204C87.3376 39.6093 87.2846 39.9205 87.2988 40.2322V47.3057ZM359.353 0.431584C359.675 0.419411 359.996 0.475184 360.296 0.595361L366.51 10.5372L370.998 3.49249C371.267 3.10015 371.425 2.64103 371.456 2.16455C371.456 1.40762 370.9 0.783489 370.349 0.486915H375.977L367.584 13.2263V20.2378C367.584 21.1585 367.584 22.4754 369.08 23.5289H362.767C364.266 22.4754 364.266 21.1585 364.266 20.2378V13.2042L357.562 2.74442C356.984 1.77157 356.136 0.993089 355.123 0.50684L359.353 0.431584ZM346.181 20.2489C346.181 21.1696 346.181 22.4865 347.677 23.54H341.364C342.863 22.4865 342.863 21.1696 342.863 20.2489V3.13174L338.991 3.09853C338.363 3.07987 337.738 3.19317 337.156 3.43126C336.573 3.66935 336.046 4.02706 335.607 4.4818L336.909 0.365189C337.597 0.477595 338.294 0.522063 338.991 0.497978H351.581C352.245 0.49005 352.907 0.445726 353.565 0.365189L352.426 4.21843C351.807 3.09853 350.636 3.09853 349.825 3.09853L346.181 3.13174V20.2489ZM328.225 0.497978C326.628 1.51828 326.565 2.96574 326.565 3.78906V20.6097C327.806 20.7733 329.054 20.8723 330.305 20.9062C332.42 20.9062 335.511 20.5101 337.56 18.766L335.738 23.5488H321.74C323.233 22.4953 323.233 21.1785 323.233 20.2578V3.78906C323.233 2.86835 323.233 1.55148 321.74 0.497978H328.225ZM303.274 12.5778H310.332L306.787 3.50356L303.274 12.5778ZM309.064 0.497978L316.903 20.1515C317.424 21.433 318.074 22.6857 319.668 23.54H312.669C314.2 22.8495 313.937 21.7296 313.644 20.9726L311.17 14.7756H302.421L300.371 19.9435C299.919 21.0966 299.626 22.4444 301.152 23.5311H295.004C296.697 22.4135 297.349 20.9306 297.965 19.3503L304.473 2.69352C304.602 2.36596 305.057 1.11327 303.725 0.480282L309.064 0.497978ZM290.909 0.497978V4.29368C290.294 3.56996 289.415 3.07641 287.495 3.10961L283.105 3.20919V9.79137H287.788C288.181 9.79361 288.573 9.76102 288.96 9.69399V13.2816C288.341 12.6553 287.626 12.4251 286.486 12.4251H283.105V20.6716C285.089 20.8686 286.683 20.893 287.333 20.893C290.909 20.893 292.7 20.167 294.133 18.8833L292.473 23.5311H278.288C279.784 22.4776 279.784 21.0966 279.784 20.2401V3.78906C279.784 2.93254 279.784 1.55148 278.288 0.497978H290.909ZM259.947 0.431584C260.892 0.398385 261.835 0.365189 262.778 0.365189C270.195 0.365189 270.945 4.546 270.945 6.35642C270.945 9.05657 268.83 11.5907 265.315 12.1839C267.852 16.2319 272.57 22.1921 275.792 23.54C273.515 23.7038 272.636 23.737 272.277 23.737C268.537 23.737 263.46 15.4108 261.413 11.5265C263.753 11.3052 267.203 9.94629 267.203 6.65742C267.203 5.17676 266.649 2.8064 262.646 2.8064C261.911 2.77828 261.175 2.85275 260.459 3.02772V20.2445C260.459 21.1652 260.459 22.4821 261.953 23.5356H255.651C257.147 22.4821 257.147 21.1652 257.147 20.2445V3.78906C257.147 2.86835 257.147 1.55148 255.651 0.497978C257.084 0.497978 258.515 0.464782 259.947 0.431584ZM241.407 4.57919C239.128 2.67138 237.177 2.43899 235.843 2.43899C232.168 2.43899 231.387 4.51501 231.387 5.75885C231.387 7.73305 233.176 8.65597 237.111 10.4332C240.95 12.1772 243.262 13.3945 243.262 16.9512C243.262 21.9199 238.87 24.0335 234.119 24.0335C232.008 24.0624 229.906 23.7287 227.905 23.0464L226.962 18.7019C228.165 19.7554 230.475 21.3998 234.314 21.3998C237.536 21.3998 239.618 20.0851 239.618 17.8785C239.618 15.2226 236.993 14.2577 234.119 12.9408C230.412 11.23 227.645 9.7803 227.645 6.15944C227.645 3.32871 229.395 0.0044308 236.175 0.0044308C237.95 -0.0122122 239.719 0.231569 241.425 0.728164L241.407 4.57919ZM221.794 4.57919C219.514 2.67138 217.563 2.43899 216.229 2.43899C212.552 2.43899 211.771 4.51501 211.771 5.75885C211.771 7.73305 213.563 8.65597 217.498 10.4332C221.337 12.1772 223.646 13.3945 223.646 16.9512C223.646 21.9199 219.254 24.0335 214.505 24.0335C212.394 24.0628 210.293 23.729 208.291 23.0464L207.349 18.7019C208.552 19.7554 210.861 21.3998 214.7 21.3998C217.92 21.3998 220.002 20.0851 220.002 17.8785C220.002 15.2226 217.377 14.2577 214.505 12.9408C210.787 11.23 208.031 9.7803 208.031 6.15944C208.031 3.32871 209.781 0.0044308 216.562 0.0044308C218.337 -0.0119942 220.105 0.231782 221.811 0.728164L221.794 4.57919ZM202.145 0.497978V4.29368C201.526 3.56996 200.649 3.07641 198.728 3.10961L194.336 3.20919V9.79137H199.021C199.414 9.7937 199.805 9.76112 200.192 9.69399V13.2816C199.575 12.6553 198.86 12.4251 197.722 12.4251H194.327V20.6716C196.311 20.8686 197.906 20.893 198.558 20.893C202.136 20.893 203.925 20.167 205.356 18.8833L203.698 23.5311H189.515C191.011 22.4776 191.011 21.0966 191.011 20.2401V3.78906C191.011 2.93254 191.011 1.55148 189.515 0.497978H202.145ZM169.416 0.497978C169.544 0.802 169.708 1.08952 169.904 1.3545L183.209 18.1419V3.78906C183.209 2.86835 183.209 1.55148 181.713 0.497978H187.245C185.747 1.55148 185.747 2.86835 185.747 3.78906V24.4607C183.08 23.7038 181.809 21.9929 180.672 20.5455L168.602 5.27415V20.2511C168.602 21.1718 168.602 22.4887 170.098 23.5422H164.567C166.063 22.4887 166.063 21.1718 166.063 20.2511V3.78906C166.063 2.86835 166.063 1.55148 164.567 0.497978H169.416ZM155.417 9.57225V3.78906C155.417 2.70236 155.386 1.55148 153.923 0.497978H160.233C158.77 1.55148 158.737 2.71121 158.737 3.78906V20.2489C158.737 21.3356 158.768 22.4865 160.233 23.5422H153.932C155.395 22.4865 155.426 21.329 155.426 20.2489V12.2171H142.901V20.2489C142.901 21.3356 142.934 22.4865 144.399 23.5422H138.087C139.55 22.4865 139.583 21.329 139.583 20.2489V3.78906C139.583 2.70236 139.55 1.55148 138.087 0.497978H144.399C142.934 1.55148 142.901 2.71121 142.901 3.78906V9.58333L155.417 9.57225ZM133.915 4.89789C132.028 3.55229 129.782 2.81761 127.474 2.7909C123.211 2.7909 118.943 5.65483 118.943 11.2853C118.943 16.0902 121.677 21.2249 128.248 21.2249C132.736 21.2249 134.917 19.6115 135.893 18.7904L133.681 23.1991C131.761 23.8255 130.133 24.0225 127.994 24.0225C118.234 24.0225 115.209 17.2743 115.209 12.1728C115.209 5.8518 119.632 0 127.863 0C129.292 0.00223292 130.716 0.180611 132.102 0.531182C132.701 0.689363 133.309 0.809847 133.922 0.891941L133.915 4.89789ZM113.068 0.497978C111.572 1.55148 111.572 2.86835 111.572 3.78906V20.2489C111.572 21.1696 111.572 22.4865 113.068 23.54H106.757C108.251 22.4865 108.251 21.1696 108.251 20.2489V3.78906C108.251 2.86835 108.251 1.55148 106.757 0.497978H113.068ZM89.0946 0.431584C90.0395 0.398385 90.9823 0.365189 91.925 0.365189C99.3445 0.365189 100.09 4.546 100.09 6.35642C100.09 9.05657 97.9774 11.5907 94.4623 12.1839C97.0018 16.2319 101.718 22.1921 104.94 23.54C102.66 23.7038 101.783 23.737 101.425 23.737C97.6843 23.737 92.6097 15.4108 90.5601 11.5265C92.9006 11.3052 96.35 9.94629 96.35 6.65742C96.35 5.17676 95.7966 2.8064 91.796 2.8064C91.0603 2.77839 90.3243 2.85286 89.6086 3.02772V20.2445C89.6086 21.1652 89.6086 22.4821 91.1048 23.5356H84.8009C86.297 22.4821 86.297 21.1652 86.297 20.2445V3.78906C86.297 2.86835 86.297 1.55148 84.8009 0.497978C86.2314 0.497978 87.6641 0.464782 89.0946 0.431584Z" fill="#DABE83"/>
<path d="M45.0394 13.7176C45.0394 18.8628 41.0179 23.6937 34.324 24.8232C39.1608 32.5407 48.1487 43.8956 54.2875 46.458C49.9478 46.7701 48.2723 46.8343 47.5899 46.8343C40.4592 46.8343 30.7868 30.9698 26.8714 23.5776C31.3467 23.135 37.9087 20.5565 37.9087 14.282C37.9087 11.469 36.8588 6.97612 29.3015 6.94513C28.0008 5.01107 26.2258 3.45219 24.1504 2.42128C25.9265 2.36152 27.7004 2.29734 29.4744 2.29734C43.6133 2.29734 45.0394 10.2672 45.0394 13.7176Z" fill="#DABE83"/>
<path d="M13.579 2.29291C11.781 2.29291 9.98299 2.3571 8.18281 2.41907C5.4552 2.48325 2.7276 2.54522 -1.33504e-05 2.54522C2.84353 4.55263 2.84353 7.06243 2.84353 8.81974V40.1946C2.84353 41.9519 2.84353 44.4595 -1.33504e-05 46.4691H12.0303C9.1868 44.4595 9.1868 41.9519 9.1868 40.1946V7.37008C10.6129 6.99161 11.7919 6.92743 13.3427 6.92743C20.97 6.92743 22.0221 11.4469 22.0221 14.2687C22.0221 20.5521 15.4491 23.1217 10.987 23.5643C14.8804 30.9698 24.5485 46.8343 31.6967 46.8432C32.3791 46.8432 34.0546 46.779 38.3943 46.4669C32.2545 43.8951 23.2645 32.5368 18.4261 24.8192C25.1128 23.6905 29.1441 18.859 29.1441 13.7132C29.1441 10.2606 27.7179 2.29291 13.579 2.29291Z" fill="#DABE83"/>
</svg>
