<svg width="66" height="16" viewBox="0 0 66 16" fill="none" xmlns="http://www.w3.org/2000/svg">
<path d="M0 1.27121H4.73703C5.81154 1.27121 6.71898 1.43188 7.45935 1.75321C8.20627 2.07455 8.77301 2.55013 9.15957 3.17995C9.55268 3.80334 9.74924 4.57134 9.74924 5.48393C9.74924 6.12661 9.61493 6.71465 9.3463 7.24807C9.08422 7.77506 8.70421 8.22494 8.20627 8.59769C7.71487 8.96401 7.1252 9.23715 6.43725 9.4171L5.90655 9.61954H1.45452L1.43487 8.10604H4.796C5.4774 8.10604 6.04414 7.99036 6.49622 7.759C6.9483 7.52121 7.289 7.20308 7.51832 6.80463C7.74763 6.40617 7.86229 5.96594 7.86229 5.48393C7.86229 4.94409 7.75418 4.47172 7.53797 4.06684C7.32176 3.66195 6.98106 3.35026 6.51587 3.13175C6.05724 2.90681 5.46429 2.79434 4.73703 2.79434H1.89678V15.3072H0V1.27121ZM8.36351 15.3072L4.88445 8.94473L6.85985 8.93509L10.3881 15.1915V15.3072H8.36351Z" fill="white"/>
<path d="M12.4511 10.2076V9.98586C12.4511 9.23393 12.5625 8.53663 12.7853 7.89396C13.008 7.24486 13.3291 6.68252 13.7484 6.20694C14.1677 5.72494 14.6755 5.35219 15.2717 5.08869C15.8679 4.81877 16.5362 4.6838 17.2766 4.6838C18.0235 4.6838 18.6951 4.81877 19.2913 5.08869C19.8941 5.35219 20.4051 5.72494 20.8245 6.20694C21.2503 6.68252 21.5746 7.24486 21.7974 7.89396C22.0202 8.53663 22.1316 9.23393 22.1316 9.98586V10.2076C22.1316 10.9595 22.0202 11.6568 21.7974 12.2995C21.5746 12.9422 21.2503 13.5045 20.8245 13.9865C20.4051 14.4621 19.8974 14.8348 19.3011 15.1048C18.7115 15.3683 18.0432 15.5 17.2963 15.5C16.5493 15.5 15.8778 15.3683 15.2815 15.1048C14.6853 14.8348 14.1743 14.4621 13.7484 13.9865C13.3291 13.5045 13.008 12.9422 12.7853 12.2995C12.5625 11.6568 12.4511 10.9595 12.4511 10.2076ZM14.2693 9.98586V10.2076C14.2693 10.7281 14.3315 11.2198 14.456 11.6825C14.5805 12.1388 14.7672 12.5437 15.0162 12.8972C15.2717 13.2506 15.5895 13.5302 15.9695 13.7359C16.3495 13.9351 16.7918 14.0347 17.2963 14.0347C17.7942 14.0347 18.2299 13.9351 18.6034 13.7359C18.9834 13.5302 19.2979 13.2506 19.5468 12.8972C19.7958 12.5437 19.9825 12.1388 20.107 11.6825C20.2381 11.2198 20.3036 10.7281 20.3036 10.2076V9.98586C20.3036 9.47172 20.2381 8.9865 20.107 8.53021C19.9825 8.06748 19.7925 7.65938 19.537 7.30591C19.288 6.94602 18.9735 6.66324 18.5935 6.45758C18.2201 6.25193 17.7811 6.1491 17.2766 6.1491C16.7787 6.1491 16.3397 6.25193 15.9597 6.45758C15.5862 6.66324 15.2717 6.94602 15.0162 7.30591C14.7672 7.65938 14.5805 8.06748 14.456 8.53021C14.3315 8.9865 14.2693 9.47172 14.2693 9.98586Z" fill="white"/>
<path d="M25.2069 0.5H27.0349V13.2828L26.8776 15.3072H25.2069V0.5ZM34.219 10.0051V10.2076C34.219 10.9659 34.1273 11.6697 33.9439 12.3188C33.7604 12.9614 33.4918 13.5206 33.138 13.9961C32.7842 14.4717 32.3518 14.8413 31.8407 15.1048C31.3297 15.3683 30.7433 15.5 30.0815 15.5C29.4067 15.5 28.8137 15.3875 28.3027 15.1626C27.7982 14.9312 27.3723 14.6003 27.0251 14.1697C26.6778 13.7391 26.3993 13.2185 26.1897 12.608C25.9866 11.9974 25.8457 11.3098 25.7671 10.545V9.6581C25.8457 8.88689 25.9866 8.19602 26.1897 7.58548C26.3993 6.97494 26.6778 6.45437 27.0251 6.02378C27.3723 5.58676 27.7982 5.25578 28.3027 5.03085C28.8072 4.79949 29.3936 4.6838 30.0619 4.6838C30.7302 4.6838 31.3231 4.81234 31.8407 5.06941C32.3583 5.32005 32.7907 5.67995 33.138 6.1491C33.4918 6.61825 33.7604 7.18059 33.9439 7.83612C34.1273 8.48522 34.219 9.20823 34.219 10.0051ZM32.3911 10.2076V10.0051C32.3911 9.48458 32.3419 8.99614 32.2436 8.53985C32.1454 8.07712 31.9881 7.67224 31.7719 7.32519C31.5557 6.97172 31.2707 6.69537 30.9169 6.49614C30.5631 6.29049 30.1274 6.18766 29.6098 6.18766C29.1511 6.18766 28.7515 6.26478 28.4108 6.41902C28.0766 6.57327 27.7916 6.78213 27.5558 7.04563C27.3199 7.3027 27.1266 7.59833 26.9759 7.93252C26.8318 8.26028 26.7237 8.6009 26.6516 8.95437V11.2776C26.7564 11.7275 26.9268 12.1613 27.1626 12.579C27.4051 12.9904 27.7261 13.3278 28.1258 13.5913C28.532 13.8548 29.0332 13.9865 29.6294 13.9865C30.1208 13.9865 30.5401 13.8901 30.8874 13.6973C31.2412 13.4981 31.5262 13.2249 31.7424 12.8779C31.9652 12.5308 32.129 12.1292 32.2338 11.6729C32.3386 11.2166 32.3911 10.7281 32.3911 10.2076Z" fill="white"/>
<path d="M36.8423 10.2076V9.98586C36.8423 9.23393 36.9537 8.53663 37.1764 7.89396C37.3992 7.24486 37.7203 6.68252 38.1396 6.20694C38.5589 5.72494 39.0667 5.35219 39.6629 5.08869C40.2591 4.81877 40.9274 4.6838 41.6678 4.6838C42.4147 4.6838 43.0863 4.81877 43.6825 5.08869C44.2853 5.35219 44.7963 5.72494 45.2156 6.20694C45.6415 6.68252 45.9658 7.24486 46.1886 7.89396C46.4114 8.53663 46.5227 9.23393 46.5227 9.98586V10.2076C46.5227 10.9595 46.4114 11.6568 46.1886 12.2995C45.9658 12.9422 45.6415 13.5045 45.2156 13.9865C44.7963 14.4621 44.2885 14.8348 43.6923 15.1048C43.1026 15.3683 42.4344 15.5 41.6874 15.5C40.9405 15.5 40.2689 15.3683 39.6727 15.1048C39.0765 14.8348 38.5655 14.4621 38.1396 13.9865C37.7203 13.5045 37.3992 12.9422 37.1764 12.2995C36.9537 11.6568 36.8423 10.9595 36.8423 10.2076ZM38.6605 9.98586V10.2076C38.6605 10.7281 38.7227 11.2198 38.8472 11.6825C38.9717 12.1388 39.1584 12.5437 39.4074 12.8972C39.6629 13.2506 39.9807 13.5302 40.3607 13.7359C40.7407 13.9351 41.1829 14.0347 41.6874 14.0347C42.1854 14.0347 42.6211 13.9351 42.9945 13.7359C43.3746 13.5302 43.689 13.2506 43.938 12.8972C44.187 12.5437 44.3737 12.1388 44.4982 11.6825C44.6292 11.2198 44.6948 10.7281 44.6948 10.2076V9.98586C44.6948 9.47172 44.6292 8.9865 44.4982 8.53021C44.3737 8.06748 44.1837 7.65938 43.9282 7.30591C43.6792 6.94602 43.3647 6.66324 42.9847 6.45758C42.6113 6.25193 42.1723 6.1491 41.6678 6.1491C41.1698 6.1491 40.7309 6.25193 40.3508 6.45758C39.9774 6.66324 39.6629 6.94602 39.4074 7.30591C39.1584 7.65938 38.9717 8.06748 38.8472 8.53021C38.7227 8.9865 38.6605 9.47172 38.6605 9.98586Z" fill="white"/>
<path d="M54.0599 4.87661V6.2455H48.3106V4.87661H54.0599ZM50.2565 2.34126H52.0747V12.7237C52.0747 13.0771 52.1304 13.3438 52.2418 13.5238C52.3532 13.7037 52.4973 13.8226 52.6742 13.8805C52.8511 13.9383 53.0411 13.9672 53.2442 13.9672C53.3949 13.9672 53.5522 13.9544 53.716 13.9287C53.8863 13.8965 54.0141 13.8708 54.0992 13.8515L54.1091 15.3072C53.9649 15.3522 53.7749 15.394 53.5391 15.4325C53.3097 15.4775 53.0313 15.5 52.7037 15.5C52.2582 15.5 51.8487 15.4132 51.4752 15.2397C51.1017 15.0662 50.8036 14.777 50.5809 14.3721C50.3647 13.9608 50.2565 13.4081 50.2565 12.714V2.34126Z" fill="white"/>
<path d="M56.3196 10.2076V9.98586C56.3196 9.23393 56.4309 8.53663 56.6537 7.89396C56.8765 7.24486 57.1975 6.68252 57.6168 6.20694C58.0362 5.72494 58.5439 5.35219 59.1401 5.08869C59.7364 4.81877 60.4047 4.6838 61.145 4.6838C61.8919 4.6838 62.5635 4.81877 63.1597 5.08869C63.7625 5.35219 64.2736 5.72494 64.6929 6.20694C65.1188 6.68252 65.4431 7.24486 65.6658 7.89396C65.8886 8.53663 66 9.23393 66 9.98586V10.2076C66 10.9595 65.8886 11.6568 65.6658 12.2995C65.4431 12.9422 65.1188 13.5045 64.6929 13.9865C64.2736 14.4621 63.7658 14.8348 63.1696 15.1048C62.5799 15.3683 61.9116 15.5 61.1647 15.5C60.4178 15.5 59.7462 15.3683 59.15 15.1048C58.5538 14.8348 58.0427 14.4621 57.6168 13.9865C57.1975 13.5045 56.8765 12.9422 56.6537 12.2995C56.4309 11.6568 56.3196 10.9595 56.3196 10.2076ZM58.1377 9.98586V10.2076C58.1377 10.7281 58.1999 11.2198 58.3244 11.6825C58.4489 12.1388 58.6357 12.5437 58.8846 12.8972C59.1401 13.2506 59.4579 13.5302 59.8379 13.7359C60.2179 13.9351 60.6602 14.0347 61.1647 14.0347C61.6626 14.0347 62.0983 13.9351 62.4718 13.7359C62.8518 13.5302 63.1663 13.2506 63.4153 12.8972C63.6642 12.5437 63.851 12.1388 63.9755 11.6825C64.1065 11.2198 64.172 10.7281 64.172 10.2076V9.98586C64.172 9.47172 64.1065 8.9865 63.9755 8.53021C63.851 8.06748 63.661 7.65938 63.4054 7.30591C63.1565 6.94602 62.842 6.66324 62.462 6.45758C62.0885 6.25193 61.6495 6.1491 61.145 6.1491C60.6471 6.1491 60.2081 6.25193 59.8281 6.45758C59.4546 6.66324 59.1401 6.94602 58.8846 7.30591C58.6357 7.65938 58.4489 8.06748 58.3244 8.53021C58.1999 8.9865 58.1377 9.47172 58.1377 9.98586Z" fill="white"/>
</svg>
