<svg width="328" height="166" viewBox="0 0 328 166" fill="none" xmlns="http://www.w3.org/2000/svg">
<path d="M0.5 163.735V161.47H8.67794C11.4039 161.47 13.827 161.092 15.9472 160.337C18.0674 159.431 19.9605 157.845 21.6263 155.58C23.4437 153.164 25.0338 149.842 26.3968 145.613L69.5582 2H102.27L149.52 146.746C150.883 150.219 152.322 153.088 153.836 155.354C155.351 157.468 157.092 159.053 159.061 160.111C161.181 161.017 163.453 161.47 165.876 161.47H167.012V163.735H89.3215V161.47H98.8624C102.194 161.47 104.466 160.79 105.677 159.431C106.889 158.072 107.495 156.26 107.495 153.994C107.495 152.937 107.343 151.88 107.04 150.823C106.889 149.615 106.662 148.331 106.359 146.972C106.056 145.613 105.753 144.33 105.45 143.122L94.092 104.387H41.1625L30.7129 139.044C30.1072 141.158 29.5771 143.122 29.1228 144.934C28.6685 146.746 28.2899 148.407 27.987 149.917C27.6841 151.276 27.5326 152.635 27.5326 153.994C27.5326 156.562 28.1384 158.449 29.35 159.657C30.7129 160.866 32.9089 161.47 35.9377 161.47H51.1578V163.735H0.5ZM41.844 102.122H93.4105L77.2818 45.9448C76.5246 43.2265 75.6159 39.9797 74.5558 36.2044C73.4957 32.4291 72.4356 28.5028 71.3755 24.4254C70.3154 20.3481 69.2553 16.4217 68.1952 12.6464C67.5894 15.3646 66.9079 18.0829 66.1507 20.8011C65.3935 23.5193 64.5605 26.3131 63.6519 29.1823C62.8947 31.9006 62.0617 34.6188 61.1531 37.337C60.3958 40.0552 59.5629 42.7735 58.6542 45.4917L41.844 102.122Z" fill="#D9D9D9"/>
<path d="M220.222 166C210.075 166 201.594 163.055 194.779 157.166C188.116 151.276 184.784 142.744 184.784 131.569C184.784 120.394 188.722 111.937 196.597 106.199C204.472 100.46 216.284 97.2891 232.034 96.6851L249.299 96.0055V65.8785C249.299 59.5359 248.92 54.628 248.163 51.1547C247.557 47.6814 246.497 45.1897 244.983 43.6796C243.468 42.0184 241.348 41.1879 238.622 41.1879C234.23 41.1879 231.201 43.9061 229.536 49.3426C228.021 54.628 227.264 64.3683 227.264 78.5635C215.906 78.5635 207.501 77.3554 202.049 74.9392C196.597 72.523 193.871 68.5212 193.871 62.9337C193.871 57.1952 196.067 52.5893 200.458 49.116C204.85 45.6427 210.681 43.0755 217.95 41.4144C225.219 39.7532 233.17 38.9227 241.802 38.9227C258.158 38.9227 270.425 41.7919 278.603 47.5304C286.781 53.2689 290.87 63.1602 290.87 77.2044V145.613C290.87 149.691 291.249 152.937 292.006 155.354C292.915 157.619 294.278 159.204 296.095 160.111C297.912 161.017 300.411 161.47 303.591 161.47H304.5V163.735H249.526V145.84H249.072C247.406 151.276 245.134 155.429 242.257 158.298C239.531 161.168 236.275 163.131 232.489 164.188C228.703 165.396 224.614 166 220.222 166ZM236.351 157.392C239.076 157.392 241.348 156.033 243.165 153.315C245.134 150.446 246.649 146.821 247.709 142.442C248.92 137.912 249.526 132.853 249.526 127.265V98.2707L242.711 98.7238C236.805 99.1768 232.716 101.744 230.444 106.425C228.324 110.956 227.264 118.657 227.264 129.53C227.264 136.326 227.567 141.762 228.173 145.84C228.93 149.917 229.914 152.862 231.126 154.674C232.489 156.486 234.23 157.392 236.351 157.392Z" fill="#D9D9D9"/>
<rect x="324.5" width="3" height="166" fill="#D9D9D9"/>
</svg>
