<svg width="332" height="20" viewBox="0 0 332 20" fill="none" xmlns="http://www.w3.org/2000/svg">
<path d="M0 15.2929V15.0943H0.720504C1.02739 15.0943 1.27423 15.0546 1.46102 14.9752C1.66116 14.8825 1.80793 14.7302 1.90133 14.5184C1.99473 14.3065 2.04143 14.0218 2.04143 13.6643V2.66137C2.04143 2.31711 1.99473 2.04568 1.90133 1.84707C1.82127 1.64846 1.68118 1.50943 1.48104 1.42999C1.29424 1.35055 1.05407 1.31082 0.760532 1.31082H0V1.11221H3.96277L10.8876 12.6117V2.70109C10.8876 2.3436 10.8409 2.06554 10.7475 1.86693C10.6675 1.66832 10.534 1.52929 10.3472 1.44985C10.1604 1.35717 9.91361 1.31082 9.60672 1.31082H8.72611V1.11221H13.2092V1.31082H12.3687C12.0751 1.31082 11.8349 1.35717 11.6482 1.44985C11.4614 1.52929 11.3213 1.67494 11.2279 1.88679C11.1345 2.0854 11.0878 2.37008 11.0878 2.74081V15.2929H10.1671L2.24157 2.18471V13.6643C2.24157 14.0218 2.2816 14.3065 2.36165 14.5184C2.45505 14.7302 2.59515 14.8825 2.78195 14.9752C2.98209 15.0546 3.22893 15.0943 3.52247 15.0943H4.44311V15.2929H0Z" fill="white"/>
<path d="M19.8913 15.4916C18.4903 15.4916 17.3895 15.0348 16.589 14.1212C15.8017 13.2075 15.4081 11.8173 15.4081 9.95035C15.4081 8.09666 15.7884 6.71963 16.5489 5.81926C17.3095 4.90566 18.4369 4.44886 19.9313 4.44886C21.3323 4.44886 22.4264 4.90566 23.2136 5.81926C24.0008 6.71963 24.3944 8.09666 24.3944 9.95035C24.3944 11.8305 24.0142 13.2274 23.2536 14.141C22.4931 15.0414 21.3723 15.4916 19.8913 15.4916ZM19.9113 15.2929C20.485 15.2929 20.9387 15.1208 21.2722 14.7766C21.6191 14.4191 21.866 13.8497 22.0128 13.0685C22.1595 12.2873 22.2329 11.2479 22.2329 9.95035C22.2329 8.65276 22.1595 7.61337 22.0128 6.83217C21.866 6.05098 21.6191 5.49487 21.2722 5.16385C20.9387 4.8196 20.4783 4.64747 19.8913 4.64747C19.3309 4.64747 18.8772 4.8196 18.5303 5.16385C18.1967 5.49487 17.9566 6.05098 17.8098 6.83217C17.663 7.61337 17.5897 8.65276 17.5897 9.95035C17.5897 11.2479 17.663 12.2873 17.8098 13.0685C17.9699 13.8497 18.2168 14.4191 18.5503 14.7766C18.8972 15.1208 19.3509 15.2929 19.9113 15.2929Z" fill="white"/>
<path d="M30.6568 15.4916C29.7495 15.4916 29.069 15.2665 28.6153 14.8163C28.1617 14.3529 27.9349 13.5518 27.9349 12.4131V4.84608H26.5339V4.64747C27.0409 4.64747 27.4745 4.60113 27.8348 4.50844C28.2084 4.41576 28.5219 4.27011 28.7755 4.0715C29.069 3.85965 29.3025 3.58822 29.4759 3.2572C29.6494 2.91294 29.7762 2.51572 29.8562 2.06554H30.0563V4.64747H32.5381V4.84608H30.0563V13.1281C30.0563 13.8431 30.1698 14.3595 30.3966 14.6773C30.6368 14.995 30.997 15.1539 31.4773 15.1539C31.6508 15.1539 31.8309 15.1407 32.0177 15.1142C32.2045 15.0745 32.4113 15.0149 32.6382 14.9355V15.1341C32.4514 15.2135 32.1778 15.2929 31.8176 15.3724C31.4707 15.4518 31.0837 15.4916 30.6568 15.4916Z" fill="white"/>
<path d="M39.2783 15.4916C37.8773 15.4916 36.7765 15.0348 35.976 14.1212C35.1887 13.2075 34.7951 11.8173 34.7951 9.95035C34.7951 8.09666 35.1754 6.71963 35.9359 5.81926C36.6965 4.90566 37.8239 4.44886 39.3183 4.44886C40.7193 4.44886 41.8134 4.90566 42.6006 5.81926C43.3878 6.71963 43.7814 8.09666 43.7814 9.95035C43.7814 11.8305 43.4012 13.2274 42.6406 14.141C41.8801 15.0414 40.7593 15.4916 39.2783 15.4916ZM39.2983 15.2929C39.872 15.2929 40.3257 15.1208 40.6592 14.7766C41.0061 14.4191 41.253 13.8497 41.3998 13.0685C41.5465 12.2873 41.6199 11.2479 41.6199 9.95035C41.6199 8.65276 41.5465 7.61337 41.3998 6.83217C41.253 6.05098 41.0061 5.49487 40.6592 5.16385C40.3257 4.8196 39.8653 4.64747 39.2783 4.64747C38.7179 4.64747 38.2642 4.8196 37.9173 5.16385C37.5838 5.49487 37.3436 6.05098 37.1968 6.83217C37.05 7.61337 36.9767 8.65276 36.9767 9.95035C36.9767 11.2479 37.05 12.2873 37.1968 13.0685C37.3569 13.8497 37.6038 14.4191 37.9373 14.7766C38.2842 15.1208 38.7379 15.2929 39.2983 15.2929Z" fill="white"/>
<path d="M55.3281 15.4916C54.6343 15.4916 54.0272 15.4187 53.5068 15.2731C52.9998 15.1142 52.5795 14.9024 52.2459 14.6375C51.9257 14.3727 51.6856 14.0814 51.5254 13.7637C51.3787 13.4326 51.3053 13.095 51.3053 12.7507C51.3053 12.4197 51.3653 12.1483 51.4854 11.9364C51.6188 11.7114 51.8056 11.5458 52.0458 11.4399C52.286 11.3208 52.5595 11.2612 52.8664 11.2612C52.8664 12.1748 52.9664 12.9295 53.1666 13.5253C53.3667 14.1212 53.6669 14.5647 54.0672 14.856C54.4675 15.1473 54.9745 15.2929 55.5883 15.2929C56.3755 15.2929 57.0026 15.0612 57.4696 14.5978C57.9499 14.1212 58.1901 13.4194 58.1901 12.4926C58.1901 11.857 58.07 11.3406 57.8298 10.9434C57.5897 10.5462 57.2294 10.1953 56.7491 9.89077C56.2821 9.58623 55.695 9.26845 54.9879 8.93744C54.4942 8.68587 54.0339 8.42767 53.6069 8.16286C53.1933 7.89805 52.833 7.60013 52.5261 7.26912C52.2326 6.9381 51.9991 6.56074 51.8256 6.13704C51.6655 5.71334 51.5855 5.22344 51.5855 4.66733C51.5855 3.87289 51.7589 3.19762 52.1058 2.64151C52.4528 2.0854 52.9398 1.6617 53.5669 1.37041C54.2073 1.06587 54.9478 0.913605 55.7884 0.913605C56.5623 0.913605 57.2161 1.02615 57.7498 1.25124C58.2968 1.46309 58.7171 1.74777 59.0107 2.10526C59.3042 2.44952 59.451 2.82688 59.451 3.23734C59.451 3.62132 59.3042 3.93247 59.0107 4.1708C58.7171 4.40914 58.2968 4.5283 57.7498 4.5283C57.7498 3.37637 57.5763 2.52234 57.2294 1.96624C56.8959 1.39689 56.3488 1.11221 55.5883 1.11221C55.148 1.11221 54.7544 1.21152 54.4075 1.41013C54.0605 1.5955 53.787 1.88017 53.5869 2.26415C53.3867 2.64813 53.2867 3.14465 53.2867 3.75372C53.2867 4.36279 53.4001 4.86594 53.6269 5.26316C53.8537 5.66038 54.2006 6.01125 54.6676 6.31579C55.1346 6.60708 55.7284 6.92486 56.4489 7.26912C57.1427 7.60013 57.7498 7.94439 58.2702 8.30189C58.8039 8.65938 59.2108 9.08971 59.491 9.59285C59.7845 10.0828 59.9313 10.7051 59.9313 11.4598C59.9313 12.2807 59.7512 12.9957 59.3909 13.6048C59.044 14.2006 58.5237 14.664 57.8298 14.995C57.1494 15.3261 56.3155 15.4916 55.3281 15.4916Z" fill="white"/>
<path d="M67.1093 15.4916C65.655 15.4916 64.5342 15.0149 63.747 14.0616C62.9597 13.1082 62.5661 11.7709 62.5661 10.0497C62.5661 8.19596 62.9397 6.79907 63.6869 5.85899C64.4341 4.9189 65.4882 4.44886 66.8491 4.44886C68.1167 4.44886 69.104 4.85932 69.8112 5.68024C70.5184 6.48792 70.8719 7.67958 70.8719 9.25521V9.69215H64.7276C64.7276 11.0295 64.821 12.1086 65.0078 12.9295C65.1946 13.7504 65.4815 14.3462 65.8684 14.717C66.2554 15.0877 66.7624 15.2731 67.3895 15.2731C67.8432 15.2731 68.2434 15.187 68.5903 15.0149C68.9506 14.8295 69.2441 14.5449 69.471 14.1609C69.7111 13.7769 69.8712 13.2936 69.9513 12.711C70.1248 12.7507 70.2582 12.8368 70.3516 12.9692C70.445 13.1016 70.4917 13.2539 70.4917 13.426C70.4917 13.7173 70.3649 14.0285 70.1114 14.3595C69.8712 14.6773 69.5043 14.9487 69.0106 15.1738C68.517 15.3856 67.8832 15.4916 67.1093 15.4916ZM68.7104 9.49355C68.7104 8.31513 68.6504 7.37504 68.5303 6.67329C68.4102 5.95829 68.2101 5.44191 67.9299 5.12413C67.663 4.80636 67.2961 4.64747 66.8291 4.64747C66.3621 4.64747 65.9752 4.80636 65.6683 5.12413C65.3614 5.44191 65.1346 5.95167 64.9878 6.65343C64.8411 7.35518 64.7543 8.30189 64.7276 9.49355H68.7104Z" fill="white"/>
<path d="M72.9902 15.2929V15.0943H73.1503C73.4972 15.0943 73.7774 15.0546 73.9908 14.9752C74.2043 14.8825 74.3578 14.7368 74.4512 14.5382C74.5579 14.3264 74.6113 14.0351 74.6113 13.6643V6.27607C74.6113 5.89209 74.5646 5.60079 74.4712 5.40218C74.3778 5.20358 74.2243 5.06455 74.0109 4.9851C73.7974 4.89242 73.5172 4.84608 73.1703 4.84608H73.1102V4.64747H76.7328V6.63356H76.7728C76.8795 6.23635 77.033 5.87223 77.2331 5.54121C77.4333 5.2102 77.7068 4.94538 78.0537 4.74677C78.4006 4.54816 78.8409 4.44886 79.3746 4.44886C80.0151 4.44886 80.5021 4.58788 80.8356 4.86594C81.1692 5.13075 81.336 5.50149 81.336 5.97815C81.336 6.41509 81.1825 6.76597 80.8757 7.03079C80.5688 7.2956 80.1018 7.428 79.4747 7.428C79.4747 6.56736 79.3679 5.97153 79.1545 5.64052C78.9543 5.3095 78.6808 5.14399 78.3339 5.14399C78.0403 5.14399 77.7868 5.24992 77.5733 5.46177C77.3732 5.66038 77.2064 5.94505 77.073 6.31579C76.9529 6.68653 76.8662 7.11023 76.8128 7.58689C76.7595 8.05031 76.7328 8.54684 76.7328 9.07646V13.6048C76.7328 14.002 76.7861 14.3065 76.8929 14.5184C76.9996 14.7302 77.1664 14.8825 77.3932 14.9752C77.62 15.0546 77.9069 15.0943 78.2538 15.0943H78.554V15.2929H72.9902Z" fill="white"/>
<path d="M82.7995 15.2929V15.0943H83.0597C83.3933 15.0943 83.6601 15.0546 83.8603 14.9752C84.0737 14.8825 84.2338 14.7302 84.3406 14.5184C84.4473 14.3065 84.5007 14.0086 84.5007 13.6246V6.29593C84.5007 5.91195 84.4473 5.62066 84.3406 5.42205C84.2338 5.2102 84.0737 5.06455 83.8603 4.9851C83.6601 4.89242 83.3999 4.84608 83.0797 4.84608H82.9196V4.64747H86.6022V13.5849C86.6022 13.9821 86.6555 14.2933 86.7623 14.5184C86.869 14.7302 87.0291 14.8825 87.2426 14.9752C87.4561 15.0546 87.723 15.0943 88.0432 15.0943H88.2833V15.2929H82.7995ZM85.4614 2.70109C85.1678 2.70109 84.921 2.60841 84.7209 2.42304C84.5341 2.23767 84.4407 1.93975 84.4407 1.5293C84.4407 1.09235 84.5341 0.787819 84.7209 0.61569C84.921 0.430321 85.1678 0.337637 85.4614 0.337637C85.7416 0.337637 85.9817 0.430321 86.1819 0.61569C86.382 0.787819 86.4821 1.09235 86.4821 1.5293C86.4821 1.93975 86.382 2.23767 86.1819 2.42304C85.9817 2.60841 85.7416 2.70109 85.4614 2.70109Z" fill="white"/>
<path d="M89.8172 15.2929V15.0943H90.1575C90.451 15.0943 90.6979 15.0546 90.898 14.9752C91.1115 14.8957 91.2716 14.7501 91.3783 14.5382C91.4984 14.3264 91.5584 14.0285 91.5584 13.6445V4.84608H89.8973V4.64747H91.5584V3.73386C91.5584 2.52896 91.8453 1.60874 92.4191 0.973188C93.0061 0.324396 93.9268 0 95.181 0C95.7947 0 96.2884 0.0662032 96.662 0.19861C97.0356 0.317775 97.3091 0.483284 97.4826 0.695135C97.6561 0.906985 97.7428 1.15194 97.7428 1.42999C97.7428 1.68156 97.6761 1.89341 97.5426 2.06554C97.4226 2.23767 97.2358 2.37008 96.9822 2.46276C96.7287 2.5422 96.4219 2.58193 96.0616 2.58193C96.0616 1.70804 95.9815 1.09235 95.8214 0.734856C95.6747 0.377358 95.3878 0.19861 94.9608 0.19861C94.4805 0.19861 94.1403 0.41708 93.9401 0.854021C93.7533 1.27772 93.6599 2.03906 93.6599 3.13803V4.64747H96.2617V4.84608H93.6599V13.6048C93.6599 14.002 93.7133 14.3131 93.82 14.5382C93.9401 14.7501 94.1069 14.8957 94.3204 14.9752C94.5339 15.0546 94.7874 15.0943 95.0809 15.0943H95.8815V15.2929H89.8172Z" fill="white"/>
<path d="M102.817 15.2929V15.0943H103.298C103.591 15.0943 103.831 15.0546 104.018 14.9752C104.205 14.8825 104.338 14.7302 104.418 14.5184C104.512 14.3065 104.558 14.0285 104.558 13.6842V2.66137C104.558 2.31711 104.512 2.04568 104.418 1.84707C104.325 1.64846 104.185 1.50943 103.998 1.42999C103.811 1.35055 103.571 1.31082 103.278 1.31082H102.817V1.11221H108.601C109.922 1.11221 111.05 1.38365 111.984 1.92651C112.918 2.46938 113.632 3.26382 114.125 4.30983C114.619 5.3426 114.866 6.62032 114.866 8.143C114.866 9.58623 114.632 10.8441 114.165 11.9166C113.698 12.9891 112.998 13.8232 112.064 14.4191C111.143 15.0017 109.982 15.2929 108.581 15.2929H102.817ZM108.221 15.0943C109.222 15.0943 110.036 14.856 110.663 14.3793C111.29 13.9027 111.75 13.1546 112.044 12.1351C112.337 11.1023 112.484 9.76498 112.484 8.12314C112.484 6.5475 112.337 5.25654 112.044 4.25025C111.75 3.24396 111.29 2.50248 110.663 2.02582C110.036 1.54916 109.228 1.31082 108.241 1.31082H106.78V15.0943H108.221Z" fill="white"/>
<path d="M117.078 15.2929V15.0943H117.338C117.672 15.0943 117.939 15.0546 118.139 14.9752C118.352 14.8825 118.513 14.7302 118.619 14.5184C118.726 14.3065 118.779 14.0086 118.779 13.6246V6.29593C118.779 5.91195 118.726 5.62066 118.619 5.42205C118.513 5.2102 118.352 5.06455 118.139 4.9851C117.939 4.89242 117.679 4.84608 117.358 4.84608H117.198V4.64747H120.881V13.5849C120.881 13.9821 120.934 14.2933 121.041 14.5184C121.148 14.7302 121.308 14.8825 121.521 14.9752C121.735 15.0546 122.002 15.0943 122.322 15.0943H122.562V15.2929H117.078ZM119.74 2.70109C119.447 2.70109 119.2 2.60841 119 2.42304C118.813 2.23767 118.719 1.93975 118.719 1.5293C118.719 1.09235 118.813 0.787819 119 0.61569C119.2 0.430321 119.447 0.337637 119.74 0.337637C120.02 0.337637 120.26 0.430321 120.461 0.61569C120.661 0.787819 120.761 1.09235 120.761 1.5293C120.761 1.93975 120.661 2.23767 120.461 2.42304C120.26 2.60841 120.02 2.70109 119.74 2.70109Z" fill="white"/>
<path d="M127.658 15.4916C126.938 15.4916 126.331 15.3989 125.837 15.2135C125.357 15.0281 124.99 14.7766 124.736 14.4588C124.496 14.1278 124.376 13.7504 124.376 13.3267C124.376 12.9825 124.443 12.711 124.576 12.5124C124.723 12.3138 124.896 12.1748 125.097 12.0953C125.31 12.0159 125.51 11.9762 125.697 11.9762C125.697 12.7441 125.764 13.3731 125.897 13.863C126.031 14.3396 126.244 14.6971 126.538 14.9355C126.845 15.1738 127.251 15.2929 127.758 15.2929C128.399 15.2929 128.913 15.1208 129.3 14.7766C129.686 14.4191 129.88 13.8894 129.88 13.1877C129.88 12.7243 129.793 12.3601 129.62 12.0953C129.46 11.8305 129.206 11.5988 128.859 11.4002C128.512 11.1883 128.052 10.95 127.478 10.6852C126.824 10.3807 126.277 10.0828 125.837 9.79146C125.41 9.50016 125.09 9.16915 124.876 8.79841C124.663 8.41443 124.556 7.93777 124.556 7.36842C124.556 6.41509 124.87 5.69348 125.497 5.20358C126.137 4.71367 127.005 4.46872 128.099 4.46872C128.753 4.46872 129.3 4.55478 129.74 4.72691C130.194 4.8858 130.527 5.11089 130.741 5.40218C130.967 5.68024 131.081 5.99139 131.081 6.33565C131.081 6.69315 130.961 6.97782 130.721 7.18967C130.48 7.40152 130.113 7.50745 129.62 7.50745C129.62 6.47468 129.486 5.74644 129.219 5.32274C128.953 4.8858 128.532 4.66733 127.959 4.66733C127.585 4.66733 127.258 4.73353 126.978 4.86594C126.711 4.99834 126.498 5.20357 126.337 5.48163C126.177 5.75968 126.097 6.11056 126.097 6.53426C126.097 6.98444 126.184 7.34856 126.357 7.62661C126.544 7.89143 126.818 8.12976 127.178 8.34161C127.552 8.54022 128.025 8.77193 128.599 9.03674C129.226 9.30156 129.747 9.57961 130.16 9.8709C130.587 10.149 130.907 10.4866 131.121 10.8838C131.334 11.2678 131.441 11.7445 131.441 12.3138C131.441 13.3333 131.114 14.1212 130.46 14.6773C129.807 15.2201 128.873 15.4916 127.658 15.4916Z" fill="white"/>
<path d="M133.338 20V19.8014H133.498C133.831 19.8014 134.105 19.755 134.318 19.6624C134.545 19.5829 134.705 19.4307 134.799 19.2056C134.905 18.9937 134.959 18.6958 134.959 18.3118V6.25621C134.959 5.87223 134.905 5.58093 134.799 5.38232C134.692 5.18371 134.532 5.04469 134.318 4.96524C134.105 4.8858 133.838 4.84608 133.518 4.84608H133.338V4.64747H137.04V7.14995H137.08C137.254 6.2231 137.574 5.54121 138.041 5.10427C138.508 4.65409 139.148 4.429 139.962 4.429C141.163 4.429 142.077 4.87918 142.704 5.77954C143.331 6.67991 143.645 8.05694 143.645 9.91063C143.645 11.7908 143.325 13.1943 142.684 14.1212C142.044 15.0348 141.116 15.4916 139.902 15.4916C139.115 15.4916 138.494 15.2665 138.041 14.8163C137.587 14.3529 137.274 13.6577 137.1 12.7309H137.06C137.073 13.1281 137.08 13.5253 137.08 13.9225C137.08 14.3198 137.08 14.7236 137.08 15.1341V18.2721C137.08 18.6693 137.127 18.9805 137.22 19.2056C137.327 19.4307 137.487 19.5829 137.701 19.6624C137.927 19.755 138.208 19.8014 138.541 19.8014H138.761V20H133.338ZM139.422 15.1341C139.915 15.1341 140.316 14.9553 140.623 14.5978C140.93 14.2271 141.15 13.6577 141.283 12.8898C141.43 12.1218 141.503 11.1288 141.503 9.91063C141.503 8.67924 141.43 7.69282 141.283 6.95134C141.136 6.19662 140.91 5.64714 140.603 5.30288C140.296 4.95862 139.902 4.78649 139.422 4.78649C138.888 4.78649 138.448 4.97848 138.101 5.36246C137.754 5.74644 137.494 6.31579 137.32 7.07051C137.16 7.82522 137.08 8.77193 137.08 9.91063C137.08 11.0493 137.16 12.0093 137.32 12.7905C137.494 13.5717 137.754 14.1609 138.101 14.5581C138.448 14.9421 138.888 15.1341 139.422 15.1341Z" fill="white"/>
<path d="M145.609 15.2929V15.0943H145.829C146.162 15.0943 146.436 15.0546 146.649 14.9752C146.876 14.8825 147.036 14.7302 147.13 14.5184C147.236 14.3065 147.29 14.0152 147.29 13.6445V1.80735C147.29 1.42337 147.23 1.13208 147.11 0.933466C147.003 0.734856 146.843 0.595829 146.629 0.516386C146.416 0.436941 146.162 0.397219 145.869 0.397219H145.609V0.19861H149.411V13.5849C149.411 13.9954 149.458 14.3065 149.551 14.5184C149.658 14.7302 149.818 14.8825 150.032 14.9752C150.259 15.0546 150.545 15.0943 150.892 15.0943H151.092V15.2929H145.609Z" fill="white"/>
<path d="M156.012 15.4916C155.118 15.4916 154.398 15.2267 153.85 14.6971C153.317 14.1675 153.05 13.4326 153.05 12.4926C153.05 11.473 153.397 10.7183 154.091 10.2284C154.784 9.7385 155.832 9.46706 157.233 9.4141L158.774 9.35452V7.50745C158.774 6.80569 158.734 6.24959 158.654 5.83913C158.574 5.41543 158.42 5.11089 158.194 4.92552C157.967 4.74015 157.646 4.64747 157.233 4.64747C156.606 4.64747 156.185 4.87256 155.972 5.32274C155.772 5.77292 155.672 6.54088 155.672 7.62661C155.058 7.62661 154.591 7.53393 154.271 7.34856C153.964 7.16319 153.81 6.85866 153.81 6.43496C153.81 5.97153 153.964 5.59417 154.271 5.30288C154.591 5.01159 155.018 4.79974 155.552 4.66733C156.099 4.52168 156.692 4.44886 157.333 4.44886C158.52 4.44886 159.408 4.70705 159.995 5.22344C160.595 5.72658 160.895 6.60708 160.895 7.86495V13.7041C160.895 14.0748 160.929 14.3595 160.995 14.5581C161.062 14.7567 161.182 14.8957 161.356 14.9752C161.529 15.0546 161.756 15.0943 162.036 15.0943H162.096V15.2929H158.874V13.3069H158.834C158.687 13.81 158.474 14.2271 158.194 14.5581C157.927 14.8759 157.606 15.1142 157.233 15.2731C156.873 15.4187 156.466 15.4916 156.012 15.4916ZM156.632 15.0943C157.059 15.0943 157.433 14.9619 157.753 14.6971C158.073 14.4191 158.32 14.0549 158.494 13.6048C158.681 13.1413 158.774 12.6448 158.774 12.1152V9.57299L157.713 9.61271C156.766 9.66567 156.112 9.91725 155.752 10.3674C155.392 10.8176 155.211 11.5525 155.211 12.572C155.211 13.1546 155.258 13.6312 155.352 14.002C155.458 14.3727 155.618 14.6508 155.832 14.8361C156.059 15.0083 156.326 15.0943 156.632 15.0943Z" fill="white"/>
<path d="M163.891 19.8014C164.705 19.8014 165.372 19.7352 165.892 19.6028C166.413 19.4836 166.84 19.2784 167.173 18.9871C167.507 18.6958 167.794 18.3052 168.034 17.8153C168.287 17.3386 168.541 16.7428 168.794 16.0278L164.591 5.91857C164.485 5.62728 164.378 5.40881 164.271 5.26316C164.178 5.10427 164.071 4.99835 163.951 4.94538C163.844 4.87918 163.704 4.84608 163.531 4.84608H163.291V4.64747H168.014L168.034 4.84608H167.874C167.487 4.84608 167.2 4.89904 167.013 5.00497C166.826 5.09765 166.733 5.26316 166.733 5.50149C166.733 5.62066 166.753 5.7663 166.793 5.93843C166.846 6.11056 166.913 6.30255 166.993 6.5144L168.634 10.7051C168.741 10.9831 168.841 11.2413 168.934 11.4796C169.028 11.718 169.115 11.9497 169.195 12.1748C169.275 12.3866 169.348 12.5985 169.415 12.8103C169.495 13.0222 169.568 13.2473 169.635 13.4856C169.768 13.0751 169.902 12.6647 170.035 12.2542C170.169 11.8305 170.289 11.4465 170.396 11.1023L171.837 6.59384C171.903 6.35551 171.95 6.1569 171.977 5.99801C172.017 5.82589 172.037 5.68686 172.037 5.58093C172.037 5.32936 171.95 5.14399 171.776 5.02483C171.603 4.90566 171.303 4.84608 170.876 4.84608H170.135V4.64747H173.798V4.84608H173.678C173.384 4.84608 173.144 4.8858 172.957 4.96524C172.784 5.04469 172.63 5.19696 172.497 5.42205C172.377 5.6339 172.25 5.94505 172.117 6.35551L169.195 15.571C168.901 16.4714 168.608 17.2062 168.314 17.7756C168.034 18.3582 167.707 18.8083 167.333 19.1261C166.973 19.4571 166.533 19.6822 166.012 19.8014C165.492 19.9338 164.865 20 164.131 20H163.891V19.8014Z" fill="white"/>
<path d="M184.353 15.4916C183.659 15.4916 183.052 15.4187 182.531 15.2731C182.024 15.1142 181.604 14.9024 181.271 14.6375C180.95 14.3727 180.71 14.0814 180.55 13.7637C180.403 13.4326 180.33 13.095 180.33 12.7507C180.33 12.4197 180.39 12.1483 180.51 11.9364C180.644 11.7114 180.83 11.5458 181.07 11.4399C181.311 11.3208 181.584 11.2612 181.891 11.2612C181.891 12.1748 181.991 12.9295 182.191 13.5253C182.391 14.1212 182.692 14.5647 183.092 14.856C183.492 15.1473 183.999 15.2929 184.613 15.2929C185.4 15.2929 186.027 15.0612 186.494 14.5978C186.975 14.1212 187.215 13.4194 187.215 12.4926C187.215 11.857 187.095 11.3406 186.855 10.9434C186.614 10.5462 186.254 10.1953 185.774 9.89077C185.307 9.58623 184.72 9.26845 184.013 8.93744C183.519 8.68587 183.059 8.42767 182.632 8.16286C182.218 7.89805 181.858 7.60013 181.551 7.26912C181.257 6.9381 181.024 6.56074 180.85 6.13704C180.69 5.71334 180.61 5.22344 180.61 4.66733C180.61 3.87289 180.784 3.19762 181.131 2.64151C181.477 2.0854 181.964 1.6617 182.592 1.37041C183.232 1.06587 183.973 0.913605 184.813 0.913605C185.587 0.913605 186.241 1.02615 186.774 1.25124C187.322 1.46309 187.742 1.74777 188.035 2.10526C188.329 2.44952 188.476 2.82688 188.476 3.23734C188.476 3.62132 188.329 3.93247 188.035 4.1708C187.742 4.40914 187.322 4.5283 186.774 4.5283C186.774 3.37637 186.601 2.52234 186.254 1.96624C185.921 1.39689 185.373 1.11221 184.613 1.11221C184.173 1.11221 183.779 1.21152 183.432 1.41013C183.085 1.5955 182.812 1.88017 182.612 2.26415C182.411 2.64813 182.311 3.14465 182.311 3.75372C182.311 4.36279 182.425 4.86594 182.652 5.26316C182.878 5.66038 183.225 6.01125 183.692 6.31579C184.159 6.60708 184.753 6.92486 185.474 7.26912C186.167 7.60013 186.774 7.94439 187.295 8.30189C187.829 8.65938 188.235 9.08971 188.516 9.59285C188.809 10.0828 188.956 10.7051 188.956 11.4598C188.956 12.2807 188.776 12.9957 188.416 13.6048C188.069 14.2006 187.548 14.664 186.855 14.995C186.174 15.3261 185.34 15.4916 184.353 15.4916Z" fill="white"/>
<path d="M196.134 15.4916C194.68 15.4916 193.559 15.0149 192.772 14.0616C191.984 13.1082 191.591 11.7709 191.591 10.0497C191.591 8.19596 191.964 6.79907 192.712 5.85899C193.459 4.9189 194.513 4.44886 195.874 4.44886C197.141 4.44886 198.129 4.85932 198.836 5.68024C199.543 6.48792 199.897 7.67958 199.897 9.25521V9.69215H193.752C193.752 11.0295 193.846 12.1086 194.033 12.9295C194.219 13.7504 194.506 14.3462 194.893 14.717C195.28 15.0877 195.787 15.2731 196.414 15.2731C196.868 15.2731 197.268 15.187 197.615 15.0149C197.975 14.8295 198.269 14.5449 198.496 14.1609C198.736 13.7769 198.896 13.2936 198.976 12.711C199.149 12.7507 199.283 12.8368 199.376 12.9692C199.47 13.1016 199.516 13.2539 199.516 13.426C199.516 13.7173 199.39 14.0285 199.136 14.3595C198.896 14.6773 198.529 14.9487 198.035 15.1738C197.542 15.3856 196.908 15.4916 196.134 15.4916ZM197.735 9.49355C197.735 8.31513 197.675 7.37504 197.555 6.67329C197.435 5.95829 197.235 5.44191 196.955 5.12413C196.688 4.80636 196.321 4.64747 195.854 4.64747C195.387 4.64747 195 4.80636 194.693 5.12413C194.386 5.44191 194.159 5.95167 194.013 6.65343C193.866 7.35518 193.779 8.30189 193.752 9.49355H197.735Z" fill="white"/>
<path d="M202.035 15.2929V15.0943H202.195C202.529 15.0943 202.802 15.0546 203.016 14.9752C203.229 14.8957 203.389 14.7501 203.496 14.5382C203.603 14.3264 203.656 14.0285 203.656 13.6445V6.31579C203.656 5.91857 203.603 5.61404 203.496 5.40218C203.402 5.19033 203.249 5.04469 203.036 4.96524C202.822 4.8858 202.549 4.84608 202.215 4.84608H202.115V4.64747H205.737V6.49454H205.777C205.938 5.96491 206.151 5.55445 206.418 5.26316C206.698 4.97186 207.025 4.76663 207.399 4.64747C207.772 4.51506 208.166 4.44886 208.579 4.44886C209.3 4.44886 209.907 4.62099 210.401 4.96524C210.908 5.29626 211.275 5.87885 211.501 6.71301H211.542C211.675 6.14366 211.868 5.69348 212.122 5.36246C212.389 5.03145 212.709 4.79974 213.083 4.66733C213.456 4.52168 213.863 4.44886 214.303 4.44886C215.344 4.44886 216.125 4.76001 216.645 5.38232C217.165 6.00463 217.426 6.96458 217.426 8.26217V13.5849C217.426 13.9954 217.466 14.3131 217.546 14.5382C217.639 14.7501 217.793 14.8957 218.006 14.9752C218.219 15.0546 218.493 15.0943 218.827 15.0943H218.887V15.2929H215.304V7.86495C215.304 6.85866 215.177 6.11718 214.924 5.64052C214.67 5.16385 214.243 4.92552 213.643 4.92552C213.176 4.92552 212.789 5.06455 212.482 5.3426C212.189 5.60741 211.968 5.98477 211.822 6.47468C211.675 6.96458 211.602 7.53393 211.602 8.18272V13.565C211.602 13.9755 211.642 14.2933 211.722 14.5184C211.815 14.7435 211.968 14.8957 212.182 14.9752C212.395 15.0546 212.669 15.0943 213.003 15.0943H213.083V15.2929H209.5V7.86495C209.5 6.84542 209.367 6.10394 209.1 5.64052C208.846 5.16385 208.419 4.92552 207.819 4.92552C207.352 4.92552 206.965 5.07117 206.658 5.36246C206.351 5.64052 206.124 6.04436 205.978 6.57398C205.831 7.10361 205.757 7.72592 205.757 8.44091V13.6048C205.757 14.002 205.804 14.3131 205.898 14.5382C206.004 14.7501 206.164 14.8957 206.378 14.9752C206.605 15.0546 206.885 15.0943 207.218 15.0943H207.299V15.2929H202.035Z" fill="white"/>
<path d="M220.522 15.2929V15.0943H220.782C221.115 15.0943 221.382 15.0546 221.582 14.9752C221.796 14.8825 221.956 14.7302 222.063 14.5184C222.17 14.3065 222.223 14.0086 222.223 13.6246V6.29593C222.223 5.91195 222.17 5.62066 222.063 5.42205C221.956 5.2102 221.796 5.06455 221.582 4.9851C221.382 4.89242 221.122 4.84608 220.802 4.84608H220.642V4.64747H224.324V13.5849C224.324 13.9821 224.378 14.2933 224.484 14.5184C224.591 14.7302 224.751 14.8825 224.965 14.9752C225.178 15.0546 225.445 15.0943 225.765 15.0943H226.006V15.2929H220.522ZM223.184 2.70109C222.89 2.70109 222.643 2.60841 222.443 2.42304C222.256 2.23767 222.163 1.93975 222.163 1.5293C222.163 1.09235 222.256 0.787819 222.443 0.61569C222.643 0.430321 222.89 0.337637 223.184 0.337637C223.464 0.337637 223.704 0.430321 223.904 0.61569C224.104 0.787819 224.204 1.09235 224.204 1.5293C224.204 1.93975 224.104 2.23767 223.904 2.42304C223.704 2.60841 223.464 2.70109 223.184 2.70109Z" fill="white"/>
<path d="M234.084 15.4916C232.763 15.4916 231.656 15.187 230.762 14.578C229.881 13.9689 229.221 13.1215 228.78 12.0358C228.34 10.9368 228.12 9.65905 228.12 8.20258C228.12 6.74611 228.34 5.47501 228.78 4.38928C229.234 3.2903 229.908 2.43628 230.802 1.82721C231.709 1.21814 232.85 0.913605 234.224 0.913605C235.065 0.913605 235.772 1.01953 236.346 1.23138C236.933 1.44323 237.373 1.72128 237.666 2.06554C237.973 2.4098 238.127 2.79378 238.127 3.21748C238.127 3.65442 237.96 3.99868 237.626 4.25025C237.306 4.50182 236.873 4.62761 236.326 4.62761C236.326 3.79345 236.245 3.11817 236.085 2.60179C235.925 2.0854 235.672 1.70804 235.325 1.46971C234.991 1.23138 234.544 1.11221 233.984 1.11221C233.17 1.11221 232.503 1.37703 231.982 1.90665C231.462 2.42304 231.082 3.20424 230.842 4.25025C230.615 5.28302 230.501 6.58722 230.501 8.16286C230.501 9.75174 230.628 11.0758 230.882 12.1351C231.149 13.1943 231.569 13.9821 232.143 14.4985C232.716 15.0149 233.464 15.2731 234.384 15.2731C235.265 15.2731 235.965 15.0281 236.486 14.5382C237.006 14.0351 237.366 13.2936 237.566 12.3138C237.753 12.38 237.887 12.4859 237.967 12.6316C238.047 12.7772 238.087 12.9361 238.087 13.1082C238.087 13.3598 238.007 13.6246 237.847 13.9027C237.7 14.1675 237.466 14.4257 237.146 14.6773C236.826 14.9156 236.412 15.1142 235.905 15.2731C235.398 15.4187 234.791 15.4916 234.084 15.4916Z" fill="white"/>
<path d="M245.05 15.4916C243.649 15.4916 242.549 15.0348 241.748 14.1212C240.961 13.2075 240.567 11.8173 240.567 9.95035C240.567 8.09666 240.948 6.71963 241.708 5.81926C242.469 4.90566 243.596 4.44886 245.09 4.44886C246.491 4.44886 247.586 4.90566 248.373 5.81926C249.16 6.71963 249.554 8.09666 249.554 9.95035C249.554 11.8305 249.173 13.2274 248.413 14.141C247.652 15.0414 246.531 15.4916 245.05 15.4916ZM245.07 15.2929C245.644 15.2929 246.098 15.1208 246.431 14.7766C246.778 14.4191 247.025 13.8497 247.172 13.0685C247.319 12.2873 247.392 11.2479 247.392 9.95035C247.392 8.65276 247.319 7.61337 247.172 6.83217C247.025 6.05098 246.778 5.49487 246.431 5.16385C246.098 4.8196 245.637 4.64747 245.05 4.64747C244.49 4.64747 244.036 4.8196 243.689 5.16385C243.356 5.49487 243.116 6.05098 242.969 6.83217C242.822 7.61337 242.749 8.65276 242.749 9.95035C242.749 11.2479 242.822 12.2873 242.969 13.0685C243.129 13.8497 243.376 14.4191 243.709 14.7766C244.056 15.1208 244.51 15.2929 245.07 15.2929Z" fill="white"/>
<path d="M251.793 15.2929V15.0943H251.953C252.3 15.0943 252.58 15.0546 252.794 14.9752C253.007 14.8825 253.161 14.7236 253.254 14.4985C253.361 14.2602 253.414 13.9292 253.414 13.5055V6.37537C253.414 5.96491 253.361 5.65376 253.254 5.44191C253.161 5.21682 253.007 5.06455 252.794 4.9851C252.594 4.89242 252.327 4.84608 251.993 4.84608H251.853V4.64747H255.496V6.49454H255.536C255.696 5.95167 255.916 5.53459 256.196 5.2433C256.476 4.93876 256.797 4.73353 257.157 4.62761C257.53 4.50844 257.911 4.44886 258.298 4.44886C259.378 4.44886 260.179 4.75339 260.699 5.36246C261.233 5.95829 261.5 6.91824 261.5 8.2423V13.4856C261.5 13.9093 261.54 14.2403 261.62 14.4786C261.7 14.7037 261.833 14.8626 262.02 14.9553C262.22 15.048 262.494 15.0943 262.841 15.0943H262.921V15.2929H259.378V7.74578C259.378 6.81893 259.245 6.11056 258.978 5.62066C258.725 5.11751 258.278 4.86594 257.637 4.86594C257.144 4.86594 256.737 5.01821 256.416 5.32274C256.109 5.61404 255.883 6.0245 255.736 6.55412C255.589 7.08375 255.516 7.69282 255.516 8.38133V13.5253C255.516 13.9358 255.562 14.2602 255.656 14.4985C255.749 14.7236 255.903 14.8825 256.116 14.9752C256.33 15.0546 256.603 15.0943 256.937 15.0943H257.057V15.2929H251.793Z" fill="white"/>
<path d="M268.915 15.4916C268.115 15.4916 267.434 15.2929 266.874 14.8957C266.314 14.4985 265.887 13.8961 265.593 13.0884C265.313 12.2675 265.173 11.2281 265.173 9.97021C265.173 8.69911 265.313 7.65972 265.593 6.85204C265.887 6.03112 266.307 5.42867 266.854 5.04469C267.414 4.64747 268.088 4.44886 268.875 4.44886C269.689 4.44886 270.33 4.66733 270.797 5.10427C271.264 5.52797 271.577 6.19662 271.737 7.11023H271.777C271.764 6.64681 271.751 6.21648 271.737 5.81926C271.737 5.4088 271.737 5.03807 271.737 4.70705C271.737 4.37603 271.737 4.09798 271.737 3.87289V1.84707C271.737 1.44985 271.684 1.15194 271.577 0.953326C271.47 0.741476 271.304 0.595829 271.077 0.516386C270.863 0.436941 270.597 0.397219 270.276 0.397219H270.156V0.19861H273.859V13.6445C273.859 14.0152 273.912 14.3065 274.019 14.5184C274.126 14.7302 274.286 14.8825 274.499 14.9752C274.713 15.0546 274.98 15.0943 275.3 15.0943H275.48V15.2929H271.757V12.7706H271.717C271.557 13.6975 271.244 14.386 270.777 14.8361C270.323 15.2731 269.703 15.4916 268.915 15.4916ZM269.416 15.1341C270.203 15.1341 270.783 14.7037 271.157 13.8431C271.544 12.9825 271.737 11.6783 271.737 9.93049C271.737 8.80503 271.657 7.86495 271.497 7.11023C271.35 6.34227 271.104 5.7663 270.757 5.38232C270.423 4.99835 269.983 4.80636 269.436 4.80636C268.942 4.80636 268.542 4.97848 268.235 5.32274C267.928 5.65376 267.701 6.19662 267.554 6.95134C267.408 7.69282 267.334 8.67924 267.334 9.91063C267.334 11.1685 267.408 12.1814 267.554 12.9494C267.701 13.7173 267.928 14.2734 268.235 14.6177C268.542 14.9619 268.935 15.1341 269.416 15.1341Z" fill="white"/>
<path d="M282.126 15.4916C280.672 15.4916 279.551 15.0149 278.764 14.0616C277.977 13.1082 277.583 11.7709 277.583 10.0497C277.583 8.19596 277.957 6.79907 278.704 5.85899C279.451 4.9189 280.505 4.44886 281.866 4.44886C283.134 4.44886 284.121 4.85932 284.828 5.68024C285.535 6.48792 285.889 7.67958 285.889 9.25521V9.69215H279.745C279.745 11.0295 279.838 12.1086 280.025 12.9295C280.212 13.7504 280.498 14.3462 280.885 14.717C281.272 15.0877 281.779 15.2731 282.406 15.2731C282.86 15.2731 283.26 15.187 283.607 15.0149C283.967 14.8295 284.261 14.5449 284.488 14.1609C284.728 13.7769 284.888 13.2936 284.968 12.711C285.142 12.7507 285.275 12.8368 285.368 12.9692C285.462 13.1016 285.509 13.2539 285.509 13.426C285.509 13.7173 285.382 14.0285 285.128 14.3595C284.888 14.6773 284.521 14.9487 284.028 15.1738C283.534 15.3856 282.9 15.4916 282.126 15.4916ZM283.727 9.49355C283.727 8.31513 283.667 7.37504 283.547 6.67329C283.427 5.95829 283.227 5.44191 282.947 5.12413C282.68 4.80636 282.313 4.64747 281.846 4.64747C281.379 4.64747 280.992 4.80636 280.685 5.12413C280.378 5.44191 280.151 5.95167 280.005 6.65343C279.858 7.35518 279.771 8.30189 279.745 9.49355H283.727Z" fill="white"/>
<path d="M288.027 15.2929V15.0943H288.187C288.534 15.0943 288.814 15.0546 289.028 14.9752C289.241 14.8825 289.395 14.7236 289.488 14.4985C289.595 14.2602 289.648 13.9292 289.648 13.5055V6.37537C289.648 5.96491 289.595 5.65376 289.488 5.44191C289.395 5.21682 289.241 5.06455 289.028 4.9851C288.828 4.89242 288.561 4.84608 288.227 4.84608H288.087V4.64747H291.73V6.49454H291.77C291.93 5.95167 292.15 5.53459 292.43 5.2433C292.71 4.93876 293.031 4.73353 293.391 4.62761C293.764 4.50844 294.145 4.44886 294.532 4.44886C295.612 4.44886 296.413 4.75339 296.933 5.36246C297.467 5.95829 297.734 6.91824 297.734 8.2423V13.4856C297.734 13.9093 297.774 14.2403 297.854 14.4786C297.934 14.7037 298.067 14.8626 298.254 14.9553C298.454 15.048 298.728 15.0943 299.075 15.0943H299.155V15.2929H295.612V7.74578C295.612 6.81893 295.479 6.11056 295.212 5.62066C294.959 5.11751 294.512 4.86594 293.871 4.86594C293.377 4.86594 292.971 5.01821 292.65 5.32274C292.343 5.61404 292.117 6.0245 291.97 6.55412C291.823 7.08375 291.75 7.69282 291.75 8.38133V13.5253C291.75 13.9358 291.796 14.2602 291.89 14.4985C291.983 14.7236 292.137 14.8825 292.35 14.9752C292.564 15.0546 292.837 15.0943 293.171 15.0943H293.291V15.2929H288.027Z" fill="white"/>
<path d="M304.469 15.4916C303.748 15.4916 303.141 15.3989 302.648 15.2135C302.167 15.0281 301.8 14.7766 301.547 14.4588C301.307 14.1278 301.187 13.7504 301.187 13.3267C301.187 12.9825 301.253 12.711 301.387 12.5124C301.533 12.3138 301.707 12.1748 301.907 12.0953C302.121 12.0159 302.321 11.9762 302.508 11.9762C302.508 12.7441 302.574 13.3731 302.708 13.863C302.841 14.3396 303.055 14.6971 303.348 14.9355C303.655 15.1738 304.062 15.2929 304.569 15.2929C305.209 15.2929 305.723 15.1208 306.11 14.7766C306.497 14.4191 306.69 13.8894 306.69 13.1877C306.69 12.7243 306.604 12.3601 306.43 12.0953C306.27 11.8305 306.017 11.5988 305.67 11.4002C305.323 11.1883 304.862 10.95 304.289 10.6852C303.635 10.3807 303.088 10.0828 302.648 9.79146C302.221 9.50016 301.9 9.16915 301.687 8.79841C301.473 8.41443 301.367 7.93777 301.367 7.36842C301.367 6.41509 301.68 5.69348 302.307 5.20358C302.948 4.71367 303.815 4.46872 304.909 4.46872C305.563 4.46872 306.11 4.55478 306.55 4.72691C307.004 4.8858 307.338 5.11089 307.551 5.40218C307.778 5.68024 307.891 5.99139 307.891 6.33565C307.891 6.69315 307.771 6.97782 307.531 7.18967C307.291 7.40152 306.924 7.50745 306.43 7.50745C306.43 6.47468 306.297 5.74644 306.03 5.32274C305.763 4.8858 305.343 4.66733 304.769 4.66733C304.395 4.66733 304.069 4.73353 303.788 4.86594C303.522 4.99834 303.308 5.20357 303.148 5.48163C302.988 5.75968 302.908 6.11056 302.908 6.53426C302.908 6.98444 302.995 7.34856 303.168 7.62661C303.355 7.89143 303.628 8.12976 303.989 8.34161C304.362 8.54022 304.836 8.77193 305.41 9.03674C306.037 9.30156 306.557 9.57961 306.971 9.8709C307.398 10.149 307.718 10.4866 307.931 10.8838C308.145 11.2678 308.252 11.7445 308.252 12.3138C308.252 13.3333 307.925 14.1212 307.271 14.6773C306.617 15.2201 305.683 15.4916 304.469 15.4916Z" fill="white"/>
<path d="M315.292 15.4916C313.837 15.4916 312.716 15.0149 311.929 14.0616C311.142 13.1082 310.748 11.7709 310.748 10.0497C310.748 8.19596 311.122 6.79907 311.869 5.85899C312.616 4.9189 313.67 4.44886 315.031 4.44886C316.299 4.44886 317.286 4.85932 317.993 5.68024C318.701 6.48792 319.054 7.67958 319.054 9.25521V9.69215H312.91C312.91 11.0295 313.003 12.1086 313.19 12.9295C313.377 13.7504 313.664 14.3462 314.051 14.717C314.438 15.0877 314.945 15.2731 315.572 15.2731C316.025 15.2731 316.426 15.187 316.773 15.0149C317.133 14.8295 317.426 14.5449 317.653 14.1609C317.893 13.7769 318.054 13.2936 318.134 12.711C318.307 12.7507 318.44 12.8368 318.534 12.9692C318.627 13.1016 318.674 13.2539 318.674 13.426C318.674 13.7173 318.547 14.0285 318.294 14.3595C318.054 14.6773 317.687 14.9487 317.193 15.1738C316.699 15.3856 316.065 15.4916 315.292 15.4916ZM316.893 9.49355C316.893 8.31513 316.833 7.37504 316.713 6.67329C316.592 5.95829 316.392 5.44191 316.112 5.12413C315.845 4.80636 315.478 4.64747 315.011 4.64747C314.544 4.64747 314.157 4.80636 313.851 5.12413C313.544 5.44191 313.317 5.95167 313.17 6.65343C313.023 7.35518 312.937 8.30189 312.91 9.49355H316.893Z" fill="white"/>
<path d="M325.435 15.4916C324.635 15.4916 323.954 15.2929 323.394 14.8957C322.834 14.4985 322.407 13.8961 322.113 13.0884C321.833 12.2675 321.693 11.2281 321.693 9.97021C321.693 8.69911 321.833 7.65972 322.113 6.85204C322.407 6.03112 322.827 5.42867 323.374 5.04469C323.934 4.64747 324.608 4.44886 325.395 4.44886C326.209 4.44886 326.85 4.66733 327.317 5.10427C327.784 5.52797 328.097 6.19662 328.257 7.11023H328.297C328.284 6.64681 328.271 6.21648 328.257 5.81926C328.257 5.4088 328.257 5.03807 328.257 4.70705C328.257 4.37603 328.257 4.09798 328.257 3.87289V1.84707C328.257 1.44985 328.204 1.15194 328.097 0.953326C327.991 0.741476 327.824 0.595829 327.597 0.516386C327.383 0.436941 327.117 0.397219 326.796 0.397219H326.676V0.19861H330.379V13.6445C330.379 14.0152 330.432 14.3065 330.539 14.5184C330.646 14.7302 330.806 14.8825 331.019 14.9752C331.233 15.0546 331.5 15.0943 331.82 15.0943H332V15.2929H328.277V12.7706H328.237C328.077 13.6975 327.764 14.386 327.297 14.8361C326.843 15.2731 326.223 15.4916 325.435 15.4916ZM325.936 15.1341C326.723 15.1341 327.303 14.7037 327.677 13.8431C328.064 12.9825 328.257 11.6783 328.257 9.93049C328.257 8.80503 328.177 7.86495 328.017 7.11023C327.87 6.34227 327.624 5.7663 327.277 5.38232C326.943 4.99835 326.503 4.80636 325.956 4.80636C325.462 4.80636 325.062 4.97848 324.755 5.32274C324.448 5.65376 324.221 6.19662 324.074 6.95134C323.928 7.69282 323.854 8.67924 323.854 9.91063C323.854 11.1685 323.928 12.1814 324.074 12.9494C324.221 13.7173 324.448 14.2734 324.755 14.6177C325.062 14.9619 325.455 15.1341 325.936 15.1341Z" fill="white"/>
</svg>
