<svg width="327" height="170" viewBox="0 0 327 170" fill="none" xmlns="http://www.w3.org/2000/svg">
<path fill-rule="evenodd" clip-rule="evenodd" d="M163.734 26.5267C162.468 26.5258 161.211 26.5249 159.977 26.4935C162.416 27.7852 164.522 29.4459 166.435 31.2634C166.657 31.2888 166.882 31.3135 167.108 31.3384L167.109 31.3385C169.759 31.63 172.63 31.9459 174.58 33.6714C177.825 36.6791 177.514 41.9287 174.054 44.7242C171.228 47.2245 167.134 48.0548 163.308 48.7929C167.682 55.3342 172.205 61.9123 178.276 67.4203C180.812 69.6438 183.585 71.9595 187.216 72.7437C189.231 72.9599 191.254 72.8246 193.277 72.6892C194.448 72.6108 195.62 72.5324 196.79 72.5223C186.49 67.3268 179.471 58.6767 172.766 50.4125L172.766 50.4124L172.485 50.0661C176.203 49.328 179.888 47.9994 182.456 45.4715C187.345 40.9784 186.411 32.9333 180.447 29.4735C175.534 26.5352 169.535 26.5309 163.734 26.5267ZM140.904 26.6296C137.335 26.7279 133.765 26.8263 130.213 26.5213V26.8903C132.878 28.0067 133.952 30.5623 133.856 32.9703C133.898 44.0415 133.888 55.122 133.856 66.1933C134.027 68.6659 132.835 71.1108 130.213 72.3286V72.8268C134.079 72.3443 137.985 72.4353 141.878 72.526C142.898 72.5498 143.917 72.5735 144.934 72.5869C143.344 71.037 141.603 69.3301 141.732 67.1067C141.617 59.7028 141.638 52.2954 141.659 44.8866C141.671 40.4873 141.683 36.0876 141.667 31.6879C146.18 31.2819 151.488 30.8206 155.11 33.6715C158.355 36.6515 158 41.855 154.648 44.6966C151.958 47.0581 148.128 47.897 144.506 48.6902C144.293 48.7368 144.081 48.7833 143.87 48.8299C144.058 49.1073 144.245 49.3851 144.433 49.6634C149.65 57.3902 155.055 65.3963 163.383 70.9355C166.436 73.1673 170.345 72.9384 174.126 72.7171H174.126C175.19 72.6547 176.244 72.593 177.266 72.5869C166.929 67.1805 159.784 58.4895 153.036 50.0846C156.926 49.2081 160.955 47.8704 163.416 44.9734C167.22 41.0062 167.048 34.6217 162.846 30.9221C160.267 28.5233 156.507 27.3793 152.842 26.8626C148.879 26.4099 144.891 26.5197 140.904 26.6296ZM290.739 133.172L293.141 136.406L289.975 140.112C289.783 140.342 289.612 140.535 289.46 140.699C289.308 140.862 289.147 141.024 288.973 141.186H291.875C291.717 141.141 291.577 141.054 291.471 140.936C291.374 140.826 291.321 140.688 291.322 140.547C291.327 140.448 291.355 140.352 291.404 140.265C291.485 140.116 291.581 139.975 291.691 139.844L293.798 137.261L296.051 140.432C296.156 140.595 296.27 140.753 296.395 140.904C296.484 141.004 296.58 141.098 296.684 141.186H298.968C298.706 141.071 298.464 140.92 298.25 140.738C298.01 140.528 297.798 140.292 297.618 140.035L294.788 136.215L298.157 132.24H295.53C295.677 132.282 295.812 132.356 295.922 132.456C296.013 132.541 296.065 132.655 296.065 132.775C296.061 132.876 296.033 132.974 295.983 133.063C295.925 133.177 295.857 133.286 295.78 133.39L294.186 135.371L292.32 132.852C292.172 132.632 291.994 132.43 291.79 132.253C291.704 132.2 291.38 132.183 290.82 132.2L289.652 132.24C289.85 132.327 290.033 132.441 290.196 132.578C290.4 132.757 290.582 132.956 290.739 133.172ZM285.767 132.24H283.101C283.303 132.373 283.467 132.55 283.576 132.757C283.681 132.995 283.734 133.251 283.734 133.508V139.898C283.736 140.163 283.683 140.425 283.576 140.671C283.468 140.875 283.304 141.049 283.101 141.176H285.767C285.557 141.051 285.387 140.876 285.272 140.671C285.162 140.427 285.115 140.162 285.135 139.898V133.508C285.125 133.251 285.174 132.995 285.28 132.757C285.391 132.548 285.559 132.37 285.767 132.24ZM277.068 140.099V136.609L277.682 136.558C277.888 136.534 278.074 136.534 278.24 136.534C279.151 136.533 279.809 136.686 280.213 136.993C280.413 137.145 280.572 137.339 280.677 137.559C280.783 137.779 280.831 138.019 280.819 138.259C280.838 138.788 280.631 139.302 280.243 139.69C279.867 140.049 279.285 140.224 278.497 140.214C278.276 140.214 278.044 140.206 277.795 140.188C277.551 140.172 277.308 140.142 277.068 140.099ZM277.7 132.24H275.032C275.234 132.373 275.396 132.55 275.505 132.757C275.612 132.995 275.665 133.25 275.663 133.508V139.898C275.668 140.163 275.614 140.426 275.505 140.671C275.397 140.875 275.234 141.049 275.03 141.176H278.371C279.728 141.175 280.739 140.913 281.403 140.391C281.733 140.129 281.994 139.802 282.166 139.433C282.339 139.064 282.419 138.663 282.4 138.261C282.398 137.4 282.089 136.734 281.472 136.262C280.855 135.789 279.987 135.553 278.869 135.553C278.65 135.553 278.376 135.564 278.044 135.585C277.713 135.606 277.387 135.63 277.068 135.655V133.508C277.058 133.251 277.107 132.995 277.211 132.757C277.323 132.548 277.492 132.37 277.7 132.24ZM268.615 135.767H263.323V133.518C263.31 133.253 263.359 132.989 263.467 132.743C263.582 132.54 263.75 132.367 263.956 132.24H261.288C261.488 132.371 261.652 132.543 261.769 132.743C261.883 132.987 261.935 133.252 261.921 133.518V139.908C261.936 140.177 261.884 140.446 261.769 140.693C261.654 140.891 261.489 141.06 261.288 141.186H263.956C263.749 141.064 263.58 140.895 263.467 140.693C263.358 140.444 263.309 140.176 263.323 139.908V136.79H268.615V139.902C268.63 140.171 268.578 140.44 268.463 140.687C268.349 140.886 268.184 141.055 267.982 141.18H270.648C270.442 141.059 270.274 140.889 270.161 140.687C270.051 140.439 270.001 140.171 270.016 139.902V133.512C270.002 133.247 270.052 132.983 270.161 132.738C270.276 132.535 270.443 132.362 270.648 132.234H267.982C268.182 132.365 268.347 132.538 268.463 132.738C268.577 132.982 268.629 133.247 268.615 133.512V135.767ZM254.871 135.767H249.579V133.518C249.566 133.253 249.615 132.989 249.722 132.743C249.838 132.54 250.006 132.367 250.212 132.24H247.544C247.743 132.371 247.908 132.543 248.025 132.743C248.138 132.987 248.19 133.252 248.176 133.518V139.908C248.191 140.177 248.139 140.446 248.025 140.693C247.91 140.891 247.745 141.06 247.544 141.186H250.212C250.005 141.064 249.836 140.895 249.722 140.693C249.614 140.444 249.565 140.176 249.579 139.908V136.79H254.871V139.902C254.885 140.171 254.834 140.44 254.719 140.687C254.604 140.886 254.439 141.055 254.238 141.18H256.904C256.697 141.059 256.529 140.889 256.417 140.687C256.306 140.439 256.257 140.171 256.271 139.902V133.512C256.258 133.247 256.307 132.983 256.417 132.738C256.531 132.535 256.699 132.362 256.904 132.234H254.238C254.438 132.365 254.602 132.538 254.719 132.738C254.833 132.982 254.885 133.247 254.871 133.512V135.767ZM237.502 136.929L238.996 133.403L240.501 136.929H237.502ZM239.962 132.24H237.7C237.78 132.272 237.853 132.318 237.913 132.377C237.973 132.435 238.021 132.504 238.052 132.58C238.11 132.752 238.098 132.938 238.017 133.102L235.26 139.569C235.114 139.936 234.922 140.285 234.688 140.61C234.509 140.843 234.281 141.041 234.019 141.193H236.605C236.388 141.064 236.226 140.87 236.146 140.642C236.087 140.356 236.133 140.06 236.275 139.8L237.138 137.793H240.869L241.908 140.195C242.005 140.388 242.02 140.607 241.949 140.81C241.856 140.985 241.694 141.12 241.496 141.186H244.439C244.187 141.069 243.962 140.908 243.776 140.712C243.557 140.459 243.385 140.173 243.267 139.868L239.962 132.24ZM224.398 141.186H227.285C227.008 141.078 226.779 140.885 226.636 140.64C226.482 140.349 226.412 140.025 226.434 139.701V133.311C226.616 133.277 226.808 133.249 227.004 133.228C227.034 133.225 227.065 133.222 227.095 133.218C227.258 133.201 227.417 133.183 227.588 133.183C228.229 133.183 228.73 133.332 229.092 133.63C229.275 133.787 229.42 133.979 229.516 134.193C229.612 134.407 229.657 134.637 229.647 134.869C229.658 135.165 229.594 135.459 229.461 135.728C229.327 135.996 229.127 136.232 228.877 136.416C228.321 136.799 227.646 137.004 226.953 137.002C227.151 137.062 227.354 137.104 227.56 137.13C227.746 137.155 227.935 137.168 228.123 137.169C229.059 137.177 229.81 136.936 230.377 136.448C230.653 136.217 230.872 135.933 231.019 135.617C231.166 135.3 231.238 134.958 231.23 134.613C231.247 134.286 231.181 133.959 231.037 133.66C230.894 133.36 230.678 133.096 230.405 132.888C229.854 132.47 228.989 132.257 227.808 132.249H224.398C224.6 132.382 224.764 132.56 224.873 132.766C224.978 133.005 225.032 133.26 225.031 133.518V139.908C225.046 140.177 224.994 140.446 224.879 140.693C224.765 140.891 224.6 141.06 224.398 141.186ZM215.066 140.124V136.699L215.76 136.654C215.948 136.636 216.105 136.636 216.235 136.636C217.136 136.634 217.789 136.783 218.193 137.083C218.393 137.228 218.554 137.414 218.663 137.627C218.771 137.84 218.824 138.074 218.818 138.31C218.81 138.948 218.599 139.429 218.187 139.753C217.775 140.078 217.211 140.24 216.495 140.24C216.267 140.24 216.03 140.231 215.788 140.214C215.546 140.197 215.305 140.167 215.066 140.124ZM218.895 132.24H213.033C213.235 132.374 213.398 132.553 213.506 132.76C213.612 132.998 213.666 133.254 213.664 133.512V139.902C213.668 140.167 213.614 140.43 213.506 140.674C213.399 140.878 213.236 141.053 213.033 141.18H216.372C217.73 141.18 218.741 140.924 219.404 140.413C219.732 140.161 219.992 139.841 220.165 139.48C220.338 139.118 220.419 138.724 220.4 138.329C220.394 137.498 220.082 136.851 219.464 136.387C218.847 135.924 217.98 135.692 216.861 135.692C216.695 135.692 216.457 135.7 216.146 135.717L215.06 135.78V133.264H217.947C218.247 133.254 218.547 133.291 218.834 133.373C219.046 133.443 219.236 133.559 219.39 133.711V132.208C219.309 132.226 219.226 132.236 219.143 132.24H218.895ZM202.363 132.253L202.161 133.862C202.609 133.607 203.094 133.411 203.6 133.279C204.074 133.155 204.564 133.092 205.057 133.091C205.527 133.065 205.994 133.185 206.383 133.431C206.539 133.542 206.664 133.687 206.747 133.852C206.829 134.018 206.868 134.2 206.858 134.382C206.859 134.584 206.809 134.783 206.712 134.964C206.615 135.145 206.474 135.302 206.3 135.423C205.943 135.683 205.379 135.808 204.608 135.799C204.45 135.801 204.293 135.794 204.135 135.78C204.01 135.767 203.826 135.739 203.606 135.698V137.025C203.792 136.944 203.988 136.885 204.19 136.852C204.446 136.81 204.706 136.791 204.966 136.793C205.575 136.764 206.177 136.924 206.678 137.248C206.886 137.395 207.052 137.586 207.164 137.805C207.275 138.024 207.327 138.265 207.317 138.507C207.323 138.772 207.258 139.034 207.125 139.269C206.993 139.504 206.799 139.703 206.561 139.849C206.065 140.164 205.387 140.321 204.526 140.321C203.977 140.326 203.434 140.231 202.925 140.041C202.387 139.825 201.904 139.505 201.51 139.101L201.882 140.84C202.277 141.036 202.7 141.178 203.139 141.263C203.617 141.343 204.102 141.382 204.588 141.377C205.945 141.376 207.002 141.114 207.757 140.592C208.126 140.341 208.422 140.01 208.62 139.627C208.818 139.245 208.911 138.822 208.891 138.398C208.911 137.817 208.681 137.252 208.253 136.827C208.035 136.618 207.773 136.454 207.483 136.344C207.193 136.234 206.882 136.181 206.569 136.188V136.151C207.085 136.074 207.56 135.842 207.921 135.491C208.263 135.141 208.443 134.68 208.425 134.207C208.437 133.899 208.366 133.593 208.22 133.317C208.073 133.04 207.856 132.802 207.586 132.623C207.028 132.24 206.176 132.048 205.029 132.048C204.576 132.045 204.123 132.074 203.675 132.136C203.24 132.2 202.802 132.239 202.363 132.253ZM195.288 132.738L190.395 139.52V133.514C190.382 133.249 190.431 132.985 190.539 132.74C190.654 132.537 190.822 132.363 191.028 132.236H188.362C188.561 132.368 188.725 132.54 188.843 132.74C188.955 132.984 189.006 133.249 188.992 133.514V139.904C189.007 140.173 188.956 140.441 188.843 140.689C188.727 140.887 188.562 141.056 188.362 141.182H190.312C190.393 141.124 190.468 141.062 190.539 140.994C190.631 140.897 190.716 140.795 190.793 140.687L195.687 133.905V139.908C195.702 140.177 195.65 140.446 195.535 140.693C195.42 140.891 195.255 141.06 195.054 141.186H197.72C197.514 141.064 197.346 140.894 197.233 140.693C197.123 140.444 197.074 140.176 197.089 139.908V133.518C197.075 133.253 197.124 132.988 197.233 132.743C197.348 132.541 197.516 132.368 197.72 132.24H195.77C195.683 132.302 195.603 132.37 195.529 132.445C195.44 132.536 195.36 132.634 195.288 132.738ZM175.529 133.211V139.908C175.529 140.165 175.475 140.42 175.369 140.657C175.261 140.862 175.097 141.036 174.894 141.163H177.562C177.352 141.038 177.181 140.864 177.067 140.657C176.956 140.414 176.908 140.149 176.93 139.885V133.495C176.92 133.238 176.969 132.982 177.073 132.743C177.185 132.535 177.354 132.356 177.562 132.227C177.331 132.227 177.128 132.227 176.956 132.228C176.676 132.228 176.474 132.229 176.349 132.227C176.263 132.225 176.176 132.221 176.089 132.218C175.974 132.213 175.859 132.208 175.743 132.208C175.252 132.202 174.928 132.195 174.773 132.191C174.717 132.19 174.684 132.189 174.672 132.189H174.546C173.393 132.186 172.525 132.403 171.943 132.839C171.361 133.275 171.07 133.897 171.07 134.705C171.064 134.965 171.115 135.222 171.219 135.463C171.324 135.704 171.479 135.922 171.676 136.106C172.146 136.537 172.754 136.813 173.409 136.891C172.702 137.886 171.907 138.825 171.032 139.697C170.262 140.439 169.575 140.935 168.97 141.186L169.98 141.242C170.191 141.263 170.356 141.263 170.476 141.263C171.032 141.251 171.718 140.827 172.533 139.988C173.349 139.15 174.214 137.96 175.131 136.418C174.515 136.486 173.893 136.346 173.378 136.023C173.152 135.886 172.967 135.698 172.841 135.476C172.715 135.255 172.651 135.007 172.657 134.756C172.643 134.535 172.681 134.315 172.768 134.109C172.854 133.903 172.987 133.717 173.158 133.563C173.493 133.277 173.977 133.134 174.609 133.134C174.783 133.134 174.945 133.14 175.09 133.153C175.236 133.166 175.383 133.185 175.529 133.211ZM165.625 139.908V133.518H165.641C165.617 133.251 165.664 132.982 165.776 132.736C165.899 132.531 166.074 132.358 166.286 132.232H159.29C159.46 132.289 159.614 132.378 159.745 132.493C159.875 132.609 159.977 132.748 160.046 132.903C160.202 133.23 160.293 133.862 160.293 134.801C160.29 136.429 160.155 137.728 159.888 138.699C159.622 139.67 159.223 140.156 158.692 140.156C158.54 140.157 158.39 140.126 158.253 140.065C158.102 139.995 157.965 139.9 157.849 139.785L158.027 141.255C158.135 141.289 158.245 141.316 158.356 141.338C158.47 141.359 158.585 141.37 158.7 141.37C159.616 141.37 160.308 140.875 160.776 139.887C161.243 138.898 161.477 137.156 161.477 134.66V133.255H164.236V139.908C164.239 140.172 164.185 140.435 164.076 140.68C163.97 140.885 163.807 141.059 163.604 141.186H166.257C166.048 141.06 165.877 140.886 165.762 140.68C165.652 140.436 165.605 140.171 165.625 139.908ZM149.408 133.255H152.269L152.265 140.163H147.838C148.393 139.195 148.795 138.156 149.031 137.081C149.298 135.821 149.425 134.539 149.408 133.255ZM154.306 132.232H147.306V132.24C147.592 132.385 147.822 132.608 147.965 132.879C148.134 133.25 148.214 133.651 148.2 134.053C148.21 135.163 148.067 136.269 147.773 137.344C147.496 138.34 147.056 139.291 146.468 140.163H145.342V143.213L146.166 143.507C146.112 142.938 146.196 142.366 146.413 141.832C146.615 141.39 146.947 141.169 147.414 141.169H152.907C153.364 141.169 153.691 141.39 153.894 141.832C154.111 142.366 154.2 142.937 154.154 143.507L154.979 143.213V140.146H153.673V133.501C153.664 133.243 153.713 132.987 153.819 132.749C153.93 132.54 154.098 132.362 154.306 132.232ZM135.054 132.232H129.722L129.728 132.24C129.932 132.375 130.095 132.558 130.201 132.77C130.307 133.008 130.361 133.263 130.36 133.521V139.911C130.372 140.174 130.32 140.436 130.209 140.678C130.099 140.884 129.933 141.06 129.728 141.189H135.713L136.412 139.387C136.066 139.68 135.651 139.893 135.199 140.007C134.657 140.13 134.1 140.184 133.542 140.167C133.263 140.167 132.964 140.161 132.657 140.148C132.349 140.135 132.048 140.111 131.755 140.077V136.869H133.184C133.389 136.864 133.594 136.89 133.791 136.946C133.956 136.998 134.106 137.085 134.229 137.201V135.803C134.148 135.82 134.066 135.831 133.983 135.835H133.734H131.755V133.279L133.611 133.241C133.899 133.235 134.186 133.269 134.464 133.343C134.691 133.411 134.895 133.535 135.054 133.702V132.232ZM117.489 134.059C118.175 133.421 119.073 133.097 120.184 133.087L120.19 133.095C120.686 133.084 121.179 133.176 121.633 133.364C122.087 133.551 122.491 133.83 122.815 134.179C123.502 134.898 123.846 135.812 123.846 136.921C123.862 137.373 123.778 137.822 123.599 138.242C123.421 138.663 123.152 139.044 122.809 139.364C122.117 140.003 121.22 140.323 120.121 140.323C119.621 140.337 119.124 140.248 118.666 140.062C118.207 139.877 117.799 139.599 117.469 139.25C116.786 138.534 116.449 137.618 116.458 136.502C116.442 136.051 116.525 135.602 116.702 135.181C116.879 134.761 117.147 134.379 117.489 134.059ZM123.929 133.332C122.925 132.471 121.667 132.04 120.155 132.04L120.161 132.048C118.513 132.049 117.217 132.505 116.272 133.416C115.356 134.296 114.852 135.477 114.872 136.701C114.873 138.1 115.372 139.227 116.369 140.084C117.367 140.941 118.627 141.37 120.149 141.37C121.785 141.368 123.075 140.91 124.018 139.996C124.476 139.562 124.837 139.047 125.08 138.482C125.323 137.917 125.443 137.313 125.433 136.705C125.434 135.317 124.933 134.192 123.929 133.332ZM108.561 135.767H103.27V133.518C103.257 133.253 103.306 132.989 103.413 132.743C103.529 132.54 103.697 132.367 103.902 132.24H101.234C101.434 132.371 101.599 132.543 101.715 132.743C101.829 132.987 101.881 133.252 101.867 133.518V139.908C101.882 140.177 101.83 140.446 101.715 140.693C101.601 140.891 101.436 141.06 101.234 141.186H103.902C103.695 141.064 103.527 140.895 103.413 140.693C103.305 140.444 103.256 140.176 103.27 139.908V136.79H108.561V139.902C108.576 140.171 108.524 140.44 108.41 140.687C108.295 140.886 108.13 141.055 107.929 141.18H110.595C110.388 141.059 110.22 140.889 110.108 140.687C109.997 140.439 109.948 140.171 109.962 139.902V133.512C109.948 133.247 109.998 132.983 110.108 132.738C110.222 132.535 110.39 132.362 110.595 132.234H107.929C108.128 132.365 108.293 132.538 108.41 132.738C108.524 132.982 108.575 133.247 108.561 133.512V135.767ZM94.817 135.767H89.5254V133.518C89.5123 133.253 89.5612 132.989 89.6689 132.743C89.7844 132.54 89.9525 132.367 90.158 132.24H87.49C87.6897 132.371 87.8543 132.543 87.9711 132.743C88.0849 132.987 88.1367 133.252 88.1226 133.518V139.908C88.1376 140.177 88.0857 140.446 87.9711 140.693C87.8564 140.891 87.6913 141.06 87.49 141.186H90.158C89.9511 141.064 89.7823 140.895 89.6689 140.693C89.5604 140.444 89.5114 140.176 89.5254 139.908V136.79H94.817V139.902C94.8319 140.171 94.7801 140.44 94.6654 140.687C94.5508 140.886 94.3856 141.055 94.1843 141.18H96.8504C96.644 141.059 96.4759 140.889 96.3632 140.687C96.2529 140.439 96.2032 140.171 96.2177 139.902V133.512C96.2041 133.247 96.2538 132.983 96.3632 132.738C96.4779 132.535 96.6454 132.362 96.8504 132.234H94.1843C94.3841 132.365 94.5487 132.538 94.6654 132.738C94.7792 132.982 94.8311 133.247 94.817 133.512V135.767ZM77.4485 136.929L78.9422 133.403L80.448 136.929H77.4485ZM79.9083 132.24H77.6466C77.7266 132.272 77.799 132.318 77.8594 132.377C77.9198 132.435 77.967 132.504 77.9983 132.58C78.0564 132.752 78.0441 132.938 77.9639 133.102L75.2069 139.569C75.0608 139.936 74.8688 140.285 74.6349 140.61C74.4551 140.843 74.2278 141.041 73.9659 141.193H76.5612C76.3445 141.064 76.1824 140.87 76.1023 140.642C76.044 140.356 76.0895 140.06 76.2317 139.8L77.0948 137.793H80.8159L81.8548 140.195C81.9516 140.388 81.9661 140.607 81.8952 140.81C81.8025 140.985 81.6402 141.12 81.4425 141.186H84.3854C84.1333 141.069 83.9081 140.908 83.7224 140.712C83.5032 140.459 83.3311 140.174 83.2131 139.868L79.9083 132.24ZM64.3448 141.186H67.2311C66.9557 141.081 66.7264 140.893 66.5803 140.652C66.426 140.36 66.3563 140.036 66.3781 139.712V133.322C66.5601 133.288 66.7521 133.26 66.9481 133.24C66.9747 133.237 67.0012 133.234 67.0277 133.231C67.1972 133.213 67.3662 133.194 67.5323 133.194C68.1737 133.194 68.6749 133.344 69.0361 133.642C69.2186 133.797 69.3629 133.987 69.4592 134.199C69.5554 134.41 69.6014 134.639 69.5939 134.869C69.6048 135.165 69.5407 135.459 69.407 135.728C69.2732 135.996 69.0735 136.232 68.8238 136.416C68.2671 136.799 67.5922 137.004 66.8996 137.002C67.0972 137.062 67.3001 137.104 67.506 137.13C67.6928 137.155 67.8812 137.168 68.0699 137.169C69.0037 137.177 69.755 136.936 70.3236 136.448C70.5992 136.217 70.818 135.933 70.9652 135.617C71.1124 135.3 71.1845 134.958 71.1766 134.613C71.1931 134.286 71.1271 133.959 70.9839 133.66C70.8408 133.36 70.6243 133.096 70.3519 132.888C69.8008 132.47 68.935 132.257 67.7546 132.249H64.3448C64.5469 132.382 64.7101 132.56 64.8198 132.766C64.9244 133.005 64.978 133.26 64.9774 133.518V139.908C64.9924 140.177 64.9405 140.446 64.8258 140.693C64.7112 140.891 64.546 141.06 64.3448 141.186ZM55.0127 140.124V136.699L55.706 136.654C55.894 136.636 56.0516 136.636 56.181 136.636C57.0825 136.634 57.7353 136.783 58.1396 137.083C58.3399 137.228 58.5008 137.414 58.6093 137.627C58.7178 137.84 58.7708 138.074 58.7641 138.31C58.756 138.948 58.5458 139.429 58.1335 139.753C57.7212 140.078 57.1572 140.24 56.4417 140.24C56.2133 140.24 55.9769 140.231 55.7343 140.214C55.4921 140.197 55.2511 140.167 55.0127 140.124ZM58.8409 132.24H52.9793C53.1814 132.374 53.344 132.553 53.4523 132.76C53.5588 132.998 53.6125 133.254 53.61 133.512V139.902C53.6145 140.167 53.5609 140.43 53.4523 140.674C53.3451 140.878 53.182 141.053 52.9793 141.18H56.3164C57.6747 141.18 58.6853 140.924 59.3483 140.413C59.6762 140.161 59.9369 139.841 60.1098 139.48C60.2826 139.118 60.3631 138.724 60.3447 138.329C60.3447 137.492 60.0355 136.842 59.417 136.378C58.7985 135.914 57.9307 135.683 56.8136 135.683C56.6479 135.683 56.4094 135.69 56.0981 135.707L55.0127 135.771V133.255H57.893C58.1938 133.247 58.4938 133.287 58.7803 133.373C58.9921 133.443 59.1827 133.559 59.3361 133.711V132.208C59.2552 132.226 59.1727 132.236 59.0896 132.24H58.8409ZM42.3092 132.253L42.1071 133.862C42.5527 133.608 43.0335 133.412 43.5361 133.279C44.0105 133.155 44.5007 133.092 44.9934 133.091C45.4637 133.065 45.9299 133.185 46.3194 133.431C46.4755 133.542 46.6002 133.687 46.683 133.852C46.7657 134.018 46.8039 134.2 46.7944 134.382C46.7961 134.584 46.7473 134.782 46.6519 134.963C46.5564 135.144 46.417 135.301 46.2446 135.423C45.8875 135.683 45.3236 135.808 44.5528 135.799C44.3949 135.801 44.237 135.794 44.0798 135.78C43.9545 135.767 43.7706 135.739 43.5503 135.698V137.034C43.736 136.953 43.9324 136.895 44.1344 136.861C44.3907 136.82 44.6505 136.8 44.9106 136.803C45.5197 136.774 46.1219 136.934 46.6226 137.258C46.8303 137.404 46.9969 137.595 47.1081 137.814C47.2193 138.034 47.2719 138.275 47.2613 138.517C47.2654 138.778 47.199 139.037 47.068 139.268C46.937 139.5 46.7456 139.697 46.5114 139.842C46.0155 140.156 45.337 140.313 44.476 140.313C43.9278 140.318 43.384 140.223 42.8752 140.033C42.337 139.817 41.8547 139.497 41.4603 139.094L41.8322 140.832C42.2274 141.028 42.6507 141.171 43.0894 141.255C43.5675 141.336 44.0527 141.374 44.5386 141.37C45.8956 141.368 46.952 141.107 47.708 140.584C48.0745 140.334 48.3692 140.003 48.5662 139.622C48.7633 139.241 48.8565 138.821 48.8378 138.398C48.8569 137.817 48.6272 137.252 48.1991 136.827C47.9812 136.618 47.7191 136.454 47.4293 136.344C47.1395 136.234 46.8283 136.181 46.5154 136.188V136.151C47.0315 136.074 47.5064 135.842 47.8676 135.491C48.2091 135.141 48.3898 134.68 48.3709 134.207C48.383 133.899 48.3127 133.593 48.1663 133.317C48.0199 133.04 47.802 132.802 47.5321 132.623C46.9729 132.24 46.1206 132.048 44.9752 132.048C44.5221 132.045 44.0693 132.074 43.621 132.136C43.1867 132.2 42.7486 132.239 42.3092 132.253ZM35.2349 132.738L30.3415 139.52V133.514C30.3283 133.249 30.3773 132.985 30.485 132.74C30.6005 132.537 30.7686 132.363 30.9741 132.236H28.3081C28.5073 132.368 28.6718 132.54 28.7891 132.74C28.9012 132.984 28.9523 133.249 28.9387 133.514V139.904C28.9532 140.173 28.902 140.441 28.7891 140.689C28.6739 140.887 28.5089 141.056 28.3081 141.182H30.2586C30.339 141.124 30.4147 141.062 30.485 140.994C30.5774 140.897 30.6625 140.795 30.7397 140.687L35.6331 133.905V139.908C35.648 140.177 35.5961 140.446 35.4815 140.693C35.3669 140.891 35.2017 141.06 35.0004 141.186H37.6664C37.4605 141.064 37.2926 140.894 37.1793 140.693C37.0698 140.444 37.0208 140.176 37.0358 139.908V133.518C37.0216 133.253 37.0706 132.988 37.1793 132.743C37.2947 132.541 37.462 132.368 37.6664 132.24H35.7159C35.6299 132.302 35.5494 132.37 35.4754 132.445C35.3867 132.536 35.3062 132.634 35.2349 132.738ZM282.608 99.8562C282.331 99.7542 282.034 99.7068 281.737 99.7172L277.828 99.7811C278.764 100.194 279.548 100.855 280.081 101.681L286.277 110.563V116.536C286.277 117.317 286.277 118.436 284.892 119.33H290.725C289.343 118.436 289.343 117.317 289.343 116.536V110.582L297.098 99.7641H291.898C292.407 100.016 292.92 100.546 292.92 101.189C292.892 101.593 292.746 101.983 292.498 102.316L288.35 108.298L282.608 99.8562ZM270.947 119.34C269.565 118.445 269.565 117.327 269.565 116.545V102.01L272.932 101.982C273.682 101.982 274.764 101.982 275.336 102.933L276.389 99.6608C275.78 99.7292 275.168 99.7668 274.555 99.7735H262.921C262.277 99.794 261.633 99.7562 260.997 99.6608L259.794 103.156C260.2 102.77 260.687 102.467 261.225 102.264C261.763 102.062 262.341 101.966 262.921 101.982L266.499 102.01V116.545C266.499 117.327 266.499 118.445 265.114 119.34H270.947ZM251.438 102.568C251.438 101.869 251.497 100.64 252.973 99.7735H246.98C248.36 100.668 248.36 101.786 248.36 102.568V116.553C248.36 117.334 248.36 118.453 246.98 119.347H259.916L261.599 115.286C259.705 116.767 256.849 117.103 254.895 117.103C253.739 117.074 252.585 116.99 251.438 116.851V102.568ZM236.439 110.031H229.916L233.162 102.326L236.439 110.031ZM242.511 116.462L235.267 99.7735L230.333 99.7585C231.564 100.296 231.143 101.36 231.024 101.638L225.011 115.782C224.441 117.124 223.838 118.383 222.274 119.332H227.956C226.545 118.409 226.816 117.265 227.234 116.286L229.128 111.897H237.213L239.499 117.16C239.77 117.802 240.012 118.753 238.598 119.34H245.065C243.592 118.614 242.992 117.551 242.511 116.462ZM218.49 102.997V99.7735H206.828C208.21 100.668 208.21 101.841 208.21 102.568V116.538C208.21 117.265 208.21 118.438 206.828 119.332H219.935L221.47 115.385C220.146 116.476 218.49 117.092 215.186 117.092C214.585 117.092 213.112 117.071 211.278 116.904V109.901H214.403C215.456 109.901 216.117 110.097 216.689 110.629V107.582C216.331 107.639 215.969 107.667 215.606 107.665H211.278V102.076L215.335 101.991C217.11 101.963 217.922 102.382 218.49 102.997ZM189.886 99.717L189.88 99.7172L189.874 99.7173C188.552 99.7454 187.232 99.7735 185.91 99.7735C187.292 100.668 187.292 101.786 187.292 102.568V116.541C187.292 117.323 187.292 118.441 185.91 119.336H191.733C190.353 118.441 190.353 117.323 190.353 116.541V101.922C191.014 101.773 191.694 101.71 192.374 101.734C196.073 101.734 196.584 103.747 196.584 105.004C196.584 107.797 193.397 108.951 191.234 109.138C193.126 112.437 197.817 119.507 201.273 119.507C201.605 119.507 202.417 119.479 204.521 119.34C201.544 118.195 197.184 113.134 194.84 109.697C198.088 109.193 200.042 107.041 200.042 104.748C200.042 103.211 199.349 99.6608 192.495 99.6608C191.626 99.6608 190.757 99.6888 189.886 99.717ZM167.606 101.422C168.839 101.422 170.641 101.619 172.748 103.239L172.764 99.969C171.187 99.5473 169.553 99.3403 167.913 99.3544C161.647 99.3544 160.03 102.177 160.03 104.581C160.03 107.656 162.587 108.887 166.013 110.339C166.217 110.425 166.419 110.509 166.619 110.592C169.027 111.592 171.094 112.45 171.094 114.532C171.094 116.406 169.17 117.522 166.193 117.522C162.645 117.522 160.511 116.126 159.399 115.231L160.271 118.921C162.12 119.5 164.062 119.783 166.013 119.759C170.403 119.759 174.462 117.964 174.462 113.745C174.462 110.725 172.325 109.691 168.778 108.21C165.142 106.701 163.488 105.917 163.488 104.241C163.488 103.185 164.21 101.422 167.606 101.422ZM149.481 101.422C150.714 101.422 152.517 101.619 154.623 103.239L154.639 99.969C153.063 99.5475 151.429 99.3405 149.788 99.3544C143.523 99.3544 141.906 102.177 141.906 104.581C141.906 107.656 144.452 108.887 147.889 110.339C148.093 110.426 148.296 110.51 148.497 110.593C150.902 111.592 152.968 112.451 152.968 114.532C152.968 116.406 151.044 117.522 148.068 117.522C144.521 117.522 142.387 116.126 141.275 115.231L142.146 118.921C143.996 119.5 145.937 119.784 147.889 119.759C152.277 119.759 156.335 117.964 156.335 113.745C156.335 110.725 154.201 109.691 150.654 108.21C147.017 106.701 145.362 105.917 145.362 104.241C145.362 103.185 146.084 101.422 149.481 101.422ZM136.467 102.997V99.7735H124.796C126.179 100.668 126.179 101.841 126.179 102.568V116.538C126.179 117.265 126.179 118.438 124.796 119.332H137.902L139.434 115.385C138.112 116.476 136.459 117.092 133.152 117.092C132.549 117.092 131.076 117.071 129.243 116.904V109.901H132.38C133.431 109.901 134.092 110.097 134.662 110.629V107.582C134.305 107.639 133.943 107.667 133.58 107.665H129.251V102.076L133.309 101.991C135.084 101.963 135.895 102.382 136.467 102.997ZM106.674 100.501C106.493 100.276 106.342 100.032 106.223 99.7735H101.742C103.124 100.668 103.124 101.786 103.124 102.568V116.547C103.124 117.329 103.124 118.447 101.742 119.342H106.853C105.471 118.447 105.471 117.329 105.471 116.547V103.829L116.624 116.797C116.659 116.837 116.694 116.878 116.729 116.919C117.754 118.121 118.931 119.5 121.313 120.121V102.568C121.313 101.786 121.313 100.668 122.698 99.7735H117.586C118.969 100.668 118.969 101.786 118.969 102.568V114.756L106.674 100.501ZM93.2869 102.568V107.479L81.7214 107.488V102.568C81.7214 101.653 81.7517 100.668 83.1059 99.7735H77.2726C78.6248 100.668 78.6551 101.645 78.6551 102.568V116.545C78.6551 117.462 78.6248 118.445 77.2726 119.342H83.1059C81.7517 118.445 81.7214 117.468 81.7214 116.545V109.725H93.295V116.545C93.295 117.462 93.2667 118.445 91.9145 119.342H97.7377C96.3834 118.445 96.3552 117.468 96.3552 116.545V102.568C96.3552 101.653 96.3855 100.668 97.7377 99.7735H91.9064C93.2586 100.668 93.2869 101.645 93.2869 102.568ZM67.4656 101.721C69.5987 101.743 71.6743 102.367 73.4181 103.51L73.4242 100.108C72.8574 100.038 72.2957 99.9361 71.7425 99.8017C70.4613 99.504 69.1459 99.3526 67.8253 99.3507C60.2194 99.3507 56.1325 104.32 56.1325 109.687C56.1325 114.019 58.9278 119.749 67.9466 119.749C69.9234 119.749 71.4272 119.582 73.2018 119.05L75.2453 115.307C74.3439 116.004 72.3287 117.374 68.1811 117.374C62.1093 117.374 59.5827 113.014 59.5827 108.934C59.5827 104.152 63.5262 101.721 67.4656 101.721ZM52.7712 102.568C52.7712 101.786 52.7712 100.668 54.1537 99.7735H48.3224C49.7029 100.668 49.7029 101.786 49.7029 102.568V116.545C49.7029 117.327 49.7029 118.445 48.3224 119.34H54.1537C52.7712 118.445 52.7712 117.327 52.7712 116.545V102.568ZM32.0069 99.717L32.0009 99.7172C30.679 99.7453 29.3551 99.7735 28.0332 99.7735C29.4157 100.668 29.4157 101.786 29.4157 102.568V116.541C29.4157 117.323 29.4157 118.441 28.0332 119.336H33.8584C32.4759 118.441 32.4759 117.323 32.4759 116.541V101.922C33.1372 101.773 33.8173 101.71 34.4971 101.734C38.194 101.734 38.7054 103.747 38.7054 105.004C38.7054 107.797 35.5179 108.951 33.3551 109.138C35.249 112.437 39.9383 119.507 43.3946 119.507C43.7261 119.507 44.5366 119.479 46.6428 119.34C43.6655 118.195 39.3077 113.134 36.961 109.697C40.2091 109.193 42.1617 107.041 42.1617 104.748C42.1617 103.211 41.4724 99.6608 34.6164 99.6608C33.7472 99.6608 32.8781 99.6888 32.0069 99.717Z" fill="url(#paint0_linear_368_2816)"/>
<defs>
<linearGradient id="paint0_linear_368_2816" x1="-79.3997" y1="-21.914" x2="458.203" y2="238.832" gradientUnits="userSpaceOnUse">
<stop stop-color="#DABE83"/>
<stop offset="1" stop-color="#C9792F"/>
</linearGradient>
</defs>
</svg>
