<svg width="179" height="188" viewBox="0 0 179 188" fill="none" xmlns="http://www.w3.org/2000/svg">
<path d="M3.46054 98.558L3.6242 101.308C4.43631 101.045 4.77399 100.289 4.72427 99.4492C4.68077 98.7353 4.40937 98.2145 4.02196 97.7184L4.99774 97C5.61718 97.55 5.94243 98.549 5.99008 99.3325C6.11646 101.449 5.02675 102.866 3.20157 102.992C1.54006 103.108 0.135442 101.99 0.0111399 99.9004C-0.0592981 98.7039 0.207951 97.871 0.709304 97.2694L1.71822 97.9451C1.45926 98.3088 1.23138 98.9598 1.27489 99.7164C1.33082 100.652 1.80109 101.281 2.64842 101.389L2.48476 98.6253L3.46054 98.558Z" fill="#7C4DC2"/>
<path d="M6.30918 103L7 108.78L5.57975 109L5.33187 106.927L1.19303 107.572L1 105.951L5.13885 105.307L4.88892 103.22L6.30918 103Z" fill="#7C4DC2"/>
<path d="M7.91174 112.787C8.31081 114.863 7.32138 116.505 5.65517 116.912C3.98897 117.321 2.48732 116.287 2.08826 114.213C1.68919 112.139 2.67864 110.495 4.34484 110.088C6.01104 109.679 7.51473 110.711 7.91174 112.787ZM3.40889 113.888C3.59814 114.877 4.36746 115.446 5.33016 115.212C6.26817 114.982 6.76803 114.088 6.58084 113.112C6.39982 112.165 5.63871 111.563 4.67602 111.8C3.75035 112.028 3.2217 112.915 3.40889 113.888Z" fill="#7C4DC2"/>
<path d="M7.75115 124.901L6.83179 122.541L4.53687 123.263L4 121.886L10.0069 120L10.5438 121.377L8.27419 122.091L9.19355 124.45L11.4631 123.737L12 125.114L5.99308 127L5.45622 125.623L7.75115 124.901Z" fill="#7C4DC2"/>
<path d="M9.85992 134C9.18889 133.679 8.64959 133.034 8.32436 132.307C7.57305 130.635 8.15352 129.031 9.78993 128.294C11.2987 127.615 12.9763 128.109 13.742 129.816C14.3431 131.154 13.8882 132.703 12.437 133.353C12.1138 133.498 11.908 133.563 11.6857 133.594L10.0019 129.847C9.26916 130.314 9.12302 131.127 9.49147 131.947C9.77553 132.581 10.2448 133.007 10.6215 133.199L9.85992 134ZM10.8706 129.404L12.015 131.951C12.6531 131.677 12.9537 131.016 12.6099 130.256C12.2538 129.46 11.6116 129.235 10.8706 129.404Z" fill="#7C4DC2"/>
<path d="M17.356 136L18.1097 137.205L16.9813 140.303L20.2689 140.657L21 141.826L15.6463 145L14.8131 143.667L18.0848 141.727L15.1218 141.371L15.0991 141.335L16.1049 138.564L12.8332 140.504L12 139.172L17.356 136Z" fill="#7C4DC2"/>
<path d="M20.8367 144C21.3504 144.239 21.997 144.74 22.4301 145.38C23.4031 146.821 23.0707 147.87 21.8842 148.819L19.1546 151L18.4234 149.918L18.9411 149.504C18.4274 149.515 17.8372 149.186 17.39 148.525C16.7897 147.636 16.8662 146.591 17.7324 145.899C18.7175 145.11 19.7207 145.527 20.3875 146.512C20.6796 146.946 20.8427 147.482 20.8448 147.848C21.6143 147.283 21.8761 146.74 21.3846 146.015C21.0039 145.452 20.603 145.222 20.2122 144.983L20.8367 144ZM19.6784 148.779L20.1377 148.413C20.1417 148.078 20.0208 147.741 19.7791 147.382C19.5011 146.97 19.072 146.744 18.6933 147.047C18.3549 147.318 18.371 147.772 18.6349 148.161C18.9854 148.683 19.3762 148.786 19.6784 148.779Z" fill="#7C4DC2"/>
<path d="M25.4705 148L28 151.055L26.9268 151.976L25.3605 150.083L21.9631 153L21 151.836L25.4705 148Z" fill="#7C4DC2"/>
<path d="M24 156.002L28.0891 152L29.1124 153.045L26.5231 155.579L30.9788 154.953L32 155.998L27.9109 160L26.8897 158.955L29.479 156.421L25.0233 157.047L24 156.002Z" fill="#7C4DC2"/>
<path d="M38 161.365L34.076 166L32.9158 164.975L34.0934 163.584L33.4481 163.013L31.3319 163.575L30 162.399L32.6051 161.819C32.3335 161.327 32.2162 160.468 32.8615 159.705C33.6198 158.808 34.8821 158.609 36.516 160.051L38 161.365ZM34.2303 162.175L34.8365 162.709L35.9707 161.371L35.4557 160.916C34.8908 160.417 34.3324 160.537 34.0348 160.885C33.711 161.267 33.8675 161.853 34.2303 162.175Z" fill="#7C4DC2"/>
<path d="M36.5931 166.244C37.1422 166.669 37.1214 167.415 36.6161 168.082C35.9542 168.953 34.9813 169.211 34 168.827L34.1044 168.029C34.428 168.132 34.7537 168.172 35.1379 167.964C35.378 167.84 35.5513 167.697 35.5889 167.565C35.4657 167.6 35.3425 167.506 35.2611 167.443C34.9959 167.239 34.9521 166.765 35.2402 166.387C35.568 165.958 36.0837 165.851 36.5931 166.244Z" fill="#7C4DC2"/>
<path d="M43.8867 168.425L46.2845 169.965C46.6019 169.064 46.1941 168.295 45.4643 167.826C44.8411 167.425 44.2272 167.355 43.5577 167.401L43.6063 166.074C44.4728 165.85 45.5223 166.165 46.2034 166.604C48.0498 167.788 48.5109 169.645 47.4104 171.383C46.4096 172.964 44.5516 173.554 42.7306 172.386C41.6881 171.716 41.1714 170.961 41 170.14L42.2279 169.638C42.3599 170.095 42.7515 170.704 43.4094 171.126C44.2249 171.649 45.0589 171.609 45.7076 170.905L43.2982 169.358L43.8867 168.425Z" fill="#7C4DC2"/>
<path d="M49.1345 169L54 171.62L53.2613 172.98L51.5156 172.04L49.3653 176L48 175.264L50.1502 171.304L48.3935 170.358L49.1345 169Z" fill="#7C4DC2"/>
<path d="M57.8593 172.311C59.7953 173.065 60.4599 174.7 59.6818 176.238C58.9037 177.775 57.0766 178.442 55.1407 177.69C53.2047 176.937 52.5401 175.301 53.3182 173.764C54.0939 172.224 55.9234 171.557 57.8593 172.311ZM55.7566 176.469C56.6783 176.829 57.6486 176.51 58.0979 175.62C58.5355 174.755 58.1465 173.894 57.2364 173.54C56.3541 173.197 55.363 173.493 54.9137 174.383C54.483 175.238 54.8466 176.116 55.7566 176.469Z" fill="#7C4DC2"/>
<path d="M64.6824 176L65.9891 176.413L67.2103 179.528L69.7318 177.593L71 177.992L69.3219 184L67.8764 183.544L68.9013 179.873L66.6039 181.588L66.5655 181.577L65.4702 178.791L64.4454 182.462L63 182.006L64.6824 176Z" fill="#7C4DC2"/>
<path d="M72.1696 178.229C72.6981 178.021 73.4838 177.915 74.1972 178.084C75.8047 178.46 76.2046 179.54 75.9113 181.193L75.2361 185L74.0284 184.716L74.157 183.992C73.7832 184.397 73.1442 184.593 72.4067 184.42C71.416 184.186 70.8292 183.31 71.0443 182.101C71.2894 180.726 72.2861 180.28 73.3853 180.539C73.8696 180.652 74.3197 180.945 74.5468 181.232C74.7679 180.199 74.6272 179.572 73.8174 179.383C73.1884 179.235 72.7503 179.364 72.3163 179.477L72.1696 178.229ZM74.2534 182.857L74.366 182.217C74.161 181.951 73.8636 181.78 73.4657 181.687C73.0075 181.579 72.5514 181.734 72.4589 182.261C72.3745 182.732 72.6659 183.077 73.102 183.178C73.6807 183.317 74.0364 183.095 74.2534 182.857Z" fill="#7C4DC2"/>
<path d="M79.0718 179L80.6436 179.187L80.5718 179.77C81.0046 179.41 81.767 179.169 82.5585 179.265C84.2514 179.467 85.1864 180.901 84.9689 182.703C84.7424 184.562 83.2849 185.843 81.3185 185.61C80.7714 185.545 80.2512 185.385 79.9194 185.14L79.5718 188L78 187.813L79.0718 179ZM80.4014 181.168L80.101 183.636C80.4911 183.958 80.8364 184.081 81.3566 184.143C82.4486 184.274 83.1728 183.562 83.2962 182.545C83.415 181.568 82.9262 180.796 81.888 180.671C81.3566 180.609 80.8342 180.794 80.4014 181.168Z" fill="#7C4DC2"/>
<path d="M86.2167 180L87.7599 180.052L87.5432 185.845L86 185.792L86.2167 180ZM89.5089 182.872L92 186L89.9861 185.931L87.7052 182.927L89.9861 180.13L91.9321 180.197L89.5089 182.872Z" fill="#7C4DC2"/>
<path d="M98.6147 185.195C98.0371 185.7 97.1945 185.963 96.354 185.997C94.4234 186.071 93.0792 184.927 93.0032 183.125C92.9315 181.461 94.0716 180.079 96.0435 180.003C97.5875 179.942 98.9253 180.945 98.9948 182.547C99.01 182.903 98.9926 183.119 98.9361 183.338L94.608 183.508C94.7774 184.366 95.518 184.809 96.4626 184.772C97.1945 184.743 97.796 184.465 98.1304 184.186L98.6147 185.195ZM94.5125 182.53L97.4551 182.414C97.4377 181.714 96.9078 181.188 96.0305 181.223C95.1119 181.26 94.6406 181.774 94.5125 182.53Z" fill="#7C4DC2"/>
<path d="M99 179.596L104.812 179L105 180.436L102.916 180.65L103.467 184.834L101.837 185L101.286 180.816L99.1884 181.031L99 179.596Z" fill="#7C4DC2"/>
<path d="M107.184 185L106 179.142L107.52 178.844L108.269 182.553L110.296 178.299L111.816 178L113 183.858L111.48 184.156L110.731 180.447L108.704 184.701L107.184 185Z" fill="#7C4DC2"/>
<path d="M118.927 179.791L116.462 180.496L117.095 182.589L115.656 183L114 177.527L115.439 177.116L116.064 179.184L118.53 178.479L117.905 176.411L119.344 176L121 181.473L119.561 181.884L118.927 179.791Z" fill="#7C4DC2"/>
<path d="M121 175.413L124.524 174L125 175.341L122.817 176.215L124.319 180.461L122.978 181L121 175.413Z" fill="#7C4DC2"/>
<path d="M37.7527 36.9366C37.4413 35.7883 37.0521 34.9271 36.585 34.3509C36.118 33.7767 35.612 33.3722 35.065 33.1374C34.5201 32.9025 33.9082 32.7851 33.2335 32.7851H33V32H55.8271V32.7851H53.801C52.242 32.7851 51.0744 33.0069 50.296 33.4505C49.5176 33.8942 49.1284 34.7706 49.1284 36.0754C49.1284 36.4951 49.1932 37.0149 49.323 37.6434C49.4527 38.2697 49.5954 38.8721 49.7511 39.4462L53.6475 53.0011C54.0626 54.3603 54.5297 55.9913 55.0486 57.8985C55.5676 59.8057 56.0865 61.6738 56.6076 63.5006C57.1266 65.3295 57.5417 66.8452 57.8553 68.0457H58.0109C58.1666 67.4194 58.3093 66.8692 58.4391 66.3994C58.5688 65.9297 58.6985 65.46 58.8283 64.9902C58.958 64.5205 59.1007 64.0247 59.2564 63.5006L67.9033 32.3936H72.8895L80.5245 55.5085C80.8358 56.448 81.1472 57.4027 81.4586 58.3682C81.7699 59.336 82.0813 60.3277 82.3927 61.3454C82.704 62.3632 83.0024 63.3701 83.2878 64.3617C83.5733 65.3534 83.8457 66.3211 84.1052 67.2606H84.3387C84.5463 66.3733 84.8317 65.2512 85.195 63.892C85.5582 62.535 85.9604 61.0845 86.4015 59.5448C86.8426 58.0051 87.2448 56.5806 87.6081 55.2737L91.738 40.5422C91.9456 39.8637 92.1142 39.1461 92.2439 38.3871C92.3737 37.6303 92.4386 37.0431 92.4386 36.6234C92.4386 35.2642 92.0104 34.2856 91.1542 33.6854C90.2979 33.0852 89.0114 32.7851 87.2967 32.7851H84.6522V32H100V32.7851H98.6745C97.7404 32.7851 96.9339 32.9416 96.2593 33.2548C95.5825 33.568 94.9857 34.1682 94.4668 35.0576C93.9478 35.9471 93.4548 37.2519 92.9856 38.9764L83.1689 74H75.8453L65.7973 42.9692L57.1504 73.9978H48.737L37.7527 36.9366Z" fill="#7C4DC2"/>
<path d="M60.1198 141C56.6082 141 53.6574 140.232 51.2742 138.701C48.8887 137.17 47.0795 134.793 45.8486 131.571C44.6155 128.35 44 124.22 44 119.18C44 114.143 44.6155 110.039 45.8486 106.868C47.0795 103.7 48.8626 101.349 51.1956 99.8156C53.5287 98.2844 56.3724 97.5166 59.7269 97.5166C62.8718 97.5166 65.4668 98.3882 67.5118 100.127C69.5568 101.868 70.8663 104.556 71.4424 108.192H71.5996C71.5996 106.116 71.5865 104.178 71.5603 102.387C71.5341 100.594 71.521 99.011 71.521 97.6334C71.521 96.2579 71.521 95.1528 71.521 94.3223V86.5322C71.521 85.1286 71.2067 84.0905 70.5782 83.4157C69.9496 82.741 69.201 82.2998 68.3368 82.09C67.4725 81.8824 66.6715 81.7786 65.9382 81.7786H64.9954V81H83.4744V134.378C83.4744 135.833 83.7756 136.923 84.3779 137.65C84.9803 138.379 85.7267 138.859 86.6194 139.093C87.5098 139.326 88.3217 139.443 89.0572 139.443H90V140.221H71.5996V129.546H71.4424C70.9186 133.495 69.6332 136.391 67.5904 138.234C65.5454 140.079 63.0552 141 60.1198 141ZM63.4218 139.054C66.0954 139.054 68.1142 137.289 69.476 133.755C70.8379 130.223 71.521 125.002 71.521 118.093C71.521 113.99 71.2067 110.56 70.5782 107.807C69.9496 105.054 69.0308 102.975 67.8261 101.572C66.6192 100.168 65.1002 99.4674 63.2647 99.4674C61.6911 99.4674 60.3664 100.168 59.2926 101.572C58.2166 102.975 57.4179 105.054 56.8941 107.807C56.3703 110.56 56.1084 113.99 56.1084 118.093C56.1084 122.716 56.3834 126.586 56.9333 129.702C57.4833 132.818 58.3105 135.156 59.4105 136.716C60.5126 138.273 61.8505 139.054 63.4218 139.054Z" fill="#7C4DC2"/>
<path d="M110.012 142C105.44 142 102.036 140.794 99.8041 138.378C97.5701 135.963 96.4542 132.106 96.4542 126.801V105.382C96.4542 103.756 96.2596 102.547 95.8703 101.758C95.481 100.971 94.9079 100.447 94.1553 100.185C93.4005 99.9223 92.4273 99.7912 91.2336 99.7912H91V99.0022H108.299V129.4C108.299 131.658 108.494 133.548 108.883 135.069C109.272 136.593 109.895 137.734 110.754 138.494C111.61 139.257 112.741 139.635 114.143 139.635C116.013 139.635 117.466 139.006 118.507 137.745C119.545 136.483 120.271 134.726 120.689 132.468C121.104 130.211 121.312 127.614 121.312 124.672V104.906C121.312 103.384 121.013 102.268 120.416 101.559C119.819 100.851 119.093 100.377 118.234 100.143C117.376 99.907 116.558 99.789 115.78 99.789H115.468V99H133.157V135.618C133.157 136.984 133.468 138.02 134.091 138.728C134.714 139.436 135.455 139.897 136.312 140.107C137.168 140.317 137.96 140.422 138.689 140.422H139V141.209H121.312V133.806H121.156C120.689 135.539 120.064 136.956 119.285 138.059C118.507 139.161 117.622 139.989 116.636 140.54C115.65 141.091 114.584 141.471 113.442 141.681C112.298 141.895 111.154 142 110.012 142Z" fill="#7C4DC2"/>
<path d="M112.813 91C105.979 91 100.803 89.0993 97.282 85.2935C93.7614 81.49 92 76.1768 92 69.3539C92 61.9543 93.7067 56.3789 97.1244 52.6278C100.54 48.8767 105.349 47 111.552 47C117.281 47 121.788 48.6014 125.072 51.802C128.357 55.0026 130 60.0667 130 66.2647C130 67.1452 129.284 67.8596 128.403 67.8596H106.052C104.995 67.8596 104.139 68.7269 104.157 69.7821C104.233 74.2083 104.584 77.8568 105.205 80.7297C105.914 84.0111 107.045 86.3968 108.594 87.8933C110.143 89.3899 112.154 90.137 114.625 90.137C116.465 90.137 118.178 89.8224 119.631 88.9551C123.344 86.7398 121.215 82.9428 121.215 80.603C121.215 78.486 122.58 76.0697 125.541 76.0697C128.519 76.0697 129.996 78.0775 129.996 80.603C129.996 86.1893 123.729 88.7716 121.443 89.6629C119.16 90.5543 116.283 91 112.813 91ZM116.112 67.0731C117.165 67.0731 118.018 66.2101 118.005 65.1593C117.961 61.2749 117.78 58.1202 117.465 55.6995C117.097 52.8922 116.441 50.8713 115.493 49.6391C114.548 48.407 113.233 47.7887 111.55 47.7887C109.868 47.7887 108.476 48.407 107.371 49.6391C106.266 50.8735 105.465 52.8943 104.966 55.6995C104.535 58.1158 104.271 61.2618 104.174 65.1353C104.148 66.197 105.004 67.0731 106.067 67.0731H116.112Z" fill="#7C4DC2"/>
<path d="M159 19.54H151.455C144.83 19.54 139.459 14.1692 139.459 7.54457V0H138.541V7.54457C138.541 14.1692 133.17 19.54 126.545 19.54H119V20.4578H126.545C133.17 20.4578 138.541 25.8286 138.541 32.4533V40H139.459V32.4533C139.459 25.8286 144.83 20.4578 151.455 20.4578H159V19.54Z" fill="#7C4DC2"/>
<path d="M143.825 165L143 163.874C153.503 156.033 162.209 145.711 168.181 134.023C174.438 121.771 177.611 108.521 177.611 94.639C177.611 69.9376 167.074 46.3971 148.699 30.0525L149.617 29C168.29 45.6094 179 69.534 179 94.639C179 108.746 175.776 122.214 169.415 134.665C163.346 146.544 154.498 157.034 143.825 165Z" fill="#7C4DC2"/>
</svg>
