<svg width="393" height="36" viewBox="0 0 393 36" fill="none" xmlns="http://www.w3.org/2000/svg">
<mask id="path-1-outside-1_772_3095" maskUnits="userSpaceOnUse" x="0" y="0" width="393" height="36" fill="black">
<rect fill="white" width="393" height="36"/>
<path d="M29.9904 21.0862V35H22.8362V28.2H2C2.17583 23.6899 2.26375 19.4704 2.26375 15.5415C2.26375 11.6126 2.17583 7.39316 2 2.88308H9.74763V21.1559H20.891V2.88308H28.6387C28.4848 6.85846 28.4079 11.1012 28.4079 15.6113C28.4079 18.0523 28.4189 19.8773 28.4409 21.0862H29.9904ZM52.1106 15.6113C57.1218 15.6113 59.6274 17.2968 59.6274 20.6677C59.6274 22.2485 59.2867 23.5969 58.6054 24.7128C57.924 25.8055 56.7042 26.6656 54.9459 27.2933C53.1875 27.8978 50.7478 28.2 47.6268 28.2H32.7909C32.9668 23.6899 33.0547 19.4704 33.0547 15.5415C33.0547 11.6126 32.9668 7.39316 32.7909 2.88308H40.5386V2.91795H47.5609C50.2863 2.91795 52.4293 3.16205 53.9898 3.65026C55.5723 4.11521 56.6822 4.80103 57.3196 5.70769C57.979 6.61436 58.3087 7.76513 58.3087 9.16C58.3087 10.5781 57.8361 11.8451 56.891 12.961C55.9679 14.0537 54.3744 14.9371 52.1106 15.6113ZM40.5386 9.26461V12.5077H46.8685C48.2312 12.5077 49.1763 12.3798 49.7038 12.1241C50.2533 11.8684 50.5281 11.4034 50.5281 10.7292C50.5281 10.1945 50.2423 9.82256 49.6709 9.61333C49.1214 9.38085 48.1873 9.26461 46.8685 9.26461H40.5386ZM46.8685 21.8185C48.0115 21.8185 48.8796 21.772 49.4731 21.679C50.0885 21.5627 50.5281 21.3768 50.7918 21.121C51.0556 20.8421 51.1874 20.4701 51.1874 20.0051C51.1874 19.4007 50.8687 18.9706 50.2313 18.7149C49.6159 18.4359 48.495 18.2964 46.8685 18.2964H40.5386V21.8185H46.8685ZM70.5253 21.8185C78.8774 21.772 84.9326 21.6441 88.6911 21.4349C88.5372 22.388 88.4383 23.3761 88.3944 24.399C88.3724 25.3986 88.3614 26.6656 88.3614 28.2H62.7447C62.9206 23.6899 63.0085 19.4704 63.0085 15.5415C63.0085 11.6126 62.9206 7.39316 62.7447 2.88308H88.3614V9.19487H70.5253V12.5426C71.5803 12.5658 73.1409 12.5774 75.2069 12.5774C78.7016 12.5774 82.3171 12.5077 86.0536 12.3682V18.3662C82.3171 18.2267 78.7016 18.1569 75.2069 18.1569C73.1409 18.1569 71.5803 18.1685 70.5253 18.1918V21.8185ZM120.149 10.2062C116.699 10.0899 113.347 10.0202 110.094 9.99692V28.2H101.852V9.99692C98.5769 10.0202 95.236 10.0899 91.8293 10.2062V2.88308H120.149V10.2062ZM144.1 28.2C143.682 26.8749 143.121 25.2126 142.418 23.2133H131.901L130.253 28.2H121.978L131.209 2.88308H143.341L152.638 28.2H144.1ZM140.539 17.7733C139.704 15.3323 138.847 12.8913 137.967 10.4503L137.176 8.18359C136.407 10.2991 135.275 13.4957 133.78 17.7733H140.539ZM170.064 2.91795L169.504 22.481L177.515 2.91795H189.648C189.494 6.84684 189.417 11.0547 189.417 15.5415C189.417 20.0516 189.494 24.2711 189.648 28.2H181.175L181.768 9.16L173.79 28.2H161.987C162.163 23.6899 162.251 19.4704 162.251 15.5415C162.251 11.6359 162.163 7.42803 161.987 2.91795H170.064ZM229.808 2.88308C229.654 6.81197 229.577 11.0315 229.577 15.5415C229.577 20.0516 229.654 24.2711 229.808 28.2H199.872C200.048 23.6899 200.136 19.4704 200.136 15.5415C200.136 11.6126 200.048 7.39316 199.872 2.88308H207.62V21.1559H211.444V2.88308H218.599V21.1559H222.06V2.88308H229.808ZM247.917 2.91795C252.291 2.91795 255.335 3.74325 257.049 5.39385C258.764 7.0212 259.621 9.32273 259.621 12.2985C259.621 14.3443 259.28 16.0879 258.599 17.5292C257.918 18.9473 256.72 20.0632 255.005 20.8769C253.291 21.6674 250.928 22.0626 247.917 22.0626H241.06V28.2H232.949C233.125 23.6899 233.213 19.4704 233.213 15.5415C233.213 11.6126 233.125 7.39316 232.949 2.88308H241.06V2.91795H247.917ZM245.609 15.3323C247.434 15.3323 248.796 15.2626 249.697 15.1231C250.62 14.9603 251.258 14.6814 251.61 14.2862C251.983 13.8909 252.17 13.3097 252.17 12.5426C252.17 11.7754 251.994 11.2058 251.643 10.8338C251.313 10.4386 250.686 10.1713 249.763 10.0318C248.862 9.89231 247.477 9.82256 245.609 9.82256H241.06V15.3323H245.609ZM270.819 2.91795L270.259 22.481L278.27 2.91795H290.403C290.249 6.84684 290.172 11.0547 290.172 15.5415C290.172 20.0516 290.249 24.2711 290.403 28.2H281.93L282.523 9.16L274.545 28.2H262.742C262.918 23.6899 263.006 19.4704 263.006 15.5415C263.006 11.6359 262.918 7.42803 262.742 2.91795H270.819ZM322.908 14.6349C322.908 20.7258 319.271 24.213 311.996 25.0964L312.061 28.2H304.281L304.314 25.0615C300.621 24.5966 297.896 23.4691 296.138 21.679C294.401 19.8889 293.533 17.5409 293.533 14.6349C293.533 11.7521 294.401 9.41573 296.138 7.62564C297.874 5.81231 300.599 4.67316 304.314 4.20821L304.281 1H312.061C312.039 1.67419 312.028 2.74359 312.028 4.20821C315.765 4.67316 318.512 5.81231 320.271 7.62564C322.029 9.41573 322.908 11.7521 322.908 14.6349ZM311.996 18.1569C313.072 17.8779 313.853 17.4479 314.336 16.8667C314.842 16.2855 315.095 15.5415 315.095 14.6349C315.095 12.868 314.084 11.7173 312.061 11.1826L312.028 14.2513C312.006 15.1115 311.996 16.4133 311.996 18.1569ZM301.347 14.6349C301.347 15.5183 301.588 16.2506 302.072 16.8318C302.555 17.413 303.325 17.8431 304.38 18.1221V11.1826C302.358 11.7173 301.347 12.868 301.347 14.6349ZM352.708 10.2062C349.258 10.0899 345.906 10.0202 342.653 9.99692V28.2H334.411V9.99692C331.136 10.0202 327.795 10.0899 324.388 10.2062V2.88308H352.708V10.2062ZM390.967 14.2513C390.945 15.6462 390.934 17.785 390.934 20.6677C390.934 24.1316 390.956 26.6424 391 28.2H383.219L383.252 24.2595C383.296 19.9354 383.318 16.5993 383.318 14.2513C383.318 12.0195 383.296 8.85778 383.252 4.76615L383.219 1H391C390.978 1.74393 390.967 2.90632 390.967 4.48718V14.2513ZM369.834 9.02051C372.845 9.02051 375.208 9.42735 376.922 10.241C378.637 11.0315 379.835 12.1473 380.516 13.5887C381.197 15.0068 381.538 16.7388 381.538 18.7846C381.538 21.7603 380.681 24.0735 378.966 25.7241C377.252 27.3515 374.208 28.1651 369.834 28.1651H363.966V28.2H355.855C356.031 23.6899 356.119 19.4704 356.119 15.5415C356.119 11.6126 356.031 7.39316 355.855 2.88308H363.966V9.02051H369.834ZM368.515 21.2605C370.054 21.2605 371.208 21.1908 371.977 21.0513C372.768 20.8885 373.318 20.6212 373.625 20.2492C373.933 19.8773 374.087 19.3077 374.087 18.5405C374.087 17.7733 373.922 17.1921 373.593 16.7969C373.263 16.4017 372.702 16.1344 371.911 15.9949C371.142 15.8321 370.01 15.7508 368.515 15.7508H363.966V21.2605H368.515Z"/>
</mask>
<path d="M29.9904 21.0862V35H22.8362V28.2H2C2.17583 23.6899 2.26375 19.4704 2.26375 15.5415C2.26375 11.6126 2.17583 7.39316 2 2.88308H9.74763V21.1559H20.891V2.88308H28.6387C28.4848 6.85846 28.4079 11.1012 28.4079 15.6113C28.4079 18.0523 28.4189 19.8773 28.4409 21.0862H29.9904ZM52.1106 15.6113C57.1218 15.6113 59.6274 17.2968 59.6274 20.6677C59.6274 22.2485 59.2867 23.5969 58.6054 24.7128C57.924 25.8055 56.7042 26.6656 54.9459 27.2933C53.1875 27.8978 50.7478 28.2 47.6268 28.2H32.7909C32.9668 23.6899 33.0547 19.4704 33.0547 15.5415C33.0547 11.6126 32.9668 7.39316 32.7909 2.88308H40.5386V2.91795H47.5609C50.2863 2.91795 52.4293 3.16205 53.9898 3.65026C55.5723 4.11521 56.6822 4.80103 57.3196 5.70769C57.979 6.61436 58.3087 7.76513 58.3087 9.16C58.3087 10.5781 57.8361 11.8451 56.891 12.961C55.9679 14.0537 54.3744 14.9371 52.1106 15.6113ZM40.5386 9.26461V12.5077H46.8685C48.2312 12.5077 49.1763 12.3798 49.7038 12.1241C50.2533 11.8684 50.5281 11.4034 50.5281 10.7292C50.5281 10.1945 50.2423 9.82256 49.6709 9.61333C49.1214 9.38085 48.1873 9.26461 46.8685 9.26461H40.5386ZM46.8685 21.8185C48.0115 21.8185 48.8796 21.772 49.4731 21.679C50.0885 21.5627 50.5281 21.3768 50.7918 21.121C51.0556 20.8421 51.1874 20.4701 51.1874 20.0051C51.1874 19.4007 50.8687 18.9706 50.2313 18.7149C49.6159 18.4359 48.495 18.2964 46.8685 18.2964H40.5386V21.8185H46.8685ZM70.5253 21.8185C78.8774 21.772 84.9326 21.6441 88.6911 21.4349C88.5372 22.388 88.4383 23.3761 88.3944 24.399C88.3724 25.3986 88.3614 26.6656 88.3614 28.2H62.7447C62.9206 23.6899 63.0085 19.4704 63.0085 15.5415C63.0085 11.6126 62.9206 7.39316 62.7447 2.88308H88.3614V9.19487H70.5253V12.5426C71.5803 12.5658 73.1409 12.5774 75.2069 12.5774C78.7016 12.5774 82.3171 12.5077 86.0536 12.3682V18.3662C82.3171 18.2267 78.7016 18.1569 75.2069 18.1569C73.1409 18.1569 71.5803 18.1685 70.5253 18.1918V21.8185ZM120.149 10.2062C116.699 10.0899 113.347 10.0202 110.094 9.99692V28.2H101.852V9.99692C98.5769 10.0202 95.236 10.0899 91.8293 10.2062V2.88308H120.149V10.2062ZM144.1 28.2C143.682 26.8749 143.121 25.2126 142.418 23.2133H131.901L130.253 28.2H121.978L131.209 2.88308H143.341L152.638 28.2H144.1ZM140.539 17.7733C139.704 15.3323 138.847 12.8913 137.967 10.4503L137.176 8.18359C136.407 10.2991 135.275 13.4957 133.78 17.7733H140.539ZM170.064 2.91795L169.504 22.481L177.515 2.91795H189.648C189.494 6.84684 189.417 11.0547 189.417 15.5415C189.417 20.0516 189.494 24.2711 189.648 28.2H181.175L181.768 9.16L173.79 28.2H161.987C162.163 23.6899 162.251 19.4704 162.251 15.5415C162.251 11.6359 162.163 7.42803 161.987 2.91795H170.064ZM229.808 2.88308C229.654 6.81197 229.577 11.0315 229.577 15.5415C229.577 20.0516 229.654 24.2711 229.808 28.2H199.872C200.048 23.6899 200.136 19.4704 200.136 15.5415C200.136 11.6126 200.048 7.39316 199.872 2.88308H207.62V21.1559H211.444V2.88308H218.599V21.1559H222.06V2.88308H229.808ZM247.917 2.91795C252.291 2.91795 255.335 3.74325 257.049 5.39385C258.764 7.0212 259.621 9.32273 259.621 12.2985C259.621 14.3443 259.28 16.0879 258.599 17.5292C257.918 18.9473 256.72 20.0632 255.005 20.8769C253.291 21.6674 250.928 22.0626 247.917 22.0626H241.06V28.2H232.949C233.125 23.6899 233.213 19.4704 233.213 15.5415C233.213 11.6126 233.125 7.39316 232.949 2.88308H241.06V2.91795H247.917ZM245.609 15.3323C247.434 15.3323 248.796 15.2626 249.697 15.1231C250.62 14.9603 251.258 14.6814 251.61 14.2862C251.983 13.8909 252.17 13.3097 252.17 12.5426C252.17 11.7754 251.994 11.2058 251.643 10.8338C251.313 10.4386 250.686 10.1713 249.763 10.0318C248.862 9.89231 247.477 9.82256 245.609 9.82256H241.06V15.3323H245.609ZM270.819 2.91795L270.259 22.481L278.27 2.91795H290.403C290.249 6.84684 290.172 11.0547 290.172 15.5415C290.172 20.0516 290.249 24.2711 290.403 28.2H281.93L282.523 9.16L274.545 28.2H262.742C262.918 23.6899 263.006 19.4704 263.006 15.5415C263.006 11.6359 262.918 7.42803 262.742 2.91795H270.819ZM322.908 14.6349C322.908 20.7258 319.271 24.213 311.996 25.0964L312.061 28.2H304.281L304.314 25.0615C300.621 24.5966 297.896 23.4691 296.138 21.679C294.401 19.8889 293.533 17.5409 293.533 14.6349C293.533 11.7521 294.401 9.41573 296.138 7.62564C297.874 5.81231 300.599 4.67316 304.314 4.20821L304.281 1H312.061C312.039 1.67419 312.028 2.74359 312.028 4.20821C315.765 4.67316 318.512 5.81231 320.271 7.62564C322.029 9.41573 322.908 11.7521 322.908 14.6349ZM311.996 18.1569C313.072 17.8779 313.853 17.4479 314.336 16.8667C314.842 16.2855 315.095 15.5415 315.095 14.6349C315.095 12.868 314.084 11.7173 312.061 11.1826L312.028 14.2513C312.006 15.1115 311.996 16.4133 311.996 18.1569ZM301.347 14.6349C301.347 15.5183 301.588 16.2506 302.072 16.8318C302.555 17.413 303.325 17.8431 304.38 18.1221V11.1826C302.358 11.7173 301.347 12.868 301.347 14.6349ZM352.708 10.2062C349.258 10.0899 345.906 10.0202 342.653 9.99692V28.2H334.411V9.99692C331.136 10.0202 327.795 10.0899 324.388 10.2062V2.88308H352.708V10.2062ZM390.967 14.2513C390.945 15.6462 390.934 17.785 390.934 20.6677C390.934 24.1316 390.956 26.6424 391 28.2H383.219L383.252 24.2595C383.296 19.9354 383.318 16.5993 383.318 14.2513C383.318 12.0195 383.296 8.85778 383.252 4.76615L383.219 1H391C390.978 1.74393 390.967 2.90632 390.967 4.48718V14.2513ZM369.834 9.02051C372.845 9.02051 375.208 9.42735 376.922 10.241C378.637 11.0315 379.835 12.1473 380.516 13.5887C381.197 15.0068 381.538 16.7388 381.538 18.7846C381.538 21.7603 380.681 24.0735 378.966 25.7241C377.252 27.3515 374.208 28.1651 369.834 28.1651H363.966V28.2H355.855C356.031 23.6899 356.119 19.4704 356.119 15.5415C356.119 11.6126 356.031 7.39316 355.855 2.88308H363.966V9.02051H369.834ZM368.515 21.2605C370.054 21.2605 371.208 21.1908 371.977 21.0513C372.768 20.8885 373.318 20.6212 373.625 20.2492C373.933 19.8773 374.087 19.3077 374.087 18.5405C374.087 17.7733 373.922 17.1921 373.593 16.7969C373.263 16.4017 372.702 16.1344 371.911 15.9949C371.142 15.8321 370.01 15.7508 368.515 15.7508H363.966V21.2605H368.515Z" stroke="#F0F0F0" stroke-width="2" mask="url(#path-1-outside-1_772_3095)"/>
</svg>
