<svg width="590" height="212" viewBox="0 0 590 212" fill="none" xmlns="http://www.w3.org/2000/svg">
<path d="M186.148 212C182.634 200.904 177.918 186.984 172 170.242H83.5032L69.6323 212H0L77.6774 0H179.768L258 212H186.148ZM156.187 124.689C149.159 104.248 141.946 83.8072 134.548 63.3664L127.89 44.3857C121.417 62.101 111.892 88.8687 99.3161 124.689H156.187Z" fill="#F2B94B"/>
<path d="M290.76 1.674C293.016 1.674 294.798 1.95 296.106 2.502C297.414 3.042 298.326 3.798 298.842 4.77C299.37 5.73 299.634 6.912 299.634 8.316C299.634 9.648 299.334 10.812 298.734 11.808C298.134 12.804 297.234 13.578 296.034 14.13C294.834 14.67 293.358 14.94 291.606 14.94C290.538 14.94 289.452 14.94 288.348 14.94C287.244 14.94 286.128 14.934 285 14.922C285.096 12.558 285.144 10.356 285.144 8.316C285.144 6.252 285.096 4.098 285 1.854C286.428 1.734 288.348 1.674 290.76 1.674ZM292.11 11.358C293.226 11.358 293.97 11.088 294.342 10.548C294.714 10.008 294.9 9.264 294.9 8.316C294.9 7.404 294.702 6.666 294.306 6.102C293.922 5.538 293.19 5.256 292.11 5.256C290.946 5.256 290.076 5.292 289.5 5.364V11.358H292.11Z" fill="#F5F5F5"/>
<path d="M304.72 10.44C304.816 10.968 305.05 11.4 305.422 11.736C305.806 12.06 306.346 12.222 307.042 12.222C307.546 12.222 308.02 12.126 308.464 11.934C308.908 11.73 309.262 11.448 309.526 11.088C310.33 11.484 311.398 11.91 312.73 12.366C312.358 13.206 311.68 13.878 310.696 14.382C309.724 14.874 308.452 15.12 306.88 15.12C304.84 15.12 303.328 14.652 302.344 13.716C301.372 12.768 300.886 11.526 300.886 9.99C300.886 8.49 301.372 7.272 302.344 6.336C303.316 5.4 304.828 4.932 306.88 4.932C308.104 4.932 309.166 5.136 310.066 5.544C310.966 5.952 311.656 6.522 312.136 7.254C312.616 7.974 312.856 8.802 312.856 9.738C312.856 10.05 312.844 10.284 312.82 10.44H304.72ZM307.132 7.65C306.532 7.65 306.04 7.764 305.656 7.992C305.272 8.22 305.002 8.532 304.846 8.928H309.094C308.95 8.544 308.716 8.238 308.392 8.01C308.068 7.77 307.648 7.65 307.132 7.65Z" fill="#F5F5F5"/>
<path d="M318.339 7.74C318.327 8.46 318.321 9.564 318.321 11.052C318.321 12.84 318.333 14.136 318.357 14.94H314.109L314.127 12.906C314.151 10.674 314.163 8.952 314.163 7.74C314.163 6.588 314.151 4.956 314.127 2.844L314.109 0.9H318.357C318.333 2.604 318.321 3.996 318.321 5.076C318.321 6.276 318.327 7.164 318.339 7.74Z" fill="#F5F5F5"/>
<path d="M331.343 11.952C331.343 12.36 331.391 12.648 331.487 12.816C331.583 12.984 331.775 13.104 332.063 13.176L331.991 14.868C331.607 14.928 331.271 14.97 330.983 14.994C330.707 15.018 330.335 15.03 329.867 15.03C328.835 15.03 328.151 14.802 327.815 14.346C327.479 13.878 327.311 13.284 327.311 12.564V12.114C326.963 13.098 326.453 13.83 325.781 14.31C325.121 14.79 324.275 15.03 323.243 15.03C322.043 15.03 321.137 14.79 320.525 14.31C319.925 13.83 319.625 13.116 319.625 12.168C319.625 11.388 319.883 10.776 320.399 10.332C320.915 9.888 321.713 9.582 322.793 9.414C321.881 8.766 320.969 8.202 320.057 7.722C320.777 6.81 321.599 6.12 322.523 5.652C323.447 5.172 324.569 4.932 325.889 4.932C327.737 4.932 329.105 5.334 329.993 6.138C330.893 6.93 331.343 8.154 331.343 9.81V11.952ZM326.267 8.1C325.655 8.1 325.115 8.202 324.647 8.406C324.179 8.61 323.759 8.916 323.387 9.324C324.107 9.24 325.007 9.198 326.087 9.198C326.531 9.198 326.843 9.144 327.023 9.036C327.203 8.928 327.293 8.79 327.293 8.622C327.293 8.478 327.203 8.358 327.023 8.262C326.843 8.154 326.591 8.1 326.267 8.1ZM324.377 12.096C325.049 12.096 325.655 11.97 326.195 11.718C326.735 11.454 327.107 11.112 327.311 10.692V10.224C327.023 10.368 326.705 10.482 326.357 10.566C326.009 10.638 325.589 10.71 325.097 10.782L324.449 10.89C323.777 11.022 323.441 11.25 323.441 11.574C323.441 11.922 323.753 12.096 324.377 12.096Z" fill="#F5F5F5"/>
<path d="M344.166 7.488H351.852V14.94H348.684L348.306 11.754C347.946 12.894 347.304 13.74 346.38 14.292C345.456 14.844 344.328 15.12 342.996 15.12C341.784 15.12 340.704 14.85 339.756 14.31C338.82 13.77 338.082 12.996 337.542 11.988C337.014 10.98 336.75 9.804 336.75 8.46C336.75 6.312 337.392 4.614 338.676 3.366C339.96 2.118 341.958 1.494 344.67 1.494C346.218 1.494 347.58 1.746 348.756 2.25C349.944 2.754 350.952 3.534 351.78 4.59C351.24 4.866 350.184 5.418 348.612 6.246L348.162 6.498C347.694 6.03 347.148 5.682 346.524 5.454C345.9 5.214 345.24 5.094 344.544 5.094C343.392 5.094 342.534 5.4 341.97 6.012C341.406 6.612 341.124 7.356 341.124 8.244C341.124 9.204 341.424 9.978 342.024 10.566C342.636 11.154 343.566 11.448 344.814 11.448C345.354 11.448 345.876 11.37 346.38 11.214C346.896 11.058 347.328 10.788 347.676 10.404H344.166V7.488Z" fill="#F5F5F5"/>
<path d="M359.087 15.12C357.035 15.12 355.523 14.652 354.551 13.716C353.591 12.768 353.111 11.526 353.111 9.99C353.111 8.49 353.591 7.272 354.551 6.336C355.523 5.4 357.035 4.932 359.087 4.932C360.467 4.932 361.619 5.16 362.543 5.616C363.479 6.06 364.169 6.666 364.613 7.434C365.057 8.19 365.279 9.042 365.279 9.99C365.279 11.538 364.763 12.78 363.731 13.716C362.711 14.652 361.163 15.12 359.087 15.12ZM359.159 12.06C359.939 12.06 360.521 11.874 360.905 11.502C361.289 11.13 361.481 10.632 361.481 10.008C361.481 9.42 361.289 8.94 360.905 8.568C360.521 8.184 359.939 7.992 359.159 7.992C358.379 7.992 357.809 8.178 357.449 8.55C357.089 8.922 356.909 9.408 356.909 10.008C356.909 10.632 357.089 11.13 357.449 11.502C357.809 11.874 358.379 12.06 359.159 12.06Z" fill="#F5F5F5"/>
<path d="M374.699 8.334C373.595 8.262 372.587 8.208 371.675 8.172L371.657 10.08C371.657 10.728 371.795 11.238 372.071 11.61C372.359 11.97 372.863 12.15 373.583 12.15C373.859 12.15 374.123 12.126 374.375 12.078C374.327 12.522 374.303 12.972 374.303 13.428C374.303 13.644 374.315 14.136 374.339 14.904C373.811 15 373.367 15.06 373.007 15.084C372.647 15.108 372.179 15.12 371.603 15.12C370.199 15.12 369.203 14.784 368.615 14.112C368.039 13.428 367.751 12.48 367.751 11.268L367.769 8.226C367.205 8.25 366.617 8.286 366.005 8.334V5.148C366.629 5.148 367.157 4.95 367.589 4.554C368.021 4.158 368.279 3.684 368.363 3.132H373.259C372.647 3.972 371.969 4.644 371.225 5.148H374.699V8.334Z" fill="#F5F5F5"/>
<path d="M382.793 14.94C382.865 13.176 382.901 11.55 382.901 10.062C382.901 9.534 382.769 9.114 382.505 8.802C382.253 8.49 381.929 8.334 381.533 8.334C381.113 8.334 380.753 8.538 380.453 8.946C380.165 9.354 380.021 9.912 380.021 10.62L380.003 10.584C380.003 12.54 380.027 13.992 380.075 14.94H375.773C375.869 13.212 375.917 10.872 375.917 7.92C375.917 4.968 375.869 2.628 375.773 0.9H380.057L380.075 6.444L380.057 7.398C380.345 6.558 380.771 5.94 381.335 5.544C381.911 5.136 382.559 4.932 383.279 4.932C383.999 4.932 384.623 5.094 385.151 5.418C385.679 5.73 386.075 6.156 386.339 6.696C386.615 7.236 386.753 7.842 386.753 8.514V11.106C386.753 12.702 386.783 13.98 386.843 14.94H382.793Z" fill="#F5F5F5"/>
<path d="M390.701 4.05C389.945 4.05 389.381 3.864 389.009 3.492C388.649 3.12 388.469 2.634 388.469 2.034C388.469 1.446 388.649 0.96 389.009 0.576C389.381 0.192 389.945 0 390.701 0C391.421 0 391.973 0.198 392.357 0.594C392.741 0.978 392.933 1.458 392.933 2.034C392.933 2.634 392.747 3.12 392.375 3.492C392.003 3.864 391.445 4.05 390.701 4.05ZM388.613 14.94C388.697 13.008 388.739 11.412 388.739 10.152C388.739 8.652 388.691 6.972 388.595 5.112H392.915C392.819 6.9 392.771 8.58 392.771 10.152C392.771 11.472 392.813 13.068 392.897 14.94H388.613Z" fill="#F5F5F5"/>
<path d="M398.201 10.026C398.225 10.638 398.417 11.13 398.777 11.502C399.149 11.874 399.695 12.06 400.415 12.06C400.811 12.06 401.165 11.988 401.477 11.844C401.789 11.688 402.077 11.46 402.341 11.16C403.361 11.556 404.555 11.898 405.923 12.186C405.527 13.11 404.855 13.83 403.907 14.346C402.971 14.862 401.753 15.12 400.253 15.12C398.249 15.12 396.767 14.652 395.807 13.716C394.847 12.78 394.367 11.55 394.367 10.026C394.367 8.502 394.847 7.272 395.807 6.336C396.767 5.4 398.249 4.932 400.253 4.932C401.753 4.932 402.971 5.19 403.907 5.706C404.855 6.222 405.527 6.942 405.923 7.866C404.855 8.094 403.661 8.436 402.341 8.892C402.077 8.592 401.789 8.37 401.477 8.226C401.165 8.07 400.811 7.992 400.415 7.992C399.695 7.992 399.149 8.178 398.777 8.55C398.417 8.922 398.225 9.414 398.201 10.026Z" fill="#F5F5F5"/>
<path d="M418.887 15.12C416.139 15.12 414.117 14.526 412.821 13.338C411.525 12.138 410.877 10.458 410.877 8.298C410.877 6.162 411.519 4.494 412.803 3.294C414.099 2.094 416.127 1.494 418.887 1.494C421.659 1.494 423.687 2.094 424.971 3.294C426.267 4.494 426.915 6.162 426.915 8.298C426.915 10.47 426.273 12.15 424.989 13.338C423.705 14.526 421.671 15.12 418.887 15.12ZM418.887 11.448C420.219 11.448 421.179 11.196 421.767 10.692C422.355 10.176 422.649 9.378 422.649 8.298C422.649 7.242 422.355 6.456 421.767 5.94C421.179 5.424 420.219 5.166 418.887 5.166C417.567 5.166 416.613 5.424 416.025 5.94C415.437 6.456 415.143 7.242 415.143 8.298C415.143 9.366 415.437 10.158 416.025 10.674C416.613 11.19 417.567 11.448 418.887 11.448Z" fill="#F5F5F5"/>
<path d="M435.37 14.94C435.442 13.176 435.478 11.55 435.478 10.062C435.478 9.534 435.346 9.114 435.082 8.802C434.83 8.49 434.506 8.334 434.11 8.334C433.714 8.334 433.378 8.514 433.102 8.874C432.826 9.222 432.664 9.702 432.616 10.314C432.592 11.226 432.58 11.874 432.58 12.258C432.58 13.074 432.604 13.968 432.652 14.94H428.35C428.446 13.212 428.494 11.58 428.494 10.044C428.494 8.508 428.446 6.864 428.35 5.112C429.142 5.148 429.748 5.166 430.168 5.166C430.612 5.166 431.218 5.148 431.986 5.112L432.508 7.758C432.784 6.798 433.216 6.09 433.804 5.634C434.392 5.166 435.076 4.932 435.856 4.932C436.576 4.932 437.2 5.094 437.728 5.418C438.256 5.73 438.652 6.156 438.916 6.696C439.192 7.236 439.33 7.842 439.33 8.514V11.106C439.33 12.702 439.36 13.98 439.42 14.94H435.37Z" fill="#F5F5F5"/>
<path d="M444.519 10.44C444.615 10.968 444.849 11.4 445.221 11.736C445.605 12.06 446.145 12.222 446.841 12.222C447.345 12.222 447.819 12.126 448.263 11.934C448.707 11.73 449.061 11.448 449.325 11.088C450.129 11.484 451.197 11.91 452.529 12.366C452.157 13.206 451.479 13.878 450.495 14.382C449.523 14.874 448.251 15.12 446.679 15.12C444.639 15.12 443.127 14.652 442.143 13.716C441.171 12.768 440.685 11.526 440.685 9.99C440.685 8.49 441.171 7.272 442.143 6.336C443.115 5.4 444.627 4.932 446.679 4.932C447.903 4.932 448.965 5.136 449.865 5.544C450.765 5.952 451.455 6.522 451.935 7.254C452.415 7.974 452.655 8.802 452.655 9.738C452.655 10.05 452.643 10.284 452.619 10.44H444.519ZM446.931 7.65C446.331 7.65 445.839 7.764 445.455 7.992C445.071 8.22 444.801 8.532 444.645 8.928H448.893C448.749 8.544 448.515 8.238 448.191 8.01C447.867 7.77 447.447 7.65 446.931 7.65Z" fill="#F5F5F5"/>
<path d="M292.614 34.494C295.326 34.494 297.324 35.118 298.608 36.366C299.892 37.614 300.534 39.312 300.534 41.46C300.534 43.596 299.892 45.24 298.608 46.392C297.324 47.544 295.326 48.12 292.614 48.12C290.958 48.12 289.428 47.832 288.024 47.256C286.62 46.68 285.618 45.666 285.018 44.214C286.554 43.554 287.814 42.96 288.798 42.432C289.074 43.152 289.506 43.68 290.094 44.016C290.682 44.34 291.474 44.502 292.47 44.502C293.418 44.502 294.21 44.358 294.846 44.07C295.494 43.77 295.956 43.338 296.232 42.774H289.896V39.75H296.124C295.848 39.234 295.422 38.832 294.846 38.544C294.282 38.244 293.58 38.094 292.74 38.094C291.96 38.094 291.192 38.256 290.436 38.58C289.692 38.904 289.146 39.402 288.798 40.074C287.346 39.33 286.08 38.772 285 38.4C286.284 35.796 288.822 34.494 292.614 34.494Z" fill="#F5F5F5"/>
<path d="M312.906 41.496C311.106 41.448 309.798 41.418 308.982 41.406V47.94H305.166V41.406C304.362 41.418 303.06 41.448 301.26 41.496V38.112H312.906V41.496Z" fill="#F5F5F5"/>
<path d="M319.431 48.12C317.379 48.12 315.867 47.652 314.895 46.716C313.935 45.768 313.455 44.526 313.455 42.99C313.455 41.49 313.935 40.272 314.895 39.336C315.867 38.4 317.379 37.932 319.431 37.932C320.811 37.932 321.963 38.16 322.887 38.616C323.823 39.06 324.513 39.666 324.957 40.434C325.401 41.19 325.623 42.042 325.623 42.99C325.623 44.538 325.107 45.78 324.075 46.716C323.055 47.652 321.507 48.12 319.431 48.12ZM319.503 45.06C320.283 45.06 320.865 44.874 321.249 44.502C321.633 44.13 321.825 43.632 321.825 43.008C321.825 42.42 321.633 41.94 321.249 41.568C320.865 41.184 320.283 40.992 319.503 40.992C318.723 40.992 318.153 41.178 317.793 41.55C317.433 41.922 317.253 42.408 317.253 43.008C317.253 43.632 317.433 44.13 317.793 44.502C318.153 44.874 318.723 45.06 319.503 45.06Z" fill="#F5F5F5"/>
<path d="M341.832 38.112C341.772 39.936 341.742 41.574 341.742 43.026C341.742 44.478 341.772 46.116 341.832 47.94H337.926V44.664H334.398V47.94H330.492C330.552 46.572 330.582 44.934 330.582 43.026C330.582 41.118 330.552 39.48 330.492 38.112H334.398V41.388H337.926V38.112H341.832Z" fill="#F5F5F5"/>
<path d="M346.925 43.44C347.021 43.968 347.255 44.4 347.627 44.736C348.011 45.06 348.551 45.222 349.247 45.222C349.751 45.222 350.225 45.126 350.669 44.934C351.113 44.73 351.467 44.448 351.731 44.088C352.535 44.484 353.603 44.91 354.935 45.366C354.563 46.206 353.885 46.878 352.901 47.382C351.929 47.874 350.657 48.12 349.085 48.12C347.045 48.12 345.533 47.652 344.549 46.716C343.577 45.768 343.091 44.526 343.091 42.99C343.091 41.49 343.577 40.272 344.549 39.336C345.521 38.4 347.033 37.932 349.085 37.932C350.309 37.932 351.371 38.136 352.271 38.544C353.171 38.952 353.861 39.522 354.341 40.254C354.821 40.974 355.061 41.802 355.061 42.738C355.061 43.05 355.049 43.284 355.025 43.44H346.925ZM349.337 40.65C348.737 40.65 348.245 40.764 347.861 40.992C347.477 41.22 347.207 41.532 347.051 41.928H351.299C351.155 41.544 350.921 41.238 350.597 41.01C350.273 40.77 349.853 40.65 349.337 40.65Z" fill="#F5F5F5"/>
<path d="M373.652 38.112L374.336 47.94H370.844L370.628 40.902L369.26 47.94H364.994L363.608 40.992L363.41 47.94H359.918L360.602 38.112H365.93L367.1 44.538L368.144 38.112H373.652Z" fill="#F5F5F5"/>
<path d="M387.311 44.952C387.311 45.36 387.359 45.648 387.455 45.816C387.551 45.984 387.743 46.104 388.031 46.176L387.959 47.868C387.575 47.928 387.239 47.97 386.951 47.994C386.675 48.018 386.303 48.03 385.835 48.03C384.803 48.03 384.119 47.802 383.783 47.346C383.447 46.878 383.279 46.284 383.279 45.564V45.114C382.931 46.098 382.421 46.83 381.749 47.31C381.089 47.79 380.243 48.03 379.211 48.03C378.011 48.03 377.105 47.79 376.493 47.31C375.893 46.83 375.593 46.116 375.593 45.168C375.593 44.388 375.851 43.776 376.367 43.332C376.883 42.888 377.681 42.582 378.761 42.414C377.849 41.766 376.937 41.202 376.025 40.722C376.745 39.81 377.567 39.12 378.491 38.652C379.415 38.172 380.537 37.932 381.857 37.932C383.705 37.932 385.073 38.334 385.961 39.138C386.861 39.93 387.311 41.154 387.311 42.81V44.952ZM382.235 41.1C381.623 41.1 381.083 41.202 380.615 41.406C380.147 41.61 379.727 41.916 379.355 42.324C380.075 42.24 380.975 42.198 382.055 42.198C382.499 42.198 382.811 42.144 382.991 42.036C383.171 41.928 383.261 41.79 383.261 41.622C383.261 41.478 383.171 41.358 382.991 41.262C382.811 41.154 382.559 41.1 382.235 41.1ZM380.345 45.096C381.017 45.096 381.623 44.97 382.163 44.718C382.703 44.454 383.075 44.112 383.279 43.692V43.224C382.991 43.368 382.673 43.482 382.325 43.566C381.977 43.638 381.557 43.71 381.065 43.782L380.417 43.89C379.745 44.022 379.409 44.25 379.409 44.574C379.409 44.922 379.721 45.096 380.345 45.096Z" fill="#F5F5F5"/>
<path d="M392.949 47.94H389.115C389.175 46.56 389.205 44.922 389.205 43.026C389.205 41.118 389.175 39.48 389.115 38.112H399.231C399.219 38.532 399.213 39.372 399.213 40.632V41.604H392.949V47.94Z" fill="#F5F5F5"/>
<path d="M411.211 38.112C411.151 39.852 411.121 41.424 411.121 42.828C411.121 44.208 411.151 45.78 411.211 47.544H407.521L407.719 41.316L404.965 47.544H399.943C400.015 45.96 400.051 44.388 400.051 42.828C400.051 41.244 400.015 39.672 399.943 38.112H403.489L403.309 44.502L406.063 38.112H411.211Z" fill="#F5F5F5"/>
<path d="M423.686 38.112C423.626 39.936 423.596 41.574 423.596 43.026C423.596 44.478 423.626 46.116 423.686 47.94H420.14V44.808H418.682C417.854 46.116 417.23 47.16 416.81 47.94H412.58C413.54 46.632 414.35 45.504 415.01 44.556C414.086 44.316 413.432 43.926 413.048 43.386C412.664 42.846 412.472 42.18 412.472 41.388C412.472 40.392 412.832 39.6 413.552 39.012C414.272 38.424 415.544 38.13 417.368 38.13H420.14V38.112H423.686ZM420.14 42.27V40.722H418.52C417.644 40.722 417.05 40.776 416.738 40.884C416.438 40.992 416.288 41.19 416.288 41.478C416.288 41.778 416.444 41.988 416.756 42.108C417.08 42.216 417.668 42.27 418.52 42.27H420.14Z" fill="#F5F5F5"/>
<path d="M426.861 44.286C427.401 44.286 427.851 44.496 428.211 44.916C428.583 45.324 428.769 45.894 428.769 46.626C428.769 47.226 428.661 47.856 428.445 48.516C428.241 49.176 427.953 49.71 427.581 50.118H426.051C426.555 49.434 426.873 48.762 427.005 48.102C426.381 48.102 425.883 47.916 425.511 47.544C425.139 47.172 424.953 46.722 424.953 46.194C424.953 45.666 425.139 45.216 425.511 44.844C425.883 44.472 426.333 44.286 426.861 44.286Z" fill="#F5F5F5"/>
<path d="M439.149 37.95C441.189 37.95 442.713 38.424 443.721 39.372C444.741 40.308 445.251 41.568 445.251 43.152C445.251 44.736 444.741 45.96 443.721 46.824C442.713 47.688 441.189 48.12 439.149 48.12C437.913 48.12 436.767 47.91 435.711 47.49C434.667 47.058 433.923 46.296 433.479 45.204C434.751 44.652 435.693 44.208 436.305 43.872C436.521 44.328 436.845 44.67 437.277 44.898C437.721 45.126 438.315 45.24 439.059 45.24C440.487 45.24 441.411 44.874 441.831 44.142H437.133V41.874H441.741C441.309 41.178 440.475 40.83 439.239 40.83C438.675 40.83 438.105 40.938 437.529 41.154C436.965 41.37 436.557 41.694 436.305 42.126C435.201 41.562 434.253 41.142 433.461 40.866C434.421 38.922 436.317 37.95 439.149 37.95Z" fill="#F5F5F5"/>
<path d="M457.434 41.496C455.634 41.448 454.326 41.418 453.51 41.406V47.94H449.694V41.406C448.89 41.418 447.588 41.448 445.788 41.496V38.112H457.434V41.496Z" fill="#F5F5F5"/>
<path d="M463.958 48.12C461.906 48.12 460.394 47.652 459.422 46.716C458.462 45.768 457.982 44.526 457.982 42.99C457.982 41.49 458.462 40.272 459.422 39.336C460.394 38.4 461.906 37.932 463.958 37.932C465.338 37.932 466.49 38.16 467.414 38.616C468.35 39.06 469.04 39.666 469.484 40.434C469.928 41.19 470.15 42.042 470.15 42.99C470.15 44.538 469.634 45.78 468.602 46.716C467.582 47.652 466.034 48.12 463.958 48.12ZM464.03 45.06C464.81 45.06 465.392 44.874 465.776 44.502C466.16 44.13 466.352 43.632 466.352 43.008C466.352 42.42 466.16 41.94 465.776 41.568C465.392 41.184 464.81 40.992 464.03 40.992C463.25 40.992 462.68 41.178 462.32 41.55C461.96 41.922 461.78 42.408 461.78 43.008C461.78 43.632 461.96 44.13 462.32 44.502C462.68 44.874 463.25 45.06 464.03 45.06Z" fill="#F5F5F5"/>
<path d="M488.754 38.112L489.438 47.94H485.946L485.73 40.902L484.362 47.94H480.096L478.71 40.992L478.512 47.94H475.02L475.704 38.112H481.032L482.202 44.538L483.246 38.112H488.754Z" fill="#F5F5F5"/>
<path d="M502.413 44.952C502.413 45.36 502.461 45.648 502.557 45.816C502.653 45.984 502.845 46.104 503.133 46.176L503.061 47.868C502.677 47.928 502.341 47.97 502.053 47.994C501.777 48.018 501.405 48.03 500.937 48.03C499.905 48.03 499.221 47.802 498.885 47.346C498.549 46.878 498.381 46.284 498.381 45.564V45.114C498.033 46.098 497.523 46.83 496.851 47.31C496.191 47.79 495.345 48.03 494.313 48.03C493.113 48.03 492.207 47.79 491.595 47.31C490.995 46.83 490.695 46.116 490.695 45.168C490.695 44.388 490.953 43.776 491.469 43.332C491.985 42.888 492.783 42.582 493.863 42.414C492.951 41.766 492.039 41.202 491.127 40.722C491.847 39.81 492.669 39.12 493.593 38.652C494.517 38.172 495.639 37.932 496.959 37.932C498.807 37.932 500.175 38.334 501.063 39.138C501.963 39.93 502.413 41.154 502.413 42.81V44.952ZM497.337 41.1C496.725 41.1 496.185 41.202 495.717 41.406C495.249 41.61 494.829 41.916 494.457 42.324C495.177 42.24 496.077 42.198 497.157 42.198C497.601 42.198 497.913 42.144 498.093 42.036C498.273 41.928 498.363 41.79 498.363 41.622C498.363 41.478 498.273 41.358 498.093 41.262C497.913 41.154 497.661 41.1 497.337 41.1ZM495.447 45.096C496.119 45.096 496.725 44.97 497.265 44.718C497.805 44.454 498.177 44.112 498.381 43.692V43.224C498.093 43.368 497.775 43.482 497.427 43.566C497.079 43.638 496.659 43.71 496.167 43.782L495.519 43.89C494.847 44.022 494.511 44.25 494.511 44.574C494.511 44.922 494.823 45.096 495.447 45.096Z" fill="#F5F5F5"/>
<path d="M512.083 37.932C512.863 37.932 513.565 38.154 514.189 38.598C514.813 39.042 515.299 39.648 515.647 40.416C515.995 41.172 516.169 42.006 516.169 42.918C516.169 43.818 515.995 44.67 515.647 45.474C515.299 46.266 514.807 46.908 514.171 47.4C513.547 47.88 512.833 48.12 512.029 48.12C511.093 48.12 510.289 47.928 509.617 47.544C508.957 47.148 508.465 46.542 508.141 45.726C508.141 46.41 508.165 47.508 508.213 49.02C508.261 50.484 508.285 51.516 508.285 52.116H504.217C504.289 49.884 504.325 47.55 504.325 45.114C504.325 42.678 504.289 40.344 504.217 38.112H507.673L508.195 40.362C508.531 39.522 509.035 38.91 509.707 38.526C510.379 38.13 511.171 37.932 512.083 37.932ZM510.157 44.88C510.697 44.88 511.147 44.712 511.507 44.376C511.879 44.028 512.065 43.578 512.065 43.026C512.065 42.414 511.897 41.916 511.561 41.532C511.225 41.148 510.769 40.956 510.193 40.956C509.533 40.956 509.035 41.118 508.699 41.442C508.363 41.754 508.195 42.282 508.195 43.026C508.195 43.446 508.303 43.8 508.519 44.088C508.735 44.364 508.993 44.568 509.293 44.7C509.593 44.82 509.881 44.88 510.157 44.88Z" fill="#F5F5F5"/>
<path d="M526.634 43.242C527.174 43.674 527.588 44.16 527.876 44.7C528.164 45.24 528.434 45.888 528.686 46.644C528.938 47.304 529.118 47.736 529.226 47.94H524.888C524.852 47.856 524.78 47.592 524.672 47.148C524.576 46.704 524.48 46.35 524.384 46.086C524.288 45.81 524.144 45.57 523.952 45.366C523.652 45.042 523.316 44.832 522.944 44.736C522.572 44.64 522.02 44.592 521.288 44.592V47.94H517.436C517.496 46.572 517.526 44.934 517.526 43.026C517.526 41.118 517.496 39.48 517.436 38.112H521.288V41.64H521.36C522.788 40.212 523.826 39.036 524.474 38.112H529.226L525.014 42.306C525.638 42.57 526.178 42.882 526.634 43.242Z" fill="#F5F5F5"/>
<path d="M533.254 43.44C533.35 43.968 533.584 44.4 533.956 44.736C534.34 45.06 534.88 45.222 535.576 45.222C536.08 45.222 536.554 45.126 536.998 44.934C537.442 44.73 537.796 44.448 538.06 44.088C538.864 44.484 539.932 44.91 541.264 45.366C540.892 46.206 540.214 46.878 539.23 47.382C538.258 47.874 536.986 48.12 535.414 48.12C533.374 48.12 531.862 47.652 530.878 46.716C529.906 45.768 529.42 44.526 529.42 42.99C529.42 41.49 529.906 40.272 530.878 39.336C531.85 38.4 533.362 37.932 535.414 37.932C536.638 37.932 537.7 38.136 538.6 38.544C539.5 38.952 540.19 39.522 540.67 40.254C541.15 40.974 541.39 41.802 541.39 42.738C541.39 43.05 541.378 43.284 541.354 43.44H533.254ZM535.666 40.65C535.066 40.65 534.574 40.764 534.19 40.992C533.806 41.22 533.536 41.532 533.38 41.928H537.628C537.484 41.544 537.25 41.238 536.926 41.01C536.602 40.77 536.182 40.65 535.666 40.65Z" fill="#F5F5F5"/>
<path d="M553.569 41.496C551.769 41.448 550.461 41.418 549.645 41.406V47.94H545.829V41.406C545.025 41.418 543.723 41.448 541.923 41.496V38.112H553.569V41.496Z" fill="#F5F5F5"/>
<path d="M565.565 38.112C565.505 39.852 565.475 41.424 565.475 42.828C565.475 44.208 565.505 45.78 565.565 47.544H561.875L562.073 41.316L559.319 47.544H554.297C554.369 45.96 554.405 44.388 554.405 42.828C554.405 41.244 554.369 39.672 554.297 38.112H557.843L557.663 44.502L560.417 38.112H565.565Z" fill="#F5F5F5"/>
<path d="M578.346 38.112C578.286 39.936 578.256 41.574 578.256 43.026C578.256 44.478 578.286 46.116 578.346 47.94H574.44V44.664H570.912V47.94H567.006C567.066 46.572 567.096 44.934 567.096 43.026C567.096 41.118 567.066 39.48 567.006 38.112H570.912V41.388H574.44V38.112H578.346Z" fill="#F5F5F5"/>
<path d="M583.619 47.94H579.785C579.845 46.56 579.875 44.922 579.875 43.026C579.875 41.118 579.845 39.48 579.785 38.112H589.901C589.889 38.532 589.883 39.372 589.883 40.632V41.604H583.619V47.94Z" fill="#F5F5F5"/>
<path d="M285 90.976V90.796H286.116C286.284 90.796 286.434 90.772 286.566 90.724C286.71 90.664 286.824 90.55 286.908 90.382C286.992 90.214 287.034 89.962 287.034 89.626V79.402C287.034 79.078 286.992 78.838 286.908 78.682C286.824 78.526 286.71 78.424 286.566 78.376C286.434 78.328 286.284 78.304 286.116 78.304H285V78.124H289.572L295.944 87.826V79.402C295.944 79.078 295.902 78.838 295.818 78.682C295.734 78.526 295.62 78.424 295.476 78.376C295.344 78.328 295.194 78.304 295.026 78.304H293.676V78.124H298.374V78.304H297.042C296.874 78.304 296.718 78.334 296.574 78.394C296.442 78.442 296.334 78.55 296.25 78.718C296.166 78.874 296.124 79.126 296.124 79.474V90.976H295.044L287.214 79.06V89.626C287.214 89.962 287.256 90.214 287.34 90.382C287.424 90.55 287.532 90.664 287.664 90.724C287.808 90.772 287.964 90.796 288.132 90.796H289.698V90.976H285Z" fill="#F5F5F5"/>
<path d="M304.172 91.156C302.732 91.156 301.598 90.742 300.77 89.914C299.942 89.074 299.528 87.808 299.528 86.116C299.528 84.424 299.924 83.164 300.716 82.336C301.508 81.508 302.678 81.094 304.226 81.094C305.666 81.094 306.8 81.508 307.628 82.336C308.456 83.164 308.87 84.424 308.87 86.116C308.87 87.808 308.468 89.074 307.664 89.914C306.872 90.742 305.708 91.156 304.172 91.156ZM304.208 90.976C304.676 90.976 305.042 90.82 305.306 90.508C305.582 90.196 305.78 89.686 305.9 88.978C306.02 88.27 306.08 87.316 306.08 86.116C306.08 84.916 306.02 83.968 305.9 83.272C305.78 82.564 305.582 82.054 305.306 81.742C305.03 81.43 304.658 81.274 304.19 81.274C303.734 81.274 303.368 81.43 303.092 81.742C302.816 82.054 302.618 82.564 302.498 83.272C302.378 83.968 302.318 84.916 302.318 86.116C302.318 87.316 302.378 88.27 302.498 88.978C302.618 89.686 302.816 90.196 303.092 90.508C303.368 90.82 303.74 90.976 304.208 90.976Z" fill="#F5F5F5"/>
<path d="M314.095 91.156C313.291 91.156 312.649 90.946 312.169 90.526C311.689 90.106 311.449 89.368 311.449 88.312V81.508H310.099V81.328C310.687 81.328 311.203 81.268 311.647 81.148C312.091 81.028 312.475 80.836 312.799 80.572C313.099 80.332 313.345 80.032 313.537 79.672C313.741 79.3 313.897 78.868 314.005 78.376H314.185V81.328H316.489V81.508H314.185V89.122C314.185 89.686 314.293 90.1 314.509 90.364C314.725 90.628 315.043 90.76 315.463 90.76C315.631 90.76 315.811 90.742 316.003 90.706C316.207 90.67 316.423 90.61 316.651 90.526V90.706C316.459 90.79 316.141 90.886 315.697 90.994C315.265 91.102 314.731 91.156 314.095 91.156Z" fill="#F5F5F5"/>
<path d="M322.506 91.156C321.066 91.156 319.932 90.742 319.104 89.914C318.276 89.074 317.862 87.808 317.862 86.116C317.862 84.424 318.258 83.164 319.05 82.336C319.842 81.508 321.012 81.094 322.56 81.094C324 81.094 325.134 81.508 325.962 82.336C326.79 83.164 327.204 84.424 327.204 86.116C327.204 87.808 326.802 89.074 325.998 89.914C325.206 90.742 324.042 91.156 322.506 91.156ZM322.542 90.976C323.01 90.976 323.376 90.82 323.64 90.508C323.916 90.196 324.114 89.686 324.234 88.978C324.354 88.27 324.414 87.316 324.414 86.116C324.414 84.916 324.354 83.968 324.234 83.272C324.114 82.564 323.916 82.054 323.64 81.742C323.364 81.43 322.992 81.274 322.524 81.274C322.068 81.274 321.702 81.43 321.426 81.742C321.15 82.054 320.952 82.564 320.832 83.272C320.712 83.968 320.652 84.916 320.652 86.116C320.652 87.316 320.712 88.27 320.832 88.978C320.952 89.686 321.15 90.196 321.426 90.508C321.702 90.82 322.074 90.976 322.542 90.976Z" fill="#F5F5F5"/>
<path d="M336.688 91.156C335.944 91.156 335.314 91.084 334.798 90.94C334.282 90.784 333.862 90.58 333.538 90.328C333.226 90.076 332.998 89.8 332.854 89.5C332.71 89.188 332.638 88.882 332.638 88.582C332.638 88.186 332.734 87.874 332.926 87.646C333.118 87.406 333.37 87.232 333.682 87.124C333.994 87.016 334.324 86.962 334.672 86.962C334.672 88.066 334.774 88.906 334.978 89.482C335.194 90.058 335.482 90.454 335.842 90.67C336.202 90.874 336.616 90.976 337.084 90.976C337.804 90.976 338.392 90.784 338.848 90.4C339.316 90.016 339.55 89.44 339.55 88.672C339.55 88.108 339.424 87.646 339.172 87.286C338.92 86.914 338.554 86.59 338.074 86.314C337.606 86.038 337.036 85.762 336.364 85.486C335.74 85.234 335.212 84.97 334.78 84.694C334.348 84.418 334 84.124 333.736 83.812C333.472 83.488 333.28 83.146 333.16 82.786C333.052 82.414 332.998 82.006 332.998 81.562C332.998 80.83 333.184 80.194 333.556 79.654C333.928 79.114 334.462 78.694 335.158 78.394C335.854 78.094 336.682 77.944 337.642 77.944C338.41 77.944 339.058 78.04 339.586 78.232C340.126 78.412 340.534 78.658 340.81 78.97C341.098 79.282 341.242 79.63 341.242 80.014C341.242 80.446 341.056 80.806 340.684 81.094C340.324 81.382 339.772 81.526 339.028 81.526C339.028 80.362 338.878 79.51 338.578 78.97C338.29 78.43 337.792 78.16 337.084 78.16C336.772 78.16 336.46 78.22 336.148 78.34C335.836 78.46 335.578 78.67 335.374 78.97C335.17 79.27 335.068 79.696 335.068 80.248C335.068 80.704 335.17 81.112 335.374 81.472C335.578 81.82 335.914 82.15 336.382 82.462C336.85 82.762 337.486 83.074 338.29 83.398C339.118 83.734 339.784 84.082 340.288 84.442C340.804 84.802 341.176 85.21 341.404 85.666C341.632 86.11 341.746 86.626 341.746 87.214C341.746 87.982 341.548 88.666 341.152 89.266C340.768 89.854 340.198 90.316 339.442 90.652C338.686 90.988 337.768 91.156 336.688 91.156Z" fill="#F5F5F5"/>
<path d="M348.242 91.156C346.682 91.156 345.5 90.724 344.696 89.86C343.892 88.984 343.49 87.766 343.49 86.206C343.49 84.514 343.88 83.242 344.66 82.39C345.44 81.526 346.538 81.094 347.954 81.094C349.262 81.094 350.288 81.46 351.032 82.192C351.788 82.924 352.166 84.004 352.166 85.432V85.864H346.262C346.262 87.076 346.34 88.06 346.496 88.816C346.664 89.56 346.922 90.106 347.27 90.454C347.63 90.79 348.092 90.958 348.656 90.958C349.076 90.958 349.454 90.868 349.79 90.688C350.138 90.508 350.426 90.22 350.654 89.824C350.894 89.428 351.05 88.9 351.122 88.24C351.362 88.288 351.53 88.39 351.626 88.546C351.734 88.702 351.788 88.882 351.788 89.086C351.788 89.422 351.656 89.752 351.392 90.076C351.128 90.388 350.732 90.646 350.204 90.85C349.688 91.054 349.034 91.156 348.242 91.156ZM349.43 85.684C349.43 84.592 349.388 83.728 349.304 83.092C349.22 82.444 349.07 81.982 348.854 81.706C348.638 81.418 348.338 81.274 347.954 81.274C347.57 81.274 347.252 81.418 347 81.706C346.748 81.982 346.562 82.444 346.442 83.092C346.334 83.728 346.274 84.592 346.262 85.684H349.43Z" fill="#F5F5F5"/>
<path d="M353.288 90.976V90.796H353.45C353.63 90.796 353.816 90.772 354.008 90.724C354.212 90.664 354.38 90.55 354.512 90.382C354.656 90.214 354.728 89.962 354.728 89.626V82.606C354.728 82.282 354.656 82.042 354.512 81.886C354.368 81.73 354.194 81.628 353.99 81.58C353.798 81.532 353.618 81.508 353.45 81.508H353.378V81.328H357.464V82.876H357.5C357.632 82.48 357.806 82.156 358.022 81.904C358.238 81.64 358.508 81.442 358.832 81.31C359.168 81.178 359.558 81.112 360.002 81.112C360.674 81.112 361.184 81.25 361.532 81.526C361.892 81.802 362.072 82.186 362.072 82.678C362.072 83.194 361.868 83.596 361.46 83.884C361.052 84.172 360.494 84.316 359.786 84.316C359.786 83.404 359.696 82.78 359.516 82.444C359.336 82.096 359.078 81.922 358.742 81.922C358.562 81.922 358.394 81.97 358.238 82.066C358.082 82.162 357.944 82.324 357.824 82.552C357.716 82.768 357.626 83.062 357.554 83.434C357.494 83.794 357.464 84.25 357.464 84.802V89.626C357.464 89.962 357.53 90.214 357.662 90.382C357.806 90.55 357.98 90.664 358.184 90.724C358.388 90.772 358.574 90.796 358.742 90.796H359.3V90.976H353.288Z" fill="#F5F5F5"/>
<path d="M362.656 90.976V90.796H362.872C363.052 90.796 363.238 90.772 363.43 90.724C363.634 90.664 363.802 90.55 363.934 90.382C364.078 90.214 364.15 89.962 364.15 89.626V82.606C364.15 82.282 364.078 82.042 363.934 81.886C363.79 81.73 363.616 81.628 363.412 81.58C363.22 81.532 363.04 81.508 362.872 81.508H362.656V81.328H366.886V89.626C366.886 89.962 366.952 90.214 367.084 90.382C367.228 90.55 367.402 90.664 367.606 90.724C367.81 90.772 367.996 90.796 368.164 90.796H368.38V90.976H362.656ZM365.428 79.708C365.08 79.708 364.78 79.606 364.528 79.402C364.288 79.186 364.168 78.856 364.168 78.412C364.168 77.956 364.288 77.626 364.528 77.422C364.78 77.218 365.08 77.116 365.428 77.116C365.776 77.116 366.076 77.218 366.328 77.422C366.58 77.626 366.706 77.956 366.706 78.412C366.706 78.856 366.58 79.186 366.328 79.402C366.076 79.606 365.776 79.708 365.428 79.708Z" fill="#F5F5F5"/>
<path d="M369.02 90.976V90.796H369.416C369.596 90.796 369.782 90.772 369.974 90.724C370.178 90.664 370.346 90.55 370.478 90.382C370.622 90.214 370.694 89.962 370.694 89.626V81.508H369.092V81.328H370.694V80.662C370.694 79.546 370.988 78.682 371.576 78.07C372.176 77.446 373.202 77.134 374.654 77.134C375.314 77.134 375.842 77.194 376.238 77.314C376.634 77.434 376.922 77.596 377.102 77.8C377.282 77.992 377.372 78.22 377.372 78.484C377.372 78.736 377.288 78.946 377.12 79.114C376.964 79.282 376.718 79.408 376.382 79.492C376.058 79.576 375.65 79.618 375.158 79.618C375.158 78.742 375.092 78.142 374.96 77.818C374.84 77.482 374.618 77.314 374.294 77.314C373.97 77.314 373.742 77.47 373.61 77.782C373.49 78.094 373.43 78.664 373.43 79.492V81.328H375.914V81.508H373.43V89.626C373.43 89.962 373.496 90.214 373.628 90.382C373.772 90.55 373.946 90.664 374.15 90.724C374.354 90.772 374.54 90.796 374.708 90.796H375.554V90.976H369.02Z" fill="#F5F5F5"/>
<path d="M380.555 90.976V90.796H381.311C381.491 90.796 381.647 90.772 381.779 90.724C381.923 90.664 382.031 90.55 382.103 90.382C382.187 90.214 382.229 89.962 382.229 89.626V79.402C382.229 79.078 382.187 78.838 382.103 78.682C382.019 78.526 381.905 78.424 381.761 78.376C381.629 78.328 381.479 78.304 381.311 78.304H380.555V78.124H386.495C387.827 78.124 388.967 78.358 389.915 78.826C390.863 79.282 391.589 79.972 392.093 80.896C392.609 81.808 392.867 82.948 392.867 84.316C392.867 85.624 392.627 86.782 392.147 87.79C391.667 88.786 390.953 89.566 390.005 90.13C389.069 90.694 387.899 90.976 386.495 90.976H380.555ZM386.081 90.796C386.981 90.796 387.707 90.58 388.259 90.148C388.811 89.716 389.207 89.026 389.447 88.078C389.699 87.118 389.825 85.864 389.825 84.316C389.825 82.876 389.699 81.718 389.447 80.842C389.207 79.954 388.811 79.312 388.259 78.916C387.719 78.508 386.999 78.304 386.099 78.304H385.073V90.796H386.081Z" fill="#F5F5F5"/>
<path d="M394.156 90.976V90.796H394.372C394.552 90.796 394.738 90.772 394.93 90.724C395.134 90.664 395.302 90.55 395.434 90.382C395.578 90.214 395.65 89.962 395.65 89.626V82.606C395.65 82.282 395.578 82.042 395.434 81.886C395.29 81.73 395.116 81.628 394.912 81.58C394.72 81.532 394.54 81.508 394.372 81.508H394.156V81.328H398.386V89.626C398.386 89.962 398.452 90.214 398.584 90.382C398.728 90.55 398.902 90.664 399.106 90.724C399.31 90.772 399.496 90.796 399.664 90.796H399.88V90.976H394.156ZM396.928 79.708C396.58 79.708 396.28 79.606 396.028 79.402C395.788 79.186 395.668 78.856 395.668 78.412C395.668 77.956 395.788 77.626 396.028 77.422C396.28 77.218 396.58 77.116 396.928 77.116C397.276 77.116 397.576 77.218 397.828 77.422C398.08 77.626 398.206 77.956 398.206 78.412C398.206 78.856 398.08 79.186 397.828 79.402C397.576 79.606 397.276 79.708 396.928 79.708Z" fill="#F5F5F5"/>
<path d="M404.156 91.156C403.376 91.156 402.728 91.066 402.212 90.886C401.708 90.694 401.33 90.442 401.078 90.13C400.838 89.806 400.718 89.446 400.718 89.05C400.718 88.654 400.814 88.36 401.006 88.168C401.198 87.976 401.426 87.85 401.69 87.79C401.954 87.718 402.188 87.682 402.392 87.682C402.392 88.498 402.458 89.152 402.59 89.644C402.734 90.124 402.95 90.466 403.238 90.67C403.538 90.874 403.916 90.976 404.372 90.976C404.948 90.976 405.41 90.832 405.758 90.544C406.118 90.256 406.298 89.806 406.298 89.194C406.298 88.786 406.214 88.468 406.046 88.24C405.878 88.012 405.614 87.814 405.254 87.646C404.906 87.466 404.456 87.274 403.904 87.07C403.364 86.866 402.866 86.644 402.41 86.404C401.954 86.164 401.588 85.858 401.312 85.486C401.036 85.102 400.898 84.604 400.898 83.992C400.898 83.02 401.246 82.3 401.942 81.832C402.65 81.352 403.598 81.112 404.786 81.112C405.542 81.112 406.148 81.196 406.604 81.364C407.06 81.52 407.39 81.73 407.594 81.994C407.81 82.258 407.918 82.546 407.918 82.858C407.918 83.206 407.774 83.488 407.486 83.704C407.21 83.92 406.742 84.028 406.082 84.028C406.082 83.008 405.95 82.3 405.686 81.904C405.422 81.496 405.026 81.292 404.498 81.292C404.246 81.292 403.994 81.34 403.742 81.436C403.49 81.532 403.28 81.7 403.112 81.94C402.944 82.168 402.86 82.498 402.86 82.93C402.86 83.314 402.944 83.62 403.112 83.848C403.292 84.076 403.574 84.28 403.958 84.46C404.342 84.64 404.858 84.85 405.506 85.09C406.058 85.294 406.538 85.522 406.946 85.774C407.354 86.014 407.672 86.32 407.9 86.692C408.128 87.052 408.242 87.514 408.242 88.078C408.242 89.026 407.894 89.776 407.198 90.328C406.514 90.88 405.5 91.156 404.156 91.156Z" fill="#F5F5F5"/>
<path d="M409.507 95.296V95.116H409.723C409.903 95.116 410.089 95.086 410.281 95.026C410.485 94.978 410.653 94.87 410.785 94.702C410.929 94.534 411.001 94.282 411.001 93.946V82.606C411.001 82.282 410.929 82.042 410.785 81.886C410.641 81.73 410.467 81.628 410.263 81.58C410.071 81.532 409.891 81.508 409.723 81.508H409.669V81.328H413.719V83.578H413.755C413.887 82.738 414.187 82.12 414.655 81.724C415.123 81.316 415.717 81.112 416.437 81.112C417.589 81.112 418.477 81.514 419.101 82.318C419.725 83.11 420.037 84.376 420.037 86.116C420.037 87.856 419.725 89.134 419.101 89.95C418.477 90.754 417.559 91.156 416.347 91.156C415.675 91.156 415.105 90.946 414.637 90.526C414.181 90.094 413.887 89.422 413.755 88.51H413.719C413.731 88.882 413.737 89.284 413.737 89.716C413.737 90.136 413.737 90.556 413.737 90.976V93.946C413.737 94.282 413.803 94.534 413.935 94.702C414.079 94.87 414.253 94.978 414.457 95.026C414.661 95.086 414.847 95.116 415.015 95.116H415.411V95.296H409.507ZM415.591 90.706C415.963 90.706 416.269 90.526 416.509 90.166C416.761 89.806 416.947 89.266 417.067 88.546C417.199 87.826 417.265 86.932 417.265 85.864C417.265 84.916 417.199 84.124 417.067 83.488C416.947 82.852 416.767 82.372 416.527 82.048C416.287 81.724 415.987 81.562 415.627 81.562C415.219 81.562 414.871 81.724 414.583 82.048C414.307 82.372 414.097 82.852 413.953 83.488C413.809 84.124 413.737 84.916 413.737 85.864C413.737 86.932 413.803 87.826 413.935 88.546C414.079 89.266 414.289 89.806 414.565 90.166C414.841 90.526 415.183 90.706 415.591 90.706Z" fill="#F5F5F5"/>
<path d="M420.874 90.976V90.796H421.09C421.27 90.796 421.456 90.772 421.648 90.724C421.852 90.664 422.02 90.55 422.152 90.382C422.296 90.214 422.368 89.962 422.368 89.626V78.574C422.368 78.25 422.296 78.01 422.152 77.854C422.008 77.698 421.834 77.596 421.63 77.548C421.438 77.5 421.258 77.476 421.09 77.476H420.874V77.296H425.104V89.626C425.104 89.962 425.17 90.214 425.302 90.382C425.446 90.55 425.62 90.664 425.824 90.724C426.028 90.772 426.214 90.796 426.382 90.796H426.598V90.976H420.874Z" fill="#F5F5F5"/>
<path d="M430.586 91.156C429.686 91.156 428.978 90.904 428.462 90.4C427.958 89.884 427.706 89.2 427.706 88.348C427.706 87.424 428.042 86.758 428.714 86.35C429.386 85.942 430.394 85.714 431.738 85.666L433.214 85.612V83.326C433.214 82.798 433.178 82.39 433.106 82.102C433.034 81.802 432.92 81.592 432.764 81.472C432.608 81.34 432.392 81.274 432.116 81.274C431.636 81.274 431.312 81.478 431.144 81.886C430.976 82.294 430.892 83.044 430.892 84.136C430.088 84.136 429.482 84.046 429.074 83.866C428.666 83.674 428.462 83.356 428.462 82.912C428.462 82.48 428.63 82.132 428.966 81.868C429.302 81.592 429.752 81.394 430.316 81.274C430.88 81.154 431.498 81.094 432.17 81.094C433.43 81.094 434.372 81.322 434.996 81.778C435.632 82.234 435.95 83.026 435.95 84.154V89.518C435.95 89.842 435.98 90.1 436.04 90.292C436.112 90.472 436.226 90.604 436.382 90.688C436.55 90.76 436.766 90.796 437.03 90.796H437.102V90.976H433.25V89.158H433.214C433.058 89.674 432.848 90.076 432.584 90.364C432.32 90.652 432.014 90.856 431.666 90.976C431.33 91.096 430.97 91.156 430.586 91.156ZM431.504 90.652C431.852 90.652 432.152 90.52 432.404 90.256C432.668 89.992 432.866 89.65 432.998 89.23C433.142 88.81 433.214 88.366 433.214 87.898V85.792L432.404 85.828C431.684 85.864 431.186 86.074 430.91 86.458C430.634 86.83 430.496 87.442 430.496 88.294C430.496 88.87 430.532 89.332 430.604 89.68C430.676 90.028 430.784 90.28 430.928 90.436C431.084 90.58 431.276 90.652 431.504 90.652Z" fill="#F5F5F5"/>
<path d="M437.878 95.116C438.694 95.116 439.36 95.044 439.876 94.9C440.404 94.768 440.83 94.558 441.154 94.27C441.478 93.994 441.754 93.634 441.982 93.19C442.21 92.758 442.45 92.242 442.702 91.642L438.328 82.372C438.232 82.156 438.136 81.988 438.04 81.868C437.956 81.736 437.866 81.646 437.77 81.598C437.674 81.538 437.56 81.508 437.428 81.508H437.32V81.328H442.486L442.504 81.508H442.144C441.796 81.508 441.538 81.55 441.37 81.634C441.202 81.718 441.118 81.862 441.118 82.066C441.118 82.174 441.136 82.294 441.172 82.426C441.208 82.558 441.262 82.708 441.334 82.876L443.098 86.926C443.206 87.154 443.296 87.352 443.368 87.52C443.44 87.688 443.5 87.832 443.548 87.952C443.596 88.06 443.638 88.168 443.674 88.276C443.722 88.372 443.77 88.474 443.818 88.582C443.914 88.33 444.004 88.096 444.088 87.88C444.172 87.652 444.244 87.448 444.304 87.268L445.834 83.128C445.906 82.936 445.96 82.768 445.996 82.624C446.032 82.468 446.05 82.33 446.05 82.21C446.05 81.946 445.954 81.766 445.762 81.67C445.582 81.562 445.282 81.508 444.862 81.508H444.106V81.328H447.742V81.508H447.706C447.442 81.508 447.214 81.55 447.022 81.634C446.83 81.718 446.662 81.862 446.518 82.066C446.374 82.27 446.236 82.552 446.104 82.912L443.116 91.048C442.804 91.912 442.504 92.62 442.216 93.172C441.928 93.724 441.604 94.156 441.244 94.468C440.884 94.78 440.44 94.996 439.912 95.116C439.384 95.236 438.724 95.296 437.932 95.296H437.878V95.116Z" fill="#F5F5F5"/>
<path d="M289.77 124.156C288.93 124.156 288.216 124.084 287.628 123.94C287.04 123.784 286.56 123.574 286.188 123.31C285.828 123.046 285.564 122.752 285.396 122.428C285.24 122.092 285.162 121.744 285.162 121.384C285.162 120.916 285.324 120.55 285.648 120.286C285.984 120.01 286.434 119.872 286.998 119.872C287.022 120.856 287.142 121.648 287.358 122.248C287.574 122.848 287.886 123.286 288.294 123.562C288.702 123.838 289.2 123.976 289.788 123.976C290.496 123.976 291.066 123.766 291.498 123.346C291.93 122.914 292.248 122.23 292.452 121.294C292.656 120.358 292.758 119.134 292.758 117.622H288.168V117.442H292.758C292.758 115.906 292.662 114.676 292.47 113.752C292.29 112.828 291.996 112.162 291.588 111.754C291.192 111.334 290.664 111.124 290.004 111.124C289.188 111.124 288.606 111.4 288.258 111.952C287.91 112.492 287.736 113.404 287.736 114.688C287.064 114.688 286.518 114.556 286.098 114.292C285.678 114.028 285.468 113.65 285.468 113.158C285.468 112.774 285.618 112.414 285.918 112.078C286.23 111.742 286.698 111.472 287.322 111.268C287.958 111.052 288.762 110.944 289.734 110.944C291.114 110.944 292.248 111.22 293.136 111.772C294.036 112.324 294.702 113.08 295.134 114.04C295.566 115 295.782 116.092 295.782 117.316C295.782 118.72 295.542 119.932 295.062 120.952C294.594 121.972 293.91 122.764 293.01 123.328C292.122 123.88 291.042 124.156 289.77 124.156Z" fill="#F5F5F5"/>
<path d="M299.016 123.976V123.796H299.214C299.454 123.796 299.67 123.766 299.862 123.706C300.054 123.634 300.21 123.508 300.33 123.328C300.45 123.148 300.51 122.902 300.51 122.59V114.508H299.88C299.292 114.508 298.824 114.58 298.476 114.724C298.14 114.868 297.882 115.108 297.702 115.444C297.534 115.78 297.42 116.248 297.36 116.848L297.306 117.406H297.126L297.234 114.328H306.504L306.612 117.406H306.432L306.378 116.848C306.318 116.248 306.198 115.78 306.018 115.444C305.85 115.108 305.592 114.868 305.244 114.724C304.908 114.58 304.452 114.508 303.876 114.508H303.246V122.59C303.246 122.902 303.3 123.148 303.408 123.328C303.528 123.508 303.678 123.634 303.858 123.706C304.038 123.766 304.236 123.796 304.452 123.796H304.65V123.976H299.016Z" fill="#F5F5F5"/>
<path d="M312.468 124.156C311.028 124.156 309.894 123.742 309.066 122.914C308.238 122.074 307.824 120.808 307.824 119.116C307.824 117.424 308.22 116.164 309.012 115.336C309.804 114.508 310.974 114.094 312.522 114.094C313.962 114.094 315.096 114.508 315.924 115.336C316.752 116.164 317.166 117.424 317.166 119.116C317.166 120.808 316.764 122.074 315.96 122.914C315.168 123.742 314.004 124.156 312.468 124.156ZM312.504 123.976C312.972 123.976 313.338 123.82 313.602 123.508C313.878 123.196 314.076 122.686 314.196 121.978C314.316 121.27 314.376 120.316 314.376 119.116C314.376 117.916 314.316 116.968 314.196 116.272C314.076 115.564 313.878 115.054 313.602 114.742C313.326 114.43 312.954 114.274 312.486 114.274C312.03 114.274 311.664 114.43 311.388 114.742C311.112 115.054 310.914 115.564 310.794 116.272C310.674 116.968 310.614 117.916 310.614 119.116C310.614 120.316 310.674 121.27 310.794 121.978C310.914 122.686 311.112 123.196 311.388 123.508C311.664 123.82 312.036 123.976 312.504 123.976Z" fill="#F5F5F5"/>
<path d="M322.366 123.976V123.796H322.582C322.762 123.796 322.948 123.772 323.14 123.724C323.344 123.664 323.512 123.55 323.644 123.382C323.788 123.214 323.86 122.962 323.86 122.626V115.678C323.86 115.33 323.788 115.078 323.644 114.922C323.512 114.754 323.344 114.646 323.14 114.598C322.948 114.538 322.762 114.508 322.582 114.508H322.366V114.328H327.82V114.508H327.784C327.628 114.508 327.454 114.538 327.262 114.598C327.082 114.646 326.926 114.754 326.794 114.922C326.662 115.078 326.596 115.33 326.596 115.678V118.918H329.962V115.678C329.962 115.33 329.896 115.078 329.764 114.922C329.632 114.754 329.476 114.646 329.296 114.598C329.116 114.538 328.942 114.508 328.774 114.508H328.738V114.328H334.192V114.508H333.976C333.808 114.508 333.622 114.538 333.418 114.598C333.214 114.646 333.04 114.754 332.896 114.922C332.764 115.078 332.698 115.33 332.698 115.678V122.626C332.698 122.962 332.764 123.214 332.896 123.382C333.04 123.55 333.214 123.664 333.418 123.724C333.622 123.772 333.808 123.796 333.976 123.796H334.192V123.976H328.738V123.796H328.774C328.942 123.796 329.116 123.772 329.296 123.724C329.476 123.664 329.632 123.55 329.764 123.382C329.896 123.214 329.962 122.962 329.962 122.626V119.098H326.596V122.626C326.596 122.962 326.662 123.214 326.794 123.382C326.926 123.55 327.082 123.664 327.262 123.724C327.454 123.772 327.628 123.796 327.784 123.796H327.82V123.976H322.366Z" fill="#F5F5F5"/>
<path d="M340.104 124.156C338.544 124.156 337.362 123.724 336.558 122.86C335.754 121.984 335.352 120.766 335.352 119.206C335.352 117.514 335.742 116.242 336.522 115.39C337.302 114.526 338.4 114.094 339.816 114.094C341.124 114.094 342.15 114.46 342.894 115.192C343.65 115.924 344.028 117.004 344.028 118.432V118.864H338.124C338.124 120.076 338.202 121.06 338.358 121.816C338.526 122.56 338.784 123.106 339.132 123.454C339.492 123.79 339.954 123.958 340.518 123.958C340.938 123.958 341.316 123.868 341.652 123.688C342 123.508 342.288 123.22 342.516 122.824C342.756 122.428 342.912 121.9 342.984 121.24C343.224 121.288 343.392 121.39 343.488 121.546C343.596 121.702 343.65 121.882 343.65 122.086C343.65 122.422 343.518 122.752 343.254 123.076C342.99 123.388 342.594 123.646 342.066 123.85C341.55 124.054 340.896 124.156 340.104 124.156ZM341.292 118.684C341.292 117.592 341.25 116.728 341.166 116.092C341.082 115.444 340.932 114.982 340.716 114.706C340.5 114.418 340.2 114.274 339.816 114.274C339.432 114.274 339.114 114.418 338.862 114.706C338.61 114.982 338.424 115.444 338.304 116.092C338.196 116.728 338.136 117.592 338.124 118.684H341.292Z" fill="#F5F5F5"/>
<path d="M349.138 123.976V123.796H350.308C350.476 123.796 350.62 123.778 350.74 123.742C350.86 123.706 350.95 123.634 351.01 123.526C351.07 123.418 351.1 123.25 351.1 123.022V115.3C351.1 115.072 351.07 114.904 351.01 114.796C350.95 114.676 350.86 114.598 350.74 114.562C350.62 114.526 350.476 114.508 350.308 114.508H349.138V114.328H353.746L356.554 121.708L359.758 114.328H364.06V114.508H363.142C362.974 114.508 362.83 114.526 362.71 114.562C362.59 114.598 362.5 114.676 362.44 114.796C362.38 114.916 362.35 115.096 362.35 115.336V122.968C362.35 123.208 362.38 123.388 362.44 123.508C362.5 123.628 362.59 123.706 362.71 123.742C362.83 123.778 362.974 123.796 363.142 123.796H364.06V123.976H358.228V123.796H358.894C359.086 123.796 359.242 123.778 359.362 123.742C359.494 123.694 359.59 123.616 359.65 123.508C359.722 123.388 359.758 123.226 359.758 123.022V114.85H359.722L355.78 123.976H354.664L351.316 115.102H351.28V122.968C351.28 123.208 351.31 123.388 351.37 123.508C351.442 123.628 351.55 123.706 351.694 123.742C351.838 123.778 352.03 123.796 352.27 123.796H353.314V123.976H349.138Z" fill="#F5F5F5"/>
<path d="M368.061 124.156C367.161 124.156 366.453 123.904 365.937 123.4C365.433 122.884 365.181 122.2 365.181 121.348C365.181 120.424 365.517 119.758 366.189 119.35C366.861 118.942 367.869 118.714 369.213 118.666L370.689 118.612V116.326C370.689 115.798 370.653 115.39 370.581 115.102C370.509 114.802 370.395 114.592 370.239 114.472C370.083 114.34 369.867 114.274 369.591 114.274C369.111 114.274 368.787 114.478 368.619 114.886C368.451 115.294 368.367 116.044 368.367 117.136C367.563 117.136 366.957 117.046 366.549 116.866C366.141 116.674 365.937 116.356 365.937 115.912C365.937 115.48 366.105 115.132 366.441 114.868C366.777 114.592 367.227 114.394 367.791 114.274C368.355 114.154 368.973 114.094 369.645 114.094C370.905 114.094 371.847 114.322 372.471 114.778C373.107 115.234 373.425 116.026 373.425 117.154V122.518C373.425 122.842 373.455 123.1 373.515 123.292C373.587 123.472 373.701 123.604 373.857 123.688C374.025 123.76 374.241 123.796 374.505 123.796H374.577V123.976H370.725V122.158H370.689C370.533 122.674 370.323 123.076 370.059 123.364C369.795 123.652 369.489 123.856 369.141 123.976C368.805 124.096 368.445 124.156 368.061 124.156ZM368.979 123.652C369.327 123.652 369.627 123.52 369.879 123.256C370.143 122.992 370.341 122.65 370.473 122.23C370.617 121.81 370.689 121.366 370.689 120.898V118.792L369.879 118.828C369.159 118.864 368.661 119.074 368.385 119.458C368.109 119.83 367.971 120.442 367.971 121.294C367.971 121.87 368.007 122.332 368.079 122.68C368.151 123.028 368.259 123.28 368.403 123.436C368.559 123.58 368.751 123.652 368.979 123.652Z" fill="#F5F5F5"/>
<path d="M375.452 123.976V123.796H375.668C375.848 123.796 376.034 123.772 376.226 123.724C376.43 123.664 376.598 123.55 376.73 123.382C376.874 123.214 376.946 122.962 376.946 122.626V115.678C376.946 115.33 376.874 115.078 376.73 114.922C376.598 114.754 376.43 114.646 376.226 114.598C376.034 114.538 375.848 114.508 375.668 114.508H375.452V114.328H383.93V117.388H383.75L383.732 117.028C383.708 116.368 383.618 115.858 383.462 115.498C383.306 115.126 383.048 114.868 382.688 114.724C382.34 114.58 381.848 114.508 381.212 114.508H379.682V122.626C379.682 122.962 379.748 123.214 379.88 123.382C380.012 123.55 380.168 123.664 380.348 123.724C380.54 123.772 380.714 123.796 380.87 123.796H381.266V123.976H375.452Z" fill="#F5F5F5"/>
<path d="M384.593 123.976V123.796H384.809C384.989 123.796 385.175 123.772 385.367 123.724C385.571 123.664 385.739 123.55 385.871 123.382C386.015 123.214 386.087 122.962 386.087 122.626V115.678C386.087 115.33 386.015 115.078 385.871 114.922C385.739 114.754 385.571 114.646 385.367 114.598C385.175 114.538 384.989 114.508 384.809 114.508H384.593V114.328H390.047V114.508H390.011C389.855 114.508 389.681 114.538 389.489 114.598C389.309 114.646 389.153 114.754 389.021 114.922C388.889 115.078 388.823 115.33 388.823 115.678V120.826L392.189 117.136V115.678C392.189 115.33 392.123 115.078 391.991 114.922C391.859 114.754 391.703 114.646 391.523 114.598C391.343 114.538 391.169 114.508 391.001 114.508H390.965V114.328H396.419V114.508H396.203C396.035 114.508 395.849 114.538 395.645 114.598C395.441 114.646 395.267 114.754 395.123 114.922C394.991 115.078 394.925 115.33 394.925 115.678V122.626C394.925 122.962 394.991 123.214 395.123 123.382C395.267 123.55 395.441 123.664 395.645 123.724C395.849 123.772 396.035 123.796 396.203 123.796H396.419V123.976H390.965V123.796H391.001C391.169 123.796 391.343 123.772 391.523 123.724C391.703 123.664 391.859 123.55 391.991 123.382C392.123 123.214 392.189 122.962 392.189 122.626V117.388L388.823 121.078V122.626C388.823 122.962 388.889 123.214 389.021 123.382C389.153 123.55 389.309 123.664 389.489 123.724C389.681 123.772 389.855 123.796 390.011 123.796H390.047V123.976H384.593Z" fill="#F5F5F5"/>
<path d="M396.732 123.976V123.796H396.768C396.876 123.796 396.996 123.736 397.128 123.616C397.26 123.484 397.416 123.28 397.596 123.004C397.788 122.728 398.016 122.374 398.28 121.942L399.972 119.17C399.612 119.11 399.264 118.984 398.928 118.792C398.592 118.6 398.316 118.348 398.1 118.036C397.896 117.712 397.794 117.328 397.794 116.884C397.794 116.344 397.926 115.888 398.19 115.516C398.454 115.132 398.874 114.838 399.45 114.634C400.026 114.43 400.788 114.328 401.736 114.328H407.46V114.508H407.406C407.058 114.508 406.776 114.55 406.56 114.634C406.356 114.706 406.206 114.826 406.11 114.994C406.014 115.15 405.966 115.354 405.966 115.606V122.59C405.966 122.806 406.002 123.004 406.074 123.184C406.146 123.364 406.272 123.514 406.452 123.634C406.644 123.742 406.902 123.796 407.226 123.796H407.46V123.976H401.682V123.796H401.754C402.018 123.796 402.258 123.772 402.474 123.724C402.702 123.664 402.882 123.55 403.014 123.382C403.158 123.202 403.23 122.938 403.23 122.59V119.278H402.51L400.872 122.32C400.632 122.764 400.326 123.106 399.954 123.346C399.594 123.586 399.15 123.754 398.622 123.85C398.094 123.934 397.464 123.976 396.732 123.976ZM402.222 119.098H403.23V114.508H402.222C401.862 114.508 401.562 114.598 401.322 114.778C401.082 114.958 400.902 115.228 400.782 115.588C400.674 115.948 400.62 116.404 400.62 116.956C400.62 117.436 400.674 117.838 400.782 118.162C400.902 118.474 401.082 118.708 401.322 118.864C401.562 119.02 401.862 119.098 402.222 119.098Z" fill="#F5F5F5"/>
<path d="M408.581 126.568C408.929 126.436 409.247 126.292 409.535 126.136C409.835 125.992 410.075 125.806 410.255 125.578C410.435 125.362 410.525 125.08 410.525 124.732C410.525 124.456 410.465 124.246 410.345 124.102C410.237 123.97 410.099 123.862 409.931 123.778C409.775 123.694 409.613 123.61 409.445 123.526C409.277 123.43 409.133 123.304 409.013 123.148C408.905 122.98 408.851 122.746 408.851 122.446C408.851 122.026 408.983 121.72 409.247 121.528C409.511 121.336 409.811 121.24 410.147 121.24C410.675 121.24 411.083 121.42 411.371 121.78C411.659 122.128 411.803 122.608 411.803 123.22C411.803 123.988 411.557 124.69 411.065 125.326C410.585 125.962 409.757 126.436 408.581 126.748V126.568Z" fill="#F5F5F5"/>
<path d="M421.227 124.138C420.315 124.138 419.601 124.048 419.085 123.868C418.581 123.676 418.227 123.424 418.023 123.112C417.819 122.8 417.717 122.458 417.717 122.086C417.717 121.642 417.867 121.3 418.167 121.06C418.467 120.82 418.911 120.7 419.499 120.7C419.499 121.504 419.553 122.146 419.661 122.626C419.781 123.094 419.967 123.436 420.219 123.652C420.471 123.856 420.789 123.958 421.173 123.958C421.605 123.958 421.935 123.802 422.163 123.49C422.403 123.178 422.571 122.662 422.667 121.942C422.775 121.222 422.829 120.256 422.829 119.044H419.337V118.864H422.829C422.829 118.024 422.799 117.316 422.739 116.74C422.691 116.152 422.601 115.678 422.469 115.318C422.349 114.958 422.187 114.7 421.983 114.544C421.791 114.376 421.551 114.292 421.263 114.292C420.711 114.292 420.327 114.52 420.111 114.976C419.895 115.42 419.787 116.2 419.787 117.316C419.175 117.316 418.725 117.202 418.437 116.974C418.161 116.734 418.023 116.428 418.023 116.056C418.023 115.732 418.131 115.426 418.347 115.138C418.575 114.838 418.941 114.592 419.445 114.4C419.949 114.208 420.609 114.112 421.425 114.112C422.313 114.112 423.063 114.274 423.675 114.598C424.299 114.922 424.773 115.438 425.097 116.146C425.433 116.842 425.601 117.766 425.601 118.918C425.601 120.214 425.415 121.246 425.043 122.014C424.683 122.77 424.173 123.316 423.513 123.652C422.853 123.976 422.091 124.138 421.227 124.138Z" fill="#F5F5F5"/>
<path d="M428.689 123.976V123.796H428.887C429.127 123.796 429.343 123.766 429.535 123.706C429.727 123.634 429.883 123.508 430.003 123.328C430.123 123.148 430.183 122.902 430.183 122.59V114.508H429.553C428.965 114.508 428.497 114.58 428.149 114.724C427.813 114.868 427.555 115.108 427.375 115.444C427.207 115.78 427.093 116.248 427.033 116.848L426.979 117.406H426.799L426.907 114.328H436.177L436.285 117.406H436.105L436.051 116.848C435.991 116.248 435.871 115.78 435.691 115.444C435.523 115.108 435.265 114.868 434.917 114.724C434.581 114.58 434.125 114.508 433.549 114.508H432.919V122.59C432.919 122.902 432.973 123.148 433.081 123.328C433.201 123.508 433.351 123.634 433.531 123.706C433.711 123.766 433.909 123.796 434.125 123.796H434.323V123.976H428.689Z" fill="#F5F5F5"/>
<path d="M442.142 124.156C440.702 124.156 439.568 123.742 438.74 122.914C437.912 122.074 437.498 120.808 437.498 119.116C437.498 117.424 437.894 116.164 438.686 115.336C439.478 114.508 440.648 114.094 442.196 114.094C443.636 114.094 444.77 114.508 445.598 115.336C446.426 116.164 446.84 117.424 446.84 119.116C446.84 120.808 446.438 122.074 445.634 122.914C444.842 123.742 443.678 124.156 442.142 124.156ZM442.178 123.976C442.646 123.976 443.012 123.82 443.276 123.508C443.552 123.196 443.75 122.686 443.87 121.978C443.99 121.27 444.05 120.316 444.05 119.116C444.05 117.916 443.99 116.968 443.87 116.272C443.75 115.564 443.552 115.054 443.276 114.742C443 114.43 442.628 114.274 442.16 114.274C441.704 114.274 441.338 114.43 441.062 114.742C440.786 115.054 440.588 115.564 440.468 116.272C440.348 116.968 440.288 117.916 440.288 119.116C440.288 120.316 440.348 121.27 440.468 121.978C440.588 122.686 440.786 123.196 441.062 123.508C441.338 123.82 441.71 123.976 442.178 123.976Z" fill="#F5F5F5"/>
<path d="M452.04 123.976V123.796H453.21C453.378 123.796 453.522 123.778 453.642 123.742C453.762 123.706 453.852 123.634 453.912 123.526C453.972 123.418 454.002 123.25 454.002 123.022V115.3C454.002 115.072 453.972 114.904 453.912 114.796C453.852 114.676 453.762 114.598 453.642 114.562C453.522 114.526 453.378 114.508 453.21 114.508H452.04V114.328H456.648L459.456 121.708L462.66 114.328H466.962V114.508H466.044C465.876 114.508 465.732 114.526 465.612 114.562C465.492 114.598 465.402 114.676 465.342 114.796C465.282 114.916 465.252 115.096 465.252 115.336V122.968C465.252 123.208 465.282 123.388 465.342 123.508C465.402 123.628 465.492 123.706 465.612 123.742C465.732 123.778 465.876 123.796 466.044 123.796H466.962V123.976H461.13V123.796H461.796C461.988 123.796 462.144 123.778 462.264 123.742C462.396 123.694 462.492 123.616 462.552 123.508C462.624 123.388 462.66 123.226 462.66 123.022V114.85H462.624L458.682 123.976H457.566L454.218 115.102H454.182V122.968C454.182 123.208 454.212 123.388 454.272 123.508C454.344 123.628 454.452 123.706 454.596 123.742C454.74 123.778 454.932 123.796 455.172 123.796H456.216V123.976H452.04Z" fill="#F5F5F5"/>
<path d="M470.963 124.156C470.063 124.156 469.355 123.904 468.839 123.4C468.335 122.884 468.083 122.2 468.083 121.348C468.083 120.424 468.419 119.758 469.091 119.35C469.763 118.942 470.771 118.714 472.115 118.666L473.591 118.612V116.326C473.591 115.798 473.555 115.39 473.483 115.102C473.411 114.802 473.297 114.592 473.141 114.472C472.985 114.34 472.769 114.274 472.493 114.274C472.013 114.274 471.689 114.478 471.521 114.886C471.353 115.294 471.269 116.044 471.269 117.136C470.465 117.136 469.859 117.046 469.451 116.866C469.043 116.674 468.839 116.356 468.839 115.912C468.839 115.48 469.007 115.132 469.343 114.868C469.679 114.592 470.129 114.394 470.693 114.274C471.257 114.154 471.875 114.094 472.547 114.094C473.807 114.094 474.749 114.322 475.373 114.778C476.009 115.234 476.327 116.026 476.327 117.154V122.518C476.327 122.842 476.357 123.1 476.417 123.292C476.489 123.472 476.603 123.604 476.759 123.688C476.927 123.76 477.143 123.796 477.407 123.796H477.479V123.976H473.627V122.158H473.591C473.435 122.674 473.225 123.076 472.961 123.364C472.697 123.652 472.391 123.856 472.043 123.976C471.707 124.096 471.347 124.156 470.963 124.156ZM471.881 123.652C472.229 123.652 472.529 123.52 472.781 123.256C473.045 122.992 473.243 122.65 473.375 122.23C473.519 121.81 473.591 121.366 473.591 120.898V118.792L472.781 118.828C472.061 118.864 471.563 119.074 471.287 119.458C471.011 119.83 470.873 120.442 470.873 121.294C470.873 121.87 470.909 122.332 470.981 122.68C471.053 123.028 471.161 123.28 471.305 123.436C471.461 123.58 471.653 123.652 471.881 123.652Z" fill="#F5F5F5"/>
<path d="M478.589 128.296V128.116H478.805C478.985 128.116 479.171 128.086 479.363 128.026C479.567 127.978 479.735 127.87 479.867 127.702C480.011 127.534 480.083 127.282 480.083 126.946V115.606C480.083 115.282 480.011 115.042 479.867 114.886C479.723 114.73 479.549 114.628 479.345 114.58C479.153 114.532 478.973 114.508 478.805 114.508H478.751V114.328H482.801V116.578H482.837C482.969 115.738 483.269 115.12 483.737 114.724C484.205 114.316 484.799 114.112 485.519 114.112C486.671 114.112 487.559 114.514 488.183 115.318C488.807 116.11 489.119 117.376 489.119 119.116C489.119 120.856 488.807 122.134 488.183 122.95C487.559 123.754 486.641 124.156 485.429 124.156C484.757 124.156 484.187 123.946 483.719 123.526C483.263 123.094 482.969 122.422 482.837 121.51H482.801C482.813 121.882 482.819 122.284 482.819 122.716C482.819 123.136 482.819 123.556 482.819 123.976V126.946C482.819 127.282 482.885 127.534 483.017 127.702C483.161 127.87 483.335 127.978 483.539 128.026C483.743 128.086 483.929 128.116 484.097 128.116H484.493V128.296H478.589ZM484.673 123.706C485.045 123.706 485.351 123.526 485.591 123.166C485.843 122.806 486.029 122.266 486.149 121.546C486.281 120.826 486.347 119.932 486.347 118.864C486.347 117.916 486.281 117.124 486.149 116.488C486.029 115.852 485.849 115.372 485.609 115.048C485.369 114.724 485.069 114.562 484.709 114.562C484.301 114.562 483.953 114.724 483.665 115.048C483.389 115.372 483.179 115.852 483.035 116.488C482.891 117.124 482.819 117.916 482.819 118.864C482.819 119.932 482.885 120.826 483.017 121.546C483.161 122.266 483.371 122.806 483.647 123.166C483.923 123.526 484.265 123.706 484.673 123.706Z" fill="#F5F5F5"/>
<path d="M489.956 123.976V123.796H490.172C490.352 123.796 490.538 123.772 490.73 123.724C490.934 123.664 491.102 123.55 491.234 123.382C491.378 123.214 491.45 122.962 491.45 122.626V115.678C491.45 115.33 491.378 115.078 491.234 114.922C491.102 114.754 490.934 114.646 490.73 114.598C490.538 114.538 490.352 114.508 490.172 114.508H489.956V114.328H495.41V114.508H495.374C495.218 114.508 495.044 114.538 494.852 114.598C494.672 114.646 494.516 114.754 494.384 114.922C494.252 115.078 494.186 115.33 494.186 115.678V118.828C494.45 118.816 494.666 118.792 494.834 118.756C495.014 118.72 495.182 118.648 495.338 118.54C495.506 118.42 495.698 118.252 495.914 118.036C496.058 117.892 496.22 117.676 496.4 117.388C496.592 117.1 496.838 116.722 497.138 116.254C497.462 115.738 497.75 115.336 498.002 115.048C498.254 114.748 498.5 114.538 498.74 114.418C498.992 114.286 499.268 114.22 499.568 114.22C500.072 114.22 500.426 114.334 500.63 114.562C500.834 114.79 500.936 115.042 500.936 115.318C500.936 115.654 500.828 115.924 500.612 116.128C500.408 116.32 500.162 116.428 499.874 116.452C499.826 116.176 499.718 115.954 499.55 115.786C499.394 115.618 499.142 115.534 498.794 115.534C498.47 115.534 498.164 115.636 497.876 115.84C497.6 116.044 497.3 116.398 496.976 116.902C496.784 117.202 496.61 117.46 496.454 117.676C496.298 117.892 496.148 118.078 496.004 118.234C495.86 118.378 495.698 118.522 495.518 118.666C496.022 118.666 496.448 118.714 496.796 118.81C497.144 118.894 497.444 119.044 497.696 119.26C497.948 119.476 498.176 119.764 498.38 120.124L499.37 121.816C499.682 122.332 499.916 122.734 500.072 123.022C500.228 123.31 500.378 123.514 500.522 123.634C500.678 123.742 500.888 123.796 501.152 123.796H501.206V123.976H500.45C499.79 123.976 499.214 123.94 498.722 123.868C498.242 123.784 497.822 123.622 497.462 123.382C497.114 123.142 496.802 122.77 496.526 122.266L495.608 120.556C495.38 120.124 495.194 119.8 495.05 119.584C494.918 119.368 494.792 119.224 494.672 119.152C494.552 119.068 494.39 119.02 494.186 119.008V122.626C494.186 122.962 494.252 123.214 494.384 123.382C494.516 123.55 494.672 123.664 494.852 123.724C495.044 123.772 495.218 123.796 495.374 123.796H495.41V123.976H489.956Z" fill="#F5F5F5"/>
<path d="M506.446 124.156C504.886 124.156 503.704 123.724 502.9 122.86C502.096 121.984 501.694 120.766 501.694 119.206C501.694 117.514 502.084 116.242 502.864 115.39C503.644 114.526 504.742 114.094 506.158 114.094C507.466 114.094 508.492 114.46 509.236 115.192C509.992 115.924 510.37 117.004 510.37 118.432V118.864H504.466C504.466 120.076 504.544 121.06 504.7 121.816C504.868 122.56 505.126 123.106 505.474 123.454C505.834 123.79 506.296 123.958 506.86 123.958C507.28 123.958 507.658 123.868 507.994 123.688C508.342 123.508 508.63 123.22 508.858 122.824C509.098 122.428 509.254 121.9 509.326 121.24C509.566 121.288 509.734 121.39 509.83 121.546C509.938 121.702 509.992 121.882 509.992 122.086C509.992 122.422 509.86 122.752 509.596 123.076C509.332 123.388 508.936 123.646 508.408 123.85C507.892 124.054 507.238 124.156 506.446 124.156ZM507.634 118.684C507.634 117.592 507.592 116.728 507.508 116.092C507.424 115.444 507.274 114.982 507.058 114.706C506.842 114.418 506.542 114.274 506.158 114.274C505.774 114.274 505.456 114.418 505.204 114.706C504.952 114.982 504.766 115.444 504.646 116.092C504.538 116.728 504.478 117.592 504.466 118.684H507.634Z" fill="#F5F5F5"/>
<path d="M513.381 123.976V123.796H513.579C513.819 123.796 514.035 123.766 514.227 123.706C514.419 123.634 514.575 123.508 514.695 123.328C514.815 123.148 514.875 122.902 514.875 122.59V114.508H514.245C513.657 114.508 513.189 114.58 512.841 114.724C512.505 114.868 512.247 115.108 512.067 115.444C511.899 115.78 511.785 116.248 511.725 116.848L511.671 117.406H511.491L511.599 114.328H520.869L520.977 117.406H520.797L520.743 116.848C520.683 116.248 520.563 115.78 520.383 115.444C520.215 115.108 519.957 114.868 519.609 114.724C519.273 114.58 518.817 114.508 518.241 114.508H517.611V122.59C517.611 122.902 517.665 123.148 517.773 123.328C517.893 123.508 518.043 123.634 518.223 123.706C518.403 123.766 518.601 123.796 518.817 123.796H519.015V123.976H513.381Z" fill="#F5F5F5"/>
<path d="M521.65 123.976V123.796H521.866C522.046 123.796 522.232 123.772 522.424 123.724C522.628 123.664 522.796 123.55 522.928 123.382C523.072 123.214 523.144 122.962 523.144 122.626V115.678C523.144 115.33 523.072 115.078 522.928 114.922C522.796 114.754 522.628 114.646 522.424 114.598C522.232 114.538 522.046 114.508 521.866 114.508H521.65V114.328H527.104V114.508H527.068C526.912 114.508 526.738 114.538 526.546 114.598C526.366 114.646 526.21 114.754 526.078 114.922C525.946 115.078 525.88 115.33 525.88 115.678V120.826L529.246 117.136V115.678C529.246 115.33 529.18 115.078 529.048 114.922C528.916 114.754 528.76 114.646 528.58 114.598C528.4 114.538 528.226 114.508 528.058 114.508H528.022V114.328H533.476V114.508H533.26C533.092 114.508 532.906 114.538 532.702 114.598C532.498 114.646 532.324 114.754 532.18 114.922C532.048 115.078 531.982 115.33 531.982 115.678V122.626C531.982 122.962 532.048 123.214 532.18 123.382C532.324 123.55 532.498 123.664 532.702 123.724C532.906 123.772 533.092 123.796 533.26 123.796H533.476V123.976H528.022V123.796H528.058C528.226 123.796 528.4 123.772 528.58 123.724C528.76 123.664 528.916 123.55 529.048 123.382C529.18 123.214 529.246 122.962 529.246 122.626V117.388L525.88 121.078V122.626C525.88 122.962 525.946 123.214 526.078 123.382C526.21 123.55 526.366 123.664 526.546 123.724C526.738 123.772 526.912 123.796 527.068 123.796H527.104V123.976H521.65Z" fill="#F5F5F5"/>
<path d="M534.095 123.976V123.796H534.311C534.491 123.796 534.677 123.772 534.869 123.724C535.073 123.664 535.241 123.55 535.373 123.382C535.517 123.214 535.589 122.962 535.589 122.626V115.678C535.589 115.33 535.517 115.078 535.373 114.922C535.241 114.754 535.073 114.646 534.869 114.598C534.677 114.538 534.491 114.508 534.311 114.508H534.095V114.328H539.549V114.508H539.513C539.357 114.508 539.183 114.538 538.991 114.598C538.811 114.646 538.655 114.754 538.523 114.922C538.391 115.078 538.325 115.33 538.325 115.678V118.918H541.691V115.678C541.691 115.33 541.625 115.078 541.493 114.922C541.361 114.754 541.205 114.646 541.025 114.598C540.845 114.538 540.671 114.508 540.503 114.508H540.467V114.328H545.921V114.508H545.705C545.537 114.508 545.351 114.538 545.147 114.598C544.943 114.646 544.769 114.754 544.625 114.922C544.493 115.078 544.427 115.33 544.427 115.678V122.626C544.427 122.962 544.493 123.214 544.625 123.382C544.769 123.55 544.943 123.664 545.147 123.724C545.351 123.772 545.537 123.796 545.705 123.796H545.921V123.976H540.467V123.796H540.503C540.671 123.796 540.845 123.772 541.025 123.724C541.205 123.664 541.361 123.55 541.493 123.382C541.625 123.214 541.691 122.962 541.691 122.626V119.098H538.325V122.626C538.325 122.962 538.391 123.214 538.523 123.382C538.655 123.55 538.811 123.664 538.991 123.724C539.183 123.772 539.357 123.796 539.513 123.796H539.549V123.976H534.095Z" fill="#F5F5F5"/>
<path d="M546.54 123.976V123.796H546.756C546.936 123.796 547.122 123.772 547.314 123.724C547.518 123.664 547.686 123.55 547.818 123.382C547.962 123.214 548.034 122.962 548.034 122.626V115.678C548.034 115.33 547.962 115.078 547.818 114.922C547.686 114.754 547.518 114.646 547.314 114.598C547.122 114.538 546.936 114.508 546.756 114.508H546.54V114.328H555.018V117.388H554.838L554.82 117.028C554.796 116.368 554.706 115.858 554.55 115.498C554.394 115.126 554.136 114.868 553.776 114.724C553.428 114.58 552.936 114.508 552.3 114.508H550.77V122.626C550.77 122.962 550.836 123.214 550.968 123.382C551.1 123.55 551.256 123.664 551.436 123.724C551.628 123.772 551.802 123.796 551.958 123.796H552.354V123.976H546.54Z" fill="#F5F5F5"/>
<path d="M295.026 163.7L295.638 164.852C295.218 165.284 294.648 165.626 293.928 165.878C293.208 166.13 292.452 166.256 291.66 166.256C289.776 166.256 288.234 165.668 287.034 164.492C285.858 163.292 285.27 161.72 285.27 159.776C285.27 157.904 285.834 156.362 286.962 155.15C288.09 153.914 289.62 153.296 291.552 153.296C293.148 153.296 294.426 153.704 295.386 154.52L294.684 155.672C293.844 155.048 292.806 154.736 291.57 154.736C290.202 154.736 289.08 155.204 288.204 156.14C287.328 157.064 286.89 158.276 286.89 159.776C286.89 161.276 287.34 162.494 288.24 163.43C289.164 164.354 290.352 164.816 291.804 164.816C293.028 164.816 294.102 164.444 295.026 163.7Z" fill="#F5F5F5"/>
<path d="M299.314 166.076H297.875V157.976H299.314V166.076ZM297.694 154.934C297.694 154.682 297.785 154.478 297.965 154.322C298.145 154.154 298.366 154.07 298.63 154.07C298.882 154.07 299.092 154.154 299.26 154.322C299.428 154.478 299.512 154.682 299.512 154.934C299.512 155.21 299.428 155.438 299.26 155.618C299.092 155.786 298.882 155.87 298.63 155.87C298.366 155.87 298.145 155.786 297.965 155.618C297.785 155.438 297.694 155.21 297.694 154.934Z" fill="#F5F5F5"/>
<path d="M303.735 166.076H302.295V157.976H303.735V158.93C304.215 158.198 304.893 157.832 305.769 157.832C306.333 157.832 306.753 157.934 307.029 158.138L306.525 159.488C306.177 159.284 305.811 159.182 305.427 159.182C304.695 159.182 304.131 159.566 303.735 160.334V166.076Z" fill="#F5F5F5"/>
<path d="M314.64 163.862L315.324 164.906C314.628 165.806 313.59 166.256 312.21 166.256C310.914 166.256 309.864 165.872 309.06 165.104C308.268 164.336 307.872 163.31 307.872 162.026C307.872 160.838 308.262 159.836 309.042 159.02C309.822 158.204 310.8 157.796 311.976 157.796C313.392 157.796 314.454 158.15 315.162 158.858L314.496 159.992C313.872 159.428 313.098 159.146 312.174 159.146C311.418 159.146 310.764 159.422 310.212 159.974C309.672 160.514 309.402 161.198 309.402 162.026C309.402 162.902 309.678 163.598 310.23 164.114C310.794 164.642 311.49 164.906 312.318 164.906C313.254 164.906 314.028 164.558 314.64 163.862Z" fill="#F5F5F5"/>
<path d="M323.152 164.06L323.602 165.194C322.822 165.902 321.808 166.256 320.56 166.256C319.24 166.256 318.19 165.872 317.41 165.104C316.618 164.336 316.222 163.31 316.222 162.026C316.222 160.814 316.594 159.806 317.338 159.002C318.07 158.198 319.09 157.796 320.398 157.796C321.478 157.796 322.372 158.144 323.08 158.84C323.8 159.524 324.16 160.412 324.16 161.504C324.16 161.852 324.13 162.176 324.07 162.476H317.842C317.902 163.232 318.184 163.826 318.688 164.258C319.204 164.69 319.864 164.906 320.668 164.906C321.724 164.906 322.552 164.624 323.152 164.06ZM320.326 159.146C319.618 159.146 319.03 159.344 318.562 159.74C318.106 160.136 317.836 160.658 317.752 161.306H322.666C322.63 160.634 322.402 160.106 321.982 159.722C321.574 159.338 321.022 159.146 320.326 159.146Z" fill="#F5F5F5"/>
<path d="M333.997 166.076H326.707V153.476H333.817V154.916H328.237V158.984H333.277V160.424H328.237V164.636H333.997V166.076Z" fill="#F5F5F5"/>
<path d="M341.993 157.976H343.667L340.769 161.882L343.847 166.076H342.083L339.707 162.8L337.295 166.076H335.621L338.681 161.954L335.801 157.976H337.565L339.761 161.036L341.993 157.976Z" fill="#F5F5F5"/>
<path d="M345.41 162.998V155.726H346.85V157.976H349.82V159.326H346.85V162.854C346.85 164.198 347.33 164.87 348.29 164.87C348.758 164.87 349.184 164.72 349.568 164.42L350.018 165.536C349.454 165.992 348.764 166.22 347.948 166.22C347.072 166.22 346.43 165.956 346.022 165.428C345.614 164.9 345.41 164.09 345.41 162.998Z" fill="#F5F5F5"/>
<path d="M353.376 166.076H351.936V157.976H353.376V158.93C353.856 158.198 354.534 157.832 355.41 157.832C355.974 157.832 356.394 157.934 356.67 158.138L356.166 159.488C355.818 159.284 355.452 159.182 355.068 159.182C354.336 159.182 353.772 159.566 353.376 160.334V166.076Z" fill="#F5F5F5"/>
<path d="M358.485 159.686L358.107 158.534C358.911 158.042 359.811 157.796 360.807 157.796C361.899 157.796 362.691 158.066 363.183 158.606C363.675 159.146 363.921 159.98 363.921 161.108V166.076H362.553V165.032C361.917 165.812 361.053 166.202 359.961 166.202C359.217 166.202 358.617 165.98 358.161 165.536C357.705 165.08 357.477 164.468 357.477 163.7C357.477 162.908 357.759 162.284 358.323 161.828C358.887 161.36 359.625 161.126 360.537 161.126C361.389 161.126 362.061 161.3 362.553 161.648C362.553 160.736 362.427 160.082 362.175 159.686C361.923 159.29 361.437 159.092 360.717 159.092C359.985 159.092 359.241 159.29 358.485 159.686ZM360.465 164.906C361.269 164.906 361.965 164.558 362.553 163.862V162.836C362.049 162.476 361.443 162.296 360.735 162.296C360.243 162.296 359.829 162.416 359.493 162.656C359.169 162.884 359.007 163.208 359.007 163.628C359.007 164.024 359.133 164.336 359.385 164.564C359.649 164.792 360.009 164.906 360.465 164.906Z" fill="#F5F5F5"/>
<path d="M374.666 166.076H366.926V153.476H368.456V164.636H374.666V166.076Z" fill="#F5F5F5"/>
<path d="M377.801 166.076H376.361V157.976H377.801V166.076ZM376.181 154.934C376.181 154.682 376.271 154.478 376.451 154.322C376.631 154.154 376.853 154.07 377.117 154.07C377.369 154.07 377.579 154.154 377.747 154.322C377.915 154.478 377.999 154.682 377.999 154.934C377.999 155.21 377.915 155.438 377.747 155.618C377.579 155.786 377.369 155.87 377.117 155.87C376.853 155.87 376.631 155.786 376.451 155.618C376.271 155.438 376.181 155.21 376.181 154.934Z" fill="#F5F5F5"/>
<path d="M379.665 167.246C379.665 166.622 379.893 166.1 380.349 165.68C380.805 165.26 381.441 164.96 382.257 164.78C382.125 164.612 382.059 164.39 382.059 164.114C382.059 163.838 382.131 163.61 382.275 163.43C381.699 163.202 381.249 162.854 380.925 162.386C380.613 161.918 380.457 161.378 380.457 160.766C380.457 159.926 380.757 159.224 381.357 158.66C381.969 158.084 382.773 157.796 383.769 157.796C384.537 157.796 385.221 157.994 385.821 158.39L388.197 157.814L388.233 158.984L386.703 159.362C386.955 159.782 387.081 160.25 387.081 160.766C387.081 161.594 386.775 162.29 386.163 162.854C385.563 163.406 384.765 163.682 383.769 163.682C383.493 163.682 383.313 163.676 383.229 163.664C383.169 163.808 383.139 163.958 383.139 164.114C383.139 164.33 383.193 164.51 383.301 164.654C383.325 164.654 383.397 164.654 383.517 164.654C383.649 164.642 383.739 164.636 383.787 164.636C385.047 164.636 386.049 164.864 386.793 165.32C387.537 165.764 387.909 166.406 387.909 167.246C387.909 168.062 387.537 168.692 386.793 169.136C386.049 169.592 385.047 169.82 383.787 169.82C382.515 169.82 381.507 169.598 380.763 169.154C380.031 168.722 379.665 168.086 379.665 167.246ZM386.559 167.246C386.559 166.802 386.313 166.448 385.821 166.184C385.329 165.932 384.651 165.806 383.787 165.806C382.923 165.806 382.245 165.932 381.753 166.184C381.261 166.448 381.015 166.802 381.015 167.246C381.015 167.69 381.261 168.032 381.753 168.272C382.245 168.524 382.923 168.65 383.787 168.65C384.651 168.65 385.329 168.53 385.821 168.29C386.313 168.05 386.559 167.702 386.559 167.246ZM381.807 160.766C381.807 161.27 381.987 161.69 382.347 162.026C382.719 162.35 383.193 162.512 383.769 162.512C384.345 162.512 384.813 162.35 385.173 162.026C385.545 161.702 385.731 161.282 385.731 160.766C385.731 160.25 385.551 159.824 385.191 159.488C384.819 159.14 384.345 158.966 383.769 158.966C383.193 158.966 382.719 159.14 382.347 159.488C381.987 159.824 381.807 160.25 381.807 160.766Z" fill="#F5F5F5"/>
<path d="M391.116 166.076H389.676V153.476H391.116V158.912C391.836 158.192 392.718 157.832 393.762 157.832C396.006 157.832 397.128 159.032 397.128 161.432V166.076H395.688V161.63C395.688 159.998 394.932 159.182 393.42 159.182C393 159.182 392.574 159.278 392.142 159.47C391.722 159.662 391.38 159.908 391.116 160.208V166.076Z" fill="#F5F5F5"/>
<path d="M399.375 162.998V155.726H400.815V157.976H403.785V159.326H400.815V162.854C400.815 164.198 401.295 164.87 402.255 164.87C402.723 164.87 403.149 164.72 403.533 164.42L403.983 165.536C403.419 165.992 402.729 166.22 401.913 166.22C401.037 166.22 400.395 165.956 399.987 165.428C399.579 164.9 399.375 164.09 399.375 162.998Z" fill="#F5F5F5"/>
<path d="M409.241 169.82L408.107 169.406L414.101 153.296L415.217 153.71L409.241 169.82Z" fill="#F5F5F5"/>
<path d="M422.14 161.036V166.076H420.61V153.476C421.186 153.476 421.792 153.47 422.428 153.458C423.064 153.446 423.586 153.44 423.994 153.44C426.982 153.44 428.476 154.688 428.476 157.184C428.476 158.12 428.206 158.9 427.666 159.524C427.162 160.136 426.52 160.544 425.74 160.748L429.934 166.076H428.062L424.192 161.036H422.14ZM423.904 154.88C423.784 154.88 423.196 154.892 422.14 154.916V159.596H423.994C424.774 159.596 425.44 159.38 425.992 158.948C426.568 158.492 426.856 157.91 426.856 157.202C426.856 155.654 425.872 154.88 423.904 154.88Z" fill="#F5F5F5"/>
<path d="M437.199 164.06L437.649 165.194C436.869 165.902 435.855 166.256 434.607 166.256C433.287 166.256 432.237 165.872 431.457 165.104C430.665 164.336 430.269 163.31 430.269 162.026C430.269 160.814 430.641 159.806 431.385 159.002C432.117 158.198 433.137 157.796 434.445 157.796C435.525 157.796 436.419 158.144 437.127 158.84C437.847 159.524 438.207 160.412 438.207 161.504C438.207 161.852 438.177 162.176 438.117 162.476H431.889C431.949 163.232 432.231 163.826 432.735 164.258C433.251 164.69 433.911 164.906 434.715 164.906C435.771 164.906 436.599 164.624 437.199 164.06ZM434.373 159.146C433.665 159.146 433.077 159.344 432.609 159.74C432.153 160.136 431.883 160.658 431.799 161.306H436.713C436.677 160.634 436.449 160.106 436.029 159.722C435.621 159.338 435.069 159.146 434.373 159.146Z" fill="#F5F5F5"/>
<path d="M438.939 167.246C438.939 166.622 439.167 166.1 439.623 165.68C440.079 165.26 440.715 164.96 441.531 164.78C441.399 164.612 441.333 164.39 441.333 164.114C441.333 163.838 441.405 163.61 441.549 163.43C440.973 163.202 440.523 162.854 440.199 162.386C439.887 161.918 439.731 161.378 439.731 160.766C439.731 159.926 440.031 159.224 440.631 158.66C441.243 158.084 442.047 157.796 443.043 157.796C443.811 157.796 444.495 157.994 445.095 158.39L447.471 157.814L447.507 158.984L445.977 159.362C446.229 159.782 446.355 160.25 446.355 160.766C446.355 161.594 446.049 162.29 445.437 162.854C444.837 163.406 444.039 163.682 443.043 163.682C442.767 163.682 442.587 163.676 442.503 163.664C442.443 163.808 442.413 163.958 442.413 164.114C442.413 164.33 442.467 164.51 442.575 164.654C442.599 164.654 442.671 164.654 442.791 164.654C442.923 164.642 443.013 164.636 443.061 164.636C444.321 164.636 445.323 164.864 446.067 165.32C446.811 165.764 447.183 166.406 447.183 167.246C447.183 168.062 446.811 168.692 446.067 169.136C445.323 169.592 444.321 169.82 443.061 169.82C441.789 169.82 440.781 169.598 440.037 169.154C439.305 168.722 438.939 168.086 438.939 167.246ZM445.833 167.246C445.833 166.802 445.587 166.448 445.095 166.184C444.603 165.932 443.925 165.806 443.061 165.806C442.197 165.806 441.519 165.932 441.027 166.184C440.535 166.448 440.289 166.802 440.289 167.246C440.289 167.69 440.535 168.032 441.027 168.272C441.519 168.524 442.197 168.65 443.061 168.65C443.925 168.65 444.603 168.53 445.095 168.29C445.587 168.05 445.833 167.702 445.833 167.246ZM441.081 160.766C441.081 161.27 441.261 161.69 441.621 162.026C441.993 162.35 442.467 162.512 443.043 162.512C443.619 162.512 444.087 162.35 444.447 162.026C444.819 161.702 445.005 161.282 445.005 160.766C445.005 160.25 444.825 159.824 444.465 159.488C444.093 159.14 443.619 158.966 443.043 158.966C442.467 158.966 441.993 159.14 441.621 159.488C441.261 159.824 441.081 160.25 441.081 160.766Z" fill="#F5F5F5"/>
<path d="M454.619 157.976H456.059V166.076H454.619V164.924C453.863 165.812 452.909 166.256 451.757 166.256C450.809 166.256 450.071 165.968 449.543 165.392C449.027 164.804 448.769 163.94 448.769 162.8V157.976H450.209V162.476C450.209 164.096 450.905 164.906 452.297 164.906C452.729 164.906 453.155 164.798 453.575 164.582C454.007 164.354 454.355 164.06 454.619 163.7V157.976Z" fill="#F5F5F5"/>
<path d="M458.67 163.916V153.476H460.11V163.268C460.11 164.336 460.428 164.87 461.064 164.87C461.376 164.87 461.718 164.75 462.09 164.51L462.414 165.608C461.898 166.016 461.262 166.22 460.506 166.22C459.282 166.22 458.67 165.452 458.67 163.916Z" fill="#F5F5F5"/>
<path d="M464.323 159.686L463.945 158.534C464.749 158.042 465.649 157.796 466.645 157.796C467.737 157.796 468.529 158.066 469.021 158.606C469.513 159.146 469.759 159.98 469.759 161.108V166.076H468.391V165.032C467.755 165.812 466.891 166.202 465.799 166.202C465.055 166.202 464.455 165.98 463.999 165.536C463.543 165.08 463.315 164.468 463.315 163.7C463.315 162.908 463.597 162.284 464.161 161.828C464.725 161.36 465.463 161.126 466.375 161.126C467.227 161.126 467.899 161.3 468.391 161.648C468.391 160.736 468.265 160.082 468.013 159.686C467.761 159.29 467.275 159.092 466.555 159.092C465.823 159.092 465.079 159.29 464.323 159.686ZM466.303 164.906C467.107 164.906 467.803 164.558 468.391 163.862V162.836C467.887 162.476 467.281 162.296 466.573 162.296C466.081 162.296 465.667 162.416 465.331 162.656C465.007 162.884 464.845 163.208 464.845 163.628C464.845 164.024 464.971 164.336 465.223 164.564C465.487 164.792 465.847 164.906 466.303 164.906Z" fill="#F5F5F5"/>
<path d="M473.61 166.076H472.17V157.976H473.61V158.93C474.09 158.198 474.768 157.832 475.644 157.832C476.208 157.832 476.628 157.934 476.904 158.138L476.4 159.488C476.052 159.284 475.686 159.182 475.302 159.182C474.57 159.182 474.006 159.566 473.61 160.334V166.076Z" fill="#F5F5F5"/>
<path d="M481.628 169.82L480.494 169.406L486.488 153.296L487.604 153.71L481.628 169.82Z" fill="#F5F5F5"/>
<path d="M500.286 166.076H492.996V153.476H500.106V154.916H494.526V158.984H499.566V160.424H494.526V164.636H500.286V166.076Z" fill="#F5F5F5"/>
<path d="M508.282 157.976H509.956L507.058 161.882L510.136 166.076H508.372L505.996 162.8L503.584 166.076H501.91L504.97 161.954L502.09 157.976H503.854L506.05 161.036L508.282 157.976Z" fill="#F5F5F5"/>
<path d="M511.699 162.998V155.726H513.139V157.976H516.109V159.326H513.139V162.854C513.139 164.198 513.619 164.87 514.579 164.87C515.047 164.87 515.473 164.72 515.857 164.42L516.307 165.536C515.743 165.992 515.053 166.22 514.237 166.22C513.361 166.22 512.719 165.956 512.311 165.428C511.903 164.9 511.699 164.09 511.699 162.998Z" fill="#F5F5F5"/>
<path d="M519.665 166.076H518.225V157.976H519.665V158.93C520.145 158.198 520.823 157.832 521.699 157.832C522.263 157.832 522.683 157.934 522.959 158.138L522.455 159.488C522.107 159.284 521.741 159.182 521.357 159.182C520.625 159.182 520.061 159.566 519.665 160.334V166.076Z" fill="#F5F5F5"/>
<path d="M524.774 159.686L524.396 158.534C525.2 158.042 526.1 157.796 527.096 157.796C528.188 157.796 528.98 158.066 529.472 158.606C529.964 159.146 530.21 159.98 530.21 161.108V166.076H528.842V165.032C528.206 165.812 527.342 166.202 526.25 166.202C525.506 166.202 524.906 165.98 524.45 165.536C523.994 165.08 523.766 164.468 523.766 163.7C523.766 162.908 524.048 162.284 524.612 161.828C525.176 161.36 525.914 161.126 526.826 161.126C527.678 161.126 528.35 161.3 528.842 161.648C528.842 160.736 528.716 160.082 528.464 159.686C528.212 159.29 527.726 159.092 527.006 159.092C526.274 159.092 525.53 159.29 524.774 159.686ZM526.754 164.906C527.558 164.906 528.254 164.558 528.842 163.862V162.836C528.338 162.476 527.732 162.296 527.024 162.296C526.532 162.296 526.118 162.416 525.782 162.656C525.458 162.884 525.296 163.208 525.296 163.628C525.296 164.024 525.422 164.336 525.674 164.564C525.938 164.792 526.298 164.906 526.754 164.906Z" fill="#F5F5F5"/>
<path d="M533.215 166.058V153.494C534.883 153.446 536.035 153.422 536.671 153.422C538.039 153.422 539.053 153.698 539.713 154.25C540.385 154.79 540.721 155.552 540.721 156.536C540.721 157.268 540.529 157.88 540.145 158.372C539.761 158.864 539.233 159.224 538.561 159.452V159.488C539.377 159.62 540.013 159.944 540.469 160.46C540.937 160.976 541.171 161.648 541.171 162.476C541.171 163.676 540.763 164.588 539.947 165.212C539.131 165.824 538.015 166.13 536.599 166.13C535.219 166.13 534.091 166.106 533.215 166.058ZM536.779 160.334H534.745V164.618C535.237 164.666 535.885 164.69 536.689 164.69C537.637 164.69 538.363 164.498 538.867 164.114C539.383 163.718 539.641 163.142 539.641 162.386C539.641 161.726 539.389 161.222 538.885 160.874C538.393 160.514 537.691 160.334 536.779 160.334ZM536.635 154.862C536.275 154.862 535.645 154.88 534.745 154.916V158.984H536.761C537.469 158.984 538.051 158.798 538.507 158.426C538.963 158.042 539.191 157.526 539.191 156.878C539.191 155.534 538.339 154.862 536.635 154.862Z" fill="#F5F5F5"/>
<path d="M544.378 165.068C543.586 164.252 543.19 163.238 543.19 162.026C543.19 160.802 543.586 159.794 544.378 159.002C545.182 158.198 546.226 157.796 547.51 157.796C548.794 157.796 549.832 158.198 550.624 159.002C551.428 159.794 551.83 160.802 551.83 162.026C551.83 163.25 551.428 164.264 550.624 165.068C549.832 165.86 548.794 166.256 547.51 166.256C546.238 166.256 545.194 165.86 544.378 165.068ZM545.512 159.956C544.984 160.484 544.72 161.174 544.72 162.026C544.72 162.878 544.978 163.568 545.494 164.096C546.022 164.636 546.694 164.906 547.51 164.906C548.326 164.906 548.992 164.642 549.508 164.114C550.036 163.574 550.3 162.878 550.3 162.026C550.3 161.198 550.036 160.508 549.508 159.956C548.992 159.416 548.326 159.146 547.51 159.146C546.694 159.146 546.028 159.416 545.512 159.956Z" fill="#F5F5F5"/>
<path d="M553.908 163.916V153.476H555.348V163.268C555.348 164.336 555.666 164.87 556.302 164.87C556.614 164.87 556.956 164.75 557.328 164.51L557.652 165.608C557.136 166.016 556.5 166.22 555.744 166.22C554.52 166.22 553.908 165.452 553.908 163.916Z" fill="#F5F5F5"/>
<path d="M566.509 166.076H565.069V165.05C564.349 165.83 563.491 166.22 562.495 166.22C561.307 166.22 560.359 165.842 559.651 165.086C558.943 164.318 558.589 163.316 558.589 162.08C558.589 160.82 559.003 159.794 559.831 159.002C560.671 158.198 561.733 157.796 563.017 157.796C563.833 157.796 564.517 157.988 565.069 158.372V153.476H566.509V166.076ZM562.765 164.87C563.653 164.87 564.421 164.51 565.069 163.79V159.776C564.397 159.356 563.731 159.146 563.071 159.146C562.243 159.146 561.541 159.416 560.965 159.956C560.401 160.484 560.119 161.18 560.119 162.044C560.119 162.908 560.359 163.598 560.839 164.114C561.331 164.618 561.973 164.87 562.765 164.87Z" fill="#F5F5F5"/>
<path d="M294.09 193.37H287.844V191.93H294.072C293.916 190.634 293.382 189.614 292.47 188.87C291.558 188.114 290.394 187.736 288.978 187.736C287.73 187.736 286.668 188.078 285.792 188.762L285.198 187.61C286.182 186.734 287.562 186.296 289.338 186.296C291.21 186.296 292.734 186.884 293.91 188.06C295.074 189.224 295.656 190.784 295.656 192.74C295.656 194.672 295.068 196.244 293.892 197.456C292.728 198.656 291.162 199.256 289.194 199.256C287.49 199.256 286.092 198.818 285 197.942L285.666 196.664C286.686 197.432 287.85 197.816 289.158 197.816C290.502 197.816 291.624 197.42 292.524 196.628C293.448 195.812 293.97 194.726 294.09 193.37Z" fill="#F5F5F5"/>
<path d="M299.792 192.416H296.822V190.976H304.202V192.416H301.232V199.076H299.792V192.416Z" fill="#F5F5F5"/>
<path d="M306.16 198.068C305.368 197.252 304.972 196.238 304.972 195.026C304.972 193.802 305.368 192.794 306.16 192.002C306.964 191.198 308.008 190.796 309.292 190.796C310.576 190.796 311.614 191.198 312.406 192.002C313.21 192.794 313.612 193.802 313.612 195.026C313.612 196.25 313.21 197.264 312.406 198.068C311.614 198.86 310.576 199.256 309.292 199.256C308.02 199.256 306.976 198.86 306.16 198.068ZM307.294 192.956C306.766 193.484 306.502 194.174 306.502 195.026C306.502 195.878 306.76 196.568 307.276 197.096C307.804 197.636 308.476 197.906 309.292 197.906C310.108 197.906 310.774 197.642 311.29 197.114C311.818 196.574 312.082 195.878 312.082 195.026C312.082 194.198 311.818 193.508 311.29 192.956C310.774 192.416 310.108 192.146 309.292 192.146C308.476 192.146 307.81 192.416 307.294 192.956Z" fill="#F5F5F5"/>
<path d="M327.112 199.076H325.672V195.656H321.172V199.076H319.732V190.976H321.172V194.306H325.672V190.976H327.112V199.076Z" fill="#F5F5F5"/>
<path d="M336.107 197.06L336.557 198.194C335.777 198.902 334.763 199.256 333.515 199.256C332.195 199.256 331.145 198.872 330.365 198.104C329.573 197.336 329.177 196.31 329.177 195.026C329.177 193.814 329.549 192.806 330.293 192.002C331.025 191.198 332.045 190.796 333.353 190.796C334.433 190.796 335.327 191.144 336.035 191.84C336.755 192.524 337.115 193.412 337.115 194.504C337.115 194.852 337.085 195.176 337.025 195.476H330.797C330.857 196.232 331.139 196.826 331.643 197.258C332.159 197.69 332.819 197.906 333.623 197.906C334.679 197.906 335.507 197.624 336.107 197.06ZM333.281 192.146C332.573 192.146 331.985 192.344 331.517 192.74C331.061 193.136 330.791 193.658 330.707 194.306H335.621C335.585 193.634 335.357 193.106 334.937 192.722C334.529 192.338 333.977 192.146 333.281 192.146Z" fill="#F5F5F5"/>
<path d="M344.551 199.076H343.111V190.976H344.425L347.539 194.99L350.491 190.976H351.769V199.076H350.329V193.172L347.521 196.934H347.467L344.551 193.172V199.076Z" fill="#F5F5F5"/>
<path d="M354.811 192.686L354.433 191.534C355.237 191.042 356.137 190.796 357.133 190.796C358.225 190.796 359.017 191.066 359.509 191.606C360.001 192.146 360.247 192.98 360.247 194.108V199.076H358.879V198.032C358.243 198.812 357.379 199.202 356.287 199.202C355.543 199.202 354.943 198.98 354.487 198.536C354.031 198.08 353.803 197.468 353.803 196.7C353.803 195.908 354.085 195.284 354.649 194.828C355.213 194.36 355.951 194.126 356.863 194.126C357.715 194.126 358.387 194.3 358.879 194.648C358.879 193.736 358.753 193.082 358.501 192.686C358.249 192.29 357.763 192.092 357.043 192.092C356.311 192.092 355.567 192.29 354.811 192.686ZM356.791 197.906C357.595 197.906 358.291 197.558 358.879 196.862V195.836C358.375 195.476 357.769 195.296 357.061 195.296C356.569 195.296 356.155 195.416 355.819 195.656C355.495 195.884 355.333 196.208 355.333 196.628C355.333 197.024 355.459 197.336 355.711 197.564C355.975 197.792 356.335 197.906 356.791 197.906Z" fill="#F5F5F5"/>
<path d="M364.098 199.076H362.658V190.976H367.788V192.326H364.098V199.076Z" fill="#F5F5F5"/>
<path d="M375.3 193.046L370.62 199.076H369.18V190.976H370.62V197.006L375.3 190.976H376.74V199.076H375.3V193.046Z" fill="#F5F5F5"/>
<path d="M382.903 190.976H385.423V199.076H383.983V196.376H382.417L380.437 199.076H378.691L381.031 196.016C380.539 195.908 380.125 195.644 379.789 195.224C379.453 194.792 379.285 194.276 379.285 193.676C379.285 192.848 379.585 192.194 380.185 191.714C380.785 191.222 381.691 190.976 382.903 190.976ZM380.815 193.712C380.815 194.096 380.965 194.414 381.265 194.666C381.565 194.906 381.919 195.026 382.327 195.026H383.983V192.326H382.669C382.057 192.326 381.595 192.452 381.283 192.704C380.971 192.956 380.815 193.292 380.815 193.712Z" fill="#F5F5F5"/>
<path d="M387.717 198.248C387.717 197.96 387.807 197.732 387.987 197.564C388.167 197.384 388.419 197.294 388.743 197.294C389.127 197.294 389.439 197.456 389.679 197.78C389.919 198.092 390.039 198.512 390.039 199.04C390.039 199.688 389.859 200.246 389.499 200.714C389.151 201.194 388.671 201.524 388.059 201.704L387.663 201.02C388.287 200.828 388.671 200.426 388.815 199.814C388.899 199.406 388.893 199.106 388.797 198.914C388.725 199.022 388.593 199.076 388.401 199.076C388.221 199.076 388.059 198.998 387.915 198.842C387.783 198.674 387.717 198.476 387.717 198.248Z" fill="#F5F5F5"/>
<path d="M400.539 195.548H396.543V194.378H400.521C400.413 193.658 400.107 193.106 399.603 192.722C399.111 192.338 398.481 192.146 397.713 192.146C396.717 192.146 395.889 192.44 395.229 193.028L394.617 191.948C394.965 191.6 395.427 191.324 396.003 191.12C396.579 190.904 397.143 190.796 397.695 190.796C398.991 190.796 400.029 191.18 400.809 191.948C401.613 192.716 402.015 193.742 402.015 195.026C402.015 196.214 401.625 197.216 400.845 198.032C400.065 198.848 399.087 199.256 397.911 199.256C396.447 199.256 395.361 198.914 394.653 198.23L395.337 197.168C395.889 197.66 396.717 197.906 397.821 197.906C398.577 197.906 399.195 197.702 399.675 197.294C400.155 196.874 400.443 196.292 400.539 195.548Z" fill="#F5F5F5"/>
<path d="M405.717 192.416H402.747V190.976H410.127V192.416H407.157V199.076H405.717V192.416Z" fill="#F5F5F5"/>
<path d="M412.085 198.068C411.293 197.252 410.897 196.238 410.897 195.026C410.897 193.802 411.293 192.794 412.085 192.002C412.889 191.198 413.933 190.796 415.217 190.796C416.501 190.796 417.539 191.198 418.331 192.002C419.135 192.794 419.537 193.802 419.537 195.026C419.537 196.25 419.135 197.264 418.331 198.068C417.539 198.86 416.501 199.256 415.217 199.256C413.945 199.256 412.901 198.86 412.085 198.068ZM413.219 192.956C412.691 193.484 412.427 194.174 412.427 195.026C412.427 195.878 412.685 196.568 413.201 197.096C413.729 197.636 414.401 197.906 415.217 197.906C416.033 197.906 416.699 197.642 417.215 197.114C417.743 196.574 418.007 195.878 418.007 195.026C418.007 194.198 417.743 193.508 417.215 192.956C416.699 192.416 416.033 192.146 415.217 192.146C414.401 192.146 413.735 192.416 413.219 192.956Z" fill="#F5F5F5"/>
<path d="M427.098 199.076H425.658V190.976H426.972L430.086 194.99L433.038 190.976H434.316V199.076H432.876V193.172L430.068 196.934H430.014L427.098 193.172V199.076Z" fill="#F5F5F5"/>
<path d="M437.358 192.686L436.98 191.534C437.784 191.042 438.684 190.796 439.68 190.796C440.772 190.796 441.564 191.066 442.056 191.606C442.548 192.146 442.794 192.98 442.794 194.108V199.076H441.426V198.032C440.79 198.812 439.926 199.202 438.834 199.202C438.09 199.202 437.49 198.98 437.034 198.536C436.578 198.08 436.35 197.468 436.35 196.7C436.35 195.908 436.632 195.284 437.196 194.828C437.76 194.36 438.498 194.126 439.41 194.126C440.262 194.126 440.934 194.3 441.426 194.648C441.426 193.736 441.3 193.082 441.048 192.686C440.796 192.29 440.31 192.092 439.59 192.092C438.858 192.092 438.114 192.29 437.358 192.686ZM439.338 197.906C440.142 197.906 440.838 197.558 441.426 196.862V195.836C440.922 195.476 440.316 195.296 439.608 195.296C439.116 195.296 438.702 195.416 438.366 195.656C438.042 195.884 437.88 196.208 437.88 196.628C437.88 197.024 438.006 197.336 438.258 197.564C438.522 197.792 438.882 197.906 439.338 197.906Z" fill="#F5F5F5"/>
<path d="M446.645 202.676H445.205V190.976H446.645V191.93C446.933 191.594 447.329 191.324 447.833 191.12C448.337 190.904 448.859 190.796 449.399 190.796C450.551 190.796 451.457 191.18 452.117 191.948C452.801 192.704 453.143 193.688 453.143 194.9C453.143 196.136 452.753 197.174 451.973 198.014C451.205 198.842 450.191 199.256 448.931 199.256C447.959 199.256 447.197 199.07 446.645 198.698V202.676ZM448.985 192.146C448.025 192.146 447.245 192.518 446.645 193.262V197.276C447.281 197.696 448.001 197.906 448.805 197.906C449.657 197.906 450.335 197.636 450.839 197.096C451.355 196.544 451.613 195.83 451.613 194.954C451.613 194.102 451.379 193.424 450.911 192.92C450.443 192.404 449.801 192.146 448.985 192.146Z" fill="#F5F5F5"/>
<path d="M460.409 190.976H462.299L458.753 194.846L462.641 199.076H460.643L456.989 194.936L460.409 190.976ZM456.647 199.076H455.207V190.976H456.647V199.076Z" fill="#F5F5F5"/>
<path d="M470.122 197.06L470.572 198.194C469.792 198.902 468.778 199.256 467.53 199.256C466.21 199.256 465.16 198.872 464.38 198.104C463.588 197.336 463.192 196.31 463.192 195.026C463.192 193.814 463.564 192.806 464.308 192.002C465.04 191.198 466.06 190.796 467.368 190.796C468.448 190.796 469.342 191.144 470.05 191.84C470.77 192.524 471.13 193.412 471.13 194.504C471.13 194.852 471.1 195.176 471.04 195.476H464.812C464.872 196.232 465.154 196.826 465.658 197.258C466.174 197.69 466.834 197.906 467.638 197.906C468.694 197.906 469.522 197.624 470.122 197.06ZM467.296 192.146C466.588 192.146 466 192.344 465.532 192.74C465.076 193.136 464.806 193.658 464.722 194.306H469.636C469.6 193.634 469.372 193.106 468.952 192.722C468.544 192.338 467.992 192.146 467.296 192.146Z" fill="#F5F5F5"/>
<path d="M474.87 192.416H471.9V190.976H479.28V192.416H476.31V199.076H474.87V192.416Z" fill="#F5F5F5"/>
<path d="M486.973 193.046L482.294 199.076H480.854V190.976H482.294V197.006L486.973 190.976H488.413V199.076H486.973V193.046Z" fill="#F5F5F5"/>
<path d="M498.411 199.076H496.971V195.656H492.471V199.076H491.031V190.976H492.471V194.306H496.971V190.976H498.411V199.076Z" fill="#F5F5F5"/>
<path d="M502.456 199.076H501.016V190.976H506.146V192.326H502.456V199.076Z" fill="#F5F5F5"/>
</svg>
