<svg width="590" height="590" viewBox="0 0 590 590" fill="none" xmlns="http://www.w3.org/2000/svg">
<g opacity="0.15">
<path d="M573.54 286.836C574.844 286.633 575.86 286.302 576.587 285.844C577.374 285.393 577.939 284.762 578.284 283.952C578.681 283.209 578.955 282.237 579.104 281.037L579.25 279.867L583.658 280.414L580.155 308.5L575.748 307.953L576.006 305.882C576.231 304.082 576.039 302.687 575.432 301.698C574.885 300.715 573.861 300.131 572.362 299.945C572.062 299.908 571.669 299.89 571.182 299.89C570.687 299.95 570.162 300.007 569.608 300.06C569.053 300.113 568.528 300.17 568.034 300.23L543.333 304.202C541.655 304.482 539.886 304.749 538.027 305.006C536.168 305.263 534.347 305.463 532.563 305.608C530.772 305.812 529.175 305.918 527.773 305.927C529.812 306.668 531.851 307.408 533.89 308.149C535.921 308.95 538.005 309.818 540.142 310.754L577.213 326.966L576.405 333.448L538.844 340.942C536.835 341.424 534.838 341.816 532.851 342.117C530.865 342.419 529.036 342.68 527.365 342.899C525.694 343.118 524.247 343.243 523.025 343.274C524.427 343.753 525.975 344.28 527.669 344.856C529.355 345.492 531.102 346.136 532.909 346.787C534.775 347.445 536.638 348.133 538.497 348.852L560.333 357.596C561.03 357.866 561.847 358.15 562.784 358.449C563.773 358.816 564.508 359.029 564.988 359.089C566.547 359.282 567.716 358.94 568.495 358.061C569.274 357.183 569.788 355.754 570.035 353.773L570.293 351.703L574.7 352.25L571.838 375.205L567.43 374.658L567.644 372.948C567.786 371.807 567.729 370.795 567.474 369.91C567.279 369.032 566.709 368.23 565.765 367.504C564.82 366.777 563.392 366.021 561.481 365.235L510.478 344.276L511.657 334.824L558.853 325.509L515.181 306.557L516.438 296.475L573.54 286.836Z" fill="white"/>
<path d="M505.246 364.749L509.252 366.667L508.037 369.203C507.593 370.131 507.298 371.029 507.15 371.897C507.002 372.765 507.165 373.614 507.639 374.444C508.166 375.301 509.166 376.081 510.637 376.786L550.446 395.848C552.081 396.631 553.398 396.96 554.396 396.834C555.367 396.763 556.145 396.398 556.729 395.738C557.367 395.105 557.921 394.297 558.391 393.315L559.605 390.779L563.611 392.697L542.653 436.476L527.662 429.8L530.13 424.645L534.086 426.036C535.446 426.553 536.707 426.788 537.868 426.741C539.003 426.748 540.039 426.473 540.976 425.916C541.913 425.358 542.695 424.425 543.321 423.116L549.902 409.368L528.976 399.348L519.653 418.823L515.075 416.631L524.399 397.156L500.857 385.883L493.14 402.003C492.513 403.313 492.276 404.507 492.429 405.586C492.611 406.746 493.047 407.793 493.739 408.728C494.485 409.689 495.418 410.538 496.538 411.276L500.024 413.649L497.556 418.804L483.035 411.147L505.246 364.749Z" fill="white"/>
<path d="M470.586 430.625L473.666 433.825L471.642 435.777C470.858 436.532 470.246 437.291 469.804 438.053C469.404 438.858 469.323 439.733 469.562 440.679C469.799 441.709 470.525 442.856 471.741 444.118L502.296 475.854C503.47 477.072 504.525 477.776 505.462 477.964C506.44 478.196 507.318 478.105 508.095 477.691C508.872 477.278 509.631 476.714 510.371 476.001L512.395 474.049L515.476 477.248L494.515 497.46C489.814 501.993 484.971 504.984 479.986 506.433C474.999 507.968 469.979 507.897 464.925 506.223C459.871 504.548 454.955 501.23 450.177 496.267C445.608 491.522 442.454 486.546 440.715 481.339C438.932 476.175 438.731 470.996 440.111 465.803C441.491 460.611 444.685 455.601 449.691 450.774L470.586 430.625ZM454.774 453.176C451.596 456.24 449.717 459.563 449.136 463.145C448.554 466.813 449.186 470.652 451.034 474.663C452.838 478.716 455.772 482.854 459.838 487.077C463.904 491.299 467.822 494.279 471.593 496.016C475.362 497.838 478.984 498.417 482.458 497.753C485.93 497.175 489.234 495.375 492.368 492.353L496.874 488.008L459.214 448.894L454.774 453.176Z" fill="white"/>
<path d="M398.012 487.676C402.498 485.295 406.668 483.869 410.523 483.397C414.377 482.925 417.866 483.572 420.989 485.336C424.112 487.1 426.819 490.146 429.11 494.473L445.442 525.324C446.234 526.82 447.054 527.787 447.902 528.227C448.779 528.72 449.648 528.874 450.509 528.691C451.369 528.508 452.254 528.176 453.161 527.694L455.645 526.376L457.723 530.303L431.769 544.076L429.691 540.15L432.174 538.832C433.082 538.35 433.866 537.763 434.525 537.071C435.16 536.46 435.519 535.654 435.604 534.651C435.635 533.676 435.227 532.387 434.378 530.785L417.919 499.693C416.306 496.648 414.486 494.501 412.456 493.252C410.455 492.055 408.307 491.553 406.014 491.743C403.749 491.987 401.388 492.761 398.932 494.065C396.261 495.482 394.259 497.126 392.924 498.998C391.536 500.898 390.868 502.997 390.922 505.295C390.922 507.622 391.601 510.067 392.959 512.631L409.715 544.284C410.507 545.779 411.327 546.747 412.176 547.186C413.052 547.679 413.921 547.834 414.782 547.651C415.643 547.468 416.527 547.136 417.435 546.654L419.918 545.336L421.997 549.262L401.33 560.23L399.251 556.304L401.814 554.943C402.669 554.49 403.426 553.917 404.085 553.225C404.773 552.586 405.133 551.779 405.164 550.805C405.195 549.83 404.787 548.542 403.938 546.939L387.267 515.447C385.4 511.921 384.495 508.467 384.551 505.084C384.635 501.754 385.778 498.616 387.98 495.668C390.182 492.72 393.526 490.056 398.012 487.676Z" fill="white"/>
<path d="M293.868 572.738C294.026 574.049 294.32 575.076 294.753 575.818C295.175 576.621 295.785 577.208 296.582 577.58C297.31 578.002 298.271 578.308 299.465 578.498L300.628 578.683L299.927 583.073L272.001 578.626L272.702 574.237L274.76 574.565C276.55 574.85 277.95 574.705 278.96 574.131C279.96 573.616 280.579 572.613 280.817 571.12C280.865 570.821 280.897 570.428 280.914 569.941C280.871 569.444 280.833 568.917 280.799 568.361C280.766 567.804 280.727 567.278 280.684 566.781L277.583 541.944C277.363 540.255 277.157 538.477 276.966 536.61C276.775 534.742 276.638 532.913 276.557 531.125C276.416 529.326 276.365 527.726 276.406 526.324C275.594 528.338 274.783 530.352 273.972 532.367C273.101 534.371 272.161 536.426 271.152 538.532L253.662 575.064L247.217 574.038L241.049 536.219C240.638 534.194 240.317 532.183 240.085 530.187C239.853 528.19 239.657 526.352 239.497 524.673C239.336 522.994 239.262 521.543 239.274 520.32C238.747 521.706 238.166 523.236 237.531 524.911C236.837 526.577 236.133 528.302 235.42 530.087C234.697 531.931 233.944 533.771 233.162 535.606L223.663 557.151C223.37 557.84 223.058 558.647 222.726 559.574C222.325 560.552 222.087 561.279 222.01 561.757C221.762 563.31 222.063 564.491 222.913 565.3C223.763 566.108 225.172 566.67 227.142 566.983L229.2 567.311L228.499 571.701L205.675 568.067L206.376 563.677L208.076 563.948C209.21 564.128 210.223 564.106 211.116 563.881C211.999 563.715 212.82 563.172 213.579 562.252C214.338 561.331 215.143 559.929 215.995 558.043L238.713 507.738L248.111 509.234L255.76 556.75L276.217 513.709L286.242 515.305L293.868 572.738Z" fill="white"/>
<path d="M218.787 501.865L216.736 505.808L214.243 504.512C213.332 504.038 212.445 503.713 211.583 503.537C210.721 503.361 209.868 503.497 209.022 503.943C208.149 504.443 207.336 505.418 206.583 506.867L186.198 546.065C185.36 547.675 184.988 548.981 185.079 549.983C185.118 550.957 185.456 551.747 186.095 552.352C186.706 553.011 187.493 553.591 188.458 554.093L190.951 555.39L188.9 559.334L145.885 536.954L153.06 522.177L158.125 524.812L156.601 528.724C156.039 530.067 155.762 531.321 155.77 532.484C155.724 533.619 155.964 534.664 156.489 535.619C157.014 536.574 157.919 537.386 159.206 538.055L172.713 545.083L183.429 524.478L164.293 514.522L166.637 510.015L185.773 519.97L197.828 496.789L181.989 488.549C180.703 487.879 179.518 487.604 178.435 487.722C177.27 487.866 176.21 488.269 175.253 488.93C174.268 489.645 173.388 490.551 172.614 491.648L170.125 495.057L165.06 492.422L173.199 478.146L218.787 501.865Z" fill="white"/>
<path d="M154.39 465.244L151.091 468.223L149.209 466.136C148.481 465.328 147.744 464.691 146.998 464.224C146.207 463.799 145.335 463.69 144.383 463.898C143.346 464.102 142.176 464.792 140.875 465.967L108.156 495.511C106.899 496.645 106.161 497.678 105.942 498.609C105.678 499.58 105.739 500.461 106.126 501.252C106.513 502.042 107.051 502.819 107.739 503.582L109.62 505.669L106.322 508.648L86.8378 487.036C82.4676 482.188 79.6425 477.248 78.3624 472.216C76.997 467.179 77.2351 462.16 79.0768 457.159C80.9185 452.158 84.3976 447.347 89.5141 442.727C94.4062 438.31 99.4815 435.314 104.74 433.742C109.958 432.124 115.137 432.089 120.277 433.636C125.416 435.183 130.313 438.538 134.967 443.699L154.39 465.244ZM132.397 448.706C129.443 445.43 126.187 443.444 122.629 442.748C118.986 442.048 115.13 442.558 111.062 444.277C106.954 445.951 102.723 448.754 98.3693 452.685C94.0158 456.616 90.9086 460.439 89.0478 464.155C87.1017 467.867 86.4019 471.47 86.9485 474.967C87.4097 478.459 89.097 481.82 92.0105 485.052L96.1986 489.698L136.525 453.285L132.397 448.706Z" fill="white"/>
<path d="M99.9659 391.133C102.189 395.698 103.471 399.916 103.809 403.786C104.148 407.657 103.383 411.125 101.514 414.191C99.6448 417.256 96.5101 419.863 92.1099 422.012L60.738 437.333C59.2169 438.076 58.2224 438.864 57.7544 439.698C57.2321 440.558 57.0476 441.422 57.2009 442.289C57.3542 443.156 57.6558 444.051 58.1058 444.975L59.3367 447.502L55.3439 449.452L42.4793 423.041L46.4721 421.091L47.7029 423.618C48.1529 424.542 48.7123 425.345 49.3809 426.028C49.9688 426.682 50.7621 427.068 51.7609 427.186C52.7332 427.249 54.0342 426.883 55.6639 426.087L87.2803 410.648C90.3767 409.135 92.5838 407.385 93.9014 405.396C95.1646 403.434 95.7405 401.303 95.6289 399.003C95.4629 396.729 94.7711 394.342 93.5535 391.843C92.23 389.125 90.6565 387.069 88.833 385.672C86.983 384.221 84.9095 383.484 82.6125 383.462C80.289 383.386 77.8235 383.985 75.216 385.258L43.0292 400.977C41.5081 401.719 40.5136 402.508 40.0457 403.342C39.5234 404.202 39.3389 405.066 39.4921 405.933C39.6454 406.8 39.9471 407.695 40.3971 408.619L41.628 411.146L37.6352 413.096L27.3911 392.065L31.3839 390.115L32.6545 392.723C33.078 393.593 33.6241 394.369 34.2928 395.051C34.9071 395.76 35.7004 396.147 36.6727 396.21C37.645 396.273 38.946 395.907 40.5757 395.111L72.5995 379.472C76.1849 377.722 79.6659 376.93 83.0424 377.097C86.3647 377.291 89.4599 378.538 92.3282 380.837C95.1965 383.136 97.7424 386.568 99.9659 391.133Z" fill="white"/>
<path d="M18.2397 283.966C16.9247 284.08 15.889 284.341 15.1324 284.748C14.3165 285.144 13.709 285.734 13.3097 286.519C12.8627 287.233 12.5235 288.184 12.2921 289.371L12.0665 290.529L7.70704 289.681L13.1225 261.899L17.4819 262.747L17.0826 264.795C16.7355 266.576 16.831 267.981 17.3692 269.01C17.848 270.027 18.8289 270.68 20.3116 270.968C20.6082 271.026 20.9995 271.071 21.4856 271.104C21.9832 271.078 22.5105 271.057 23.0674 271.042C23.6244 271.027 24.1517 271.007 24.6493 270.98L49.5621 268.71C51.2561 268.546 53.0391 268.4 54.911 268.271C56.7829 268.143 58.6136 268.067 60.403 268.046C62.2041 267.965 63.804 267.968 65.2029 268.055C63.2196 267.177 61.2362 266.298 59.2529 265.419C57.2811 264.481 55.2616 263.472 53.1944 262.392L17.3208 243.677L18.5705 237.266L56.5548 232.362C58.5917 232.019 60.6111 231.765 62.6133 231.6C64.6154 231.435 66.4576 231.3 68.14 231.196C69.8224 231.092 71.2741 231.067 72.4951 231.119C71.1294 230.546 69.6213 229.913 67.9707 229.223C66.3317 228.472 64.6333 227.711 62.8757 226.938C61.0587 226.153 59.2475 225.338 57.4421 224.494L36.257 214.274C35.5799 213.957 34.7843 213.618 33.87 213.255C32.908 212.821 32.1898 212.558 31.7153 212.466C30.1732 212.166 28.9833 212.428 28.1458 213.251C27.3082 214.073 26.6985 215.464 26.3166 217.423L25.9174 219.471L21.558 218.623L25.9841 195.917L30.3435 196.765L30.0137 198.457C29.7938 199.585 29.7808 200.599 29.9747 201.499C30.1093 202.388 30.6228 203.227 31.5154 204.017C32.408 204.807 33.7808 205.659 35.634 206.574L85.0806 230.98L83.2581 240.329L35.5374 246.389L77.808 268.289L75.864 278.262L18.2397 283.966Z" fill="white"/>
<path d="M91.3493 211.541L87.4795 209.362L88.8587 206.911C89.363 206.015 89.7174 205.139 89.922 204.282C90.1267 203.426 90.0203 202.568 89.6027 201.708C89.1326 200.818 88.1867 199.974 86.7652 199.173L48.3044 177.518C46.7249 176.629 45.4331 176.214 44.4291 176.273C43.4547 176.28 42.6546 176.593 42.0287 177.212C41.3503 177.802 40.7441 178.571 40.2102 179.52L38.831 181.971L34.9612 179.792L58.7635 137.493L73.2804 145.146L70.4775 150.127L66.6223 148.477C65.2993 147.871 64.0569 147.553 62.8949 147.524C61.7626 147.441 60.7107 147.647 59.7393 148.141C58.7679 148.636 57.9263 149.515 57.2144 150.78L49.74 164.063L69.9576 175.446L80.5463 156.629L84.9689 159.119L74.3802 177.936L97.125 190.743L105.89 175.167C106.601 173.902 106.917 172.726 106.835 171.639C106.73 170.469 106.364 169.395 105.736 168.417C105.055 167.409 104.18 166.5 103.111 165.69L99.7894 163.091L102.592 158.11L116.575 166.711L91.3493 211.541Z" fill="white"/>
<path d="M129.552 148.482L126.688 145.087L128.835 143.272C129.667 142.569 130.328 141.852 130.818 141.121C131.27 140.344 131.408 139.476 131.232 138.517C131.063 137.473 130.413 136.281 129.283 134.941L100.875 101.268C99.7835 99.9744 98.7768 99.2032 97.8545 98.954C96.8933 98.6586 96.0114 98.6917 95.2089 99.0534C94.4064 99.415 93.6126 99.9276 92.8275 100.591L90.6798 102.406L87.8156 99.011L110.054 80.2176C115.042 76.0023 120.071 73.3353 125.14 72.2166C130.216 71.0127 135.22 71.412 140.154 73.4147C145.087 75.4173 149.775 79.0515 154.217 84.3174C158.465 89.3522 161.286 94.5246 162.68 99.8345C164.12 105.105 163.982 110.286 162.264 115.378C160.547 120.469 157.032 125.259 151.721 129.747L129.552 148.482ZM146.807 127.016C150.178 124.167 152.271 120.974 153.085 117.438C153.906 113.816 153.527 109.944 151.946 105.82C150.412 101.657 147.755 97.335 143.975 92.8544C140.195 88.3738 136.48 85.1433 132.832 83.1628C129.19 81.0972 125.614 80.2815 122.104 80.7159C118.601 81.0651 115.187 82.6448 111.862 85.455L107.082 89.4947L142.096 130.998L146.807 127.016Z" fill="white"/>
<path d="M205.517 96.0539C200.882 98.127 196.625 99.2691 192.748 99.4801C188.87 99.6911 185.433 98.8113 182.436 96.8406C179.439 94.8699 176.943 91.6487 174.949 87.1768L160.729 55.294C160.04 53.7482 159.287 52.7275 158.47 52.2319C157.629 51.6811 156.773 51.4681 155.901 51.5927C155.03 51.7174 154.126 51.9896 153.188 52.4091L150.621 53.5567L148.812 49.4989L175.632 37.5045L177.442 41.5623L174.876 42.7099C173.938 43.1295 173.116 43.6624 172.411 44.3086C171.737 44.875 171.324 45.6556 171.172 46.6507C171.076 47.621 171.396 48.9343 172.135 50.5906L186.465 82.7218C187.869 85.8687 189.541 88.1338 191.482 89.5173C193.398 90.8456 195.507 91.4919 197.807 91.4562C200.084 91.3654 202.491 90.7523 205.03 89.617C207.789 88.383 209.897 86.8772 211.355 85.0995C212.868 83.2972 213.675 81.2477 213.776 78.951C213.932 76.6297 213.419 74.1441 212.238 71.4941L197.649 38.7832C196.959 37.2373 196.206 36.2166 195.39 35.721C194.548 35.1702 193.692 34.9572 192.821 35.0819C191.95 35.2066 191.045 35.4787 190.107 35.8982L187.541 37.0459L185.731 32.988L207.088 23.4369L208.898 27.4947L206.249 28.6794C205.366 29.0742 204.572 29.5948 203.867 30.241C203.138 30.8321 202.725 31.6128 202.628 32.5831C202.532 33.5535 202.852 34.8668 203.591 36.523L218.106 69.0683C219.731 72.712 220.402 76.2197 220.118 79.5913C219.81 82.9076 218.459 85.9622 216.063 88.755C213.668 91.5478 210.153 93.9808 205.517 96.0539Z" fill="white"/>
<path d="M287.603 16.8431C287.4 15.5382 287.07 14.5221 286.613 13.7949C286.163 13.0078 285.533 12.442 284.723 12.0978C283.981 11.7009 283.011 11.428 281.811 11.2791L280.642 11.1339L281.192 6.72292L309.255 10.2074L308.705 14.6184L306.637 14.3615C304.838 14.1382 303.444 14.3307 302.454 14.9392C301.472 15.4877 300.888 16.5121 300.701 18.0124C300.664 18.3125 300.645 18.7063 300.645 19.1938C300.705 19.6888 300.761 20.2138 300.814 20.7688C300.867 21.3239 300.923 21.8489 300.983 22.3439L304.934 47.0592C305.212 48.7391 305.478 50.509 305.734 52.369C305.989 54.229 306.188 56.0515 306.331 57.8366C306.533 59.6291 306.639 61.2266 306.646 62.6293C307.388 60.5884 308.13 58.5475 308.871 56.5066C309.673 54.4731 310.542 52.3871 311.478 50.2485L327.706 13.1382L334.182 13.9423L341.644 51.5258C342.124 53.5355 342.514 55.5342 342.814 57.5216C343.114 59.509 343.373 61.339 343.591 63.0115C343.809 64.684 343.933 66.1315 343.963 67.3541C344.442 65.951 344.971 64.4016 345.547 62.7059C346.184 61.0176 346.828 59.2693 347.48 57.461C348.139 55.5927 348.829 53.7281 349.548 51.8673L358.302 30.0093C358.571 29.3115 358.856 28.4936 359.156 27.5557C359.523 26.5653 359.736 25.83 359.796 25.3499C359.991 23.7896 359.649 22.6197 358.772 21.8405C357.895 21.0612 356.467 20.5487 354.488 20.303L352.42 20.0461L352.97 15.6351L375.906 18.483L375.356 22.894L373.647 22.6818C372.508 22.5404 371.496 22.5975 370.611 22.8534C369.734 23.0492 368.933 23.62 368.206 24.5658C367.479 25.5116 366.722 26.9412 365.935 28.8546L344.955 79.9096L335.511 78.7369L326.237 31.5128L307.267 75.2301L297.193 73.9793L287.603 16.8431Z" fill="white"/>
<path d="M365.559 85.0147L367.478 81.005L370.012 82.2184C370.939 82.662 371.836 82.9574 372.703 83.1045C373.57 83.2516 374.419 83.088 375.249 82.6137C376.105 82.0848 376.886 81.0838 377.591 79.6109L396.668 39.7595C397.451 38.1229 397.781 36.8052 397.656 35.8066C397.586 34.8341 397.221 34.0561 396.563 33.4726C395.93 32.8345 395.124 32.2806 394.143 31.8108L391.609 30.5974L393.528 26.5877L437.261 47.529L430.579 62.536L425.429 60.07L426.823 56.1101C427.34 54.7487 427.576 53.4868 427.529 52.3245C427.537 51.1883 427.263 50.1518 426.707 49.2148C426.151 48.2779 425.219 47.4962 423.911 46.8699L410.178 40.294L400.15 61.2426L419.605 70.5585L417.411 75.141L397.956 65.8251L386.674 89.3923L402.778 97.1034C404.085 97.7296 405.279 97.9657 406.357 97.8116C407.516 97.629 408.563 97.1915 409.498 96.4989C410.458 95.7518 411.307 94.8173 412.046 93.6954L414.42 90.2052L419.569 92.6712L411.907 107.209L365.559 85.0147Z" fill="white"/>
<path d="M431.12 119.192L434.319 116.107L436.268 118.131C437.023 118.915 437.78 119.527 438.541 119.969C439.346 120.369 440.22 120.449 441.165 120.209C442.195 119.971 443.341 119.244 444.604 118.027L476.338 87.4261C477.557 86.2508 478.261 85.1944 478.449 84.2569C478.682 83.2775 478.591 82.3991 478.179 81.6217C477.766 80.8443 477.203 80.0856 476.491 79.3456L474.542 77.3213L477.741 74.2361L497.923 95.197C502.45 99.8985 505.435 104.743 506.879 109.731C508.409 114.72 508.335 119.744 506.658 124.803C504.982 129.861 501.662 134.784 496.699 139.569C491.954 144.144 486.98 147.304 481.776 149.048C476.613 150.836 471.438 151.041 466.25 149.664C461.062 148.286 456.058 145.094 451.238 140.088L431.12 119.192ZM453.642 134.999C456.702 138.177 460.021 140.055 463.6 140.634C467.265 141.214 471.102 140.578 475.111 138.726C479.163 136.918 483.3 133.979 487.522 129.907C491.745 125.835 494.725 121.912 496.463 118.137C498.287 114.364 498.868 110.739 498.208 107.263C497.632 103.788 495.836 100.484 492.818 97.3494L488.48 92.8437L449.367 130.559L453.642 134.999Z" fill="white"/>
<path d="M488.195 191.475C485.82 186.988 484.397 182.816 483.929 178.959C483.46 175.101 484.109 171.61 485.874 168.483C487.639 165.357 490.684 162.646 495.01 160.35L525.85 143.983C527.346 143.19 528.313 142.368 528.753 141.519C529.246 140.642 529.401 139.772 529.219 138.911C529.037 138.05 528.705 137.165 528.224 136.257L526.909 133.773L530.834 131.69L544.579 157.653L540.654 159.736L539.339 157.252C538.858 156.343 538.272 155.56 537.581 154.9C536.971 154.265 536.165 153.906 535.163 153.822C534.189 153.791 532.901 154.201 531.299 155.051L500.219 171.546C497.175 173.161 495.028 174.985 493.777 177.017C492.581 179.02 492.077 181.17 492.266 183.464C492.508 185.731 493.279 188.093 494.58 190.55C495.994 193.221 497.636 195.224 499.506 196.559C501.403 197.947 503.5 198.613 505.797 198.558C508.122 198.556 510.566 197.875 513.129 196.514L544.771 179.722C546.266 178.929 547.233 178.108 547.673 177.258C548.166 176.381 548.322 175.511 548.139 174.65C547.957 173.789 547.625 172.904 547.145 171.996L545.829 169.512L549.755 167.429L560.7 188.103L556.774 190.186L555.417 187.622C554.964 186.767 554.393 186.01 553.701 185.35C553.063 184.662 552.258 184.303 551.284 184.272C550.31 184.242 549.022 184.652 547.42 185.502L515.939 202.208C512.414 204.079 508.961 204.987 505.581 204.934C502.254 204.852 499.119 203.71 496.175 201.509C493.231 199.307 490.571 195.963 488.195 191.475Z" fill="white"/>
<path d="M413.032 338.839L369.507 320.914C331.289 305.174 315.417 255.719 334.057 210.459L355.285 158.915L349.991 156.734L328.762 208.279C310.122 253.539 264.026 277.472 225.808 261.732L182.283 243.807L179.701 250.077L223.226 268.002C261.444 283.742 277.316 333.196 258.676 378.456L237.441 430.016L242.736 432.196L263.97 380.637C282.61 335.377 328.707 311.444 366.925 327.184L410.449 345.109L413.032 338.839Z" fill="white"/>
</g>
</svg>
