<svg width="357" height="274" viewBox="0 0 357 274" fill="none" xmlns="http://www.w3.org/2000/svg">
<path d="M7.44868 97.5224C6.96068 95.7727 6.35069 94.4604 5.6187 93.5822C4.88671 92.7074 4.09372 92.091 3.23634 91.7331C2.38235 91.3753 1.42331 91.1963 0.365991 91.1963H0V90H35.7761V91.1963H32.6007C30.1573 91.1963 28.3274 91.5343 27.1074 92.2103C25.8874 92.8864 25.2774 94.2218 25.2774 96.2101C25.2774 96.8497 25.3791 97.6417 25.5824 98.5994C25.7857 99.5538 26.0094 100.472 26.2534 101.347L32.3601 122.002C33.0107 124.073 33.7427 126.558 34.5561 129.464C35.3694 132.371 36.1827 135.217 36.9994 138.001C37.8127 140.788 38.4634 143.097 38.9548 144.927H39.1988C39.4428 143.972 39.6664 143.134 39.8698 142.418C40.0731 141.702 40.2764 140.987 40.4798 140.271C40.6831 139.555 40.9068 138.799 41.1508 138.001L54.7028 90.5998H62.5174L74.4834 125.823C74.9714 127.254 75.4594 128.709 75.9474 130.18C76.4354 131.655 76.9234 133.166 77.4114 134.717C77.8994 136.268 78.3671 137.802 78.8144 139.313C79.2617 140.824 79.6887 142.299 80.0954 143.73H80.4614C80.7867 142.378 81.234 140.668 81.8034 138.597C82.3727 136.529 83.003 134.319 83.6943 131.973C84.3857 129.627 85.016 127.456 85.5853 125.465L92.058 103.017C92.3833 101.983 92.6477 100.889 92.851 99.7327C93.0543 98.5795 93.156 97.6848 93.156 97.0452C93.156 94.9741 92.485 93.4828 91.143 92.5682C89.801 91.6536 87.7847 91.1963 85.0973 91.1963H80.946V90H105V91.1963H102.923C101.459 91.1963 100.195 91.4349 99.1373 91.9121C98.0766 92.3893 97.1413 93.3039 96.328 94.6592C95.5146 96.0146 94.742 98.0029 94.0066 100.631L78.6212 154H67.1432L51.3918 106.718L37.8398 154H24.6539L7.44868 97.5224Z" fill="#7C4DC2"/>
<path d="M182.88 158C177.46 158 172.906 156.797 169.228 154.398C165.546 151.999 162.753 148.276 160.853 143.227C158.95 138.182 158 131.711 158 123.816C158 115.925 158.95 109.494 160.853 104.527C162.753 99.563 165.505 95.88 169.106 93.4777C172.707 91.0788 177.097 89.876 182.274 89.876C187.128 89.876 191.134 91.2415 194.29 93.9656C197.446 96.6932 199.467 100.905 200.357 106.6H200.599C200.599 103.348 200.579 100.312 200.539 97.5063C200.498 94.6975 200.478 92.2173 200.478 90.059C200.478 87.904 200.478 86.1727 200.478 84.8716V72.6671C200.478 70.4715 199.993 68.8418 199.023 67.7847C198.053 66.7275 196.897 66.0363 195.563 65.7077C194.229 65.3824 192.993 65.2198 191.861 65.2198H190.406V64H218.928V147.625C218.928 149.906 219.393 151.613 220.322 152.752C221.252 153.893 222.404 154.646 223.782 155.012C225.156 155.378 226.41 155.56 227.545 155.56H229V156.78H200.599V140.056H200.357C199.548 146.243 197.564 150.78 194.411 153.666C191.255 156.557 187.411 158 182.88 158ZM187.977 154.951C192.104 154.951 195.22 152.186 197.322 146.649C199.424 141.116 200.478 132.937 200.478 122.112C200.478 115.684 199.993 110.31 199.023 105.997C198.053 101.684 196.634 98.4279 194.775 96.229C192.912 94.0334 190.568 92.9322 187.735 92.9322C185.306 92.9322 183.261 94.03 181.604 96.229C179.943 98.4279 178.71 101.684 177.902 105.997C177.093 110.31 176.689 115.684 176.689 122.112C176.689 129.356 177.113 135.417 177.962 140.3C178.811 145.182 180.088 148.845 181.786 151.288C183.487 153.727 185.552 154.951 187.977 154.951Z" fill="#7C4DC2"/>
<path d="M262.706 157C255.563 157 250.244 155.12 246.756 151.357C243.266 147.594 241.522 141.583 241.522 133.318V99.9441C241.522 97.4104 241.218 95.5271 240.61 94.2978C240.002 93.0718 239.106 92.2544 237.93 91.8458C236.751 91.4371 235.23 91.2328 233.365 91.2328H233V90.0034H260.03V137.367C260.03 140.885 260.334 143.831 260.942 146.201C261.55 148.575 262.524 150.352 263.865 151.538C265.203 152.726 266.97 153.315 269.16 153.315C272.083 153.315 274.354 152.334 275.979 150.369C277.601 148.404 278.737 145.666 279.389 142.149C280.038 138.631 280.362 134.585 280.362 130.001V99.2017C280.362 96.8314 279.896 95.0912 278.963 93.9878C278.03 92.8845 276.895 92.1455 275.554 91.7811C274.212 91.4133 272.935 91.2294 271.718 91.2294H271.232V90H298.87V147.056C298.87 149.184 299.356 150.799 300.329 151.902C301.303 153.005 302.462 153.724 303.8 154.051C305.141 154.378 306.375 154.541 307.513 154.541H308V155.767H280.362V144.233H280.119C279.389 146.933 278.412 149.14 277.196 150.86C275.979 152.576 274.597 153.867 273.056 154.725C271.515 155.583 269.85 156.176 268.065 156.503C266.278 156.837 264.49 157 262.706 157Z" fill="#7C4DC2"/>
<path d="M126.862 184C116.073 184 107.899 181.106 102.34 175.311C96.7811 169.519 94 161.428 94 151.039C94 139.771 96.6948 131.282 102.091 125.57C107.484 119.858 115.078 117 124.872 117C133.917 117 141.034 119.438 146.22 124.312C151.405 129.186 154 136.897 154 146.335C154 147.676 152.87 148.763 151.478 148.763H116.187C114.518 148.763 113.167 150.084 113.195 151.691C113.316 158.431 113.869 163.986 114.85 168.361C115.969 173.358 117.755 176.991 120.201 179.269C122.647 181.548 125.822 182.686 129.723 182.686C132.628 182.686 135.334 182.207 137.628 180.886C143.49 177.513 140.129 171.731 140.129 168.168C140.129 164.945 142.285 161.265 146.959 161.265C151.661 161.265 153.993 164.323 153.993 168.168C153.993 176.675 144.098 180.607 140.488 181.964C136.885 183.318 132.342 184 126.862 184ZM132.076 147.563C133.737 147.563 135.085 146.248 135.064 144.648C134.995 138.733 134.708 133.93 134.211 130.244C133.63 125.969 132.594 122.892 131.098 121.015C129.605 119.139 127.529 118.198 124.872 118.198C122.216 118.198 120.018 119.139 118.274 121.015C116.529 122.895 115.264 125.972 114.477 130.244C113.796 133.923 113.378 138.713 113.226 144.612C113.185 146.229 114.535 147.566 116.215 147.566H132.076V147.563Z" fill="#7C4DC2"/>
<path d="M331 31.2641H318.928C308.328 31.2641 299.734 22.6707 299.734 12.0713V0H298.266V12.0713C298.266 22.6707 289.672 31.2641 279.072 31.2641H267V32.7325H279.072C289.672 32.7325 298.266 41.3258 298.266 51.9252V64H299.734V51.9252C299.734 41.3258 308.328 32.7325 318.928 32.7325H331V31.2641Z" fill="#7C4DC2"/>
<path d="M313.411 192L312 190.064C339.888 169.079 354.63 143.868 354.63 117.148C354.63 91.6448 341.077 67.351 315.439 46.8942L316.901 45C343.133 65.9295 357 90.8767 357 117.148C356.997 144.66 341.924 170.542 313.411 192Z" fill="#7C4DC2"/>
<path d="M19.3707 206.875L23.332 209.025C23.7312 207.571 23.0039 206.406 21.7928 205.747C20.7644 205.19 19.7868 205.146 18.7347 205.295L18.6603 203.199C20.0066 202.747 21.6947 203.124 22.8246 203.736C25.8759 205.39 26.8096 208.264 25.2704 211.128C23.8665 213.734 21.0012 214.875 17.9871 213.241C16.2652 212.307 15.362 211.175 15 209.898L16.8843 208.967C17.1447 209.674 17.8281 210.588 18.9207 211.179C20.2671 211.909 21.5831 211.75 22.5269 210.564L18.5452 208.403L19.3707 206.875Z" fill="#7C4DC2"/>
<path d="M27.5082 207L37 210.719L35.738 212.92L32.3368 211.587L28.6625 218L26 216.957L29.6744 210.544L26.2501 209.201L27.5082 207Z" fill="#7C4DC2"/>
<path d="M43.5047 212.503C46.5803 213.801 47.7084 216.774 46.5601 219.634C45.4152 222.49 42.5713 223.795 39.4958 222.497C36.4169 221.2 35.292 218.226 36.4403 215.37C37.5853 212.507 40.4258 211.206 43.5047 212.503ZM40.4023 220.229C41.8696 220.849 43.3771 220.219 44.0386 218.567C44.6832 216.96 44.0319 215.398 42.5848 214.785C41.1813 214.193 39.6401 214.782 38.9787 216.433C38.3407 218.023 38.9552 219.62 40.4023 220.229Z" fill="#7C4DC2"/>
<path d="M59.3382 225.381L54.8771 223.961L53.605 227.753L51 226.926L54.3288 217L56.9339 217.827L55.6761 221.578L60.1373 222.998L61.395 219.247L64 220.074L60.6712 230L58.0661 229.173L59.3382 225.381Z" fill="#7C4DC2"/>
<path d="M73.4213 234.501C72.0268 235.12 70.2955 235.132 68.713 234.709C65.0701 233.743 63.2839 230.819 64.2671 227.382C65.1759 224.212 68.1646 222.273 71.8819 223.257C74.7962 224.031 76.6568 226.687 75.7833 229.736C75.5874 230.415 75.419 230.811 75.1761 231.189L67.013 229.019C66.7936 230.732 67.8943 231.988 69.6766 232.46C71.0593 232.826 72.352 232.649 73.151 232.317L73.4213 234.501ZM67.4478 227.136L73.0022 228.612C73.4056 227.287 72.7515 225.993 71.0946 225.552C69.3593 225.087 68.1568 225.785 67.4478 227.136Z" fill="#7C4DC2"/>
<path d="M145.935 242.002C147.255 242.047 148.049 243.246 147.998 244.865C147.928 246.983 146.707 248.49 144.755 249L144.042 247.628C144.659 247.426 145.207 247.118 145.579 246.357C145.814 245.889 145.924 245.469 145.836 245.218C145.681 245.413 145.391 245.401 145.196 245.398C144.56 245.375 143.968 244.682 144.001 243.76C144.027 242.714 144.711 241.96 145.935 242.002Z" fill="#7C4DC2"/>
<path d="M153.733 241.559L158.894 241.517C158.491 240.007 157.118 239.317 155.544 239.331C154.203 239.341 153.202 239.793 152.229 240.452L151 238.598C152.097 237.515 154.001 237.011 155.47 237C159.445 236.969 161.965 239.092 162 242.449C162.031 245.501 159.786 247.968 155.866 248C153.625 248.017 152.093 247.446 151.027 246.475L152.404 244.692C153.051 245.2 154.245 245.68 155.66 245.666C157.413 245.652 158.646 244.849 158.937 243.308L153.753 243.35L153.733 241.559Z" fill="#7C4DC2"/>
<path d="M163 237.36L174.878 237L175 239.753L170.74 239.882L171.097 247.899L167.765 248L167.408 239.983L163.118 240.113L163 237.36Z" fill="#7C4DC2"/>
<path d="M180.595 236.02C184.233 235.753 186.751 238.144 186.983 241.563C187.215 244.985 185.043 247.713 181.405 247.98C177.764 248.244 175.249 245.856 175.017 242.434C174.785 239.015 176.957 236.284 180.595 236.02ZM181.225 245.268C182.959 245.142 184.141 243.755 184.008 241.781C183.876 239.855 182.491 238.629 180.783 238.755C179.122 238.874 177.889 240.237 178.021 242.216C178.15 244.118 179.513 245.39 181.225 245.268Z" fill="#7C4DC2"/>
<path d="M192 235.518L194.777 235.204L199.518 239.121L202.741 234.304L205.441 234L207 244.482L203.927 244.828L202.976 238.422L200.004 242.739L199.923 242.749L195.684 239.248L196.636 245.654L193.563 246L192 235.518Z" fill="#7C4DC2"/>
<path d="M82.3232 225.7L84.8052 226.487L86.9963 232.12L91.9175 228.745L94.3259 229.51L90.8303 240.217L88.0851 239.345L90.2201 232.8L85.7402 235.791L85.6665 235.768L83.702 230.734L81.567 237.279L78.8217 236.407L82.3232 225.7Z" fill="#7C4DC2"/>
<path d="M97.7046 231.144C98.7865 230.798 100.393 230.644 101.838 230.966C105.09 231.697 105.853 233.609 105.178 236.511L103.624 243.189L101.182 242.641L101.476 241.374C100.698 242.071 99.3888 242.392 97.8953 242.058C95.889 241.607 94.7365 240.04 95.2298 237.922C95.7891 235.51 97.8411 234.764 100.067 235.262C101.045 235.483 101.948 236.019 102.396 236.529C102.895 234.717 102.638 233.608 100.999 233.243C99.728 232.958 98.8306 233.167 97.938 233.351L97.7046 231.144ZM101.731 239.38L101.994 238.259C101.593 237.783 100.996 237.471 100.187 237.288C99.2578 237.079 98.3222 237.331 98.1062 238.257C97.9149 239.086 98.491 239.701 99.3717 239.898C100.546 240.164 101.273 239.79 101.731 239.38Z" fill="#7C4DC2"/>
<path d="M109.327 232.773L116.811 233.934L116.374 236.599L111.739 235.879L110.359 244.32L107.509 243.877L109.327 232.773Z" fill="#7C4DC2"/>
<path d="M117.895 245.426L118.88 234.224L121.756 234.453L121.133 241.547L127.006 234.875L129.879 235.106L128.893 246.308L126.021 246.077L126.644 238.983L120.771 245.655L117.895 245.426Z" fill="#7C4DC2"/>
<path d="M142.617 235.181L142.574 246.42L139.686 246.427L139.699 243.054L138.092 243.058L135.742 246.436L132.428 246.445L135.455 242.442C134.476 242.094 133.277 241.05 133.283 239.2C133.291 237.027 134.855 235.199 138.92 235.187L142.617 235.181ZM138.203 240.936L139.711 240.931L139.726 237.685L138.444 237.688C137.038 237.691 136.384 238.544 136.376 239.392C136.372 240.318 137.299 240.936 138.203 240.936Z" fill="#7C4DC2"/>
<path d="M210.58 233.61C211.565 232.883 213.148 232.161 214.738 231.974C218.319 231.547 219.78 233.18 220.121 236.297L220.909 243.475L218.218 243.794L218.069 242.43C217.521 243.398 216.297 244.179 214.654 244.374C212.446 244.636 210.712 243.488 210.463 241.208C210.181 238.614 212.009 237.149 214.458 236.859C215.537 236.73 216.648 236.942 217.289 237.293C217.155 235.32 216.498 234.309 214.694 234.525C213.293 234.692 212.451 235.218 211.608 235.713L210.58 233.61ZM217.615 240.361L217.48 239.154C216.897 238.825 216.176 238.725 215.29 238.832C214.269 238.952 213.404 239.535 213.515 240.528C213.611 241.418 214.42 241.828 215.391 241.711C216.682 241.562 217.298 240.929 217.615 240.361Z" fill="#7C4DC2"/>
<path d="M222.747 231.432L225.414 230.916L225.619 231.939C226.125 231.101 227.235 230.291 228.579 230.033C231.451 229.479 233.768 231.405 234.411 234.566C235.07 237.825 233.403 240.763 230.068 241.41C229.14 241.59 228.203 241.595 227.527 241.357L228.542 246.373L225.876 246.89L222.747 231.432ZM226.115 234.39L226.99 238.719C227.805 239.058 228.436 239.082 229.318 238.912C231.171 238.555 231.958 236.968 231.596 235.185C231.25 233.471 230.025 232.425 228.264 232.765C227.363 232.941 226.613 233.529 226.115 234.39Z" fill="#7C4DC2"/>
<path d="M236.412 227.866L239.38 227.012L242.573 238.155L239.605 239.009L236.412 227.866ZM244.462 231.29L251.147 235.697L247.274 236.809L241.065 232.509L243.663 225.784L247.407 224.71L244.462 231.29Z" fill="#7C4DC2"/>
<path d="M261.913 229.404C261.129 230.722 259.69 231.743 258.112 232.325C254.486 233.66 251.218 232.317 249.951 228.937C248.779 225.82 250.088 222.488 253.791 221.124C256.69 220.056 259.859 221.135 260.988 224.137C261.239 224.804 261.34 225.225 261.369 225.677L253.242 228.674C254.098 230.2 255.783 230.585 257.557 229.931C258.931 229.423 259.902 228.524 260.364 227.786L261.913 229.404ZM252.452 226.875L257.977 224.836C257.508 223.516 256.173 222.843 254.526 223.452C252.801 224.09 252.225 225.358 252.452 226.875Z" fill="#7C4DC2"/>
<path d="M260.402 219.228L270.133 214.708L271.43 217.559L267.941 219.178L271.723 227.482L268.993 228.747L265.21 220.444L261.698 222.075L260.402 219.228Z" fill="#7C4DC2"/>
<path d="M278.609 223.573L272.711 213.171L275.416 211.664L279.15 218.253L280.358 208.913L283.063 207.406L288.961 217.809L286.256 219.315L282.522 212.727L281.314 222.067L278.609 223.573Z" fill="#7C4DC2"/>
<path d="M296.901 207.676L292.681 210.635L295.281 214.505L292.818 216.232L286.018 206.109L288.481 204.383L291.049 208.208L295.27 205.25L292.702 201.424L295.165 199.698L301.965 209.82L299.502 211.547L296.901 207.676Z" fill="#7C4DC2"/>
<path d="M298.879 197.685L305.542 192.55L307.394 194.769L303.267 197.947L309.124 204.974L306.589 206.93L298.879 197.685Z" fill="#7C4DC2"/>
</svg>
