<svg width="195" height="135" viewBox="0 0 195 135" fill="none" xmlns="http://www.w3.org/2000/svg">
<path d="M4.54357 53.1138C4.27866 52.1569 3.94752 51.4393 3.55015 50.959C3.15279 50.4806 2.72231 50.1435 2.25687 49.9478C1.79328 49.7521 1.27265 49.6542 0.698681 49.6542H0.5V49H19.9213V49.6542H18.1975C16.8711 49.6542 15.8777 49.8391 15.2154 50.2088C14.5532 50.5785 14.222 51.3088 14.222 52.3962C14.222 52.7459 14.2772 53.1791 14.3876 53.7028C14.498 54.2247 14.6194 54.7267 14.7518 55.2051L18.0669 66.5009C18.4201 67.6336 18.8175 68.9928 19.259 70.5821C19.7005 72.1714 20.142 73.7282 20.5854 75.2505C21.0269 76.7746 21.3801 78.0377 21.6469 79.0381H21.7793C21.9118 78.5161 22.0332 78.0576 22.1436 77.6662C22.254 77.2747 22.3644 76.8833 22.4747 76.4918C22.5851 76.1004 22.7065 75.6872 22.839 75.2505L30.1958 49.328H34.438L40.9339 68.5904C41.1988 69.3733 41.4637 70.1689 41.7286 70.9735C41.9935 71.78 42.2584 72.6064 42.5233 73.4545C42.7882 74.3026 43.0421 75.1417 43.285 75.9681C43.5278 76.7945 43.7596 77.6009 43.9803 78.3838H44.179C44.3556 77.6444 44.5985 76.7093 44.9075 75.5767C45.2166 74.4458 45.5588 73.237 45.9341 71.954C46.3094 70.6709 46.6515 69.4839 46.9606 68.3947L50.4743 56.1185C50.6509 55.5531 50.7944 54.9551 50.9048 54.3226C51.0152 53.6919 51.0704 53.2026 51.0704 52.8528C51.0704 51.7202 50.7061 50.9047 49.9776 50.4045C49.2491 49.9043 48.1545 49.6542 46.6957 49.6542H44.4421V49H57.5V49.6542H56.3723C55.5776 49.6542 54.8914 49.7847 54.3174 50.0457C53.7416 50.3066 53.2338 50.8068 52.7923 51.548C52.3508 52.2892 51.9314 53.3766 51.5321 54.8137L43.1801 84H36.9492L28.3984 58.1428L21.0416 84H13.8835L4.54357 53.1138Z" fill="#262626"/>
<path d="M100.167 86C97.1895 86 94.6878 85.3474 92.6672 84.0459C90.6448 82.7444 89.1108 80.7241 88.0672 77.985C87.0218 75.2478 86.5 71.7366 86.5 67.4534C86.5 63.172 87.0218 59.6829 88.0672 56.9879C89.1108 54.2948 90.6226 52.2966 92.6006 50.9932C94.5787 49.6917 96.9897 49.0391 99.8337 49.0391C102.5 49.0391 104.7 49.7799 106.434 51.2579C108.168 52.7378 109.278 55.0228 109.766 58.113H109.9C109.9 56.3482 109.889 54.7011 109.866 53.179C109.844 51.655 109.833 50.3094 109.833 49.1384C109.833 47.9692 109.833 47.0298 109.833 46.3239V39.7024C109.833 38.5111 109.567 37.6269 109.034 37.0534C108.501 36.4798 107.866 36.1048 107.133 35.9265C106.401 35.75 105.722 35.6618 105.1 35.6618H104.3V35H119.967V80.3711C119.967 81.6083 120.223 82.5348 120.733 83.1525C121.244 83.772 121.877 84.1801 122.634 84.3786C123.389 84.5772 124.077 84.6764 124.701 84.6764H125.5V85.3382H109.9V76.2644H109.766C109.322 79.6211 108.232 82.0826 106.501 83.6488C104.767 85.2169 102.655 86 100.167 86ZM102.966 84.3455C105.233 84.3455 106.945 82.8455 108.099 79.8417C109.254 76.8398 109.833 72.4021 109.833 66.5287C109.833 63.0415 109.567 60.1259 109.034 57.7857C108.501 55.4456 107.722 53.679 106.7 52.4859C105.677 51.2947 104.389 50.6973 102.833 50.6973C101.499 50.6973 100.376 51.2929 99.4655 52.4859C98.5532 53.679 97.876 55.4456 97.4319 57.7857C96.9878 60.1259 96.7658 63.0415 96.7658 66.5287C96.7658 70.459 96.9989 73.7477 97.4652 76.3967C97.9315 79.0457 98.6328 81.0329 99.5654 82.3583C100.5 83.6819 101.634 84.3455 102.966 84.3455Z" fill="#262626"/>
<path d="M142.739 86C138.834 86 135.927 84.9619 134.02 82.8838C132.112 80.8056 131.159 77.4863 131.159 72.9219V54.4915C131.159 53.0923 130.993 52.0523 130.66 51.3734C130.328 50.6964 129.838 50.245 129.195 50.0193C128.55 49.7936 127.719 49.6808 126.699 49.6808H126.5V49.0019H141.276V75.158C141.276 77.1007 141.443 78.7275 141.775 80.0364C142.108 81.3473 142.64 82.329 143.373 82.9834C144.104 83.6398 145.071 83.9651 146.268 83.9651C147.865 83.9651 149.107 83.4235 149.995 82.3384C150.882 81.2532 151.503 79.7412 151.859 77.7985C152.214 75.8558 152.391 73.6215 152.391 71.0902V54.0815C152.391 52.7726 152.136 51.8116 151.626 51.2022C151.117 50.5929 150.496 50.1848 149.763 49.9836C149.029 49.7805 148.331 49.6789 147.666 49.6789H147.4V49H162.509V80.5085C162.509 81.6839 162.775 82.5753 163.307 83.1847C163.839 83.794 164.472 84.1908 165.204 84.3714C165.937 84.5519 166.611 84.6422 167.234 84.6422H167.5V85.3192H152.391V78.9494H152.258C151.859 80.4408 151.325 81.6595 150.66 82.6092C149.995 83.557 149.24 84.2698 148.397 84.7437C147.555 85.2177 146.644 85.5449 145.669 85.7254C144.692 85.9097 143.715 86 142.739 86Z" fill="#262626"/>
<path d="M69.5743 100C63.6401 100 59.1443 98.4017 56.087 95.2014C53.0296 92.0029 51.5 87.535 51.5 81.7976C51.5 75.5752 52.9821 70.8868 55.9502 67.7325C58.9163 64.5781 63.0928 63 68.4798 63C73.4544 63 77.3687 64.3466 80.2209 67.038C83.073 69.7294 84.5 73.9879 84.5 79.1999C84.5 79.9403 83.8787 80.541 83.1129 80.541H63.7028C62.785 80.541 62.0421 81.2704 62.0573 82.1577C62.1238 85.8797 62.4278 88.9478 62.9674 91.3636C63.5831 94.123 64.5655 96.1292 65.9108 97.3876C67.2561 98.646 69.0023 99.2743 71.1476 99.2743C72.7456 99.2743 74.2335 99.0098 75.4952 98.2804C78.7197 96.4176 76.8709 93.2246 76.8709 91.2571C76.8709 89.4769 78.0566 87.445 80.6275 87.445C83.2136 87.445 84.4962 89.1333 84.4962 91.2571C84.4962 95.9546 79.0542 98.1261 77.0685 98.8757C75.0866 99.6234 72.5879 100 69.5743 100ZM72.4416 79.8778C73.3556 79.8778 74.0966 79.1521 74.0852 78.2685C74.0472 75.002 73.8895 72.3492 73.6159 70.3137C73.2967 67.9529 72.7266 66.2536 71.9039 65.2174C71.083 64.1813 69.941 63.6614 68.4798 63.6614C67.0186 63.6614 65.8101 64.1813 64.8505 65.2174C63.8909 66.2554 63.1955 67.9548 62.7622 70.3137C62.3879 72.3455 62.158 74.991 62.0744 78.2483C62.0516 79.1411 62.7945 79.8796 63.718 79.8796H72.4416V79.8778Z" fill="#262626"/>
<path d="M180.5 17.0975H173.898C168.101 17.0975 163.402 12.3981 163.402 6.60149V0H162.598V6.60149C162.598 12.3981 157.899 17.0975 152.102 17.0975H145.5V17.9006H152.102C157.899 17.9006 162.598 22.6 162.598 28.3966V35H163.402V28.3966C163.402 22.6 168.101 17.9006 173.898 17.9006H180.5V17.0975Z" fill="#262626"/>
<path d="M170.284 105L169.5 103.946C184.993 92.526 193.183 78.8056 193.183 64.2642C193.183 50.3849 185.654 37.1638 171.411 26.0308L172.223 25C186.796 36.3902 194.5 49.9669 194.5 64.2642C194.498 79.2368 186.124 93.3223 170.284 105Z" fill="#262626"/>
<path d="M10.884 112.113L13.0447 113.286C13.2625 112.493 12.8657 111.858 12.2052 111.498C11.6442 111.194 11.111 111.17 10.5371 111.252L10.4965 110.109C11.2309 109.862 12.1516 110.068 12.7679 110.401C14.4323 111.304 14.9416 112.871 14.102 114.433C13.3363 115.855 11.7734 116.477 10.1293 115.586C9.19011 115.076 8.69744 114.459 8.5 113.763L9.52778 113.255C9.66986 113.64 10.0426 114.139 10.6386 114.461C11.373 114.86 12.0908 114.773 12.6056 114.126L10.4338 112.947L10.884 112.113Z" fill="#262626"/>
<path d="M15.3227 112L20.5 114.028L19.8116 115.229L17.9565 114.502L15.9523 118L14.5 117.431L16.5042 113.933L14.6364 113.201L15.3227 112Z" fill="#262626"/>
<path d="M24.5935 116.275C26.2711 116.982 26.8864 118.604 26.2601 120.164C25.6356 121.722 24.0844 122.433 22.4068 121.726C20.7274 121.018 20.1138 119.396 20.7402 117.838C21.3647 116.276 22.9141 115.567 24.5935 116.275ZM22.9013 120.489C23.7016 120.827 24.5239 120.483 24.8847 119.582C25.2363 118.705 24.881 117.853 24.0917 117.519C23.3262 117.196 22.4855 117.517 22.1247 118.418C21.7768 119.285 22.1119 120.156 22.9013 120.489Z" fill="#262626"/>
<path d="M32.3484 121.868L30.2894 121.213L29.7023 122.963L28.5 122.581L30.0364 118L31.2387 118.382L30.6582 120.113L32.7172 120.768L33.2977 119.037L34.5 119.419L32.9636 124L31.7613 123.618L32.3484 121.868Z" fill="#262626"/>
<path d="M42.2107 128.751C41.5134 129.06 40.6477 129.066 39.8565 128.854C38.0351 128.371 37.142 126.909 37.6336 125.191C38.0879 123.606 39.5823 122.636 41.4409 123.129C42.8981 123.515 43.8284 124.844 43.3916 126.368C43.2937 126.708 43.2095 126.906 43.0881 127.094L39.0065 126.01C38.8968 126.866 39.4472 127.494 40.3383 127.73C41.0297 127.913 41.676 127.824 42.0755 127.658L42.2107 128.751ZM39.2239 125.068L42.0011 125.806C42.2028 125.144 41.8757 124.497 41.0473 124.276C40.1797 124.044 39.5784 124.393 39.2239 125.068Z" fill="#262626"/>
<path d="M46.7537 125L48.1475 125.234L49.675 127.612L52.1454 125.903L53.5 126.131L52.2463 131L50.7023 130.741L51.4702 127.765L49.218 129.283L49.1788 129.276L47.8098 127.151L47.044 130.126L45.5 129.867L46.7537 125Z" fill="#262626"/>
<path d="M54.3333 125.252C54.7563 125.05 55.3916 124.928 55.9743 125.046C57.29 125.311 57.6438 126.23 57.4511 127.674L57.007 131L56.0194 130.802L56.1037 130.172C55.8117 130.538 55.2983 130.734 54.6946 130.612C53.8847 130.449 53.3834 129.713 53.5234 128.656C53.6845 127.454 54.4808 127.028 55.3811 127.208C55.777 127.287 56.1504 127.524 56.3416 127.763C56.4921 126.858 56.3612 126.32 55.6988 126.187C55.1854 126.084 54.8331 126.213 54.4824 126.33L54.3333 125.252ZM56.1549 129.184L56.2287 128.626C56.0556 128.404 55.8102 128.267 55.4835 128.203C55.1071 128.127 54.7428 128.278 54.6811 128.739C54.6269 129.151 54.8723 129.438 55.2276 129.51C55.7018 129.604 55.9833 129.399 56.1549 129.184Z" fill="#262626"/>
<path d="M60.1574 127L63.5 127.514L63.3423 128.907L61.2727 128.589L60.773 133L59.5 132.805L60.1574 127Z" fill="#262626"/>
<path d="M63.5 132.48L64.0412 127L65.4682 127.136L65.1255 130.606L68.0749 127.384L69.5 127.52L68.9588 133L67.5318 132.864L67.8764 129.394L64.927 132.616L63.5 132.48Z" fill="#262626"/>
<path d="M77.5 127.123L77.1326 133L75.5287 132.912L75.64 131.148L74.7477 131.099L73.3412 132.792L71.5 132.691L73.3034 130.694C72.7722 130.481 72.1361 129.896 72.197 128.93C72.2684 127.794 73.1921 126.887 75.451 127.011L77.5 127.123ZM74.8695 129.994L75.7071 130.039L75.8142 128.34L75.1025 128.301C74.3216 128.258 73.9311 128.683 73.9038 129.127C73.8723 129.61 74.3698 129.964 74.8695 129.994Z" fill="#262626"/>
<path d="M78.4676 131.001C79.1275 131.027 79.5246 131.712 79.4988 132.637C79.4639 133.848 78.8536 134.709 77.8775 135L77.5209 134.216C77.8297 134.1 78.1036 133.925 78.2893 133.49C78.4069 133.222 78.4621 132.982 78.4179 132.839C78.3407 132.95 78.1955 132.944 78.0981 132.942C77.7801 132.929 77.4841 132.532 77.5007 132.006C77.5135 131.408 77.8554 130.977 78.4676 131.001Z" fill="#262626"/>
<path d="M82.991 129.487L85.8058 129.464C85.5859 128.64 84.8372 128.264 83.9786 128.271C83.2469 128.277 82.7012 128.524 82.1704 128.883L81.5 127.872C82.0985 127.281 83.1369 127.006 83.9384 127C86.1061 126.983 87.4808 128.141 87.4998 129.972C87.5167 131.637 86.2922 132.983 84.1541 133C82.9318 133.009 82.0964 132.698 81.5148 132.168L82.2656 131.196C82.6188 131.473 83.2701 131.735 84.0421 131.727C84.998 131.719 85.6705 131.282 85.8291 130.441L83.0016 130.463L82.991 129.487Z" fill="#262626"/>
<path d="M88.5 127.196L94.439 127L94.5 128.501L92.3701 128.572L92.5486 132.945L90.8826 133L90.704 128.627L88.5588 128.698L88.5 127.196Z" fill="#262626"/>
<path d="M97.2975 127.01C99.1164 126.876 100.376 128.072 100.492 129.781C100.608 131.493 99.5214 132.856 97.7025 132.99C95.8818 133.122 94.6244 131.928 94.5084 130.217C94.3925 128.508 95.4786 127.142 97.2975 127.01ZM97.6123 131.634C98.4794 131.571 99.0703 130.878 99.0041 129.89C98.9378 128.928 98.2456 128.315 97.3914 128.378C96.5611 128.437 95.9444 129.119 96.0107 130.108C96.0751 131.059 96.7563 131.695 97.6123 131.634Z" fill="#262626"/>
<path d="M104.5 127.759L105.611 127.602L107.507 129.561L108.796 127.152L109.877 127L110.5 132.241L109.271 132.414L108.89 129.211L107.702 131.369L107.669 131.375L105.974 129.624L106.354 132.827L105.125 133L104.5 127.759Z" fill="#262626"/>
<path d="M112.5 125.931C112.842 125.562 113.403 125.184 113.976 125.059C115.271 124.777 115.842 125.519 116.041 126.996L116.5 130.395L115.526 130.609L115.44 129.964C115.263 130.437 114.836 130.836 114.242 130.966C113.443 131.14 112.784 130.633 112.638 129.555C112.472 128.328 113.104 127.588 113.991 127.395C114.38 127.31 114.791 127.386 115.032 127.539C114.937 126.603 114.672 126.135 114.02 126.279C113.514 126.389 113.22 126.659 112.923 126.915L112.5 125.931ZM115.228 128.988L115.15 128.417C114.931 128.273 114.665 128.241 114.344 128.313C113.974 128.394 113.673 128.689 113.737 129.16C113.793 129.582 114.098 129.758 114.448 129.682C114.917 129.578 115.125 129.266 115.228 128.988Z" fill="#262626"/>
<path d="M118.5 125.779L119.85 125.507L119.958 125.985C120.211 125.586 120.774 125.193 121.456 125.056C122.912 124.763 124.092 125.639 124.424 127.117C124.767 128.64 123.928 130.04 122.239 130.381C121.77 130.477 121.293 130.49 120.951 130.385L121.478 132.729L120.128 133L118.5 125.779ZM120.216 127.129L120.671 129.15C121.086 129.299 121.405 129.304 121.851 129.213C122.791 129.024 123.186 128.271 122.997 127.438C122.817 126.639 122.194 126.159 121.301 126.34C120.844 126.432 120.467 126.718 120.216 127.129Z" fill="#262626"/>
<path d="M124.5 124.182L125.724 123.863L126.964 128.681L125.74 129L124.5 124.182ZM127.783 125.771L130.5 127.76L128.902 128.175L126.38 126.239L127.492 123.402L129.036 123L127.783 125.771Z" fill="#262626"/>
<path d="M136.5 124.52C136.084 125.146 135.353 125.601 134.567 125.834C132.758 126.369 131.192 125.588 130.653 123.867C130.155 122.279 130.878 120.676 132.725 120.13C134.171 119.701 135.696 120.348 136.177 121.875C136.282 122.214 136.322 122.428 136.324 122.652L132.27 123.852C132.654 124.638 133.468 124.887 134.354 124.625C135.04 124.423 135.538 124.01 135.783 123.659L136.5 124.52ZM131.927 122.932L134.683 122.117C134.487 121.447 133.848 121.066 133.027 121.31C132.166 121.565 131.855 122.174 131.927 122.932Z" fill="#262626"/>
<path d="M137.5 119.595L142.961 118L143.5 119.273L141.542 119.845L143.112 123.552L141.58 124L140.01 120.293L138.039 120.87L137.5 119.595Z" fill="#262626"/>
<path d="M145.267 122L143.5 117.71L144.606 117.263L145.724 119.98L146.627 116.447L147.733 116L149.5 120.29L148.394 120.737L147.276 118.02L146.374 121.553L145.267 122Z" fill="#262626"/>
<path d="M155.044 115.053L152.591 115.919L153.618 117.495L152.187 118L149.5 113.877L150.932 113.371L151.946 114.929L154.398 114.063L153.384 112.505L154.815 112L157.5 116.123L156.068 116.629L155.044 115.053Z" fill="#262626"/>
<path d="M155.5 111.614L158.837 110L159.492 111.053L157.427 112.052L159.5 115.385L158.23 116L155.5 111.614Z" fill="#262626"/>
</svg>
